<?xml version="1.0" encoding="UTF-8" standalone="no"?>
<!DOCTYPE svg PUBLIC "-//W3C//DTD SVG 1.1//EN"
 "http://www.w3.org/Graphics/SVG/1.1/DTD/svg11.dtd">
<!-- Generated by graphviz version 2.43.0 (0)
 -->
<!-- Title: UOWGameplayEffect Pages: 1 -->
<svg width="482pt" height="227pt"
 viewBox="0.00 0.00 481.50 227.00" xmlns="http://www.w3.org/2000/svg" xmlns:xlink="http://www.w3.org/1999/xlink">
<g id="graph0" class="graph" transform="scale(1 1) rotate(0) translate(4 223)">
<title>UOWGameplayEffect</title>
<!-- Node1 -->
<g id="Node000001" class="node">
<title>Node1</title>
<g id="a_Node000001"><a xlink:title=" ">
<polygon fill="#999999" stroke="transparent" points="301.5,-134 188.5,-134 188.5,-85 301.5,-85 301.5,-134"/>
<text text-anchor="start" x="194" y="-121.5" font-family="Helvetica,sans-Serif" font-size="10.00">UOWGameplayEffect</text>
<text text-anchor="start" x="243.5" y="-106.5" font-family="Helvetica,sans-Serif" font-size="10.00"> </text>
<text text-anchor="start" x="243.5" y="-91.5" font-family="Helvetica,sans-Serif" font-size="10.00"> </text>
<polygon fill="#666666" stroke="#666666" points="189,-116.5 189,-116.5 302,-116.5 302,-116.5 189,-116.5"/>
<polygon fill="#666666" stroke="#666666" points="189,-101.5 189,-101.5 302,-101.5 302,-101.5 189,-101.5"/>
<polygon fill="none" stroke="#666666" points="188.5,-85 188.5,-134 301.5,-134 301.5,-85 188.5,-85"/>
</a>
</g>
</g>
<!-- Node3 -->
<g id="Node000003" class="node">
<title>Node3</title>
<g id="a_Node000003"><a xlink:href="classUOWCooldownGameplayEffect.html" target="_top" xlink:title=" ">
<polygon fill="white" stroke="transparent" points="180,-49 0,-49 0,0 180,0 180,-49"/>
<text text-anchor="start" x="14.5" y="-36.5" font-family="Helvetica,sans-Serif" font-size="10.00">UOWCooldownGameplayEffect</text>
<text text-anchor="start" x="88" y="-21.5" font-family="Helvetica,sans-Serif" font-size="10.00"> </text>
<text text-anchor="start" x="4" y="-6.5" font-family="Helvetica,sans-Serif" font-size="10.00">+</text>
<text text-anchor="start" x="17" y="-6.5" font-family="Helvetica,sans-Serif" font-size="10.00">UOWCooldownGameplayEffect()</text>
<polygon fill="#bfbfbf" stroke="#bfbfbf" points="0,-31.5 0,-31.5 180,-31.5 180,-31.5 0,-31.5"/>
<polygon fill="#bfbfbf" stroke="#bfbfbf" points="0,-16.5 0,-16.5 180,-16.5 180,-16.5 0,-16.5"/>
<polygon fill="none" stroke="#bfbfbf" points="0,0 0,-49 180,-49 180,0 0,0"/>
</a>
</g>
</g>
<!-- Node1&#45;&gt;Node3 -->
<g id="edge2_Node000001_Node000003" class="edge">
<title>Node1&#45;&gt;Node3</title>
<g id="a_edge2_Node000001_Node000003"><a xlink:title=" ">
<path fill="none" stroke="#63b8ff" d="M191.95,-80.09C173.11,-70 152.12,-58.77 134.11,-49.12"/>
<polygon fill="none" stroke="#63b8ff" points="190.53,-83.3 201,-84.94 193.83,-77.13 190.53,-83.3"/>
</a>
</g>
</g>
<!-- Node4 -->
<g id="Node000004" class="node">
<title>Node4</title>
<g id="a_Node000004"><a xlink:href="classUOWGE__Cost.html" target="_top" xlink:title=" ">
<polygon fill="white" stroke="transparent" points="292,-49 198,-49 198,0 292,0 292,-49"/>
<text text-anchor="start" x="212" y="-36.5" font-family="Helvetica,sans-Serif" font-size="10.00">UOWGE_Cost</text>
<text text-anchor="start" x="243" y="-21.5" font-family="Helvetica,sans-Serif" font-size="10.00"> </text>
<text text-anchor="start" x="202" y="-6.5" font-family="Helvetica,sans-Serif" font-size="10.00">+</text>
<text text-anchor="start" x="215" y="-6.5" font-family="Helvetica,sans-Serif" font-size="10.00">UOWGE_Cost()</text>
<polygon fill="#666666" stroke="#666666" points="198,-31.5 198,-31.5 292,-31.5 292,-31.5 198,-31.5"/>
<polygon fill="#666666" stroke="#666666" points="198,-16.5 198,-16.5 292,-16.5 292,-16.5 198,-16.5"/>
<polygon fill="none" stroke="#666666" points="198,0 198,-49 292,-49 292,0 198,0"/>
</a>
</g>
</g>
<!-- Node1&#45;&gt;Node4 -->
<g id="edge3_Node000001_Node000004" class="edge">
<title>Node1&#45;&gt;Node4</title>
<g id="a_edge3_Node000001_Node000004"><a xlink:title=" ">
<path fill="none" stroke="#63b8ff" d="M245,-74.77C245,-66.17 245,-57.1 245,-49.12"/>
<polygon fill="none" stroke="#63b8ff" points="241.5,-74.94 245,-84.94 248.5,-74.94 241.5,-74.94"/>
</a>
</g>
</g>
<!-- Node5 -->
<g id="Node000005" class="node">
<title>Node5</title>
<g id="a_Node000005"><a xlink:href="classUOWGE__InitUltimateGauge.html" target="_top" xlink:title=" ">
<polygon fill="white" stroke="transparent" points="473.5,-49 310.5,-49 310.5,0 473.5,0 473.5,-49"/>
<text text-anchor="start" x="325.5" y="-36.5" font-family="Helvetica,sans-Serif" font-size="10.00">UOWGE_InitUltimateGauge</text>
<text text-anchor="start" x="390.5" y="-21.5" font-family="Helvetica,sans-Serif" font-size="10.00"> </text>
<text text-anchor="start" x="315" y="-6.5" font-family="Helvetica,sans-Serif" font-size="10.00">+</text>
<text text-anchor="start" x="328" y="-6.5" font-family="Helvetica,sans-Serif" font-size="10.00">UOWGE_InitUltimateGauge()</text>
<polygon fill="#bfbfbf" stroke="#bfbfbf" points="311,-31.5 311,-31.5 474,-31.5 474,-31.5 311,-31.5"/>
<polygon fill="#bfbfbf" stroke="#bfbfbf" points="311,-16.5 311,-16.5 474,-16.5 474,-16.5 311,-16.5"/>
<polygon fill="none" stroke="#bfbfbf" points="310.5,0 310.5,-49 473.5,-49 473.5,0 310.5,0"/>
</a>
</g>
</g>
<!-- Node1&#45;&gt;Node5 -->
<g id="edge4_Node000001_Node000005" class="edge">
<title>Node1&#45;&gt;Node5</title>
<g id="a_edge4_Node000001_Node000005"><a xlink:title=" ">
<path fill="none" stroke="#63b8ff" d="M295.8,-79.81C313.54,-69.8 333.24,-58.68 350.16,-49.12"/>
<polygon fill="none" stroke="#63b8ff" points="293.72,-76.97 286.73,-84.94 297.16,-83.07 293.72,-76.97"/>
</a>
</g>
</g>
<!-- Node2 -->
<g id="Node000002" class="node">
<title>Node2</title>
<g id="a_Node000002"><a xlink:title=" ">
<polygon fill="white" stroke="transparent" points="293,-219 197,-219 197,-170 293,-170 293,-219"/>
<text text-anchor="start" x="202" y="-206.5" font-family="Helvetica,sans-Serif" font-size="10.00">UGameplayEffect</text>
<text text-anchor="start" x="243" y="-191.5" font-family="Helvetica,sans-Serif" font-size="10.00"> </text>
<text text-anchor="start" x="243" y="-176.5" font-family="Helvetica,sans-Serif" font-size="10.00"> </text>
<polygon fill="#bfbfbf" stroke="#bfbfbf" points="197,-201.5 197,-201.5 293,-201.5 293,-201.5 197,-201.5"/>
<polygon fill="#bfbfbf" stroke="#bfbfbf" points="197,-186.5 197,-186.5 293,-186.5 293,-186.5 197,-186.5"/>
<polygon fill="none" stroke="#bfbfbf" points="197,-170 197,-219 293,-219 293,-170 197,-170"/>
</a>
</g>
</g>
<!-- Node2&#45;&gt;Node1 -->
<g id="edge1_Node000001_Node000002" class="edge">
<title>Node2&#45;&gt;Node1</title>
<g id="a_edge1_Node000001_Node000002"><a xlink:title=" ">
<path fill="none" stroke="#63b8ff" d="M245,-159.77C245,-151.17 245,-142.1 245,-134.12"/>
<polygon fill="none" stroke="#63b8ff" points="241.5,-159.94 245,-169.94 248.5,-159.94 241.5,-159.94"/>
</a>
</g>
</g>
</g>
</svg>
