<?xml version="1.0" encoding="UTF-8" standalone="no"?>
<!DOCTYPE svg PUBLIC "-//W3C//DTD SVG 1.1//EN"
 "http://www.w3.org/Graphics/SVG/1.1/DTD/svg11.dtd">
<!-- Generated by graphviz version 2.43.0 (0)
 -->
<!-- Title: UOWGA_Active Pages: 1 -->
<svg width="637pt" height="757pt"
 viewBox="0.00 0.00 637.00 757.00" xmlns="http://www.w3.org/2000/svg" xmlns:xlink="http://www.w3.org/1999/xlink">
<g id="graph0" class="graph" transform="scale(1 1) rotate(0) translate(4 753)">
<title>UOWGA_Active</title>
<!-- Node1 -->
<g id="Node000001" class="node">
<title>Node1</title>
<g id="a_Node000001"><a xlink:title=" ">
<polygon fill="#999999" stroke="transparent" points="426.5,-474 322.5,-474 322.5,-425 426.5,-425 426.5,-474"/>
<text text-anchor="start" x="336.5" y="-461.5" font-family="Helvetica,sans-Serif" font-size="10.00">UOWGA_Active</text>
<text text-anchor="start" x="372.5" y="-446.5" font-family="Helvetica,sans-Serif" font-size="10.00"> </text>
<text text-anchor="start" x="326.5" y="-431.5" font-family="Helvetica,sans-Serif" font-size="10.00">+</text>
<text text-anchor="start" x="339.5" y="-431.5" font-family="Helvetica,sans-Serif" font-size="10.00">UOWGA_Active()</text>
<polygon fill="#666666" stroke="#666666" points="322.5,-456.5 322.5,-456.5 426.5,-456.5 426.5,-456.5 322.5,-456.5"/>
<polygon fill="#666666" stroke="#666666" points="322.5,-441.5 322.5,-441.5 426.5,-441.5 426.5,-441.5 322.5,-441.5"/>
<polygon fill="none" stroke="#666666" points="322.5,-425 322.5,-474 426.5,-474 426.5,-425 322.5,-425"/>
</a>
</g>
</g>
<!-- Node4 -->
<g id="Node000004" class="node">
<title>Node4</title>
<g id="a_Node000004"><a xlink:href="classUOWGA__Active__GunFire.html" target="_top" xlink:title=" ">
<polygon fill="white" stroke="transparent" points="218,-389 71,-389 71,-205 218,-205 218,-389"/>
<text text-anchor="start" x="86" y="-377" font-family="Helvetica,sans-Serif" font-size="10.00">UOWGA_Active_GunFire</text>
<text text-anchor="start" x="75.5" y="-362" font-family="Helvetica,sans-Serif" font-size="10.00">+</text>
<text text-anchor="start" x="88.5" y="-362" font-family="Helvetica,sans-Serif" font-size="10.00">FireProjectilepMontage</text>
<text text-anchor="start" x="75.5" y="-347" font-family="Helvetica,sans-Serif" font-size="10.00">+</text>
<text text-anchor="start" x="88.5" y="-347" font-family="Helvetica,sans-Serif" font-size="10.00">DamageGameplayEffect</text>
<text text-anchor="start" x="75.5" y="-332" font-family="Helvetica,sans-Serif" font-size="10.00">+</text>
<text text-anchor="start" x="88.5" y="-332" font-family="Helvetica,sans-Serif" font-size="10.00">ProjectileClass</text>
<text text-anchor="start" x="75.5" y="-317" font-family="Helvetica,sans-Serif" font-size="10.00">#</text>
<text text-anchor="start" x="88.5" y="-317" font-family="Helvetica,sans-Serif" font-size="10.00">Range</text>
<text text-anchor="start" x="75.5" y="-302" font-family="Helvetica,sans-Serif" font-size="10.00">#</text>
<text text-anchor="start" x="88.5" y="-302" font-family="Helvetica,sans-Serif" font-size="10.00">Damage</text>
<text text-anchor="start" x="75.5" y="-287" font-family="Helvetica,sans-Serif" font-size="10.00">+</text>
<text text-anchor="start" x="88.5" y="-287" font-family="Helvetica,sans-Serif" font-size="10.00">UOWGA_Active_GunFire()</text>
<text text-anchor="start" x="75.5" y="-272" font-family="Helvetica,sans-Serif" font-size="10.00">+</text>
<text text-anchor="start" x="88.5" y="-272" font-family="Helvetica,sans-Serif" font-size="10.00">ActivateAbility()</text>
<text text-anchor="start" x="75.5" y="-257" font-family="Helvetica,sans-Serif" font-size="10.00">#</text>
<text text-anchor="start" x="88.5" y="-257" font-family="Helvetica,sans-Serif" font-size="10.00">OnCancelled()</text>
<text text-anchor="start" x="75.5" y="-242" font-family="Helvetica,sans-Serif" font-size="10.00">#</text>
<text text-anchor="start" x="88.5" y="-242" font-family="Helvetica,sans-Serif" font-size="10.00">OnCompleted()</text>
<text text-anchor="start" x="75.5" y="-227" font-family="Helvetica,sans-Serif" font-size="10.00">#</text>
<text text-anchor="start" x="88.5" y="-227" font-family="Helvetica,sans-Serif" font-size="10.00">EventReceived()</text>
<text text-anchor="start" x="75.5" y="-212" font-family="Helvetica,sans-Serif" font-size="10.00">#</text>
<text text-anchor="start" x="88.5" y="-212" font-family="Helvetica,sans-Serif" font-size="10.00">SpawnProjectile()</text>
<polygon fill="#bfbfbf" stroke="#bfbfbf" points="71.5,-372 71.5,-372 218.5,-372 218.5,-372 71.5,-372"/>
<polygon fill="#bfbfbf" stroke="#bfbfbf" points="71.5,-297 71.5,-297 86.5,-297 86.5,-297 71.5,-297"/>
<polygon fill="#bfbfbf" stroke="#bfbfbf" points="86.5,-297 86.5,-297 218.5,-297 218.5,-297 86.5,-297"/>
<polygon fill="none" stroke="#bfbfbf" points="71,-205 71,-389 218,-389 218,-205 71,-205"/>
</a>
</g>
</g>
<!-- Node1&#45;&gt;Node4 -->
<g id="edge3_Node000001_Node000004" class="edge">
<title>Node1&#45;&gt;Node4</title>
<g id="a_edge3_Node000001_Node000004"><a xlink:title=" ">
<path fill="none" stroke="#63b8ff" d="M312.66,-430.71C284.84,-420.98 252.49,-407.16 226.5,-389 223.71,-387.05 220.95,-384.99 218.22,-382.84"/>
<polygon fill="none" stroke="#63b8ff" points="311.7,-434.08 322.29,-433.98 313.95,-427.45 311.7,-434.08"/>
</a>
</g>
</g>
<!-- Node7 -->
<g id="Node000007" class="node">
<title>Node7</title>
<g id="a_Node000007"><a xlink:href="classUOWGA__CyberAgility.html" target="_top" xlink:title=" ">
<polygon fill="white" stroke="transparent" points="369,-344 236,-344 236,-250 369,-250 369,-344"/>
<text text-anchor="start" x="250.5" y="-332" font-family="Helvetica,sans-Serif" font-size="10.00">UOWGA_CyberAgility</text>
<text text-anchor="start" x="240.5" y="-317" font-family="Helvetica,sans-Serif" font-size="10.00">#</text>
<text text-anchor="start" x="253.5" y="-317" font-family="Helvetica,sans-Serif" font-size="10.00">DoubleJumpStrength</text>
<text text-anchor="start" x="240.5" y="-302" font-family="Helvetica,sans-Serif" font-size="10.00">#</text>
<text text-anchor="start" x="253.5" y="-302" font-family="Helvetica,sans-Serif" font-size="10.00">bDoubleJumpUsed</text>
<text text-anchor="start" x="240.5" y="-287" font-family="Helvetica,sans-Serif" font-size="10.00">+</text>
<text text-anchor="start" x="253.5" y="-287" font-family="Helvetica,sans-Serif" font-size="10.00">UOWGA_CyberAgility()</text>
<text text-anchor="start" x="240.5" y="-272" font-family="Helvetica,sans-Serif" font-size="10.00">+</text>
<text text-anchor="start" x="253.5" y="-272" font-family="Helvetica,sans-Serif" font-size="10.00">ActivateAbility()</text>
<text text-anchor="start" x="240.5" y="-257" font-family="Helvetica,sans-Serif" font-size="10.00">#</text>
<text text-anchor="start" x="253.5" y="-257" font-family="Helvetica,sans-Serif" font-size="10.00">OnLanded()</text>
<polygon fill="#bfbfbf" stroke="#bfbfbf" points="236.5,-327 236.5,-327 369.5,-327 369.5,-327 236.5,-327"/>
<polygon fill="#bfbfbf" stroke="#bfbfbf" points="236.5,-297 236.5,-297 251.5,-297 251.5,-297 236.5,-297"/>
<polygon fill="#bfbfbf" stroke="#bfbfbf" points="251.5,-297 251.5,-297 369.5,-297 369.5,-297 251.5,-297"/>
<polygon fill="none" stroke="#bfbfbf" points="236,-250 236,-344 369,-344 369,-250 236,-250"/>
</a>
</g>
</g>
<!-- Node1&#45;&gt;Node7 -->
<g id="edge6_Node000001_Node000007" class="edge">
<title>Node1&#45;&gt;Node7</title>
<g id="a_edge6_Node000001_Node000007"><a xlink:title=" ">
<path fill="none" stroke="#63b8ff" d="M358.88,-415.84C348.84,-394.86 335.64,-367.28 324.54,-344.08"/>
<polygon fill="none" stroke="#63b8ff" points="355.78,-417.47 363.25,-424.98 362.09,-414.45 355.78,-417.47"/>
</a>
</g>
</g>
<!-- Node8 -->
<g id="Node000008" class="node">
<title>Node8</title>
<g id="a_Node000008"><a xlink:href="classUOWGA__Deflect.html" target="_top" xlink:title=" ">
<polygon fill="white" stroke="transparent" points="507.5,-351.5 387.5,-351.5 387.5,-242.5 507.5,-242.5 507.5,-351.5"/>
<text text-anchor="start" x="408" y="-339" font-family="Helvetica,sans-Serif" font-size="10.00">UOWGA_Deflect</text>
<text text-anchor="start" x="391.5" y="-324" font-family="Helvetica,sans-Serif" font-size="10.00">#</text>
<text text-anchor="start" x="404.5" y="-324" font-family="Helvetica,sans-Serif" font-size="10.00">DeflectTimerHandle</text>
<text text-anchor="start" x="391.5" y="-309" font-family="Helvetica,sans-Serif" font-size="10.00">#</text>
<text text-anchor="start" x="404.5" y="-309" font-family="Helvetica,sans-Serif" font-size="10.00">DeflectDuration</text>
<text text-anchor="start" x="391.5" y="-294" font-family="Helvetica,sans-Serif" font-size="10.00">+</text>
<text text-anchor="start" x="404.5" y="-294" font-family="Helvetica,sans-Serif" font-size="10.00">CanActivateAbility()</text>
<text text-anchor="start" x="391.5" y="-279" font-family="Helvetica,sans-Serif" font-size="10.00">+</text>
<text text-anchor="start" x="404.5" y="-279" font-family="Helvetica,sans-Serif" font-size="10.00">ActivateAbility()</text>
<text text-anchor="start" x="391.5" y="-264" font-family="Helvetica,sans-Serif" font-size="10.00">+</text>
<text text-anchor="start" x="404.5" y="-264" font-family="Helvetica,sans-Serif" font-size="10.00">EndAbility()</text>
<text text-anchor="start" x="391.5" y="-249" font-family="Helvetica,sans-Serif" font-size="10.00">#</text>
<text text-anchor="start" x="404.5" y="-249" font-family="Helvetica,sans-Serif" font-size="10.00">OnDeflectEnd()</text>
<polygon fill="#bfbfbf" stroke="#bfbfbf" points="387.5,-334 387.5,-334 507.5,-334 507.5,-334 387.5,-334"/>
<polygon fill="#bfbfbf" stroke="#bfbfbf" points="387.5,-304 387.5,-304 402.5,-304 402.5,-304 387.5,-304"/>
<polygon fill="#bfbfbf" stroke="#bfbfbf" points="402.5,-304 402.5,-304 507.5,-304 507.5,-304 402.5,-304"/>
<polygon fill="none" stroke="#bfbfbf" points="387.5,-242.5 387.5,-351.5 507.5,-351.5 507.5,-242.5 387.5,-242.5"/>
</a>
</g>
</g>
<!-- Node1&#45;&gt;Node8 -->
<g id="edge7_Node000001_Node000008" class="edge">
<title>Node1&#45;&gt;Node8</title>
<g id="a_edge7_Node000001_Node000008"><a xlink:title=" ">
<path fill="none" stroke="#63b8ff" d="M390.28,-415.96C399.39,-397.18 411.08,-373.1 421.51,-351.59"/>
<polygon fill="none" stroke="#63b8ff" points="387.12,-414.46 385.91,-424.98 393.42,-417.51 387.12,-414.46"/>
</a>
</g>
</g>
<!-- Node9 -->
<g id="Node000009" class="node">
<title>Node9</title>
<g id="a_Node000009"><a xlink:href="classUOWGA__FastZoom.html" target="_top" xlink:title=" ">
<polygon fill="white" stroke="transparent" points="629,-329 526,-329 526,-265 629,-265 629,-329"/>
<text text-anchor="start" x="531.5" y="-317" font-family="Helvetica,sans-Serif" font-size="10.00">UOWGA_FastZoom</text>
<text text-anchor="start" x="531" y="-302" font-family="Helvetica,sans-Serif" font-size="10.00">#</text>
<text text-anchor="start" x="544.5" y="-302" font-family="Helvetica,sans-Serif" font-size="10.00">ZoomFOV</text>
<text text-anchor="start" x="531" y="-287" font-family="Helvetica,sans-Serif" font-size="10.00">+</text>
<text text-anchor="start" x="544.5" y="-287" font-family="Helvetica,sans-Serif" font-size="10.00">ActivateAbility()</text>
<text text-anchor="start" x="531" y="-272" font-family="Helvetica,sans-Serif" font-size="10.00">+</text>
<text text-anchor="start" x="544.5" y="-272" font-family="Helvetica,sans-Serif" font-size="10.00">EndAbility()</text>
<polygon fill="#bfbfbf" stroke="#bfbfbf" points="526.5,-312 526.5,-312 629.5,-312 629.5,-312 526.5,-312"/>
<polygon fill="#bfbfbf" stroke="#bfbfbf" points="526.5,-297 526.5,-297 542.5,-297 542.5,-297 526.5,-297"/>
<polygon fill="#bfbfbf" stroke="#bfbfbf" points="542.5,-297 542.5,-297 629.5,-297 629.5,-297 542.5,-297"/>
<polygon fill="none" stroke="#bfbfbf" points="526,-265 526,-329 629,-329 629,-265 526,-265"/>
</a>
</g>
</g>
<!-- Node1&#45;&gt;Node9 -->
<g id="edge8_Node000001_Node000009" class="edge">
<title>Node1&#45;&gt;Node9</title>
<g id="a_edge8_Node000001_Node000009"><a xlink:title=" ">
<path fill="none" stroke="#63b8ff" d="M436.33,-431.42C462.96,-421.95 493.25,-408.13 516.5,-389 536.18,-372.81 551.97,-348.63 562.55,-329.27"/>
<polygon fill="none" stroke="#63b8ff" points="435.03,-428.17 426.7,-434.72 437.3,-434.79 435.03,-428.17"/>
</a>
</g>
</g>
<!-- Node2 -->
<g id="Node000002" class="node">
<title>Node2</title>
<g id="a_Node000002"><a xlink:href="classUOWGameplayAbility.html" target="_top" xlink:title=" ">
<polygon fill="white" stroke="transparent" points="443,-664 306,-664 306,-510 443,-510 443,-664"/>
<text text-anchor="start" x="321.5" y="-652" font-family="Helvetica,sans-Serif" font-size="10.00">UOWGameplayAbility</text>
<text text-anchor="start" x="310.5" y="-637" font-family="Helvetica,sans-Serif" font-size="10.00">#</text>
<text text-anchor="start" x="323.5" y="-637" font-family="Helvetica,sans-Serif" font-size="10.00">CooldownDuration</text>
<text text-anchor="start" x="310.5" y="-622" font-family="Helvetica,sans-Serif" font-size="10.00">#</text>
<text text-anchor="start" x="323.5" y="-622" font-family="Helvetica,sans-Serif" font-size="10.00">CooldownTags</text>
<text text-anchor="start" x="310.5" y="-607" font-family="Helvetica,sans-Serif" font-size="10.00">#</text>
<text text-anchor="start" x="323.5" y="-607" font-family="Helvetica,sans-Serif" font-size="10.00">GameplayEffectClasses</text>
<text text-anchor="start" x="310.5" y="-592" font-family="Helvetica,sans-Serif" font-size="10.00">+</text>
<text text-anchor="start" x="323.5" y="-592" font-family="Helvetica,sans-Serif" font-size="10.00">UOWGameplayAbility()</text>
<text text-anchor="start" x="310.5" y="-577" font-family="Helvetica,sans-Serif" font-size="10.00">+</text>
<text text-anchor="start" x="323.5" y="-577" font-family="Helvetica,sans-Serif" font-size="10.00">SetCooldownData()</text>
<text text-anchor="start" x="310.5" y="-562" font-family="Helvetica,sans-Serif" font-size="10.00">+</text>
<text text-anchor="start" x="323.5" y="-562" font-family="Helvetica,sans-Serif" font-size="10.00">SetCostEffect()</text>
<text text-anchor="start" x="310.5" y="-547" font-family="Helvetica,sans-Serif" font-size="10.00">+</text>
<text text-anchor="start" x="323.5" y="-547" font-family="Helvetica,sans-Serif" font-size="10.00">ApplyCooldown()</text>
<text text-anchor="start" x="310.5" y="-532" font-family="Helvetica,sans-Serif" font-size="10.00">+</text>
<text text-anchor="start" x="323.5" y="-532" font-family="Helvetica,sans-Serif" font-size="10.00">CanActivateAbility()</text>
<text text-anchor="start" x="310.5" y="-517" font-family="Helvetica,sans-Serif" font-size="10.00">+</text>
<text text-anchor="start" x="323.5" y="-517" font-family="Helvetica,sans-Serif" font-size="10.00">ActivateAbility()</text>
<polygon fill="#bfbfbf" stroke="#bfbfbf" points="306.5,-647 306.5,-647 443.5,-647 443.5,-647 306.5,-647"/>
<polygon fill="#bfbfbf" stroke="#bfbfbf" points="306.5,-602 306.5,-602 321.5,-602 321.5,-602 306.5,-602"/>
<polygon fill="#bfbfbf" stroke="#bfbfbf" points="321.5,-602 321.5,-602 443.5,-602 443.5,-602 321.5,-602"/>
<polygon fill="none" stroke="#bfbfbf" points="306,-510 306,-664 443,-664 443,-510 306,-510"/>
</a>
</g>
</g>
<!-- Node2&#45;&gt;Node1 -->
<g id="edge1_Node000001_Node000002" class="edge">
<title>Node2&#45;&gt;Node1</title>
<g id="a_edge1_Node000001_Node000002"><a xlink:title=" ">
<path fill="none" stroke="#63b8ff" d="M374.5,-499.67C374.5,-490.37 374.5,-481.57 374.5,-474.06"/>
<polygon fill="none" stroke="#63b8ff" points="371,-499.93 374.5,-509.93 378,-499.93 371,-499.93"/>
</a>
</g>
</g>
<!-- Node3 -->
<g id="Node000003" class="node">
<title>Node3</title>
<g id="a_Node000003"><a xlink:title=" ">
<polygon fill="white" stroke="transparent" points="424.5,-749 324.5,-749 324.5,-700 424.5,-700 424.5,-749"/>
<text text-anchor="start" x="329.5" y="-736.5" font-family="Helvetica,sans-Serif" font-size="10.00">UGameplayAbility</text>
<text text-anchor="start" x="372.5" y="-721.5" font-family="Helvetica,sans-Serif" font-size="10.00"> </text>
<text text-anchor="start" x="372.5" y="-706.5" font-family="Helvetica,sans-Serif" font-size="10.00"> </text>
<polygon fill="#bfbfbf" stroke="#bfbfbf" points="324.5,-731.5 324.5,-731.5 424.5,-731.5 424.5,-731.5 324.5,-731.5"/>
<polygon fill="#bfbfbf" stroke="#bfbfbf" points="324.5,-716.5 324.5,-716.5 424.5,-716.5 424.5,-716.5 324.5,-716.5"/>
<polygon fill="none" stroke="#bfbfbf" points="324.5,-700 324.5,-749 424.5,-749 424.5,-700 324.5,-700"/>
</a>
</g>
</g>
<!-- Node3&#45;&gt;Node2 -->
<g id="edge2_Node000002_Node000003" class="edge">
<title>Node3&#45;&gt;Node2</title>
<g id="a_edge2_Node000002_Node000003"><a xlink:title=" ">
<path fill="none" stroke="#63b8ff" d="M374.5,-689.66C374.5,-681.74 374.5,-672.97 374.5,-664.01"/>
<polygon fill="none" stroke="#63b8ff" points="371,-689.9 374.5,-699.9 378,-689.9 371,-689.9"/>
</a>
</g>
</g>
<!-- Node5 -->
<g id="Node000005" class="node">
<title>Node5</title>
<g id="a_Node000005"><a xlink:href="classUOWGA__ShurikenMain.html" target="_top" xlink:title=" ">
<polygon fill="white" stroke="transparent" points="139,-169 0,-169 0,0 139,0 139,-169"/>
<text text-anchor="start" x="14.5" y="-156.5" font-family="Helvetica,sans-Serif" font-size="10.00">UOWGA_ShurikenMain</text>
<text text-anchor="start" x="68" y="-141.5" font-family="Helvetica,sans-Serif" font-size="10.00"> </text>
<text text-anchor="start" x="4.5" y="-126.5" font-family="Helvetica,sans-Serif" font-size="10.00">+</text>
<text text-anchor="start" x="17.5" y="-126.5" font-family="Helvetica,sans-Serif" font-size="10.00">UOWGA_ShurikenMain()</text>
<text text-anchor="start" x="4.5" y="-111.5" font-family="Helvetica,sans-Serif" font-size="10.00">+</text>
<text text-anchor="start" x="17.5" y="-111.5" font-family="Helvetica,sans-Serif" font-size="10.00">SetCurrentMontage()</text>
<text text-anchor="start" x="4.5" y="-96.5" font-family="Helvetica,sans-Serif" font-size="10.00">+</text>
<text text-anchor="start" x="17.5" y="-96.5" font-family="Helvetica,sans-Serif" font-size="10.00">CanActivateAbility()</text>
<text text-anchor="start" x="4.5" y="-81.5" font-family="Helvetica,sans-Serif" font-size="10.00">+</text>
<text text-anchor="start" x="17.5" y="-81.5" font-family="Helvetica,sans-Serif" font-size="10.00">ActivateAbility()</text>
<text text-anchor="start" x="4.5" y="-66.5" font-family="Helvetica,sans-Serif" font-size="10.00">+</text>
<text text-anchor="start" x="17.5" y="-66.5" font-family="Helvetica,sans-Serif" font-size="10.00">EndAbility()</text>
<text text-anchor="start" x="4.5" y="-51.5" font-family="Helvetica,sans-Serif" font-size="10.00">+</text>
<text text-anchor="start" x="17.5" y="-51.5" font-family="Helvetica,sans-Serif" font-size="10.00">ShurikenMain()</text>
<text text-anchor="start" x="4.5" y="-36.5" font-family="Helvetica,sans-Serif" font-size="10.00">+</text>
<text text-anchor="start" x="17.5" y="-36.5" font-family="Helvetica,sans-Serif" font-size="10.00">ThrowFirstShuriken()</text>
<text text-anchor="start" x="4.5" y="-21.5" font-family="Helvetica,sans-Serif" font-size="10.00">+</text>
<text text-anchor="start" x="17.5" y="-21.5" font-family="Helvetica,sans-Serif" font-size="10.00">ThrowSecondShuriken()</text>
<text text-anchor="start" x="4.5" y="-6.5" font-family="Helvetica,sans-Serif" font-size="10.00">+</text>
<text text-anchor="start" x="17.5" y="-6.5" font-family="Helvetica,sans-Serif" font-size="10.00">ThrowThirdShuriken()</text>
<polygon fill="#bfbfbf" stroke="#bfbfbf" points="0.5,-151.5 0.5,-151.5 139.5,-151.5 139.5,-151.5 0.5,-151.5"/>
<polygon fill="#bfbfbf" stroke="#bfbfbf" points="0.5,-136.5 0.5,-136.5 139.5,-136.5 139.5,-136.5 0.5,-136.5"/>
<polygon fill="none" stroke="#bfbfbf" points="0,0 0,-169 139,-169 139,0 0,0"/>
</a>
</g>
</g>
<!-- Node4&#45;&gt;Node5 -->
<g id="edge4_Node000004_Node000005" class="edge">
<title>Node4&#45;&gt;Node5</title>
<g id="a_edge4_Node000004_Node000005"><a xlink:title=" ">
<path fill="none" stroke="#63b8ff" d="M108.65,-195.38C105.52,-186.59 102.37,-177.75 99.29,-169.11"/>
<polygon fill="none" stroke="#63b8ff" points="105.39,-196.65 112.04,-204.9 111.98,-194.3 105.39,-196.65"/>
</a>
</g>
</g>
<!-- Node6 -->
<g id="Node000006" class="node">
<title>Node6</title>
<g id="a_Node000006"><a xlink:href="classUOWGA__ShurikenSub.html" target="_top" xlink:title=" ">
<polygon fill="white" stroke="transparent" points="281.5,-146.5 157.5,-146.5 157.5,-22.5 281.5,-22.5 281.5,-146.5"/>
<text text-anchor="start" x="167" y="-134.5" font-family="Helvetica,sans-Serif" font-size="10.00">UOWGA_ShurikenSub</text>
<text text-anchor="start" x="217.5" y="-119.5" font-family="Helvetica,sans-Serif" font-size="10.00"> </text>
<text text-anchor="start" x="161.5" y="-104.5" font-family="Helvetica,sans-Serif" font-size="10.00">+</text>
<text text-anchor="start" x="174.5" y="-104.5" font-family="Helvetica,sans-Serif" font-size="10.00">SetCurrentMontage()</text>
<text text-anchor="start" x="161.5" y="-89.5" font-family="Helvetica,sans-Serif" font-size="10.00">+</text>
<text text-anchor="start" x="174.5" y="-89.5" font-family="Helvetica,sans-Serif" font-size="10.00">CanActivateAbility()</text>
<text text-anchor="start" x="161.5" y="-74.5" font-family="Helvetica,sans-Serif" font-size="10.00">+</text>
<text text-anchor="start" x="174.5" y="-74.5" font-family="Helvetica,sans-Serif" font-size="10.00">ActivateAbility()</text>
<text text-anchor="start" x="161.5" y="-59.5" font-family="Helvetica,sans-Serif" font-size="10.00">+</text>
<text text-anchor="start" x="174.5" y="-59.5" font-family="Helvetica,sans-Serif" font-size="10.00">EndAbility()</text>
<text text-anchor="start" x="161.5" y="-44.5" font-family="Helvetica,sans-Serif" font-size="10.00">+</text>
<text text-anchor="start" x="174.5" y="-44.5" font-family="Helvetica,sans-Serif" font-size="10.00">ShurikenSub()</text>
<text text-anchor="start" x="161.5" y="-29.5" font-family="Helvetica,sans-Serif" font-size="10.00">+</text>
<text text-anchor="start" x="174.5" y="-29.5" font-family="Helvetica,sans-Serif" font-size="10.00">SpawnProjectile()</text>
<polygon fill="#bfbfbf" stroke="#bfbfbf" points="157.5,-129.5 157.5,-129.5 281.5,-129.5 281.5,-129.5 157.5,-129.5"/>
<polygon fill="#bfbfbf" stroke="#bfbfbf" points="157.5,-114.5 157.5,-114.5 281.5,-114.5 281.5,-114.5 157.5,-114.5"/>
<polygon fill="none" stroke="#bfbfbf" points="157.5,-22.5 157.5,-146.5 281.5,-146.5 281.5,-22.5 157.5,-22.5"/>
</a>
</g>
</g>
<!-- Node4&#45;&gt;Node6 -->
<g id="edge5_Node000004_Node000006" class="edge">
<title>Node4&#45;&gt;Node6</title>
<g id="a_edge5_Node000004_Node000006"><a xlink:title=" ">
<path fill="none" stroke="#63b8ff" d="M180.42,-195.17C186.32,-178.61 192.28,-161.91 197.7,-146.7"/>
<polygon fill="none" stroke="#63b8ff" points="177.02,-194.3 176.96,-204.9 183.61,-196.65 177.02,-194.3"/>
</a>
</g>
</g>
</g>
</svg>
