<?xml version="1.0" encoding="UTF-8" standalone="no"?>
<!DOCTYPE svg PUBLIC "-//W3C//DTD SVG 1.1//EN"
 "http://www.w3.org/Graphics/SVG/1.1/DTD/svg11.dtd">
<!-- Generated by graphviz version 2.43.0 (0)
 -->
<!-- Title: UOWGA_Active Pages: 1 -->
<svg width="638pt" height="787pt"
 viewBox="0.00 0.00 638.00 787.00" xmlns="http://www.w3.org/2000/svg" xmlns:xlink="http://www.w3.org/1999/xlink">
<g id="graph0" class="graph" transform="scale(1 1) rotate(0) translate(4 783)">
<title>UOWGA_Active</title>
<!-- Node1 -->
<g id="Node000001" class="node">
<title>Node1</title>
<g id="a_Node000001"><a xlink:title=" ">
<polygon fill="#999999" stroke="transparent" points="427.5,-504 323.5,-504 323.5,-455 427.5,-455 427.5,-504"/>
<text text-anchor="start" x="337.5" y="-491.5" font-family="Helvetica,sans-Serif" font-size="10.00">UOWGA_Active</text>
<text text-anchor="start" x="373.5" y="-476.5" font-family="Helvetica,sans-Serif" font-size="10.00"> </text>
<text text-anchor="start" x="327.5" y="-461.5" font-family="Helvetica,sans-Serif" font-size="10.00">+</text>
<text text-anchor="start" x="340.5" y="-461.5" font-family="Helvetica,sans-Serif" font-size="10.00">UOWGA_Active()</text>
<polygon fill="#666666" stroke="#666666" points="323.5,-486.5 323.5,-486.5 427.5,-486.5 427.5,-486.5 323.5,-486.5"/>
<polygon fill="#666666" stroke="#666666" points="323.5,-471.5 323.5,-471.5 427.5,-471.5 427.5,-471.5 323.5,-471.5"/>
<polygon fill="none" stroke="#666666" points="323.5,-455 323.5,-504 427.5,-504 427.5,-455 323.5,-455"/>
</a>
</g>
</g>
<!-- Node4 -->
<g id="Node000004" class="node">
<title>Node4</title>
<g id="a_Node000004"><a xlink:href="classUOWGA__Active__GunFire.html" target="_top" xlink:title=" ">
<polygon fill="white" stroke="transparent" points="218,-351.5 71,-351.5 71,-272.5 218,-272.5 218,-351.5"/>
<text text-anchor="start" x="86" y="-339" font-family="Helvetica,sans-Serif" font-size="10.00">UOWGA_Active_GunFire</text>
<text text-anchor="start" x="75.5" y="-324" font-family="Helvetica,sans-Serif" font-size="10.00">#</text>
<text text-anchor="start" x="88.5" y="-324" font-family="Helvetica,sans-Serif" font-size="10.00">WeaponComp</text>
<text text-anchor="start" x="75.5" y="-309" font-family="Helvetica,sans-Serif" font-size="10.00">+</text>
<text text-anchor="start" x="88.5" y="-309" font-family="Helvetica,sans-Serif" font-size="10.00">UOWGA_Active_GunFire()</text>
<text text-anchor="start" x="75.5" y="-294" font-family="Helvetica,sans-Serif" font-size="10.00">+</text>
<text text-anchor="start" x="88.5" y="-294" font-family="Helvetica,sans-Serif" font-size="10.00">ActivateAbility()</text>
<text text-anchor="start" x="75.5" y="-279" font-family="Helvetica,sans-Serif" font-size="10.00">+</text>
<text text-anchor="start" x="88.5" y="-279" font-family="Helvetica,sans-Serif" font-size="10.00">Shoot()</text>
<polygon fill="#bfbfbf" stroke="#bfbfbf" points="71.5,-334 71.5,-334 218.5,-334 218.5,-334 71.5,-334"/>
<polygon fill="#bfbfbf" stroke="#bfbfbf" points="71.5,-319 71.5,-319 86.5,-319 86.5,-319 71.5,-319"/>
<polygon fill="#bfbfbf" stroke="#bfbfbf" points="86.5,-319 86.5,-319 218.5,-319 218.5,-319 86.5,-319"/>
<polygon fill="none" stroke="#bfbfbf" points="71,-272.5 71,-351.5 218,-351.5 218,-272.5 71,-272.5"/>
</a>
</g>
</g>
<!-- Node1&#45;&gt;Node4 -->
<g id="edge3_Node000001_Node000004" class="edge">
<title>Node1&#45;&gt;Node4</title>
<g id="a_edge3_Node000001_Node000004"><a xlink:title=" ">
<path fill="none" stroke="#63b8ff" d="M313.73,-461.74C285.64,-452.18 253.05,-438.2 227.5,-419 203.3,-400.82 182.35,-373.91 167.54,-351.75"/>
<polygon fill="none" stroke="#63b8ff" points="312.86,-465.14 323.45,-464.94 315.05,-458.49 312.86,-465.14"/>
</a>
</g>
</g>
<!-- Node7 -->
<g id="Node000007" class="node">
<title>Node7</title>
<g id="a_Node000007"><a xlink:href="classUOWGA__CyberAgility.html" target="_top" xlink:title=" ">
<polygon fill="white" stroke="transparent" points="370.5,-419 236.5,-419 236.5,-205 370.5,-205 370.5,-419"/>
<text text-anchor="start" x="251" y="-407" font-family="Helvetica,sans-Serif" font-size="10.00">UOWGA_CyberAgility</text>
<text text-anchor="start" x="240.5" y="-392" font-family="Helvetica,sans-Serif" font-size="10.00">#</text>
<text text-anchor="start" x="253.5" y="-392" font-family="Helvetica,sans-Serif" font-size="10.00">DoubleJumpStrength</text>
<text text-anchor="start" x="240.5" y="-377" font-family="Helvetica,sans-Serif" font-size="10.00">#</text>
<text text-anchor="start" x="253.5" y="-377" font-family="Helvetica,sans-Serif" font-size="10.00">bDoubleJumpUsed</text>
<text text-anchor="start" x="240.5" y="-362" font-family="Helvetica,sans-Serif" font-size="10.00">#</text>
<text text-anchor="start" x="253.5" y="-362" font-family="Helvetica,sans-Serif" font-size="10.00">bWallClimbActive</text>
<text text-anchor="start" x="240.5" y="-347" font-family="Helvetica,sans-Serif" font-size="10.00">#</text>
<text text-anchor="start" x="253.5" y="-347" font-family="Helvetica,sans-Serif" font-size="10.00">WallClimbTimeElapsed</text>
<text text-anchor="start" x="240.5" y="-332" font-family="Helvetica,sans-Serif" font-size="10.00">#</text>
<text text-anchor="start" x="253.5" y="-332" font-family="Helvetica,sans-Serif" font-size="10.00">MaxWallClimbDuration</text>
<text text-anchor="start" x="240.5" y="-317" font-family="Helvetica,sans-Serif" font-size="10.00">#</text>
<text text-anchor="start" x="253.5" y="-317" font-family="Helvetica,sans-Serif" font-size="10.00">WallClimbSpeed</text>
<text text-anchor="start" x="240.5" y="-302" font-family="Helvetica,sans-Serif" font-size="10.00">#</text>
<text text-anchor="start" x="253.5" y="-302" font-family="Helvetica,sans-Serif" font-size="10.00">WallClimbTimerHandle</text>
<text text-anchor="start" x="240.5" y="-287" font-family="Helvetica,sans-Serif" font-size="10.00">+</text>
<text text-anchor="start" x="253.5" y="-287" font-family="Helvetica,sans-Serif" font-size="10.00">UOWGA_CyberAgility()</text>
<text text-anchor="start" x="240.5" y="-272" font-family="Helvetica,sans-Serif" font-size="10.00">+</text>
<text text-anchor="start" x="253.5" y="-272" font-family="Helvetica,sans-Serif" font-size="10.00">ActivateAbility()</text>
<text text-anchor="start" x="240.5" y="-257" font-family="Helvetica,sans-Serif" font-size="10.00">#</text>
<text text-anchor="start" x="253.5" y="-257" font-family="Helvetica,sans-Serif" font-size="10.00">OnLanded()</text>
<text text-anchor="start" x="240.5" y="-242" font-family="Helvetica,sans-Serif" font-size="10.00">#</text>
<text text-anchor="start" x="253.5" y="-242" font-family="Helvetica,sans-Serif" font-size="10.00">IsNextToWall()</text>
<text text-anchor="start" x="240.5" y="-227" font-family="Helvetica,sans-Serif" font-size="10.00">#</text>
<text text-anchor="start" x="253.5" y="-227" font-family="Helvetica,sans-Serif" font-size="10.00">StartWallClimb()</text>
<text text-anchor="start" x="240.5" y="-212" font-family="Helvetica,sans-Serif" font-size="10.00">#</text>
<text text-anchor="start" x="253.5" y="-212" font-family="Helvetica,sans-Serif" font-size="10.00">StopWallClimb()</text>
<polygon fill="#bfbfbf" stroke="#bfbfbf" points="236.5,-402 236.5,-402 370.5,-402 370.5,-402 236.5,-402"/>
<polygon fill="#bfbfbf" stroke="#bfbfbf" points="236.5,-297 236.5,-297 251.5,-297 251.5,-297 236.5,-297"/>
<polygon fill="#bfbfbf" stroke="#bfbfbf" points="251.5,-297 251.5,-297 370.5,-297 370.5,-297 251.5,-297"/>
<polygon fill="none" stroke="#bfbfbf" points="236.5,-205 236.5,-419 370.5,-419 370.5,-205 236.5,-205"/>
</a>
</g>
</g>
<!-- Node1&#45;&gt;Node7 -->
<g id="edge6_Node000001_Node000007" class="edge">
<title>Node1&#45;&gt;Node7</title>
<g id="a_edge6_Node000001_Node000007"><a xlink:title=" ">
<path fill="none" stroke="#63b8ff" d="M361.16,-445.54C357.67,-437.53 353.76,-428.52 349.65,-419.07"/>
<polygon fill="none" stroke="#63b8ff" points="357.99,-447.01 365.18,-454.79 364.4,-444.22 357.99,-447.01"/>
</a>
</g>
</g>
<!-- Node8 -->
<g id="Node000008" class="node">
<title>Node8</title>
<g id="a_Node000008"><a xlink:href="classUOWGA__Deflect.html" target="_top" xlink:title=" ">
<polygon fill="white" stroke="transparent" points="508.5,-366.5 388.5,-366.5 388.5,-257.5 508.5,-257.5 508.5,-366.5"/>
<text text-anchor="start" x="409" y="-354" font-family="Helvetica,sans-Serif" font-size="10.00">UOWGA_Deflect</text>
<text text-anchor="start" x="392.5" y="-339" font-family="Helvetica,sans-Serif" font-size="10.00">#</text>
<text text-anchor="start" x="405.5" y="-339" font-family="Helvetica,sans-Serif" font-size="10.00">DeflectTimerHandle</text>
<text text-anchor="start" x="392.5" y="-324" font-family="Helvetica,sans-Serif" font-size="10.00">#</text>
<text text-anchor="start" x="405.5" y="-324" font-family="Helvetica,sans-Serif" font-size="10.00">DeflectDuration</text>
<text text-anchor="start" x="392.5" y="-309" font-family="Helvetica,sans-Serif" font-size="10.00">+</text>
<text text-anchor="start" x="405.5" y="-309" font-family="Helvetica,sans-Serif" font-size="10.00">CanActivateAbility()</text>
<text text-anchor="start" x="392.5" y="-294" font-family="Helvetica,sans-Serif" font-size="10.00">+</text>
<text text-anchor="start" x="405.5" y="-294" font-family="Helvetica,sans-Serif" font-size="10.00">ActivateAbility()</text>
<text text-anchor="start" x="392.5" y="-279" font-family="Helvetica,sans-Serif" font-size="10.00">+</text>
<text text-anchor="start" x="405.5" y="-279" font-family="Helvetica,sans-Serif" font-size="10.00">EndAbility()</text>
<text text-anchor="start" x="392.5" y="-264" font-family="Helvetica,sans-Serif" font-size="10.00">#</text>
<text text-anchor="start" x="405.5" y="-264" font-family="Helvetica,sans-Serif" font-size="10.00">OnDeflectEnd()</text>
<polygon fill="#bfbfbf" stroke="#bfbfbf" points="388.5,-349 388.5,-349 508.5,-349 508.5,-349 388.5,-349"/>
<polygon fill="#bfbfbf" stroke="#bfbfbf" points="388.5,-319 388.5,-319 403.5,-319 403.5,-319 388.5,-319"/>
<polygon fill="#bfbfbf" stroke="#bfbfbf" points="403.5,-319 403.5,-319 508.5,-319 508.5,-319 403.5,-319"/>
<polygon fill="none" stroke="#bfbfbf" points="388.5,-257.5 388.5,-366.5 508.5,-366.5 508.5,-257.5 388.5,-257.5"/>
</a>
</g>
</g>
<!-- Node1&#45;&gt;Node8 -->
<g id="edge7_Node000001_Node000008" class="edge">
<title>Node1&#45;&gt;Node8</title>
<g id="a_edge7_Node000001_Node000008"><a xlink:title=" ">
<path fill="none" stroke="#63b8ff" d="M390.12,-445.35C400.04,-422.86 413.38,-392.63 424.8,-366.73"/>
<polygon fill="none" stroke="#63b8ff" points="386.79,-444.23 385.96,-454.79 393.2,-447.05 386.79,-444.23"/>
</a>
</g>
</g>
<!-- Node9 -->
<g id="Node000009" class="node">
<title>Node9</title>
<g id="a_Node000009"><a xlink:href="classUOWGA__FastZoom.html" target="_top" xlink:title=" ">
<polygon fill="white" stroke="transparent" points="630,-344 527,-344 527,-280 630,-280 630,-344"/>
<text text-anchor="start" x="532.5" y="-332" font-family="Helvetica,sans-Serif" font-size="10.00">UOWGA_FastZoom</text>
<text text-anchor="start" x="532" y="-317" font-family="Helvetica,sans-Serif" font-size="10.00">#</text>
<text text-anchor="start" x="545.5" y="-317" font-family="Helvetica,sans-Serif" font-size="10.00">ZoomFOV</text>
<text text-anchor="start" x="532" y="-302" font-family="Helvetica,sans-Serif" font-size="10.00">+</text>
<text text-anchor="start" x="545.5" y="-302" font-family="Helvetica,sans-Serif" font-size="10.00">ActivateAbility()</text>
<text text-anchor="start" x="532" y="-287" font-family="Helvetica,sans-Serif" font-size="10.00">+</text>
<text text-anchor="start" x="545.5" y="-287" font-family="Helvetica,sans-Serif" font-size="10.00">EndAbility()</text>
<polygon fill="#bfbfbf" stroke="#bfbfbf" points="527.5,-327 527.5,-327 630.5,-327 630.5,-327 527.5,-327"/>
<polygon fill="#bfbfbf" stroke="#bfbfbf" points="527.5,-312 527.5,-312 543.5,-312 543.5,-312 527.5,-312"/>
<polygon fill="#bfbfbf" stroke="#bfbfbf" points="543.5,-312 543.5,-312 630.5,-312 630.5,-312 543.5,-312"/>
<polygon fill="none" stroke="#bfbfbf" points="527,-280 527,-344 630,-344 630,-280 527,-280"/>
</a>
</g>
</g>
<!-- Node1&#45;&gt;Node9 -->
<g id="edge8_Node000001_Node000009" class="edge">
<title>Node1&#45;&gt;Node9</title>
<g id="a_edge8_Node000001_Node000009"><a xlink:title=" ">
<path fill="none" stroke="#63b8ff" d="M437.32,-462.38C464.23,-453.05 494.73,-439.08 517.5,-419 540.59,-398.64 557.09,-367.34 567.06,-344.02"/>
<polygon fill="none" stroke="#63b8ff" points="435.98,-459.14 427.6,-465.61 438.19,-465.78 435.98,-459.14"/>
</a>
</g>
</g>
<!-- Node2 -->
<g id="Node000002" class="node">
<title>Node2</title>
<g id="a_Node000002"><a xlink:href="classUOWGameplayAbility.html" target="_top" xlink:title=" ">
<polygon fill="white" stroke="transparent" points="444,-694 307,-694 307,-540 444,-540 444,-694"/>
<text text-anchor="start" x="322.5" y="-682" font-family="Helvetica,sans-Serif" font-size="10.00">UOWGameplayAbility</text>
<text text-anchor="start" x="311.5" y="-667" font-family="Helvetica,sans-Serif" font-size="10.00">#</text>
<text text-anchor="start" x="324.5" y="-667" font-family="Helvetica,sans-Serif" font-size="10.00">CooldownDuration</text>
<text text-anchor="start" x="311.5" y="-652" font-family="Helvetica,sans-Serif" font-size="10.00">#</text>
<text text-anchor="start" x="324.5" y="-652" font-family="Helvetica,sans-Serif" font-size="10.00">CooldownTags</text>
<text text-anchor="start" x="311.5" y="-637" font-family="Helvetica,sans-Serif" font-size="10.00">#</text>
<text text-anchor="start" x="324.5" y="-637" font-family="Helvetica,sans-Serif" font-size="10.00">GameplayEffectClasses</text>
<text text-anchor="start" x="311.5" y="-622" font-family="Helvetica,sans-Serif" font-size="10.00">+</text>
<text text-anchor="start" x="324.5" y="-622" font-family="Helvetica,sans-Serif" font-size="10.00">UOWGameplayAbility()</text>
<text text-anchor="start" x="311.5" y="-607" font-family="Helvetica,sans-Serif" font-size="10.00">+</text>
<text text-anchor="start" x="324.5" y="-607" font-family="Helvetica,sans-Serif" font-size="10.00">SetCooldownData()</text>
<text text-anchor="start" x="311.5" y="-592" font-family="Helvetica,sans-Serif" font-size="10.00">+</text>
<text text-anchor="start" x="324.5" y="-592" font-family="Helvetica,sans-Serif" font-size="10.00">SetCostEffect()</text>
<text text-anchor="start" x="311.5" y="-577" font-family="Helvetica,sans-Serif" font-size="10.00">+</text>
<text text-anchor="start" x="324.5" y="-577" font-family="Helvetica,sans-Serif" font-size="10.00">ApplyCooldown()</text>
<text text-anchor="start" x="311.5" y="-562" font-family="Helvetica,sans-Serif" font-size="10.00">+</text>
<text text-anchor="start" x="324.5" y="-562" font-family="Helvetica,sans-Serif" font-size="10.00">CanActivateAbility()</text>
<text text-anchor="start" x="311.5" y="-547" font-family="Helvetica,sans-Serif" font-size="10.00">+</text>
<text text-anchor="start" x="324.5" y="-547" font-family="Helvetica,sans-Serif" font-size="10.00">ActivateAbility()</text>
<polygon fill="#bfbfbf" stroke="#bfbfbf" points="307.5,-677 307.5,-677 444.5,-677 444.5,-677 307.5,-677"/>
<polygon fill="#bfbfbf" stroke="#bfbfbf" points="307.5,-632 307.5,-632 322.5,-632 322.5,-632 307.5,-632"/>
<polygon fill="#bfbfbf" stroke="#bfbfbf" points="322.5,-632 322.5,-632 444.5,-632 444.5,-632 322.5,-632"/>
<polygon fill="none" stroke="#bfbfbf" points="307,-540 307,-694 444,-694 444,-540 307,-540"/>
</a>
</g>
</g>
<!-- Node2&#45;&gt;Node1 -->
<g id="edge1_Node000001_Node000002" class="edge">
<title>Node2&#45;&gt;Node1</title>
<g id="a_edge1_Node000001_Node000002"><a xlink:title=" ">
<path fill="none" stroke="#63b8ff" d="M375.5,-529.67C375.5,-520.37 375.5,-511.57 375.5,-504.06"/>
<polygon fill="none" stroke="#63b8ff" points="372,-529.93 375.5,-539.93 379,-529.93 372,-529.93"/>
</a>
</g>
</g>
<!-- Node3 -->
<g id="Node000003" class="node">
<title>Node3</title>
<g id="a_Node000003"><a xlink:title=" ">
<polygon fill="white" stroke="transparent" points="425.5,-779 325.5,-779 325.5,-730 425.5,-730 425.5,-779"/>
<text text-anchor="start" x="330.5" y="-766.5" font-family="Helvetica,sans-Serif" font-size="10.00">UGameplayAbility</text>
<text text-anchor="start" x="373.5" y="-751.5" font-family="Helvetica,sans-Serif" font-size="10.00"> </text>
<text text-anchor="start" x="373.5" y="-736.5" font-family="Helvetica,sans-Serif" font-size="10.00"> </text>
<polygon fill="#bfbfbf" stroke="#bfbfbf" points="325.5,-761.5 325.5,-761.5 425.5,-761.5 425.5,-761.5 325.5,-761.5"/>
<polygon fill="#bfbfbf" stroke="#bfbfbf" points="325.5,-746.5 325.5,-746.5 425.5,-746.5 425.5,-746.5 325.5,-746.5"/>
<polygon fill="none" stroke="#bfbfbf" points="325.5,-730 325.5,-779 425.5,-779 425.5,-730 325.5,-730"/>
</a>
</g>
</g>
<!-- Node3&#45;&gt;Node2 -->
<g id="edge2_Node000002_Node000003" class="edge">
<title>Node3&#45;&gt;Node2</title>
<g id="a_edge2_Node000002_Node000003"><a xlink:title=" ">
<path fill="none" stroke="#63b8ff" d="M375.5,-719.66C375.5,-711.74 375.5,-702.97 375.5,-694.01"/>
<polygon fill="none" stroke="#63b8ff" points="372,-719.9 375.5,-729.9 379,-719.9 372,-719.9"/>
</a>
</g>
</g>
<!-- Node5 -->
<g id="Node000005" class="node">
<title>Node5</title>
<g id="a_Node000005"><a xlink:href="classUOWGA__ShurikenMain.html" target="_top" xlink:title=" ">
<polygon fill="white" stroke="transparent" points="139,-169 0,-169 0,0 139,0 139,-169"/>
<text text-anchor="start" x="14.5" y="-156.5" font-family="Helvetica,sans-Serif" font-size="10.00">UOWGA_ShurikenMain</text>
<text text-anchor="start" x="68" y="-141.5" font-family="Helvetica,sans-Serif" font-size="10.00"> </text>
<text text-anchor="start" x="4.5" y="-126.5" font-family="Helvetica,sans-Serif" font-size="10.00">+</text>
<text text-anchor="start" x="17.5" y="-126.5" font-family="Helvetica,sans-Serif" font-size="10.00">UOWGA_ShurikenMain()</text>
<text text-anchor="start" x="4.5" y="-111.5" font-family="Helvetica,sans-Serif" font-size="10.00">+</text>
<text text-anchor="start" x="17.5" y="-111.5" font-family="Helvetica,sans-Serif" font-size="10.00">SetCurrentMontage()</text>
<text text-anchor="start" x="4.5" y="-96.5" font-family="Helvetica,sans-Serif" font-size="10.00">+</text>
<text text-anchor="start" x="17.5" y="-96.5" font-family="Helvetica,sans-Serif" font-size="10.00">CanActivateAbility()</text>
<text text-anchor="start" x="4.5" y="-81.5" font-family="Helvetica,sans-Serif" font-size="10.00">+</text>
<text text-anchor="start" x="17.5" y="-81.5" font-family="Helvetica,sans-Serif" font-size="10.00">ActivateAbility()</text>
<text text-anchor="start" x="4.5" y="-66.5" font-family="Helvetica,sans-Serif" font-size="10.00">+</text>
<text text-anchor="start" x="17.5" y="-66.5" font-family="Helvetica,sans-Serif" font-size="10.00">EndAbility()</text>
<text text-anchor="start" x="4.5" y="-51.5" font-family="Helvetica,sans-Serif" font-size="10.00">+</text>
<text text-anchor="start" x="17.5" y="-51.5" font-family="Helvetica,sans-Serif" font-size="10.00">ShurikenMain()</text>
<text text-anchor="start" x="4.5" y="-36.5" font-family="Helvetica,sans-Serif" font-size="10.00">+</text>
<text text-anchor="start" x="17.5" y="-36.5" font-family="Helvetica,sans-Serif" font-size="10.00">ThrowFirstShuriken()</text>
<text text-anchor="start" x="4.5" y="-21.5" font-family="Helvetica,sans-Serif" font-size="10.00">+</text>
<text text-anchor="start" x="17.5" y="-21.5" font-family="Helvetica,sans-Serif" font-size="10.00">ThrowSecondShuriken()</text>
<text text-anchor="start" x="4.5" y="-6.5" font-family="Helvetica,sans-Serif" font-size="10.00">+</text>
<text text-anchor="start" x="17.5" y="-6.5" font-family="Helvetica,sans-Serif" font-size="10.00">ThrowThirdShuriken()</text>
<polygon fill="#bfbfbf" stroke="#bfbfbf" points="0.5,-151.5 0.5,-151.5 139.5,-151.5 139.5,-151.5 0.5,-151.5"/>
<polygon fill="#bfbfbf" stroke="#bfbfbf" points="0.5,-136.5 0.5,-136.5 139.5,-136.5 139.5,-136.5 0.5,-136.5"/>
<polygon fill="none" stroke="#bfbfbf" points="0,0 0,-169 139,-169 139,0 0,0"/>
</a>
</g>
</g>
<!-- Node4&#45;&gt;Node5 -->
<g id="edge4_Node000004_Node000005" class="edge">
<title>Node4&#45;&gt;Node5</title>
<g id="a_edge4_Node000004_Node000005"><a xlink:title=" ">
<path fill="none" stroke="#63b8ff" d="M128.48,-262.82C119.42,-235.59 107.84,-200.77 97.34,-169.22"/>
<polygon fill="none" stroke="#63b8ff" points="125.22,-264.11 131.69,-272.49 131.86,-261.9 125.22,-264.11"/>
</a>
</g>
</g>
<!-- Node6 -->
<g id="Node000006" class="node">
<title>Node6</title>
<g id="a_Node000006"><a xlink:href="classUOWGA__ShurikenSub.html" target="_top" xlink:title=" ">
<polygon fill="white" stroke="transparent" points="281.5,-146.5 157.5,-146.5 157.5,-22.5 281.5,-22.5 281.5,-146.5"/>
<text text-anchor="start" x="167" y="-134.5" font-family="Helvetica,sans-Serif" font-size="10.00">UOWGA_ShurikenSub</text>
<text text-anchor="start" x="217.5" y="-119.5" font-family="Helvetica,sans-Serif" font-size="10.00"> </text>
<text text-anchor="start" x="161.5" y="-104.5" font-family="Helvetica,sans-Serif" font-size="10.00">+</text>
<text text-anchor="start" x="174.5" y="-104.5" font-family="Helvetica,sans-Serif" font-size="10.00">SetCurrentMontage()</text>
<text text-anchor="start" x="161.5" y="-89.5" font-family="Helvetica,sans-Serif" font-size="10.00">+</text>
<text text-anchor="start" x="174.5" y="-89.5" font-family="Helvetica,sans-Serif" font-size="10.00">CanActivateAbility()</text>
<text text-anchor="start" x="161.5" y="-74.5" font-family="Helvetica,sans-Serif" font-size="10.00">+</text>
<text text-anchor="start" x="174.5" y="-74.5" font-family="Helvetica,sans-Serif" font-size="10.00">ActivateAbility()</text>
<text text-anchor="start" x="161.5" y="-59.5" font-family="Helvetica,sans-Serif" font-size="10.00">+</text>
<text text-anchor="start" x="174.5" y="-59.5" font-family="Helvetica,sans-Serif" font-size="10.00">EndAbility()</text>
<text text-anchor="start" x="161.5" y="-44.5" font-family="Helvetica,sans-Serif" font-size="10.00">+</text>
<text text-anchor="start" x="174.5" y="-44.5" font-family="Helvetica,sans-Serif" font-size="10.00">ShurikenSub()</text>
<text text-anchor="start" x="161.5" y="-29.5" font-family="Helvetica,sans-Serif" font-size="10.00">+</text>
<text text-anchor="start" x="174.5" y="-29.5" font-family="Helvetica,sans-Serif" font-size="10.00">SpawnProjectile()</text>
<polygon fill="#bfbfbf" stroke="#bfbfbf" points="157.5,-129.5 157.5,-129.5 281.5,-129.5 281.5,-129.5 157.5,-129.5"/>
<polygon fill="#bfbfbf" stroke="#bfbfbf" points="157.5,-114.5 157.5,-114.5 281.5,-114.5 281.5,-114.5 157.5,-114.5"/>
<polygon fill="none" stroke="#bfbfbf" points="157.5,-22.5 157.5,-146.5 281.5,-146.5 281.5,-22.5 157.5,-22.5"/>
</a>
</g>
</g>
<!-- Node4&#45;&gt;Node6 -->
<g id="edge5_Node000004_Node000006" class="edge">
<title>Node4&#45;&gt;Node6</title>
<g id="a_edge5_Node000004_Node000006"><a xlink:title=" ">
<path fill="none" stroke="#63b8ff" d="M160.53,-262.82C171.8,-228.93 186.97,-183.29 199.11,-146.81"/>
<polygon fill="none" stroke="#63b8ff" points="157.14,-261.9 157.31,-272.49 163.78,-264.11 157.14,-261.9"/>
</a>
</g>
</g>
</g>
</svg>
