<?xml version="1.0" encoding="UTF-8" standalone="no"?>
<!DOCTYPE svg PUBLIC "-//W3C//DTD SVG 1.1//EN"
 "http://www.w3.org/Graphics/SVG/1.1/DTD/svg11.dtd">
<!-- Generated by graphviz version 2.43.0 (0)
 -->
<!-- Title: 그래픽컬한 클래스 계통도 Pages: 1 -->
<svg width="468pt" height="138pt"
 viewBox="0.00 0.00 468.00 138.00" xmlns="http://www.w3.org/2000/svg" xmlns:xlink="http://www.w3.org/1999/xlink">
<g id="graph0" class="graph" transform="scale(1 1) rotate(0) translate(4 134)">
<title>그래픽컬한 클래스 계통도</title>
<!-- Node0 -->
<g id="Node000000" class="node">
<title>Node0</title>
<g id="a_Node000000"><a xlink:title=" ">
<polygon fill="#e0e0e0" stroke="#999999" points="102,-74 0,-74 0,-55 102,-55 102,-74"/>
<text text-anchor="middle" x="51" y="-62" font-family="Helvetica,sans-Serif" font-size="10.00">UGameplayEffect</text>
</a>
</g>
</g>
<!-- Node1 -->
<g id="Node000001" class="node">
<title>Node1</title>
<g id="a_Node000001"><a xlink:href="classUOWGameplayEffect.html" target="_top" xlink:title=" ">
<polygon fill="white" stroke="#666666" points="257,-74 138,-74 138,-55 257,-55 257,-74"/>
<text text-anchor="middle" x="197.5" y="-62" font-family="Helvetica,sans-Serif" font-size="10.00">UOWGameplayEffect</text>
</a>
</g>
</g>
<!-- Node0&#45;&gt;Node1 -->
<g id="edge26_Node000000_Node000001" class="edge">
<title>Node0&#45;&gt;Node1</title>
<g id="a_edge26_Node000000_Node000001"><a xlink:title=" ">
<path fill="none" stroke="#63b8ff" d="M112.28,-64.5C120.71,-64.5 129.36,-64.5 137.77,-64.5"/>
<polygon fill="#63b8ff" stroke="#63b8ff" points="112.13,-61 102.13,-64.5 112.13,-68 112.13,-61"/>
</a>
</g>
</g>
<!-- Node2 -->
<g id="Node000002" class="node">
<title>Node2</title>
<g id="a_Node000002"><a xlink:href="classUOWCooldownGameplayEffect.html" target="_top" xlink:title=" ">
<polygon fill="white" stroke="#666666" points="460,-130 293,-130 293,-111 460,-111 460,-130"/>
<text text-anchor="middle" x="376.5" y="-118" font-family="Helvetica,sans-Serif" font-size="10.00">UOWCooldownGameplayEffect</text>
</a>
</g>
</g>
<!-- Node1&#45;&gt;Node2 -->
<g id="edge27_Node000001_Node000002" class="edge">
<title>Node1&#45;&gt;Node2</title>
<g id="a_edge27_Node000001_Node000002"><a xlink:title=" ">
<path fill="none" stroke="#63b8ff" d="M228.81,-78.2C247.12,-86.09 271.08,-95.75 293,-102.5 303.37,-105.69 314.64,-108.54 325.42,-110.98"/>
<polygon fill="#63b8ff" stroke="#63b8ff" points="230.09,-74.94 219.53,-74.14 227.29,-81.35 230.09,-74.94"/>
</a>
</g>
</g>
<!-- Node3 -->
<g id="Node000003" class="node">
<title>Node3</title>
<g id="a_Node000003"><a xlink:href="classUOWGE__Cost.html" target="_top" xlink:title=" ">
<polygon fill="white" stroke="#666666" points="417.5,-93 335.5,-93 335.5,-74 417.5,-74 417.5,-93"/>
<text text-anchor="middle" x="376.5" y="-81" font-family="Helvetica,sans-Serif" font-size="10.00">UOWGE_Cost</text>
</a>
</g>
</g>
<!-- Node1&#45;&gt;Node3 -->
<g id="edge28_Node000001_Node000003" class="edge">
<title>Node1&#45;&gt;Node3</title>
<g id="a_edge28_Node000001_Node000003"><a xlink:title=" ">
<path fill="none" stroke="#63b8ff" d="M267.48,-71.9C290.42,-74.37 315.2,-77.03 335.24,-79.18"/>
<polygon fill="#63b8ff" stroke="#63b8ff" points="267.75,-68.41 257.44,-70.83 267.01,-75.37 267.75,-68.41"/>
</a>
</g>
</g>
<!-- Node4 -->
<g id="Node000004" class="node">
<title>Node4</title>
<g id="a_Node000004"><a xlink:href="classUOWGE__InitUltimateGauge.html" target="_top" xlink:title=" ">
<polygon fill="white" stroke="#666666" points="451.5,-56 301.5,-56 301.5,-37 451.5,-37 451.5,-56"/>
<text text-anchor="middle" x="376.5" y="-44" font-family="Helvetica,sans-Serif" font-size="10.00">UOWGE_InitUltimateGauge</text>
</a>
</g>
</g>
<!-- Node1&#45;&gt;Node4 -->
<g id="edge29_Node000001_Node000004" class="edge">
<title>Node1&#45;&gt;Node4</title>
<g id="a_edge29_Node000001_Node000004"><a xlink:title=" ">
<path fill="none" stroke="#63b8ff" d="M267.5,-57.48C278.62,-56.35 290.16,-55.18 301.39,-54.04"/>
<polygon fill="#63b8ff" stroke="#63b8ff" points="267.03,-54.01 257.44,-58.51 267.74,-60.98 267.03,-54.01"/>
</a>
</g>
</g>
<!-- Node5 -->
<g id="Node000005" class="node">
<title>Node5</title>
<g id="a_Node000005"><a xlink:href="classUOWGE__Sleep.html" target="_top" xlink:title=" ">
<polygon fill="white" stroke="#666666" points="420,-19 333,-19 333,0 420,0 420,-19"/>
<text text-anchor="middle" x="376.5" y="-7" font-family="Helvetica,sans-Serif" font-size="10.00">UOWGE_Sleep</text>
</a>
</g>
</g>
<!-- Node1&#45;&gt;Node5 -->
<g id="edge30_Node000001_Node000005" class="edge">
<title>Node1&#45;&gt;Node5</title>
<g id="a_edge30_Node000001_Node000005"><a xlink:title=" ">
<path fill="none" stroke="#63b8ff" d="M230.61,-51.01C248.72,-43.72 271.88,-34.92 293,-28.5 305.8,-24.61 319.92,-21.08 332.81,-18.16"/>
<polygon fill="#63b8ff" stroke="#63b8ff" points="229.05,-47.86 221.11,-54.88 231.69,-54.34 229.05,-47.86"/>
</a>
</g>
</g>
</g>
</svg>
