<?xml version="1.0" encoding="UTF-8" standalone="no"?>
<!DOCTYPE svg PUBLIC "-//W3C//DTD SVG 1.1//EN"
 "http://www.w3.org/Graphics/SVG/1.1/DTD/svg11.dtd">
<!-- Generated by graphviz version 2.43.0 (0)
 -->
<!-- Title: UOWGameplayAbility Pages: 1 -->
<svg width="457pt" height="522pt"
 viewBox="0.00 0.00 456.50 522.00" xmlns="http://www.w3.org/2000/svg" xmlns:xlink="http://www.w3.org/1999/xlink">
<g id="graph0" class="graph" transform="scale(1 1) rotate(0) translate(4 518)">
<title>UOWGameplayAbility</title>
<!-- Node1 -->
<g id="Node000001" class="node">
<title>Node1</title>
<g id="a_Node000001"><a xlink:title=" ">
<polygon fill="#999999" stroke="transparent" points="336.5,-429 200.5,-429 200.5,-380 336.5,-380 336.5,-429"/>
<text text-anchor="start" x="215" y="-416.5" font-family="Helvetica,sans-Serif" font-size="10.00">UOWGameplayAbility</text>
<text text-anchor="start" x="266.5" y="-401.5" font-family="Helvetica,sans-Serif" font-size="10.00"> </text>
<text text-anchor="start" x="204.5" y="-386.5" font-family="Helvetica,sans-Serif" font-size="10.00">+</text>
<text text-anchor="start" x="217.5" y="-386.5" font-family="Helvetica,sans-Serif" font-size="10.00">UOWGameplayAbility()</text>
<polygon fill="#666666" stroke="#666666" points="200.5,-411.5 200.5,-411.5 336.5,-411.5 336.5,-411.5 200.5,-411.5"/>
<polygon fill="#666666" stroke="#666666" points="200.5,-396.5 200.5,-396.5 336.5,-396.5 336.5,-396.5 200.5,-396.5"/>
<polygon fill="none" stroke="#666666" points="200.5,-380 200.5,-429 336.5,-429 336.5,-380 200.5,-380"/>
</a>
</g>
</g>
<!-- Node3 -->
<g id="Node000003" class="node">
<title>Node3</title>
<g id="a_Node000003"><a xlink:href="classUOWGA__Active.html" target="_top" xlink:title=" ">
<polygon fill="white" stroke="transparent" points="204.5,-344 84.5,-344 84.5,-220 204.5,-220 204.5,-344"/>
<text text-anchor="start" x="106.5" y="-332" font-family="Helvetica,sans-Serif" font-size="10.00">UOWGA_Active</text>
<text text-anchor="start" x="88.5" y="-317" font-family="Helvetica,sans-Serif" font-size="10.00">#</text>
<text text-anchor="start" x="101.5" y="-317" font-family="Helvetica,sans-Serif" font-size="10.00">CooldownDuration</text>
<text text-anchor="start" x="88.5" y="-302" font-family="Helvetica,sans-Serif" font-size="10.00">#</text>
<text text-anchor="start" x="101.5" y="-302" font-family="Helvetica,sans-Serif" font-size="10.00">CooldownTags</text>
<text text-anchor="start" x="88.5" y="-287" font-family="Helvetica,sans-Serif" font-size="10.00">+</text>
<text text-anchor="start" x="101.5" y="-287" font-family="Helvetica,sans-Serif" font-size="10.00">UOWGA_Active()</text>
<text text-anchor="start" x="88.5" y="-272" font-family="Helvetica,sans-Serif" font-size="10.00">+</text>
<text text-anchor="start" x="101.5" y="-272" font-family="Helvetica,sans-Serif" font-size="10.00">SetCooldownData()</text>
<text text-anchor="start" x="88.5" y="-257" font-family="Helvetica,sans-Serif" font-size="10.00">+</text>
<text text-anchor="start" x="101.5" y="-257" font-family="Helvetica,sans-Serif" font-size="10.00">ActivateAbility()</text>
<text text-anchor="start" x="88.5" y="-242" font-family="Helvetica,sans-Serif" font-size="10.00">+</text>
<text text-anchor="start" x="101.5" y="-242" font-family="Helvetica,sans-Serif" font-size="10.00">ApplyCooldown()</text>
<text text-anchor="start" x="88.5" y="-227" font-family="Helvetica,sans-Serif" font-size="10.00">+</text>
<text text-anchor="start" x="101.5" y="-227" font-family="Helvetica,sans-Serif" font-size="10.00">CanActivateAbility()</text>
<polygon fill="#666666" stroke="#666666" points="84.5,-327 84.5,-327 204.5,-327 204.5,-327 84.5,-327"/>
<polygon fill="#666666" stroke="#666666" points="84.5,-297 84.5,-297 99.5,-297 99.5,-297 84.5,-297"/>
<polygon fill="#666666" stroke="#666666" points="99.5,-297 99.5,-297 204.5,-297 204.5,-297 99.5,-297"/>
<polygon fill="none" stroke="#666666" points="84.5,-220 84.5,-344 204.5,-344 204.5,-220 84.5,-220"/>
</a>
</g>
</g>
<!-- Node1&#45;&gt;Node3 -->
<g id="edge2_Node000001_Node000003" class="edge">
<title>Node1&#45;&gt;Node3</title>
<g id="a_edge2_Node000001_Node000003"><a xlink:title=" ">
<path fill="none" stroke="#63b8ff" d="M237.02,-372.91C227.12,-363.29 215.84,-352.33 204.64,-341.44"/>
<polygon fill="none" stroke="#63b8ff" points="234.69,-375.52 244.3,-379.98 239.56,-370.5 234.69,-375.52"/>
</a>
</g>
</g>
<!-- Node6 -->
<g id="Node000006" class="node">
<title>Node6</title>
<g id="a_Node000006"><a xlink:href="classUOWGA__Passive.html" target="_top" xlink:title=" ">
<polygon fill="white" stroke="transparent" points="314.5,-306.5 222.5,-306.5 222.5,-257.5 314.5,-257.5 314.5,-306.5"/>
<text text-anchor="start" x="227.5" y="-294" font-family="Helvetica,sans-Serif" font-size="10.00">UOWGA_Passive</text>
<text text-anchor="start" x="266.5" y="-279" font-family="Helvetica,sans-Serif" font-size="10.00"> </text>
<text text-anchor="start" x="266.5" y="-264" font-family="Helvetica,sans-Serif" font-size="10.00"> </text>
<polygon fill="#bfbfbf" stroke="#bfbfbf" points="222.5,-289 222.5,-289 314.5,-289 314.5,-289 222.5,-289"/>
<polygon fill="#bfbfbf" stroke="#bfbfbf" points="222.5,-274 222.5,-274 314.5,-274 314.5,-274 222.5,-274"/>
<polygon fill="none" stroke="#bfbfbf" points="222.5,-257.5 222.5,-306.5 314.5,-306.5 314.5,-257.5 222.5,-257.5"/>
</a>
</g>
</g>
<!-- Node1&#45;&gt;Node6 -->
<g id="edge5_Node000001_Node000006" class="edge">
<title>Node1&#45;&gt;Node6</title>
<g id="a_edge5_Node000001_Node000006"><a xlink:title=" ">
<path fill="none" stroke="#63b8ff" d="M268.5,-369.73C268.5,-349.72 268.5,-324.84 268.5,-306.87"/>
<polygon fill="none" stroke="#63b8ff" points="265,-369.98 268.5,-379.98 272,-369.98 265,-369.98"/>
</a>
</g>
</g>
<!-- Node7 -->
<g id="Node000007" class="node">
<title>Node7</title>
<g id="a_Node000007"><a xlink:href="classUOWGA__Ultimate.html" target="_top" xlink:title=" ">
<polygon fill="white" stroke="transparent" points="448.5,-329 332.5,-329 332.5,-235 448.5,-235 448.5,-329"/>
<text text-anchor="start" x="346.5" y="-317" font-family="Helvetica,sans-Serif" font-size="10.00">UOWGA_Ultimate</text>
<text text-anchor="start" x="336.5" y="-302" font-family="Helvetica,sans-Serif" font-size="10.00">#</text>
<text text-anchor="start" x="349.5" y="-302" font-family="Helvetica,sans-Serif" font-size="10.00">UltCost</text>
<text text-anchor="start" x="336.5" y="-287" font-family="Helvetica,sans-Serif" font-size="10.00">+</text>
<text text-anchor="start" x="349.5" y="-287" font-family="Helvetica,sans-Serif" font-size="10.00">UOWGA_Ultimate()</text>
<text text-anchor="start" x="336.5" y="-272" font-family="Helvetica,sans-Serif" font-size="10.00">+</text>
<text text-anchor="start" x="349.5" y="-272" font-family="Helvetica,sans-Serif" font-size="10.00">CheckCost()</text>
<text text-anchor="start" x="336.5" y="-257" font-family="Helvetica,sans-Serif" font-size="10.00">+</text>
<text text-anchor="start" x="349.5" y="-257" font-family="Helvetica,sans-Serif" font-size="10.00">ApplyCost()</text>
<text text-anchor="start" x="336.5" y="-242" font-family="Helvetica,sans-Serif" font-size="10.00">+</text>
<text text-anchor="start" x="349.5" y="-242" font-family="Helvetica,sans-Serif" font-size="10.00">ActivateAbility()</text>
<polygon fill="#666666" stroke="#666666" points="332.5,-312 332.5,-312 448.5,-312 448.5,-312 332.5,-312"/>
<polygon fill="#666666" stroke="#666666" points="332.5,-297 332.5,-297 347.5,-297 347.5,-297 332.5,-297"/>
<polygon fill="#666666" stroke="#666666" points="347.5,-297 347.5,-297 448.5,-297 448.5,-297 347.5,-297"/>
<polygon fill="none" stroke="#666666" points="332.5,-235 332.5,-329 448.5,-329 448.5,-235 332.5,-235"/>
</a>
</g>
</g>
<!-- Node1&#45;&gt;Node7 -->
<g id="edge6_Node000001_Node000007" class="edge">
<title>Node1&#45;&gt;Node7</title>
<g id="a_edge6_Node000001_Node000007"><a xlink:title=" ">
<path fill="none" stroke="#63b8ff" d="M299.45,-372.93C312.81,-359.73 328.74,-344 343.52,-329.41"/>
<polygon fill="none" stroke="#63b8ff" points="296.97,-370.46 292.31,-379.98 301.89,-375.44 296.97,-370.46"/>
</a>
</g>
</g>
<!-- Node2 -->
<g id="Node000002" class="node">
<title>Node2</title>
<g id="a_Node000002"><a xlink:title=" ">
<polygon fill="white" stroke="transparent" points="318.5,-514 218.5,-514 218.5,-465 318.5,-465 318.5,-514"/>
<text text-anchor="start" x="223.5" y="-501.5" font-family="Helvetica,sans-Serif" font-size="10.00">UGameplayAbility</text>
<text text-anchor="start" x="266.5" y="-486.5" font-family="Helvetica,sans-Serif" font-size="10.00"> </text>
<text text-anchor="start" x="266.5" y="-471.5" font-family="Helvetica,sans-Serif" font-size="10.00"> </text>
<polygon fill="#bfbfbf" stroke="#bfbfbf" points="218.5,-496.5 218.5,-496.5 318.5,-496.5 318.5,-496.5 218.5,-496.5"/>
<polygon fill="#bfbfbf" stroke="#bfbfbf" points="218.5,-481.5 218.5,-481.5 318.5,-481.5 318.5,-481.5 218.5,-481.5"/>
<polygon fill="none" stroke="#bfbfbf" points="218.5,-465 218.5,-514 318.5,-514 318.5,-465 218.5,-465"/>
</a>
</g>
</g>
<!-- Node2&#45;&gt;Node1 -->
<g id="edge1_Node000001_Node000002" class="edge">
<title>Node2&#45;&gt;Node1</title>
<g id="a_edge1_Node000001_Node000002"><a xlink:title=" ">
<path fill="none" stroke="#63b8ff" d="M268.5,-454.77C268.5,-446.17 268.5,-437.1 268.5,-429.12"/>
<polygon fill="none" stroke="#63b8ff" points="265,-454.94 268.5,-464.94 272,-454.94 265,-454.94"/>
</a>
</g>
</g>
<!-- Node4 -->
<g id="Node000004" class="node">
<title>Node4</title>
<g id="a_Node000004"><a xlink:href="classUOWGA__Active__GunFire.html" target="_top" xlink:title=" ">
<polygon fill="white" stroke="transparent" points="147,-184 0,-184 0,0 147,0 147,-184"/>
<text text-anchor="start" x="15" y="-172" font-family="Helvetica,sans-Serif" font-size="10.00">UOWGA_Active_GunFire</text>
<text text-anchor="start" x="4.5" y="-157" font-family="Helvetica,sans-Serif" font-size="10.00">+</text>
<text text-anchor="start" x="17.5" y="-157" font-family="Helvetica,sans-Serif" font-size="10.00">FireProjectilepMontage</text>
<text text-anchor="start" x="4.5" y="-142" font-family="Helvetica,sans-Serif" font-size="10.00">+</text>
<text text-anchor="start" x="17.5" y="-142" font-family="Helvetica,sans-Serif" font-size="10.00">DamageGameplayEffect</text>
<text text-anchor="start" x="4.5" y="-127" font-family="Helvetica,sans-Serif" font-size="10.00">+</text>
<text text-anchor="start" x="17.5" y="-127" font-family="Helvetica,sans-Serif" font-size="10.00">ProjectileClass</text>
<text text-anchor="start" x="4.5" y="-112" font-family="Helvetica,sans-Serif" font-size="10.00">#</text>
<text text-anchor="start" x="17.5" y="-112" font-family="Helvetica,sans-Serif" font-size="10.00">Range</text>
<text text-anchor="start" x="4.5" y="-97" font-family="Helvetica,sans-Serif" font-size="10.00">#</text>
<text text-anchor="start" x="17.5" y="-97" font-family="Helvetica,sans-Serif" font-size="10.00">Damage</text>
<text text-anchor="start" x="4.5" y="-82" font-family="Helvetica,sans-Serif" font-size="10.00">+</text>
<text text-anchor="start" x="17.5" y="-82" font-family="Helvetica,sans-Serif" font-size="10.00">UOWGA_Active_GunFire()</text>
<text text-anchor="start" x="4.5" y="-67" font-family="Helvetica,sans-Serif" font-size="10.00">+</text>
<text text-anchor="start" x="17.5" y="-67" font-family="Helvetica,sans-Serif" font-size="10.00">ActivateAbility()</text>
<text text-anchor="start" x="4.5" y="-52" font-family="Helvetica,sans-Serif" font-size="10.00">#</text>
<text text-anchor="start" x="17.5" y="-52" font-family="Helvetica,sans-Serif" font-size="10.00">OnCancelled()</text>
<text text-anchor="start" x="4.5" y="-37" font-family="Helvetica,sans-Serif" font-size="10.00">#</text>
<text text-anchor="start" x="17.5" y="-37" font-family="Helvetica,sans-Serif" font-size="10.00">OnCompleted()</text>
<text text-anchor="start" x="4.5" y="-22" font-family="Helvetica,sans-Serif" font-size="10.00">#</text>
<text text-anchor="start" x="17.5" y="-22" font-family="Helvetica,sans-Serif" font-size="10.00">EventReceived()</text>
<text text-anchor="start" x="4.5" y="-7" font-family="Helvetica,sans-Serif" font-size="10.00">#</text>
<text text-anchor="start" x="17.5" y="-7" font-family="Helvetica,sans-Serif" font-size="10.00">SpawnProjectile()</text>
<polygon fill="#bfbfbf" stroke="#bfbfbf" points="0.5,-167 0.5,-167 147.5,-167 147.5,-167 0.5,-167"/>
<polygon fill="#bfbfbf" stroke="#bfbfbf" points="0.5,-92 0.5,-92 15.5,-92 15.5,-92 0.5,-92"/>
<polygon fill="#bfbfbf" stroke="#bfbfbf" points="15.5,-92 15.5,-92 147.5,-92 147.5,-92 15.5,-92"/>
<polygon fill="none" stroke="#bfbfbf" points="0,0 0,-184 147,-184 147,0 0,0"/>
</a>
</g>
</g>
<!-- Node3&#45;&gt;Node4 -->
<g id="edge3_Node000003_Node000004" class="edge">
<title>Node3&#45;&gt;Node4</title>
<g id="a_edge3_Node000003_Node000004"><a xlink:title=" ">
<path fill="none" stroke="#63b8ff" d="M117.84,-210.4C114.59,-201.81 111.24,-192.94 107.91,-184.11"/>
<polygon fill="none" stroke="#63b8ff" points="114.64,-211.84 121.45,-219.96 121.19,-209.37 114.64,-211.84"/>
</a>
</g>
</g>
<!-- Node5 -->
<g id="Node000005" class="node">
<title>Node5</title>
<g id="a_Node000005"><a xlink:href="classUOWGA__FastZoom.html" target="_top" xlink:title=" ">
<polygon fill="white" stroke="transparent" points="268,-124 165,-124 165,-60 268,-60 268,-124"/>
<text text-anchor="start" x="170.5" y="-112" font-family="Helvetica,sans-Serif" font-size="10.00">UOWGA_FastZoom</text>
<text text-anchor="start" x="170" y="-97" font-family="Helvetica,sans-Serif" font-size="10.00">#</text>
<text text-anchor="start" x="183.5" y="-97" font-family="Helvetica,sans-Serif" font-size="10.00">ZoomFOV</text>
<text text-anchor="start" x="170" y="-82" font-family="Helvetica,sans-Serif" font-size="10.00">+</text>
<text text-anchor="start" x="183.5" y="-82" font-family="Helvetica,sans-Serif" font-size="10.00">ActivateAbility()</text>
<text text-anchor="start" x="170" y="-67" font-family="Helvetica,sans-Serif" font-size="10.00">+</text>
<text text-anchor="start" x="183.5" y="-67" font-family="Helvetica,sans-Serif" font-size="10.00">EndAbility()</text>
<polygon fill="#bfbfbf" stroke="#bfbfbf" points="165.5,-107 165.5,-107 268.5,-107 268.5,-107 165.5,-107"/>
<polygon fill="#bfbfbf" stroke="#bfbfbf" points="165.5,-92 165.5,-92 181.5,-92 181.5,-92 165.5,-92"/>
<polygon fill="#bfbfbf" stroke="#bfbfbf" points="181.5,-92 181.5,-92 268.5,-92 268.5,-92 181.5,-92"/>
<polygon fill="none" stroke="#bfbfbf" points="165,-60 165,-124 268,-124 268,-60 165,-60"/>
</a>
</g>
</g>
<!-- Node3&#45;&gt;Node5 -->
<g id="edge4_Node000003_Node000005" class="edge">
<title>Node3&#45;&gt;Node5</title>
<g id="a_edge4_Node000003_Node000005"><a xlink:title=" ">
<path fill="none" stroke="#63b8ff" d="M171.52,-210.45C182.89,-180.75 195.55,-147.71 204.53,-124.25"/>
<polygon fill="none" stroke="#63b8ff" points="168.18,-209.37 167.88,-219.96 174.72,-211.88 168.18,-209.37"/>
</a>
</g>
</g>
</g>
</svg>
