<?xml version="1.0" encoding="UTF-8" standalone="no"?>
<!DOCTYPE svg PUBLIC "-//W3C//DTD SVG 1.1//EN"
 "http://www.w3.org/Graphics/SVG/1.1/DTD/svg11.dtd">
<!-- Generated by graphviz version 2.43.0 (0)
 -->
<!-- Title: UOWGA_ShurikenMain Pages: 1 -->
<svg width="155pt" height="757pt"
 viewBox="0.00 0.00 155.00 757.00" xmlns="http://www.w3.org/2000/svg" xmlns:xlink="http://www.w3.org/1999/xlink">
<g id="graph0" class="graph" transform="scale(1 1) rotate(0) translate(4 753)">
<title>UOWGA_ShurikenMain</title>
<!-- Node1 -->
<g id="Node000001" class="node">
<title>Node1</title>
<g id="a_Node000001"><a xlink:title=" ">
<polygon fill="#999999" stroke="transparent" points="143,-169 4,-169 4,0 143,0 143,-169"/>
<text text-anchor="start" x="18.5" y="-156.5" font-family="Helvetica,sans-Serif" font-size="10.00">UOWGA_ShurikenMain</text>
<text text-anchor="start" x="72" y="-141.5" font-family="Helvetica,sans-Serif" font-size="10.00"> </text>
<text text-anchor="start" x="8.5" y="-126.5" font-family="Helvetica,sans-Serif" font-size="10.00">+</text>
<text text-anchor="start" x="21.5" y="-126.5" font-family="Helvetica,sans-Serif" font-size="10.00">UOWGA_ShurikenMain()</text>
<text text-anchor="start" x="8.5" y="-111.5" font-family="Helvetica,sans-Serif" font-size="10.00">+</text>
<text text-anchor="start" x="21.5" y="-111.5" font-family="Helvetica,sans-Serif" font-size="10.00">SetCurrentMontage()</text>
<text text-anchor="start" x="8.5" y="-96.5" font-family="Helvetica,sans-Serif" font-size="10.00">+</text>
<text text-anchor="start" x="21.5" y="-96.5" font-family="Helvetica,sans-Serif" font-size="10.00">CanActivateAbility()</text>
<text text-anchor="start" x="8.5" y="-81.5" font-family="Helvetica,sans-Serif" font-size="10.00">+</text>
<text text-anchor="start" x="21.5" y="-81.5" font-family="Helvetica,sans-Serif" font-size="10.00">ActivateAbility()</text>
<text text-anchor="start" x="8.5" y="-66.5" font-family="Helvetica,sans-Serif" font-size="10.00">+</text>
<text text-anchor="start" x="21.5" y="-66.5" font-family="Helvetica,sans-Serif" font-size="10.00">EndAbility()</text>
<text text-anchor="start" x="8.5" y="-51.5" font-family="Helvetica,sans-Serif" font-size="10.00">+</text>
<text text-anchor="start" x="21.5" y="-51.5" font-family="Helvetica,sans-Serif" font-size="10.00">ShurikenMain()</text>
<text text-anchor="start" x="8.5" y="-36.5" font-family="Helvetica,sans-Serif" font-size="10.00">+</text>
<text text-anchor="start" x="21.5" y="-36.5" font-family="Helvetica,sans-Serif" font-size="10.00">ThrowFirstShuriken()</text>
<text text-anchor="start" x="8.5" y="-21.5" font-family="Helvetica,sans-Serif" font-size="10.00">+</text>
<text text-anchor="start" x="21.5" y="-21.5" font-family="Helvetica,sans-Serif" font-size="10.00">ThrowSecondShuriken()</text>
<text text-anchor="start" x="8.5" y="-6.5" font-family="Helvetica,sans-Serif" font-size="10.00">+</text>
<text text-anchor="start" x="21.5" y="-6.5" font-family="Helvetica,sans-Serif" font-size="10.00">ThrowThirdShuriken()</text>
<polygon fill="#666666" stroke="#666666" points="4.5,-151.5 4.5,-151.5 143.5,-151.5 143.5,-151.5 4.5,-151.5"/>
<polygon fill="#666666" stroke="#666666" points="4.5,-136.5 4.5,-136.5 143.5,-136.5 143.5,-136.5 4.5,-136.5"/>
<polygon fill="none" stroke="#666666" points="4,0 4,-169 143,-169 143,0 4,0"/>
</a>
</g>
</g>
<!-- Node2 -->
<g id="Node000002" class="node">
<title>Node2</title>
<g id="a_Node000002"><a xlink:href="classUOWGA__Active__GunFire.html" target="_top" xlink:title=" ">
<polygon fill="white" stroke="transparent" points="147,-389 0,-389 0,-205 147,-205 147,-389"/>
<text text-anchor="start" x="15" y="-377" font-family="Helvetica,sans-Serif" font-size="10.00">UOWGA_Active_GunFire</text>
<text text-anchor="start" x="4.5" y="-362" font-family="Helvetica,sans-Serif" font-size="10.00">+</text>
<text text-anchor="start" x="17.5" y="-362" font-family="Helvetica,sans-Serif" font-size="10.00">FireProjectilepMontage</text>
<text text-anchor="start" x="4.5" y="-347" font-family="Helvetica,sans-Serif" font-size="10.00">+</text>
<text text-anchor="start" x="17.5" y="-347" font-family="Helvetica,sans-Serif" font-size="10.00">DamageGameplayEffect</text>
<text text-anchor="start" x="4.5" y="-332" font-family="Helvetica,sans-Serif" font-size="10.00">+</text>
<text text-anchor="start" x="17.5" y="-332" font-family="Helvetica,sans-Serif" font-size="10.00">ProjectileClass</text>
<text text-anchor="start" x="4.5" y="-317" font-family="Helvetica,sans-Serif" font-size="10.00">#</text>
<text text-anchor="start" x="17.5" y="-317" font-family="Helvetica,sans-Serif" font-size="10.00">Range</text>
<text text-anchor="start" x="4.5" y="-302" font-family="Helvetica,sans-Serif" font-size="10.00">#</text>
<text text-anchor="start" x="17.5" y="-302" font-family="Helvetica,sans-Serif" font-size="10.00">Damage</text>
<text text-anchor="start" x="4.5" y="-287" font-family="Helvetica,sans-Serif" font-size="10.00">+</text>
<text text-anchor="start" x="17.5" y="-287" font-family="Helvetica,sans-Serif" font-size="10.00">UOWGA_Active_GunFire()</text>
<text text-anchor="start" x="4.5" y="-272" font-family="Helvetica,sans-Serif" font-size="10.00">+</text>
<text text-anchor="start" x="17.5" y="-272" font-family="Helvetica,sans-Serif" font-size="10.00">ActivateAbility()</text>
<text text-anchor="start" x="4.5" y="-257" font-family="Helvetica,sans-Serif" font-size="10.00">#</text>
<text text-anchor="start" x="17.5" y="-257" font-family="Helvetica,sans-Serif" font-size="10.00">OnCancelled()</text>
<text text-anchor="start" x="4.5" y="-242" font-family="Helvetica,sans-Serif" font-size="10.00">#</text>
<text text-anchor="start" x="17.5" y="-242" font-family="Helvetica,sans-Serif" font-size="10.00">OnCompleted()</text>
<text text-anchor="start" x="4.5" y="-227" font-family="Helvetica,sans-Serif" font-size="10.00">#</text>
<text text-anchor="start" x="17.5" y="-227" font-family="Helvetica,sans-Serif" font-size="10.00">EventReceived()</text>
<text text-anchor="start" x="4.5" y="-212" font-family="Helvetica,sans-Serif" font-size="10.00">#</text>
<text text-anchor="start" x="17.5" y="-212" font-family="Helvetica,sans-Serif" font-size="10.00">SpawnProjectile()</text>
<polygon fill="#bfbfbf" stroke="#bfbfbf" points="0.5,-372 0.5,-372 147.5,-372 147.5,-372 0.5,-372"/>
<polygon fill="#bfbfbf" stroke="#bfbfbf" points="0.5,-297 0.5,-297 15.5,-297 15.5,-297 0.5,-297"/>
<polygon fill="#bfbfbf" stroke="#bfbfbf" points="15.5,-297 15.5,-297 147.5,-297 147.5,-297 15.5,-297"/>
<polygon fill="none" stroke="#bfbfbf" points="0,-205 0,-389 147,-389 147,-205 0,-205"/>
</a>
</g>
</g>
<!-- Node2&#45;&gt;Node1 -->
<g id="edge1_Node000001_Node000002" class="edge">
<title>Node2&#45;&gt;Node1</title>
<g id="a_edge1_Node000001_Node000002"><a xlink:title=" ">
<path fill="none" stroke="#63b8ff" d="M73.5,-194.82C73.5,-186.21 73.5,-177.57 73.5,-169.11"/>
<polygon fill="none" stroke="#63b8ff" points="70,-194.9 73.5,-204.9 77,-194.9 70,-194.9"/>
</a>
</g>
</g>
<!-- Node3 -->
<g id="Node000003" class="node">
<title>Node3</title>
<g id="a_Node000003"><a xlink:href="classUOWGA__Active.html" target="_top" xlink:title=" ">
<polygon fill="white" stroke="transparent" points="125.5,-474 21.5,-474 21.5,-425 125.5,-425 125.5,-474"/>
<text text-anchor="start" x="35.5" y="-461.5" font-family="Helvetica,sans-Serif" font-size="10.00">UOWGA_Active</text>
<text text-anchor="start" x="71.5" y="-446.5" font-family="Helvetica,sans-Serif" font-size="10.00"> </text>
<text text-anchor="start" x="25.5" y="-431.5" font-family="Helvetica,sans-Serif" font-size="10.00">+</text>
<text text-anchor="start" x="38.5" y="-431.5" font-family="Helvetica,sans-Serif" font-size="10.00">UOWGA_Active()</text>
<polygon fill="#bfbfbf" stroke="#bfbfbf" points="21.5,-456.5 21.5,-456.5 125.5,-456.5 125.5,-456.5 21.5,-456.5"/>
<polygon fill="#bfbfbf" stroke="#bfbfbf" points="21.5,-441.5 21.5,-441.5 125.5,-441.5 125.5,-441.5 21.5,-441.5"/>
<polygon fill="none" stroke="#bfbfbf" points="21.5,-425 21.5,-474 125.5,-474 125.5,-425 21.5,-425"/>
</a>
</g>
</g>
<!-- Node3&#45;&gt;Node2 -->
<g id="edge2_Node000002_Node000003" class="edge">
<title>Node3&#45;&gt;Node2</title>
<g id="a_edge2_Node000002_Node000003"><a xlink:title=" ">
<path fill="none" stroke="#63b8ff" d="M73.5,-414.88C73.5,-407.03 73.5,-398.29 73.5,-389.23"/>
<polygon fill="none" stroke="#63b8ff" points="70,-414.98 73.5,-424.98 77,-414.98 70,-414.98"/>
</a>
</g>
</g>
<!-- Node4 -->
<g id="Node000004" class="node">
<title>Node4</title>
<g id="a_Node000004"><a xlink:href="classUOWGameplayAbility.html" target="_top" xlink:title=" ">
<polygon fill="white" stroke="transparent" points="142,-664 5,-664 5,-510 142,-510 142,-664"/>
<text text-anchor="start" x="20.5" y="-652" font-family="Helvetica,sans-Serif" font-size="10.00">UOWGameplayAbility</text>
<text text-anchor="start" x="9.5" y="-637" font-family="Helvetica,sans-Serif" font-size="10.00">#</text>
<text text-anchor="start" x="22.5" y="-637" font-family="Helvetica,sans-Serif" font-size="10.00">CooldownDuration</text>
<text text-anchor="start" x="9.5" y="-622" font-family="Helvetica,sans-Serif" font-size="10.00">#</text>
<text text-anchor="start" x="22.5" y="-622" font-family="Helvetica,sans-Serif" font-size="10.00">CooldownTags</text>
<text text-anchor="start" x="9.5" y="-607" font-family="Helvetica,sans-Serif" font-size="10.00">#</text>
<text text-anchor="start" x="22.5" y="-607" font-family="Helvetica,sans-Serif" font-size="10.00">GameplayEffectClasses</text>
<text text-anchor="start" x="9.5" y="-592" font-family="Helvetica,sans-Serif" font-size="10.00">+</text>
<text text-anchor="start" x="22.5" y="-592" font-family="Helvetica,sans-Serif" font-size="10.00">UOWGameplayAbility()</text>
<text text-anchor="start" x="9.5" y="-577" font-family="Helvetica,sans-Serif" font-size="10.00">+</text>
<text text-anchor="start" x="22.5" y="-577" font-family="Helvetica,sans-Serif" font-size="10.00">SetCooldownData()</text>
<text text-anchor="start" x="9.5" y="-562" font-family="Helvetica,sans-Serif" font-size="10.00">+</text>
<text text-anchor="start" x="22.5" y="-562" font-family="Helvetica,sans-Serif" font-size="10.00">SetCostEffect()</text>
<text text-anchor="start" x="9.5" y="-547" font-family="Helvetica,sans-Serif" font-size="10.00">+</text>
<text text-anchor="start" x="22.5" y="-547" font-family="Helvetica,sans-Serif" font-size="10.00">ApplyCooldown()</text>
<text text-anchor="start" x="9.5" y="-532" font-family="Helvetica,sans-Serif" font-size="10.00">+</text>
<text text-anchor="start" x="22.5" y="-532" font-family="Helvetica,sans-Serif" font-size="10.00">CanActivateAbility()</text>
<text text-anchor="start" x="9.5" y="-517" font-family="Helvetica,sans-Serif" font-size="10.00">+</text>
<text text-anchor="start" x="22.5" y="-517" font-family="Helvetica,sans-Serif" font-size="10.00">ActivateAbility()</text>
<polygon fill="#bfbfbf" stroke="#bfbfbf" points="5.5,-647 5.5,-647 142.5,-647 142.5,-647 5.5,-647"/>
<polygon fill="#bfbfbf" stroke="#bfbfbf" points="5.5,-602 5.5,-602 20.5,-602 20.5,-602 5.5,-602"/>
<polygon fill="#bfbfbf" stroke="#bfbfbf" points="20.5,-602 20.5,-602 142.5,-602 142.5,-602 20.5,-602"/>
<polygon fill="none" stroke="#bfbfbf" points="5,-510 5,-664 142,-664 142,-510 5,-510"/>
</a>
</g>
</g>
<!-- Node4&#45;&gt;Node3 -->
<g id="edge3_Node000003_Node000004" class="edge">
<title>Node4&#45;&gt;Node3</title>
<g id="a_edge3_Node000003_Node000004"><a xlink:title=" ">
<path fill="none" stroke="#63b8ff" d="M73.5,-499.67C73.5,-490.37 73.5,-481.57 73.5,-474.06"/>
<polygon fill="none" stroke="#63b8ff" points="70,-499.93 73.5,-509.93 77,-499.93 70,-499.93"/>
</a>
</g>
</g>
<!-- Node5 -->
<g id="Node000005" class="node">
<title>Node5</title>
<g id="a_Node000005"><a xlink:title=" ">
<polygon fill="white" stroke="transparent" points="123.5,-749 23.5,-749 23.5,-700 123.5,-700 123.5,-749"/>
<text text-anchor="start" x="28.5" y="-736.5" font-family="Helvetica,sans-Serif" font-size="10.00">UGameplayAbility</text>
<text text-anchor="start" x="71.5" y="-721.5" font-family="Helvetica,sans-Serif" font-size="10.00"> </text>
<text text-anchor="start" x="71.5" y="-706.5" font-family="Helvetica,sans-Serif" font-size="10.00"> </text>
<polygon fill="#bfbfbf" stroke="#bfbfbf" points="23.5,-731.5 23.5,-731.5 123.5,-731.5 123.5,-731.5 23.5,-731.5"/>
<polygon fill="#bfbfbf" stroke="#bfbfbf" points="23.5,-716.5 23.5,-716.5 123.5,-716.5 123.5,-716.5 23.5,-716.5"/>
<polygon fill="none" stroke="#bfbfbf" points="23.5,-700 23.5,-749 123.5,-749 123.5,-700 23.5,-700"/>
</a>
</g>
</g>
<!-- Node5&#45;&gt;Node4 -->
<g id="edge4_Node000004_Node000005" class="edge">
<title>Node5&#45;&gt;Node4</title>
<g id="a_edge4_Node000004_Node000005"><a xlink:title=" ">
<path fill="none" stroke="#63b8ff" d="M73.5,-689.66C73.5,-681.74 73.5,-672.97 73.5,-664.01"/>
<polygon fill="none" stroke="#63b8ff" points="70,-689.9 73.5,-699.9 77,-689.9 70,-689.9"/>
</a>
</g>
</g>
</g>
</svg>
