<?xml version="1.0" encoding="UTF-8" standalone="no"?>
<!DOCTYPE svg PUBLIC "-//W3C//DTD SVG 1.1//EN"
 "http://www.w3.org/Graphics/SVG/1.1/DTD/svg11.dtd">
<!-- Generated by graphviz version 2.43.0 (0)
 -->
<!-- Title: UOWGA_Active_GunFire Pages: 1 -->
<svg width="155pt" height="552pt"
 viewBox="0.00 0.00 155.00 552.00" xmlns="http://www.w3.org/2000/svg" xmlns:xlink="http://www.w3.org/1999/xlink">
<g id="graph0" class="graph" transform="scale(1 1) rotate(0) translate(4 548)">
<title>UOWGA_Active_GunFire</title>
<!-- Node1 -->
<g id="Node000001" class="node">
<title>Node1</title>
<g id="a_Node000001"><a xlink:title=" ">
<polygon fill="#999999" stroke="transparent" points="147,-184 0,-184 0,0 147,0 147,-184"/>
<text text-anchor="start" x="15" y="-172" font-family="Helvetica,sans-Serif" font-size="10.00">UOWGA_Active_GunFire</text>
<text text-anchor="start" x="4.5" y="-157" font-family="Helvetica,sans-Serif" font-size="10.00">+</text>
<text text-anchor="start" x="17.5" y="-157" font-family="Helvetica,sans-Serif" font-size="10.00">FireProjectilepMontage</text>
<text text-anchor="start" x="4.5" y="-142" font-family="Helvetica,sans-Serif" font-size="10.00">+</text>
<text text-anchor="start" x="17.5" y="-142" font-family="Helvetica,sans-Serif" font-size="10.00">DamageGameplayEffect</text>
<text text-anchor="start" x="4.5" y="-127" font-family="Helvetica,sans-Serif" font-size="10.00">+</text>
<text text-anchor="start" x="17.5" y="-127" font-family="Helvetica,sans-Serif" font-size="10.00">ProjectileClass</text>
<text text-anchor="start" x="4.5" y="-112" font-family="Helvetica,sans-Serif" font-size="10.00">#</text>
<text text-anchor="start" x="17.5" y="-112" font-family="Helvetica,sans-Serif" font-size="10.00">Range</text>
<text text-anchor="start" x="4.5" y="-97" font-family="Helvetica,sans-Serif" font-size="10.00">#</text>
<text text-anchor="start" x="17.5" y="-97" font-family="Helvetica,sans-Serif" font-size="10.00">Damage</text>
<text text-anchor="start" x="4.5" y="-82" font-family="Helvetica,sans-Serif" font-size="10.00">+</text>
<text text-anchor="start" x="17.5" y="-82" font-family="Helvetica,sans-Serif" font-size="10.00">UOWGA_Active_GunFire()</text>
<text text-anchor="start" x="4.5" y="-67" font-family="Helvetica,sans-Serif" font-size="10.00">+</text>
<text text-anchor="start" x="17.5" y="-67" font-family="Helvetica,sans-Serif" font-size="10.00">ActivateAbility()</text>
<text text-anchor="start" x="4.5" y="-52" font-family="Helvetica,sans-Serif" font-size="10.00">#</text>
<text text-anchor="start" x="17.5" y="-52" font-family="Helvetica,sans-Serif" font-size="10.00">OnCancelled()</text>
<text text-anchor="start" x="4.5" y="-37" font-family="Helvetica,sans-Serif" font-size="10.00">#</text>
<text text-anchor="start" x="17.5" y="-37" font-family="Helvetica,sans-Serif" font-size="10.00">OnCompleted()</text>
<text text-anchor="start" x="4.5" y="-22" font-family="Helvetica,sans-Serif" font-size="10.00">#</text>
<text text-anchor="start" x="17.5" y="-22" font-family="Helvetica,sans-Serif" font-size="10.00">EventReceived()</text>
<text text-anchor="start" x="4.5" y="-7" font-family="Helvetica,sans-Serif" font-size="10.00">#</text>
<text text-anchor="start" x="17.5" y="-7" font-family="Helvetica,sans-Serif" font-size="10.00">SpawnProjectile()</text>
<polygon fill="#666666" stroke="#666666" points="0.5,-167 0.5,-167 147.5,-167 147.5,-167 0.5,-167"/>
<polygon fill="#666666" stroke="#666666" points="0.5,-92 0.5,-92 15.5,-92 15.5,-92 0.5,-92"/>
<polygon fill="#666666" stroke="#666666" points="15.5,-92 15.5,-92 147.5,-92 147.5,-92 15.5,-92"/>
<polygon fill="none" stroke="#666666" points="0,0 0,-184 147,-184 147,0 0,0"/>
</a>
</g>
</g>
<!-- Node2 -->
<g id="Node000002" class="node">
<title>Node2</title>
<g id="a_Node000002"><a xlink:href="classUOWGA__Active.html" target="_top" xlink:title=" ">
<polygon fill="white" stroke="transparent" points="125.5,-269 21.5,-269 21.5,-220 125.5,-220 125.5,-269"/>
<text text-anchor="start" x="35.5" y="-256.5" font-family="Helvetica,sans-Serif" font-size="10.00">UOWGA_Active</text>
<text text-anchor="start" x="71.5" y="-241.5" font-family="Helvetica,sans-Serif" font-size="10.00"> </text>
<text text-anchor="start" x="25.5" y="-226.5" font-family="Helvetica,sans-Serif" font-size="10.00">+</text>
<text text-anchor="start" x="38.5" y="-226.5" font-family="Helvetica,sans-Serif" font-size="10.00">UOWGA_Active()</text>
<polygon fill="#bfbfbf" stroke="#bfbfbf" points="21.5,-251.5 21.5,-251.5 125.5,-251.5 125.5,-251.5 21.5,-251.5"/>
<polygon fill="#bfbfbf" stroke="#bfbfbf" points="21.5,-236.5 21.5,-236.5 125.5,-236.5 125.5,-236.5 21.5,-236.5"/>
<polygon fill="none" stroke="#bfbfbf" points="21.5,-220 21.5,-269 125.5,-269 125.5,-220 21.5,-220"/>
</a>
</g>
</g>
<!-- Node2&#45;&gt;Node1 -->
<g id="edge1_Node000001_Node000002" class="edge">
<title>Node2&#45;&gt;Node1</title>
<g id="a_edge1_Node000001_Node000002"><a xlink:title=" ">
<path fill="none" stroke="#63b8ff" d="M73.5,-209.88C73.5,-202.03 73.5,-193.29 73.5,-184.23"/>
<polygon fill="none" stroke="#63b8ff" points="70,-209.98 73.5,-219.98 77,-209.98 70,-209.98"/>
</a>
</g>
</g>
<!-- Node3 -->
<g id="Node000003" class="node">
<title>Node3</title>
<g id="a_Node000003"><a xlink:href="classUOWGameplayAbility.html" target="_top" xlink:title=" ">
<polygon fill="white" stroke="transparent" points="142,-459 5,-459 5,-305 142,-305 142,-459"/>
<text text-anchor="start" x="20.5" y="-447" font-family="Helvetica,sans-Serif" font-size="10.00">UOWGameplayAbility</text>
<text text-anchor="start" x="9.5" y="-432" font-family="Helvetica,sans-Serif" font-size="10.00">#</text>
<text text-anchor="start" x="22.5" y="-432" font-family="Helvetica,sans-Serif" font-size="10.00">CooldownDuration</text>
<text text-anchor="start" x="9.5" y="-417" font-family="Helvetica,sans-Serif" font-size="10.00">#</text>
<text text-anchor="start" x="22.5" y="-417" font-family="Helvetica,sans-Serif" font-size="10.00">CooldownTags</text>
<text text-anchor="start" x="9.5" y="-402" font-family="Helvetica,sans-Serif" font-size="10.00">#</text>
<text text-anchor="start" x="22.5" y="-402" font-family="Helvetica,sans-Serif" font-size="10.00">GameplayEffectClasses</text>
<text text-anchor="start" x="9.5" y="-387" font-family="Helvetica,sans-Serif" font-size="10.00">+</text>
<text text-anchor="start" x="22.5" y="-387" font-family="Helvetica,sans-Serif" font-size="10.00">UOWGameplayAbility()</text>
<text text-anchor="start" x="9.5" y="-372" font-family="Helvetica,sans-Serif" font-size="10.00">+</text>
<text text-anchor="start" x="22.5" y="-372" font-family="Helvetica,sans-Serif" font-size="10.00">SetCooldownData()</text>
<text text-anchor="start" x="9.5" y="-357" font-family="Helvetica,sans-Serif" font-size="10.00">+</text>
<text text-anchor="start" x="22.5" y="-357" font-family="Helvetica,sans-Serif" font-size="10.00">SetCostEffect()</text>
<text text-anchor="start" x="9.5" y="-342" font-family="Helvetica,sans-Serif" font-size="10.00">+</text>
<text text-anchor="start" x="22.5" y="-342" font-family="Helvetica,sans-Serif" font-size="10.00">ApplyCooldown()</text>
<text text-anchor="start" x="9.5" y="-327" font-family="Helvetica,sans-Serif" font-size="10.00">+</text>
<text text-anchor="start" x="22.5" y="-327" font-family="Helvetica,sans-Serif" font-size="10.00">CanActivateAbility()</text>
<text text-anchor="start" x="9.5" y="-312" font-family="Helvetica,sans-Serif" font-size="10.00">+</text>
<text text-anchor="start" x="22.5" y="-312" font-family="Helvetica,sans-Serif" font-size="10.00">ActivateAbility()</text>
<polygon fill="#bfbfbf" stroke="#bfbfbf" points="5.5,-442 5.5,-442 142.5,-442 142.5,-442 5.5,-442"/>
<polygon fill="#bfbfbf" stroke="#bfbfbf" points="5.5,-397 5.5,-397 20.5,-397 20.5,-397 5.5,-397"/>
<polygon fill="#bfbfbf" stroke="#bfbfbf" points="20.5,-397 20.5,-397 142.5,-397 142.5,-397 20.5,-397"/>
<polygon fill="none" stroke="#bfbfbf" points="5,-305 5,-459 142,-459 142,-305 5,-305"/>
</a>
</g>
</g>
<!-- Node3&#45;&gt;Node2 -->
<g id="edge2_Node000002_Node000003" class="edge">
<title>Node3&#45;&gt;Node2</title>
<g id="a_edge2_Node000002_Node000003"><a xlink:title=" ">
<path fill="none" stroke="#63b8ff" d="M73.5,-294.67C73.5,-285.37 73.5,-276.57 73.5,-269.06"/>
<polygon fill="none" stroke="#63b8ff" points="70,-294.93 73.5,-304.93 77,-294.93 70,-294.93"/>
</a>
</g>
</g>
<!-- Node4 -->
<g id="Node000004" class="node">
<title>Node4</title>
<g id="a_Node000004"><a xlink:title=" ">
<polygon fill="white" stroke="transparent" points="123.5,-544 23.5,-544 23.5,-495 123.5,-495 123.5,-544"/>
<text text-anchor="start" x="28.5" y="-531.5" font-family="Helvetica,sans-Serif" font-size="10.00">UGameplayAbility</text>
<text text-anchor="start" x="71.5" y="-516.5" font-family="Helvetica,sans-Serif" font-size="10.00"> </text>
<text text-anchor="start" x="71.5" y="-501.5" font-family="Helvetica,sans-Serif" font-size="10.00"> </text>
<polygon fill="#bfbfbf" stroke="#bfbfbf" points="23.5,-526.5 23.5,-526.5 123.5,-526.5 123.5,-526.5 23.5,-526.5"/>
<polygon fill="#bfbfbf" stroke="#bfbfbf" points="23.5,-511.5 23.5,-511.5 123.5,-511.5 123.5,-511.5 23.5,-511.5"/>
<polygon fill="none" stroke="#bfbfbf" points="23.5,-495 23.5,-544 123.5,-544 123.5,-495 23.5,-495"/>
</a>
</g>
</g>
<!-- Node4&#45;&gt;Node3 -->
<g id="edge3_Node000003_Node000004" class="edge">
<title>Node4&#45;&gt;Node3</title>
<g id="a_edge3_Node000003_Node000004"><a xlink:title=" ">
<path fill="none" stroke="#63b8ff" d="M73.5,-484.66C73.5,-476.74 73.5,-467.97 73.5,-459.01"/>
<polygon fill="none" stroke="#63b8ff" points="70,-484.9 73.5,-494.9 77,-484.9 70,-484.9"/>
</a>
</g>
</g>
</g>
</svg>
