<?xml version="1.0" encoding="UTF-8" standalone="no"?>
<!DOCTYPE svg PUBLIC "-//W3C//DTD SVG 1.1//EN"
 "http://www.w3.org/Graphics/SVG/1.1/DTD/svg11.dtd">
<!-- Generated by graphviz version 2.43.0 (0)
 -->
<!-- Title: UOWGA_ShurikenMain Pages: 1 -->
<svg width="155pt" height="652pt"
 viewBox="0.00 0.00 155.00 652.00" xmlns="http://www.w3.org/2000/svg" xmlns:xlink="http://www.w3.org/1999/xlink">
<g id="graph0" class="graph" transform="scale(1 1) rotate(0) translate(4 648)">
<title>UOWGA_ShurikenMain</title>
<!-- Node1 -->
<g id="Node000001" class="node">
<title>Node1</title>
<g id="a_Node000001"><a xlink:title=" ">
<polygon fill="#999999" stroke="transparent" points="143,-169 4,-169 4,0 143,0 143,-169"/>
<text text-anchor="start" x="18.5" y="-156.5" font-family="Helvetica,sans-Serif" font-size="10.00">UOWGA_ShurikenMain</text>
<text text-anchor="start" x="72" y="-141.5" font-family="Helvetica,sans-Serif" font-size="10.00"> </text>
<text text-anchor="start" x="8.5" y="-126.5" font-family="Helvetica,sans-Serif" font-size="10.00">+</text>
<text text-anchor="start" x="21.5" y="-126.5" font-family="Helvetica,sans-Serif" font-size="10.00">UOWGA_ShurikenMain()</text>
<text text-anchor="start" x="8.5" y="-111.5" font-family="Helvetica,sans-Serif" font-size="10.00">+</text>
<text text-anchor="start" x="21.5" y="-111.5" font-family="Helvetica,sans-Serif" font-size="10.00">SetCurrentMontage()</text>
<text text-anchor="start" x="8.5" y="-96.5" font-family="Helvetica,sans-Serif" font-size="10.00">+</text>
<text text-anchor="start" x="21.5" y="-96.5" font-family="Helvetica,sans-Serif" font-size="10.00">CanActivateAbility()</text>
<text text-anchor="start" x="8.5" y="-81.5" font-family="Helvetica,sans-Serif" font-size="10.00">+</text>
<text text-anchor="start" x="21.5" y="-81.5" font-family="Helvetica,sans-Serif" font-size="10.00">ActivateAbility()</text>
<text text-anchor="start" x="8.5" y="-66.5" font-family="Helvetica,sans-Serif" font-size="10.00">+</text>
<text text-anchor="start" x="21.5" y="-66.5" font-family="Helvetica,sans-Serif" font-size="10.00">EndAbility()</text>
<text text-anchor="start" x="8.5" y="-51.5" font-family="Helvetica,sans-Serif" font-size="10.00">+</text>
<text text-anchor="start" x="21.5" y="-51.5" font-family="Helvetica,sans-Serif" font-size="10.00">ShurikenMain()</text>
<text text-anchor="start" x="8.5" y="-36.5" font-family="Helvetica,sans-Serif" font-size="10.00">+</text>
<text text-anchor="start" x="21.5" y="-36.5" font-family="Helvetica,sans-Serif" font-size="10.00">ThrowFirstShuriken()</text>
<text text-anchor="start" x="8.5" y="-21.5" font-family="Helvetica,sans-Serif" font-size="10.00">+</text>
<text text-anchor="start" x="21.5" y="-21.5" font-family="Helvetica,sans-Serif" font-size="10.00">ThrowSecondShuriken()</text>
<text text-anchor="start" x="8.5" y="-6.5" font-family="Helvetica,sans-Serif" font-size="10.00">+</text>
<text text-anchor="start" x="21.5" y="-6.5" font-family="Helvetica,sans-Serif" font-size="10.00">ThrowThirdShuriken()</text>
<polygon fill="#666666" stroke="#666666" points="4.5,-151.5 4.5,-151.5 143.5,-151.5 143.5,-151.5 4.5,-151.5"/>
<polygon fill="#666666" stroke="#666666" points="4.5,-136.5 4.5,-136.5 143.5,-136.5 143.5,-136.5 4.5,-136.5"/>
<polygon fill="none" stroke="#666666" points="4,0 4,-169 143,-169 143,0 4,0"/>
</a>
</g>
</g>
<!-- Node2 -->
<g id="Node000002" class="node">
<title>Node2</title>
<g id="a_Node000002"><a xlink:href="classUOWGA__Active__GunFire.html" target="_top" xlink:title=" ">
<polygon fill="white" stroke="transparent" points="147,-284 0,-284 0,-205 147,-205 147,-284"/>
<text text-anchor="start" x="15" y="-271.5" font-family="Helvetica,sans-Serif" font-size="10.00">UOWGA_Active_GunFire</text>
<text text-anchor="start" x="4.5" y="-256.5" font-family="Helvetica,sans-Serif" font-size="10.00">#</text>
<text text-anchor="start" x="17.5" y="-256.5" font-family="Helvetica,sans-Serif" font-size="10.00">WeaponComp</text>
<text text-anchor="start" x="4.5" y="-241.5" font-family="Helvetica,sans-Serif" font-size="10.00">+</text>
<text text-anchor="start" x="17.5" y="-241.5" font-family="Helvetica,sans-Serif" font-size="10.00">UOWGA_Active_GunFire()</text>
<text text-anchor="start" x="4.5" y="-226.5" font-family="Helvetica,sans-Serif" font-size="10.00">+</text>
<text text-anchor="start" x="17.5" y="-226.5" font-family="Helvetica,sans-Serif" font-size="10.00">ActivateAbility()</text>
<text text-anchor="start" x="4.5" y="-211.5" font-family="Helvetica,sans-Serif" font-size="10.00">+</text>
<text text-anchor="start" x="17.5" y="-211.5" font-family="Helvetica,sans-Serif" font-size="10.00">Shoot()</text>
<polygon fill="#bfbfbf" stroke="#bfbfbf" points="0.5,-266.5 0.5,-266.5 147.5,-266.5 147.5,-266.5 0.5,-266.5"/>
<polygon fill="#bfbfbf" stroke="#bfbfbf" points="0.5,-251.5 0.5,-251.5 15.5,-251.5 15.5,-251.5 0.5,-251.5"/>
<polygon fill="#bfbfbf" stroke="#bfbfbf" points="15.5,-251.5 15.5,-251.5 147.5,-251.5 147.5,-251.5 15.5,-251.5"/>
<polygon fill="none" stroke="#bfbfbf" points="0,-205 0,-284 147,-284 147,-205 0,-205"/>
</a>
</g>
</g>
<!-- Node2&#45;&gt;Node1 -->
<g id="edge1_Node000001_Node000002" class="edge">
<title>Node2&#45;&gt;Node1</title>
<g id="a_edge1_Node000001_Node000002"><a xlink:title=" ">
<path fill="none" stroke="#63b8ff" d="M73.5,-194.83C73.5,-186.68 73.5,-178.02 73.5,-169.29"/>
<polygon fill="none" stroke="#63b8ff" points="70,-194.85 73.5,-204.85 77,-194.85 70,-194.85"/>
</a>
</g>
</g>
<!-- Node3 -->
<g id="Node000003" class="node">
<title>Node3</title>
<g id="a_Node000003"><a xlink:href="classUOWGA__Active.html" target="_top" xlink:title=" ">
<polygon fill="white" stroke="transparent" points="125.5,-369 21.5,-369 21.5,-320 125.5,-320 125.5,-369"/>
<text text-anchor="start" x="35.5" y="-356.5" font-family="Helvetica,sans-Serif" font-size="10.00">UOWGA_Active</text>
<text text-anchor="start" x="71.5" y="-341.5" font-family="Helvetica,sans-Serif" font-size="10.00"> </text>
<text text-anchor="start" x="25.5" y="-326.5" font-family="Helvetica,sans-Serif" font-size="10.00">+</text>
<text text-anchor="start" x="38.5" y="-326.5" font-family="Helvetica,sans-Serif" font-size="10.00">UOWGA_Active()</text>
<polygon fill="#bfbfbf" stroke="#bfbfbf" points="21.5,-351.5 21.5,-351.5 125.5,-351.5 125.5,-351.5 21.5,-351.5"/>
<polygon fill="#bfbfbf" stroke="#bfbfbf" points="21.5,-336.5 21.5,-336.5 125.5,-336.5 125.5,-336.5 21.5,-336.5"/>
<polygon fill="none" stroke="#bfbfbf" points="21.5,-320 21.5,-369 125.5,-369 125.5,-320 21.5,-320"/>
</a>
</g>
</g>
<!-- Node3&#45;&gt;Node2 -->
<g id="edge2_Node000002_Node000003" class="edge">
<title>Node3&#45;&gt;Node2</title>
<g id="a_edge2_Node000002_Node000003"><a xlink:title=" ">
<path fill="none" stroke="#63b8ff" d="M73.5,-309.52C73.5,-301.38 73.5,-292.63 73.5,-284.29"/>
<polygon fill="none" stroke="#63b8ff" points="70,-309.78 73.5,-319.78 77,-309.78 70,-309.78"/>
</a>
</g>
</g>
<!-- Node4 -->
<g id="Node000004" class="node">
<title>Node4</title>
<g id="a_Node000004"><a xlink:href="classUOWGameplayAbility.html" target="_top" xlink:title=" ">
<polygon fill="white" stroke="transparent" points="142,-559 5,-559 5,-405 142,-405 142,-559"/>
<text text-anchor="start" x="20.5" y="-547" font-family="Helvetica,sans-Serif" font-size="10.00">UOWGameplayAbility</text>
<text text-anchor="start" x="9.5" y="-532" font-family="Helvetica,sans-Serif" font-size="10.00">#</text>
<text text-anchor="start" x="22.5" y="-532" font-family="Helvetica,sans-Serif" font-size="10.00">CooldownDuration</text>
<text text-anchor="start" x="9.5" y="-517" font-family="Helvetica,sans-Serif" font-size="10.00">#</text>
<text text-anchor="start" x="22.5" y="-517" font-family="Helvetica,sans-Serif" font-size="10.00">CooldownTags</text>
<text text-anchor="start" x="9.5" y="-502" font-family="Helvetica,sans-Serif" font-size="10.00">#</text>
<text text-anchor="start" x="22.5" y="-502" font-family="Helvetica,sans-Serif" font-size="10.00">GameplayEffectClasses</text>
<text text-anchor="start" x="9.5" y="-487" font-family="Helvetica,sans-Serif" font-size="10.00">+</text>
<text text-anchor="start" x="22.5" y="-487" font-family="Helvetica,sans-Serif" font-size="10.00">UOWGameplayAbility()</text>
<text text-anchor="start" x="9.5" y="-472" font-family="Helvetica,sans-Serif" font-size="10.00">+</text>
<text text-anchor="start" x="22.5" y="-472" font-family="Helvetica,sans-Serif" font-size="10.00">SetCooldownData()</text>
<text text-anchor="start" x="9.5" y="-457" font-family="Helvetica,sans-Serif" font-size="10.00">+</text>
<text text-anchor="start" x="22.5" y="-457" font-family="Helvetica,sans-Serif" font-size="10.00">SetCostEffect()</text>
<text text-anchor="start" x="9.5" y="-442" font-family="Helvetica,sans-Serif" font-size="10.00">+</text>
<text text-anchor="start" x="22.5" y="-442" font-family="Helvetica,sans-Serif" font-size="10.00">ApplyCooldown()</text>
<text text-anchor="start" x="9.5" y="-427" font-family="Helvetica,sans-Serif" font-size="10.00">+</text>
<text text-anchor="start" x="22.5" y="-427" font-family="Helvetica,sans-Serif" font-size="10.00">CanActivateAbility()</text>
<text text-anchor="start" x="9.5" y="-412" font-family="Helvetica,sans-Serif" font-size="10.00">+</text>
<text text-anchor="start" x="22.5" y="-412" font-family="Helvetica,sans-Serif" font-size="10.00">ActivateAbility()</text>
<polygon fill="#bfbfbf" stroke="#bfbfbf" points="5.5,-542 5.5,-542 142.5,-542 142.5,-542 5.5,-542"/>
<polygon fill="#bfbfbf" stroke="#bfbfbf" points="5.5,-497 5.5,-497 20.5,-497 20.5,-497 5.5,-497"/>
<polygon fill="#bfbfbf" stroke="#bfbfbf" points="20.5,-497 20.5,-497 142.5,-497 142.5,-497 20.5,-497"/>
<polygon fill="none" stroke="#bfbfbf" points="5,-405 5,-559 142,-559 142,-405 5,-405"/>
</a>
</g>
</g>
<!-- Node4&#45;&gt;Node3 -->
<g id="edge3_Node000003_Node000004" class="edge">
<title>Node4&#45;&gt;Node3</title>
<g id="a_edge3_Node000003_Node000004"><a xlink:title=" ">
<path fill="none" stroke="#63b8ff" d="M73.5,-394.67C73.5,-385.37 73.5,-376.57 73.5,-369.06"/>
<polygon fill="none" stroke="#63b8ff" points="70,-394.93 73.5,-404.93 77,-394.93 70,-394.93"/>
</a>
</g>
</g>
<!-- Node5 -->
<g id="Node000005" class="node">
<title>Node5</title>
<g id="a_Node000005"><a xlink:title=" ">
<polygon fill="white" stroke="transparent" points="123.5,-644 23.5,-644 23.5,-595 123.5,-595 123.5,-644"/>
<text text-anchor="start" x="28.5" y="-631.5" font-family="Helvetica,sans-Serif" font-size="10.00">UGameplayAbility</text>
<text text-anchor="start" x="71.5" y="-616.5" font-family="Helvetica,sans-Serif" font-size="10.00"> </text>
<text text-anchor="start" x="71.5" y="-601.5" font-family="Helvetica,sans-Serif" font-size="10.00"> </text>
<polygon fill="#bfbfbf" stroke="#bfbfbf" points="23.5,-626.5 23.5,-626.5 123.5,-626.5 123.5,-626.5 23.5,-626.5"/>
<polygon fill="#bfbfbf" stroke="#bfbfbf" points="23.5,-611.5 23.5,-611.5 123.5,-611.5 123.5,-611.5 23.5,-611.5"/>
<polygon fill="none" stroke="#bfbfbf" points="23.5,-595 23.5,-644 123.5,-644 123.5,-595 23.5,-595"/>
</a>
</g>
</g>
<!-- Node5&#45;&gt;Node4 -->
<g id="edge4_Node000004_Node000005" class="edge">
<title>Node5&#45;&gt;Node4</title>
<g id="a_edge4_Node000004_Node000005"><a xlink:title=" ">
<path fill="none" stroke="#63b8ff" d="M73.5,-584.66C73.5,-576.74 73.5,-567.97 73.5,-559.01"/>
<polygon fill="none" stroke="#63b8ff" points="70,-584.9 73.5,-594.9 77,-584.9 70,-584.9"/>
</a>
</g>
</g>
</g>
</svg>
