<?xml version="1.0" encoding="UTF-8" standalone="no"?>
<!DOCTYPE svg PUBLIC "-//W3C//DTD SVG 1.1//EN"
 "http://www.w3.org/Graphics/SVG/1.1/DTD/svg11.dtd">
<!-- Generated by graphviz version 2.43.0 (0)
 -->
<!-- Title: UOWGameplayAbility Pages: 1 -->
<svg width="529pt" height="537pt"
 viewBox="0.00 0.00 528.50 537.00" xmlns="http://www.w3.org/2000/svg" xmlns:xlink="http://www.w3.org/1999/xlink">
<g id="graph0" class="graph" transform="scale(1 1) rotate(0) translate(4 533)">
<title>UOWGameplayAbility</title>
<!-- Node1 -->
<g id="Node000001" class="node">
<title>Node1</title>
<g id="a_Node000001"><a xlink:title=" ">
<polygon fill="#999999" stroke="transparent" points="408.5,-444 272.5,-444 272.5,-305 408.5,-305 408.5,-444"/>
<text text-anchor="start" x="287" y="-431.5" font-family="Helvetica,sans-Serif" font-size="10.00">UOWGameplayAbility</text>
<text text-anchor="start" x="276.5" y="-416.5" font-family="Helvetica,sans-Serif" font-size="10.00">#</text>
<text text-anchor="start" x="289.5" y="-416.5" font-family="Helvetica,sans-Serif" font-size="10.00">CooldownDuration</text>
<text text-anchor="start" x="276.5" y="-401.5" font-family="Helvetica,sans-Serif" font-size="10.00">#</text>
<text text-anchor="start" x="289.5" y="-401.5" font-family="Helvetica,sans-Serif" font-size="10.00">CooldownTags</text>
<text text-anchor="start" x="276.5" y="-386.5" font-family="Helvetica,sans-Serif" font-size="10.00">+</text>
<text text-anchor="start" x="289.5" y="-386.5" font-family="Helvetica,sans-Serif" font-size="10.00">UOWGameplayAbility()</text>
<text text-anchor="start" x="276.5" y="-371.5" font-family="Helvetica,sans-Serif" font-size="10.00">+</text>
<text text-anchor="start" x="289.5" y="-371.5" font-family="Helvetica,sans-Serif" font-size="10.00">SetCooldownData()</text>
<text text-anchor="start" x="276.5" y="-356.5" font-family="Helvetica,sans-Serif" font-size="10.00">+</text>
<text text-anchor="start" x="289.5" y="-356.5" font-family="Helvetica,sans-Serif" font-size="10.00">SetCostEffect()</text>
<text text-anchor="start" x="276.5" y="-341.5" font-family="Helvetica,sans-Serif" font-size="10.00">+</text>
<text text-anchor="start" x="289.5" y="-341.5" font-family="Helvetica,sans-Serif" font-size="10.00">ApplyCooldown()</text>
<text text-anchor="start" x="276.5" y="-326.5" font-family="Helvetica,sans-Serif" font-size="10.00">+</text>
<text text-anchor="start" x="289.5" y="-326.5" font-family="Helvetica,sans-Serif" font-size="10.00">CanActivateAbility()</text>
<text text-anchor="start" x="276.5" y="-311.5" font-family="Helvetica,sans-Serif" font-size="10.00">+</text>
<text text-anchor="start" x="289.5" y="-311.5" font-family="Helvetica,sans-Serif" font-size="10.00">ActivateAbility()</text>
<polygon fill="#666666" stroke="#666666" points="272.5,-426.5 272.5,-426.5 408.5,-426.5 408.5,-426.5 272.5,-426.5"/>
<polygon fill="#666666" stroke="#666666" points="272.5,-396.5 272.5,-396.5 287.5,-396.5 287.5,-396.5 272.5,-396.5"/>
<polygon fill="#666666" stroke="#666666" points="287.5,-396.5 287.5,-396.5 408.5,-396.5 408.5,-396.5 287.5,-396.5"/>
<polygon fill="none" stroke="#666666" points="272.5,-305 272.5,-444 408.5,-444 408.5,-305 272.5,-305"/>
</a>
</g>
</g>
<!-- Node3 -->
<g id="Node000003" class="node">
<title>Node3</title>
<g id="a_Node000003"><a xlink:href="classUOWGA__Active.html" target="_top" xlink:title=" ">
<polygon fill="white" stroke="transparent" points="268.5,-269 164.5,-269 164.5,-220 268.5,-220 268.5,-269"/>
<text text-anchor="start" x="178.5" y="-256.5" font-family="Helvetica,sans-Serif" font-size="10.00">UOWGA_Active</text>
<text text-anchor="start" x="214.5" y="-241.5" font-family="Helvetica,sans-Serif" font-size="10.00"> </text>
<text text-anchor="start" x="168.5" y="-226.5" font-family="Helvetica,sans-Serif" font-size="10.00">+</text>
<text text-anchor="start" x="181.5" y="-226.5" font-family="Helvetica,sans-Serif" font-size="10.00">UOWGA_Active()</text>
<polygon fill="#bfbfbf" stroke="#bfbfbf" points="164.5,-251.5 164.5,-251.5 268.5,-251.5 268.5,-251.5 164.5,-251.5"/>
<polygon fill="#bfbfbf" stroke="#bfbfbf" points="164.5,-236.5 164.5,-236.5 268.5,-236.5 268.5,-236.5 164.5,-236.5"/>
<polygon fill="none" stroke="#bfbfbf" points="164.5,-220 164.5,-269 268.5,-269 268.5,-220 164.5,-220"/>
</a>
</g>
</g>
<!-- Node1&#45;&gt;Node3 -->
<g id="edge2_Node000001_Node000003" class="edge">
<title>Node1&#45;&gt;Node3</title>
<g id="a_edge2_Node000001_Node000003"><a xlink:title=" ">
<path fill="none" stroke="#63b8ff" d="M266.57,-297.19C256.75,-287.05 247.34,-277.33 239.38,-269.12"/>
<polygon fill="none" stroke="#63b8ff" points="264.31,-299.88 273.78,-304.63 269.34,-295.01 264.31,-299.88"/>
</a>
</g>
</g>
<!-- Node6 -->
<g id="Node000006" class="node">
<title>Node6</title>
<g id="a_Node000006"><a xlink:href="classUOWGA__Passive.html" target="_top" xlink:title=" ">
<polygon fill="white" stroke="transparent" points="386.5,-269 294.5,-269 294.5,-220 386.5,-220 386.5,-269"/>
<text text-anchor="start" x="299.5" y="-256.5" font-family="Helvetica,sans-Serif" font-size="10.00">UOWGA_Passive</text>
<text text-anchor="start" x="338.5" y="-241.5" font-family="Helvetica,sans-Serif" font-size="10.00"> </text>
<text text-anchor="start" x="338.5" y="-226.5" font-family="Helvetica,sans-Serif" font-size="10.00"> </text>
<polygon fill="#bfbfbf" stroke="#bfbfbf" points="294.5,-251.5 294.5,-251.5 386.5,-251.5 386.5,-251.5 294.5,-251.5"/>
<polygon fill="#bfbfbf" stroke="#bfbfbf" points="294.5,-236.5 294.5,-236.5 386.5,-236.5 386.5,-236.5 294.5,-236.5"/>
<polygon fill="none" stroke="#bfbfbf" points="294.5,-220 294.5,-269 386.5,-269 386.5,-220 294.5,-220"/>
</a>
</g>
</g>
<!-- Node1&#45;&gt;Node6 -->
<g id="edge5_Node000001_Node000006" class="edge">
<title>Node1&#45;&gt;Node6</title>
<g id="a_edge5_Node000001_Node000006"><a xlink:title=" ">
<path fill="none" stroke="#63b8ff" d="M340.5,-294.54C340.5,-285.36 340.5,-276.62 340.5,-269.12"/>
<polygon fill="none" stroke="#63b8ff" points="337,-294.63 340.5,-304.63 344,-294.63 337,-294.63"/>
</a>
</g>
</g>
<!-- Node8 -->
<g id="Node000008" class="node">
<title>Node8</title>
<g id="a_Node000008"><a xlink:href="classUOWGA__Ultimate.html" target="_top" xlink:title=" ">
<polygon fill="white" stroke="transparent" points="520.5,-269 404.5,-269 404.5,-220 520.5,-220 520.5,-269"/>
<text text-anchor="start" x="418.5" y="-256.5" font-family="Helvetica,sans-Serif" font-size="10.00">UOWGA_Ultimate</text>
<text text-anchor="start" x="460.5" y="-241.5" font-family="Helvetica,sans-Serif" font-size="10.00"> </text>
<text text-anchor="start" x="408.5" y="-226.5" font-family="Helvetica,sans-Serif" font-size="10.00">+</text>
<text text-anchor="start" x="421.5" y="-226.5" font-family="Helvetica,sans-Serif" font-size="10.00">UOWGA_Ultimate()</text>
<polygon fill="#666666" stroke="#666666" points="404.5,-251.5 404.5,-251.5 520.5,-251.5 520.5,-251.5 404.5,-251.5"/>
<polygon fill="#666666" stroke="#666666" points="404.5,-236.5 404.5,-236.5 520.5,-236.5 520.5,-236.5 404.5,-236.5"/>
<polygon fill="none" stroke="#666666" points="404.5,-220 404.5,-269 520.5,-269 520.5,-220 404.5,-220"/>
</a>
</g>
</g>
<!-- Node1&#45;&gt;Node8 -->
<g id="edge7_Node000001_Node000008" class="edge">
<title>Node1&#45;&gt;Node8</title>
<g id="a_edge7_Node000001_Node000008"><a xlink:title=" ">
<path fill="none" stroke="#63b8ff" d="M413.24,-297.19C422.9,-287.05 432.16,-277.33 439.99,-269.12"/>
<polygon fill="none" stroke="#63b8ff" points="410.51,-294.98 406.14,-304.63 415.58,-299.81 410.51,-294.98"/>
</a>
</g>
</g>
<!-- Node2 -->
<g id="Node000002" class="node">
<title>Node2</title>
<g id="a_Node000002"><a xlink:title=" ">
<polygon fill="white" stroke="transparent" points="390.5,-529 290.5,-529 290.5,-480 390.5,-480 390.5,-529"/>
<text text-anchor="start" x="295.5" y="-516.5" font-family="Helvetica,sans-Serif" font-size="10.00">UGameplayAbility</text>
<text text-anchor="start" x="338.5" y="-501.5" font-family="Helvetica,sans-Serif" font-size="10.00"> </text>
<text text-anchor="start" x="338.5" y="-486.5" font-family="Helvetica,sans-Serif" font-size="10.00"> </text>
<polygon fill="#bfbfbf" stroke="#bfbfbf" points="290.5,-511.5 290.5,-511.5 390.5,-511.5 390.5,-511.5 290.5,-511.5"/>
<polygon fill="#bfbfbf" stroke="#bfbfbf" points="290.5,-496.5 290.5,-496.5 390.5,-496.5 390.5,-496.5 290.5,-496.5"/>
<polygon fill="none" stroke="#bfbfbf" points="290.5,-480 290.5,-529 390.5,-529 390.5,-480 290.5,-480"/>
</a>
</g>
</g>
<!-- Node2&#45;&gt;Node1 -->
<g id="edge1_Node000001_Node000002" class="edge">
<title>Node2&#45;&gt;Node1</title>
<g id="a_edge1_Node000001_Node000002"><a xlink:title=" ">
<path fill="none" stroke="#63b8ff" d="M340.5,-469.48C340.5,-461.57 340.5,-452.86 340.5,-444.04"/>
<polygon fill="none" stroke="#63b8ff" points="337,-469.72 340.5,-479.72 344,-469.72 337,-469.72"/>
</a>
</g>
</g>
<!-- Node4 -->
<g id="Node000004" class="node">
<title>Node4</title>
<g id="a_Node000004"><a xlink:href="classUOWGA__Active__GunFire.html" target="_top" xlink:title=" ">
<polygon fill="white" stroke="transparent" points="147,-184 0,-184 0,0 147,0 147,-184"/>
<text text-anchor="start" x="15" y="-172" font-family="Helvetica,sans-Serif" font-size="10.00">UOWGA_Active_GunFire</text>
<text text-anchor="start" x="4.5" y="-157" font-family="Helvetica,sans-Serif" font-size="10.00">+</text>
<text text-anchor="start" x="17.5" y="-157" font-family="Helvetica,sans-Serif" font-size="10.00">FireProjectilepMontage</text>
<text text-anchor="start" x="4.5" y="-142" font-family="Helvetica,sans-Serif" font-size="10.00">+</text>
<text text-anchor="start" x="17.5" y="-142" font-family="Helvetica,sans-Serif" font-size="10.00">DamageGameplayEffect</text>
<text text-anchor="start" x="4.5" y="-127" font-family="Helvetica,sans-Serif" font-size="10.00">+</text>
<text text-anchor="start" x="17.5" y="-127" font-family="Helvetica,sans-Serif" font-size="10.00">ProjectileClass</text>
<text text-anchor="start" x="4.5" y="-112" font-family="Helvetica,sans-Serif" font-size="10.00">#</text>
<text text-anchor="start" x="17.5" y="-112" font-family="Helvetica,sans-Serif" font-size="10.00">Range</text>
<text text-anchor="start" x="4.5" y="-97" font-family="Helvetica,sans-Serif" font-size="10.00">#</text>
<text text-anchor="start" x="17.5" y="-97" font-family="Helvetica,sans-Serif" font-size="10.00">Damage</text>
<text text-anchor="start" x="4.5" y="-82" font-family="Helvetica,sans-Serif" font-size="10.00">+</text>
<text text-anchor="start" x="17.5" y="-82" font-family="Helvetica,sans-Serif" font-size="10.00">UOWGA_Active_GunFire()</text>
<text text-anchor="start" x="4.5" y="-67" font-family="Helvetica,sans-Serif" font-size="10.00">+</text>
<text text-anchor="start" x="17.5" y="-67" font-family="Helvetica,sans-Serif" font-size="10.00">ActivateAbility()</text>
<text text-anchor="start" x="4.5" y="-52" font-family="Helvetica,sans-Serif" font-size="10.00">#</text>
<text text-anchor="start" x="17.5" y="-52" font-family="Helvetica,sans-Serif" font-size="10.00">OnCancelled()</text>
<text text-anchor="start" x="4.5" y="-37" font-family="Helvetica,sans-Serif" font-size="10.00">#</text>
<text text-anchor="start" x="17.5" y="-37" font-family="Helvetica,sans-Serif" font-size="10.00">OnCompleted()</text>
<text text-anchor="start" x="4.5" y="-22" font-family="Helvetica,sans-Serif" font-size="10.00">#</text>
<text text-anchor="start" x="17.5" y="-22" font-family="Helvetica,sans-Serif" font-size="10.00">EventReceived()</text>
<text text-anchor="start" x="4.5" y="-7" font-family="Helvetica,sans-Serif" font-size="10.00">#</text>
<text text-anchor="start" x="17.5" y="-7" font-family="Helvetica,sans-Serif" font-size="10.00">SpawnProjectile()</text>
<polygon fill="#bfbfbf" stroke="#bfbfbf" points="0.5,-167 0.5,-167 147.5,-167 147.5,-167 0.5,-167"/>
<polygon fill="#bfbfbf" stroke="#bfbfbf" points="0.5,-92 0.5,-92 15.5,-92 15.5,-92 0.5,-92"/>
<polygon fill="#bfbfbf" stroke="#bfbfbf" points="15.5,-92 15.5,-92 147.5,-92 147.5,-92 15.5,-92"/>
<polygon fill="none" stroke="#bfbfbf" points="0,0 0,-184 147,-184 147,0 0,0"/>
</a>
</g>
</g>
<!-- Node3&#45;&gt;Node4 -->
<g id="edge3_Node000003_Node000004" class="edge">
<title>Node3&#45;&gt;Node4</title>
<g id="a_edge3_Node000003_Node000004"><a xlink:title=" ">
<path fill="none" stroke="#63b8ff" d="M184.19,-212.74C174.81,-203.61 164.64,-193.51 155.5,-184 152.7,-181.09 149.86,-178.11 147.01,-175.08"/>
<polygon fill="none" stroke="#63b8ff" points="181.89,-215.38 191.51,-219.83 186.76,-210.36 181.89,-215.38"/>
</a>
</g>
</g>
<!-- Node5 -->
<g id="Node000005" class="node">
<title>Node5</title>
<g id="a_Node000005"><a xlink:href="classUOWGA__FastZoom.html" target="_top" xlink:title=" ">
<polygon fill="white" stroke="transparent" points="268,-124 165,-124 165,-60 268,-60 268,-124"/>
<text text-anchor="start" x="170.5" y="-112" font-family="Helvetica,sans-Serif" font-size="10.00">UOWGA_FastZoom</text>
<text text-anchor="start" x="170" y="-97" font-family="Helvetica,sans-Serif" font-size="10.00">#</text>
<text text-anchor="start" x="183.5" y="-97" font-family="Helvetica,sans-Serif" font-size="10.00">ZoomFOV</text>
<text text-anchor="start" x="170" y="-82" font-family="Helvetica,sans-Serif" font-size="10.00">+</text>
<text text-anchor="start" x="183.5" y="-82" font-family="Helvetica,sans-Serif" font-size="10.00">ActivateAbility()</text>
<text text-anchor="start" x="170" y="-67" font-family="Helvetica,sans-Serif" font-size="10.00">+</text>
<text text-anchor="start" x="183.5" y="-67" font-family="Helvetica,sans-Serif" font-size="10.00">EndAbility()</text>
<polygon fill="#bfbfbf" stroke="#bfbfbf" points="165.5,-107 165.5,-107 268.5,-107 268.5,-107 165.5,-107"/>
<polygon fill="#bfbfbf" stroke="#bfbfbf" points="165.5,-92 165.5,-92 181.5,-92 181.5,-92 165.5,-92"/>
<polygon fill="#bfbfbf" stroke="#bfbfbf" points="181.5,-92 181.5,-92 268.5,-92 268.5,-92 181.5,-92"/>
<polygon fill="none" stroke="#bfbfbf" points="165,-60 165,-124 268,-124 268,-60 165,-60"/>
</a>
</g>
</g>
<!-- Node3&#45;&gt;Node5 -->
<g id="edge4_Node000003_Node000005" class="edge">
<title>Node3&#45;&gt;Node5</title>
<g id="a_edge4_Node000003_Node000005"><a xlink:title=" ">
<path fill="none" stroke="#63b8ff" d="M216.5,-209.97C216.5,-184.33 216.5,-149.23 216.5,-124.18"/>
<polygon fill="none" stroke="#63b8ff" points="213,-209.98 216.5,-219.98 220,-209.98 213,-209.98"/>
</a>
</g>
</g>
<!-- Node7 -->
<g id="Node000007" class="node">
<title>Node7</title>
<g id="a_Node000007"><a xlink:href="classUOWGA__Reload.html" target="_top" xlink:title=" ">
<polygon fill="white" stroke="transparent" points="410.5,-146.5 286.5,-146.5 286.5,-37.5 410.5,-37.5 410.5,-146.5"/>
<text text-anchor="start" x="309" y="-134" font-family="Helvetica,sans-Serif" font-size="10.00">UOWGA_Reload</text>
<text text-anchor="start" x="346.5" y="-119" font-family="Helvetica,sans-Serif" font-size="10.00"> </text>
<text text-anchor="start" x="290.5" y="-104" font-family="Helvetica,sans-Serif" font-size="10.00">+</text>
<text text-anchor="start" x="303.5" y="-104" font-family="Helvetica,sans-Serif" font-size="10.00">SetCurrentMontage()</text>
<text text-anchor="start" x="290.5" y="-89" font-family="Helvetica,sans-Serif" font-size="10.00">+</text>
<text text-anchor="start" x="303.5" y="-89" font-family="Helvetica,sans-Serif" font-size="10.00">CanActivateAbility()</text>
<text text-anchor="start" x="290.5" y="-74" font-family="Helvetica,sans-Serif" font-size="10.00">+</text>
<text text-anchor="start" x="303.5" y="-74" font-family="Helvetica,sans-Serif" font-size="10.00">ActivateAbility()</text>
<text text-anchor="start" x="290.5" y="-59" font-family="Helvetica,sans-Serif" font-size="10.00">+</text>
<text text-anchor="start" x="303.5" y="-59" font-family="Helvetica,sans-Serif" font-size="10.00">EndAbility()</text>
<text text-anchor="start" x="290.5" y="-44" font-family="Helvetica,sans-Serif" font-size="10.00">+</text>
<text text-anchor="start" x="303.5" y="-44" font-family="Helvetica,sans-Serif" font-size="10.00">Reload()</text>
<polygon fill="#bfbfbf" stroke="#bfbfbf" points="286.5,-129 286.5,-129 410.5,-129 410.5,-129 286.5,-129"/>
<polygon fill="#bfbfbf" stroke="#bfbfbf" points="286.5,-114 286.5,-114 410.5,-114 410.5,-114 286.5,-114"/>
<polygon fill="none" stroke="#bfbfbf" points="286.5,-37.5 286.5,-146.5 410.5,-146.5 410.5,-37.5 286.5,-37.5"/>
</a>
</g>
</g>
<!-- Node6&#45;&gt;Node7 -->
<g id="edge6_Node000006_Node000007" class="edge">
<title>Node6&#45;&gt;Node7</title>
<g id="a_edge6_Node000006_Node000007"><a xlink:title=" ">
<path fill="none" stroke="#63b8ff" d="M342.28,-209.92C343.27,-191.3 344.53,-167.7 345.65,-146.59"/>
<polygon fill="none" stroke="#63b8ff" points="338.79,-209.81 341.75,-219.98 345.78,-210.18 338.79,-209.81"/>
</a>
</g>
</g>
</g>
</svg>
