<?xml version="1.0" encoding="UTF-8" standalone="no"?>
<!DOCTYPE svg PUBLIC "-//W3C//DTD SVG 1.1//EN"
 "http://www.w3.org/Graphics/SVG/1.1/DTD/svg11.dtd">
<!-- Generated by graphviz version 2.43.0 (0)
 -->
<!-- Title: AOWCollisionHit Pages: 1 -->
<svg width="162pt" height="437pt"
 viewBox="0.00 0.00 162.00 437.00" xmlns="http://www.w3.org/2000/svg" xmlns:xlink="http://www.w3.org/1999/xlink">
<g id="graph0" class="graph" transform="scale(1 1) rotate(0) translate(4 433)">
<title>AOWCollisionHit</title>
<!-- Node1 -->
<g id="Node000001" class="node">
<title>Node1</title>
<g id="a_Node000001"><a xlink:title=" ">
<polygon fill="#999999" stroke="transparent" points="154,-344 0,-344 0,-175 154,-175 154,-344"/>
<text text-anchor="start" x="36.5" y="-331.5" font-family="Helvetica,sans-Serif" font-size="10.00">AOWCollisionHit</text>
<text text-anchor="start" x="4" y="-316.5" font-family="Helvetica,sans-Serif" font-size="10.00">+</text>
<text text-anchor="start" x="17" y="-316.5" font-family="Helvetica,sans-Serif" font-size="10.00">HitEffectSpec</text>
<text text-anchor="start" x="4" y="-301.5" font-family="Helvetica,sans-Serif" font-size="10.00">+</text>
<text text-anchor="start" x="17" y="-301.5" font-family="Helvetica,sans-Serif" font-size="10.00">OverlapEffectSpec</text>
<text text-anchor="start" x="4" y="-286.5" font-family="Helvetica,sans-Serif" font-size="10.00">#</text>
<text text-anchor="start" x="17" y="-286.5" font-family="Helvetica,sans-Serif" font-size="10.00">CollisionComp</text>
<text text-anchor="start" x="4" y="-271.5" font-family="Helvetica,sans-Serif" font-size="10.00">#</text>
<text text-anchor="start" x="17" y="-271.5" font-family="Helvetica,sans-Serif" font-size="10.00">HitHandler</text>
<text text-anchor="start" x="4" y="-256.5" font-family="Helvetica,sans-Serif" font-size="10.00">#</text>
<text text-anchor="start" x="17" y="-256.5" font-family="Helvetica,sans-Serif" font-size="10.00">OverlapHandler</text>
<text text-anchor="start" x="4" y="-241.5" font-family="Helvetica,sans-Serif" font-size="10.00">+</text>
<text text-anchor="start" x="17" y="-241.5" font-family="Helvetica,sans-Serif" font-size="10.00">AOWCollisionHit()</text>
<text text-anchor="start" x="4" y="-226.5" font-family="Helvetica,sans-Serif" font-size="10.00">#</text>
<text text-anchor="start" x="17" y="-226.5" font-family="Helvetica,sans-Serif" font-size="10.00">BeginPlay()</text>
<text text-anchor="start" x="4" y="-211.5" font-family="Helvetica,sans-Serif" font-size="10.00">#</text>
<text text-anchor="start" x="17" y="-211.5" font-family="Helvetica,sans-Serif" font-size="10.00">PostInitializeComponents()</text>
<text text-anchor="start" x="4" y="-196.5" font-family="Helvetica,sans-Serif" font-size="10.00">#</text>
<text text-anchor="start" x="17" y="-196.5" font-family="Helvetica,sans-Serif" font-size="10.00">OnOverlapBegin()</text>
<text text-anchor="start" x="4" y="-181.5" font-family="Helvetica,sans-Serif" font-size="10.00">#</text>
<text text-anchor="start" x="17" y="-181.5" font-family="Helvetica,sans-Serif" font-size="10.00">OnHit()</text>
<polygon fill="#666666" stroke="#666666" points="0,-326.5 0,-326.5 154,-326.5 154,-326.5 0,-326.5"/>
<polygon fill="#666666" stroke="#666666" points="0,-251.5 0,-251.5 15,-251.5 15,-251.5 0,-251.5"/>
<polygon fill="#666666" stroke="#666666" points="15,-251.5 15,-251.5 154,-251.5 154,-251.5 15,-251.5"/>
<polygon fill="none" stroke="#666666" points="0,-175 0,-344 154,-344 154,-175 0,-175"/>
</a>
</g>
</g>
<!-- Node3 -->
<g id="Node000003" class="node">
<title>Node3</title>
<g id="a_Node000003"><a xlink:href="classAOWProjectile.html" target="_top" xlink:title=" ">
<polygon fill="white" stroke="transparent" points="149.5,-139 4.5,-139 4.5,0 149.5,0 149.5,-139"/>
<text text-anchor="start" x="42.5" y="-126.5" font-family="Helvetica,sans-Serif" font-size="10.00">AOWProjectile</text>
<text text-anchor="start" x="9" y="-111.5" font-family="Helvetica,sans-Serif" font-size="10.00">+</text>
<text text-anchor="start" x="22" y="-111.5" font-family="Helvetica,sans-Serif" font-size="10.00">DamageSpecHandle</text>
<text text-anchor="start" x="9" y="-96.5" font-family="Helvetica,sans-Serif" font-size="10.00">#</text>
<text text-anchor="start" x="22" y="-96.5" font-family="Helvetica,sans-Serif" font-size="10.00">ProjectileMovement</text>
<text text-anchor="start" x="9" y="-81.5" font-family="Helvetica,sans-Serif" font-size="10.00">+</text>
<text text-anchor="start" x="22" y="-81.5" font-family="Helvetica,sans-Serif" font-size="10.00">AOWProjectile()</text>
<text text-anchor="start" x="9" y="-66.5" font-family="Helvetica,sans-Serif" font-size="10.00">+</text>
<text text-anchor="start" x="22" y="-66.5" font-family="Helvetica,sans-Serif" font-size="10.00">SetDamageSpecHandle()</text>
<text text-anchor="start" x="9" y="-51.5" font-family="Helvetica,sans-Serif" font-size="10.00">+</text>
<text text-anchor="start" x="22" y="-51.5" font-family="Helvetica,sans-Serif" font-size="10.00">GetProjectileMovement()</text>
<text text-anchor="start" x="9" y="-36.5" font-family="Helvetica,sans-Serif" font-size="10.00">+</text>
<text text-anchor="start" x="22" y="-36.5" font-family="Helvetica,sans-Serif" font-size="10.00">SetProjectileVelocity()</text>
<text text-anchor="start" x="9" y="-21.5" font-family="Helvetica,sans-Serif" font-size="10.00">#</text>
<text text-anchor="start" x="22" y="-21.5" font-family="Helvetica,sans-Serif" font-size="10.00">BeginPlay()</text>
<text text-anchor="start" x="9" y="-6.5" font-family="Helvetica,sans-Serif" font-size="10.00">#</text>
<text text-anchor="start" x="22" y="-6.5" font-family="Helvetica,sans-Serif" font-size="10.00">OnOverlapBegin()</text>
<polygon fill="#bfbfbf" stroke="#bfbfbf" points="5,-121.5 5,-121.5 150,-121.5 150,-121.5 5,-121.5"/>
<polygon fill="#bfbfbf" stroke="#bfbfbf" points="5,-91.5 5,-91.5 20,-91.5 20,-91.5 5,-91.5"/>
<polygon fill="#bfbfbf" stroke="#bfbfbf" points="20,-91.5 20,-91.5 150,-91.5 150,-91.5 20,-91.5"/>
<polygon fill="none" stroke="#bfbfbf" points="4.5,0 4.5,-139 149.5,-139 149.5,0 4.5,0"/>
</a>
</g>
</g>
<!-- Node1&#45;&gt;Node3 -->
<g id="edge2_Node000001_Node000003" class="edge">
<title>Node1&#45;&gt;Node3</title>
<g id="a_edge2_Node000001_Node000003"><a xlink:title=" ">
<path fill="none" stroke="#63b8ff" d="M77,-164.81C77,-156.17 77,-147.52 77,-139.16"/>
<polygon fill="none" stroke="#63b8ff" points="73.5,-164.95 77,-174.95 80.5,-164.95 73.5,-164.95"/>
</a>
</g>
</g>
<!-- Node2 -->
<g id="Node000002" class="node">
<title>Node2</title>
<g id="a_Node000002"><a xlink:title=" ">
<polygon fill="white" stroke="transparent" points="98.5,-429 55.5,-429 55.5,-380 98.5,-380 98.5,-429"/>
<text text-anchor="start" x="61" y="-416.5" font-family="Helvetica,sans-Serif" font-size="10.00">AActor</text>
<text text-anchor="start" x="75.5" y="-401.5" font-family="Helvetica,sans-Serif" font-size="10.00"> </text>
<text text-anchor="start" x="75.5" y="-386.5" font-family="Helvetica,sans-Serif" font-size="10.00"> </text>
<polygon fill="#bfbfbf" stroke="#bfbfbf" points="56,-411.5 56,-411.5 99,-411.5 99,-411.5 56,-411.5"/>
<polygon fill="#bfbfbf" stroke="#bfbfbf" points="56,-396.5 56,-396.5 99,-396.5 99,-396.5 56,-396.5"/>
<polygon fill="none" stroke="#bfbfbf" points="55.5,-380 55.5,-429 98.5,-429 98.5,-380 55.5,-380"/>
</a>
</g>
</g>
<!-- Node2&#45;&gt;Node1 -->
<g id="edge1_Node000001_Node000002" class="edge">
<title>Node2&#45;&gt;Node1</title>
<g id="a_edge1_Node000001_Node000002"><a xlink:title=" ">
<path fill="none" stroke="#63b8ff" d="M77,-369.72C77,-361.84 77,-353.1 77,-344.1"/>
<polygon fill="none" stroke="#63b8ff" points="73.5,-369.89 77,-379.89 80.5,-369.89 73.5,-369.89"/>
</a>
</g>
</g>
</g>
</svg>
