<?xml version="1.0" encoding="UTF-8" standalone="no"?>
<!DOCTYPE svg PUBLIC "-//W3C//DTD SVG 1.1//EN"
 "http://www.w3.org/Graphics/SVG/1.1/DTD/svg11.dtd">
<!-- Generated by graphviz version 2.43.0 (0)
 -->
<!-- Title: UOWGameplayEffect Pages: 1 -->
<svg width="603pt" height="242pt"
 viewBox="0.00 0.00 602.50 242.00" xmlns="http://www.w3.org/2000/svg" xmlns:xlink="http://www.w3.org/1999/xlink">
<g id="graph0" class="graph" transform="scale(1 1) rotate(0) translate(4 238)">
<title>UOWGameplayEffect</title>
<!-- Node1 -->
<g id="Node000001" class="node">
<title>Node1</title>
<g id="a_Node000001"><a xlink:title=" ">
<polygon fill="#999999" stroke="transparent" points="374.5,-149 261.5,-149 261.5,-100 374.5,-100 374.5,-149"/>
<text text-anchor="start" x="267" y="-136.5" font-family="Helvetica,sans-Serif" font-size="10.00">UOWGameplayEffect</text>
<text text-anchor="start" x="316.5" y="-121.5" font-family="Helvetica,sans-Serif" font-size="10.00"> </text>
<text text-anchor="start" x="316.5" y="-106.5" font-family="Helvetica,sans-Serif" font-size="10.00"> </text>
<polygon fill="#666666" stroke="#666666" points="262,-131.5 262,-131.5 375,-131.5 375,-131.5 262,-131.5"/>
<polygon fill="#666666" stroke="#666666" points="262,-116.5 262,-116.5 375,-116.5 375,-116.5 262,-116.5"/>
<polygon fill="none" stroke="#666666" points="261.5,-100 261.5,-149 374.5,-149 374.5,-100 261.5,-100"/>
</a>
</g>
</g>
<!-- Node3 -->
<g id="Node000003" class="node">
<title>Node3</title>
<g id="a_Node000003"><a xlink:href="classUOWCooldownGameplayEffect.html" target="_top" xlink:title=" ">
<polygon fill="white" stroke="transparent" points="180,-56.5 0,-56.5 0,-7.5 180,-7.5 180,-56.5"/>
<text text-anchor="start" x="14.5" y="-44" font-family="Helvetica,sans-Serif" font-size="10.00">UOWCooldownGameplayEffect</text>
<text text-anchor="start" x="88" y="-29" font-family="Helvetica,sans-Serif" font-size="10.00"> </text>
<text text-anchor="start" x="4" y="-14" font-family="Helvetica,sans-Serif" font-size="10.00">+</text>
<text text-anchor="start" x="17" y="-14" font-family="Helvetica,sans-Serif" font-size="10.00">UOWCooldownGameplayEffect()</text>
<polygon fill="#bfbfbf" stroke="#bfbfbf" points="0,-39 0,-39 180,-39 180,-39 0,-39"/>
<polygon fill="#bfbfbf" stroke="#bfbfbf" points="0,-24 0,-24 180,-24 180,-24 0,-24"/>
<polygon fill="none" stroke="#bfbfbf" points="0,-7.5 0,-56.5 180,-56.5 180,-7.5 0,-7.5"/>
</a>
</g>
</g>
<!-- Node1&#45;&gt;Node3 -->
<g id="edge2_Node000001_Node000003" class="edge">
<title>Node1&#45;&gt;Node3</title>
<g id="a_edge2_Node000001_Node000003"><a xlink:title=" ">
<path fill="none" stroke="#63b8ff" d="M251.97,-97.29C219.62,-84.45 180.98,-69.11 149.55,-56.64"/>
<polygon fill="none" stroke="#63b8ff" points="250.76,-100.58 261.35,-101.01 253.34,-94.07 250.76,-100.58"/>
</a>
</g>
</g>
<!-- Node4 -->
<g id="Node000004" class="node">
<title>Node4</title>
<g id="a_Node000004"><a xlink:href="classUOWGE__Cost.html" target="_top" xlink:title=" ">
<polygon fill="white" stroke="transparent" points="292,-56.5 198,-56.5 198,-7.5 292,-7.5 292,-56.5"/>
<text text-anchor="start" x="212" y="-44" font-family="Helvetica,sans-Serif" font-size="10.00">UOWGE_Cost</text>
<text text-anchor="start" x="243" y="-29" font-family="Helvetica,sans-Serif" font-size="10.00"> </text>
<text text-anchor="start" x="202" y="-14" font-family="Helvetica,sans-Serif" font-size="10.00">+</text>
<text text-anchor="start" x="215" y="-14" font-family="Helvetica,sans-Serif" font-size="10.00">UOWGE_Cost()</text>
<polygon fill="#666666" stroke="#666666" points="198,-39 198,-39 292,-39 292,-39 198,-39"/>
<polygon fill="#666666" stroke="#666666" points="198,-24 198,-24 292,-24 292,-24 198,-24"/>
<polygon fill="none" stroke="#666666" points="198,-7.5 198,-56.5 292,-56.5 292,-7.5 198,-7.5"/>
</a>
</g>
</g>
<!-- Node1&#45;&gt;Node4 -->
<g id="edge3_Node000001_Node000004" class="edge">
<title>Node1&#45;&gt;Node4</title>
<g id="a_edge3_Node000001_Node000004"><a xlink:title=" ">
<path fill="none" stroke="#63b8ff" d="M292.27,-91.61C282.98,-80.09 272.67,-67.3 264.05,-56.62"/>
<polygon fill="none" stroke="#63b8ff" points="289.82,-94.14 298.82,-99.72 295.27,-89.74 289.82,-94.14"/>
</a>
</g>
</g>
<!-- Node5 -->
<g id="Node000005" class="node">
<title>Node5</title>
<g id="a_Node000005"><a xlink:href="classUOWGE__InitUltimateGauge.html" target="_top" xlink:title=" ">
<polygon fill="white" stroke="transparent" points="473.5,-56.5 310.5,-56.5 310.5,-7.5 473.5,-7.5 473.5,-56.5"/>
<text text-anchor="start" x="325.5" y="-44" font-family="Helvetica,sans-Serif" font-size="10.00">UOWGE_InitUltimateGauge</text>
<text text-anchor="start" x="390.5" y="-29" font-family="Helvetica,sans-Serif" font-size="10.00"> </text>
<text text-anchor="start" x="315" y="-14" font-family="Helvetica,sans-Serif" font-size="10.00">+</text>
<text text-anchor="start" x="328" y="-14" font-family="Helvetica,sans-Serif" font-size="10.00">UOWGE_InitUltimateGauge()</text>
<polygon fill="#bfbfbf" stroke="#bfbfbf" points="311,-39 311,-39 474,-39 474,-39 311,-39"/>
<polygon fill="#bfbfbf" stroke="#bfbfbf" points="311,-24 311,-24 474,-24 474,-24 311,-24"/>
<polygon fill="none" stroke="#bfbfbf" points="310.5,-7.5 310.5,-56.5 473.5,-56.5 473.5,-7.5 310.5,-7.5"/>
</a>
</g>
</g>
<!-- Node1&#45;&gt;Node5 -->
<g id="edge4_Node000001_Node000005" class="edge">
<title>Node1&#45;&gt;Node5</title>
<g id="a_edge4_Node000001_Node000005"><a xlink:title=" ">
<path fill="none" stroke="#63b8ff" d="M343.8,-91.94C353.29,-80.34 363.87,-67.41 372.69,-56.62"/>
<polygon fill="none" stroke="#63b8ff" points="341.06,-89.77 337.44,-99.72 346.48,-94.2 341.06,-89.77"/>
</a>
</g>
</g>
<!-- Node6 -->
<g id="Node000006" class="node">
<title>Node6</title>
<g id="a_Node000006"><a xlink:href="classUOWGE__Sleep.html" target="_top" xlink:title=" ">
<polygon fill="white" stroke="transparent" points="594.5,-64 491.5,-64 491.5,0 594.5,0 594.5,-64"/>
<text text-anchor="start" x="508" y="-52" font-family="Helvetica,sans-Serif" font-size="10.00">UOWGE_Sleep</text>
<text text-anchor="start" x="541.5" y="-37" font-family="Helvetica,sans-Serif" font-size="10.00"> </text>
<text text-anchor="start" x="496" y="-22" font-family="Helvetica,sans-Serif" font-size="10.00">+</text>
<text text-anchor="start" x="509" y="-22" font-family="Helvetica,sans-Serif" font-size="10.00">UOWGE_Sleep()</text>
<text text-anchor="start" x="496" y="-7" font-family="Helvetica,sans-Serif" font-size="10.00">+</text>
<text text-anchor="start" x="509" y="-7" font-family="Helvetica,sans-Serif" font-size="10.00">AddGrantedTag()</text>
<polygon fill="#bfbfbf" stroke="#bfbfbf" points="492,-47 492,-47 595,-47 595,-47 492,-47"/>
<polygon fill="#bfbfbf" stroke="#bfbfbf" points="492,-32 492,-32 595,-32 595,-32 492,-32"/>
<polygon fill="none" stroke="#bfbfbf" points="491.5,0 491.5,-64 594.5,-64 594.5,0 491.5,0"/>
</a>
</g>
</g>
<!-- Node1&#45;&gt;Node6 -->
<g id="edge5_Node000001_Node000006" class="edge">
<title>Node1&#45;&gt;Node6</title>
<g id="a_edge5_Node000001_Node000006"><a xlink:title=" ">
<path fill="none" stroke="#63b8ff" d="M384.5,-101.75C414.89,-91.24 451.14,-77.9 483,-64 485.79,-62.78 488.64,-61.49 491.5,-60.15"/>
<polygon fill="none" stroke="#63b8ff" points="383.17,-98.5 374.85,-105.06 385.44,-105.12 383.17,-98.5"/>
</a>
</g>
</g>
<!-- Node2 -->
<g id="Node000002" class="node">
<title>Node2</title>
<g id="a_Node000002"><a xlink:title=" ">
<polygon fill="white" stroke="transparent" points="366,-234 270,-234 270,-185 366,-185 366,-234"/>
<text text-anchor="start" x="275" y="-221.5" font-family="Helvetica,sans-Serif" font-size="10.00">UGameplayEffect</text>
<text text-anchor="start" x="316" y="-206.5" font-family="Helvetica,sans-Serif" font-size="10.00"> </text>
<text text-anchor="start" x="316" y="-191.5" font-family="Helvetica,sans-Serif" font-size="10.00"> </text>
<polygon fill="#bfbfbf" stroke="#bfbfbf" points="270,-216.5 270,-216.5 366,-216.5 366,-216.5 270,-216.5"/>
<polygon fill="#bfbfbf" stroke="#bfbfbf" points="270,-201.5 270,-201.5 366,-201.5 366,-201.5 270,-201.5"/>
<polygon fill="none" stroke="#bfbfbf" points="270,-185 270,-234 366,-234 366,-185 270,-185"/>
</a>
</g>
</g>
<!-- Node2&#45;&gt;Node1 -->
<g id="edge1_Node000001_Node000002" class="edge">
<title>Node2&#45;&gt;Node1</title>
<g id="a_edge1_Node000001_Node000002"><a xlink:title=" ">
<path fill="none" stroke="#63b8ff" d="M318,-174.77C318,-166.17 318,-157.1 318,-149.12"/>
<polygon fill="none" stroke="#63b8ff" points="314.5,-174.94 318,-184.94 321.5,-174.94 314.5,-174.94"/>
</a>
</g>
</g>
</g>
</svg>
