<?xml version="1.0" encoding="UTF-8" standalone="no"?>
<!DOCTYPE svg PUBLIC "-//W3C//DTD SVG 1.1//EN"
 "http://www.w3.org/Graphics/SVG/1.1/DTD/svg11.dtd">
<!-- Generated by graphviz version 2.43.0 (0)
 -->
<!-- Title: AOWCharacter Pages: 1 -->
<svg width="195pt" height="347pt"
 viewBox="0.00 0.00 195.00 347.00" xmlns="http://www.w3.org/2000/svg" xmlns:xlink="http://www.w3.org/1999/xlink">
<g id="graph0" class="graph" transform="scale(1 1) rotate(0) translate(4 343)">
<title>AOWCharacter</title>
<!-- Node1 -->
<g id="Node000001" class="node">
<title>Node1</title>
<g id="a_Node000001"><a xlink:title=" ">
<polygon fill="#999999" stroke="transparent" points="187,-254 0,-254 0,-100 187,-100 187,-254"/>
<text text-anchor="start" x="58" y="-242" font-family="Helvetica,sans-Serif" font-size="10.00">AOWCharacter</text>
<text text-anchor="start" x="4.5" y="-227" font-family="Helvetica,sans-Serif" font-size="10.00">#</text>
<text text-anchor="start" x="17.5" y="-227" font-family="Helvetica,sans-Serif" font-size="10.00">AbilitySystemComponent</text>
<text text-anchor="start" x="4.5" y="-212" font-family="Helvetica,sans-Serif" font-size="10.00">+</text>
<text text-anchor="start" x="17.5" y="-212" font-family="Helvetica,sans-Serif" font-size="10.00">AOWCharacter()</text>
<text text-anchor="start" x="4.5" y="-197" font-family="Helvetica,sans-Serif" font-size="10.00">+</text>
<text text-anchor="start" x="17.5" y="-197" font-family="Helvetica,sans-Serif" font-size="10.00">Move()</text>
<text text-anchor="start" x="4.5" y="-182" font-family="Helvetica,sans-Serif" font-size="10.00">+</text>
<text text-anchor="start" x="17.5" y="-182" font-family="Helvetica,sans-Serif" font-size="10.00">Look()</text>
<text text-anchor="start" x="4.5" y="-167" font-family="Helvetica,sans-Serif" font-size="10.00">+</text>
<text text-anchor="start" x="17.5" y="-167" font-family="Helvetica,sans-Serif" font-size="10.00">ActivateAbility()</text>
<text text-anchor="start" x="4.5" y="-152" font-family="Helvetica,sans-Serif" font-size="10.00">+</text>
<text text-anchor="start" x="17.5" y="-152" font-family="Helvetica,sans-Serif" font-size="10.00">GetOWAbilitySystemComponent()</text>
<text text-anchor="start" x="4.5" y="-137" font-family="Helvetica,sans-Serif" font-size="10.00">#</text>
<text text-anchor="start" x="17.5" y="-137" font-family="Helvetica,sans-Serif" font-size="10.00">BeginPlay()</text>
<text text-anchor="start" x="4.5" y="-122" font-family="Helvetica,sans-Serif" font-size="10.00">#</text>
<text text-anchor="start" x="17.5" y="-122" font-family="Helvetica,sans-Serif" font-size="10.00">PossessedBy()</text>
<text text-anchor="start" x="4.5" y="-107" font-family="Helvetica,sans-Serif" font-size="10.00">#</text>
<text text-anchor="start" x="17.5" y="-107" font-family="Helvetica,sans-Serif" font-size="10.00">OnRep_PlayerState()</text>
<polygon fill="#666666" stroke="#666666" points="0.5,-237 0.5,-237 187.5,-237 187.5,-237 0.5,-237"/>
<polygon fill="#666666" stroke="#666666" points="0.5,-222 0.5,-222 15.5,-222 15.5,-222 0.5,-222"/>
<polygon fill="#666666" stroke="#666666" points="15.5,-222 15.5,-222 187.5,-222 187.5,-222 15.5,-222"/>
<polygon fill="none" stroke="#666666" points="0,-100 0,-254 187,-254 187,-100 0,-100"/>
</a>
</g>
</g>
<!-- Node3 -->
<g id="Node000003" class="node">
<title>Node3</title>
<g id="a_Node000003"><a xlink:href="classAOWMonster.html" target="_top" xlink:title=" ">
<polygon fill="white" stroke="transparent" points="140,-64 47,-64 47,0 140,0 140,-64"/>
<text text-anchor="start" x="62" y="-52" font-family="Helvetica,sans-Serif" font-size="10.00">AOWMonster</text>
<text text-anchor="start" x="51.5" y="-37" font-family="Helvetica,sans-Serif" font-size="10.00">#</text>
<text text-anchor="start" x="64.5" y="-37" font-family="Helvetica,sans-Serif" font-size="10.00">AbilitySet</text>
<text text-anchor="start" x="51.5" y="-22" font-family="Helvetica,sans-Serif" font-size="10.00">+</text>
<text text-anchor="start" x="64.5" y="-22" font-family="Helvetica,sans-Serif" font-size="10.00">AOWMonster()</text>
<text text-anchor="start" x="51.5" y="-7" font-family="Helvetica,sans-Serif" font-size="10.00">#</text>
<text text-anchor="start" x="64.5" y="-7" font-family="Helvetica,sans-Serif" font-size="10.00">BeginPlay()</text>
<polygon fill="#bfbfbf" stroke="#bfbfbf" points="47.5,-47 47.5,-47 140.5,-47 140.5,-47 47.5,-47"/>
<polygon fill="#bfbfbf" stroke="#bfbfbf" points="47.5,-32 47.5,-32 62.5,-32 62.5,-32 47.5,-32"/>
<polygon fill="#bfbfbf" stroke="#bfbfbf" points="62.5,-32 62.5,-32 140.5,-32 140.5,-32 62.5,-32"/>
<polygon fill="none" stroke="#bfbfbf" points="47,0 47,-64 140,-64 140,0 47,0"/>
</a>
</g>
</g>
<!-- Node1&#45;&gt;Node3 -->
<g id="edge2_Node000001_Node000003" class="edge">
<title>Node1&#45;&gt;Node3</title>
<g id="a_edge2_Node000001_Node000003"><a xlink:title=" ">
<path fill="none" stroke="#63b8ff" d="M93.5,-89.87C93.5,-80.72 93.5,-71.9 93.5,-64.06"/>
<polygon fill="none" stroke="#63b8ff" points="90,-89.89 93.5,-99.89 97,-89.89 90,-89.89"/>
</a>
</g>
</g>
<!-- Node2 -->
<g id="Node000002" class="node">
<title>Node2</title>
<g id="a_Node000002"><a xlink:title=" ">
<polygon fill="white" stroke="transparent" points="126,-339 61,-339 61,-290 126,-290 126,-339"/>
<text text-anchor="start" x="66.5" y="-326.5" font-family="Helvetica,sans-Serif" font-size="10.00">ACharacter</text>
<text text-anchor="start" x="92" y="-311.5" font-family="Helvetica,sans-Serif" font-size="10.00"> </text>
<text text-anchor="start" x="92" y="-296.5" font-family="Helvetica,sans-Serif" font-size="10.00"> </text>
<polygon fill="#bfbfbf" stroke="#bfbfbf" points="61.5,-321.5 61.5,-321.5 126.5,-321.5 126.5,-321.5 61.5,-321.5"/>
<polygon fill="#bfbfbf" stroke="#bfbfbf" points="61.5,-306.5 61.5,-306.5 126.5,-306.5 126.5,-306.5 61.5,-306.5"/>
<polygon fill="none" stroke="#bfbfbf" points="61,-290 61,-339 126,-339 126,-290 61,-290"/>
</a>
</g>
</g>
<!-- Node2&#45;&gt;Node1 -->
<g id="edge1_Node000001_Node000002" class="edge">
<title>Node2&#45;&gt;Node1</title>
<g id="a_edge1_Node000001_Node000002"><a xlink:title=" ">
<path fill="none" stroke="#63b8ff" d="M93.5,-279.66C93.5,-271.74 93.5,-262.97 93.5,-254.01"/>
<polygon fill="none" stroke="#63b8ff" points="90,-279.9 93.5,-289.9 97,-279.9 90,-279.9"/>
</a>
</g>
</g>
</g>
</svg>
