<?xml version="1.0" encoding="UTF-8" standalone="no"?>
<!DOCTYPE svg PUBLIC "-//W3C//DTD SVG 1.1//EN"
 "http://www.w3.org/Graphics/SVG/1.1/DTD/svg11.dtd">
<!-- Generated by graphviz version 2.43.0 (0)
 -->
<!-- Title: UOWGameplayAbility Pages: 1 -->
<svg width="825pt" height="697pt"
 viewBox="0.00 0.00 824.50 697.00" xmlns="http://www.w3.org/2000/svg" xmlns:xlink="http://www.w3.org/1999/xlink">
<g id="graph0" class="graph" transform="scale(1 1) rotate(0) translate(4 693)">
<title>UOWGameplayAbility</title>
<!-- Node1 -->
<g id="Node000001" class="node">
<title>Node1</title>
<g id="a_Node000001"><a xlink:title=" ">
<polygon fill="#999999" stroke="transparent" points="705,-604 568,-604 568,-450 705,-450 705,-604"/>
<text text-anchor="start" x="583.5" y="-592" font-family="Helvetica,sans-Serif" font-size="10.00">UOWGameplayAbility</text>
<text text-anchor="start" x="572.5" y="-577" font-family="Helvetica,sans-Serif" font-size="10.00">#</text>
<text text-anchor="start" x="585.5" y="-577" font-family="Helvetica,sans-Serif" font-size="10.00">CooldownDuration</text>
<text text-anchor="start" x="572.5" y="-562" font-family="Helvetica,sans-Serif" font-size="10.00">#</text>
<text text-anchor="start" x="585.5" y="-562" font-family="Helvetica,sans-Serif" font-size="10.00">CooldownTags</text>
<text text-anchor="start" x="572.5" y="-547" font-family="Helvetica,sans-Serif" font-size="10.00">#</text>
<text text-anchor="start" x="585.5" y="-547" font-family="Helvetica,sans-Serif" font-size="10.00">GameplayEffectClasses</text>
<text text-anchor="start" x="572.5" y="-532" font-family="Helvetica,sans-Serif" font-size="10.00">+</text>
<text text-anchor="start" x="585.5" y="-532" font-family="Helvetica,sans-Serif" font-size="10.00">UOWGameplayAbility()</text>
<text text-anchor="start" x="572.5" y="-517" font-family="Helvetica,sans-Serif" font-size="10.00">+</text>
<text text-anchor="start" x="585.5" y="-517" font-family="Helvetica,sans-Serif" font-size="10.00">SetCooldownData()</text>
<text text-anchor="start" x="572.5" y="-502" font-family="Helvetica,sans-Serif" font-size="10.00">+</text>
<text text-anchor="start" x="585.5" y="-502" font-family="Helvetica,sans-Serif" font-size="10.00">SetCostEffect()</text>
<text text-anchor="start" x="572.5" y="-487" font-family="Helvetica,sans-Serif" font-size="10.00">+</text>
<text text-anchor="start" x="585.5" y="-487" font-family="Helvetica,sans-Serif" font-size="10.00">ApplyCooldown()</text>
<text text-anchor="start" x="572.5" y="-472" font-family="Helvetica,sans-Serif" font-size="10.00">+</text>
<text text-anchor="start" x="585.5" y="-472" font-family="Helvetica,sans-Serif" font-size="10.00">CanActivateAbility()</text>
<text text-anchor="start" x="572.5" y="-457" font-family="Helvetica,sans-Serif" font-size="10.00">+</text>
<text text-anchor="start" x="585.5" y="-457" font-family="Helvetica,sans-Serif" font-size="10.00">ActivateAbility()</text>
<polygon fill="#666666" stroke="#666666" points="568.5,-587 568.5,-587 705.5,-587 705.5,-587 568.5,-587"/>
<polygon fill="#666666" stroke="#666666" points="568.5,-542 568.5,-542 583.5,-542 583.5,-542 568.5,-542"/>
<polygon fill="#666666" stroke="#666666" points="583.5,-542 583.5,-542 705.5,-542 705.5,-542 583.5,-542"/>
<polygon fill="none" stroke="#666666" points="568,-450 568,-604 705,-604 705,-450 568,-450"/>
</a>
</g>
</g>
<!-- Node3 -->
<g id="Node000003" class="node">
<title>Node3</title>
<g id="a_Node000003"><a xlink:href="classUOWGA__Active.html" target="_top" xlink:title=" ">
<polygon fill="white" stroke="transparent" points="499.5,-406.5 395.5,-406.5 395.5,-357.5 499.5,-357.5 499.5,-406.5"/>
<text text-anchor="start" x="409.5" y="-394" font-family="Helvetica,sans-Serif" font-size="10.00">UOWGA_Active</text>
<text text-anchor="start" x="445.5" y="-379" font-family="Helvetica,sans-Serif" font-size="10.00"> </text>
<text text-anchor="start" x="399.5" y="-364" font-family="Helvetica,sans-Serif" font-size="10.00">+</text>
<text text-anchor="start" x="412.5" y="-364" font-family="Helvetica,sans-Serif" font-size="10.00">UOWGA_Active()</text>
<polygon fill="#bfbfbf" stroke="#bfbfbf" points="395.5,-389 395.5,-389 499.5,-389 499.5,-389 395.5,-389"/>
<polygon fill="#bfbfbf" stroke="#bfbfbf" points="395.5,-374 395.5,-374 499.5,-374 499.5,-374 395.5,-374"/>
<polygon fill="none" stroke="#bfbfbf" points="395.5,-357.5 395.5,-406.5 499.5,-406.5 499.5,-357.5 395.5,-357.5"/>
</a>
</g>
</g>
<!-- Node1&#45;&gt;Node3 -->
<g id="edge2_Node000001_Node000003" class="edge">
<title>Node1&#45;&gt;Node3</title>
<g id="a_edge2_Node000001_Node000003"><a xlink:title=" ">
<path fill="none" stroke="#63b8ff" d="M559.71,-467.9C531.49,-446.55 501.08,-423.54 479.04,-406.86"/>
<polygon fill="none" stroke="#63b8ff" points="557.91,-470.93 568,-474.17 562.14,-465.35 557.91,-470.93"/>
</a>
</g>
</g>
<!-- Node10 -->
<g id="Node000010" class="node">
<title>Node10</title>
<g id="a_Node000010"><a xlink:href="classUOWGA__Passive.html" target="_top" xlink:title=" ">
<polygon fill="white" stroke="transparent" points="682.5,-406.5 590.5,-406.5 590.5,-357.5 682.5,-357.5 682.5,-406.5"/>
<text text-anchor="start" x="595.5" y="-394" font-family="Helvetica,sans-Serif" font-size="10.00">UOWGA_Passive</text>
<text text-anchor="start" x="634.5" y="-379" font-family="Helvetica,sans-Serif" font-size="10.00"> </text>
<text text-anchor="start" x="634.5" y="-364" font-family="Helvetica,sans-Serif" font-size="10.00"> </text>
<polygon fill="#bfbfbf" stroke="#bfbfbf" points="590.5,-389 590.5,-389 682.5,-389 682.5,-389 590.5,-389"/>
<polygon fill="#bfbfbf" stroke="#bfbfbf" points="590.5,-374 590.5,-374 682.5,-374 682.5,-374 590.5,-374"/>
<polygon fill="none" stroke="#bfbfbf" points="590.5,-357.5 590.5,-406.5 682.5,-406.5 682.5,-357.5 590.5,-357.5"/>
</a>
</g>
</g>
<!-- Node1&#45;&gt;Node10 -->
<g id="edge9_Node000001_Node000010" class="edge">
<title>Node1&#45;&gt;Node10</title>
<g id="a_edge9_Node000001_Node000010"><a xlink:title=" ">
<path fill="none" stroke="#63b8ff" d="M636.5,-439.64C636.5,-427.56 636.5,-416.07 636.5,-406.64"/>
<polygon fill="none" stroke="#63b8ff" points="633,-439.89 636.5,-449.89 640,-439.89 633,-439.89"/>
</a>
</g>
</g>
<!-- Node12 -->
<g id="Node000012" class="node">
<title>Node12</title>
<g id="a_Node000012"><a xlink:href="classUOWGA__Ultimate.html" target="_top" xlink:title=" ">
<polygon fill="white" stroke="transparent" points="816.5,-414 700.5,-414 700.5,-350 816.5,-350 816.5,-414"/>
<text text-anchor="start" x="714.5" y="-402" font-family="Helvetica,sans-Serif" font-size="10.00">UOWGA_Ultimate</text>
<text text-anchor="start" x="756.5" y="-387" font-family="Helvetica,sans-Serif" font-size="10.00"> </text>
<text text-anchor="start" x="704.5" y="-372" font-family="Helvetica,sans-Serif" font-size="10.00">+</text>
<text text-anchor="start" x="717.5" y="-372" font-family="Helvetica,sans-Serif" font-size="10.00">UOWGA_Ultimate()</text>
<text text-anchor="start" x="704.5" y="-357" font-family="Helvetica,sans-Serif" font-size="10.00">+</text>
<text text-anchor="start" x="717.5" y="-357" font-family="Helvetica,sans-Serif" font-size="10.00">ActivateAbility()</text>
<polygon fill="#666666" stroke="#666666" points="700.5,-397 700.5,-397 816.5,-397 816.5,-397 700.5,-397"/>
<polygon fill="#666666" stroke="#666666" points="700.5,-382 700.5,-382 816.5,-382 816.5,-382 700.5,-382"/>
<polygon fill="none" stroke="#666666" points="700.5,-350 700.5,-414 816.5,-414 816.5,-350 700.5,-350"/>
</a>
</g>
</g>
<!-- Node1&#45;&gt;Node12 -->
<g id="edge11_Node000001_Node000012" class="edge">
<title>Node1&#45;&gt;Node12</title>
<g id="a_edge11_Node000001_Node000012"><a xlink:title=" ">
<path fill="none" stroke="#63b8ff" d="M707.99,-442.21C716.5,-432.23 724.74,-422.57 732,-414.06"/>
<polygon fill="none" stroke="#63b8ff" points="705.26,-440.02 701.43,-449.89 710.58,-444.56 705.26,-440.02"/>
</a>
</g>
</g>
<!-- Node2 -->
<g id="Node000002" class="node">
<title>Node2</title>
<g id="a_Node000002"><a xlink:title=" ">
<polygon fill="white" stroke="transparent" points="686.5,-689 586.5,-689 586.5,-640 686.5,-640 686.5,-689"/>
<text text-anchor="start" x="591.5" y="-676.5" font-family="Helvetica,sans-Serif" font-size="10.00">UGameplayAbility</text>
<text text-anchor="start" x="634.5" y="-661.5" font-family="Helvetica,sans-Serif" font-size="10.00"> </text>
<text text-anchor="start" x="634.5" y="-646.5" font-family="Helvetica,sans-Serif" font-size="10.00"> </text>
<polygon fill="#bfbfbf" stroke="#bfbfbf" points="586.5,-671.5 586.5,-671.5 686.5,-671.5 686.5,-671.5 586.5,-671.5"/>
<polygon fill="#bfbfbf" stroke="#bfbfbf" points="586.5,-656.5 586.5,-656.5 686.5,-656.5 686.5,-656.5 586.5,-656.5"/>
<polygon fill="none" stroke="#bfbfbf" points="586.5,-640 586.5,-689 686.5,-689 686.5,-640 586.5,-640"/>
</a>
</g>
</g>
<!-- Node2&#45;&gt;Node1 -->
<g id="edge1_Node000001_Node000002" class="edge">
<title>Node2&#45;&gt;Node1</title>
<g id="a_edge1_Node000001_Node000002"><a xlink:title=" ">
<path fill="none" stroke="#63b8ff" d="M636.5,-629.66C636.5,-621.74 636.5,-612.97 636.5,-604.01"/>
<polygon fill="none" stroke="#63b8ff" points="633,-629.9 636.5,-639.9 640,-629.9 633,-629.9"/>
</a>
</g>
</g>
<!-- Node4 -->
<g id="Node000004" class="node">
<title>Node4</title>
<g id="a_Node000004"><a xlink:href="classUOWGA__Active__GunFire.html" target="_top" xlink:title=" ">
<polygon fill="white" stroke="transparent" points="218,-299 71,-299 71,-220 218,-220 218,-299"/>
<text text-anchor="start" x="86" y="-286.5" font-family="Helvetica,sans-Serif" font-size="10.00">UOWGA_Active_GunFire</text>
<text text-anchor="start" x="75.5" y="-271.5" font-family="Helvetica,sans-Serif" font-size="10.00">#</text>
<text text-anchor="start" x="88.5" y="-271.5" font-family="Helvetica,sans-Serif" font-size="10.00">WeaponComp</text>
<text text-anchor="start" x="75.5" y="-256.5" font-family="Helvetica,sans-Serif" font-size="10.00">+</text>
<text text-anchor="start" x="88.5" y="-256.5" font-family="Helvetica,sans-Serif" font-size="10.00">UOWGA_Active_GunFire()</text>
<text text-anchor="start" x="75.5" y="-241.5" font-family="Helvetica,sans-Serif" font-size="10.00">+</text>
<text text-anchor="start" x="88.5" y="-241.5" font-family="Helvetica,sans-Serif" font-size="10.00">ActivateAbility()</text>
<text text-anchor="start" x="75.5" y="-226.5" font-family="Helvetica,sans-Serif" font-size="10.00">+</text>
<text text-anchor="start" x="88.5" y="-226.5" font-family="Helvetica,sans-Serif" font-size="10.00">Shoot()</text>
<polygon fill="#bfbfbf" stroke="#bfbfbf" points="71.5,-281.5 71.5,-281.5 218.5,-281.5 218.5,-281.5 71.5,-281.5"/>
<polygon fill="#bfbfbf" stroke="#bfbfbf" points="71.5,-266.5 71.5,-266.5 86.5,-266.5 86.5,-266.5 71.5,-266.5"/>
<polygon fill="#bfbfbf" stroke="#bfbfbf" points="86.5,-266.5 86.5,-266.5 218.5,-266.5 218.5,-266.5 86.5,-266.5"/>
<polygon fill="none" stroke="#bfbfbf" points="71,-220 71,-299 218,-299 218,-220 71,-220"/>
</a>
</g>
</g>
<!-- Node3&#45;&gt;Node4 -->
<g id="edge3_Node000003_Node000004" class="edge">
<title>Node3&#45;&gt;Node4</title>
<g id="a_edge3_Node000003_Node000004"><a xlink:title=" ">
<path fill="none" stroke="#63b8ff" d="M385.09,-367.12C339.85,-355.86 277.85,-337.94 226.5,-314 217.41,-309.76 208.15,-304.64 199.29,-299.26"/>
<polygon fill="none" stroke="#63b8ff" points="384.52,-370.58 395.06,-369.56 386.18,-363.78 384.52,-370.58"/>
</a>
</g>
</g>
<!-- Node7 -->
<g id="Node000007" class="node">
<title>Node7</title>
<g id="a_Node000007"><a xlink:href="classUOWGA__CyberAgility.html" target="_top" xlink:title=" ">
<polygon fill="white" stroke="transparent" points="369,-306.5 236,-306.5 236,-212.5 369,-212.5 369,-306.5"/>
<text text-anchor="start" x="250.5" y="-294.5" font-family="Helvetica,sans-Serif" font-size="10.00">UOWGA_CyberAgility</text>
<text text-anchor="start" x="240.5" y="-279.5" font-family="Helvetica,sans-Serif" font-size="10.00">#</text>
<text text-anchor="start" x="253.5" y="-279.5" font-family="Helvetica,sans-Serif" font-size="10.00">DoubleJumpStrength</text>
<text text-anchor="start" x="240.5" y="-264.5" font-family="Helvetica,sans-Serif" font-size="10.00">#</text>
<text text-anchor="start" x="253.5" y="-264.5" font-family="Helvetica,sans-Serif" font-size="10.00">bDoubleJumpUsed</text>
<text text-anchor="start" x="240.5" y="-249.5" font-family="Helvetica,sans-Serif" font-size="10.00">+</text>
<text text-anchor="start" x="253.5" y="-249.5" font-family="Helvetica,sans-Serif" font-size="10.00">UOWGA_CyberAgility()</text>
<text text-anchor="start" x="240.5" y="-234.5" font-family="Helvetica,sans-Serif" font-size="10.00">+</text>
<text text-anchor="start" x="253.5" y="-234.5" font-family="Helvetica,sans-Serif" font-size="10.00">ActivateAbility()</text>
<text text-anchor="start" x="240.5" y="-219.5" font-family="Helvetica,sans-Serif" font-size="10.00">#</text>
<text text-anchor="start" x="253.5" y="-219.5" font-family="Helvetica,sans-Serif" font-size="10.00">OnLanded()</text>
<polygon fill="#bfbfbf" stroke="#bfbfbf" points="236.5,-289.5 236.5,-289.5 369.5,-289.5 369.5,-289.5 236.5,-289.5"/>
<polygon fill="#bfbfbf" stroke="#bfbfbf" points="236.5,-259.5 236.5,-259.5 251.5,-259.5 251.5,-259.5 236.5,-259.5"/>
<polygon fill="#bfbfbf" stroke="#bfbfbf" points="251.5,-259.5 251.5,-259.5 369.5,-259.5 369.5,-259.5 251.5,-259.5"/>
<polygon fill="none" stroke="#bfbfbf" points="236,-212.5 236,-306.5 369,-306.5 369,-212.5 236,-212.5"/>
</a>
</g>
</g>
<!-- Node3&#45;&gt;Node7 -->
<g id="edge6_Node000003_Node000007" class="edge">
<title>Node3&#45;&gt;Node7</title>
<g id="a_edge6_Node000003_Node000007"><a xlink:title=" ">
<path fill="none" stroke="#63b8ff" d="M411.12,-350.76C395.06,-337.42 375.83,-321.44 358.04,-306.66"/>
<polygon fill="none" stroke="#63b8ff" points="409.27,-353.78 419.2,-357.48 413.74,-348.4 409.27,-353.78"/>
</a>
</g>
</g>
<!-- Node8 -->
<g id="Node000008" class="node">
<title>Node8</title>
<g id="a_Node000008"><a xlink:href="classUOWGA__Deflect.html" target="_top" xlink:title=" ">
<polygon fill="white" stroke="transparent" points="507.5,-314 387.5,-314 387.5,-205 507.5,-205 507.5,-314"/>
<text text-anchor="start" x="408" y="-301.5" font-family="Helvetica,sans-Serif" font-size="10.00">UOWGA_Deflect</text>
<text text-anchor="start" x="391.5" y="-286.5" font-family="Helvetica,sans-Serif" font-size="10.00">#</text>
<text text-anchor="start" x="404.5" y="-286.5" font-family="Helvetica,sans-Serif" font-size="10.00">DeflectTimerHandle</text>
<text text-anchor="start" x="391.5" y="-271.5" font-family="Helvetica,sans-Serif" font-size="10.00">#</text>
<text text-anchor="start" x="404.5" y="-271.5" font-family="Helvetica,sans-Serif" font-size="10.00">DeflectDuration</text>
<text text-anchor="start" x="391.5" y="-256.5" font-family="Helvetica,sans-Serif" font-size="10.00">+</text>
<text text-anchor="start" x="404.5" y="-256.5" font-family="Helvetica,sans-Serif" font-size="10.00">CanActivateAbility()</text>
<text text-anchor="start" x="391.5" y="-241.5" font-family="Helvetica,sans-Serif" font-size="10.00">+</text>
<text text-anchor="start" x="404.5" y="-241.5" font-family="Helvetica,sans-Serif" font-size="10.00">ActivateAbility()</text>
<text text-anchor="start" x="391.5" y="-226.5" font-family="Helvetica,sans-Serif" font-size="10.00">+</text>
<text text-anchor="start" x="404.5" y="-226.5" font-family="Helvetica,sans-Serif" font-size="10.00">EndAbility()</text>
<text text-anchor="start" x="391.5" y="-211.5" font-family="Helvetica,sans-Serif" font-size="10.00">#</text>
<text text-anchor="start" x="404.5" y="-211.5" font-family="Helvetica,sans-Serif" font-size="10.00">OnDeflectEnd()</text>
<polygon fill="#bfbfbf" stroke="#bfbfbf" points="387.5,-296.5 387.5,-296.5 507.5,-296.5 507.5,-296.5 387.5,-296.5"/>
<polygon fill="#bfbfbf" stroke="#bfbfbf" points="387.5,-266.5 387.5,-266.5 402.5,-266.5 402.5,-266.5 387.5,-266.5"/>
<polygon fill="#bfbfbf" stroke="#bfbfbf" points="402.5,-266.5 402.5,-266.5 507.5,-266.5 507.5,-266.5 402.5,-266.5"/>
<polygon fill="none" stroke="#bfbfbf" points="387.5,-205 387.5,-314 507.5,-314 507.5,-205 387.5,-205"/>
</a>
</g>
</g>
<!-- Node3&#45;&gt;Node8 -->
<g id="edge7_Node000003_Node000008" class="edge">
<title>Node3&#45;&gt;Node8</title>
<g id="a_edge7_Node000003_Node000008"><a xlink:title=" ">
<path fill="none" stroke="#63b8ff" d="M447.5,-347.29C447.5,-337 447.5,-325.42 447.5,-314.15"/>
<polygon fill="none" stroke="#63b8ff" points="444,-347.48 447.5,-357.48 451,-347.48 444,-347.48"/>
</a>
</g>
</g>
<!-- Node9 -->
<g id="Node000009" class="node">
<title>Node9</title>
<g id="a_Node000009"><a xlink:href="classUOWGA__FastZoom.html" target="_top" xlink:title=" ">
<polygon fill="white" stroke="transparent" points="629,-291.5 526,-291.5 526,-227.5 629,-227.5 629,-291.5"/>
<text text-anchor="start" x="531.5" y="-279.5" font-family="Helvetica,sans-Serif" font-size="10.00">UOWGA_FastZoom</text>
<text text-anchor="start" x="531" y="-264.5" font-family="Helvetica,sans-Serif" font-size="10.00">#</text>
<text text-anchor="start" x="544.5" y="-264.5" font-family="Helvetica,sans-Serif" font-size="10.00">ZoomFOV</text>
<text text-anchor="start" x="531" y="-249.5" font-family="Helvetica,sans-Serif" font-size="10.00">+</text>
<text text-anchor="start" x="544.5" y="-249.5" font-family="Helvetica,sans-Serif" font-size="10.00">ActivateAbility()</text>
<text text-anchor="start" x="531" y="-234.5" font-family="Helvetica,sans-Serif" font-size="10.00">+</text>
<text text-anchor="start" x="544.5" y="-234.5" font-family="Helvetica,sans-Serif" font-size="10.00">EndAbility()</text>
<polygon fill="#bfbfbf" stroke="#bfbfbf" points="526.5,-274.5 526.5,-274.5 629.5,-274.5 629.5,-274.5 526.5,-274.5"/>
<polygon fill="#bfbfbf" stroke="#bfbfbf" points="526.5,-259.5 526.5,-259.5 542.5,-259.5 542.5,-259.5 526.5,-259.5"/>
<polygon fill="#bfbfbf" stroke="#bfbfbf" points="542.5,-259.5 542.5,-259.5 629.5,-259.5 629.5,-259.5 542.5,-259.5"/>
<polygon fill="none" stroke="#bfbfbf" points="526,-227.5 526,-291.5 629,-291.5 629,-227.5 526,-227.5"/>
</a>
</g>
</g>
<!-- Node3&#45;&gt;Node9 -->
<g id="edge8_Node000003_Node000009" class="edge">
<title>Node3&#45;&gt;Node9</title>
<g id="a_edge8_Node000003_Node000009"><a xlink:title=" ">
<path fill="none" stroke="#63b8ff" d="M480.31,-350.59C499.72,-332.59 524.26,-309.85 543.82,-291.72"/>
<polygon fill="none" stroke="#63b8ff" points="477.83,-348.12 472.87,-357.48 482.59,-353.25 477.83,-348.12"/>
</a>
</g>
</g>
<!-- Node5 -->
<g id="Node000005" class="node">
<title>Node5</title>
<g id="a_Node000005"><a xlink:href="classUOWGA__ShurikenMain.html" target="_top" xlink:title=" ">
<polygon fill="white" stroke="transparent" points="139,-169 0,-169 0,0 139,0 139,-169"/>
<text text-anchor="start" x="14.5" y="-156.5" font-family="Helvetica,sans-Serif" font-size="10.00">UOWGA_ShurikenMain</text>
<text text-anchor="start" x="68" y="-141.5" font-family="Helvetica,sans-Serif" font-size="10.00"> </text>
<text text-anchor="start" x="4.5" y="-126.5" font-family="Helvetica,sans-Serif" font-size="10.00">+</text>
<text text-anchor="start" x="17.5" y="-126.5" font-family="Helvetica,sans-Serif" font-size="10.00">UOWGA_ShurikenMain()</text>
<text text-anchor="start" x="4.5" y="-111.5" font-family="Helvetica,sans-Serif" font-size="10.00">+</text>
<text text-anchor="start" x="17.5" y="-111.5" font-family="Helvetica,sans-Serif" font-size="10.00">SetCurrentMontage()</text>
<text text-anchor="start" x="4.5" y="-96.5" font-family="Helvetica,sans-Serif" font-size="10.00">+</text>
<text text-anchor="start" x="17.5" y="-96.5" font-family="Helvetica,sans-Serif" font-size="10.00">CanActivateAbility()</text>
<text text-anchor="start" x="4.5" y="-81.5" font-family="Helvetica,sans-Serif" font-size="10.00">+</text>
<text text-anchor="start" x="17.5" y="-81.5" font-family="Helvetica,sans-Serif" font-size="10.00">ActivateAbility()</text>
<text text-anchor="start" x="4.5" y="-66.5" font-family="Helvetica,sans-Serif" font-size="10.00">+</text>
<text text-anchor="start" x="17.5" y="-66.5" font-family="Helvetica,sans-Serif" font-size="10.00">EndAbility()</text>
<text text-anchor="start" x="4.5" y="-51.5" font-family="Helvetica,sans-Serif" font-size="10.00">+</text>
<text text-anchor="start" x="17.5" y="-51.5" font-family="Helvetica,sans-Serif" font-size="10.00">ShurikenMain()</text>
<text text-anchor="start" x="4.5" y="-36.5" font-family="Helvetica,sans-Serif" font-size="10.00">+</text>
<text text-anchor="start" x="17.5" y="-36.5" font-family="Helvetica,sans-Serif" font-size="10.00">ThrowFirstShuriken()</text>
<text text-anchor="start" x="4.5" y="-21.5" font-family="Helvetica,sans-Serif" font-size="10.00">+</text>
<text text-anchor="start" x="17.5" y="-21.5" font-family="Helvetica,sans-Serif" font-size="10.00">ThrowSecondShuriken()</text>
<text text-anchor="start" x="4.5" y="-6.5" font-family="Helvetica,sans-Serif" font-size="10.00">+</text>
<text text-anchor="start" x="17.5" y="-6.5" font-family="Helvetica,sans-Serif" font-size="10.00">ThrowThirdShuriken()</text>
<polygon fill="#bfbfbf" stroke="#bfbfbf" points="0.5,-151.5 0.5,-151.5 139.5,-151.5 139.5,-151.5 0.5,-151.5"/>
<polygon fill="#bfbfbf" stroke="#bfbfbf" points="0.5,-136.5 0.5,-136.5 139.5,-136.5 139.5,-136.5 0.5,-136.5"/>
<polygon fill="none" stroke="#bfbfbf" points="0,0 0,-169 139,-169 139,0 0,0"/>
</a>
</g>
</g>
<!-- Node4&#45;&gt;Node5 -->
<g id="edge4_Node000004_Node000005" class="edge">
<title>Node4&#45;&gt;Node5</title>
<g id="a_edge4_Node000004_Node000005"><a xlink:title=" ">
<path fill="none" stroke="#63b8ff" d="M123.56,-210.19C118.01,-197.39 111.86,-183.2 105.75,-169.11"/>
<polygon fill="none" stroke="#63b8ff" points="120.48,-211.89 127.67,-219.68 126.9,-209.11 120.48,-211.89"/>
</a>
</g>
</g>
<!-- Node6 -->
<g id="Node000006" class="node">
<title>Node6</title>
<g id="a_Node000006"><a xlink:href="classUOWGA__ShurikenSub.html" target="_top" xlink:title=" ">
<polygon fill="white" stroke="transparent" points="281.5,-146.5 157.5,-146.5 157.5,-22.5 281.5,-22.5 281.5,-146.5"/>
<text text-anchor="start" x="167" y="-134.5" font-family="Helvetica,sans-Serif" font-size="10.00">UOWGA_ShurikenSub</text>
<text text-anchor="start" x="217.5" y="-119.5" font-family="Helvetica,sans-Serif" font-size="10.00"> </text>
<text text-anchor="start" x="161.5" y="-104.5" font-family="Helvetica,sans-Serif" font-size="10.00">+</text>
<text text-anchor="start" x="174.5" y="-104.5" font-family="Helvetica,sans-Serif" font-size="10.00">SetCurrentMontage()</text>
<text text-anchor="start" x="161.5" y="-89.5" font-family="Helvetica,sans-Serif" font-size="10.00">+</text>
<text text-anchor="start" x="174.5" y="-89.5" font-family="Helvetica,sans-Serif" font-size="10.00">CanActivateAbility()</text>
<text text-anchor="start" x="161.5" y="-74.5" font-family="Helvetica,sans-Serif" font-size="10.00">+</text>
<text text-anchor="start" x="174.5" y="-74.5" font-family="Helvetica,sans-Serif" font-size="10.00">ActivateAbility()</text>
<text text-anchor="start" x="161.5" y="-59.5" font-family="Helvetica,sans-Serif" font-size="10.00">+</text>
<text text-anchor="start" x="174.5" y="-59.5" font-family="Helvetica,sans-Serif" font-size="10.00">EndAbility()</text>
<text text-anchor="start" x="161.5" y="-44.5" font-family="Helvetica,sans-Serif" font-size="10.00">+</text>
<text text-anchor="start" x="174.5" y="-44.5" font-family="Helvetica,sans-Serif" font-size="10.00">ShurikenSub()</text>
<text text-anchor="start" x="161.5" y="-29.5" font-family="Helvetica,sans-Serif" font-size="10.00">+</text>
<text text-anchor="start" x="174.5" y="-29.5" font-family="Helvetica,sans-Serif" font-size="10.00">SpawnProjectile()</text>
<polygon fill="#bfbfbf" stroke="#bfbfbf" points="157.5,-129.5 157.5,-129.5 281.5,-129.5 281.5,-129.5 157.5,-129.5"/>
<polygon fill="#bfbfbf" stroke="#bfbfbf" points="157.5,-114.5 157.5,-114.5 281.5,-114.5 281.5,-114.5 157.5,-114.5"/>
<polygon fill="none" stroke="#bfbfbf" points="157.5,-22.5 157.5,-146.5 281.5,-146.5 281.5,-22.5 157.5,-22.5"/>
</a>
</g>
</g>
<!-- Node4&#45;&gt;Node6 -->
<g id="edge5_Node000004_Node000006" class="edge">
<title>Node4&#45;&gt;Node6</title>
<g id="a_edge5_Node000004_Node000006"><a xlink:title=" ">
<path fill="none" stroke="#63b8ff" d="M165.4,-210.28C173.96,-190.55 183.95,-167.5 193.01,-146.61"/>
<polygon fill="none" stroke="#63b8ff" points="162.1,-209.11 161.33,-219.68 168.52,-211.89 162.1,-209.11"/>
</a>
</g>
</g>
<!-- Node11 -->
<g id="Node000011" class="node">
<title>Node11</title>
<g id="a_Node000011"><a xlink:href="classUOWGA__Reload.html" target="_top" xlink:title=" ">
<polygon fill="white" stroke="transparent" points="771.5,-314 647.5,-314 647.5,-205 771.5,-205 771.5,-314"/>
<text text-anchor="start" x="670" y="-301.5" font-family="Helvetica,sans-Serif" font-size="10.00">UOWGA_Reload</text>
<text text-anchor="start" x="707.5" y="-286.5" font-family="Helvetica,sans-Serif" font-size="10.00"> </text>
<text text-anchor="start" x="651.5" y="-271.5" font-family="Helvetica,sans-Serif" font-size="10.00">+</text>
<text text-anchor="start" x="664.5" y="-271.5" font-family="Helvetica,sans-Serif" font-size="10.00">SetCurrentMontage()</text>
<text text-anchor="start" x="651.5" y="-256.5" font-family="Helvetica,sans-Serif" font-size="10.00">+</text>
<text text-anchor="start" x="664.5" y="-256.5" font-family="Helvetica,sans-Serif" font-size="10.00">CanActivateAbility()</text>
<text text-anchor="start" x="651.5" y="-241.5" font-family="Helvetica,sans-Serif" font-size="10.00">+</text>
<text text-anchor="start" x="664.5" y="-241.5" font-family="Helvetica,sans-Serif" font-size="10.00">ActivateAbility()</text>
<text text-anchor="start" x="651.5" y="-226.5" font-family="Helvetica,sans-Serif" font-size="10.00">+</text>
<text text-anchor="start" x="664.5" y="-226.5" font-family="Helvetica,sans-Serif" font-size="10.00">EndAbility()</text>
<text text-anchor="start" x="651.5" y="-211.5" font-family="Helvetica,sans-Serif" font-size="10.00">+</text>
<text text-anchor="start" x="664.5" y="-211.5" font-family="Helvetica,sans-Serif" font-size="10.00">Reload()</text>
<polygon fill="#bfbfbf" stroke="#bfbfbf" points="647.5,-296.5 647.5,-296.5 771.5,-296.5 771.5,-296.5 647.5,-296.5"/>
<polygon fill="#bfbfbf" stroke="#bfbfbf" points="647.5,-281.5 647.5,-281.5 771.5,-281.5 771.5,-281.5 647.5,-281.5"/>
<polygon fill="none" stroke="#bfbfbf" points="647.5,-205 647.5,-314 771.5,-314 771.5,-205 647.5,-205"/>
</a>
</g>
</g>
<!-- Node10&#45;&gt;Node11 -->
<g id="edge10_Node000010_Node000011" class="edge">
<title>Node10&#45;&gt;Node11</title>
<g id="a_edge10_Node000010_Node000011"><a xlink:title=" ">
<path fill="none" stroke="#63b8ff" d="M655.94,-348.9C662.42,-338.22 669.81,-326.01 677,-314.15"/>
<polygon fill="none" stroke="#63b8ff" points="652.94,-347.11 650.75,-357.48 658.92,-350.74 652.94,-347.11"/>
</a>
</g>
</g>
</g>
</svg>
