<?xml version="1.0" encoding="UTF-8" standalone="no"?>
<!DOCTYPE svg PUBLIC "-//W3C//DTD SVG 1.1//EN"
 "http://www.w3.org/Graphics/SVG/1.1/DTD/svg11.dtd">
<!-- Generated by graphviz version 2.43.0 (0)
 -->
<!-- Title: UOWGA_Active Pages: 1 -->
<svg width="637pt" height="682pt"
 viewBox="0.00 0.00 637.00 682.00" xmlns="http://www.w3.org/2000/svg" xmlns:xlink="http://www.w3.org/1999/xlink">
<g id="graph0" class="graph" transform="scale(1 1) rotate(0) translate(4 678)">
<title>UOWGA_Active</title>
<!-- Node1 -->
<g id="Node000001" class="node">
<title>Node1</title>
<g id="a_Node000001"><a xlink:title=" ">
<polygon fill="#999999" stroke="transparent" points="426.5,-399 322.5,-399 322.5,-350 426.5,-350 426.5,-399"/>
<text text-anchor="start" x="336.5" y="-386.5" font-family="Helvetica,sans-Serif" font-size="10.00">UOWGA_Active</text>
<text text-anchor="start" x="372.5" y="-371.5" font-family="Helvetica,sans-Serif" font-size="10.00"> </text>
<text text-anchor="start" x="326.5" y="-356.5" font-family="Helvetica,sans-Serif" font-size="10.00">+</text>
<text text-anchor="start" x="339.5" y="-356.5" font-family="Helvetica,sans-Serif" font-size="10.00">UOWGA_Active()</text>
<polygon fill="#666666" stroke="#666666" points="322.5,-381.5 322.5,-381.5 426.5,-381.5 426.5,-381.5 322.5,-381.5"/>
<polygon fill="#666666" stroke="#666666" points="322.5,-366.5 322.5,-366.5 426.5,-366.5 426.5,-366.5 322.5,-366.5"/>
<polygon fill="none" stroke="#666666" points="322.5,-350 322.5,-399 426.5,-399 426.5,-350 322.5,-350"/>
</a>
</g>
</g>
<!-- Node4 -->
<g id="Node000004" class="node">
<title>Node4</title>
<g id="a_Node000004"><a xlink:href="classUOWGA__Active__GunFire.html" target="_top" xlink:title=" ">
<polygon fill="white" stroke="transparent" points="218,-299 71,-299 71,-220 218,-220 218,-299"/>
<text text-anchor="start" x="86" y="-286.5" font-family="Helvetica,sans-Serif" font-size="10.00">UOWGA_Active_GunFire</text>
<text text-anchor="start" x="75.5" y="-271.5" font-family="Helvetica,sans-Serif" font-size="10.00">#</text>
<text text-anchor="start" x="88.5" y="-271.5" font-family="Helvetica,sans-Serif" font-size="10.00">WeaponComp</text>
<text text-anchor="start" x="75.5" y="-256.5" font-family="Helvetica,sans-Serif" font-size="10.00">+</text>
<text text-anchor="start" x="88.5" y="-256.5" font-family="Helvetica,sans-Serif" font-size="10.00">UOWGA_Active_GunFire()</text>
<text text-anchor="start" x="75.5" y="-241.5" font-family="Helvetica,sans-Serif" font-size="10.00">+</text>
<text text-anchor="start" x="88.5" y="-241.5" font-family="Helvetica,sans-Serif" font-size="10.00">ActivateAbility()</text>
<text text-anchor="start" x="75.5" y="-226.5" font-family="Helvetica,sans-Serif" font-size="10.00">+</text>
<text text-anchor="start" x="88.5" y="-226.5" font-family="Helvetica,sans-Serif" font-size="10.00">Shoot()</text>
<polygon fill="#bfbfbf" stroke="#bfbfbf" points="71.5,-281.5 71.5,-281.5 218.5,-281.5 218.5,-281.5 71.5,-281.5"/>
<polygon fill="#bfbfbf" stroke="#bfbfbf" points="71.5,-266.5 71.5,-266.5 86.5,-266.5 86.5,-266.5 71.5,-266.5"/>
<polygon fill="#bfbfbf" stroke="#bfbfbf" points="86.5,-266.5 86.5,-266.5 218.5,-266.5 218.5,-266.5 86.5,-266.5"/>
<polygon fill="none" stroke="#bfbfbf" points="71,-220 71,-299 218,-299 218,-220 71,-220"/>
</a>
</g>
</g>
<!-- Node1&#45;&gt;Node4 -->
<g id="edge3_Node000001_Node000004" class="edge">
<title>Node1&#45;&gt;Node4</title>
<g id="a_edge3_Node000001_Node000004"><a xlink:title=" ">
<path fill="none" stroke="#63b8ff" d="M313,-351.87C285.93,-341.57 254.07,-328.36 226.5,-314 217.91,-309.52 209.07,-304.39 200.54,-299.11"/>
<polygon fill="none" stroke="#63b8ff" points="311.77,-355.15 322.36,-355.39 314.23,-348.6 311.77,-355.15"/>
</a>
</g>
</g>
<!-- Node7 -->
<g id="Node000007" class="node">
<title>Node7</title>
<g id="a_Node000007"><a xlink:href="classUOWGA__CyberAgility.html" target="_top" xlink:title=" ">
<polygon fill="white" stroke="transparent" points="369,-306.5 236,-306.5 236,-212.5 369,-212.5 369,-306.5"/>
<text text-anchor="start" x="250.5" y="-294.5" font-family="Helvetica,sans-Serif" font-size="10.00">UOWGA_CyberAgility</text>
<text text-anchor="start" x="240.5" y="-279.5" font-family="Helvetica,sans-Serif" font-size="10.00">#</text>
<text text-anchor="start" x="253.5" y="-279.5" font-family="Helvetica,sans-Serif" font-size="10.00">DoubleJumpStrength</text>
<text text-anchor="start" x="240.5" y="-264.5" font-family="Helvetica,sans-Serif" font-size="10.00">#</text>
<text text-anchor="start" x="253.5" y="-264.5" font-family="Helvetica,sans-Serif" font-size="10.00">bDoubleJumpUsed</text>
<text text-anchor="start" x="240.5" y="-249.5" font-family="Helvetica,sans-Serif" font-size="10.00">+</text>
<text text-anchor="start" x="253.5" y="-249.5" font-family="Helvetica,sans-Serif" font-size="10.00">UOWGA_CyberAgility()</text>
<text text-anchor="start" x="240.5" y="-234.5" font-family="Helvetica,sans-Serif" font-size="10.00">+</text>
<text text-anchor="start" x="253.5" y="-234.5" font-family="Helvetica,sans-Serif" font-size="10.00">ActivateAbility()</text>
<text text-anchor="start" x="240.5" y="-219.5" font-family="Helvetica,sans-Serif" font-size="10.00">#</text>
<text text-anchor="start" x="253.5" y="-219.5" font-family="Helvetica,sans-Serif" font-size="10.00">OnLanded()</text>
<polygon fill="#bfbfbf" stroke="#bfbfbf" points="236.5,-289.5 236.5,-289.5 369.5,-289.5 369.5,-289.5 236.5,-289.5"/>
<polygon fill="#bfbfbf" stroke="#bfbfbf" points="236.5,-259.5 236.5,-259.5 251.5,-259.5 251.5,-259.5 236.5,-259.5"/>
<polygon fill="#bfbfbf" stroke="#bfbfbf" points="251.5,-259.5 251.5,-259.5 369.5,-259.5 369.5,-259.5 251.5,-259.5"/>
<polygon fill="none" stroke="#bfbfbf" points="236,-212.5 236,-306.5 369,-306.5 369,-212.5 236,-212.5"/>
</a>
</g>
</g>
<!-- Node1&#45;&gt;Node7 -->
<g id="edge6_Node000001_Node000007" class="edge">
<title>Node1&#45;&gt;Node7</title>
<g id="a_edge6_Node000001_Node000007"><a xlink:title=" ">
<path fill="none" stroke="#63b8ff" d="M353.88,-341.14C347.02,-330.36 339.23,-318.14 331.83,-306.53"/>
<polygon fill="none" stroke="#63b8ff" points="351.08,-343.26 359.41,-349.81 356.98,-339.5 351.08,-343.26"/>
</a>
</g>
</g>
<!-- Node8 -->
<g id="Node000008" class="node">
<title>Node8</title>
<g id="a_Node000008"><a xlink:href="classUOWGA__Deflect.html" target="_top" xlink:title=" ">
<polygon fill="white" stroke="transparent" points="507.5,-314 387.5,-314 387.5,-205 507.5,-205 507.5,-314"/>
<text text-anchor="start" x="408" y="-301.5" font-family="Helvetica,sans-Serif" font-size="10.00">UOWGA_Deflect</text>
<text text-anchor="start" x="391.5" y="-286.5" font-family="Helvetica,sans-Serif" font-size="10.00">#</text>
<text text-anchor="start" x="404.5" y="-286.5" font-family="Helvetica,sans-Serif" font-size="10.00">DeflectTimerHandle</text>
<text text-anchor="start" x="391.5" y="-271.5" font-family="Helvetica,sans-Serif" font-size="10.00">#</text>
<text text-anchor="start" x="404.5" y="-271.5" font-family="Helvetica,sans-Serif" font-size="10.00">DeflectDuration</text>
<text text-anchor="start" x="391.5" y="-256.5" font-family="Helvetica,sans-Serif" font-size="10.00">+</text>
<text text-anchor="start" x="404.5" y="-256.5" font-family="Helvetica,sans-Serif" font-size="10.00">CanActivateAbility()</text>
<text text-anchor="start" x="391.5" y="-241.5" font-family="Helvetica,sans-Serif" font-size="10.00">+</text>
<text text-anchor="start" x="404.5" y="-241.5" font-family="Helvetica,sans-Serif" font-size="10.00">ActivateAbility()</text>
<text text-anchor="start" x="391.5" y="-226.5" font-family="Helvetica,sans-Serif" font-size="10.00">+</text>
<text text-anchor="start" x="404.5" y="-226.5" font-family="Helvetica,sans-Serif" font-size="10.00">EndAbility()</text>
<text text-anchor="start" x="391.5" y="-211.5" font-family="Helvetica,sans-Serif" font-size="10.00">#</text>
<text text-anchor="start" x="404.5" y="-211.5" font-family="Helvetica,sans-Serif" font-size="10.00">OnDeflectEnd()</text>
<polygon fill="#bfbfbf" stroke="#bfbfbf" points="387.5,-296.5 387.5,-296.5 507.5,-296.5 507.5,-296.5 387.5,-296.5"/>
<polygon fill="#bfbfbf" stroke="#bfbfbf" points="387.5,-266.5 387.5,-266.5 402.5,-266.5 402.5,-266.5 387.5,-266.5"/>
<polygon fill="#bfbfbf" stroke="#bfbfbf" points="402.5,-266.5 402.5,-266.5 507.5,-266.5 507.5,-266.5 402.5,-266.5"/>
<polygon fill="none" stroke="#bfbfbf" points="387.5,-205 387.5,-314 507.5,-314 507.5,-205 387.5,-205"/>
</a>
</g>
</g>
<!-- Node1&#45;&gt;Node8 -->
<g id="edge7_Node000001_Node000008" class="edge">
<title>Node1&#45;&gt;Node8</title>
<g id="a_edge7_Node000001_Node000008"><a xlink:title=" ">
<path fill="none" stroke="#63b8ff" d="M395.24,-341.4C400.68,-332.97 406.71,-323.65 412.67,-314.41"/>
<polygon fill="none" stroke="#63b8ff" points="392.29,-339.51 389.8,-349.81 398.17,-343.31 392.29,-339.51"/>
</a>
</g>
</g>
<!-- Node9 -->
<g id="Node000009" class="node">
<title>Node9</title>
<g id="a_Node000009"><a xlink:href="classUOWGA__FastZoom.html" target="_top" xlink:title=" ">
<polygon fill="white" stroke="transparent" points="629,-291.5 526,-291.5 526,-227.5 629,-227.5 629,-291.5"/>
<text text-anchor="start" x="531.5" y="-279.5" font-family="Helvetica,sans-Serif" font-size="10.00">UOWGA_FastZoom</text>
<text text-anchor="start" x="531" y="-264.5" font-family="Helvetica,sans-Serif" font-size="10.00">#</text>
<text text-anchor="start" x="544.5" y="-264.5" font-family="Helvetica,sans-Serif" font-size="10.00">ZoomFOV</text>
<text text-anchor="start" x="531" y="-249.5" font-family="Helvetica,sans-Serif" font-size="10.00">+</text>
<text text-anchor="start" x="544.5" y="-249.5" font-family="Helvetica,sans-Serif" font-size="10.00">ActivateAbility()</text>
<text text-anchor="start" x="531" y="-234.5" font-family="Helvetica,sans-Serif" font-size="10.00">+</text>
<text text-anchor="start" x="544.5" y="-234.5" font-family="Helvetica,sans-Serif" font-size="10.00">EndAbility()</text>
<polygon fill="#bfbfbf" stroke="#bfbfbf" points="526.5,-274.5 526.5,-274.5 629.5,-274.5 629.5,-274.5 526.5,-274.5"/>
<polygon fill="#bfbfbf" stroke="#bfbfbf" points="526.5,-259.5 526.5,-259.5 542.5,-259.5 542.5,-259.5 526.5,-259.5"/>
<polygon fill="#bfbfbf" stroke="#bfbfbf" points="542.5,-259.5 542.5,-259.5 629.5,-259.5 629.5,-259.5 542.5,-259.5"/>
<polygon fill="none" stroke="#bfbfbf" points="526,-227.5 526,-291.5 629,-291.5 629,-227.5 526,-227.5"/>
</a>
</g>
</g>
<!-- Node1&#45;&gt;Node9 -->
<g id="edge8_Node000001_Node000009" class="edge">
<title>Node1&#45;&gt;Node9</title>
<g id="a_edge8_Node000001_Node000009"><a xlink:title=" ">
<path fill="none" stroke="#63b8ff" d="M436.39,-352.58C462.1,-342.64 491.67,-329.51 516.5,-314 526.65,-307.66 536.79,-299.63 545.8,-291.73"/>
<polygon fill="none" stroke="#63b8ff" points="434.85,-349.42 426.74,-356.24 437.33,-355.97 434.85,-349.42"/>
</a>
</g>
</g>
<!-- Node2 -->
<g id="Node000002" class="node">
<title>Node2</title>
<g id="a_Node000002"><a xlink:href="classUOWGameplayAbility.html" target="_top" xlink:title=" ">
<polygon fill="white" stroke="transparent" points="443,-589 306,-589 306,-435 443,-435 443,-589"/>
<text text-anchor="start" x="321.5" y="-577" font-family="Helvetica,sans-Serif" font-size="10.00">UOWGameplayAbility</text>
<text text-anchor="start" x="310.5" y="-562" font-family="Helvetica,sans-Serif" font-size="10.00">#</text>
<text text-anchor="start" x="323.5" y="-562" font-family="Helvetica,sans-Serif" font-size="10.00">CooldownDuration</text>
<text text-anchor="start" x="310.5" y="-547" font-family="Helvetica,sans-Serif" font-size="10.00">#</text>
<text text-anchor="start" x="323.5" y="-547" font-family="Helvetica,sans-Serif" font-size="10.00">CooldownTags</text>
<text text-anchor="start" x="310.5" y="-532" font-family="Helvetica,sans-Serif" font-size="10.00">#</text>
<text text-anchor="start" x="323.5" y="-532" font-family="Helvetica,sans-Serif" font-size="10.00">GameplayEffectClasses</text>
<text text-anchor="start" x="310.5" y="-517" font-family="Helvetica,sans-Serif" font-size="10.00">+</text>
<text text-anchor="start" x="323.5" y="-517" font-family="Helvetica,sans-Serif" font-size="10.00">UOWGameplayAbility()</text>
<text text-anchor="start" x="310.5" y="-502" font-family="Helvetica,sans-Serif" font-size="10.00">+</text>
<text text-anchor="start" x="323.5" y="-502" font-family="Helvetica,sans-Serif" font-size="10.00">SetCooldownData()</text>
<text text-anchor="start" x="310.5" y="-487" font-family="Helvetica,sans-Serif" font-size="10.00">+</text>
<text text-anchor="start" x="323.5" y="-487" font-family="Helvetica,sans-Serif" font-size="10.00">SetCostEffect()</text>
<text text-anchor="start" x="310.5" y="-472" font-family="Helvetica,sans-Serif" font-size="10.00">+</text>
<text text-anchor="start" x="323.5" y="-472" font-family="Helvetica,sans-Serif" font-size="10.00">ApplyCooldown()</text>
<text text-anchor="start" x="310.5" y="-457" font-family="Helvetica,sans-Serif" font-size="10.00">+</text>
<text text-anchor="start" x="323.5" y="-457" font-family="Helvetica,sans-Serif" font-size="10.00">CanActivateAbility()</text>
<text text-anchor="start" x="310.5" y="-442" font-family="Helvetica,sans-Serif" font-size="10.00">+</text>
<text text-anchor="start" x="323.5" y="-442" font-family="Helvetica,sans-Serif" font-size="10.00">ActivateAbility()</text>
<polygon fill="#bfbfbf" stroke="#bfbfbf" points="306.5,-572 306.5,-572 443.5,-572 443.5,-572 306.5,-572"/>
<polygon fill="#bfbfbf" stroke="#bfbfbf" points="306.5,-527 306.5,-527 321.5,-527 321.5,-527 306.5,-527"/>
<polygon fill="#bfbfbf" stroke="#bfbfbf" points="321.5,-527 321.5,-527 443.5,-527 443.5,-527 321.5,-527"/>
<polygon fill="none" stroke="#bfbfbf" points="306,-435 306,-589 443,-589 443,-435 306,-435"/>
</a>
</g>
</g>
<!-- Node2&#45;&gt;Node1 -->
<g id="edge1_Node000001_Node000002" class="edge">
<title>Node2&#45;&gt;Node1</title>
<g id="a_edge1_Node000001_Node000002"><a xlink:title=" ">
<path fill="none" stroke="#63b8ff" d="M374.5,-424.67C374.5,-415.37 374.5,-406.57 374.5,-399.06"/>
<polygon fill="none" stroke="#63b8ff" points="371,-424.93 374.5,-434.93 378,-424.93 371,-424.93"/>
</a>
</g>
</g>
<!-- Node3 -->
<g id="Node000003" class="node">
<title>Node3</title>
<g id="a_Node000003"><a xlink:title=" ">
<polygon fill="white" stroke="transparent" points="424.5,-674 324.5,-674 324.5,-625 424.5,-625 424.5,-674"/>
<text text-anchor="start" x="329.5" y="-661.5" font-family="Helvetica,sans-Serif" font-size="10.00">UGameplayAbility</text>
<text text-anchor="start" x="372.5" y="-646.5" font-family="Helvetica,sans-Serif" font-size="10.00"> </text>
<text text-anchor="start" x="372.5" y="-631.5" font-family="Helvetica,sans-Serif" font-size="10.00"> </text>
<polygon fill="#bfbfbf" stroke="#bfbfbf" points="324.5,-656.5 324.5,-656.5 424.5,-656.5 424.5,-656.5 324.5,-656.5"/>
<polygon fill="#bfbfbf" stroke="#bfbfbf" points="324.5,-641.5 324.5,-641.5 424.5,-641.5 424.5,-641.5 324.5,-641.5"/>
<polygon fill="none" stroke="#bfbfbf" points="324.5,-625 324.5,-674 424.5,-674 424.5,-625 324.5,-625"/>
</a>
</g>
</g>
<!-- Node3&#45;&gt;Node2 -->
<g id="edge2_Node000002_Node000003" class="edge">
<title>Node3&#45;&gt;Node2</title>
<g id="a_edge2_Node000002_Node000003"><a xlink:title=" ">
<path fill="none" stroke="#63b8ff" d="M374.5,-614.66C374.5,-606.74 374.5,-597.97 374.5,-589.01"/>
<polygon fill="none" stroke="#63b8ff" points="371,-614.9 374.5,-624.9 378,-614.9 371,-614.9"/>
</a>
</g>
</g>
<!-- Node5 -->
<g id="Node000005" class="node">
<title>Node5</title>
<g id="a_Node000005"><a xlink:href="classUOWGA__ShurikenMain.html" target="_top" xlink:title=" ">
<polygon fill="white" stroke="transparent" points="139,-169 0,-169 0,0 139,0 139,-169"/>
<text text-anchor="start" x="14.5" y="-156.5" font-family="Helvetica,sans-Serif" font-size="10.00">UOWGA_ShurikenMain</text>
<text text-anchor="start" x="68" y="-141.5" font-family="Helvetica,sans-Serif" font-size="10.00"> </text>
<text text-anchor="start" x="4.5" y="-126.5" font-family="Helvetica,sans-Serif" font-size="10.00">+</text>
<text text-anchor="start" x="17.5" y="-126.5" font-family="Helvetica,sans-Serif" font-size="10.00">UOWGA_ShurikenMain()</text>
<text text-anchor="start" x="4.5" y="-111.5" font-family="Helvetica,sans-Serif" font-size="10.00">+</text>
<text text-anchor="start" x="17.5" y="-111.5" font-family="Helvetica,sans-Serif" font-size="10.00">SetCurrentMontage()</text>
<text text-anchor="start" x="4.5" y="-96.5" font-family="Helvetica,sans-Serif" font-size="10.00">+</text>
<text text-anchor="start" x="17.5" y="-96.5" font-family="Helvetica,sans-Serif" font-size="10.00">CanActivateAbility()</text>
<text text-anchor="start" x="4.5" y="-81.5" font-family="Helvetica,sans-Serif" font-size="10.00">+</text>
<text text-anchor="start" x="17.5" y="-81.5" font-family="Helvetica,sans-Serif" font-size="10.00">ActivateAbility()</text>
<text text-anchor="start" x="4.5" y="-66.5" font-family="Helvetica,sans-Serif" font-size="10.00">+</text>
<text text-anchor="start" x="17.5" y="-66.5" font-family="Helvetica,sans-Serif" font-size="10.00">EndAbility()</text>
<text text-anchor="start" x="4.5" y="-51.5" font-family="Helvetica,sans-Serif" font-size="10.00">+</text>
<text text-anchor="start" x="17.5" y="-51.5" font-family="Helvetica,sans-Serif" font-size="10.00">ShurikenMain()</text>
<text text-anchor="start" x="4.5" y="-36.5" font-family="Helvetica,sans-Serif" font-size="10.00">+</text>
<text text-anchor="start" x="17.5" y="-36.5" font-family="Helvetica,sans-Serif" font-size="10.00">ThrowFirstShuriken()</text>
<text text-anchor="start" x="4.5" y="-21.5" font-family="Helvetica,sans-Serif" font-size="10.00">+</text>
<text text-anchor="start" x="17.5" y="-21.5" font-family="Helvetica,sans-Serif" font-size="10.00">ThrowSecondShuriken()</text>
<text text-anchor="start" x="4.5" y="-6.5" font-family="Helvetica,sans-Serif" font-size="10.00">+</text>
<text text-anchor="start" x="17.5" y="-6.5" font-family="Helvetica,sans-Serif" font-size="10.00">ThrowThirdShuriken()</text>
<polygon fill="#bfbfbf" stroke="#bfbfbf" points="0.5,-151.5 0.5,-151.5 139.5,-151.5 139.5,-151.5 0.5,-151.5"/>
<polygon fill="#bfbfbf" stroke="#bfbfbf" points="0.5,-136.5 0.5,-136.5 139.5,-136.5 139.5,-136.5 0.5,-136.5"/>
<polygon fill="none" stroke="#bfbfbf" points="0,0 0,-169 139,-169 139,0 0,0"/>
</a>
</g>
</g>
<!-- Node4&#45;&gt;Node5 -->
<g id="edge4_Node000004_Node000005" class="edge">
<title>Node4&#45;&gt;Node5</title>
<g id="a_edge4_Node000004_Node000005"><a xlink:title=" ">
<path fill="none" stroke="#63b8ff" d="M123.56,-210.19C118.01,-197.39 111.86,-183.2 105.75,-169.11"/>
<polygon fill="none" stroke="#63b8ff" points="120.48,-211.89 127.67,-219.68 126.9,-209.11 120.48,-211.89"/>
</a>
</g>
</g>
<!-- Node6 -->
<g id="Node000006" class="node">
<title>Node6</title>
<g id="a_Node000006"><a xlink:href="classUOWGA__ShurikenSub.html" target="_top" xlink:title=" ">
<polygon fill="white" stroke="transparent" points="281.5,-146.5 157.5,-146.5 157.5,-22.5 281.5,-22.5 281.5,-146.5"/>
<text text-anchor="start" x="167" y="-134.5" font-family="Helvetica,sans-Serif" font-size="10.00">UOWGA_ShurikenSub</text>
<text text-anchor="start" x="217.5" y="-119.5" font-family="Helvetica,sans-Serif" font-size="10.00"> </text>
<text text-anchor="start" x="161.5" y="-104.5" font-family="Helvetica,sans-Serif" font-size="10.00">+</text>
<text text-anchor="start" x="174.5" y="-104.5" font-family="Helvetica,sans-Serif" font-size="10.00">SetCurrentMontage()</text>
<text text-anchor="start" x="161.5" y="-89.5" font-family="Helvetica,sans-Serif" font-size="10.00">+</text>
<text text-anchor="start" x="174.5" y="-89.5" font-family="Helvetica,sans-Serif" font-size="10.00">CanActivateAbility()</text>
<text text-anchor="start" x="161.5" y="-74.5" font-family="Helvetica,sans-Serif" font-size="10.00">+</text>
<text text-anchor="start" x="174.5" y="-74.5" font-family="Helvetica,sans-Serif" font-size="10.00">ActivateAbility()</text>
<text text-anchor="start" x="161.5" y="-59.5" font-family="Helvetica,sans-Serif" font-size="10.00">+</text>
<text text-anchor="start" x="174.5" y="-59.5" font-family="Helvetica,sans-Serif" font-size="10.00">EndAbility()</text>
<text text-anchor="start" x="161.5" y="-44.5" font-family="Helvetica,sans-Serif" font-size="10.00">+</text>
<text text-anchor="start" x="174.5" y="-44.5" font-family="Helvetica,sans-Serif" font-size="10.00">ShurikenSub()</text>
<text text-anchor="start" x="161.5" y="-29.5" font-family="Helvetica,sans-Serif" font-size="10.00">+</text>
<text text-anchor="start" x="174.5" y="-29.5" font-family="Helvetica,sans-Serif" font-size="10.00">SpawnProjectile()</text>
<polygon fill="#bfbfbf" stroke="#bfbfbf" points="157.5,-129.5 157.5,-129.5 281.5,-129.5 281.5,-129.5 157.5,-129.5"/>
<polygon fill="#bfbfbf" stroke="#bfbfbf" points="157.5,-114.5 157.5,-114.5 281.5,-114.5 281.5,-114.5 157.5,-114.5"/>
<polygon fill="none" stroke="#bfbfbf" points="157.5,-22.5 157.5,-146.5 281.5,-146.5 281.5,-22.5 157.5,-22.5"/>
</a>
</g>
</g>
<!-- Node4&#45;&gt;Node6 -->
<g id="edge5_Node000004_Node000006" class="edge">
<title>Node4&#45;&gt;Node6</title>
<g id="a_edge5_Node000004_Node000006"><a xlink:title=" ">
<path fill="none" stroke="#63b8ff" d="M165.4,-210.28C173.96,-190.55 183.95,-167.5 193.01,-146.61"/>
<polygon fill="none" stroke="#63b8ff" points="162.1,-209.11 161.33,-219.68 168.52,-211.89 162.1,-209.11"/>
</a>
</g>
</g>
</g>
</svg>
