<?xml version="1.0" encoding="UTF-8" standalone="no"?>
<!DOCTYPE svg PUBLIC "-//W3C//DTD SVG 1.1//EN"
 "http://www.w3.org/Graphics/SVG/1.1/DTD/svg11.dtd">
<!-- Generated by graphviz version 2.43.0 (0)
 -->
<!-- Title: AOWProjectile Pages: 1 -->
<svg width="162pt" height="452pt"
 viewBox="0.00 0.00 162.00 452.00" xmlns="http://www.w3.org/2000/svg" xmlns:xlink="http://www.w3.org/1999/xlink">
<g id="graph0" class="graph" transform="scale(1 1) rotate(0) translate(4 448)">
<title>AOWProjectile</title>
<!-- Node1 -->
<g id="Node000001" class="node">
<title>Node1</title>
<g id="a_Node000001"><a xlink:title=" ">
<polygon fill="#999999" stroke="transparent" points="149.5,-154 4.5,-154 4.5,0 149.5,0 149.5,-154"/>
<text text-anchor="start" x="42.5" y="-142" font-family="Helvetica,sans-Serif" font-size="10.00">AOWProjectile</text>
<text text-anchor="start" x="9" y="-127" font-family="Helvetica,sans-Serif" font-size="10.00">+</text>
<text text-anchor="start" x="22" y="-127" font-family="Helvetica,sans-Serif" font-size="10.00">DamageSpecHandle</text>
<text text-anchor="start" x="9" y="-112" font-family="Helvetica,sans-Serif" font-size="10.00">#</text>
<text text-anchor="start" x="22" y="-112" font-family="Helvetica,sans-Serif" font-size="10.00">ProjectileMovement</text>
<text text-anchor="start" x="9" y="-97" font-family="Helvetica,sans-Serif" font-size="10.00">#</text>
<text text-anchor="start" x="22" y="-97" font-family="Helvetica,sans-Serif" font-size="10.00">IsDeflected</text>
<text text-anchor="start" x="9" y="-82" font-family="Helvetica,sans-Serif" font-size="10.00">+</text>
<text text-anchor="start" x="22" y="-82" font-family="Helvetica,sans-Serif" font-size="10.00">AOWProjectile()</text>
<text text-anchor="start" x="9" y="-67" font-family="Helvetica,sans-Serif" font-size="10.00">+</text>
<text text-anchor="start" x="22" y="-67" font-family="Helvetica,sans-Serif" font-size="10.00">SetDamageSpecHandle()</text>
<text text-anchor="start" x="9" y="-52" font-family="Helvetica,sans-Serif" font-size="10.00">+</text>
<text text-anchor="start" x="22" y="-52" font-family="Helvetica,sans-Serif" font-size="10.00">GetProjectileMovement()</text>
<text text-anchor="start" x="9" y="-37" font-family="Helvetica,sans-Serif" font-size="10.00">+</text>
<text text-anchor="start" x="22" y="-37" font-family="Helvetica,sans-Serif" font-size="10.00">SetProjectileVelocity()</text>
<text text-anchor="start" x="9" y="-22" font-family="Helvetica,sans-Serif" font-size="10.00">#</text>
<text text-anchor="start" x="22" y="-22" font-family="Helvetica,sans-Serif" font-size="10.00">BeginPlay()</text>
<text text-anchor="start" x="9" y="-7" font-family="Helvetica,sans-Serif" font-size="10.00">#</text>
<text text-anchor="start" x="22" y="-7" font-family="Helvetica,sans-Serif" font-size="10.00">OnOverlapBegin()</text>
<polygon fill="#666666" stroke="#666666" points="5,-137 5,-137 150,-137 150,-137 5,-137"/>
<polygon fill="#666666" stroke="#666666" points="5,-92 5,-92 20,-92 20,-92 5,-92"/>
<polygon fill="#666666" stroke="#666666" points="20,-92 20,-92 150,-92 150,-92 20,-92"/>
<polygon fill="none" stroke="#666666" points="4.5,0 4.5,-154 149.5,-154 149.5,0 4.5,0"/>
</a>
</g>
</g>
<!-- Node2 -->
<g id="Node000002" class="node">
<title>Node2</title>
<g id="a_Node000002"><a xlink:href="classAOWCollisionHit.html" target="_top" xlink:title=" ">
<polygon fill="white" stroke="transparent" points="154,-359 0,-359 0,-190 154,-190 154,-359"/>
<text text-anchor="start" x="36.5" y="-346.5" font-family="Helvetica,sans-Serif" font-size="10.00">AOWCollisionHit</text>
<text text-anchor="start" x="4" y="-331.5" font-family="Helvetica,sans-Serif" font-size="10.00">+</text>
<text text-anchor="start" x="17" y="-331.5" font-family="Helvetica,sans-Serif" font-size="10.00">HitEffectSpec</text>
<text text-anchor="start" x="4" y="-316.5" font-family="Helvetica,sans-Serif" font-size="10.00">+</text>
<text text-anchor="start" x="17" y="-316.5" font-family="Helvetica,sans-Serif" font-size="10.00">OverlapEffectSpec</text>
<text text-anchor="start" x="4" y="-301.5" font-family="Helvetica,sans-Serif" font-size="10.00">#</text>
<text text-anchor="start" x="17" y="-301.5" font-family="Helvetica,sans-Serif" font-size="10.00">CollisionComp</text>
<text text-anchor="start" x="4" y="-286.5" font-family="Helvetica,sans-Serif" font-size="10.00">#</text>
<text text-anchor="start" x="17" y="-286.5" font-family="Helvetica,sans-Serif" font-size="10.00">HitHandler</text>
<text text-anchor="start" x="4" y="-271.5" font-family="Helvetica,sans-Serif" font-size="10.00">#</text>
<text text-anchor="start" x="17" y="-271.5" font-family="Helvetica,sans-Serif" font-size="10.00">OverlapHandler</text>
<text text-anchor="start" x="4" y="-256.5" font-family="Helvetica,sans-Serif" font-size="10.00">+</text>
<text text-anchor="start" x="17" y="-256.5" font-family="Helvetica,sans-Serif" font-size="10.00">AOWCollisionHit()</text>
<text text-anchor="start" x="4" y="-241.5" font-family="Helvetica,sans-Serif" font-size="10.00">#</text>
<text text-anchor="start" x="17" y="-241.5" font-family="Helvetica,sans-Serif" font-size="10.00">BeginPlay()</text>
<text text-anchor="start" x="4" y="-226.5" font-family="Helvetica,sans-Serif" font-size="10.00">#</text>
<text text-anchor="start" x="17" y="-226.5" font-family="Helvetica,sans-Serif" font-size="10.00">PostInitializeComponents()</text>
<text text-anchor="start" x="4" y="-211.5" font-family="Helvetica,sans-Serif" font-size="10.00">#</text>
<text text-anchor="start" x="17" y="-211.5" font-family="Helvetica,sans-Serif" font-size="10.00">OnOverlapBegin()</text>
<text text-anchor="start" x="4" y="-196.5" font-family="Helvetica,sans-Serif" font-size="10.00">#</text>
<text text-anchor="start" x="17" y="-196.5" font-family="Helvetica,sans-Serif" font-size="10.00">OnHit()</text>
<polygon fill="#bfbfbf" stroke="#bfbfbf" points="0,-341.5 0,-341.5 154,-341.5 154,-341.5 0,-341.5"/>
<polygon fill="#bfbfbf" stroke="#bfbfbf" points="0,-266.5 0,-266.5 15,-266.5 15,-266.5 0,-266.5"/>
<polygon fill="#bfbfbf" stroke="#bfbfbf" points="15,-266.5 15,-266.5 154,-266.5 154,-266.5 15,-266.5"/>
<polygon fill="none" stroke="#bfbfbf" points="0,-190 0,-359 154,-359 154,-190 0,-190"/>
</a>
</g>
</g>
<!-- Node2&#45;&gt;Node1 -->
<g id="edge1_Node000001_Node000002" class="edge">
<title>Node2&#45;&gt;Node1</title>
<g id="a_edge1_Node000001_Node000002"><a xlink:title=" ">
<path fill="none" stroke="#63b8ff" d="M77,-179.72C77,-171.16 77,-162.55 77,-154.17"/>
<polygon fill="none" stroke="#63b8ff" points="73.5,-179.74 77,-189.74 80.5,-179.74 73.5,-179.74"/>
</a>
</g>
</g>
<!-- Node3 -->
<g id="Node000003" class="node">
<title>Node3</title>
<g id="a_Node000003"><a xlink:title=" ">
<polygon fill="white" stroke="transparent" points="98.5,-444 55.5,-444 55.5,-395 98.5,-395 98.5,-444"/>
<text text-anchor="start" x="61" y="-431.5" font-family="Helvetica,sans-Serif" font-size="10.00">AActor</text>
<text text-anchor="start" x="75.5" y="-416.5" font-family="Helvetica,sans-Serif" font-size="10.00"> </text>
<text text-anchor="start" x="75.5" y="-401.5" font-family="Helvetica,sans-Serif" font-size="10.00"> </text>
<polygon fill="#bfbfbf" stroke="#bfbfbf" points="56,-426.5 56,-426.5 99,-426.5 99,-426.5 56,-426.5"/>
<polygon fill="#bfbfbf" stroke="#bfbfbf" points="56,-411.5 56,-411.5 99,-411.5 99,-411.5 56,-411.5"/>
<polygon fill="none" stroke="#bfbfbf" points="55.5,-395 55.5,-444 98.5,-444 98.5,-395 55.5,-395"/>
</a>
</g>
</g>
<!-- Node3&#45;&gt;Node2 -->
<g id="edge2_Node000002_Node000003" class="edge">
<title>Node3&#45;&gt;Node2</title>
<g id="a_edge2_Node000002_Node000003"><a xlink:title=" ">
<path fill="none" stroke="#63b8ff" d="M77,-384.72C77,-376.84 77,-368.1 77,-359.1"/>
<polygon fill="none" stroke="#63b8ff" points="73.5,-384.89 77,-394.89 80.5,-384.89 73.5,-384.89"/>
</a>
</g>
</g>
</g>
</svg>
