<?xml version="1.0" encoding="UTF-8" standalone="no"?>
<!DOCTYPE svg PUBLIC "-//W3C//DTD SVG 1.1//EN"
 "http://www.w3.org/Graphics/SVG/1.1/DTD/svg11.dtd">
<!-- Generated by graphviz version 2.43.0 (0)
 -->
<!-- Title: AOWMonster Pages: 1 -->
<svg width="195pt" height="392pt"
 viewBox="0.00 0.00 195.00 392.00" xmlns="http://www.w3.org/2000/svg" xmlns:xlink="http://www.w3.org/1999/xlink">
<g id="graph0" class="graph" transform="scale(1 1) rotate(0) translate(4 388)">
<title>AOWMonster</title>
<!-- Node1 -->
<g id="Node000001" class="node">
<title>Node1</title>
<g id="a_Node000001"><a xlink:title=" ">
<polygon fill="#999999" stroke="transparent" points="140,-64 47,-64 47,0 140,0 140,-64"/>
<text text-anchor="start" x="62" y="-52" font-family="Helvetica,sans-Serif" font-size="10.00">AOWMonster</text>
<text text-anchor="start" x="51.5" y="-37" font-family="Helvetica,sans-Serif" font-size="10.00">#</text>
<text text-anchor="start" x="64.5" y="-37" font-family="Helvetica,sans-Serif" font-size="10.00">AbilitySet</text>
<text text-anchor="start" x="51.5" y="-22" font-family="Helvetica,sans-Serif" font-size="10.00">+</text>
<text text-anchor="start" x="64.5" y="-22" font-family="Helvetica,sans-Serif" font-size="10.00">AOWMonster()</text>
<text text-anchor="start" x="51.5" y="-7" font-family="Helvetica,sans-Serif" font-size="10.00">#</text>
<text text-anchor="start" x="64.5" y="-7" font-family="Helvetica,sans-Serif" font-size="10.00">BeginPlay()</text>
<polygon fill="#666666" stroke="#666666" points="47.5,-47 47.5,-47 140.5,-47 140.5,-47 47.5,-47"/>
<polygon fill="#666666" stroke="#666666" points="47.5,-32 47.5,-32 62.5,-32 62.5,-32 47.5,-32"/>
<polygon fill="#666666" stroke="#666666" points="62.5,-32 62.5,-32 140.5,-32 140.5,-32 62.5,-32"/>
<polygon fill="none" stroke="#666666" points="47,0 47,-64 140,-64 140,0 47,0"/>
</a>
</g>
</g>
<!-- Node2 -->
<g id="Node000002" class="node">
<title>Node2</title>
<g id="a_Node000002"><a xlink:href="classAOWCharacter.html" target="_top" xlink:title=" ">
<polygon fill="white" stroke="transparent" points="187,-299 0,-299 0,-100 187,-100 187,-299"/>
<text text-anchor="start" x="58" y="-286.5" font-family="Helvetica,sans-Serif" font-size="10.00">AOWCharacter</text>
<text text-anchor="start" x="4.5" y="-271.5" font-family="Helvetica,sans-Serif" font-size="10.00">+</text>
<text text-anchor="start" x="17.5" y="-271.5" font-family="Helvetica,sans-Serif" font-size="10.00">WeaponComponent</text>
<text text-anchor="start" x="4.5" y="-256.5" font-family="Helvetica,sans-Serif" font-size="10.00">#</text>
<text text-anchor="start" x="17.5" y="-256.5" font-family="Helvetica,sans-Serif" font-size="10.00">AbilitySystemComponent</text>
<text text-anchor="start" x="4.5" y="-241.5" font-family="Helvetica,sans-Serif" font-size="10.00">#</text>
<text text-anchor="start" x="17.5" y="-241.5" font-family="Helvetica,sans-Serif" font-size="10.00">FirstPersonCamera</text>
<text text-anchor="start" x="4.5" y="-226.5" font-family="Helvetica,sans-Serif" font-size="10.00">+</text>
<text text-anchor="start" x="17.5" y="-226.5" font-family="Helvetica,sans-Serif" font-size="10.00">AOWCharacter()</text>
<text text-anchor="start" x="4.5" y="-211.5" font-family="Helvetica,sans-Serif" font-size="10.00">+</text>
<text text-anchor="start" x="17.5" y="-211.5" font-family="Helvetica,sans-Serif" font-size="10.00">Move()</text>
<text text-anchor="start" x="4.5" y="-196.5" font-family="Helvetica,sans-Serif" font-size="10.00">+</text>
<text text-anchor="start" x="17.5" y="-196.5" font-family="Helvetica,sans-Serif" font-size="10.00">Look()</text>
<text text-anchor="start" x="4.5" y="-181.5" font-family="Helvetica,sans-Serif" font-size="10.00">+</text>
<text text-anchor="start" x="17.5" y="-181.5" font-family="Helvetica,sans-Serif" font-size="10.00">ActivateAbility()</text>
<text text-anchor="start" x="4.5" y="-166.5" font-family="Helvetica,sans-Serif" font-size="10.00">+</text>
<text text-anchor="start" x="17.5" y="-166.5" font-family="Helvetica,sans-Serif" font-size="10.00">GetOWAbilitySystemComponent()</text>
<text text-anchor="start" x="4.5" y="-151.5" font-family="Helvetica,sans-Serif" font-size="10.00">+</text>
<text text-anchor="start" x="17.5" y="-151.5" font-family="Helvetica,sans-Serif" font-size="10.00">Jump()</text>
<text text-anchor="start" x="4.5" y="-136.5" font-family="Helvetica,sans-Serif" font-size="10.00">#</text>
<text text-anchor="start" x="17.5" y="-136.5" font-family="Helvetica,sans-Serif" font-size="10.00">BeginPlay()</text>
<text text-anchor="start" x="4.5" y="-121.5" font-family="Helvetica,sans-Serif" font-size="10.00">#</text>
<text text-anchor="start" x="17.5" y="-121.5" font-family="Helvetica,sans-Serif" font-size="10.00">PossessedBy()</text>
<text text-anchor="start" x="4.5" y="-106.5" font-family="Helvetica,sans-Serif" font-size="10.00">#</text>
<text text-anchor="start" x="17.5" y="-106.5" font-family="Helvetica,sans-Serif" font-size="10.00">OnRep_PlayerState()</text>
<polygon fill="#bfbfbf" stroke="#bfbfbf" points="0.5,-281.5 0.5,-281.5 187.5,-281.5 187.5,-281.5 0.5,-281.5"/>
<polygon fill="#bfbfbf" stroke="#bfbfbf" points="0.5,-236.5 0.5,-236.5 15.5,-236.5 15.5,-236.5 0.5,-236.5"/>
<polygon fill="#bfbfbf" stroke="#bfbfbf" points="15.5,-236.5 15.5,-236.5 187.5,-236.5 187.5,-236.5 15.5,-236.5"/>
<polygon fill="none" stroke="#bfbfbf" points="0,-100 0,-299 187,-299 187,-100 0,-100"/>
</a>
</g>
</g>
<!-- Node2&#45;&gt;Node1 -->
<g id="edge1_Node000001_Node000002" class="edge">
<title>Node2&#45;&gt;Node1</title>
<g id="a_edge1_Node000001_Node000002"><a xlink:title=" ">
<path fill="none" stroke="#63b8ff" d="M93.5,-89.72C93.5,-80.54 93.5,-71.83 93.5,-64.12"/>
<polygon fill="none" stroke="#63b8ff" points="90,-89.84 93.5,-99.84 97,-89.84 90,-89.84"/>
</a>
</g>
</g>
<!-- Node3 -->
<g id="Node000003" class="node">
<title>Node3</title>
<g id="a_Node000003"><a xlink:title=" ">
<polygon fill="white" stroke="transparent" points="126,-384 61,-384 61,-335 126,-335 126,-384"/>
<text text-anchor="start" x="66.5" y="-371.5" font-family="Helvetica,sans-Serif" font-size="10.00">ACharacter</text>
<text text-anchor="start" x="92" y="-356.5" font-family="Helvetica,sans-Serif" font-size="10.00"> </text>
<text text-anchor="start" x="92" y="-341.5" font-family="Helvetica,sans-Serif" font-size="10.00"> </text>
<polygon fill="#bfbfbf" stroke="#bfbfbf" points="61.5,-366.5 61.5,-366.5 126.5,-366.5 126.5,-366.5 61.5,-366.5"/>
<polygon fill="#bfbfbf" stroke="#bfbfbf" points="61.5,-351.5 61.5,-351.5 126.5,-351.5 126.5,-351.5 61.5,-351.5"/>
<polygon fill="none" stroke="#bfbfbf" points="61,-335 61,-384 126,-384 126,-335 61,-335"/>
</a>
</g>
</g>
<!-- Node3&#45;&gt;Node2 -->
<g id="edge2_Node000002_Node000003" class="edge">
<title>Node3&#45;&gt;Node2</title>
<g id="a_edge2_Node000002_Node000003"><a xlink:title=" ">
<path fill="none" stroke="#63b8ff" d="M93.5,-324.75C93.5,-316.89 93.5,-308.14 93.5,-299.02"/>
<polygon fill="none" stroke="#63b8ff" points="90,-324.85 93.5,-334.85 97,-324.85 90,-324.85"/>
</a>
</g>
</g>
</g>
</svg>
