<?xml version="1.0" encoding="UTF-8" standalone="no"?>
<!DOCTYPE svg PUBLIC "-//W3C//DTD SVG 1.1//EN"
 "http://www.w3.org/Graphics/SVG/1.1/DTD/svg11.dtd">
<!-- Generated by graphviz version 2.43.0 (0)
 -->
<!-- Title: AOWCharacter Pages: 1 -->
<svg width="195pt" height="407pt"
 viewBox="0.00 0.00 195.00 407.00" xmlns="http://www.w3.org/2000/svg" xmlns:xlink="http://www.w3.org/1999/xlink">
<g id="graph0" class="graph" transform="scale(1 1) rotate(0) translate(4 403)">
<title>AOWCharacter</title>
<!-- Node1 -->
<g id="Node000001" class="node">
<title>Node1</title>
<g id="a_Node000001"><a xlink:title=" ">
<polygon fill="#999999" stroke="transparent" points="187,-314 0,-314 0,-115 187,-115 187,-314"/>
<text text-anchor="start" x="58" y="-301.5" font-family="Helvetica,sans-Serif" font-size="10.00">AOWCharacter</text>
<text text-anchor="start" x="4.5" y="-286.5" font-family="Helvetica,sans-Serif" font-size="10.00">+</text>
<text text-anchor="start" x="17.5" y="-286.5" font-family="Helvetica,sans-Serif" font-size="10.00">WeaponComponent</text>
<text text-anchor="start" x="4.5" y="-271.5" font-family="Helvetica,sans-Serif" font-size="10.00">#</text>
<text text-anchor="start" x="17.5" y="-271.5" font-family="Helvetica,sans-Serif" font-size="10.00">AbilitySystemComponent</text>
<text text-anchor="start" x="4.5" y="-256.5" font-family="Helvetica,sans-Serif" font-size="10.00">#</text>
<text text-anchor="start" x="17.5" y="-256.5" font-family="Helvetica,sans-Serif" font-size="10.00">FirstPersonCamera</text>
<text text-anchor="start" x="4.5" y="-241.5" font-family="Helvetica,sans-Serif" font-size="10.00">+</text>
<text text-anchor="start" x="17.5" y="-241.5" font-family="Helvetica,sans-Serif" font-size="10.00">AOWCharacter()</text>
<text text-anchor="start" x="4.5" y="-226.5" font-family="Helvetica,sans-Serif" font-size="10.00">+</text>
<text text-anchor="start" x="17.5" y="-226.5" font-family="Helvetica,sans-Serif" font-size="10.00">Move()</text>
<text text-anchor="start" x="4.5" y="-211.5" font-family="Helvetica,sans-Serif" font-size="10.00">+</text>
<text text-anchor="start" x="17.5" y="-211.5" font-family="Helvetica,sans-Serif" font-size="10.00">Look()</text>
<text text-anchor="start" x="4.5" y="-196.5" font-family="Helvetica,sans-Serif" font-size="10.00">+</text>
<text text-anchor="start" x="17.5" y="-196.5" font-family="Helvetica,sans-Serif" font-size="10.00">ActivateAbility()</text>
<text text-anchor="start" x="4.5" y="-181.5" font-family="Helvetica,sans-Serif" font-size="10.00">+</text>
<text text-anchor="start" x="17.5" y="-181.5" font-family="Helvetica,sans-Serif" font-size="10.00">GetOWAbilitySystemComponent()</text>
<text text-anchor="start" x="4.5" y="-166.5" font-family="Helvetica,sans-Serif" font-size="10.00">+</text>
<text text-anchor="start" x="17.5" y="-166.5" font-family="Helvetica,sans-Serif" font-size="10.00">Jump()</text>
<text text-anchor="start" x="4.5" y="-151.5" font-family="Helvetica,sans-Serif" font-size="10.00">#</text>
<text text-anchor="start" x="17.5" y="-151.5" font-family="Helvetica,sans-Serif" font-size="10.00">BeginPlay()</text>
<text text-anchor="start" x="4.5" y="-136.5" font-family="Helvetica,sans-Serif" font-size="10.00">#</text>
<text text-anchor="start" x="17.5" y="-136.5" font-family="Helvetica,sans-Serif" font-size="10.00">PossessedBy()</text>
<text text-anchor="start" x="4.5" y="-121.5" font-family="Helvetica,sans-Serif" font-size="10.00">#</text>
<text text-anchor="start" x="17.5" y="-121.5" font-family="Helvetica,sans-Serif" font-size="10.00">OnRep_PlayerState()</text>
<polygon fill="#666666" stroke="#666666" points="0.5,-296.5 0.5,-296.5 187.5,-296.5 187.5,-296.5 0.5,-296.5"/>
<polygon fill="#666666" stroke="#666666" points="0.5,-251.5 0.5,-251.5 15.5,-251.5 15.5,-251.5 0.5,-251.5"/>
<polygon fill="#666666" stroke="#666666" points="15.5,-251.5 15.5,-251.5 187.5,-251.5 187.5,-251.5 15.5,-251.5"/>
<polygon fill="none" stroke="#666666" points="0,-115 0,-314 187,-314 187,-115 0,-115"/>
</a>
</g>
</g>
<!-- Node3 -->
<g id="Node000003" class="node">
<title>Node3</title>
<g id="a_Node000003"><a xlink:href="classAOWMonster.html" target="_top" xlink:title=" ">
<polygon fill="white" stroke="transparent" points="140,-79 47,-79 47,0 140,0 140,-79"/>
<text text-anchor="start" x="62" y="-66.5" font-family="Helvetica,sans-Serif" font-size="10.00">AOWMonster</text>
<text text-anchor="start" x="51.5" y="-51.5" font-family="Helvetica,sans-Serif" font-size="10.00">#</text>
<text text-anchor="start" x="64.5" y="-51.5" font-family="Helvetica,sans-Serif" font-size="10.00">AbilitySet</text>
<text text-anchor="start" x="51.5" y="-36.5" font-family="Helvetica,sans-Serif" font-size="10.00">+</text>
<text text-anchor="start" x="64.5" y="-36.5" font-family="Helvetica,sans-Serif" font-size="10.00">AOWMonster()</text>
<text text-anchor="start" x="51.5" y="-21.5" font-family="Helvetica,sans-Serif" font-size="10.00">#</text>
<text text-anchor="start" x="64.5" y="-21.5" font-family="Helvetica,sans-Serif" font-size="10.00">BeginPlay()</text>
<text text-anchor="start" x="51.5" y="-6.5" font-family="Helvetica,sans-Serif" font-size="10.00">#</text>
<text text-anchor="start" x="64.5" y="-6.5" font-family="Helvetica,sans-Serif" font-size="10.00">Tick()</text>
<polygon fill="#bfbfbf" stroke="#bfbfbf" points="47.5,-61.5 47.5,-61.5 140.5,-61.5 140.5,-61.5 47.5,-61.5"/>
<polygon fill="#bfbfbf" stroke="#bfbfbf" points="47.5,-46.5 47.5,-46.5 62.5,-46.5 62.5,-46.5 47.5,-46.5"/>
<polygon fill="#bfbfbf" stroke="#bfbfbf" points="62.5,-46.5 62.5,-46.5 140.5,-46.5 140.5,-46.5 62.5,-46.5"/>
<polygon fill="none" stroke="#bfbfbf" points="47,0 47,-79 140,-79 140,0 47,0"/>
</a>
</g>
</g>
<!-- Node1&#45;&gt;Node3 -->
<g id="edge2_Node000001_Node000003" class="edge">
<title>Node1&#45;&gt;Node3</title>
<g id="a_edge2_Node000001_Node000003"><a xlink:title=" ">
<path fill="none" stroke="#63b8ff" d="M93.5,-104.64C93.5,-95.69 93.5,-87.08 93.5,-79.23"/>
<polygon fill="none" stroke="#63b8ff" points="90,-104.87 93.5,-114.87 97,-104.87 90,-104.87"/>
</a>
</g>
</g>
<!-- Node2 -->
<g id="Node000002" class="node">
<title>Node2</title>
<g id="a_Node000002"><a xlink:title=" ">
<polygon fill="white" stroke="transparent" points="126,-399 61,-399 61,-350 126,-350 126,-399"/>
<text text-anchor="start" x="66.5" y="-386.5" font-family="Helvetica,sans-Serif" font-size="10.00">ACharacter</text>
<text text-anchor="start" x="92" y="-371.5" font-family="Helvetica,sans-Serif" font-size="10.00"> </text>
<text text-anchor="start" x="92" y="-356.5" font-family="Helvetica,sans-Serif" font-size="10.00"> </text>
<polygon fill="#bfbfbf" stroke="#bfbfbf" points="61.5,-381.5 61.5,-381.5 126.5,-381.5 126.5,-381.5 61.5,-381.5"/>
<polygon fill="#bfbfbf" stroke="#bfbfbf" points="61.5,-366.5 61.5,-366.5 126.5,-366.5 126.5,-366.5 61.5,-366.5"/>
<polygon fill="none" stroke="#bfbfbf" points="61,-350 61,-399 126,-399 126,-350 61,-350"/>
</a>
</g>
</g>
<!-- Node2&#45;&gt;Node1 -->
<g id="edge1_Node000001_Node000002" class="edge">
<title>Node2&#45;&gt;Node1</title>
<g id="a_edge1_Node000001_Node000002"><a xlink:title=" ">
<path fill="none" stroke="#63b8ff" d="M93.5,-339.75C93.5,-331.89 93.5,-323.14 93.5,-314.02"/>
<polygon fill="none" stroke="#63b8ff" points="90,-339.85 93.5,-349.85 97,-339.85 90,-339.85"/>
</a>
</g>
</g>
</g>
</svg>
