<?xml version="1.0" encoding="UTF-8" standalone="no"?>
<!DOCTYPE svg PUBLIC "-//W3C//DTD SVG 1.1//EN"
 "http://www.w3.org/Graphics/SVG/1.1/DTD/svg11.dtd">
<!-- Generated by graphviz version 2.43.0 (0)
 -->
<!-- Title: UOWGA_Active Pages: 1 -->
<svg width="637pt" height="637pt"
 viewBox="0.00 0.00 637.00 637.00" xmlns="http://www.w3.org/2000/svg" xmlns:xlink="http://www.w3.org/1999/xlink">
<g id="graph0" class="graph" transform="scale(1 1) rotate(0) translate(4 633)">
<title>UOWGA_Active</title>
<!-- Node1 -->
<g id="Node000001" class="node">
<title>Node1</title>
<g id="a_Node000001"><a xlink:title=" ">
<polygon fill="#999999" stroke="transparent" points="426.5,-354 322.5,-354 322.5,-305 426.5,-305 426.5,-354"/>
<text text-anchor="start" x="336.5" y="-341.5" font-family="Helvetica,sans-Serif" font-size="10.00">UOWGA_Active</text>
<text text-anchor="start" x="372.5" y="-326.5" font-family="Helvetica,sans-Serif" font-size="10.00"> </text>
<text text-anchor="start" x="326.5" y="-311.5" font-family="Helvetica,sans-Serif" font-size="10.00">+</text>
<text text-anchor="start" x="339.5" y="-311.5" font-family="Helvetica,sans-Serif" font-size="10.00">UOWGA_Active()</text>
<polygon fill="#666666" stroke="#666666" points="322.5,-336.5 322.5,-336.5 426.5,-336.5 426.5,-336.5 322.5,-336.5"/>
<polygon fill="#666666" stroke="#666666" points="322.5,-321.5 322.5,-321.5 426.5,-321.5 426.5,-321.5 322.5,-321.5"/>
<polygon fill="none" stroke="#666666" points="322.5,-305 322.5,-354 426.5,-354 426.5,-305 322.5,-305"/>
</a>
</g>
</g>
<!-- Node4 -->
<g id="Node000004" class="node">
<title>Node4</title>
<g id="a_Node000004"><a xlink:href="classUOWGA__Active__GunFire.html" target="_top" xlink:title=" ">
<polygon fill="white" stroke="transparent" points="218,-254 71,-254 71,-175 218,-175 218,-254"/>
<text text-anchor="start" x="86" y="-241.5" font-family="Helvetica,sans-Serif" font-size="10.00">UOWGA_Active_GunFire</text>
<text text-anchor="start" x="75.5" y="-226.5" font-family="Helvetica,sans-Serif" font-size="10.00">#</text>
<text text-anchor="start" x="88.5" y="-226.5" font-family="Helvetica,sans-Serif" font-size="10.00">WeaponComp</text>
<text text-anchor="start" x="75.5" y="-211.5" font-family="Helvetica,sans-Serif" font-size="10.00">+</text>
<text text-anchor="start" x="88.5" y="-211.5" font-family="Helvetica,sans-Serif" font-size="10.00">UOWGA_Active_GunFire()</text>
<text text-anchor="start" x="75.5" y="-196.5" font-family="Helvetica,sans-Serif" font-size="10.00">+</text>
<text text-anchor="start" x="88.5" y="-196.5" font-family="Helvetica,sans-Serif" font-size="10.00">ActivateAbility()</text>
<text text-anchor="start" x="75.5" y="-181.5" font-family="Helvetica,sans-Serif" font-size="10.00">+</text>
<text text-anchor="start" x="88.5" y="-181.5" font-family="Helvetica,sans-Serif" font-size="10.00">Shoot()</text>
<polygon fill="#bfbfbf" stroke="#bfbfbf" points="71.5,-236.5 71.5,-236.5 218.5,-236.5 218.5,-236.5 71.5,-236.5"/>
<polygon fill="#bfbfbf" stroke="#bfbfbf" points="71.5,-221.5 71.5,-221.5 86.5,-221.5 86.5,-221.5 71.5,-221.5"/>
<polygon fill="#bfbfbf" stroke="#bfbfbf" points="86.5,-221.5 86.5,-221.5 218.5,-221.5 218.5,-221.5 86.5,-221.5"/>
<polygon fill="none" stroke="#bfbfbf" points="71,-175 71,-254 218,-254 218,-175 71,-175"/>
</a>
</g>
</g>
<!-- Node1&#45;&gt;Node4 -->
<g id="edge3_Node000001_Node000004" class="edge">
<title>Node1&#45;&gt;Node4</title>
<g id="a_edge3_Node000001_Node000004"><a xlink:title=" ">
<path fill="none" stroke="#63b8ff" d="M313,-306.87C285.93,-296.57 254.07,-283.36 226.5,-269 217.91,-264.52 209.07,-259.39 200.54,-254.11"/>
<polygon fill="none" stroke="#63b8ff" points="311.77,-310.15 322.36,-310.39 314.23,-303.6 311.77,-310.15"/>
</a>
</g>
</g>
<!-- Node7 -->
<g id="Node000007" class="node">
<title>Node7</title>
<g id="a_Node000007"><a xlink:href="classUOWGA__CyberAgility.html" target="_top" xlink:title=" ">
<polygon fill="white" stroke="transparent" points="369,-261.5 236,-261.5 236,-167.5 369,-167.5 369,-261.5"/>
<text text-anchor="start" x="250.5" y="-249.5" font-family="Helvetica,sans-Serif" font-size="10.00">UOWGA_CyberAgility</text>
<text text-anchor="start" x="240.5" y="-234.5" font-family="Helvetica,sans-Serif" font-size="10.00">#</text>
<text text-anchor="start" x="253.5" y="-234.5" font-family="Helvetica,sans-Serif" font-size="10.00">DoubleJumpStrength</text>
<text text-anchor="start" x="240.5" y="-219.5" font-family="Helvetica,sans-Serif" font-size="10.00">#</text>
<text text-anchor="start" x="253.5" y="-219.5" font-family="Helvetica,sans-Serif" font-size="10.00">bDoubleJumpUsed</text>
<text text-anchor="start" x="240.5" y="-204.5" font-family="Helvetica,sans-Serif" font-size="10.00">+</text>
<text text-anchor="start" x="253.5" y="-204.5" font-family="Helvetica,sans-Serif" font-size="10.00">UOWGA_CyberAgility()</text>
<text text-anchor="start" x="240.5" y="-189.5" font-family="Helvetica,sans-Serif" font-size="10.00">+</text>
<text text-anchor="start" x="253.5" y="-189.5" font-family="Helvetica,sans-Serif" font-size="10.00">ActivateAbility()</text>
<text text-anchor="start" x="240.5" y="-174.5" font-family="Helvetica,sans-Serif" font-size="10.00">#</text>
<text text-anchor="start" x="253.5" y="-174.5" font-family="Helvetica,sans-Serif" font-size="10.00">OnLanded()</text>
<polygon fill="#bfbfbf" stroke="#bfbfbf" points="236.5,-244.5 236.5,-244.5 369.5,-244.5 369.5,-244.5 236.5,-244.5"/>
<polygon fill="#bfbfbf" stroke="#bfbfbf" points="236.5,-214.5 236.5,-214.5 251.5,-214.5 251.5,-214.5 236.5,-214.5"/>
<polygon fill="#bfbfbf" stroke="#bfbfbf" points="251.5,-214.5 251.5,-214.5 369.5,-214.5 369.5,-214.5 251.5,-214.5"/>
<polygon fill="none" stroke="#bfbfbf" points="236,-167.5 236,-261.5 369,-261.5 369,-167.5 236,-167.5"/>
</a>
</g>
</g>
<!-- Node1&#45;&gt;Node7 -->
<g id="edge6_Node000001_Node000007" class="edge">
<title>Node1&#45;&gt;Node7</title>
<g id="a_edge6_Node000001_Node000007"><a xlink:title=" ">
<path fill="none" stroke="#63b8ff" d="M353.88,-296.14C347.02,-285.36 339.23,-273.14 331.83,-261.53"/>
<polygon fill="none" stroke="#63b8ff" points="351.08,-298.26 359.41,-304.81 356.98,-294.5 351.08,-298.26"/>
</a>
</g>
</g>
<!-- Node8 -->
<g id="Node000008" class="node">
<title>Node8</title>
<g id="a_Node000008"><a xlink:href="classUOWGA__Deflect.html" target="_top" xlink:title=" ">
<polygon fill="white" stroke="transparent" points="507.5,-269 387.5,-269 387.5,-160 507.5,-160 507.5,-269"/>
<text text-anchor="start" x="408" y="-256.5" font-family="Helvetica,sans-Serif" font-size="10.00">UOWGA_Deflect</text>
<text text-anchor="start" x="391.5" y="-241.5" font-family="Helvetica,sans-Serif" font-size="10.00">#</text>
<text text-anchor="start" x="404.5" y="-241.5" font-family="Helvetica,sans-Serif" font-size="10.00">DeflectTimerHandle</text>
<text text-anchor="start" x="391.5" y="-226.5" font-family="Helvetica,sans-Serif" font-size="10.00">#</text>
<text text-anchor="start" x="404.5" y="-226.5" font-family="Helvetica,sans-Serif" font-size="10.00">DeflectDuration</text>
<text text-anchor="start" x="391.5" y="-211.5" font-family="Helvetica,sans-Serif" font-size="10.00">+</text>
<text text-anchor="start" x="404.5" y="-211.5" font-family="Helvetica,sans-Serif" font-size="10.00">CanActivateAbility()</text>
<text text-anchor="start" x="391.5" y="-196.5" font-family="Helvetica,sans-Serif" font-size="10.00">+</text>
<text text-anchor="start" x="404.5" y="-196.5" font-family="Helvetica,sans-Serif" font-size="10.00">ActivateAbility()</text>
<text text-anchor="start" x="391.5" y="-181.5" font-family="Helvetica,sans-Serif" font-size="10.00">+</text>
<text text-anchor="start" x="404.5" y="-181.5" font-family="Helvetica,sans-Serif" font-size="10.00">EndAbility()</text>
<text text-anchor="start" x="391.5" y="-166.5" font-family="Helvetica,sans-Serif" font-size="10.00">#</text>
<text text-anchor="start" x="404.5" y="-166.5" font-family="Helvetica,sans-Serif" font-size="10.00">OnDeflectEnd()</text>
<polygon fill="#bfbfbf" stroke="#bfbfbf" points="387.5,-251.5 387.5,-251.5 507.5,-251.5 507.5,-251.5 387.5,-251.5"/>
<polygon fill="#bfbfbf" stroke="#bfbfbf" points="387.5,-221.5 387.5,-221.5 402.5,-221.5 402.5,-221.5 387.5,-221.5"/>
<polygon fill="#bfbfbf" stroke="#bfbfbf" points="402.5,-221.5 402.5,-221.5 507.5,-221.5 507.5,-221.5 402.5,-221.5"/>
<polygon fill="none" stroke="#bfbfbf" points="387.5,-160 387.5,-269 507.5,-269 507.5,-160 387.5,-160"/>
</a>
</g>
</g>
<!-- Node1&#45;&gt;Node8 -->
<g id="edge7_Node000001_Node000008" class="edge">
<title>Node1&#45;&gt;Node8</title>
<g id="a_edge7_Node000001_Node000008"><a xlink:title=" ">
<path fill="none" stroke="#63b8ff" d="M395.24,-296.4C400.68,-287.97 406.71,-278.65 412.67,-269.41"/>
<polygon fill="none" stroke="#63b8ff" points="392.29,-294.51 389.8,-304.81 398.17,-298.31 392.29,-294.51"/>
</a>
</g>
</g>
<!-- Node9 -->
<g id="Node000009" class="node">
<title>Node9</title>
<g id="a_Node000009"><a xlink:href="classUOWGA__FastZoom.html" target="_top" xlink:title=" ">
<polygon fill="white" stroke="transparent" points="629,-246.5 526,-246.5 526,-182.5 629,-182.5 629,-246.5"/>
<text text-anchor="start" x="531.5" y="-234.5" font-family="Helvetica,sans-Serif" font-size="10.00">UOWGA_FastZoom</text>
<text text-anchor="start" x="531" y="-219.5" font-family="Helvetica,sans-Serif" font-size="10.00">#</text>
<text text-anchor="start" x="544.5" y="-219.5" font-family="Helvetica,sans-Serif" font-size="10.00">ZoomFOV</text>
<text text-anchor="start" x="531" y="-204.5" font-family="Helvetica,sans-Serif" font-size="10.00">+</text>
<text text-anchor="start" x="544.5" y="-204.5" font-family="Helvetica,sans-Serif" font-size="10.00">ActivateAbility()</text>
<text text-anchor="start" x="531" y="-189.5" font-family="Helvetica,sans-Serif" font-size="10.00">+</text>
<text text-anchor="start" x="544.5" y="-189.5" font-family="Helvetica,sans-Serif" font-size="10.00">EndAbility()</text>
<polygon fill="#bfbfbf" stroke="#bfbfbf" points="526.5,-229.5 526.5,-229.5 629.5,-229.5 629.5,-229.5 526.5,-229.5"/>
<polygon fill="#bfbfbf" stroke="#bfbfbf" points="526.5,-214.5 526.5,-214.5 542.5,-214.5 542.5,-214.5 526.5,-214.5"/>
<polygon fill="#bfbfbf" stroke="#bfbfbf" points="542.5,-214.5 542.5,-214.5 629.5,-214.5 629.5,-214.5 542.5,-214.5"/>
<polygon fill="none" stroke="#bfbfbf" points="526,-182.5 526,-246.5 629,-246.5 629,-182.5 526,-182.5"/>
</a>
</g>
</g>
<!-- Node1&#45;&gt;Node9 -->
<g id="edge8_Node000001_Node000009" class="edge">
<title>Node1&#45;&gt;Node9</title>
<g id="a_edge8_Node000001_Node000009"><a xlink:title=" ">
<path fill="none" stroke="#63b8ff" d="M436.39,-307.58C462.1,-297.64 491.67,-284.51 516.5,-269 526.65,-262.66 536.79,-254.63 545.8,-246.73"/>
<polygon fill="none" stroke="#63b8ff" points="434.85,-304.42 426.74,-311.24 437.33,-310.97 434.85,-304.42"/>
</a>
</g>
</g>
<!-- Node2 -->
<g id="Node000002" class="node">
<title>Node2</title>
<g id="a_Node000002"><a xlink:href="classUOWGameplayAbility.html" target="_top" xlink:title=" ">
<polygon fill="white" stroke="transparent" points="443,-544 306,-544 306,-390 443,-390 443,-544"/>
<text text-anchor="start" x="321.5" y="-532" font-family="Helvetica,sans-Serif" font-size="10.00">UOWGameplayAbility</text>
<text text-anchor="start" x="310.5" y="-517" font-family="Helvetica,sans-Serif" font-size="10.00">#</text>
<text text-anchor="start" x="323.5" y="-517" font-family="Helvetica,sans-Serif" font-size="10.00">CooldownDuration</text>
<text text-anchor="start" x="310.5" y="-502" font-family="Helvetica,sans-Serif" font-size="10.00">#</text>
<text text-anchor="start" x="323.5" y="-502" font-family="Helvetica,sans-Serif" font-size="10.00">CooldownTags</text>
<text text-anchor="start" x="310.5" y="-487" font-family="Helvetica,sans-Serif" font-size="10.00">#</text>
<text text-anchor="start" x="323.5" y="-487" font-family="Helvetica,sans-Serif" font-size="10.00">GameplayEffectClasses</text>
<text text-anchor="start" x="310.5" y="-472" font-family="Helvetica,sans-Serif" font-size="10.00">+</text>
<text text-anchor="start" x="323.5" y="-472" font-family="Helvetica,sans-Serif" font-size="10.00">UOWGameplayAbility()</text>
<text text-anchor="start" x="310.5" y="-457" font-family="Helvetica,sans-Serif" font-size="10.00">+</text>
<text text-anchor="start" x="323.5" y="-457" font-family="Helvetica,sans-Serif" font-size="10.00">SetCooldownData()</text>
<text text-anchor="start" x="310.5" y="-442" font-family="Helvetica,sans-Serif" font-size="10.00">+</text>
<text text-anchor="start" x="323.5" y="-442" font-family="Helvetica,sans-Serif" font-size="10.00">SetCostEffect()</text>
<text text-anchor="start" x="310.5" y="-427" font-family="Helvetica,sans-Serif" font-size="10.00">+</text>
<text text-anchor="start" x="323.5" y="-427" font-family="Helvetica,sans-Serif" font-size="10.00">ApplyCooldown()</text>
<text text-anchor="start" x="310.5" y="-412" font-family="Helvetica,sans-Serif" font-size="10.00">+</text>
<text text-anchor="start" x="323.5" y="-412" font-family="Helvetica,sans-Serif" font-size="10.00">CanActivateAbility()</text>
<text text-anchor="start" x="310.5" y="-397" font-family="Helvetica,sans-Serif" font-size="10.00">+</text>
<text text-anchor="start" x="323.5" y="-397" font-family="Helvetica,sans-Serif" font-size="10.00">ActivateAbility()</text>
<polygon fill="#bfbfbf" stroke="#bfbfbf" points="306.5,-527 306.5,-527 443.5,-527 443.5,-527 306.5,-527"/>
<polygon fill="#bfbfbf" stroke="#bfbfbf" points="306.5,-482 306.5,-482 321.5,-482 321.5,-482 306.5,-482"/>
<polygon fill="#bfbfbf" stroke="#bfbfbf" points="321.5,-482 321.5,-482 443.5,-482 443.5,-482 321.5,-482"/>
<polygon fill="none" stroke="#bfbfbf" points="306,-390 306,-544 443,-544 443,-390 306,-390"/>
</a>
</g>
</g>
<!-- Node2&#45;&gt;Node1 -->
<g id="edge1_Node000001_Node000002" class="edge">
<title>Node2&#45;&gt;Node1</title>
<g id="a_edge1_Node000001_Node000002"><a xlink:title=" ">
<path fill="none" stroke="#63b8ff" d="M374.5,-379.67C374.5,-370.37 374.5,-361.57 374.5,-354.06"/>
<polygon fill="none" stroke="#63b8ff" points="371,-379.93 374.5,-389.93 378,-379.93 371,-379.93"/>
</a>
</g>
</g>
<!-- Node3 -->
<g id="Node000003" class="node">
<title>Node3</title>
<g id="a_Node000003"><a xlink:title=" ">
<polygon fill="white" stroke="transparent" points="424.5,-629 324.5,-629 324.5,-580 424.5,-580 424.5,-629"/>
<text text-anchor="start" x="329.5" y="-616.5" font-family="Helvetica,sans-Serif" font-size="10.00">UGameplayAbility</text>
<text text-anchor="start" x="372.5" y="-601.5" font-family="Helvetica,sans-Serif" font-size="10.00"> </text>
<text text-anchor="start" x="372.5" y="-586.5" font-family="Helvetica,sans-Serif" font-size="10.00"> </text>
<polygon fill="#bfbfbf" stroke="#bfbfbf" points="324.5,-611.5 324.5,-611.5 424.5,-611.5 424.5,-611.5 324.5,-611.5"/>
<polygon fill="#bfbfbf" stroke="#bfbfbf" points="324.5,-596.5 324.5,-596.5 424.5,-596.5 424.5,-596.5 324.5,-596.5"/>
<polygon fill="none" stroke="#bfbfbf" points="324.5,-580 324.5,-629 424.5,-629 424.5,-580 324.5,-580"/>
</a>
</g>
</g>
<!-- Node3&#45;&gt;Node2 -->
<g id="edge2_Node000002_Node000003" class="edge">
<title>Node3&#45;&gt;Node2</title>
<g id="a_edge2_Node000002_Node000003"><a xlink:title=" ">
<path fill="none" stroke="#63b8ff" d="M374.5,-569.66C374.5,-561.74 374.5,-552.97 374.5,-544.01"/>
<polygon fill="none" stroke="#63b8ff" points="371,-569.9 374.5,-579.9 378,-569.9 371,-569.9"/>
</a>
</g>
</g>
<!-- Node5 -->
<g id="Node000005" class="node">
<title>Node5</title>
<g id="a_Node000005"><a xlink:href="classUOWGA__ShurikenMain.html" target="_top" xlink:title=" ">
<polygon fill="white" stroke="transparent" points="139,-124 0,-124 0,0 139,0 139,-124"/>
<text text-anchor="start" x="14.5" y="-112" font-family="Helvetica,sans-Serif" font-size="10.00">UOWGA_ShurikenMain</text>
<text text-anchor="start" x="68" y="-97" font-family="Helvetica,sans-Serif" font-size="10.00"> </text>
<text text-anchor="start" x="4.5" y="-82" font-family="Helvetica,sans-Serif" font-size="10.00">+</text>
<text text-anchor="start" x="17.5" y="-82" font-family="Helvetica,sans-Serif" font-size="10.00">UOWGA_ShurikenMain()</text>
<text text-anchor="start" x="4.5" y="-67" font-family="Helvetica,sans-Serif" font-size="10.00">+</text>
<text text-anchor="start" x="17.5" y="-67" font-family="Helvetica,sans-Serif" font-size="10.00">SetCurrentMontage()</text>
<text text-anchor="start" x="4.5" y="-52" font-family="Helvetica,sans-Serif" font-size="10.00">+</text>
<text text-anchor="start" x="17.5" y="-52" font-family="Helvetica,sans-Serif" font-size="10.00">CanActivateAbility()</text>
<text text-anchor="start" x="4.5" y="-37" font-family="Helvetica,sans-Serif" font-size="10.00">+</text>
<text text-anchor="start" x="17.5" y="-37" font-family="Helvetica,sans-Serif" font-size="10.00">ActivateAbility()</text>
<text text-anchor="start" x="4.5" y="-22" font-family="Helvetica,sans-Serif" font-size="10.00">+</text>
<text text-anchor="start" x="17.5" y="-22" font-family="Helvetica,sans-Serif" font-size="10.00">EndAbility()</text>
<text text-anchor="start" x="4.5" y="-7" font-family="Helvetica,sans-Serif" font-size="10.00">+</text>
<text text-anchor="start" x="17.5" y="-7" font-family="Helvetica,sans-Serif" font-size="10.00">ShurikenMain()</text>
<polygon fill="#bfbfbf" stroke="#bfbfbf" points="0.5,-107 0.5,-107 139.5,-107 139.5,-107 0.5,-107"/>
<polygon fill="#bfbfbf" stroke="#bfbfbf" points="0.5,-92 0.5,-92 139.5,-92 139.5,-92 0.5,-92"/>
<polygon fill="none" stroke="#bfbfbf" points="0,0 0,-124 139,-124 139,0 0,0"/>
</a>
</g>
</g>
<!-- Node4&#45;&gt;Node5 -->
<g id="edge4_Node000004_Node000005" class="edge">
<title>Node4&#45;&gt;Node5</title>
<g id="a_edge4_Node000004_Node000005"><a xlink:title=" ">
<path fill="none" stroke="#63b8ff" d="M120.54,-165.43C114,-152.29 106.81,-137.88 99.96,-124.11"/>
<polygon fill="none" stroke="#63b8ff" points="117.59,-167.35 125.19,-174.74 123.86,-164.23 117.59,-167.35"/>
</a>
</g>
</g>
<!-- Node6 -->
<g id="Node000006" class="node">
<title>Node6</title>
<g id="a_Node000006"><a xlink:href="classUOWGA__ShurikenSub.html" target="_top" xlink:title=" ">
<polygon fill="white" stroke="transparent" points="281.5,-124 157.5,-124 157.5,0 281.5,0 281.5,-124"/>
<text text-anchor="start" x="167" y="-112" font-family="Helvetica,sans-Serif" font-size="10.00">UOWGA_ShurikenSub</text>
<text text-anchor="start" x="217.5" y="-97" font-family="Helvetica,sans-Serif" font-size="10.00"> </text>
<text text-anchor="start" x="161.5" y="-82" font-family="Helvetica,sans-Serif" font-size="10.00">+</text>
<text text-anchor="start" x="174.5" y="-82" font-family="Helvetica,sans-Serif" font-size="10.00">SetCurrentMontage()</text>
<text text-anchor="start" x="161.5" y="-67" font-family="Helvetica,sans-Serif" font-size="10.00">+</text>
<text text-anchor="start" x="174.5" y="-67" font-family="Helvetica,sans-Serif" font-size="10.00">CanActivateAbility()</text>
<text text-anchor="start" x="161.5" y="-52" font-family="Helvetica,sans-Serif" font-size="10.00">+</text>
<text text-anchor="start" x="174.5" y="-52" font-family="Helvetica,sans-Serif" font-size="10.00">ActivateAbility()</text>
<text text-anchor="start" x="161.5" y="-37" font-family="Helvetica,sans-Serif" font-size="10.00">+</text>
<text text-anchor="start" x="174.5" y="-37" font-family="Helvetica,sans-Serif" font-size="10.00">EndAbility()</text>
<text text-anchor="start" x="161.5" y="-22" font-family="Helvetica,sans-Serif" font-size="10.00">+</text>
<text text-anchor="start" x="174.5" y="-22" font-family="Helvetica,sans-Serif" font-size="10.00">ShurikenSub()</text>
<text text-anchor="start" x="161.5" y="-7" font-family="Helvetica,sans-Serif" font-size="10.00">+</text>
<text text-anchor="start" x="174.5" y="-7" font-family="Helvetica,sans-Serif" font-size="10.00">SpawnProjectile()</text>
<polygon fill="#bfbfbf" stroke="#bfbfbf" points="157.5,-107 157.5,-107 281.5,-107 281.5,-107 157.5,-107"/>
<polygon fill="#bfbfbf" stroke="#bfbfbf" points="157.5,-92 157.5,-92 281.5,-92 281.5,-92 157.5,-92"/>
<polygon fill="none" stroke="#bfbfbf" points="157.5,0 157.5,-124 281.5,-124 281.5,0 157.5,0"/>
</a>
</g>
</g>
<!-- Node4&#45;&gt;Node6 -->
<g id="edge5_Node000004_Node000006" class="edge">
<title>Node4&#45;&gt;Node6</title>
<g id="a_edge5_Node000004_Node000006"><a xlink:title=" ">
<path fill="none" stroke="#63b8ff" d="M168.46,-165.43C175,-152.29 182.19,-137.88 189.04,-124.11"/>
<polygon fill="none" stroke="#63b8ff" points="165.14,-164.23 163.81,-174.74 171.41,-167.35 165.14,-164.23"/>
</a>
</g>
</g>
</g>
</svg>
