<?xml version="1.0" encoding="UTF-8" standalone="no"?>
<!DOCTYPE svg PUBLIC "-//W3C//DTD SVG 1.1//EN"
 "http://www.w3.org/Graphics/SVG/1.1/DTD/svg11.dtd">
<!-- Generated by graphviz version 2.43.0 (0)
 -->
<!-- Title: 그래픽컬한 클래스 계통도 Pages: 1 -->
<svg width="323pt" height="101pt"
 viewBox="0.00 0.00 323.00 101.00" xmlns="http://www.w3.org/2000/svg" xmlns:xlink="http://www.w3.org/1999/xlink">
<g id="graph0" class="graph" transform="scale(1 1) rotate(0) translate(4 97)">
<title>그래픽컬한 클래스 계통도</title>
<!-- Node0 -->
<g id="Node000000" class="node">
<title>Node0</title>
<g id="a_Node000000"><a xlink:title=" ">
<polygon fill="#e0e0e0" stroke="#999999" points="49,-56 0,-56 0,-37 49,-37 49,-56"/>
<text text-anchor="middle" x="24.5" y="-44" font-family="Helvetica,sans-Serif" font-size="10.00">AActor</text>
</a>
</g>
</g>
<!-- Node1 -->
<g id="Node000001" class="node">
<title>Node1</title>
<g id="a_Node000001"><a xlink:href="classAOWCollisionHit.html" target="_top" xlink:title=" ">
<polygon fill="white" stroke="#666666" points="187.5,-93 90.5,-93 90.5,-74 187.5,-74 187.5,-93"/>
<text text-anchor="middle" x="139" y="-81" font-family="Helvetica,sans-Serif" font-size="10.00">AOWCollisionHit</text>
</a>
</g>
</g>
<!-- Node0&#45;&gt;Node1 -->
<g id="edge1_Node000000_Node000001" class="edge">
<title>Node0&#45;&gt;Node1</title>
<g id="a_edge1_Node000000_Node000001"><a xlink:title=" ">
<path fill="none" stroke="#63b8ff" d="M59.01,-57.52C74.86,-62.73 93.6,-68.9 108.84,-73.91"/>
<polygon fill="#63b8ff" stroke="#63b8ff" points="59.68,-54.06 49.08,-54.26 57.49,-60.71 59.68,-54.06"/>
</a>
</g>
</g>
<!-- Node3 -->
<g id="Node000003" class="node">
<title>Node3</title>
<g id="a_Node000003"><a xlink:href="classAOWTestActor.html" target="_top" xlink:title=" ">
<polygon fill="white" stroke="#666666" points="182,-56 96,-56 96,-37 182,-37 182,-56"/>
<text text-anchor="middle" x="139" y="-44" font-family="Helvetica,sans-Serif" font-size="10.00">AOWTestActor</text>
</a>
</g>
</g>
<!-- Node0&#45;&gt;Node3 -->
<g id="edge3_Node000000_Node000003" class="edge">
<title>Node0&#45;&gt;Node3</title>
<g id="a_edge3_Node000000_Node000003"><a xlink:title=" ">
<path fill="none" stroke="#63b8ff" d="M59.16,-46.5C70.68,-46.5 83.71,-46.5 95.81,-46.5"/>
<polygon fill="#63b8ff" stroke="#63b8ff" points="59.08,-43 49.08,-46.5 59.08,-50 59.08,-43"/>
</a>
</g>
</g>
<!-- Node4 -->
<g id="Node000004" class="node">
<title>Node4</title>
<g id="a_Node000004"><a xlink:href="classAOWTmpProjectile.html" target="_top" xlink:title=" ">
<polygon fill="white" stroke="#666666" points="193,-19 85,-19 85,0 193,0 193,-19"/>
<text text-anchor="middle" x="139" y="-7" font-family="Helvetica,sans-Serif" font-size="10.00">AOWTmpProjectile</text>
</a>
</g>
</g>
<!-- Node0&#45;&gt;Node4 -->
<g id="edge4_Node000000_Node000004" class="edge">
<title>Node0&#45;&gt;Node4</title>
<g id="a_edge4_Node000000_Node000004"><a xlink:title=" ">
<path fill="none" stroke="#63b8ff" d="M59.01,-35.48C74.86,-30.27 93.6,-24.1 108.84,-19.09"/>
<polygon fill="#63b8ff" stroke="#63b8ff" points="57.49,-32.29 49.08,-38.74 59.68,-38.94 57.49,-32.29"/>
</a>
</g>
</g>
<!-- Node2 -->
<g id="Node000002" class="node">
<title>Node2</title>
<g id="a_Node000002"><a xlink:href="classAOWProjectile.html" target="_top" xlink:title=" ">
<polygon fill="white" stroke="#666666" points="315,-93 229,-93 229,-74 315,-74 315,-93"/>
<text text-anchor="middle" x="272" y="-81" font-family="Helvetica,sans-Serif" font-size="10.00">AOWProjectile</text>
</a>
</g>
</g>
<!-- Node1&#45;&gt;Node2 -->
<g id="edge2_Node000001_Node000002" class="edge">
<title>Node1&#45;&gt;Node2</title>
<g id="a_edge2_Node000001_Node000002"><a xlink:title=" ">
<path fill="none" stroke="#63b8ff" d="M197.92,-83.5C208.31,-83.5 218.95,-83.5 228.79,-83.5"/>
<polygon fill="#63b8ff" stroke="#63b8ff" points="197.66,-80 187.66,-83.5 197.66,-87 197.66,-80"/>
</a>
</g>
</g>
</g>
</svg>
