<?xml version="1.0" encoding="UTF-8" standalone="no"?>
<!DOCTYPE svg PUBLIC "-//W3C//DTD SVG 1.1//EN"
 "http://www.w3.org/Graphics/SVG/1.1/DTD/svg11.dtd">
<!-- Generated by graphviz version 2.43.0 (0)
 -->
<!-- Title: Source/OliveWatch/OliveWatchProjectile.h Pages: 1 -->
<svg width="449pt" height="93pt"
 viewBox="0.00 0.00 448.50 93.00" xmlns="http://www.w3.org/2000/svg" xmlns:xlink="http://www.w3.org/1999/xlink">
<g id="graph0" class="graph" transform="scale(1 1) rotate(0) translate(4 89)">
<title>Source/OliveWatch/OliveWatchProjectile.h</title>
<!-- Node1 -->
<g id="Node000001" class="node">
<title>Node1</title>
<g id="a_Node000001"><a xlink:title=" ">
<polygon fill="#999999" stroke="#666666" points="258.5,-85 91.5,-85 91.5,-55 258.5,-55 258.5,-85"/>
<text text-anchor="start" x="99.5" y="-73" font-family="Helvetica,sans-Serif" font-size="10.00">Source/OliveWatch/OliveWatch</text>
<text text-anchor="middle" x="175" y="-62" font-family="Helvetica,sans-Serif" font-size="10.00">Projectile.h</text>
</a>
</g>
</g>
<!-- Node2 -->
<g id="Node000002" class="node">
<title>Node2</title>
<g id="a_Node000002"><a xlink:title=" ">
<polygon fill="#e0e0e0" stroke="#999999" points="88,-19 0,-19 0,0 88,0 88,-19"/>
<text text-anchor="middle" x="44" y="-7" font-family="Helvetica,sans-Serif" font-size="10.00">CoreMinimal.h</text>
</a>
</g>
</g>
<!-- Node1&#45;&gt;Node2 -->
<g id="edge1_Node000001_Node000002" class="edge">
<title>Node1&#45;&gt;Node2</title>
<g id="a_edge1_Node000001_Node000002"><a xlink:title=" ">
<path fill="none" stroke="#63b8ff" d="M143.62,-54.99C122.06,-45.36 93.65,-32.67 72.69,-23.31"/>
<polygon fill="#63b8ff" stroke="#63b8ff" points="73.9,-20.02 63.35,-19.14 71.05,-26.41 73.9,-20.02"/>
</a>
</g>
</g>
<!-- Node3 -->
<g id="Node000003" class="node">
<title>Node3</title>
<g id="a_Node000003"><a xlink:title=" ">
<polygon fill="#e0e0e0" stroke="#999999" points="243.5,-19 106.5,-19 106.5,0 243.5,0 243.5,-19"/>
<text text-anchor="middle" x="175" y="-7" font-family="Helvetica,sans-Serif" font-size="10.00">GameFramework/Actor.h</text>
</a>
</g>
</g>
<!-- Node1&#45;&gt;Node3 -->
<g id="edge2_Node000001_Node000003" class="edge">
<title>Node1&#45;&gt;Node3</title>
<g id="a_edge2_Node000001_Node000003"><a xlink:title=" ">
<path fill="none" stroke="#63b8ff" d="M175,-54.84C175,-47.21 175,-37.7 175,-29.45"/>
<polygon fill="#63b8ff" stroke="#63b8ff" points="178.5,-29.27 175,-19.27 171.5,-29.27 178.5,-29.27"/>
</a>
</g>
</g>
<!-- Node4 -->
<g id="Node000004" class="node">
<title>Node4</title>
<g id="a_Node000004"><a xlink:title=" ">
<polygon fill="#e0e0e0" stroke="#999999" points="440.5,-19 261.5,-19 261.5,0 440.5,0 440.5,-19"/>
<text text-anchor="middle" x="351" y="-7" font-family="Helvetica,sans-Serif" font-size="10.00">OliveWatchProjectile.generated.h</text>
</a>
</g>
</g>
<!-- Node1&#45;&gt;Node4 -->
<g id="edge3_Node000001_Node000004" class="edge">
<title>Node1&#45;&gt;Node4</title>
<g id="a_edge3_Node000001_Node000004"><a xlink:title=" ">
<path fill="none" stroke="#63b8ff" d="M217.16,-54.99C247.27,-44.98 287.31,-31.67 315.73,-22.22"/>
<polygon fill="#63b8ff" stroke="#63b8ff" points="316.88,-25.53 325.27,-19.05 314.67,-18.89 316.88,-25.53"/>
</a>
</g>
</g>
</g>
</svg>
