<?xml version="1.0" encoding="UTF-8" standalone="no"?>
<!DOCTYPE svg PUBLIC "-//W3C//DTD SVG 1.1//EN"
 "http://www.w3.org/Graphics/SVG/1.1/DTD/svg11.dtd">
<!-- Generated by graphviz version 2.43.0 (0)
 -->
<!-- Title: Source/OliveWatch/OliveWatchProjectile.cpp Pages: 1 -->
<svg width="612pt" height="159pt"
 viewBox="0.00 0.00 612.00 159.00" xmlns="http://www.w3.org/2000/svg" xmlns:xlink="http://www.w3.org/1999/xlink">
<g id="graph0" class="graph" transform="scale(1 1) rotate(0) translate(4 155)">
<title>Source/OliveWatch/OliveWatchProjectile.cpp</title>
<!-- Node1 -->
<g id="Node000001" class="node">
<title>Node1</title>
<g id="a_Node000001"><a xlink:title=" ">
<polygon fill="#999999" stroke="#666666" points="414.5,-151 247.5,-151 247.5,-121 414.5,-121 414.5,-151"/>
<text text-anchor="start" x="255.5" y="-139" font-family="Helvetica,sans-Serif" font-size="10.00">Source/OliveWatch/OliveWatch</text>
<text text-anchor="middle" x="331" y="-128" font-family="Helvetica,sans-Serif" font-size="10.00">Projectile.cpp</text>
</a>
</g>
</g>
<!-- Node2 -->
<g id="Node000002" class="node">
<title>Node2</title>
<g id="a_Node000002"><a xlink:href="OliveWatchProjectile_8h.html" target="_top" xlink:title=" ">
<polygon fill="white" stroke="#666666" points="238.5,-79.5 111.5,-79.5 111.5,-60.5 238.5,-60.5 238.5,-79.5"/>
<text text-anchor="middle" x="175" y="-67.5" font-family="Helvetica,sans-Serif" font-size="10.00">OliveWatchProjectile.h</text>
</a>
</g>
</g>
<!-- Node1&#45;&gt;Node2 -->
<g id="edge1_Node000001_Node000002" class="edge">
<title>Node1&#45;&gt;Node2</title>
<g id="a_edge1_Node000001_Node000002"><a xlink:title=" ">
<path fill="none" stroke="#63b8ff" d="M296.77,-120.95C269.41,-109.73 231.43,-94.15 205.19,-83.39"/>
<polygon fill="#63b8ff" stroke="#63b8ff" points="206.34,-80.07 195.76,-79.52 203.68,-86.55 206.34,-80.07"/>
</a>
</g>
</g>
<!-- Node6 -->
<g id="Node000006" class="node">
<title>Node6</title>
<g id="a_Node000006"><a xlink:title=" ">
<polygon fill="#e0e0e0" stroke="#999999" points="405.5,-85 256.5,-85 256.5,-55 405.5,-55 405.5,-85"/>
<text text-anchor="start" x="264.5" y="-73" font-family="Helvetica,sans-Serif" font-size="10.00">GameFramework/Projectile</text>
<text text-anchor="middle" x="331" y="-62" font-family="Helvetica,sans-Serif" font-size="10.00">MovementComponent.h</text>
</a>
</g>
</g>
<!-- Node1&#45;&gt;Node6 -->
<g id="edge5_Node000001_Node000006" class="edge">
<title>Node1&#45;&gt;Node6</title>
<g id="a_edge5_Node000001_Node000006"><a xlink:title=" ">
<path fill="none" stroke="#63b8ff" d="M331,-120.8C331,-113.34 331,-103.99 331,-95.41"/>
<polygon fill="#63b8ff" stroke="#63b8ff" points="334.5,-95.16 331,-85.16 327.5,-95.16 334.5,-95.16"/>
</a>
</g>
</g>
<!-- Node7 -->
<g id="Node000007" class="node">
<title>Node7</title>
<g id="a_Node000007"><a xlink:title=" ">
<polygon fill="#e0e0e0" stroke="#999999" points="604,-79.5 424,-79.5 424,-60.5 604,-60.5 604,-79.5"/>
<text text-anchor="middle" x="514" y="-67.5" font-family="Helvetica,sans-Serif" font-size="10.00">Components/SphereComponent.h</text>
</a>
</g>
</g>
<!-- Node1&#45;&gt;Node7 -->
<g id="edge6_Node000001_Node000007" class="edge">
<title>Node1&#45;&gt;Node7</title>
<g id="a_edge6_Node000001_Node000007"><a xlink:title=" ">
<path fill="none" stroke="#63b8ff" d="M371.16,-120.95C403.82,-109.53 449.38,-93.6 480.19,-82.82"/>
<polygon fill="#63b8ff" stroke="#63b8ff" points="481.36,-86.12 489.65,-79.52 479.05,-79.51 481.36,-86.12"/>
</a>
</g>
</g>
<!-- Node3 -->
<g id="Node000003" class="node">
<title>Node3</title>
<g id="a_Node000003"><a xlink:title=" ">
<polygon fill="#e0e0e0" stroke="#999999" points="88,-19 0,-19 0,0 88,0 88,-19"/>
<text text-anchor="middle" x="44" y="-7" font-family="Helvetica,sans-Serif" font-size="10.00">CoreMinimal.h</text>
</a>
</g>
</g>
<!-- Node2&#45;&gt;Node3 -->
<g id="edge2_Node000002_Node000003" class="edge">
<title>Node2&#45;&gt;Node3</title>
<g id="a_edge2_Node000002_Node000003"><a xlink:title=" ">
<path fill="none" stroke="#63b8ff" d="M155.95,-60.49C134.03,-50.7 97.79,-34.52 72.5,-23.23"/>
<polygon fill="#63b8ff" stroke="#63b8ff" points="73.63,-19.9 63.07,-19.02 70.78,-26.29 73.63,-19.9"/>
</a>
</g>
</g>
<!-- Node4 -->
<g id="Node000004" class="node">
<title>Node4</title>
<g id="a_Node000004"><a xlink:title=" ">
<polygon fill="#e0e0e0" stroke="#999999" points="243.5,-19 106.5,-19 106.5,0 243.5,0 243.5,-19"/>
<text text-anchor="middle" x="175" y="-7" font-family="Helvetica,sans-Serif" font-size="10.00">GameFramework/Actor.h</text>
</a>
</g>
</g>
<!-- Node2&#45;&gt;Node4 -->
<g id="edge3_Node000002_Node000004" class="edge">
<title>Node2&#45;&gt;Node4</title>
<g id="a_edge3_Node000002_Node000004"><a xlink:title=" ">
<path fill="none" stroke="#63b8ff" d="M175,-60.37C175,-52.25 175,-39.81 175,-29.39"/>
<polygon fill="#63b8ff" stroke="#63b8ff" points="178.5,-29.17 175,-19.17 171.5,-29.17 178.5,-29.17"/>
</a>
</g>
</g>
<!-- Node5 -->
<g id="Node000005" class="node">
<title>Node5</title>
<g id="a_Node000005"><a xlink:title=" ">
<polygon fill="#e0e0e0" stroke="#999999" points="440.5,-19 261.5,-19 261.5,0 440.5,0 440.5,-19"/>
<text text-anchor="middle" x="351" y="-7" font-family="Helvetica,sans-Serif" font-size="10.00">OliveWatchProjectile.generated.h</text>
</a>
</g>
</g>
<!-- Node2&#45;&gt;Node5 -->
<g id="edge4_Node000002_Node000005" class="edge">
<title>Node2&#45;&gt;Node5</title>
<g id="a_edge4_Node000002_Node000005"><a xlink:title=" ">
<path fill="none" stroke="#63b8ff" d="M200.59,-60.49C230.96,-50.4 281.76,-33.51 315.82,-22.19"/>
<polygon fill="#63b8ff" stroke="#63b8ff" points="316.99,-25.49 325.38,-19.02 314.78,-18.85 316.99,-25.49"/>
</a>
</g>
</g>
</g>
</svg>
