<?xml version="1.0" encoding="UTF-8" standalone="no"?>
<!DOCTYPE svg PUBLIC "-//W3C//DTD SVG 1.1//EN"
 "http://www.w3.org/Graphics/SVG/1.1/DTD/svg11.dtd">
<!-- Generated by graphviz version 2.43.0 (0)
 -->
<!-- Title: Source/OliveWatch/OliveWatchGameMode.cpp Pages: 1 -->
<svg width="1028pt" height="148pt"
 viewBox="0.00 0.00 1027.50 148.00" xmlns="http://www.w3.org/2000/svg" xmlns:xlink="http://www.w3.org/1999/xlink">
<g id="graph0" class="graph" transform="scale(1 1) rotate(0) translate(4 144)">
<title>Source/OliveWatch/OliveWatchGameMode.cpp</title>
<!-- Node1 -->
<g id="Node000001" class="node">
<title>Node1</title>
<g id="a_Node000001"><a xlink:title=" ">
<polygon fill="#999999" stroke="#666666" points="688,-140 521,-140 521,-110 688,-110 688,-140"/>
<text text-anchor="start" x="529" y="-128" font-family="Helvetica,sans-Serif" font-size="10.00">Source/OliveWatch/OliveWatch</text>
<text text-anchor="middle" x="604.5" y="-117" font-family="Helvetica,sans-Serif" font-size="10.00">GameMode.cpp</text>
</a>
</g>
</g>
<!-- Node2 -->
<g id="Node000002" class="node">
<title>Node2</title>
<g id="a_Node000002"><a xlink:href="OliveWatchGameMode_8h.html" target="_top" xlink:title=" ">
<polygon fill="white" stroke="#666666" points="449,-74 312,-74 312,-55 449,-55 449,-74"/>
<text text-anchor="middle" x="380.5" y="-62" font-family="Helvetica,sans-Serif" font-size="10.00">OliveWatchGameMode.h</text>
</a>
</g>
</g>
<!-- Node1&#45;&gt;Node2 -->
<g id="edge1_Node000001_Node000002" class="edge">
<title>Node1&#45;&gt;Node2</title>
<g id="a_edge1_Node000001_Node000002"><a xlink:title=" ">
<path fill="none" stroke="#63b8ff" d="M550.85,-109.99C511.69,-99.76 459.32,-86.09 423.04,-76.61"/>
<polygon fill="#63b8ff" stroke="#63b8ff" points="423.81,-73.19 413.25,-74.05 422.04,-79.97 423.81,-73.19"/>
</a>
</g>
</g>
<!-- Node6 -->
<g id="Node000006" class="node">
<title>Node6</title>
<g id="a_Node000006"><a xlink:href="OliveWatchCharacter_8h.html" target="_top" xlink:title=" ">
<polygon fill="white" stroke="#666666" points="668.5,-74 540.5,-74 540.5,-55 668.5,-55 668.5,-74"/>
<text text-anchor="middle" x="604.5" y="-62" font-family="Helvetica,sans-Serif" font-size="10.00">OliveWatchCharacter.h</text>
</a>
</g>
</g>
<!-- Node1&#45;&gt;Node6 -->
<g id="edge5_Node000001_Node000006" class="edge">
<title>Node1&#45;&gt;Node6</title>
<g id="a_edge5_Node000001_Node000006"><a xlink:title=" ">
<path fill="none" stroke="#63b8ff" d="M604.5,-109.84C604.5,-102.21 604.5,-92.7 604.5,-84.45"/>
<polygon fill="#63b8ff" stroke="#63b8ff" points="608,-84.27 604.5,-74.27 601,-84.27 608,-84.27"/>
</a>
</g>
</g>
<!-- Node10 -->
<g id="Node000010" class="node">
<title>Node10</title>
<g id="a_Node000010"><a xlink:title=" ">
<polygon fill="#e0e0e0" stroke="#999999" points="848,-74 687,-74 687,-55 848,-55 848,-74"/>
<text text-anchor="middle" x="767.5" y="-62" font-family="Helvetica,sans-Serif" font-size="10.00">UObject/ConstructorHelpers.h</text>
</a>
</g>
</g>
<!-- Node1&#45;&gt;Node10 -->
<g id="edge10_Node000001_Node000010" class="edge">
<title>Node1&#45;&gt;Node10</title>
<g id="a_edge10_Node000001_Node000010"><a xlink:title=" ">
<path fill="none" stroke="#63b8ff" d="M643.54,-109.99C671.1,-100.1 707.65,-86.98 733.91,-77.56"/>
<polygon fill="#63b8ff" stroke="#63b8ff" points="735.2,-80.81 743.43,-74.14 732.83,-74.22 735.2,-80.81"/>
</a>
</g>
</g>
<!-- Node3 -->
<g id="Node000003" class="node">
<title>Node3</title>
<g id="a_Node000003"><a xlink:title=" ">
<polygon fill="#e0e0e0" stroke="#999999" points="507.5,-19 419.5,-19 419.5,0 507.5,0 507.5,-19"/>
<text text-anchor="middle" x="463.5" y="-7" font-family="Helvetica,sans-Serif" font-size="10.00">CoreMinimal.h</text>
</a>
</g>
</g>
<!-- Node2&#45;&gt;Node3 -->
<g id="edge2_Node000002_Node000003" class="edge">
<title>Node2&#45;&gt;Node3</title>
<g id="a_edge2_Node000002_Node000003"><a xlink:title=" ">
<path fill="none" stroke="#63b8ff" d="M393.84,-54.98C406.59,-46.84 426.05,-34.41 441.17,-24.76"/>
<polygon fill="#63b8ff" stroke="#63b8ff" points="443.38,-27.5 449.92,-19.17 439.61,-21.6 443.38,-27.5"/>
</a>
</g>
</g>
<!-- Node4 -->
<g id="Node000004" class="node">
<title>Node4</title>
<g id="a_Node000004"><a xlink:title=" ">
<polygon fill="#e0e0e0" stroke="#999999" points="193,-19 0,-19 0,0 193,0 193,-19"/>
<text text-anchor="middle" x="96.5" y="-7" font-family="Helvetica,sans-Serif" font-size="10.00">GameFramework/GameModeBase.h</text>
</a>
</g>
</g>
<!-- Node2&#45;&gt;Node4 -->
<g id="edge3_Node000002_Node000004" class="edge">
<title>Node2&#45;&gt;Node4</title>
<g id="a_edge3_Node000002_Node000004"><a xlink:title=" ">
<path fill="none" stroke="#63b8ff" d="M334.87,-54.98C285.23,-45.72 205.84,-30.9 152.47,-20.94"/>
<polygon fill="#63b8ff" stroke="#63b8ff" points="152.96,-17.48 142.49,-19.08 151.68,-24.36 152.96,-17.48"/>
</a>
</g>
</g>
<!-- Node5 -->
<g id="Node000005" class="node">
<title>Node5</title>
<g id="a_Node000005"><a xlink:title=" ">
<polygon fill="#e0e0e0" stroke="#999999" points="401.5,-19 211.5,-19 211.5,0 401.5,0 401.5,-19"/>
<text text-anchor="middle" x="306.5" y="-7" font-family="Helvetica,sans-Serif" font-size="10.00">OliveWatchGameMode.generated.h</text>
</a>
</g>
</g>
<!-- Node2&#45;&gt;Node5 -->
<g id="edge4_Node000002_Node000005" class="edge">
<title>Node2&#45;&gt;Node5</title>
<g id="a_edge4_Node000002_Node000005"><a xlink:title=" ">
<path fill="none" stroke="#63b8ff" d="M368.61,-54.98C357.35,-46.92 340.21,-34.65 326.79,-25.03"/>
<polygon fill="#63b8ff" stroke="#63b8ff" points="328.77,-22.15 318.61,-19.17 324.7,-27.84 328.77,-22.15"/>
</a>
</g>
</g>
<!-- Node6&#45;&gt;Node3 -->
<g id="edge6_Node000006_Node000003" class="edge">
<title>Node6&#45;&gt;Node3</title>
<g id="a_edge6_Node000006_Node000003"><a xlink:title=" ">
<path fill="none" stroke="#63b8ff" d="M581.85,-54.98C558.65,-46.27 522.38,-32.63 496.1,-22.75"/>
<polygon fill="#63b8ff" stroke="#63b8ff" points="497.16,-19.41 486.57,-19.17 494.7,-25.97 497.16,-19.41"/>
</a>
</g>
</g>
<!-- Node7 -->
<g id="Node000007" class="node">
<title>Node7</title>
<g id="a_Node000007"><a xlink:title=" ">
<polygon fill="#e0e0e0" stroke="#999999" points="684,-19 525,-19 525,0 684,0 684,-19"/>
<text text-anchor="middle" x="604.5" y="-7" font-family="Helvetica,sans-Serif" font-size="10.00">GameFramework/Character.h</text>
</a>
</g>
</g>
<!-- Node6&#45;&gt;Node7 -->
<g id="edge7_Node000006_Node000007" class="edge">
<title>Node6&#45;&gt;Node7</title>
<g id="a_edge7_Node000006_Node000007"><a xlink:title=" ">
<path fill="none" stroke="#63b8ff" d="M604.5,-54.75C604.5,-47.8 604.5,-37.85 604.5,-29.13"/>
<polygon fill="#63b8ff" stroke="#63b8ff" points="608,-29.09 604.5,-19.09 601,-29.09 608,-29.09"/>
</a>
</g>
</g>
<!-- Node8 -->
<g id="Node000008" class="node">
<title>Node8</title>
<g id="a_Node000008"><a xlink:title=" ">
<polygon fill="#e0e0e0" stroke="#999999" points="821,-19 702,-19 702,0 821,0 821,-19"/>
<text text-anchor="middle" x="761.5" y="-7" font-family="Helvetica,sans-Serif" font-size="10.00">Logging/LogMacros.h</text>
</a>
</g>
</g>
<!-- Node6&#45;&gt;Node8 -->
<g id="edge8_Node000006_Node000008" class="edge">
<title>Node6&#45;&gt;Node8</title>
<g id="a_edge8_Node000006_Node000008"><a xlink:title=" ">
<path fill="none" stroke="#63b8ff" d="M629.72,-54.98C655.86,-46.16 696.9,-32.31 726.23,-22.41"/>
<polygon fill="#63b8ff" stroke="#63b8ff" points="727.72,-25.6 736.08,-19.08 725.48,-18.96 727.72,-25.6"/>
</a>
</g>
</g>
<!-- Node9 -->
<g id="Node000009" class="node">
<title>Node9</title>
<g id="a_Node000009"><a xlink:title=" ">
<polygon fill="#e0e0e0" stroke="#999999" points="1019.5,-19 839.5,-19 839.5,0 1019.5,0 1019.5,-19"/>
<text text-anchor="middle" x="929.5" y="-7" font-family="Helvetica,sans-Serif" font-size="10.00">OliveWatchCharacter.generated.h</text>
</a>
</g>
</g>
<!-- Node6&#45;&gt;Node9 -->
<g id="edge9_Node000006_Node000009" class="edge">
<title>Node6&#45;&gt;Node9</title>
<g id="a_edge9_Node000006_Node000009"><a xlink:title=" ">
<path fill="none" stroke="#63b8ff" d="M656.72,-54.98C714.08,-45.63 806.17,-30.61 867.24,-20.65"/>
<polygon fill="#63b8ff" stroke="#63b8ff" points="867.84,-24.1 877.14,-19.04 866.71,-17.19 867.84,-24.1"/>
</a>
</g>
</g>
</g>
</svg>
