<?xml version="1.0" encoding="UTF-8" standalone="no"?>
<!DOCTYPE svg PUBLIC "-//W3C//DTD SVG 1.1//EN"
 "http://www.w3.org/Graphics/SVG/1.1/DTD/svg11.dtd">
<!-- Generated by graphviz version 2.43.0 (0)
 -->
<!-- Title: Source/OliveWatch/AbilitySystem/OWAbilitySystemComponent.h Pages: 1 -->
<svg width="724pt" height="104pt"
 viewBox="0.00 0.00 723.50 104.00" xmlns="http://www.w3.org/2000/svg" xmlns:xlink="http://www.w3.org/1999/xlink">
<g id="graph0" class="graph" transform="scale(1 1) rotate(0) translate(4 100)">
<title>Source/OliveWatch/AbilitySystem/OWAbilitySystemComponent.h</title>
<!-- Node1 -->
<g id="Node000001" class="node">
<title>Node1</title>
<g id="a_Node000001"><a xlink:title=" ">
<polygon fill="#999999" stroke="#666666" points="476.5,-96 270.5,-96 270.5,-66 476.5,-66 476.5,-96"/>
<text text-anchor="start" x="278.5" y="-84" font-family="Helvetica,sans-Serif" font-size="10.00">Source/OliveWatch/Ability</text>
<text text-anchor="middle" x="373.5" y="-73" font-family="Helvetica,sans-Serif" font-size="10.00">System/OWAbilitySystemComponent.h</text>
</a>
</g>
</g>
<!-- Node2 -->
<g id="Node000002" class="node">
<title>Node2</title>
<g id="a_Node000002"><a xlink:href="OWAbilitySet_8cpp.html" target="_top" xlink:title=" ">
<polygon fill="white" stroke="#666666" points="143,-30 0,-30 0,0 143,0 143,-30"/>
<text text-anchor="start" x="8" y="-18" font-family="Helvetica,sans-Serif" font-size="10.00">Source/OliveWatch/Ability</text>
<text text-anchor="middle" x="71.5" y="-7" font-family="Helvetica,sans-Serif" font-size="10.00">System/OWAbilitySet.cpp</text>
</a>
</g>
</g>
<!-- Node1&#45;&gt;Node2 -->
<g id="edge1_Node000001_Node000002" class="edge">
<title>Node1&#45;&gt;Node2</title>
<g id="a_edge1_Node000001_Node000002"><a xlink:title=" ">
<path fill="none" stroke="#63b8ff" d="M297.27,-63.84C248.06,-53.42 184.69,-39.99 137.62,-30.01"/>
<polygon fill="#63b8ff" stroke="#63b8ff" points="296.72,-67.31 307.22,-65.95 298.17,-60.46 296.72,-67.31"/>
</a>
</g>
</g>
<!-- Node3 -->
<g id="Node000003" class="node">
<title>Node3</title>
<g id="a_Node000003"><a xlink:href="OWAbilitySystemComponent_8cpp.html" target="_top" xlink:title=" ">
<polygon fill="white" stroke="#666666" points="379.5,-30 161.5,-30 161.5,0 379.5,0 379.5,-30"/>
<text text-anchor="start" x="169.5" y="-18" font-family="Helvetica,sans-Serif" font-size="10.00">Source/OliveWatch/Ability</text>
<text text-anchor="middle" x="270.5" y="-7" font-family="Helvetica,sans-Serif" font-size="10.00">System/OWAbilitySystemComponent.cpp</text>
</a>
</g>
</g>
<!-- Node1&#45;&gt;Node3 -->
<g id="edge2_Node000001_Node000003" class="edge">
<title>Node1&#45;&gt;Node3</title>
<g id="a_edge2_Node000001_Node000003"><a xlink:title=" ">
<path fill="none" stroke="#63b8ff" d="M341.99,-60.42C326.18,-50.6 307.4,-38.93 293.05,-30.01"/>
<polygon fill="#63b8ff" stroke="#63b8ff" points="340.56,-63.65 350.9,-65.95 344.25,-57.7 340.56,-63.65"/>
</a>
</g>
</g>
<!-- Node4 -->
<g id="Node000004" class="node">
<title>Node4</title>
<g id="a_Node000004"><a xlink:href="OWCharacter_8cpp.html" target="_top" xlink:title=" ">
<polygon fill="white" stroke="#666666" points="555.5,-30 397.5,-30 397.5,0 555.5,0 555.5,-30"/>
<text text-anchor="start" x="405.5" y="-18" font-family="Helvetica,sans-Serif" font-size="10.00">Source/OliveWatch/Character</text>
<text text-anchor="middle" x="476.5" y="-7" font-family="Helvetica,sans-Serif" font-size="10.00">/OWCharacter.cpp</text>
</a>
</g>
</g>
<!-- Node1&#45;&gt;Node4 -->
<g id="edge3_Node000001_Node000004" class="edge">
<title>Node1&#45;&gt;Node4</title>
<g id="a_edge3_Node000001_Node000004"><a xlink:title=" ">
<path fill="none" stroke="#63b8ff" d="M405.01,-60.42C420.82,-50.6 439.6,-38.93 453.95,-30.01"/>
<polygon fill="#63b8ff" stroke="#63b8ff" points="402.75,-57.7 396.1,-65.95 406.44,-63.65 402.75,-57.7"/>
</a>
</g>
</g>
<!-- Node5 -->
<g id="Node000005" class="node">
<title>Node5</title>
<g id="a_Node000005"><a xlink:href="OWPlayerState_8cpp.html" target="_top" xlink:title=" ">
<polygon fill="white" stroke="#666666" points="715.5,-30 573.5,-30 573.5,0 715.5,0 715.5,-30"/>
<text text-anchor="start" x="581.5" y="-18" font-family="Helvetica,sans-Serif" font-size="10.00">Source/OliveWatch/Player</text>
<text text-anchor="middle" x="644.5" y="-7" font-family="Helvetica,sans-Serif" font-size="10.00">/OWPlayerState.cpp</text>
</a>
</g>
</g>
<!-- Node1&#45;&gt;Node5 -->
<g id="edge4_Node000001_Node000005" class="edge">
<title>Node1&#45;&gt;Node5</title>
<g id="a_edge4_Node000001_Node000005"><a xlink:title=" ">
<path fill="none" stroke="#63b8ff" d="M442.74,-63.65C486.77,-53.25 543.19,-39.93 585.17,-30.01"/>
<polygon fill="#63b8ff" stroke="#63b8ff" points="441.9,-60.25 432.97,-65.95 443.51,-67.06 441.9,-60.25"/>
</a>
</g>
</g>
</g>
</svg>
