<?xml version="1.0" encoding="UTF-8" standalone="no"?>
<!DOCTYPE svg PUBLIC "-//W3C//DTD SVG 1.1//EN"
 "http://www.w3.org/Graphics/SVG/1.1/DTD/svg11.dtd">
<!-- Generated by graphviz version 2.43.0 (0)
 -->
<!-- Title: Source/OliveWatch/AbilitySystem/OWAbilitySystemComponent.cpp Pages: 1 -->
<svg width="1310pt" height="159pt"
 viewBox="0.00 0.00 1310.00 159.00" xmlns="http://www.w3.org/2000/svg" xmlns:xlink="http://www.w3.org/1999/xlink">
<g id="graph0" class="graph" transform="scale(1 1) rotate(0) translate(4 155)">
<title>Source/OliveWatch/AbilitySystem/OWAbilitySystemComponent.cpp</title>
<!-- Node1 -->
<g id="Node000001" class="node">
<title>Node1</title>
<g id="a_Node000001"><a xlink:title=" ">
<polygon fill="#999999" stroke="#666666" points="695,-151 477,-151 477,-121 695,-121 695,-151"/>
<text text-anchor="start" x="485" y="-139" font-family="Helvetica,sans-Serif" font-size="10.00">Source/OliveWatch/Ability</text>
<text text-anchor="middle" x="586" y="-128" font-family="Helvetica,sans-Serif" font-size="10.00">System/OWAbilitySystemComponent.cpp</text>
</a>
</g>
</g>
<!-- Node2 -->
<g id="Node000002" class="node">
<title>Node2</title>
<g id="a_Node000002"><a xlink:href="OWAbilitySystemComponent_8h.html" target="_top" xlink:title=" ">
<polygon fill="white" stroke="#666666" points="434.5,-85 261.5,-85 261.5,-55 434.5,-55 434.5,-85"/>
<text text-anchor="start" x="269.5" y="-73" font-family="Helvetica,sans-Serif" font-size="10.00">AbilitySystem/OWAbilitySystem</text>
<text text-anchor="middle" x="348" y="-62" font-family="Helvetica,sans-Serif" font-size="10.00">Component.h</text>
</a>
</g>
</g>
<!-- Node1&#45;&gt;Node2 -->
<g id="edge1_Node000001_Node000002" class="edge">
<title>Node1&#45;&gt;Node2</title>
<g id="a_edge1_Node000001_Node000002"><a xlink:title=" ">
<path fill="none" stroke="#63b8ff" d="M533.77,-120.95C497.34,-111.16 448.57,-98.05 410.15,-87.71"/>
<polygon fill="#63b8ff" stroke="#63b8ff" points="410.67,-84.23 400.11,-85.01 408.86,-90.99 410.67,-84.23"/>
</a>
</g>
</g>
<!-- Node6 -->
<g id="Node000006" class="node">
<title>Node6</title>
<g id="a_Node000006"><a xlink:href="OWGameplayAbility_8h.html" target="_top" xlink:title=" ">
<polygon fill="white" stroke="#666666" points="650,-85 522,-85 522,-55 650,-55 650,-85"/>
<text text-anchor="start" x="530" y="-73" font-family="Helvetica,sans-Serif" font-size="10.00">AbilitySystem/Abilities</text>
<text text-anchor="middle" x="586" y="-62" font-family="Helvetica,sans-Serif" font-size="10.00">/OWGameplayAbility.h</text>
</a>
</g>
</g>
<!-- Node1&#45;&gt;Node6 -->
<g id="edge5_Node000001_Node000006" class="edge">
<title>Node1&#45;&gt;Node6</title>
<g id="a_edge5_Node000001_Node000006"><a xlink:title=" ">
<path fill="none" stroke="#63b8ff" d="M586,-120.8C586,-113.34 586,-103.99 586,-95.41"/>
<polygon fill="#63b8ff" stroke="#63b8ff" points="589.5,-95.16 586,-85.16 582.5,-95.16 589.5,-95.16"/>
</a>
</g>
</g>
<!-- Node9 -->
<g id="Node000009" class="node">
<title>Node9</title>
<g id="a_Node000009"><a xlink:href="OWAbilitySet_8h.html" target="_top" xlink:title=" ">
<polygon fill="white" stroke="#666666" points="1008.5,-79.5 847.5,-79.5 847.5,-60.5 1008.5,-60.5 1008.5,-79.5"/>
<text text-anchor="middle" x="928" y="-67.5" font-family="Helvetica,sans-Serif" font-size="10.00">AbilitySystem/OWAbilitySet.h</text>
</a>
</g>
</g>
<!-- Node1&#45;&gt;Node9 -->
<g id="edge9_Node000001_Node000009" class="edge">
<title>Node1&#45;&gt;Node9</title>
<g id="a_edge9_Node000001_Node000009"><a xlink:title=" ">
<path fill="none" stroke="#63b8ff" d="M661.05,-120.95C724.86,-109.01 815.02,-92.14 872.5,-81.39"/>
<polygon fill="#63b8ff" stroke="#63b8ff" points="873.3,-84.8 882.49,-79.52 872.01,-77.92 873.3,-84.8"/>
</a>
</g>
</g>
<!-- Node3 -->
<g id="Node000003" class="node">
<title>Node3</title>
<g id="a_Node000003"><a xlink:title=" ">
<polygon fill="#e0e0e0" stroke="#999999" points="494,-19 406,-19 406,0 494,0 494,-19"/>
<text text-anchor="middle" x="450" y="-7" font-family="Helvetica,sans-Serif" font-size="10.00">CoreMinimal.h</text>
</a>
</g>
</g>
<!-- Node2&#45;&gt;Node3 -->
<g id="edge2_Node000002_Node000003" class="edge">
<title>Node2&#45;&gt;Node3</title>
<g id="a_edge2_Node000002_Node000003"><a xlink:title=" ">
<path fill="none" stroke="#63b8ff" d="M372.43,-54.99C388.69,-45.66 409.95,-33.47 426.1,-24.21"/>
<polygon fill="#63b8ff" stroke="#63b8ff" points="428,-27.15 434.94,-19.14 424.52,-21.08 428,-27.15"/>
</a>
</g>
</g>
<!-- Node4 -->
<g id="Node000004" class="node">
<title>Node4</title>
<g id="a_Node000004"><a xlink:title=" ">
<polygon fill="#e0e0e0" stroke="#999999" points="150,-19 0,-19 0,0 150,0 150,-19"/>
<text text-anchor="middle" x="75" y="-7" font-family="Helvetica,sans-Serif" font-size="10.00">AbilitySystemComponent.h</text>
</a>
</g>
</g>
<!-- Node2&#45;&gt;Node4 -->
<g id="edge3_Node000002_Node000004" class="edge">
<title>Node2&#45;&gt;Node4</title>
<g id="a_edge3_Node000002_Node000004"><a xlink:title=" ">
<path fill="none" stroke="#63b8ff" d="M282.61,-54.99C234.17,-44.61 169.15,-30.68 124.87,-21.19"/>
<polygon fill="#63b8ff" stroke="#63b8ff" points="125.43,-17.73 114.92,-19.05 123.96,-24.57 125.43,-17.73"/>
</a>
</g>
</g>
<!-- Node5 -->
<g id="Node000005" class="node">
<title>Node5</title>
<g id="a_Node000005"><a xlink:title=" ">
<polygon fill="#e0e0e0" stroke="#999999" points="387.5,-19 168.5,-19 168.5,0 387.5,0 387.5,-19"/>
<text text-anchor="middle" x="278" y="-7" font-family="Helvetica,sans-Serif" font-size="10.00">OWAbilitySystemComponent.generated.h</text>
</a>
</g>
</g>
<!-- Node2&#45;&gt;Node5 -->
<g id="edge4_Node000002_Node000005" class="edge">
<title>Node2&#45;&gt;Node5</title>
<g id="a_edge4_Node000002_Node000005"><a xlink:title=" ">
<path fill="none" stroke="#63b8ff" d="M331.05,-54.84C320.58,-46.09 307.14,-34.85 296.41,-25.88"/>
<polygon fill="#63b8ff" stroke="#63b8ff" points="298.41,-22.99 288.49,-19.27 293.92,-28.36 298.41,-22.99"/>
</a>
</g>
</g>
<!-- Node6&#45;&gt;Node3 -->
<g id="edge6_Node000006_Node000003" class="edge">
<title>Node6&#45;&gt;Node3</title>
<g id="a_edge6_Node000006_Node000003"><a xlink:title=" ">
<path fill="none" stroke="#63b8ff" d="M553.42,-54.99C530.94,-45.31 501.28,-32.56 479.49,-23.18"/>
<polygon fill="#63b8ff" stroke="#63b8ff" points="480.65,-19.88 470.08,-19.14 477.89,-26.31 480.65,-19.88"/>
</a>
</g>
</g>
<!-- Node7 -->
<g id="Node000007" class="node">
<title>Node7</title>
<g id="a_Node000007"><a xlink:title=" ">
<polygon fill="#e0e0e0" stroke="#999999" points="660.5,-19 511.5,-19 511.5,0 660.5,0 660.5,-19"/>
<text text-anchor="middle" x="586" y="-7" font-family="Helvetica,sans-Serif" font-size="10.00">Abilities/GameplayAbility.h</text>
</a>
</g>
</g>
<!-- Node6&#45;&gt;Node7 -->
<g id="edge7_Node000006_Node000007" class="edge">
<title>Node6&#45;&gt;Node7</title>
<g id="a_edge7_Node000006_Node000007"><a xlink:title=" ">
<path fill="none" stroke="#63b8ff" d="M586,-54.84C586,-47.21 586,-37.7 586,-29.45"/>
<polygon fill="#63b8ff" stroke="#63b8ff" points="589.5,-29.27 586,-19.27 582.5,-29.27 589.5,-29.27"/>
</a>
</g>
</g>
<!-- Node8 -->
<g id="Node000008" class="node">
<title>Node8</title>
<g id="a_Node000008"><a xlink:title=" ">
<polygon fill="#e0e0e0" stroke="#999999" points="854,-19 678,-19 678,0 854,0 854,-19"/>
<text text-anchor="middle" x="766" y="-7" font-family="Helvetica,sans-Serif" font-size="10.00">OWGameplayAbility.generated.h</text>
</a>
</g>
</g>
<!-- Node6&#45;&gt;Node8 -->
<g id="edge8_Node000006_Node000008" class="edge">
<title>Node6&#45;&gt;Node8</title>
<g id="a_edge8_Node000006_Node000008"><a xlink:title=" ">
<path fill="none" stroke="#63b8ff" d="M629.11,-54.99C659.91,-44.98 700.87,-31.67 729.93,-22.22"/>
<polygon fill="#63b8ff" stroke="#63b8ff" points="731.25,-25.47 739.68,-19.05 729.09,-18.82 731.25,-25.47"/>
</a>
</g>
</g>
<!-- Node9&#45;&gt;Node3 -->
<g id="edge10_Node000009_Node000003" class="edge">
<title>Node9&#45;&gt;Node3</title>
<g id="a_edge10_Node000009_Node000003"><a xlink:title=" ">
<path fill="none" stroke="#63b8ff" d="M847.38,-60.64C763.87,-51.72 629.34,-36.66 504.37,-19.29"/>
<polygon fill="#63b8ff" stroke="#63b8ff" points="504.62,-15.79 494.23,-17.87 503.65,-22.72 504.62,-15.79"/>
</a>
</g>
</g>
<!-- Node10 -->
<g id="Node000010" class="node">
<title>Node10</title>
<g id="a_Node000010"><a xlink:title=" ">
<polygon fill="#e0e0e0" stroke="#999999" points="984,-19 872,-19 872,0 984,0 984,-19"/>
<text text-anchor="middle" x="928" y="-7" font-family="Helvetica,sans-Serif" font-size="10.00">Engine/DataAsset.h</text>
</a>
</g>
</g>
<!-- Node9&#45;&gt;Node10 -->
<g id="edge11_Node000009_Node000010" class="edge">
<title>Node9&#45;&gt;Node10</title>
<g id="a_edge11_Node000009_Node000010"><a xlink:title=" ">
<path fill="none" stroke="#63b8ff" d="M928,-60.37C928,-52.25 928,-39.81 928,-29.39"/>
<polygon fill="#63b8ff" stroke="#63b8ff" points="931.5,-29.17 928,-19.17 924.5,-29.17 931.5,-29.17"/>
</a>
</g>
</g>
<!-- Node11 -->
<g id="Node000011" class="node">
<title>Node11</title>
<g id="a_Node000011"><a xlink:title=" ">
<polygon fill="#e0e0e0" stroke="#999999" points="1141.5,-19 1002.5,-19 1002.5,0 1141.5,0 1141.5,-19"/>
<text text-anchor="middle" x="1072" y="-7" font-family="Helvetica,sans-Serif" font-size="10.00">GameplayTagContainer.h</text>
</a>
</g>
</g>
<!-- Node9&#45;&gt;Node11 -->
<g id="edge12_Node000009_Node000011" class="edge">
<title>Node9&#45;&gt;Node11</title>
<g id="a_edge12_Node000009_Node000011"><a xlink:title=" ">
<path fill="none" stroke="#63b8ff" d="M948.94,-60.49C973.36,-50.57 1013.93,-34.09 1041.77,-22.78"/>
<polygon fill="#63b8ff" stroke="#63b8ff" points="1043.09,-26.02 1051.04,-19.02 1040.45,-19.54 1043.09,-26.02"/>
</a>
</g>
</g>
<!-- Node12 -->
<g id="Node000012" class="node">
<title>Node12</title>
<g id="a_Node000012"><a xlink:title=" ">
<polygon fill="#e0e0e0" stroke="#999999" points="1302,-19 1160,-19 1160,0 1302,0 1302,-19"/>
<text text-anchor="middle" x="1231" y="-7" font-family="Helvetica,sans-Serif" font-size="10.00">OWAbilitySet.generated.h</text>
</a>
</g>
</g>
<!-- Node9&#45;&gt;Node12 -->
<g id="edge13_Node000009_Node000012" class="edge">
<title>Node9&#45;&gt;Node12</title>
<g id="a_edge13_Node000009_Node000012"><a xlink:title=" ">
<path fill="none" stroke="#63b8ff" d="M972.06,-60.49C1026.25,-50.03 1118.23,-32.27 1176.73,-20.98"/>
<polygon fill="#63b8ff" stroke="#63b8ff" points="1177.73,-24.35 1186.89,-19.02 1176.41,-17.48 1177.73,-24.35"/>
</a>
</g>
</g>
</g>
</svg>
