<?xml version="1.0" encoding="UTF-8" standalone="no"?>
<!DOCTYPE svg PUBLIC "-//W3C//DTD SVG 1.1//EN"
 "http://www.w3.org/Graphics/SVG/1.1/DTD/svg11.dtd">
<!-- Generated by graphviz version 2.43.0 (0)
 -->
<!-- Title: Source/OliveWatch/AbilitySystem/OWAbilitySet.cpp Pages: 1 -->
<svg width="1310pt" height="159pt"
 viewBox="0.00 0.00 1310.00 159.00" xmlns="http://www.w3.org/2000/svg" xmlns:xlink="http://www.w3.org/1999/xlink">
<g id="graph0" class="graph" transform="scale(1 1) rotate(0) translate(4 155)">
<title>Source/OliveWatch/AbilitySystem/OWAbilitySet.cpp</title>
<!-- Node1 -->
<g id="Node000001" class="node">
<title>Node1</title>
<g id="a_Node000001"><a xlink:title=" ">
<polygon fill="#999999" stroke="#666666" points="783.5,-151 640.5,-151 640.5,-121 783.5,-121 783.5,-151"/>
<text text-anchor="start" x="648.5" y="-139" font-family="Helvetica,sans-Serif" font-size="10.00">Source/OliveWatch/Ability</text>
<text text-anchor="middle" x="712" y="-128" font-family="Helvetica,sans-Serif" font-size="10.00">System/OWAbilitySet.cpp</text>
</a>
</g>
</g>
<!-- Node2 -->
<g id="Node000002" class="node">
<title>Node2</title>
<g id="a_Node000002"><a xlink:href="OWAbilitySet_8h.html" target="_top" xlink:title=" ">
<polygon fill="white" stroke="#666666" points="963.5,-79.5 802.5,-79.5 802.5,-60.5 963.5,-60.5 963.5,-79.5"/>
<text text-anchor="middle" x="883" y="-67.5" font-family="Helvetica,sans-Serif" font-size="10.00">AbilitySystem/OWAbilitySet.h</text>
</a>
</g>
</g>
<!-- Node1&#45;&gt;Node2 -->
<g id="edge1_Node000001_Node000002" class="edge">
<title>Node1&#45;&gt;Node2</title>
<g id="a_edge1_Node000001_Node000002"><a xlink:title=" ">
<path fill="none" stroke="#63b8ff" d="M749.53,-120.95C779.78,-109.63 821.88,-93.88 850.66,-83.1"/>
<polygon fill="#63b8ff" stroke="#63b8ff" points="852.1,-86.3 860.24,-79.52 849.65,-79.74 852.1,-86.3"/>
</a>
</g>
</g>
<!-- Node7 -->
<g id="Node000007" class="node">
<title>Node7</title>
<g id="a_Node000007"><a xlink:href="OWAbilitySystemComponent_8h.html" target="_top" xlink:title=" ">
<polygon fill="white" stroke="#666666" points="479.5,-85 306.5,-85 306.5,-55 479.5,-55 479.5,-85"/>
<text text-anchor="start" x="314.5" y="-73" font-family="Helvetica,sans-Serif" font-size="10.00">AbilitySystem/OWAbilitySystem</text>
<text text-anchor="middle" x="393" y="-62" font-family="Helvetica,sans-Serif" font-size="10.00">Component.h</text>
</a>
</g>
</g>
<!-- Node1&#45;&gt;Node7 -->
<g id="edge6_Node000001_Node000007" class="edge">
<title>Node1&#45;&gt;Node7</title>
<g id="a_edge6_Node000001_Node000007"><a xlink:title=" ">
<path fill="none" stroke="#63b8ff" d="M641.99,-120.95C592.03,-110.93 524.74,-97.43 472.7,-86.99"/>
<polygon fill="#63b8ff" stroke="#63b8ff" points="473.34,-83.55 462.84,-85.01 471.96,-90.41 473.34,-83.55"/>
</a>
</g>
</g>
<!-- Node10 -->
<g id="Node000010" class="node">
<title>Node10</title>
<g id="a_Node000010"><a xlink:href="OWGameplayAbility_8h.html" target="_top" xlink:title=" ">
<polygon fill="white" stroke="#666666" points="695,-85 567,-85 567,-55 695,-55 695,-85"/>
<text text-anchor="start" x="575" y="-73" font-family="Helvetica,sans-Serif" font-size="10.00">AbilitySystem/Abilities</text>
<text text-anchor="middle" x="631" y="-62" font-family="Helvetica,sans-Serif" font-size="10.00">/OWGameplayAbility.h</text>
</a>
</g>
</g>
<!-- Node1&#45;&gt;Node10 -->
<g id="edge10_Node000001_Node000010" class="edge">
<title>Node1&#45;&gt;Node10</title>
<g id="a_edge10_Node000001_Node000010"><a xlink:title=" ">
<path fill="none" stroke="#63b8ff" d="M694.02,-120.8C683.12,-112.18 669.02,-101.04 656.92,-91.48"/>
<polygon fill="#63b8ff" stroke="#63b8ff" points="658.94,-88.62 648.93,-85.16 654.6,-94.11 658.94,-88.62"/>
</a>
</g>
</g>
<!-- Node13 -->
<g id="Node000013" class="node">
<title>Node13</title>
<g id="a_Node000013"><a xlink:href="OWLogChannels_8h.html" target="_top" xlink:title=" ">
<polygon fill="white" stroke="#666666" points="1086.5,-79.5 981.5,-79.5 981.5,-60.5 1086.5,-60.5 1086.5,-79.5"/>
<text text-anchor="middle" x="1034" y="-67.5" font-family="Helvetica,sans-Serif" font-size="10.00">OWLogChannels.h</text>
</a>
</g>
</g>
<!-- Node1&#45;&gt;Node13 -->
<g id="edge14_Node000001_Node000013" class="edge">
<title>Node1&#45;&gt;Node13</title>
<g id="a_edge14_Node000001_Node000013"><a xlink:title=" ">
<path fill="none" stroke="#63b8ff" d="M783.59,-122.01C836.11,-112.3 909.12,-98.45 973,-85 977.8,-83.99 982.8,-82.9 987.78,-81.79"/>
<polygon fill="#63b8ff" stroke="#63b8ff" points="988.94,-85.12 997.92,-79.51 987.4,-78.29 988.94,-85.12"/>
</a>
</g>
</g>
<!-- Node3 -->
<g id="Node000003" class="node">
<title>Node3</title>
<g id="a_Node000003"><a xlink:title=" ">
<polygon fill="#e0e0e0" stroke="#999999" points="494,-19 406,-19 406,0 494,0 494,-19"/>
<text text-anchor="middle" x="450" y="-7" font-family="Helvetica,sans-Serif" font-size="10.00">CoreMinimal.h</text>
</a>
</g>
</g>
<!-- Node2&#45;&gt;Node3 -->
<g id="edge2_Node000002_Node000003" class="edge">
<title>Node2&#45;&gt;Node3</title>
<g id="a_edge2_Node000002_Node000003"><a xlink:title=" ">
<path fill="none" stroke="#63b8ff" d="M813.58,-60.46C739.49,-51.22 618.41,-35.72 504.2,-19.14"/>
<polygon fill="#63b8ff" stroke="#63b8ff" points="504.63,-15.67 494.23,-17.69 503.62,-22.59 504.63,-15.67"/>
</a>
</g>
</g>
<!-- Node4 -->
<g id="Node000004" class="node">
<title>Node4</title>
<g id="a_Node000004"><a xlink:title=" ">
<polygon fill="#e0e0e0" stroke="#999999" points="984,-19 872,-19 872,0 984,0 984,-19"/>
<text text-anchor="middle" x="928" y="-7" font-family="Helvetica,sans-Serif" font-size="10.00">Engine/DataAsset.h</text>
</a>
</g>
</g>
<!-- Node2&#45;&gt;Node4 -->
<g id="edge3_Node000002_Node000004" class="edge">
<title>Node2&#45;&gt;Node4</title>
<g id="a_edge3_Node000002_Node000004"><a xlink:title=" ">
<path fill="none" stroke="#63b8ff" d="M889.64,-60.37C896.29,-51.73 906.69,-38.2 914.99,-27.42"/>
<polygon fill="#63b8ff" stroke="#63b8ff" points="918.01,-29.23 921.33,-19.17 912.46,-24.96 918.01,-29.23"/>
</a>
</g>
</g>
<!-- Node5 -->
<g id="Node000005" class="node">
<title>Node5</title>
<g id="a_Node000005"><a xlink:title=" ">
<polygon fill="#e0e0e0" stroke="#999999" points="1141.5,-19 1002.5,-19 1002.5,0 1141.5,0 1141.5,-19"/>
<text text-anchor="middle" x="1072" y="-7" font-family="Helvetica,sans-Serif" font-size="10.00">GameplayTagContainer.h</text>
</a>
</g>
</g>
<!-- Node2&#45;&gt;Node5 -->
<g id="edge4_Node000002_Node000005" class="edge">
<title>Node2&#45;&gt;Node5</title>
<g id="a_edge4_Node000002_Node000005"><a xlink:title=" ">
<path fill="none" stroke="#63b8ff" d="M910.48,-60.49C943.24,-50.36 998.12,-33.37 1034.69,-22.05"/>
<polygon fill="#63b8ff" stroke="#63b8ff" points="1035.97,-25.32 1044.48,-19.02 1033.9,-18.63 1035.97,-25.32"/>
</a>
</g>
</g>
<!-- Node6 -->
<g id="Node000006" class="node">
<title>Node6</title>
<g id="a_Node000006"><a xlink:title=" ">
<polygon fill="#e0e0e0" stroke="#999999" points="1302,-19 1160,-19 1160,0 1302,0 1302,-19"/>
<text text-anchor="middle" x="1231" y="-7" font-family="Helvetica,sans-Serif" font-size="10.00">OWAbilitySet.generated.h</text>
</a>
</g>
</g>
<!-- Node2&#45;&gt;Node6 -->
<g id="edge5_Node000002_Node000006" class="edge">
<title>Node2&#45;&gt;Node6</title>
<g id="a_edge5_Node000002_Node000006"><a xlink:title=" ">
<path fill="none" stroke="#63b8ff" d="M933.6,-60.49C996.36,-49.94 1103.24,-31.98 1170.33,-20.7"/>
<polygon fill="#63b8ff" stroke="#63b8ff" points="1171.06,-24.13 1180.34,-19.02 1169.89,-17.22 1171.06,-24.13"/>
</a>
</g>
</g>
<!-- Node7&#45;&gt;Node3 -->
<g id="edge7_Node000007_Node000003" class="edge">
<title>Node7&#45;&gt;Node3</title>
<g id="a_edge7_Node000007_Node000003"><a xlink:title=" ">
<path fill="none" stroke="#63b8ff" d="M406.8,-54.84C415.07,-46.35 425.62,-35.52 434.23,-26.69"/>
<polygon fill="#63b8ff" stroke="#63b8ff" points="436.99,-28.87 441.46,-19.27 431.97,-23.99 436.99,-28.87"/>
</a>
</g>
</g>
<!-- Node8 -->
<g id="Node000008" class="node">
<title>Node8</title>
<g id="a_Node000008"><a xlink:title=" ">
<polygon fill="#e0e0e0" stroke="#999999" points="150,-19 0,-19 0,0 150,0 150,-19"/>
<text text-anchor="middle" x="75" y="-7" font-family="Helvetica,sans-Serif" font-size="10.00">AbilitySystemComponent.h</text>
</a>
</g>
</g>
<!-- Node7&#45;&gt;Node8 -->
<g id="edge8_Node000007_Node000008" class="edge">
<title>Node7&#45;&gt;Node8</title>
<g id="a_edge8_Node000007_Node000008"><a xlink:title=" ">
<path fill="none" stroke="#63b8ff" d="M316.83,-54.99C259.81,-44.5 183.08,-30.38 131.47,-20.89"/>
<polygon fill="#63b8ff" stroke="#63b8ff" points="131.96,-17.42 121.5,-19.05 130.7,-24.31 131.96,-17.42"/>
</a>
</g>
</g>
<!-- Node9 -->
<g id="Node000009" class="node">
<title>Node9</title>
<g id="a_Node000009"><a xlink:title=" ">
<polygon fill="#e0e0e0" stroke="#999999" points="387.5,-19 168.5,-19 168.5,0 387.5,0 387.5,-19"/>
<text text-anchor="middle" x="278" y="-7" font-family="Helvetica,sans-Serif" font-size="10.00">OWAbilitySystemComponent.generated.h</text>
</a>
</g>
</g>
<!-- Node7&#45;&gt;Node9 -->
<g id="edge9_Node000007_Node000009" class="edge">
<title>Node7&#45;&gt;Node9</title>
<g id="a_edge9_Node000007_Node000009"><a xlink:title=" ">
<path fill="none" stroke="#63b8ff" d="M365.45,-54.99C346.78,-45.49 322.26,-33.02 303.94,-23.69"/>
<polygon fill="#63b8ff" stroke="#63b8ff" points="305.48,-20.55 294.98,-19.14 302.31,-26.79 305.48,-20.55"/>
</a>
</g>
</g>
<!-- Node10&#45;&gt;Node3 -->
<g id="edge11_Node000010_Node000003" class="edge">
<title>Node10&#45;&gt;Node3</title>
<g id="a_edge11_Node000010_Node000003"><a xlink:title=" ">
<path fill="none" stroke="#63b8ff" d="M587.65,-54.99C556.68,-44.98 515.5,-31.67 486.27,-22.22"/>
<polygon fill="#63b8ff" stroke="#63b8ff" points="487.06,-18.8 476.47,-19.05 484.9,-25.46 487.06,-18.8"/>
</a>
</g>
</g>
<!-- Node11 -->
<g id="Node000011" class="node">
<title>Node11</title>
<g id="a_Node000011"><a xlink:title=" ">
<polygon fill="#e0e0e0" stroke="#999999" points="660.5,-19 511.5,-19 511.5,0 660.5,0 660.5,-19"/>
<text text-anchor="middle" x="586" y="-7" font-family="Helvetica,sans-Serif" font-size="10.00">Abilities/GameplayAbility.h</text>
</a>
</g>
</g>
<!-- Node10&#45;&gt;Node11 -->
<g id="edge12_Node000010_Node000011" class="edge">
<title>Node10&#45;&gt;Node11</title>
<g id="a_edge12_Node000010_Node000011"><a xlink:title=" ">
<path fill="none" stroke="#63b8ff" d="M620.11,-54.84C613.71,-46.52 605.58,-35.96 598.87,-27.23"/>
<polygon fill="#63b8ff" stroke="#63b8ff" points="601.61,-25.06 592.74,-19.27 596.07,-29.33 601.61,-25.06"/>
</a>
</g>
</g>
<!-- Node12 -->
<g id="Node000012" class="node">
<title>Node12</title>
<g id="a_Node000012"><a xlink:title=" ">
<polygon fill="#e0e0e0" stroke="#999999" points="854,-19 678,-19 678,0 854,0 854,-19"/>
<text text-anchor="middle" x="766" y="-7" font-family="Helvetica,sans-Serif" font-size="10.00">OWGameplayAbility.generated.h</text>
</a>
</g>
</g>
<!-- Node10&#45;&gt;Node12 -->
<g id="edge13_Node000010_Node000012" class="edge">
<title>Node10&#45;&gt;Node12</title>
<g id="a_edge13_Node000010_Node000012"><a xlink:title=" ">
<path fill="none" stroke="#63b8ff" d="M663.34,-54.99C685.66,-45.31 715.1,-32.56 736.73,-23.18"/>
<polygon fill="#63b8ff" stroke="#63b8ff" points="738.28,-26.33 746.06,-19.14 735.5,-19.9 738.28,-26.33"/>
</a>
</g>
</g>
</g>
</svg>
