<?xml version="1.0" encoding="UTF-8" standalone="no"?>
<!DOCTYPE svg PUBLIC "-//W3C//DTD SVG 1.1//EN"
 "http://www.w3.org/Graphics/SVG/1.1/DTD/svg11.dtd">
<!-- Generated by graphviz version 2.43.0 (0)
 -->
<!-- Title: Source/OliveWatch/AbilitySystem/Effects/OWCooldownGameplayEffect.cpp Pages: 1 -->
<svg width="462pt" height="236pt"
 viewBox="0.00 0.00 461.50 236.00" xmlns="http://www.w3.org/2000/svg" xmlns:xlink="http://www.w3.org/1999/xlink">
<g id="graph0" class="graph" transform="scale(1 1) rotate(0) translate(4 232)">
<title>Source/OliveWatch/AbilitySystem/Effects/OWCooldownGameplayEffect.cpp</title>
<!-- Node1 -->
<g id="Node000001" class="node">
<title>Node1</title>
<g id="a_Node000001"><a xlink:title=" ">
<polygon fill="#999999" stroke="#666666" points="256,-228 48,-228 48,-187 256,-187 256,-228"/>
<text text-anchor="start" x="56" y="-216" font-family="Helvetica,sans-Serif" font-size="10.00">Source/OliveWatch/Ability</text>
<text text-anchor="start" x="56" y="-205" font-family="Helvetica,sans-Serif" font-size="10.00">System/Effects/OWCooldownGameplay</text>
<text text-anchor="middle" x="152" y="-194" font-family="Helvetica,sans-Serif" font-size="10.00">Effect.cpp</text>
</a>
</g>
</g>
<!-- Node2 -->
<g id="Node000002" class="node">
<title>Node2</title>
<g id="a_Node000002"><a xlink:href="OWCooldownGameplayEffect_8h.html" target="_top" xlink:title=" ">
<polygon fill="white" stroke="#666666" points="238,-151 66,-151 66,-121 238,-121 238,-151"/>
<text text-anchor="start" x="74" y="-139" font-family="Helvetica,sans-Serif" font-size="10.00">AbilitySystem/Effects</text>
<text text-anchor="middle" x="152" y="-128" font-family="Helvetica,sans-Serif" font-size="10.00">/OWCooldownGameplayEffect.h</text>
</a>
</g>
</g>
<!-- Node1&#45;&gt;Node2 -->
<g id="edge1_Node000001_Node000002" class="edge">
<title>Node1&#45;&gt;Node2</title>
<g id="a_edge1_Node000001_Node000002"><a xlink:title=" ">
<path fill="none" stroke="#63b8ff" d="M152,-186.77C152,-178.85 152,-169.63 152,-161.3"/>
<polygon fill="#63b8ff" stroke="#63b8ff" points="155.5,-161.04 152,-151.04 148.5,-161.04 155.5,-161.04"/>
</a>
</g>
</g>
<!-- Node3 -->
<g id="Node000003" class="node">
<title>Node3</title>
<g id="a_Node000003"><a xlink:title=" ">
<polygon fill="#e0e0e0" stroke="#999999" points="88,-19 0,-19 0,0 88,0 88,-19"/>
<text text-anchor="middle" x="44" y="-7" font-family="Helvetica,sans-Serif" font-size="10.00">CoreMinimal.h</text>
</a>
</g>
</g>
<!-- Node2&#45;&gt;Node3 -->
<g id="edge2_Node000002_Node000003" class="edge">
<title>Node2&#45;&gt;Node3</title>
<g id="a_edge2_Node000002_Node000003"><a xlink:title=" ">
<path fill="none" stroke="#63b8ff" d="M125.92,-120.98C111.32,-112.15 93.57,-99.65 81,-85 66.64,-68.26 56.24,-44.97 50.19,-28.91"/>
<polygon fill="#63b8ff" stroke="#63b8ff" points="53.36,-27.36 46.7,-19.12 46.76,-29.71 53.36,-27.36"/>
</a>
</g>
</g>
<!-- Node4 -->
<g id="Node000004" class="node">
<title>Node4</title>
<g id="a_Node000004"><a xlink:href="OWGameplayEffect_8h.html" target="_top" xlink:title=" ">
<polygon fill="white" stroke="#666666" points="214,-85 90,-85 90,-55 214,-55 214,-85"/>
<text text-anchor="start" x="98" y="-73" font-family="Helvetica,sans-Serif" font-size="10.00">AbilitySystem/Effects</text>
<text text-anchor="middle" x="152" y="-62" font-family="Helvetica,sans-Serif" font-size="10.00">/OWGameplayEffect.h</text>
</a>
</g>
</g>
<!-- Node2&#45;&gt;Node4 -->
<g id="edge3_Node000002_Node000004" class="edge">
<title>Node2&#45;&gt;Node4</title>
<g id="a_edge3_Node000002_Node000004"><a xlink:title=" ">
<path fill="none" stroke="#63b8ff" d="M152,-120.8C152,-113.34 152,-103.99 152,-95.41"/>
<polygon fill="#63b8ff" stroke="#63b8ff" points="155.5,-95.16 152,-85.16 148.5,-95.16 155.5,-95.16"/>
</a>
</g>
</g>
<!-- Node7 -->
<g id="Node000007" class="node">
<title>Node7</title>
<g id="a_Node000007"><a xlink:title=" ">
<polygon fill="#e0e0e0" stroke="#999999" points="453.5,-79.5 232.5,-79.5 232.5,-60.5 453.5,-60.5 453.5,-79.5"/>
<text text-anchor="middle" x="343" y="-67.5" font-family="Helvetica,sans-Serif" font-size="10.00">OWCooldownGameplayEffect.generated.h</text>
</a>
</g>
</g>
<!-- Node2&#45;&gt;Node7 -->
<g id="edge7_Node000002_Node000007" class="edge">
<title>Node2&#45;&gt;Node7</title>
<g id="a_edge7_Node000002_Node000007"><a xlink:title=" ">
<path fill="none" stroke="#63b8ff" d="M193.92,-120.95C228,-109.53 275.55,-93.6 307.72,-82.82"/>
<polygon fill="#63b8ff" stroke="#63b8ff" points="309.21,-86.01 317.58,-79.52 306.99,-79.38 309.21,-86.01"/>
</a>
</g>
</g>
<!-- Node4&#45;&gt;Node3 -->
<g id="edge4_Node000004_Node000003" class="edge">
<title>Node4&#45;&gt;Node3</title>
<g id="a_edge4_Node000004_Node000003"><a xlink:title=" ">
<path fill="none" stroke="#63b8ff" d="M126.13,-54.99C108.76,-45.58 85.99,-33.24 68.83,-23.95"/>
<polygon fill="#63b8ff" stroke="#63b8ff" points="70.41,-20.82 59.95,-19.14 67.08,-26.98 70.41,-20.82"/>
</a>
</g>
</g>
<!-- Node5 -->
<g id="Node000005" class="node">
<title>Node5</title>
<g id="a_Node000005"><a xlink:title=" ">
<polygon fill="#e0e0e0" stroke="#999999" points="210,-19 106,-19 106,0 210,0 210,-19"/>
<text text-anchor="middle" x="158" y="-7" font-family="Helvetica,sans-Serif" font-size="10.00">GameplayEffect.h</text>
</a>
</g>
</g>
<!-- Node4&#45;&gt;Node5 -->
<g id="edge5_Node000004_Node000005" class="edge">
<title>Node4&#45;&gt;Node5</title>
<g id="a_edge5_Node000004_Node000005"><a xlink:title=" ">
<path fill="none" stroke="#63b8ff" d="M153.45,-54.84C154.23,-47.21 155.21,-37.7 156.06,-29.45"/>
<polygon fill="#63b8ff" stroke="#63b8ff" points="159.56,-29.57 157.1,-19.27 152.6,-28.86 159.56,-29.57"/>
</a>
</g>
</g>
<!-- Node6 -->
<g id="Node000006" class="node">
<title>Node6</title>
<g id="a_Node000006"><a xlink:title=" ">
<polygon fill="#e0e0e0" stroke="#999999" points="401.5,-19 228.5,-19 228.5,0 401.5,0 401.5,-19"/>
<text text-anchor="middle" x="315" y="-7" font-family="Helvetica,sans-Serif" font-size="10.00">OWGameplayEffect.generated.h</text>
</a>
</g>
</g>
<!-- Node4&#45;&gt;Node6 -->
<g id="edge6_Node000004_Node000006" class="edge">
<title>Node4&#45;&gt;Node6</title>
<g id="a_edge6_Node000004_Node000006"><a xlink:title=" ">
<path fill="none" stroke="#63b8ff" d="M191.04,-54.99C218.6,-45.1 255.15,-31.98 281.41,-22.56"/>
<polygon fill="#63b8ff" stroke="#63b8ff" points="282.7,-25.81 290.93,-19.14 280.33,-19.22 282.7,-25.81"/>
</a>
</g>
</g>
</g>
</svg>
