<?xml version="1.0" encoding="UTF-8" standalone="no"?>
<!DOCTYPE svg PUBLIC "-//W3C//DTD SVG 1.1//EN"
 "http://www.w3.org/Graphics/SVG/1.1/DTD/svg11.dtd">
<!-- Generated by graphviz version 2.43.0 (0)
 -->
<!-- Title: Source/OliveWatch/AbilitySystem/Abilities/OWGameplayAbility.cpp Pages: 1 -->
<svg width="1015pt" height="225pt"
 viewBox="0.00 0.00 1014.50 225.00" xmlns="http://www.w3.org/2000/svg" xmlns:xlink="http://www.w3.org/1999/xlink">
<g id="graph0" class="graph" transform="scale(1 1) rotate(0) translate(4 221)">
<title>Source/OliveWatch/AbilitySystem/Abilities/OWGameplayAbility.cpp</title>
<!-- Node1 -->
<g id="Node000001" class="node">
<title>Node1</title>
<g id="a_Node000001"><a xlink:title=" ">
<polygon fill="#999999" stroke="#666666" points="824,-217 607,-217 607,-187 824,-187 824,-217"/>
<text text-anchor="start" x="615" y="-205" font-family="Helvetica,sans-Serif" font-size="10.00">Source/OliveWatch/Ability</text>
<text text-anchor="middle" x="715.5" y="-194" font-family="Helvetica,sans-Serif" font-size="10.00">System/Abilities/OWGameplayAbility.cpp</text>
</a>
</g>
</g>
<!-- Node2 -->
<g id="Node000002" class="node">
<title>Node2</title>
<g id="a_Node000002"><a xlink:href="OWGameplayAbility_8h.html" target="_top" xlink:title=" ">
<polygon fill="white" stroke="#666666" points="631.5,-151 503.5,-151 503.5,-121 631.5,-121 631.5,-151"/>
<text text-anchor="start" x="511.5" y="-139" font-family="Helvetica,sans-Serif" font-size="10.00">AbilitySystem/Abilities</text>
<text text-anchor="middle" x="567.5" y="-128" font-family="Helvetica,sans-Serif" font-size="10.00">/OWGameplayAbility.h</text>
</a>
</g>
</g>
<!-- Node1&#45;&gt;Node2 -->
<g id="edge1_Node000001_Node000002" class="edge">
<title>Node1&#45;&gt;Node2</title>
<g id="a_edge1_Node000001_Node000002"><a xlink:title=" ">
<path fill="none" stroke="#63b8ff" d="M683.02,-186.95C661.33,-177.58 632.61,-165.16 609.23,-155.05"/>
<polygon fill="#63b8ff" stroke="#63b8ff" points="610.47,-151.77 599.9,-151.01 607.69,-158.19 610.47,-151.77"/>
</a>
</g>
</g>
<!-- Node6 -->
<g id="Node000006" class="node">
<title>Node6</title>
<g id="a_Node000006"><a xlink:title=" ">
<polygon fill="#e0e0e0" stroke="#999999" points="753.5,-19 649.5,-19 649.5,0 753.5,0 753.5,-19"/>
<text text-anchor="middle" x="701.5" y="-7" font-family="Helvetica,sans-Serif" font-size="10.00">GameplayEffect.h</text>
</a>
</g>
</g>
<!-- Node1&#45;&gt;Node6 -->
<g id="edge5_Node000001_Node000006" class="edge">
<title>Node1&#45;&gt;Node6</title>
<g id="a_edge5_Node000001_Node000006"><a xlink:title=" ">
<path fill="none" stroke="#63b8ff" d="M736.8,-186.8C773.44,-160.57 841.53,-102.85 809.5,-55 798.84,-39.08 781.33,-28.84 763.49,-22.27"/>
<polygon fill="#63b8ff" stroke="#63b8ff" points="764.17,-18.81 753.58,-18.99 761.97,-25.46 764.17,-18.81"/>
</a>
</g>
</g>
<!-- Node7 -->
<g id="Node000007" class="node">
<title>Node7</title>
<g id="a_Node000007"><a xlink:href="OWCooldownGameplayEffect_8h.html" target="_top" xlink:title=" ">
<polygon fill="white" stroke="#666666" points="428.5,-151 256.5,-151 256.5,-121 428.5,-121 428.5,-151"/>
<text text-anchor="start" x="264.5" y="-139" font-family="Helvetica,sans-Serif" font-size="10.00">AbilitySystem//Effects</text>
<text text-anchor="middle" x="342.5" y="-128" font-family="Helvetica,sans-Serif" font-size="10.00">/OWCooldownGameplayEffect.h</text>
</a>
</g>
</g>
<!-- Node1&#45;&gt;Node7 -->
<g id="edge6_Node000001_Node000007" class="edge">
<title>Node1&#45;&gt;Node7</title>
<g id="a_edge6_Node000001_Node000007"><a xlink:title=" ">
<path fill="none" stroke="#63b8ff" d="M633.64,-186.95C574.73,-176.85 495.23,-163.2 434.18,-152.73"/>
<polygon fill="#63b8ff" stroke="#63b8ff" points="434.61,-149.25 424.17,-151.01 433.43,-156.15 434.61,-149.25"/>
</a>
</g>
</g>
<!-- Node11 -->
<g id="Node000011" class="node">
<title>Node11</title>
<g id="a_Node000011"><a xlink:title=" ">
<polygon fill="#e0e0e0" stroke="#999999" points="1006.5,-145.5 856.5,-145.5 856.5,-126.5 1006.5,-126.5 1006.5,-145.5"/>
<text text-anchor="middle" x="931.5" y="-133.5" font-family="Helvetica,sans-Serif" font-size="10.00">AbilitySystemComponent.h</text>
</a>
</g>
</g>
<!-- Node1&#45;&gt;Node11 -->
<g id="edge13_Node000001_Node000011" class="edge">
<title>Node1&#45;&gt;Node11</title>
<g id="a_edge13_Node000001_Node000011"><a xlink:title=" ">
<path fill="none" stroke="#63b8ff" d="M762.9,-186.95C801.95,-175.38 856.63,-159.18 893.01,-148.41"/>
<polygon fill="#63b8ff" stroke="#63b8ff" points="894.16,-151.71 902.75,-145.52 892.17,-145 894.16,-151.71"/>
</a>
</g>
</g>
<!-- Node3 -->
<g id="Node000003" class="node">
<title>Node3</title>
<g id="a_Node000003"><a xlink:title=" ">
<polygon fill="#e0e0e0" stroke="#999999" points="312.5,-19 224.5,-19 224.5,0 312.5,0 312.5,-19"/>
<text text-anchor="middle" x="268.5" y="-7" font-family="Helvetica,sans-Serif" font-size="10.00">CoreMinimal.h</text>
</a>
</g>
</g>
<!-- Node2&#45;&gt;Node3 -->
<g id="edge2_Node000002_Node000003" class="edge">
<title>Node2&#45;&gt;Node3</title>
<g id="a_edge2_Node000002_Node000003"><a xlink:title=" ">
<path fill="none" stroke="#63b8ff" d="M503.24,-129.17C436.26,-121.98 336.89,-107.82 306.5,-85 288.22,-71.27 278.05,-46.23 272.93,-29"/>
<polygon fill="#63b8ff" stroke="#63b8ff" points="276.22,-27.76 270.26,-19 269.46,-29.57 276.22,-27.76"/>
</a>
</g>
</g>
<!-- Node4 -->
<g id="Node000004" class="node">
<title>Node4</title>
<g id="a_Node000004"><a xlink:title=" ">
<polygon fill="#e0e0e0" stroke="#999999" points="607,-79.5 458,-79.5 458,-60.5 607,-60.5 607,-79.5"/>
<text text-anchor="middle" x="532.5" y="-67.5" font-family="Helvetica,sans-Serif" font-size="10.00">Abilities/GameplayAbility.h</text>
</a>
</g>
</g>
<!-- Node2&#45;&gt;Node4 -->
<g id="edge3_Node000002_Node000004" class="edge">
<title>Node2&#45;&gt;Node4</title>
<g id="a_edge3_Node000002_Node000004"><a xlink:title=" ">
<path fill="none" stroke="#63b8ff" d="M559.73,-120.8C554.54,-111.31 547.68,-98.76 542.14,-88.63"/>
<polygon fill="#63b8ff" stroke="#63b8ff" points="545.21,-86.94 537.34,-79.84 539.06,-90.3 545.21,-86.94"/>
</a>
</g>
</g>
<!-- Node5 -->
<g id="Node000005" class="node">
<title>Node5</title>
<g id="a_Node000005"><a xlink:title=" ">
<polygon fill="#e0e0e0" stroke="#999999" points="800.5,-79.5 624.5,-79.5 624.5,-60.5 800.5,-60.5 800.5,-79.5"/>
<text text-anchor="middle" x="712.5" y="-67.5" font-family="Helvetica,sans-Serif" font-size="10.00">OWGameplayAbility.generated.h</text>
</a>
</g>
</g>
<!-- Node2&#45;&gt;Node5 -->
<g id="edge4_Node000002_Node000005" class="edge">
<title>Node2&#45;&gt;Node5</title>
<g id="a_edge4_Node000002_Node000005"><a xlink:title=" ">
<path fill="none" stroke="#63b8ff" d="M599.32,-120.95C624.53,-109.83 659.43,-94.42 683.79,-83.67"/>
<polygon fill="#63b8ff" stroke="#63b8ff" points="685.47,-86.76 693.2,-79.52 682.64,-80.35 685.47,-86.76"/>
</a>
</g>
</g>
<!-- Node7&#45;&gt;Node3 -->
<g id="edge7_Node000007_Node000003" class="edge">
<title>Node7&#45;&gt;Node3</title>
<g id="a_edge7_Node000007_Node000003"><a xlink:title=" ">
<path fill="none" stroke="#63b8ff" d="M312.05,-120.81C297.79,-112.49 282.09,-100.53 273.5,-85 264.11,-68.02 263.99,-45.43 265.51,-29.59"/>
<polygon fill="#63b8ff" stroke="#63b8ff" points="269.01,-29.79 266.8,-19.43 262.07,-28.91 269.01,-29.79"/>
</a>
</g>
</g>
<!-- Node8 -->
<g id="Node000008" class="node">
<title>Node8</title>
<g id="a_Node000008"><a xlink:href="OWGameplayEffect_8h.html" target="_top" xlink:title=" ">
<polygon fill="white" stroke="#666666" points="439.5,-85 315.5,-85 315.5,-55 439.5,-55 439.5,-85"/>
<text text-anchor="start" x="323.5" y="-73" font-family="Helvetica,sans-Serif" font-size="10.00">AbilitySystem/Effects</text>
<text text-anchor="middle" x="377.5" y="-62" font-family="Helvetica,sans-Serif" font-size="10.00">/OWGameplayEffect.h</text>
</a>
</g>
</g>
<!-- Node7&#45;&gt;Node8 -->
<g id="edge8_Node000007_Node000008" class="edge">
<title>Node7&#45;&gt;Node8</title>
<g id="a_edge8_Node000007_Node000008"><a xlink:title=" ">
<path fill="none" stroke="#63b8ff" d="M350.27,-120.8C354.57,-112.92 360.03,-102.95 364.93,-93.99"/>
<polygon fill="#63b8ff" stroke="#63b8ff" points="368.03,-95.62 369.75,-85.16 361.89,-92.26 368.03,-95.62"/>
</a>
</g>
</g>
<!-- Node10 -->
<g id="Node000010" class="node">
<title>Node10</title>
<g id="a_Node000010"><a xlink:title=" ">
<polygon fill="#e0e0e0" stroke="#999999" points="221,-79.5 0,-79.5 0,-60.5 221,-60.5 221,-79.5"/>
<text text-anchor="middle" x="110.5" y="-67.5" font-family="Helvetica,sans-Serif" font-size="10.00">OWCooldownGameplayEffect.generated.h</text>
</a>
</g>
</g>
<!-- Node7&#45;&gt;Node10 -->
<g id="edge12_Node000007_Node000010" class="edge">
<title>Node7&#45;&gt;Node10</title>
<g id="a_edge12_Node000007_Node000010"><a xlink:title=" ">
<path fill="none" stroke="#63b8ff" d="M291.59,-120.95C249.47,-109.34 190.42,-93.05 151.35,-82.27"/>
<polygon fill="#63b8ff" stroke="#63b8ff" points="151.95,-78.8 141.38,-79.52 150.08,-85.55 151.95,-78.8"/>
</a>
</g>
</g>
<!-- Node8&#45;&gt;Node3 -->
<g id="edge9_Node000008_Node000003" class="edge">
<title>Node8&#45;&gt;Node3</title>
<g id="a_edge9_Node000008_Node000003"><a xlink:title=" ">
<path fill="none" stroke="#63b8ff" d="M351.39,-54.99C333.86,-45.58 310.88,-33.24 293.56,-23.95"/>
<polygon fill="#63b8ff" stroke="#63b8ff" points="295.06,-20.78 284.6,-19.14 291.75,-26.95 295.06,-20.78"/>
</a>
</g>
</g>
<!-- Node8&#45;&gt;Node6 -->
<g id="edge10_Node000008_Node000006" class="edge">
<title>Node8&#45;&gt;Node6</title>
<g id="a_edge10_Node000008_Node000006"><a xlink:title=" ">
<path fill="none" stroke="#63b8ff" d="M439.82,-56.64C442.76,-56.08 445.66,-55.53 448.5,-55 514.26,-42.73 589.82,-29.56 641.12,-20.76"/>
<polygon fill="#63b8ff" stroke="#63b8ff" points="641.78,-24.2 651.04,-19.06 640.59,-17.3 641.78,-24.2"/>
</a>
</g>
</g>
<!-- Node9 -->
<g id="Node000009" class="node">
<title>Node9</title>
<g id="a_Node000009"><a xlink:title=" ">
<polygon fill="#e0e0e0" stroke="#999999" points="504,-19 331,-19 331,0 504,0 504,-19"/>
<text text-anchor="middle" x="417.5" y="-7" font-family="Helvetica,sans-Serif" font-size="10.00">OWGameplayEffect.generated.h</text>
</a>
</g>
</g>
<!-- Node8&#45;&gt;Node9 -->
<g id="edge11_Node000008_Node000009" class="edge">
<title>Node8&#45;&gt;Node9</title>
<g id="a_edge11_Node000008_Node000009"><a xlink:title=" ">
<path fill="none" stroke="#63b8ff" d="M387.18,-54.84C392.75,-46.69 399.79,-36.4 405.68,-27.78"/>
<polygon fill="#63b8ff" stroke="#63b8ff" points="408.75,-29.5 411.51,-19.27 402.97,-25.55 408.75,-29.5"/>
</a>
</g>
</g>
</g>
</svg>
