<?xml version="1.0" encoding="UTF-8" standalone="no"?>
<!DOCTYPE svg PUBLIC "-//W3C//DTD SVG 1.1//EN"
 "http://www.w3.org/Graphics/SVG/1.1/DTD/svg11.dtd">
<!-- Generated by graphviz version 2.43.0 (0)
 -->
<!-- Title: Source/OliveWatch/AbilitySystem/Effects/OWGameplayEffect.h Pages: 1 -->
<svg width="846pt" height="192pt"
 viewBox="0.00 0.00 845.50 192.00" xmlns="http://www.w3.org/2000/svg" xmlns:xlink="http://www.w3.org/1999/xlink">
<g id="graph0" class="graph" transform="scale(1 1) rotate(0) translate(4 188)">
<title>Source/OliveWatch/AbilitySystem/Effects/OWGameplayEffect.h</title>
<!-- Node1 -->
<g id="Node000001" class="node">
<title>Node1</title>
<g id="a_Node000001"><a xlink:title=" ">
<polygon fill="#999999" stroke="#666666" points="630,-184 433,-184 433,-154 630,-154 630,-184"/>
<text text-anchor="start" x="441" y="-172" font-family="Helvetica,sans-Serif" font-size="10.00">Source/OliveWatch/Ability</text>
<text text-anchor="middle" x="531.5" y="-161" font-family="Helvetica,sans-Serif" font-size="10.00">System/Effects/OWGameplayEffect.h</text>
</a>
</g>
</g>
<!-- Node2 -->
<g id="Node000002" class="node">
<title>Node2</title>
<g id="a_Node000002"><a xlink:href="OWCooldownGameplayEffect_8h.html" target="_top" xlink:title=" ">
<polygon fill="white" stroke="#666666" points="413.5,-118 205.5,-118 205.5,-77 413.5,-77 413.5,-118"/>
<text text-anchor="start" x="213.5" y="-106" font-family="Helvetica,sans-Serif" font-size="10.00">Source/OliveWatch/Ability</text>
<text text-anchor="start" x="213.5" y="-95" font-family="Helvetica,sans-Serif" font-size="10.00">System/Effects/OWCooldownGameplay</text>
<text text-anchor="middle" x="309.5" y="-84" font-family="Helvetica,sans-Serif" font-size="10.00">Effect.h</text>
</a>
</g>
</g>
<!-- Node1&#45;&gt;Node2 -->
<g id="edge1_Node000001_Node000002" class="edge">
<title>Node1&#45;&gt;Node2</title>
<g id="a_edge1_Node000001_Node000002"><a xlink:title=" ">
<path fill="none" stroke="#63b8ff" d="M477.01,-150.94C445.24,-141 405.07,-128.42 372.02,-118.07"/>
<polygon fill="#63b8ff" stroke="#63b8ff" points="475.99,-154.29 486.57,-153.94 478.08,-147.61 475.99,-154.29"/>
</a>
</g>
</g>
<!-- Node5 -->
<g id="Node000005" class="node">
<title>Node5</title>
<g id="a_Node000005"><a xlink:href="OWGE__Cost_8h.html" target="_top" xlink:title=" ">
<polygon fill="white" stroke="#666666" points="611,-112.5 452,-112.5 452,-82.5 611,-82.5 611,-112.5"/>
<text text-anchor="start" x="460" y="-100.5" font-family="Helvetica,sans-Serif" font-size="10.00">Source/OliveWatch/Ability</text>
<text text-anchor="middle" x="531.5" y="-89.5" font-family="Helvetica,sans-Serif" font-size="10.00">System/Effects/OWGE_Cost.h</text>
</a>
</g>
</g>
<!-- Node1&#45;&gt;Node5 -->
<g id="edge4_Node000001_Node000005" class="edge">
<title>Node1&#45;&gt;Node5</title>
<g id="a_edge4_Node000001_Node000005"><a xlink:title=" ">
<path fill="none" stroke="#63b8ff" d="M531.5,-143.75C531.5,-133.31 531.5,-121.49 531.5,-112.54"/>
<polygon fill="#63b8ff" stroke="#63b8ff" points="528,-143.94 531.5,-153.94 535,-143.94 528,-143.94"/>
</a>
</g>
</g>
<!-- Node8 -->
<g id="Node000008" class="node">
<title>Node8</title>
<g id="a_Node000008"><a xlink:href="OWGameplayEffect_8cpp.html" target="_top" xlink:title=" ">
<polygon fill="white" stroke="#666666" points="837.5,-112.5 629.5,-112.5 629.5,-82.5 837.5,-82.5 837.5,-112.5"/>
<text text-anchor="start" x="637.5" y="-100.5" font-family="Helvetica,sans-Serif" font-size="10.00">Source/OliveWatch/Ability</text>
<text text-anchor="middle" x="733.5" y="-89.5" font-family="Helvetica,sans-Serif" font-size="10.00">System/Effects/OWGameplayEffect.cpp</text>
</a>
</g>
</g>
<!-- Node1&#45;&gt;Node8 -->
<g id="edge7_Node000001_Node000008" class="edge">
<title>Node1&#45;&gt;Node8</title>
<g id="a_edge7_Node000001_Node000008"><a xlink:title=" ">
<path fill="none" stroke="#63b8ff" d="M582.17,-150.57C616.33,-138.81 660.8,-123.51 692.68,-112.54"/>
<polygon fill="#63b8ff" stroke="#63b8ff" points="580.69,-147.37 572.38,-153.94 582.97,-153.99 580.69,-147.37"/>
</a>
</g>
</g>
<!-- Node3 -->
<g id="Node000003" class="node">
<title>Node3</title>
<g id="a_Node000003"><a xlink:href="OWGA__Active_8cpp.html" target="_top" xlink:title=" ">
<polygon fill="white" stroke="#666666" points="187,-35.5 0,-35.5 0,-5.5 187,-5.5 187,-35.5"/>
<text text-anchor="start" x="8" y="-23.5" font-family="Helvetica,sans-Serif" font-size="10.00">Source/OliveWatch/Ability</text>
<text text-anchor="middle" x="93.5" y="-12.5" font-family="Helvetica,sans-Serif" font-size="10.00">System/Abilities/OWGA_Active.cpp</text>
</a>
</g>
</g>
<!-- Node2&#45;&gt;Node3 -->
<g id="edge2_Node000002_Node000003" class="edge">
<title>Node2&#45;&gt;Node3</title>
<g id="a_edge2_Node000002_Node000003"><a xlink:title=" ">
<path fill="none" stroke="#63b8ff" d="M243.45,-73.57C207.76,-61.17 164.82,-46.26 134.06,-35.58"/>
<polygon fill="#63b8ff" stroke="#63b8ff" points="242.72,-77.02 253.31,-76.99 245.01,-70.4 242.72,-77.02"/>
</a>
</g>
</g>
<!-- Node4 -->
<g id="Node000004" class="node">
<title>Node4</title>
<g id="a_Node000004"><a xlink:href="OWCooldownGameplayEffect_8cpp.html" target="_top" xlink:title=" ">
<polygon fill="white" stroke="#666666" points="413.5,-41 205.5,-41 205.5,0 413.5,0 413.5,-41"/>
<text text-anchor="start" x="213.5" y="-29" font-family="Helvetica,sans-Serif" font-size="10.00">Source/OliveWatch/Ability</text>
<text text-anchor="start" x="213.5" y="-18" font-family="Helvetica,sans-Serif" font-size="10.00">System/Effects/OWCooldownGameplay</text>
<text text-anchor="middle" x="309.5" y="-7" font-family="Helvetica,sans-Serif" font-size="10.00">Effect.cpp</text>
</a>
</g>
</g>
<!-- Node2&#45;&gt;Node4 -->
<g id="edge3_Node000002_Node000004" class="edge">
<title>Node2&#45;&gt;Node4</title>
<g id="a_edge3_Node000002_Node000004"><a xlink:title=" ">
<path fill="none" stroke="#63b8ff" d="M309.5,-66.69C309.5,-58.08 309.5,-48.9 309.5,-41.07"/>
<polygon fill="#63b8ff" stroke="#63b8ff" points="306,-66.79 309.5,-76.79 313,-66.79 306,-66.79"/>
</a>
</g>
</g>
<!-- Node6 -->
<g id="Node000006" class="node">
<title>Node6</title>
<g id="a_Node000006"><a xlink:href="OWGA__Ultimate_8cpp.html" target="_top" xlink:title=" ">
<polygon fill="white" stroke="#666666" points="631,-35.5 432,-35.5 432,-5.5 631,-5.5 631,-35.5"/>
<text text-anchor="start" x="440" y="-23.5" font-family="Helvetica,sans-Serif" font-size="10.00">Source/OliveWatch/Ability</text>
<text text-anchor="middle" x="531.5" y="-12.5" font-family="Helvetica,sans-Serif" font-size="10.00">System/Abilities/OWGA_Ultimate.cpp</text>
</a>
</g>
</g>
<!-- Node5&#45;&gt;Node6 -->
<g id="edge5_Node000005_Node000006" class="edge">
<title>Node5&#45;&gt;Node6</title>
<g id="a_edge5_Node000005_Node000006"><a xlink:title=" ">
<path fill="none" stroke="#63b8ff" d="M531.5,-72.04C531.5,-59.95 531.5,-45.79 531.5,-35.54"/>
<polygon fill="#63b8ff" stroke="#63b8ff" points="528,-72.39 531.5,-82.39 535,-72.39 528,-72.39"/>
</a>
</g>
</g>
<!-- Node7 -->
<g id="Node000007" class="node">
<title>Node7</title>
<g id="a_Node000007"><a xlink:href="OWGE__Cost_8cpp.html" target="_top" xlink:title=" ">
<polygon fill="white" stroke="#666666" points="819.5,-35.5 649.5,-35.5 649.5,-5.5 819.5,-5.5 819.5,-35.5"/>
<text text-anchor="start" x="657.5" y="-23.5" font-family="Helvetica,sans-Serif" font-size="10.00">Source/OliveWatch/Ability</text>
<text text-anchor="middle" x="734.5" y="-12.5" font-family="Helvetica,sans-Serif" font-size="10.00">System/Effects/OWGE_Cost.cpp</text>
</a>
</g>
</g>
<!-- Node5&#45;&gt;Node7 -->
<g id="edge6_Node000005_Node000007" class="edge">
<title>Node5&#45;&gt;Node7</title>
<g id="a_edge6_Node000005_Node000007"><a xlink:title=" ">
<path fill="none" stroke="#63b8ff" d="M579.42,-78.8C615.17,-65.59 663.37,-47.78 696.49,-35.54"/>
<polygon fill="#63b8ff" stroke="#63b8ff" points="577.85,-75.64 569.68,-82.39 580.28,-82.21 577.85,-75.64"/>
</a>
</g>
</g>
</g>
</svg>
