<?xml version="1.0" encoding="UTF-8" standalone="no"?>
<!DOCTYPE svg PUBLIC "-//W3C//DTD SVG 1.1//EN"
 "http://www.w3.org/Graphics/SVG/1.1/DTD/svg11.dtd">
<!-- Generated by graphviz version 2.43.0 (0)
 -->
<!-- Title: Source/OliveWatch/AbilitySystem/Abilities/OWGameplayAbility.h Pages: 1 -->
<svg width="844pt" height="192pt"
 viewBox="0.00 0.00 843.50 192.00" xmlns="http://www.w3.org/2000/svg" xmlns:xlink="http://www.w3.org/1999/xlink">
<g id="graph0" class="graph" transform="scale(1 1) rotate(0) translate(4 188)">
<title>Source/OliveWatch/AbilitySystem/Abilities/OWGameplayAbility.h</title>
<!-- Node1 -->
<g id="Node000001" class="node">
<title>Node1</title>
<g id="a_Node000001"><a xlink:title=" ">
<polygon fill="#999999" stroke="#666666" points="534.5,-184 328.5,-184 328.5,-154 534.5,-154 534.5,-184"/>
<text text-anchor="start" x="336.5" y="-172" font-family="Helvetica,sans-Serif" font-size="10.00">Source/OliveWatch/Ability</text>
<text text-anchor="middle" x="431.5" y="-161" font-family="Helvetica,sans-Serif" font-size="10.00">System/Abilities/OWGameplayAbility.h</text>
</a>
</g>
</g>
<!-- Node2 -->
<g id="Node000002" class="node">
<title>Node2</title>
<g id="a_Node000002"><a xlink:href="OWGameplayAbility_8cpp.html" target="_top" xlink:title=" ">
<polygon fill="white" stroke="#666666" points="217,-112.5 0,-112.5 0,-82.5 217,-82.5 217,-112.5"/>
<text text-anchor="start" x="8" y="-100.5" font-family="Helvetica,sans-Serif" font-size="10.00">Source/OliveWatch/Ability</text>
<text text-anchor="middle" x="108.5" y="-89.5" font-family="Helvetica,sans-Serif" font-size="10.00">System/Abilities/OWGameplayAbility.cpp</text>
</a>
</g>
</g>
<!-- Node1&#45;&gt;Node2 -->
<g id="edge1_Node000001_Node000002" class="edge">
<title>Node1&#45;&gt;Node2</title>
<g id="a_edge1_Node000001_Node000002"><a xlink:title=" ">
<path fill="none" stroke="#63b8ff" d="M356.05,-151.76C300.77,-139.87 226.5,-123.89 173.77,-112.54"/>
<polygon fill="#63b8ff" stroke="#63b8ff" points="355.62,-155.25 366.14,-153.94 357.1,-148.41 355.62,-155.25"/>
</a>
</g>
</g>
<!-- Node3 -->
<g id="Node000003" class="node">
<title>Node3</title>
<g id="a_Node000003"><a xlink:href="OWGameplayAbility__Test_8h.html" target="_top" xlink:title=" ">
<polygon fill="white" stroke="#666666" points="438,-118 235,-118 235,-77 438,-77 438,-118"/>
<text text-anchor="start" x="243" y="-106" font-family="Helvetica,sans-Serif" font-size="10.00">Source/OliveWatch/Ability</text>
<text text-anchor="start" x="243" y="-95" font-family="Helvetica,sans-Serif" font-size="10.00">System/Abilities/OWGameplayAbility_</text>
<text text-anchor="middle" x="336.5" y="-84" font-family="Helvetica,sans-Serif" font-size="10.00">Test.h</text>
</a>
</g>
</g>
<!-- Node1&#45;&gt;Node3 -->
<g id="edge2_Node000001_Node000003" class="edge">
<title>Node1&#45;&gt;Node3</title>
<g id="a_edge2_Node000001_Node000003"><a xlink:title=" ">
<path fill="none" stroke="#63b8ff" d="M403.85,-147.77C391.06,-138.42 375.93,-127.35 363.26,-118.07"/>
<polygon fill="#63b8ff" stroke="#63b8ff" points="402.14,-150.86 412.28,-153.94 406.27,-145.21 402.14,-150.86"/>
</a>
</g>
</g>
<!-- Node5 -->
<g id="Node000005" class="node">
<title>Node5</title>
<g id="a_Node000005"><a xlink:href="OWAbilitySet_8cpp.html" target="_top" xlink:title=" ">
<polygon fill="white" stroke="#666666" points="599,-112.5 456,-112.5 456,-82.5 599,-82.5 599,-112.5"/>
<text text-anchor="start" x="464" y="-100.5" font-family="Helvetica,sans-Serif" font-size="10.00">Source/OliveWatch/Ability</text>
<text text-anchor="middle" x="527.5" y="-89.5" font-family="Helvetica,sans-Serif" font-size="10.00">System/OWAbilitySet.cpp</text>
</a>
</g>
</g>
<!-- Node1&#45;&gt;Node5 -->
<g id="edge4_Node000001_Node000005" class="edge">
<title>Node1&#45;&gt;Node5</title>
<g id="a_edge4_Node000001_Node000005"><a xlink:title=" ">
<path fill="none" stroke="#63b8ff" d="M459.21,-147.94C474.87,-136.6 494.06,-122.71 508.1,-112.54"/>
<polygon fill="#63b8ff" stroke="#63b8ff" points="456.97,-145.24 450.93,-153.94 461.08,-150.91 456.97,-145.24"/>
</a>
</g>
</g>
<!-- Node6 -->
<g id="Node000006" class="node">
<title>Node6</title>
<g id="a_Node000006"><a xlink:href="OWAbilitySystemComponent_8cpp.html" target="_top" xlink:title=" ">
<polygon fill="white" stroke="#666666" points="835.5,-112.5 617.5,-112.5 617.5,-82.5 835.5,-82.5 835.5,-112.5"/>
<text text-anchor="start" x="625.5" y="-100.5" font-family="Helvetica,sans-Serif" font-size="10.00">Source/OliveWatch/Ability</text>
<text text-anchor="middle" x="726.5" y="-89.5" font-family="Helvetica,sans-Serif" font-size="10.00">System/OWAbilitySystemComponent.cpp</text>
</a>
</g>
</g>
<!-- Node1&#45;&gt;Node6 -->
<g id="edge5_Node000001_Node000006" class="edge">
<title>Node1&#45;&gt;Node6</title>
<g id="a_edge5_Node000001_Node000006"><a xlink:title=" ">
<path fill="none" stroke="#63b8ff" d="M501.04,-151.62C551.46,-139.74 618.93,-123.84 666.89,-112.54"/>
<polygon fill="#63b8ff" stroke="#63b8ff" points="500.13,-148.24 491.2,-153.94 501.73,-155.05 500.13,-148.24"/>
</a>
</g>
</g>
<!-- Node4 -->
<g id="Node000004" class="node">
<title>Node4</title>
<g id="a_Node000004"><a xlink:href="OWGameplayAbility__Test_8cpp.html" target="_top" xlink:title=" ">
<polygon fill="white" stroke="#666666" points="435.5,-41 237.5,-41 237.5,0 435.5,0 435.5,-41"/>
<text text-anchor="start" x="245.5" y="-29" font-family="Helvetica,sans-Serif" font-size="10.00">Source/OliveWatch/Ability</text>
<text text-anchor="start" x="245.5" y="-18" font-family="Helvetica,sans-Serif" font-size="10.00">System/Abilities/OWGameplayAbility</text>
<text text-anchor="middle" x="336.5" y="-7" font-family="Helvetica,sans-Serif" font-size="10.00">_Test.cpp</text>
</a>
</g>
</g>
<!-- Node3&#45;&gt;Node4 -->
<g id="edge3_Node000003_Node000004" class="edge">
<title>Node3&#45;&gt;Node4</title>
<g id="a_edge3_Node000003_Node000004"><a xlink:title=" ">
<path fill="none" stroke="#63b8ff" d="M336.5,-66.69C336.5,-58.08 336.5,-48.9 336.5,-41.07"/>
<polygon fill="#63b8ff" stroke="#63b8ff" points="333,-66.79 336.5,-76.79 340,-66.79 333,-66.79"/>
</a>
</g>
</g>
</g>
</svg>
