<?xml version="1.0" encoding="UTF-8" standalone="no"?>
<!DOCTYPE svg PUBLIC "-//W3C//DTD SVG 1.1//EN"
 "http://www.w3.org/Graphics/SVG/1.1/DTD/svg11.dtd">
<!-- Generated by graphviz version 2.43.0 (0)
 -->
<!-- Title: Source/OliveWatch/AbilitySystem/Abilities/OWGA_Active.cpp Pages: 1 -->
<svg width="1108pt" height="225pt"
 viewBox="0.00 0.00 1108.00 225.00" xmlns="http://www.w3.org/2000/svg" xmlns:xlink="http://www.w3.org/1999/xlink">
<g id="graph0" class="graph" transform="scale(1 1) rotate(0) translate(4 221)">
<title>Source/OliveWatch/AbilitySystem/Abilities/OWGA_Active.cpp</title>
<!-- Node1 -->
<g id="Node000001" class="node">
<title>Node1</title>
<g id="a_Node000001"><a xlink:title=" ">
<polygon fill="#999999" stroke="#666666" points="885.5,-217 698.5,-217 698.5,-187 885.5,-187 885.5,-217"/>
<text text-anchor="start" x="706.5" y="-205" font-family="Helvetica,sans-Serif" font-size="10.00">Source/OliveWatch/Ability</text>
<text text-anchor="middle" x="792" y="-194" font-family="Helvetica,sans-Serif" font-size="10.00">System/Abilities/OWGA_Active.cpp</text>
</a>
</g>
</g>
<!-- Node2 -->
<g id="Node000002" class="node">
<title>Node2</title>
<g id="a_Node000002"><a xlink:href="OWGA__Active_8h.html" target="_top" xlink:title=" ">
<polygon fill="white" stroke="#666666" points="493,-151 365,-151 365,-121 493,-121 493,-151"/>
<text text-anchor="start" x="373" y="-139" font-family="Helvetica,sans-Serif" font-size="10.00">AbilitySystem/Abilities</text>
<text text-anchor="middle" x="429" y="-128" font-family="Helvetica,sans-Serif" font-size="10.00">/OWGA_Active.h</text>
</a>
</g>
</g>
<!-- Node1&#45;&gt;Node2 -->
<g id="edge1_Node000001_Node000002" class="edge">
<title>Node1&#45;&gt;Node2</title>
<g id="a_edge1_Node000001_Node000002"><a xlink:title=" ">
<path fill="none" stroke="#63b8ff" d="M712.34,-186.95C649.97,-175.96 563.87,-160.78 503,-150.05"/>
<polygon fill="#63b8ff" stroke="#63b8ff" points="503.53,-146.59 493.07,-148.3 502.31,-153.48 503.53,-146.59"/>
</a>
</g>
</g>
<!-- Node8 -->
<g id="Node000008" class="node">
<title>Node8</title>
<g id="a_Node000008"><a xlink:title=" ">
<polygon fill="#e0e0e0" stroke="#999999" points="898,-19 794,-19 794,0 898,0 898,-19"/>
<text text-anchor="middle" x="846" y="-7" font-family="Helvetica,sans-Serif" font-size="10.00">GameplayEffect.h</text>
</a>
</g>
</g>
<!-- Node1&#45;&gt;Node8 -->
<g id="edge8_Node000001_Node000008" class="edge">
<title>Node1&#45;&gt;Node8</title>
<g id="a_edge8_Node000001_Node000008"><a xlink:title=" ">
<path fill="none" stroke="#63b8ff" d="M813.12,-186.73C839.72,-167.33 884.11,-129.86 902,-85 906.94,-72.61 907.8,-67.01 902,-55 895.78,-42.12 883.82,-31.82 872.54,-24.38"/>
<polygon fill="#63b8ff" stroke="#63b8ff" points="874.13,-21.25 863.77,-19.04 870.49,-27.23 874.13,-21.25"/>
</a>
</g>
</g>
<!-- Node9 -->
<g id="Node000009" class="node">
<title>Node9</title>
<g id="a_Node000009"><a xlink:href="OWCooldownGameplayEffect_8h.html" target="_top" xlink:title=" ">
<polygon fill="white" stroke="#666666" points="713,-151 541,-151 541,-121 713,-121 713,-151"/>
<text text-anchor="start" x="549" y="-139" font-family="Helvetica,sans-Serif" font-size="10.00">AbilitySystem//Effects</text>
<text text-anchor="middle" x="627" y="-128" font-family="Helvetica,sans-Serif" font-size="10.00">/OWCooldownGameplayEffect.h</text>
</a>
</g>
</g>
<!-- Node1&#45;&gt;Node9 -->
<g id="edge9_Node000001_Node000009" class="edge">
<title>Node1&#45;&gt;Node9</title>
<g id="a_edge9_Node000001_Node000009"><a xlink:title=" ">
<path fill="none" stroke="#63b8ff" d="M755.79,-186.95C731.29,-177.45 698.73,-164.82 672.48,-154.64"/>
<polygon fill="#63b8ff" stroke="#63b8ff" points="673.71,-151.37 663.13,-151.01 671.18,-157.89 673.71,-151.37"/>
</a>
</g>
</g>
<!-- Node13 -->
<g id="Node000013" class="node">
<title>Node13</title>
<g id="a_Node000013"><a xlink:title=" ">
<polygon fill="#e0e0e0" stroke="#999999" points="1100,-145.5 950,-145.5 950,-126.5 1100,-126.5 1100,-145.5"/>
<text text-anchor="middle" x="1025" y="-133.5" font-family="Helvetica,sans-Serif" font-size="10.00">AbilitySystemComponent.h</text>
</a>
</g>
</g>
<!-- Node1&#45;&gt;Node13 -->
<g id="edge16_Node000001_Node000013" class="edge">
<title>Node1&#45;&gt;Node13</title>
<g id="a_edge16_Node000001_Node000013"><a xlink:title=" ">
<path fill="none" stroke="#63b8ff" d="M843.13,-186.95C885.52,-175.31 944.99,-158.98 984.23,-148.2"/>
<polygon fill="#63b8ff" stroke="#63b8ff" points="985.28,-151.54 993.99,-145.52 983.42,-144.79 985.28,-151.54"/>
</a>
</g>
</g>
<!-- Node3 -->
<g id="Node000003" class="node">
<title>Node3</title>
<g id="a_Node000003"><a xlink:title=" ">
<polygon fill="#e0e0e0" stroke="#999999" points="508,-19 420,-19 420,0 508,0 508,-19"/>
<text text-anchor="middle" x="464" y="-7" font-family="Helvetica,sans-Serif" font-size="10.00">CoreMinimal.h</text>
</a>
</g>
</g>
<!-- Node2&#45;&gt;Node3 -->
<g id="edge2_Node000002_Node000003" class="edge">
<title>Node2&#45;&gt;Node3</title>
<g id="a_edge2_Node000002_Node000003"><a xlink:title=" ">
<path fill="none" stroke="#63b8ff" d="M433.85,-120.63C437.15,-110.67 441.53,-97.09 445,-85 450.4,-66.19 455.85,-44.49 459.52,-29.38"/>
<polygon fill="#63b8ff" stroke="#63b8ff" points="463.01,-29.8 461.95,-19.26 456.21,-28.17 463.01,-29.8"/>
</a>
</g>
</g>
<!-- Node4 -->
<g id="Node000004" class="node">
<title>Node4</title>
<g id="a_Node000004"><a xlink:href="OWGameplayAbility_8h.html" target="_top" xlink:title=" ">
<polygon fill="white" stroke="#666666" points="272,-85 144,-85 144,-55 272,-55 272,-85"/>
<text text-anchor="start" x="152" y="-73" font-family="Helvetica,sans-Serif" font-size="10.00">AbilitySystem/Abilities</text>
<text text-anchor="middle" x="208" y="-62" font-family="Helvetica,sans-Serif" font-size="10.00">/OWGameplayAbility.h</text>
</a>
</g>
</g>
<!-- Node2&#45;&gt;Node4 -->
<g id="edge3_Node000002_Node000004" class="edge">
<title>Node2&#45;&gt;Node4</title>
<g id="a_edge3_Node000002_Node000004"><a xlink:title=" ">
<path fill="none" stroke="#63b8ff" d="M380.5,-120.95C346.82,-111.2 301.78,-98.16 266.16,-87.84"/>
<polygon fill="#63b8ff" stroke="#63b8ff" points="266.97,-84.43 256.39,-85.01 265.02,-91.16 266.97,-84.43"/>
</a>
</g>
</g>
<!-- Node7 -->
<g id="Node000007" class="node">
<title>Node7</title>
<g id="a_Node000007"><a xlink:title=" ">
<polygon fill="#e0e0e0" stroke="#999999" points="436,-79.5 290,-79.5 290,-60.5 436,-60.5 436,-79.5"/>
<text text-anchor="middle" x="363" y="-67.5" font-family="Helvetica,sans-Serif" font-size="10.00">OWGA_Active.generated.h</text>
</a>
</g>
</g>
<!-- Node2&#45;&gt;Node7 -->
<g id="edge7_Node000002_Node000007" class="edge">
<title>Node2&#45;&gt;Node7</title>
<g id="a_edge7_Node000002_Node000007"><a xlink:title=" ">
<path fill="none" stroke="#63b8ff" d="M414.35,-120.8C404.06,-110.82 390.28,-97.46 379.59,-87.09"/>
<polygon fill="#63b8ff" stroke="#63b8ff" points="381.74,-84.29 372.12,-79.84 376.86,-89.32 381.74,-84.29"/>
</a>
</g>
</g>
<!-- Node4&#45;&gt;Node3 -->
<g id="edge4_Node000004_Node000003" class="edge">
<title>Node4&#45;&gt;Node3</title>
<g id="a_edge4_Node000004_Node000003"><a xlink:title=" ">
<path fill="none" stroke="#63b8ff" d="M269.32,-54.99C314.55,-44.65 375.2,-30.79 416.71,-21.31"/>
<polygon fill="#63b8ff" stroke="#63b8ff" points="417.6,-24.69 426.57,-19.05 416.04,-17.87 417.6,-24.69"/>
</a>
</g>
</g>
<!-- Node5 -->
<g id="Node000005" class="node">
<title>Node5</title>
<g id="a_Node000005"><a xlink:title=" ">
<polygon fill="#e0e0e0" stroke="#999999" points="342.5,-19 193.5,-19 193.5,0 342.5,0 342.5,-19"/>
<text text-anchor="middle" x="268" y="-7" font-family="Helvetica,sans-Serif" font-size="10.00">Abilities/GameplayAbility.h</text>
</a>
</g>
</g>
<!-- Node4&#45;&gt;Node5 -->
<g id="edge5_Node000004_Node000005" class="edge">
<title>Node4&#45;&gt;Node5</title>
<g id="a_edge5_Node000004_Node000005"><a xlink:title=" ">
<path fill="none" stroke="#63b8ff" d="M222.52,-54.84C231.32,-46.26 242.57,-35.3 251.67,-26.42"/>
<polygon fill="#63b8ff" stroke="#63b8ff" points="254.29,-28.75 259.01,-19.27 249.41,-23.74 254.29,-28.75"/>
</a>
</g>
</g>
<!-- Node6 -->
<g id="Node000006" class="node">
<title>Node6</title>
<g id="a_Node000006"><a xlink:title=" ">
<polygon fill="#e0e0e0" stroke="#999999" points="176,-19 0,-19 0,0 176,0 176,-19"/>
<text text-anchor="middle" x="88" y="-7" font-family="Helvetica,sans-Serif" font-size="10.00">OWGameplayAbility.generated.h</text>
</a>
</g>
</g>
<!-- Node4&#45;&gt;Node6 -->
<g id="edge6_Node000004_Node000006" class="edge">
<title>Node4&#45;&gt;Node6</title>
<g id="a_edge6_Node000004_Node000006"><a xlink:title=" ">
<path fill="none" stroke="#63b8ff" d="M179.26,-54.99C159.68,-45.45 133.95,-32.9 114.8,-23.57"/>
<polygon fill="#63b8ff" stroke="#63b8ff" points="116.24,-20.38 105.72,-19.14 113.18,-26.67 116.24,-20.38"/>
</a>
</g>
</g>
<!-- Node9&#45;&gt;Node3 -->
<g id="edge10_Node000009_Node000003" class="edge">
<title>Node9&#45;&gt;Node3</title>
<g id="a_edge10_Node000009_Node000003"><a xlink:title=" ">
<path fill="none" stroke="#63b8ff" d="M585.9,-120.96C565.09,-112.58 540.24,-100.53 521,-85 501.09,-68.92 484.14,-44.51 474.02,-28.05"/>
<polygon fill="#63b8ff" stroke="#63b8ff" points="477,-26.21 468.89,-19.41 470.99,-29.79 477,-26.21"/>
</a>
</g>
</g>
<!-- Node10 -->
<g id="Node000010" class="node">
<title>Node10</title>
<g id="a_Node000010"><a xlink:href="OWGameplayEffect_8h.html" target="_top" xlink:title=" ">
<polygon fill="white" stroke="#666666" points="654,-85 530,-85 530,-55 654,-55 654,-85"/>
<text text-anchor="start" x="538" y="-73" font-family="Helvetica,sans-Serif" font-size="10.00">AbilitySystem/Effects</text>
<text text-anchor="middle" x="592" y="-62" font-family="Helvetica,sans-Serif" font-size="10.00">/OWGameplayEffect.h</text>
</a>
</g>
</g>
<!-- Node9&#45;&gt;Node10 -->
<g id="edge11_Node000009_Node000010" class="edge">
<title>Node9&#45;&gt;Node10</title>
<g id="a_edge11_Node000009_Node000010"><a xlink:title=" ">
<path fill="none" stroke="#63b8ff" d="M619.23,-120.8C614.93,-112.92 609.47,-102.95 604.57,-93.99"/>
<polygon fill="#63b8ff" stroke="#63b8ff" points="607.61,-92.26 599.75,-85.16 601.47,-95.62 607.61,-92.26"/>
</a>
</g>
</g>
<!-- Node12 -->
<g id="Node000012" class="node">
<title>Node12</title>
<g id="a_Node000012"><a xlink:title=" ">
<polygon fill="#e0e0e0" stroke="#999999" points="893.5,-79.5 672.5,-79.5 672.5,-60.5 893.5,-60.5 893.5,-79.5"/>
<text text-anchor="middle" x="783" y="-67.5" font-family="Helvetica,sans-Serif" font-size="10.00">OWCooldownGameplayEffect.generated.h</text>
</a>
</g>
</g>
<!-- Node9&#45;&gt;Node12 -->
<g id="edge15_Node000009_Node000012" class="edge">
<title>Node9&#45;&gt;Node12</title>
<g id="a_edge15_Node000009_Node000012"><a xlink:title=" ">
<path fill="none" stroke="#63b8ff" d="M661.23,-120.95C688.59,-109.73 726.57,-94.15 752.81,-83.39"/>
<polygon fill="#63b8ff" stroke="#63b8ff" points="754.32,-86.55 762.24,-79.52 751.66,-80.07 754.32,-86.55"/>
</a>
</g>
</g>
<!-- Node10&#45;&gt;Node3 -->
<g id="edge12_Node000010_Node000003" class="edge">
<title>Node10&#45;&gt;Node3</title>
<g id="a_edge12_Node000010_Node000003"><a xlink:title=" ">
<path fill="none" stroke="#63b8ff" d="M561.34,-54.99C540.27,-45.36 512.51,-32.67 492.03,-23.31"/>
<polygon fill="#63b8ff" stroke="#63b8ff" points="493.45,-20.11 482.9,-19.14 490.54,-26.48 493.45,-20.11"/>
</a>
</g>
</g>
<!-- Node10&#45;&gt;Node8 -->
<g id="edge13_Node000010_Node000008" class="edge">
<title>Node10&#45;&gt;Node8</title>
<g id="a_edge13_Node000010_Node000008"><a xlink:title=" ">
<path fill="none" stroke="#63b8ff" d="M652.84,-54.99C697.72,-44.65 757.89,-30.79 799.08,-21.31"/>
<polygon fill="#63b8ff" stroke="#63b8ff" points="799.9,-24.71 808.86,-19.05 798.33,-17.89 799.9,-24.71"/>
</a>
</g>
</g>
<!-- Node11 -->
<g id="Node000011" class="node">
<title>Node11</title>
<g id="a_Node000011"><a xlink:title=" ">
<polygon fill="#e0e0e0" stroke="#999999" points="699.5,-19 526.5,-19 526.5,0 699.5,0 699.5,-19"/>
<text text-anchor="middle" x="613" y="-7" font-family="Helvetica,sans-Serif" font-size="10.00">OWGameplayEffect.generated.h</text>
</a>
</g>
</g>
<!-- Node10&#45;&gt;Node11 -->
<g id="edge14_Node000010_Node000011" class="edge">
<title>Node10&#45;&gt;Node11</title>
<g id="a_edge14_Node000010_Node000011"><a xlink:title=" ">
<path fill="none" stroke="#63b8ff" d="M597.08,-54.84C599.88,-47.04 603.39,-37.27 606.4,-28.89"/>
<polygon fill="#63b8ff" stroke="#63b8ff" points="609.77,-29.86 609.85,-19.27 603.18,-27.5 609.77,-29.86"/>
</a>
</g>
</g>
</g>
</svg>
