<?xml version="1.0" encoding="UTF-8" standalone="no"?>
<!DOCTYPE svg PUBLIC "-//W3C//DTD SVG 1.1//EN"
 "http://www.w3.org/Graphics/SVG/1.1/DTD/svg11.dtd">
<!-- Generated by graphviz version 2.43.0 (0)
 -->
<!-- Title: Source/OliveWatch/AbilitySystem/Abilities/OWGameplayAbility.h Pages: 1 -->
<svg width="1461pt" height="192pt"
 viewBox="0.00 0.00 1460.50 192.00" xmlns="http://www.w3.org/2000/svg" xmlns:xlink="http://www.w3.org/1999/xlink">
<g id="graph0" class="graph" transform="scale(1 1) rotate(0) translate(4 188)">
<title>Source/OliveWatch/AbilitySystem/Abilities/OWGameplayAbility.h</title>
<!-- Node1 -->
<g id="Node000001" class="node">
<title>Node1</title>
<g id="a_Node000001"><a xlink:title=" ">
<polygon fill="#999999" stroke="#666666" points="828.5,-184 622.5,-184 622.5,-154 828.5,-154 828.5,-184"/>
<text text-anchor="start" x="630.5" y="-172" font-family="Helvetica,sans-Serif" font-size="10.00">Source/OliveWatch/Ability</text>
<text text-anchor="middle" x="725.5" y="-161" font-family="Helvetica,sans-Serif" font-size="10.00">System/Abilities/OWGameplayAbility.h</text>
</a>
</g>
</g>
<!-- Node2 -->
<g id="Node000002" class="node">
<title>Node2</title>
<g id="a_Node000002"><a xlink:href="OWGA__Active_8h.html" target="_top" xlink:title=" ">
<polygon fill="white" stroke="#666666" points="187.5,-112.5 11.5,-112.5 11.5,-82.5 187.5,-82.5 187.5,-112.5"/>
<text text-anchor="start" x="19.5" y="-100.5" font-family="Helvetica,sans-Serif" font-size="10.00">Source/OliveWatch/Ability</text>
<text text-anchor="middle" x="99.5" y="-89.5" font-family="Helvetica,sans-Serif" font-size="10.00">System/Abilities/OWGA_Active.h</text>
</a>
</g>
</g>
<!-- Node1&#45;&gt;Node2 -->
<g id="edge1_Node000001_Node000002" class="edge">
<title>Node1&#45;&gt;Node2</title>
<g id="a_edge1_Node000001_Node000002"><a xlink:title=" ">
<path fill="none" stroke="#63b8ff" d="M612.14,-160.27C505.76,-152.28 342.38,-138.14 201.5,-118 190.7,-116.46 179.31,-114.55 168.21,-112.55"/>
<polygon fill="#63b8ff" stroke="#63b8ff" points="612.02,-163.77 622.25,-161.02 612.54,-156.79 612.02,-163.77"/>
</a>
</g>
</g>
<!-- Node4 -->
<g id="Node000004" class="node">
<title>Node4</title>
<g id="a_Node000004"><a xlink:href="OWGA__Passive_8h.html" target="_top" xlink:title=" ">
<polygon fill="white" stroke="#666666" points="392.5,-112.5 210.5,-112.5 210.5,-82.5 392.5,-82.5 392.5,-112.5"/>
<text text-anchor="start" x="218.5" y="-100.5" font-family="Helvetica,sans-Serif" font-size="10.00">Source/OliveWatch/Ability</text>
<text text-anchor="middle" x="301.5" y="-89.5" font-family="Helvetica,sans-Serif" font-size="10.00">System/Abilities/OWGA_Passive.h</text>
</a>
</g>
</g>
<!-- Node1&#45;&gt;Node4 -->
<g id="edge3_Node000001_Node000004" class="edge">
<title>Node1&#45;&gt;Node4</title>
<g id="a_edge3_Node000001_Node000004"><a xlink:title=" ">
<path fill="none" stroke="#63b8ff" d="M617.89,-152.48C554.75,-143.1 473.48,-130.57 401.5,-118 391.83,-116.31 381.65,-114.44 371.64,-112.54"/>
<polygon fill="#63b8ff" stroke="#63b8ff" points="617.46,-155.96 627.86,-153.96 618.48,-149.03 617.46,-155.96"/>
</a>
</g>
</g>
<!-- Node6 -->
<g id="Node000006" class="node">
<title>Node6</title>
<g id="a_Node000006"><a xlink:href="OWGA__Ultimate_8h.html" target="_top" xlink:title=" ">
<polygon fill="white" stroke="#666666" points="598.5,-112.5 410.5,-112.5 410.5,-82.5 598.5,-82.5 598.5,-112.5"/>
<text text-anchor="start" x="418.5" y="-100.5" font-family="Helvetica,sans-Serif" font-size="10.00">Source/OliveWatch/Ability</text>
<text text-anchor="middle" x="504.5" y="-89.5" font-family="Helvetica,sans-Serif" font-size="10.00">System/Abilities/OWGA_Ultimate.h</text>
</a>
</g>
</g>
<!-- Node1&#45;&gt;Node6 -->
<g id="edge5_Node000001_Node000006" class="edge">
<title>Node1&#45;&gt;Node6</title>
<g id="a_edge5_Node000001_Node000006"><a xlink:title=" ">
<path fill="none" stroke="#63b8ff" d="M671.02,-150.87C633.53,-139.08 584.34,-123.61 549.16,-112.54"/>
<polygon fill="#63b8ff" stroke="#63b8ff" points="670.19,-154.27 680.78,-153.94 672.29,-147.6 670.19,-154.27"/>
</a>
</g>
</g>
<!-- Node8 -->
<g id="Node000008" class="node">
<title>Node8</title>
<g id="a_Node000008"><a xlink:href="OWGameplayAbility_8cpp.html" target="_top" xlink:title=" ">
<polygon fill="white" stroke="#666666" points="834,-112.5 617,-112.5 617,-82.5 834,-82.5 834,-112.5"/>
<text text-anchor="start" x="625" y="-100.5" font-family="Helvetica,sans-Serif" font-size="10.00">Source/OliveWatch/Ability</text>
<text text-anchor="middle" x="725.5" y="-89.5" font-family="Helvetica,sans-Serif" font-size="10.00">System/Abilities/OWGameplayAbility.cpp</text>
</a>
</g>
</g>
<!-- Node1&#45;&gt;Node8 -->
<g id="edge7_Node000001_Node000008" class="edge">
<title>Node1&#45;&gt;Node8</title>
<g id="a_edge7_Node000001_Node000008"><a xlink:title=" ">
<path fill="none" stroke="#63b8ff" d="M725.5,-143.75C725.5,-133.31 725.5,-121.49 725.5,-112.54"/>
<polygon fill="#63b8ff" stroke="#63b8ff" points="722,-143.94 725.5,-153.94 729,-143.94 722,-143.94"/>
</a>
</g>
</g>
<!-- Node9 -->
<g id="Node000009" class="node">
<title>Node9</title>
<g id="a_Node000009"><a xlink:href="OWGameplayAbility__Test_8h.html" target="_top" xlink:title=" ">
<polygon fill="white" stroke="#666666" points="1055,-118 852,-118 852,-77 1055,-77 1055,-118"/>
<text text-anchor="start" x="860" y="-106" font-family="Helvetica,sans-Serif" font-size="10.00">Source/OliveWatch/Ability</text>
<text text-anchor="start" x="860" y="-95" font-family="Helvetica,sans-Serif" font-size="10.00">System/Abilities/OWGameplayAbility_</text>
<text text-anchor="middle" x="953.5" y="-84" font-family="Helvetica,sans-Serif" font-size="10.00">Test.h</text>
</a>
</g>
</g>
<!-- Node1&#45;&gt;Node9 -->
<g id="edge8_Node000001_Node000009" class="edge">
<title>Node1&#45;&gt;Node9</title>
<g id="a_edge8_Node000001_Node000009"><a xlink:title=" ">
<path fill="none" stroke="#63b8ff" d="M781.47,-150.94C814.09,-141 855.35,-128.42 889.29,-118.07"/>
<polygon fill="#63b8ff" stroke="#63b8ff" points="780.18,-147.67 771.64,-153.94 782.23,-154.37 780.18,-147.67"/>
</a>
</g>
</g>
<!-- Node11 -->
<g id="Node000011" class="node">
<title>Node11</title>
<g id="a_Node000011"><a xlink:href="OWAbilitySet_8cpp.html" target="_top" xlink:title=" ">
<polygon fill="white" stroke="#666666" points="1216,-112.5 1073,-112.5 1073,-82.5 1216,-82.5 1216,-112.5"/>
<text text-anchor="start" x="1081" y="-100.5" font-family="Helvetica,sans-Serif" font-size="10.00">Source/OliveWatch/Ability</text>
<text text-anchor="middle" x="1144.5" y="-89.5" font-family="Helvetica,sans-Serif" font-size="10.00">System/OWAbilitySet.cpp</text>
</a>
</g>
</g>
<!-- Node1&#45;&gt;Node11 -->
<g id="edge10_Node000001_Node000011" class="edge">
<title>Node1&#45;&gt;Node11</title>
<g id="a_edge10_Node000001_Node000011"><a xlink:title=" ">
<path fill="none" stroke="#63b8ff" d="M838.68,-153.98C904.79,-145.12 989.66,-132.61 1064.5,-118 1072.64,-116.41 1081.19,-114.54 1089.56,-112.6"/>
<polygon fill="#63b8ff" stroke="#63b8ff" points="838.11,-150.52 828.65,-155.31 839.03,-157.46 838.11,-150.52"/>
</a>
</g>
</g>
<!-- Node12 -->
<g id="Node000012" class="node">
<title>Node12</title>
<g id="a_Node000012"><a xlink:href="OWAbilitySystemComponent_8cpp.html" target="_top" xlink:title=" ">
<polygon fill="white" stroke="#666666" points="1452.5,-112.5 1234.5,-112.5 1234.5,-82.5 1452.5,-82.5 1452.5,-112.5"/>
<text text-anchor="start" x="1242.5" y="-100.5" font-family="Helvetica,sans-Serif" font-size="10.00">Source/OliveWatch/Ability</text>
<text text-anchor="middle" x="1343.5" y="-89.5" font-family="Helvetica,sans-Serif" font-size="10.00">System/OWAbilitySystemComponent.cpp</text>
</a>
</g>
</g>
<!-- Node1&#45;&gt;Node12 -->
<g id="edge11_Node000001_Node000012" class="edge">
<title>Node1&#45;&gt;Node12</title>
<g id="a_edge11_Node000001_Node000012"><a xlink:title=" ">
<path fill="none" stroke="#63b8ff" d="M838.63,-158.77C940.13,-149.99 1093.05,-135.55 1225.5,-118 1237.64,-116.39 1250.46,-114.49 1262.99,-112.51"/>
<polygon fill="#63b8ff" stroke="#63b8ff" points="838.33,-155.28 828.67,-159.63 838.93,-162.26 838.33,-155.28"/>
</a>
</g>
</g>
<!-- Node3 -->
<g id="Node000003" class="node">
<title>Node3</title>
<g id="a_Node000003"><a xlink:href="OWGA__Active_8cpp.html" target="_top" xlink:title=" ">
<polygon fill="white" stroke="#666666" points="187,-35.5 0,-35.5 0,-5.5 187,-5.5 187,-35.5"/>
<text text-anchor="start" x="8" y="-23.5" font-family="Helvetica,sans-Serif" font-size="10.00">Source/OliveWatch/Ability</text>
<text text-anchor="middle" x="93.5" y="-12.5" font-family="Helvetica,sans-Serif" font-size="10.00">System/Abilities/OWGA_Active.cpp</text>
</a>
</g>
</g>
<!-- Node2&#45;&gt;Node3 -->
<g id="edge2_Node000002_Node000003" class="edge">
<title>Node2&#45;&gt;Node3</title>
<g id="a_edge2_Node000002_Node000003"><a xlink:title=" ">
<path fill="none" stroke="#63b8ff" d="M97.57,-72.41C96.6,-60.24 95.45,-45.9 94.62,-35.54"/>
<polygon fill="#63b8ff" stroke="#63b8ff" points="94.09,-72.7 98.37,-82.39 101.06,-72.15 94.09,-72.7"/>
</a>
</g>
</g>
<!-- Node5 -->
<g id="Node000005" class="node">
<title>Node5</title>
<g id="a_Node000005"><a xlink:href="OWGA__Passive_8cpp.html" target="_top" xlink:title=" ">
<polygon fill="white" stroke="#666666" points="398,-35.5 205,-35.5 205,-5.5 398,-5.5 398,-35.5"/>
<text text-anchor="start" x="213" y="-23.5" font-family="Helvetica,sans-Serif" font-size="10.00">Source/OliveWatch/Ability</text>
<text text-anchor="middle" x="301.5" y="-12.5" font-family="Helvetica,sans-Serif" font-size="10.00">System/Abilities/OWGA_Passive.cpp</text>
</a>
</g>
</g>
<!-- Node4&#45;&gt;Node5 -->
<g id="edge4_Node000004_Node000005" class="edge">
<title>Node4&#45;&gt;Node5</title>
<g id="a_edge4_Node000004_Node000005"><a xlink:title=" ">
<path fill="none" stroke="#63b8ff" d="M301.5,-72.04C301.5,-59.95 301.5,-45.79 301.5,-35.54"/>
<polygon fill="#63b8ff" stroke="#63b8ff" points="298,-72.39 301.5,-82.39 305,-72.39 298,-72.39"/>
</a>
</g>
</g>
<!-- Node7 -->
<g id="Node000007" class="node">
<title>Node7</title>
<g id="a_Node000007"><a xlink:href="OWGA__Ultimate_8cpp.html" target="_top" xlink:title=" ">
<polygon fill="white" stroke="#666666" points="615,-35.5 416,-35.5 416,-5.5 615,-5.5 615,-35.5"/>
<text text-anchor="start" x="424" y="-23.5" font-family="Helvetica,sans-Serif" font-size="10.00">Source/OliveWatch/Ability</text>
<text text-anchor="middle" x="515.5" y="-12.5" font-family="Helvetica,sans-Serif" font-size="10.00">System/Abilities/OWGA_Ultimate.cpp</text>
</a>
</g>
</g>
<!-- Node6&#45;&gt;Node7 -->
<g id="edge6_Node000006_Node000007" class="edge">
<title>Node6&#45;&gt;Node7</title>
<g id="a_edge6_Node000006_Node000007"><a xlink:title=" ">
<path fill="none" stroke="#63b8ff" d="M508.03,-72.41C509.82,-60.24 511.92,-45.9 513.44,-35.54"/>
<polygon fill="#63b8ff" stroke="#63b8ff" points="504.56,-71.99 506.57,-82.39 511.48,-73.01 504.56,-71.99"/>
</a>
</g>
</g>
<!-- Node10 -->
<g id="Node000010" class="node">
<title>Node10</title>
<g id="a_Node000010"><a xlink:href="OWGameplayAbility__Test_8cpp.html" target="_top" xlink:title=" ">
<polygon fill="white" stroke="#666666" points="1052.5,-41 854.5,-41 854.5,0 1052.5,0 1052.5,-41"/>
<text text-anchor="start" x="862.5" y="-29" font-family="Helvetica,sans-Serif" font-size="10.00">Source/OliveWatch/Ability</text>
<text text-anchor="start" x="862.5" y="-18" font-family="Helvetica,sans-Serif" font-size="10.00">System/Abilities/OWGameplayAbility</text>
<text text-anchor="middle" x="953.5" y="-7" font-family="Helvetica,sans-Serif" font-size="10.00">_Test.cpp</text>
</a>
</g>
</g>
<!-- Node9&#45;&gt;Node10 -->
<g id="edge9_Node000009_Node000010" class="edge">
<title>Node9&#45;&gt;Node10</title>
<g id="a_edge9_Node000009_Node000010"><a xlink:title=" ">
<path fill="none" stroke="#63b8ff" d="M953.5,-66.69C953.5,-58.08 953.5,-48.9 953.5,-41.07"/>
<polygon fill="#63b8ff" stroke="#63b8ff" points="950,-66.79 953.5,-76.79 957,-66.79 950,-66.79"/>
</a>
</g>
</g>
</g>
</svg>
