<?xml version="1.0" encoding="UTF-8" standalone="no"?>
<!DOCTYPE svg PUBLIC "-//W3C//DTD SVG 1.1//EN"
 "http://www.w3.org/Graphics/SVG/1.1/DTD/svg11.dtd">
<!-- Generated by graphviz version 2.43.0 (0)
 -->
<!-- Title: Source/OliveWatch/AbilitySystem/Effects/OWGE_Cost.cpp Pages: 1 -->
<svg width="852pt" height="225pt"
 viewBox="0.00 0.00 851.50 225.00" xmlns="http://www.w3.org/2000/svg" xmlns:xlink="http://www.w3.org/1999/xlink">
<g id="graph0" class="graph" transform="scale(1 1) rotate(0) translate(4 221)">
<title>Source/OliveWatch/AbilitySystem/Effects/OWGE_Cost.cpp</title>
<!-- Node1 -->
<g id="Node000001" class="node">
<title>Node1</title>
<g id="a_Node000001"><a xlink:title=" ">
<polygon fill="#999999" stroke="#666666" points="501,-217 331,-217 331,-187 501,-187 501,-217"/>
<text text-anchor="start" x="339" y="-205" font-family="Helvetica,sans-Serif" font-size="10.00">Source/OliveWatch/Ability</text>
<text text-anchor="middle" x="416" y="-194" font-family="Helvetica,sans-Serif" font-size="10.00">System/Effects/OWGE_Cost.cpp</text>
</a>
</g>
</g>
<!-- Node2 -->
<g id="Node000002" class="node">
<title>Node2</title>
<g id="a_Node000002"><a xlink:href="OWGE__Cost_8h.html" target="_top" xlink:title=" ">
<polygon fill="white" stroke="#666666" points="476.5,-151 355.5,-151 355.5,-121 476.5,-121 476.5,-151"/>
<text text-anchor="start" x="363.5" y="-139" font-family="Helvetica,sans-Serif" font-size="10.00">AbilitySystem/Effects</text>
<text text-anchor="middle" x="416" y="-128" font-family="Helvetica,sans-Serif" font-size="10.00">/OWGE_Cost.h</text>
</a>
</g>
</g>
<!-- Node1&#45;&gt;Node2 -->
<g id="edge1_Node000001_Node000002" class="edge">
<title>Node1&#45;&gt;Node2</title>
<g id="a_edge1_Node000001_Node000002"><a xlink:title=" ">
<path fill="none" stroke="#63b8ff" d="M416,-186.8C416,-179.34 416,-169.99 416,-161.41"/>
<polygon fill="#63b8ff" stroke="#63b8ff" points="419.5,-161.16 416,-151.16 412.5,-161.16 419.5,-161.16"/>
</a>
</g>
</g>
<!-- Node3 -->
<g id="Node000003" class="node">
<title>Node3</title>
<g id="a_Node000003"><a xlink:title=" ">
<polygon fill="#e0e0e0" stroke="#999999" points="402,-19 314,-19 314,0 402,0 402,-19"/>
<text text-anchor="middle" x="358" y="-7" font-family="Helvetica,sans-Serif" font-size="10.00">CoreMinimal.h</text>
</a>
</g>
</g>
<!-- Node2&#45;&gt;Node3 -->
<g id="edge2_Node000002_Node000003" class="edge">
<title>Node2&#45;&gt;Node3</title>
<g id="a_edge2_Node000002_Node000003"><a xlink:title=" ">
<path fill="none" stroke="#63b8ff" d="M409.35,-120.72C398.72,-97.92 377.95,-53.33 366.35,-28.42"/>
<polygon fill="#63b8ff" stroke="#63b8ff" points="369.39,-26.66 361.99,-19.07 363.04,-29.61 369.39,-26.66"/>
</a>
</g>
</g>
<!-- Node4 -->
<g id="Node000004" class="node">
<title>Node4</title>
<g id="a_Node000004"><a xlink:href="OWGameplayEffect_8h.html" target="_top" xlink:title=" ">
<polygon fill="white" stroke="#666666" points="311,-85 187,-85 187,-55 311,-55 311,-85"/>
<text text-anchor="start" x="195" y="-73" font-family="Helvetica,sans-Serif" font-size="10.00">AbilitySystem/Effects</text>
<text text-anchor="middle" x="249" y="-62" font-family="Helvetica,sans-Serif" font-size="10.00">/OWGameplayEffect.h</text>
</a>
</g>
</g>
<!-- Node2&#45;&gt;Node4 -->
<g id="edge3_Node000002_Node000004" class="edge">
<title>Node2&#45;&gt;Node4</title>
<g id="a_edge3_Node000002_Node000004"><a xlink:title=" ">
<path fill="none" stroke="#63b8ff" d="M379.35,-120.95C354.55,-111.45 321.6,-98.82 295.04,-88.64"/>
<polygon fill="#63b8ff" stroke="#63b8ff" points="296.15,-85.32 285.56,-85.01 293.65,-91.86 296.15,-85.32"/>
</a>
</g>
</g>
<!-- Node7 -->
<g id="Node000007" class="node">
<title>Node7</title>
<g id="a_Node000007"><a xlink:href="OWAttributeSet_8h.html" target="_top" xlink:title=" ">
<polygon fill="white" stroke="#666666" points="552,-85 416,-85 416,-55 552,-55 552,-85"/>
<text text-anchor="start" x="424" y="-73" font-family="Helvetica,sans-Serif" font-size="10.00">AbilitySystem/Attributes</text>
<text text-anchor="middle" x="484" y="-62" font-family="Helvetica,sans-Serif" font-size="10.00">/OWAttributeSet.h</text>
</a>
</g>
</g>
<!-- Node2&#45;&gt;Node7 -->
<g id="edge7_Node000002_Node000007" class="edge">
<title>Node2&#45;&gt;Node7</title>
<g id="a_edge7_Node000002_Node000007"><a xlink:title=" ">
<path fill="none" stroke="#63b8ff" d="M431.09,-120.8C440.07,-112.34 451.63,-101.46 461.65,-92.03"/>
<polygon fill="#63b8ff" stroke="#63b8ff" points="464.07,-94.57 468.95,-85.16 459.27,-89.47 464.07,-94.57"/>
</a>
</g>
</g>
<!-- Node11 -->
<g id="Node000011" class="node">
<title>Node11</title>
<g id="a_Node000011"><a xlink:title=" ">
<polygon fill="#e0e0e0" stroke="#999999" points="706,-79.5 570,-79.5 570,-60.5 706,-60.5 706,-79.5"/>
<text text-anchor="middle" x="638" y="-67.5" font-family="Helvetica,sans-Serif" font-size="10.00">OWGE_Cost.generated.h</text>
</a>
</g>
</g>
<!-- Node2&#45;&gt;Node11 -->
<g id="edge12_Node000002_Node000011" class="edge">
<title>Node2&#45;&gt;Node11</title>
<g id="a_edge12_Node000002_Node000011"><a xlink:title=" ">
<path fill="none" stroke="#63b8ff" d="M464.72,-120.95C504.85,-109.38 561.05,-93.18 598.44,-82.41"/>
<polygon fill="#63b8ff" stroke="#63b8ff" points="599.82,-85.65 608.46,-79.52 597.88,-78.92 599.82,-85.65"/>
</a>
</g>
</g>
<!-- Node4&#45;&gt;Node3 -->
<g id="edge4_Node000004_Node000003" class="edge">
<title>Node4&#45;&gt;Node3</title>
<g id="a_edge4_Node000004_Node000003"><a xlink:title=" ">
<path fill="none" stroke="#63b8ff" d="M275.11,-54.99C292.64,-45.58 315.62,-33.24 332.94,-23.95"/>
<polygon fill="#63b8ff" stroke="#63b8ff" points="334.75,-26.95 341.9,-19.14 331.44,-20.78 334.75,-26.95"/>
</a>
</g>
</g>
<!-- Node5 -->
<g id="Node000005" class="node">
<title>Node5</title>
<g id="a_Node000005"><a xlink:title=" ">
<polygon fill="#e0e0e0" stroke="#999999" points="104,-19 0,-19 0,0 104,0 104,-19"/>
<text text-anchor="middle" x="52" y="-7" font-family="Helvetica,sans-Serif" font-size="10.00">GameplayEffect.h</text>
</a>
</g>
</g>
<!-- Node4&#45;&gt;Node5 -->
<g id="edge5_Node000004_Node000005" class="edge">
<title>Node4&#45;&gt;Node5</title>
<g id="a_edge5_Node000004_Node000005"><a xlink:title=" ">
<path fill="none" stroke="#63b8ff" d="M201.81,-54.99C167.82,-44.89 122.5,-31.44 90.64,-21.98"/>
<polygon fill="#63b8ff" stroke="#63b8ff" points="91.39,-18.55 80.8,-19.05 89.39,-25.26 91.39,-18.55"/>
</a>
</g>
</g>
<!-- Node6 -->
<g id="Node000006" class="node">
<title>Node6</title>
<g id="a_Node000006"><a xlink:title=" ">
<polygon fill="#e0e0e0" stroke="#999999" points="295.5,-19 122.5,-19 122.5,0 295.5,0 295.5,-19"/>
<text text-anchor="middle" x="209" y="-7" font-family="Helvetica,sans-Serif" font-size="10.00">OWGameplayEffect.generated.h</text>
</a>
</g>
</g>
<!-- Node4&#45;&gt;Node6 -->
<g id="edge6_Node000004_Node000006" class="edge">
<title>Node4&#45;&gt;Node6</title>
<g id="a_edge6_Node000004_Node000006"><a xlink:title=" ">
<path fill="none" stroke="#63b8ff" d="M239.32,-54.84C233.75,-46.69 226.71,-36.4 220.82,-27.78"/>
<polygon fill="#63b8ff" stroke="#63b8ff" points="223.53,-25.55 214.99,-19.27 217.75,-29.5 223.53,-25.55"/>
</a>
</g>
</g>
<!-- Node7&#45;&gt;Node3 -->
<g id="edge9_Node000007_Node000003" class="edge">
<title>Node7&#45;&gt;Node3</title>
<g id="a_edge9_Node000007_Node000003"><a xlink:title=" ">
<path fill="none" stroke="#63b8ff" d="M453.82,-54.99C433.17,-45.4 406,-32.79 385.87,-23.44"/>
<polygon fill="#63b8ff" stroke="#63b8ff" points="387.15,-20.18 376.61,-19.14 384.2,-26.52 387.15,-20.18"/>
</a>
</g>
</g>
<!-- Node8 -->
<g id="Node000008" class="node">
<title>Node8</title>
<g id="a_Node000008"><a xlink:title=" ">
<polygon fill="#e0e0e0" stroke="#999999" points="570,-19 420,-19 420,0 570,0 570,-19"/>
<text text-anchor="middle" x="495" y="-7" font-family="Helvetica,sans-Serif" font-size="10.00">AbilitySystemComponent.h</text>
</a>
</g>
</g>
<!-- Node7&#45;&gt;Node8 -->
<g id="edge8_Node000007_Node000008" class="edge">
<title>Node7&#45;&gt;Node8</title>
<g id="a_edge8_Node000007_Node000008"><a xlink:title=" ">
<path fill="none" stroke="#63b8ff" d="M486.66,-54.84C488.11,-47.13 489.93,-37.49 491.49,-29.17"/>
<polygon fill="#63b8ff" stroke="#63b8ff" points="494.94,-29.74 493.35,-19.27 488.06,-28.45 494.94,-29.74"/>
</a>
</g>
</g>
<!-- Node9 -->
<g id="Node000009" class="node">
<title>Node9</title>
<g id="a_Node000009"><a xlink:title=" ">
<polygon fill="#e0e0e0" stroke="#999999" points="672,-19 588,-19 588,0 672,0 672,-19"/>
<text text-anchor="middle" x="630" y="-7" font-family="Helvetica,sans-Serif" font-size="10.00">AttributeSet.h</text>
</a>
</g>
</g>
<!-- Node7&#45;&gt;Node9 -->
<g id="edge10_Node000007_Node000009" class="edge">
<title>Node7&#45;&gt;Node9</title>
<g id="a_edge10_Node000007_Node000009"><a xlink:title=" ">
<path fill="none" stroke="#63b8ff" d="M518.97,-54.99C543.33,-45.23 575.53,-32.33 598.97,-22.93"/>
<polygon fill="#63b8ff" stroke="#63b8ff" points="600.46,-26.11 608.44,-19.14 597.85,-19.61 600.46,-26.11"/>
</a>
</g>
</g>
<!-- Node10 -->
<g id="Node000010" class="node">
<title>Node10</title>
<g id="a_Node000010"><a xlink:title=" ">
<polygon fill="#e0e0e0" stroke="#999999" points="843.5,-19 690.5,-19 690.5,0 843.5,0 843.5,-19"/>
<text text-anchor="middle" x="767" y="-7" font-family="Helvetica,sans-Serif" font-size="10.00">OWAttributeSet.generated.h</text>
</a>
</g>
</g>
<!-- Node7&#45;&gt;Node10 -->
<g id="edge11_Node000007_Node000010" class="edge">
<title>Node7&#45;&gt;Node10</title>
<g id="a_edge11_Node000007_Node000010"><a xlink:title=" ">
<path fill="none" stroke="#63b8ff" d="M551.79,-54.99C602.11,-44.59 669.68,-30.62 715.59,-21.13"/>
<polygon fill="#63b8ff" stroke="#63b8ff" points="716.54,-24.51 725.62,-19.05 715.12,-17.65 716.54,-24.51"/>
</a>
</g>
</g>
</g>
</svg>
