<?xml version="1.0" encoding="UTF-8" standalone="no"?>
<!DOCTYPE svg PUBLIC "-//W3C//DTD SVG 1.1//EN"
 "http://www.w3.org/Graphics/SVG/1.1/DTD/svg11.dtd">
<!-- Generated by graphviz version 2.43.0 (0)
 -->
<!-- Title: Source/OliveWatch/Data/OWInputData.cpp Pages: 1 -->
<svg width="546pt" height="148pt"
 viewBox="0.00 0.00 545.50 148.00" xmlns="http://www.w3.org/2000/svg" xmlns:xlink="http://www.w3.org/1999/xlink">
<g id="graph0" class="graph" transform="scale(1 1) rotate(0) translate(4 144)">
<title>Source/OliveWatch/Data/OWInputData.cpp</title>
<!-- Node1 -->
<g id="Node000001" class="node">
<title>Node1</title>
<g id="a_Node000001"><a xlink:title=" ">
<polygon fill="#999999" stroke="#666666" points="373,-140 239,-140 239,-110 373,-110 373,-140"/>
<text text-anchor="start" x="247" y="-128" font-family="Helvetica,sans-Serif" font-size="10.00">Source/OliveWatch/Data</text>
<text text-anchor="middle" x="306" y="-117" font-family="Helvetica,sans-Serif" font-size="10.00">/OWInputData.cpp</text>
</a>
</g>
</g>
<!-- Node2 -->
<g id="Node000002" class="node">
<title>Node2</title>
<g id="a_Node000002"><a xlink:href="OWInputData_8h.html" target="_top" xlink:title=" ">
<polygon fill="white" stroke="#666666" points="306.5,-74 189.5,-74 189.5,-55 306.5,-55 306.5,-74"/>
<text text-anchor="middle" x="248" y="-62" font-family="Helvetica,sans-Serif" font-size="10.00">Data/OWInputData.h</text>
</a>
</g>
</g>
<!-- Node1&#45;&gt;Node2 -->
<g id="edge1_Node000001_Node000002" class="edge">
<title>Node1&#45;&gt;Node2</title>
<g id="a_edge1_Node000001_Node000002"><a xlink:title=" ">
<path fill="none" stroke="#63b8ff" d="M291.96,-109.84C283.45,-101.26 272.59,-90.3 263.78,-81.42"/>
<polygon fill="#63b8ff" stroke="#63b8ff" points="266.22,-78.9 256.69,-74.27 261.25,-83.83 266.22,-78.9"/>
</a>
</g>
</g>
<!-- Node7 -->
<g id="Node000007" class="node">
<title>Node7</title>
<g id="a_Node000007"><a xlink:title=" ">
<polygon fill="#e0e0e0" stroke="#999999" points="405.5,-74 324.5,-74 324.5,-55 405.5,-55 405.5,-74"/>
<text text-anchor="middle" x="365" y="-62" font-family="Helvetica,sans-Serif" font-size="10.00">InputAction.h</text>
</a>
</g>
</g>
<!-- Node1&#45;&gt;Node7 -->
<g id="edge6_Node000001_Node000007" class="edge">
<title>Node1&#45;&gt;Node7</title>
<g id="a_edge6_Node000001_Node000007"><a xlink:title=" ">
<path fill="none" stroke="#63b8ff" d="M320.28,-109.84C328.93,-101.26 339.99,-90.3 348.94,-81.42"/>
<polygon fill="#63b8ff" stroke="#63b8ff" points="351.52,-83.79 356.16,-74.27 346.59,-78.82 351.52,-83.79"/>
</a>
</g>
</g>
<!-- Node3 -->
<g id="Node000003" class="node">
<title>Node3</title>
<g id="a_Node000003"><a xlink:title=" ">
<polygon fill="#e0e0e0" stroke="#999999" points="88,-19 0,-19 0,0 88,0 88,-19"/>
<text text-anchor="middle" x="44" y="-7" font-family="Helvetica,sans-Serif" font-size="10.00">CoreMinimal.h</text>
</a>
</g>
</g>
<!-- Node2&#45;&gt;Node3 -->
<g id="edge2_Node000002_Node000003" class="edge">
<title>Node2&#45;&gt;Node3</title>
<g id="a_edge2_Node000002_Node000003"><a xlink:title=" ">
<path fill="none" stroke="#63b8ff" d="M215.22,-54.98C180.38,-45.93 125.13,-31.58 86.86,-21.64"/>
<polygon fill="#63b8ff" stroke="#63b8ff" points="87.59,-18.21 77.03,-19.08 85.83,-24.98 87.59,-18.21"/>
</a>
</g>
</g>
<!-- Node4 -->
<g id="Node000004" class="node">
<title>Node4</title>
<g id="a_Node000004"><a xlink:title=" ">
<polygon fill="#e0e0e0" stroke="#999999" points="245.5,-19 106.5,-19 106.5,0 245.5,0 245.5,-19"/>
<text text-anchor="middle" x="176" y="-7" font-family="Helvetica,sans-Serif" font-size="10.00">GameplayTagContainer.h</text>
</a>
</g>
</g>
<!-- Node2&#45;&gt;Node4 -->
<g id="edge3_Node000002_Node000004" class="edge">
<title>Node2&#45;&gt;Node4</title>
<g id="a_edge3_Node000002_Node000004"><a xlink:title=" ">
<path fill="none" stroke="#63b8ff" d="M236.43,-54.98C225.58,-47 209.12,-34.88 196.12,-25.31"/>
<polygon fill="#63b8ff" stroke="#63b8ff" points="197.91,-22.28 187.78,-19.17 193.76,-27.92 197.91,-22.28"/>
</a>
</g>
</g>
<!-- Node5 -->
<g id="Node000005" class="node">
<title>Node5</title>
<g id="a_Node000005"><a xlink:title=" ">
<polygon fill="#e0e0e0" stroke="#999999" points="376,-19 264,-19 264,0 376,0 376,-19"/>
<text text-anchor="middle" x="320" y="-7" font-family="Helvetica,sans-Serif" font-size="10.00">Engine/DataAsset.h</text>
</a>
</g>
</g>
<!-- Node2&#45;&gt;Node5 -->
<g id="edge4_Node000002_Node000005" class="edge">
<title>Node2&#45;&gt;Node5</title>
<g id="a_edge4_Node000002_Node000005"><a xlink:title=" ">
<path fill="none" stroke="#63b8ff" d="M259.57,-54.98C270.42,-47 286.88,-34.88 299.88,-25.31"/>
<polygon fill="#63b8ff" stroke="#63b8ff" points="302.24,-27.92 308.22,-19.17 298.09,-22.28 302.24,-27.92"/>
</a>
</g>
</g>
<!-- Node6 -->
<g id="Node000006" class="node">
<title>Node6</title>
<g id="a_Node000006"><a xlink:title=" ">
<polygon fill="#e0e0e0" stroke="#999999" points="537.5,-19 394.5,-19 394.5,0 537.5,0 537.5,-19"/>
<text text-anchor="middle" x="466" y="-7" font-family="Helvetica,sans-Serif" font-size="10.00">OWInputData.generated.h</text>
</a>
</g>
</g>
<!-- Node2&#45;&gt;Node6 -->
<g id="edge5_Node000002_Node000006" class="edge">
<title>Node2&#45;&gt;Node6</title>
<g id="a_edge5_Node000002_Node000006"><a xlink:title=" ">
<path fill="none" stroke="#63b8ff" d="M283.03,-54.98C320.5,-45.87 380.05,-31.4 420.98,-21.45"/>
<polygon fill="#63b8ff" stroke="#63b8ff" points="421.81,-24.85 430.7,-19.08 420.16,-18.04 421.81,-24.85"/>
</a>
</g>
</g>
</g>
</svg>
