<?xml version="1.0" encoding="UTF-8" standalone="no"?>
<!DOCTYPE svg PUBLIC "-//W3C//DTD SVG 1.1//EN"
 "http://www.w3.org/Graphics/SVG/1.1/DTD/svg11.dtd">
<!-- Generated by graphviz version 2.43.0 (0)
 -->
<!-- Title: Source/OliveWatch/OWLogChannels.h Pages: 1 -->
<svg width="757pt" height="104pt"
 viewBox="0.00 0.00 757.00 104.00" xmlns="http://www.w3.org/2000/svg" xmlns:xlink="http://www.w3.org/1999/xlink">
<g id="graph0" class="graph" transform="scale(1 1) rotate(0) translate(4 100)">
<title>Source/OliveWatch/OWLogChannels.h</title>
<!-- Node1 -->
<g id="Node000001" class="node">
<title>Node1</title>
<g id="a_Node000001"><a xlink:title=" ">
<polygon fill="#999999" stroke="#666666" points="485,-96 285,-96 285,-77 485,-77 485,-96"/>
<text text-anchor="middle" x="385" y="-84" font-family="Helvetica,sans-Serif" font-size="10.00">Source/OliveWatch/OWLogChannels.h</text>
</a>
</g>
</g>
<!-- Node2 -->
<g id="Node000002" class="node">
<title>Node2</title>
<g id="a_Node000002"><a xlink:href="OWGameplayAbility__Test_8cpp.html" target="_top" xlink:title=" ">
<polygon fill="white" stroke="#666666" points="198,-41 0,-41 0,0 198,0 198,-41"/>
<text text-anchor="start" x="8" y="-29" font-family="Helvetica,sans-Serif" font-size="10.00">Source/OliveWatch/Ability</text>
<text text-anchor="start" x="8" y="-18" font-family="Helvetica,sans-Serif" font-size="10.00">System/Abilities/OWGameplayAbility</text>
<text text-anchor="middle" x="99" y="-7" font-family="Helvetica,sans-Serif" font-size="10.00">_Test.cpp</text>
</a>
</g>
</g>
<!-- Node1&#45;&gt;Node2 -->
<g id="edge1_Node000001_Node000002" class="edge">
<title>Node1&#45;&gt;Node2</title>
<g id="a_edge1_Node000001_Node000002"><a xlink:title=" ">
<path fill="none" stroke="#63b8ff" d="M336.72,-74.7C295.7,-65.52 235.78,-52.11 186.37,-41.05"/>
<polygon fill="#63b8ff" stroke="#63b8ff" points="336.2,-78.17 346.73,-76.94 337.73,-71.34 336.2,-78.17"/>
</a>
</g>
</g>
<!-- Node3 -->
<g id="Node000003" class="node">
<title>Node3</title>
<g id="a_Node000003"><a xlink:href="OWAbilitySet_8cpp.html" target="_top" xlink:title=" ">
<polygon fill="white" stroke="#666666" points="359.5,-35.5 216.5,-35.5 216.5,-5.5 359.5,-5.5 359.5,-35.5"/>
<text text-anchor="start" x="224.5" y="-23.5" font-family="Helvetica,sans-Serif" font-size="10.00">Source/OliveWatch/Ability</text>
<text text-anchor="middle" x="288" y="-12.5" font-family="Helvetica,sans-Serif" font-size="10.00">System/OWAbilitySet.cpp</text>
</a>
</g>
</g>
<!-- Node1&#45;&gt;Node3 -->
<g id="edge2_Node000001_Node000003" class="edge">
<title>Node1&#45;&gt;Node3</title>
<g id="a_edge2_Node000001_Node000003"><a xlink:title=" ">
<path fill="none" stroke="#63b8ff" d="M363.2,-71.12C347.13,-60.51 325.37,-46.16 309.39,-35.62"/>
<polygon fill="#63b8ff" stroke="#63b8ff" points="361.64,-74.28 371.92,-76.87 365.5,-68.44 361.64,-74.28"/>
</a>
</g>
</g>
<!-- Node4 -->
<g id="Node000004" class="node">
<title>Node4</title>
<g id="a_Node000004"><a xlink:href="OWLogChannels_8cpp.html" target="_top" xlink:title=" ">
<polygon fill="white" stroke="#666666" points="588.5,-30 377.5,-30 377.5,-11 588.5,-11 588.5,-30"/>
<text text-anchor="middle" x="483" y="-18" font-family="Helvetica,sans-Serif" font-size="10.00">Source/OliveWatch/OWLogChannels.cpp</text>
</a>
</g>
</g>
<!-- Node1&#45;&gt;Node4 -->
<g id="edge3_Node000001_Node000004" class="edge">
<title>Node1&#45;&gt;Node4</title>
<g id="a_edge3_Node000001_Node000004"><a xlink:title=" ">
<path fill="none" stroke="#63b8ff" d="M406.67,-71.35C425.93,-58.77 453.48,-40.78 469.68,-30.2"/>
<polygon fill="#63b8ff" stroke="#63b8ff" points="404.68,-68.47 398.22,-76.87 408.5,-74.33 404.68,-68.47"/>
</a>
</g>
</g>
<!-- Node5 -->
<g id="Node000005" class="node">
<title>Node5</title>
<g id="a_Node000005"><a xlink:href="OWPlayerState_8cpp.html" target="_top" xlink:title=" ">
<polygon fill="white" stroke="#666666" points="749,-35.5 607,-35.5 607,-5.5 749,-5.5 749,-35.5"/>
<text text-anchor="start" x="615" y="-23.5" font-family="Helvetica,sans-Serif" font-size="10.00">Source/OliveWatch/Player</text>
<text text-anchor="middle" x="678" y="-12.5" font-family="Helvetica,sans-Serif" font-size="10.00">/OWPlayerState.cpp</text>
</a>
</g>
</g>
<!-- Node1&#45;&gt;Node5 -->
<g id="edge4_Node000001_Node000005" class="edge">
<title>Node1&#45;&gt;Node5</title>
<g id="a_edge4_Node000001_Node000005"><a xlink:title=" ">
<path fill="none" stroke="#63b8ff" d="M437.92,-74.95C481.08,-66.23 543.59,-53.31 598,-41 605.53,-39.3 613.44,-37.44 621.24,-35.58"/>
<polygon fill="#63b8ff" stroke="#63b8ff" points="437.04,-71.56 427.93,-76.97 438.42,-78.42 437.04,-71.56"/>
</a>
</g>
</g>
</g>
</svg>
