<?xml version="1.0" encoding="UTF-8" standalone="no"?>
<!DOCTYPE svg PUBLIC "-//W3C//DTD SVG 1.1//EN"
 "http://www.w3.org/Graphics/SVG/1.1/DTD/svg11.dtd">
<!-- Generated by graphviz version 2.43.0 (0)
 -->
<!-- Title: UOWGameplayAbility Pages: 1 -->
<svg width="372pt" height="402pt"
 viewBox="0.00 0.00 372.00 402.00" xmlns="http://www.w3.org/2000/svg" xmlns:xlink="http://www.w3.org/1999/xlink">
<g id="graph0" class="graph" transform="scale(1 1) rotate(0) translate(4 398)">
<title>UOWGameplayAbility</title>
<!-- Node1 -->
<g id="Node000001" class="node">
<title>Node1</title>
<g id="a_Node000001"><a xlink:title=" ">
<polygon fill="#999999" stroke="transparent" points="252,-309 116,-309 116,-260 252,-260 252,-309"/>
<text text-anchor="start" x="130.5" y="-296.5" font-family="Helvetica,sans-Serif" font-size="10.00">UOWGameplayAbility</text>
<text text-anchor="start" x="182" y="-281.5" font-family="Helvetica,sans-Serif" font-size="10.00"> </text>
<text text-anchor="start" x="120" y="-266.5" font-family="Helvetica,sans-Serif" font-size="10.00">+</text>
<text text-anchor="start" x="133" y="-266.5" font-family="Helvetica,sans-Serif" font-size="10.00">UOWGameplayAbility()</text>
<polygon fill="#666666" stroke="#666666" points="116,-291.5 116,-291.5 252,-291.5 252,-291.5 116,-291.5"/>
<polygon fill="#666666" stroke="#666666" points="116,-276.5 116,-276.5 252,-276.5 252,-276.5 116,-276.5"/>
<polygon fill="none" stroke="#666666" points="116,-260 116,-309 252,-309 252,-260 116,-260"/>
</a>
</g>
</g>
<!-- Node3 -->
<g id="Node000003" class="node">
<title>Node3</title>
<g id="a_Node000003"><a xlink:href="classUOWGA__Active.html" target="_top" xlink:title=" ">
<polygon fill="white" stroke="transparent" points="120,-224 0,-224 0,-100 120,-100 120,-224"/>
<text text-anchor="start" x="22" y="-212" font-family="Helvetica,sans-Serif" font-size="10.00">UOWGA_Active</text>
<text text-anchor="start" x="4" y="-197" font-family="Helvetica,sans-Serif" font-size="10.00">#</text>
<text text-anchor="start" x="17" y="-197" font-family="Helvetica,sans-Serif" font-size="10.00">CooldownDuration</text>
<text text-anchor="start" x="4" y="-182" font-family="Helvetica,sans-Serif" font-size="10.00">#</text>
<text text-anchor="start" x="17" y="-182" font-family="Helvetica,sans-Serif" font-size="10.00">CooldownTags</text>
<text text-anchor="start" x="4" y="-167" font-family="Helvetica,sans-Serif" font-size="10.00">+</text>
<text text-anchor="start" x="17" y="-167" font-family="Helvetica,sans-Serif" font-size="10.00">UOWGA_Active()</text>
<text text-anchor="start" x="4" y="-152" font-family="Helvetica,sans-Serif" font-size="10.00">+</text>
<text text-anchor="start" x="17" y="-152" font-family="Helvetica,sans-Serif" font-size="10.00">SetCooldownData()</text>
<text text-anchor="start" x="4" y="-137" font-family="Helvetica,sans-Serif" font-size="10.00">+</text>
<text text-anchor="start" x="17" y="-137" font-family="Helvetica,sans-Serif" font-size="10.00">ActivateAbility()</text>
<text text-anchor="start" x="4" y="-122" font-family="Helvetica,sans-Serif" font-size="10.00">+</text>
<text text-anchor="start" x="17" y="-122" font-family="Helvetica,sans-Serif" font-size="10.00">ApplyCooldown()</text>
<text text-anchor="start" x="4" y="-107" font-family="Helvetica,sans-Serif" font-size="10.00">+</text>
<text text-anchor="start" x="17" y="-107" font-family="Helvetica,sans-Serif" font-size="10.00">CanActivateAbility()</text>
<polygon fill="#666666" stroke="#666666" points="0,-207 0,-207 120,-207 120,-207 0,-207"/>
<polygon fill="#666666" stroke="#666666" points="0,-177 0,-177 15,-177 15,-177 0,-177"/>
<polygon fill="#666666" stroke="#666666" points="15,-177 15,-177 120,-177 120,-177 15,-177"/>
<polygon fill="none" stroke="#666666" points="0,-100 0,-224 120,-224 120,-100 0,-100"/>
</a>
</g>
</g>
<!-- Node1&#45;&gt;Node3 -->
<g id="edge2_Node000001_Node000003" class="edge">
<title>Node1&#45;&gt;Node3</title>
<g id="a_edge2_Node000001_Node000003"><a xlink:title=" ">
<path fill="none" stroke="#63b8ff" d="M152.52,-252.91C142.62,-243.29 131.34,-232.33 120.14,-221.44"/>
<polygon fill="none" stroke="#63b8ff" points="150.19,-255.52 159.8,-259.98 155.06,-250.5 150.19,-255.52"/>
</a>
</g>
</g>
<!-- Node5 -->
<g id="Node000005" class="node">
<title>Node5</title>
<g id="a_Node000005"><a xlink:href="classUOWGA__Passive.html" target="_top" xlink:title=" ">
<polygon fill="white" stroke="transparent" points="230,-186.5 138,-186.5 138,-137.5 230,-137.5 230,-186.5"/>
<text text-anchor="start" x="143" y="-174" font-family="Helvetica,sans-Serif" font-size="10.00">UOWGA_Passive</text>
<text text-anchor="start" x="182" y="-159" font-family="Helvetica,sans-Serif" font-size="10.00"> </text>
<text text-anchor="start" x="182" y="-144" font-family="Helvetica,sans-Serif" font-size="10.00"> </text>
<polygon fill="#bfbfbf" stroke="#bfbfbf" points="138,-169 138,-169 230,-169 230,-169 138,-169"/>
<polygon fill="#bfbfbf" stroke="#bfbfbf" points="138,-154 138,-154 230,-154 230,-154 138,-154"/>
<polygon fill="none" stroke="#bfbfbf" points="138,-137.5 138,-186.5 230,-186.5 230,-137.5 138,-137.5"/>
</a>
</g>
</g>
<!-- Node1&#45;&gt;Node5 -->
<g id="edge4_Node000001_Node000005" class="edge">
<title>Node1&#45;&gt;Node5</title>
<g id="a_edge4_Node000001_Node000005"><a xlink:title=" ">
<path fill="none" stroke="#63b8ff" d="M184,-249.73C184,-229.72 184,-204.84 184,-186.87"/>
<polygon fill="none" stroke="#63b8ff" points="180.5,-249.98 184,-259.98 187.5,-249.98 180.5,-249.98"/>
</a>
</g>
</g>
<!-- Node6 -->
<g id="Node000006" class="node">
<title>Node6</title>
<g id="a_Node000006"><a xlink:href="classUOWGA__Ultimate.html" target="_top" xlink:title=" ">
<polygon fill="white" stroke="transparent" points="364,-209 248,-209 248,-115 364,-115 364,-209"/>
<text text-anchor="start" x="262" y="-197" font-family="Helvetica,sans-Serif" font-size="10.00">UOWGA_Ultimate</text>
<text text-anchor="start" x="252" y="-182" font-family="Helvetica,sans-Serif" font-size="10.00">#</text>
<text text-anchor="start" x="265" y="-182" font-family="Helvetica,sans-Serif" font-size="10.00">UltCost</text>
<text text-anchor="start" x="252" y="-167" font-family="Helvetica,sans-Serif" font-size="10.00">+</text>
<text text-anchor="start" x="265" y="-167" font-family="Helvetica,sans-Serif" font-size="10.00">UOWGA_Ultimate()</text>
<text text-anchor="start" x="252" y="-152" font-family="Helvetica,sans-Serif" font-size="10.00">+</text>
<text text-anchor="start" x="265" y="-152" font-family="Helvetica,sans-Serif" font-size="10.00">CheckCost()</text>
<text text-anchor="start" x="252" y="-137" font-family="Helvetica,sans-Serif" font-size="10.00">+</text>
<text text-anchor="start" x="265" y="-137" font-family="Helvetica,sans-Serif" font-size="10.00">ApplyCost()</text>
<text text-anchor="start" x="252" y="-122" font-family="Helvetica,sans-Serif" font-size="10.00">+</text>
<text text-anchor="start" x="265" y="-122" font-family="Helvetica,sans-Serif" font-size="10.00">ActivateAbility()</text>
<polygon fill="#666666" stroke="#666666" points="248,-192 248,-192 364,-192 364,-192 248,-192"/>
<polygon fill="#666666" stroke="#666666" points="248,-177 248,-177 263,-177 263,-177 248,-177"/>
<polygon fill="#666666" stroke="#666666" points="263,-177 263,-177 364,-177 364,-177 263,-177"/>
<polygon fill="none" stroke="#666666" points="248,-115 248,-209 364,-209 364,-115 248,-115"/>
</a>
</g>
</g>
<!-- Node1&#45;&gt;Node6 -->
<g id="edge5_Node000001_Node000006" class="edge">
<title>Node1&#45;&gt;Node6</title>
<g id="a_edge5_Node000001_Node000006"><a xlink:title=" ">
<path fill="none" stroke="#63b8ff" d="M214.95,-252.93C228.31,-239.73 244.24,-224 259.02,-209.41"/>
<polygon fill="none" stroke="#63b8ff" points="212.47,-250.46 207.81,-259.98 217.39,-255.44 212.47,-250.46"/>
</a>
</g>
</g>
<!-- Node2 -->
<g id="Node000002" class="node">
<title>Node2</title>
<g id="a_Node000002"><a xlink:title=" ">
<polygon fill="white" stroke="transparent" points="234,-394 134,-394 134,-345 234,-345 234,-394"/>
<text text-anchor="start" x="139" y="-381.5" font-family="Helvetica,sans-Serif" font-size="10.00">UGameplayAbility</text>
<text text-anchor="start" x="182" y="-366.5" font-family="Helvetica,sans-Serif" font-size="10.00"> </text>
<text text-anchor="start" x="182" y="-351.5" font-family="Helvetica,sans-Serif" font-size="10.00"> </text>
<polygon fill="#bfbfbf" stroke="#bfbfbf" points="134,-376.5 134,-376.5 234,-376.5 234,-376.5 134,-376.5"/>
<polygon fill="#bfbfbf" stroke="#bfbfbf" points="134,-361.5 134,-361.5 234,-361.5 234,-361.5 134,-361.5"/>
<polygon fill="none" stroke="#bfbfbf" points="134,-345 134,-394 234,-394 234,-345 134,-345"/>
</a>
</g>
</g>
<!-- Node2&#45;&gt;Node1 -->
<g id="edge1_Node000001_Node000002" class="edge">
<title>Node2&#45;&gt;Node1</title>
<g id="a_edge1_Node000001_Node000002"><a xlink:title=" ">
<path fill="none" stroke="#63b8ff" d="M184,-334.77C184,-326.17 184,-317.1 184,-309.12"/>
<polygon fill="none" stroke="#63b8ff" points="180.5,-334.94 184,-344.94 187.5,-334.94 180.5,-334.94"/>
</a>
</g>
</g>
<!-- Node4 -->
<g id="Node000004" class="node">
<title>Node4</title>
<g id="a_Node000004"><a xlink:href="classUOWGA__FastZoom.html" target="_top" xlink:title=" ">
<polygon fill="white" stroke="transparent" points="111.5,-64 8.5,-64 8.5,0 111.5,0 111.5,-64"/>
<text text-anchor="start" x="14" y="-52" font-family="Helvetica,sans-Serif" font-size="10.00">UOWGA_FastZoom</text>
<text text-anchor="start" x="13.5" y="-37" font-family="Helvetica,sans-Serif" font-size="10.00">#</text>
<text text-anchor="start" x="27" y="-37" font-family="Helvetica,sans-Serif" font-size="10.00">ZoomFOV</text>
<text text-anchor="start" x="13.5" y="-22" font-family="Helvetica,sans-Serif" font-size="10.00">+</text>
<text text-anchor="start" x="27" y="-22" font-family="Helvetica,sans-Serif" font-size="10.00">ActivateAbility()</text>
<text text-anchor="start" x="13.5" y="-7" font-family="Helvetica,sans-Serif" font-size="10.00">+</text>
<text text-anchor="start" x="27" y="-7" font-family="Helvetica,sans-Serif" font-size="10.00">EndAbility()</text>
<polygon fill="#bfbfbf" stroke="#bfbfbf" points="9,-47 9,-47 112,-47 112,-47 9,-47"/>
<polygon fill="#bfbfbf" stroke="#bfbfbf" points="9,-32 9,-32 25,-32 25,-32 9,-32"/>
<polygon fill="#bfbfbf" stroke="#bfbfbf" points="25,-32 25,-32 112,-32 112,-32 25,-32"/>
<polygon fill="none" stroke="#bfbfbf" points="8.5,0 8.5,-64 111.5,-64 111.5,0 8.5,0"/>
</a>
</g>
</g>
<!-- Node3&#45;&gt;Node4 -->
<g id="edge3_Node000003_Node000004" class="edge">
<title>Node3&#45;&gt;Node4</title>
<g id="a_edge3_Node000003_Node000004"><a xlink:title=" ">
<path fill="none" stroke="#63b8ff" d="M60,-89.86C60,-80.92 60,-72.17 60,-64.31"/>
<polygon fill="none" stroke="#63b8ff" points="56.5,-90 60,-100 63.5,-90 56.5,-90"/>
</a>
</g>
</g>
</g>
</svg>
