<?xml version="1.0" encoding="UTF-8" standalone="no"?>
<!DOCTYPE svg PUBLIC "-//W3C//DTD SVG 1.1//EN"
 "http://www.w3.org/Graphics/SVG/1.1/DTD/svg11.dtd">
<!-- Generated by graphviz version 2.43.0 (0)
 -->
<!-- Title: UOWAttributeSet Pages: 1 -->
<svg width="174pt" height="277pt"
 viewBox="0.00 0.00 174.00 277.00" xmlns="http://www.w3.org/2000/svg" xmlns:xlink="http://www.w3.org/1999/xlink">
<g id="graph0" class="graph" transform="scale(1 1) rotate(0) translate(4 273)">
<title>UOWAttributeSet</title>
<!-- Node1 -->
<g id="Node000001" class="node">
<title>Node1</title>
<g id="a_Node000001"><a xlink:title=" ">
<polygon fill="#999999" stroke="transparent" points="166,-184 0,-184 0,0 166,0 166,-184"/>
<text text-anchor="start" x="41.5" y="-172" font-family="Helvetica,sans-Serif" font-size="10.00">UOWAttributeSet</text>
<text text-anchor="start" x="81" y="-157" font-family="Helvetica,sans-Serif" font-size="10.00"> </text>
<text text-anchor="start" x="4" y="-142" font-family="Helvetica,sans-Serif" font-size="10.00">+</text>
<text text-anchor="start" x="17" y="-142" font-family="Helvetica,sans-Serif" font-size="10.00">ATTRIBUTE_ACCESSORS()</text>
<text text-anchor="start" x="4" y="-127" font-family="Helvetica,sans-Serif" font-size="10.00">+</text>
<text text-anchor="start" x="17" y="-127" font-family="Helvetica,sans-Serif" font-size="10.00">ATTRIBUTE_ACCESSORS()</text>
<text text-anchor="start" x="4" y="-112" font-family="Helvetica,sans-Serif" font-size="10.00">+</text>
<text text-anchor="start" x="17" y="-112" font-family="Helvetica,sans-Serif" font-size="10.00">ATTRIBUTE_ACCESSORS()</text>
<text text-anchor="start" x="4" y="-97" font-family="Helvetica,sans-Serif" font-size="10.00">+</text>
<text text-anchor="start" x="17" y="-97" font-family="Helvetica,sans-Serif" font-size="10.00">ATTRIBUTE_ACCESSORS()</text>
<text text-anchor="start" x="4" y="-82" font-family="Helvetica,sans-Serif" font-size="10.00">+</text>
<text text-anchor="start" x="17" y="-82" font-family="Helvetica,sans-Serif" font-size="10.00">ATTRIBUTE_ACCESSORS()</text>
<text text-anchor="start" x="4" y="-67" font-family="Helvetica,sans-Serif" font-size="10.00">+</text>
<text text-anchor="start" x="17" y="-67" font-family="Helvetica,sans-Serif" font-size="10.00">ATTRIBUTE_ACCESSORS()</text>
<text text-anchor="start" x="4" y="-52" font-family="Helvetica,sans-Serif" font-size="10.00">+</text>
<text text-anchor="start" x="17" y="-52" font-family="Helvetica,sans-Serif" font-size="10.00">PostAttributeChange()</text>
<text text-anchor="start" x="4" y="-37" font-family="Helvetica,sans-Serif" font-size="10.00">+</text>
<text text-anchor="start" x="17" y="-37" font-family="Helvetica,sans-Serif" font-size="10.00">GetLifetimeReplicatedProps()</text>
<text text-anchor="start" x="4" y="-22" font-family="Helvetica,sans-Serif" font-size="10.00">+</text>
<text text-anchor="start" x="17" y="-22" font-family="Helvetica,sans-Serif" font-size="10.00">OnRep_HP()</text>
<text text-anchor="start" x="4" y="-7" font-family="Helvetica,sans-Serif" font-size="10.00">+</text>
<text text-anchor="start" x="17" y="-7" font-family="Helvetica,sans-Serif" font-size="10.00">OnRep_Bullets()</text>
<polygon fill="#666666" stroke="#666666" points="0,-167 0,-167 166,-167 166,-167 0,-167"/>
<polygon fill="#666666" stroke="#666666" points="0,-152 0,-152 166,-152 166,-152 0,-152"/>
<polygon fill="none" stroke="#666666" points="0,0 0,-184 166,-184 166,0 0,0"/>
</a>
</g>
</g>
<!-- Node2 -->
<g id="Node000002" class="node">
<title>Node2</title>
<g id="a_Node000002"><a xlink:title=" ">
<polygon fill="white" stroke="transparent" points="121.5,-269 44.5,-269 44.5,-220 121.5,-220 121.5,-269"/>
<text text-anchor="start" x="50" y="-256.5" font-family="Helvetica,sans-Serif" font-size="10.00">UAttributeSet</text>
<text text-anchor="start" x="81.5" y="-241.5" font-family="Helvetica,sans-Serif" font-size="10.00"> </text>
<text text-anchor="start" x="81.5" y="-226.5" font-family="Helvetica,sans-Serif" font-size="10.00"> </text>
<polygon fill="#bfbfbf" stroke="#bfbfbf" points="45,-251.5 45,-251.5 122,-251.5 122,-251.5 45,-251.5"/>
<polygon fill="#bfbfbf" stroke="#bfbfbf" points="45,-236.5 45,-236.5 122,-236.5 122,-236.5 45,-236.5"/>
<polygon fill="none" stroke="#bfbfbf" points="44.5,-220 44.5,-269 121.5,-269 121.5,-220 44.5,-220"/>
</a>
</g>
</g>
<!-- Node2&#45;&gt;Node1 -->
<g id="edge1_Node000001_Node000002" class="edge">
<title>Node2&#45;&gt;Node1</title>
<g id="a_edge1_Node000001_Node000002"><a xlink:title=" ">
<path fill="none" stroke="#63b8ff" d="M83,-209.88C83,-202.03 83,-193.29 83,-184.23"/>
<polygon fill="none" stroke="#63b8ff" points="79.5,-209.98 83,-219.98 86.5,-209.98 79.5,-209.98"/>
</a>
</g>
</g>
</g>
</svg>
