<?xml version="1.0" encoding="UTF-8" standalone="no"?>
<!DOCTYPE svg PUBLIC "-//W3C//DTD SVG 1.1//EN"
 "http://www.w3.org/Graphics/SVG/1.1/DTD/svg11.dtd">
<!-- Generated by graphviz version 2.43.0 (0)
 -->
<!-- Title: 그래픽컬한 클래스 계통도 Pages: 1 -->
<svg width="457pt" height="138pt"
 viewBox="0.00 0.00 457.00 138.00" xmlns="http://www.w3.org/2000/svg" xmlns:xlink="http://www.w3.org/1999/xlink">
<g id="graph0" class="graph" transform="scale(1 1) rotate(0) translate(4 134)">
<title>그래픽컬한 클래스 계통도</title>
<!-- Node0 -->
<g id="Node000000" class="node">
<title>Node0</title>
<g id="a_Node000000"><a xlink:title=" ">
<polygon fill="#e0e0e0" stroke="#999999" points="106,-74 0,-74 0,-55 106,-55 106,-74"/>
<text text-anchor="middle" x="53" y="-62" font-family="Helvetica,sans-Serif" font-size="10.00">UGameplayAbility</text>
</a>
</g>
</g>
<!-- Node1 -->
<g id="Node000001" class="node">
<title>Node1</title>
<g id="a_Node000001"><a xlink:href="classUOWGameplayAbility.html" target="_top" xlink:title=" ">
<polygon fill="white" stroke="#666666" points="265,-74 142,-74 142,-55 265,-55 265,-74"/>
<text text-anchor="middle" x="203.5" y="-62" font-family="Helvetica,sans-Serif" font-size="10.00">UOWGameplayAbility</text>
</a>
</g>
</g>
<!-- Node0&#45;&gt;Node1 -->
<g id="edge12_Node000000_Node000001" class="edge">
<title>Node0&#45;&gt;Node1</title>
<g id="a_edge12_Node000000_Node000001"><a xlink:title=" ">
<path fill="none" stroke="#63b8ff" d="M116.51,-64.5C124.95,-64.5 133.59,-64.5 141.99,-64.5"/>
<polygon fill="#63b8ff" stroke="#63b8ff" points="116.36,-61 106.36,-64.5 116.36,-68 116.36,-61"/>
</a>
</g>
</g>
<!-- Node2 -->
<g id="Node000002" class="node">
<title>Node2</title>
<g id="a_Node000002"><a xlink:href="classUOWGA__Active.html" target="_top" xlink:title=" ">
<polygon fill="white" stroke="#666666" points="421,-130 329,-130 329,-111 421,-111 421,-130"/>
<text text-anchor="middle" x="375" y="-118" font-family="Helvetica,sans-Serif" font-size="10.00">UOWGA_Active</text>
</a>
</g>
</g>
<!-- Node1&#45;&gt;Node2 -->
<g id="edge13_Node000001_Node000002" class="edge">
<title>Node1&#45;&gt;Node2</title>
<g id="a_edge13_Node000001_Node000002"><a xlink:title=" ">
<path fill="none" stroke="#63b8ff" d="M235.65,-77.99C254.37,-85.79 278.79,-95.42 301,-102.5 310.7,-105.59 321.27,-108.47 331.27,-110.98"/>
<polygon fill="#63b8ff" stroke="#63b8ff" points="237,-74.76 226.43,-74.11 234.28,-81.21 237,-74.76"/>
</a>
</g>
</g>
<!-- Node3 -->
<g id="Node000003" class="node">
<title>Node3</title>
<g id="a_Node000003"><a xlink:href="classUOWGA__Passive.html" target="_top" xlink:title=" ">
<polygon fill="white" stroke="#666666" points="424,-93 326,-93 326,-74 424,-74 424,-93"/>
<text text-anchor="middle" x="375" y="-81" font-family="Helvetica,sans-Serif" font-size="10.00">UOWGA_Passive</text>
</a>
</g>
</g>
<!-- Node1&#45;&gt;Node3 -->
<g id="edge14_Node000001_Node000003" class="edge">
<title>Node1&#45;&gt;Node3</title>
<g id="a_edge14_Node000001_Node000003"><a xlink:title=" ">
<path fill="none" stroke="#63b8ff" d="M275.17,-72.42C292.26,-74.34 310.15,-76.34 325.93,-78.11"/>
<polygon fill="#63b8ff" stroke="#63b8ff" points="275.54,-68.94 265.21,-71.31 274.76,-75.9 275.54,-68.94"/>
</a>
</g>
</g>
<!-- Node4 -->
<g id="Node000004" class="node">
<title>Node4</title>
<g id="a_Node000004"><a xlink:href="classUOWGA__Ultimate.html" target="_top" xlink:title=" ">
<polygon fill="white" stroke="#666666" points="427,-56 323,-56 323,-37 427,-37 427,-56"/>
<text text-anchor="middle" x="375" y="-44" font-family="Helvetica,sans-Serif" font-size="10.00">UOWGA_Ultimate</text>
</a>
</g>
</g>
<!-- Node1&#45;&gt;Node4 -->
<g id="edge15_Node000001_Node000004" class="edge">
<title>Node1&#45;&gt;Node4</title>
<g id="a_edge15_Node000001_Node000004"><a xlink:title=" ">
<path fill="none" stroke="#63b8ff" d="M275.55,-56.95C291.46,-55.27 308.03,-53.51 322.94,-51.92"/>
<polygon fill="#63b8ff" stroke="#63b8ff" points="274.79,-53.52 265.21,-58.05 275.53,-60.48 274.79,-53.52"/>
</a>
</g>
</g>
<!-- Node5 -->
<g id="Node000005" class="node">
<title>Node5</title>
<g id="a_Node000005"><a xlink:href="classUOWGameplayAbility__Test.html" target="_top" xlink:title=" ">
<polygon fill="white" stroke="#666666" points="449,-19 301,-19 301,0 449,0 449,-19"/>
<text text-anchor="middle" x="375" y="-7" font-family="Helvetica,sans-Serif" font-size="10.00">UOWGameplayAbility_Test</text>
</a>
</g>
</g>
<!-- Node1&#45;&gt;Node5 -->
<g id="edge16_Node000001_Node000005" class="edge">
<title>Node1&#45;&gt;Node5</title>
<g id="a_edge16_Node000001_Node000005"><a xlink:title=" ">
<path fill="none" stroke="#63b8ff" d="M237.5,-51.23C256.01,-44.03 279.61,-35.25 301,-28.5 311.74,-25.11 323.5,-21.85 334.39,-19.02"/>
<polygon fill="#63b8ff" stroke="#63b8ff" points="236.09,-48.03 228.06,-54.94 238.65,-54.54 236.09,-48.03"/>
</a>
</g>
</g>
</g>
</svg>
