<?xml version="1.0" encoding="UTF-8" standalone="no"?>
<!DOCTYPE svg PUBLIC "-//W3C//DTD SVG 1.1//EN"
 "http://www.w3.org/Graphics/SVG/1.1/DTD/svg11.dtd">
<!-- Generated by graphviz version 2.43.0 (0)
 -->
<!-- Title: UOWGameplayAbility Pages: 1 -->
<svg width="356pt" height="317pt"
 viewBox="0.00 0.00 356.00 317.00" xmlns="http://www.w3.org/2000/svg" xmlns:xlink="http://www.w3.org/1999/xlink">
<g id="graph0" class="graph" transform="scale(1 1) rotate(0) translate(4 313)">
<title>UOWGameplayAbility</title>
<!-- Node1 -->
<g id="Node000001" class="node">
<title>Node1</title>
<g id="a_Node000001"><a xlink:title=" ">
<polygon fill="#999999" stroke="transparent" points="236,-224 100,-224 100,-85 236,-85 236,-224"/>
<text text-anchor="start" x="114.5" y="-211.5" font-family="Helvetica,sans-Serif" font-size="10.00">UOWGameplayAbility</text>
<text text-anchor="start" x="104" y="-196.5" font-family="Helvetica,sans-Serif" font-size="10.00">#</text>
<text text-anchor="start" x="117" y="-196.5" font-family="Helvetica,sans-Serif" font-size="10.00">CooldownDuration</text>
<text text-anchor="start" x="104" y="-181.5" font-family="Helvetica,sans-Serif" font-size="10.00">#</text>
<text text-anchor="start" x="117" y="-181.5" font-family="Helvetica,sans-Serif" font-size="10.00">CooldownTags</text>
<text text-anchor="start" x="104" y="-166.5" font-family="Helvetica,sans-Serif" font-size="10.00">+</text>
<text text-anchor="start" x="117" y="-166.5" font-family="Helvetica,sans-Serif" font-size="10.00">UOWGameplayAbility()</text>
<text text-anchor="start" x="104" y="-151.5" font-family="Helvetica,sans-Serif" font-size="10.00">+</text>
<text text-anchor="start" x="117" y="-151.5" font-family="Helvetica,sans-Serif" font-size="10.00">SetCooldownData()</text>
<text text-anchor="start" x="104" y="-136.5" font-family="Helvetica,sans-Serif" font-size="10.00">+</text>
<text text-anchor="start" x="117" y="-136.5" font-family="Helvetica,sans-Serif" font-size="10.00">SetCostEffect()</text>
<text text-anchor="start" x="104" y="-121.5" font-family="Helvetica,sans-Serif" font-size="10.00">+</text>
<text text-anchor="start" x="117" y="-121.5" font-family="Helvetica,sans-Serif" font-size="10.00">ApplyCooldown()</text>
<text text-anchor="start" x="104" y="-106.5" font-family="Helvetica,sans-Serif" font-size="10.00">+</text>
<text text-anchor="start" x="117" y="-106.5" font-family="Helvetica,sans-Serif" font-size="10.00">CanActivateAbility()</text>
<text text-anchor="start" x="104" y="-91.5" font-family="Helvetica,sans-Serif" font-size="10.00">+</text>
<text text-anchor="start" x="117" y="-91.5" font-family="Helvetica,sans-Serif" font-size="10.00">ActivateAbility()</text>
<polygon fill="#666666" stroke="#666666" points="100,-206.5 100,-206.5 236,-206.5 236,-206.5 100,-206.5"/>
<polygon fill="#666666" stroke="#666666" points="100,-176.5 100,-176.5 115,-176.5 115,-176.5 100,-176.5"/>
<polygon fill="#666666" stroke="#666666" points="115,-176.5 115,-176.5 236,-176.5 236,-176.5 115,-176.5"/>
<polygon fill="none" stroke="#666666" points="100,-85 100,-224 236,-224 236,-85 100,-85"/>
</a>
</g>
</g>
<!-- Node3 -->
<g id="Node000003" class="node">
<title>Node3</title>
<g id="a_Node000003"><a xlink:href="classUOWGA__Active.html" target="_top" xlink:title=" ">
<polygon fill="white" stroke="transparent" points="104,-49 0,-49 0,0 104,0 104,-49"/>
<text text-anchor="start" x="14" y="-36.5" font-family="Helvetica,sans-Serif" font-size="10.00">UOWGA_Active</text>
<text text-anchor="start" x="50" y="-21.5" font-family="Helvetica,sans-Serif" font-size="10.00"> </text>
<text text-anchor="start" x="4" y="-6.5" font-family="Helvetica,sans-Serif" font-size="10.00">+</text>
<text text-anchor="start" x="17" y="-6.5" font-family="Helvetica,sans-Serif" font-size="10.00">UOWGA_Active()</text>
<polygon fill="#bfbfbf" stroke="#bfbfbf" points="0,-31.5 0,-31.5 104,-31.5 104,-31.5 0,-31.5"/>
<polygon fill="#bfbfbf" stroke="#bfbfbf" points="0,-16.5 0,-16.5 104,-16.5 104,-16.5 0,-16.5"/>
<polygon fill="none" stroke="#bfbfbf" points="0,0 0,-49 104,-49 104,0 0,0"/>
</a>
</g>
</g>
<!-- Node1&#45;&gt;Node3 -->
<g id="edge2_Node000001_Node000003" class="edge">
<title>Node1&#45;&gt;Node3</title>
<g id="a_edge2_Node000001_Node000003"><a xlink:title=" ">
<path fill="none" stroke="#63b8ff" d="M98.84,-77.19C89.65,-67.05 80.85,-57.33 73.41,-49.12"/>
<polygon fill="none" stroke="#63b8ff" points="96.28,-79.57 105.59,-84.63 101.46,-74.87 96.28,-79.57"/>
</a>
</g>
</g>
<!-- Node4 -->
<g id="Node000004" class="node">
<title>Node4</title>
<g id="a_Node000004"><a xlink:href="classUOWGA__Passive.html" target="_top" xlink:title=" ">
<polygon fill="white" stroke="transparent" points="214,-49 122,-49 122,0 214,0 214,-49"/>
<text text-anchor="start" x="127" y="-36.5" font-family="Helvetica,sans-Serif" font-size="10.00">UOWGA_Passive</text>
<text text-anchor="start" x="166" y="-21.5" font-family="Helvetica,sans-Serif" font-size="10.00"> </text>
<text text-anchor="start" x="166" y="-6.5" font-family="Helvetica,sans-Serif" font-size="10.00"> </text>
<polygon fill="#bfbfbf" stroke="#bfbfbf" points="122,-31.5 122,-31.5 214,-31.5 214,-31.5 122,-31.5"/>
<polygon fill="#bfbfbf" stroke="#bfbfbf" points="122,-16.5 122,-16.5 214,-16.5 214,-16.5 122,-16.5"/>
<polygon fill="none" stroke="#bfbfbf" points="122,0 122,-49 214,-49 214,0 122,0"/>
</a>
</g>
</g>
<!-- Node1&#45;&gt;Node4 -->
<g id="edge3_Node000001_Node000004" class="edge">
<title>Node1&#45;&gt;Node4</title>
<g id="a_edge3_Node000001_Node000004"><a xlink:title=" ">
<path fill="none" stroke="#63b8ff" d="M168,-74.54C168,-65.36 168,-56.62 168,-49.12"/>
<polygon fill="none" stroke="#63b8ff" points="164.5,-74.63 168,-84.63 171.5,-74.63 164.5,-74.63"/>
</a>
</g>
</g>
<!-- Node5 -->
<g id="Node000005" class="node">
<title>Node5</title>
<g id="a_Node000005"><a xlink:href="classUOWGA__Ultimate.html" target="_top" xlink:title=" ">
<polygon fill="white" stroke="transparent" points="348,-49 232,-49 232,0 348,0 348,-49"/>
<text text-anchor="start" x="246" y="-36.5" font-family="Helvetica,sans-Serif" font-size="10.00">UOWGA_Ultimate</text>
<text text-anchor="start" x="288" y="-21.5" font-family="Helvetica,sans-Serif" font-size="10.00"> </text>
<text text-anchor="start" x="236" y="-6.5" font-family="Helvetica,sans-Serif" font-size="10.00">+</text>
<text text-anchor="start" x="249" y="-6.5" font-family="Helvetica,sans-Serif" font-size="10.00">UOWGA_Ultimate()</text>
<polygon fill="#666666" stroke="#666666" points="232,-31.5 232,-31.5 348,-31.5 348,-31.5 232,-31.5"/>
<polygon fill="#666666" stroke="#666666" points="232,-16.5 232,-16.5 348,-16.5 348,-16.5 232,-16.5"/>
<polygon fill="none" stroke="#666666" points="232,0 232,-49 348,-49 348,0 232,0"/>
</a>
</g>
</g>
<!-- Node1&#45;&gt;Node5 -->
<g id="edge4_Node000001_Node000005" class="edge">
<title>Node1&#45;&gt;Node5</title>
<g id="a_edge4_Node000001_Node000005"><a xlink:title=" ">
<path fill="none" stroke="#63b8ff" d="M240.74,-77.19C250.4,-67.05 259.66,-57.33 267.49,-49.12"/>
<polygon fill="none" stroke="#63b8ff" points="238.01,-74.98 233.64,-84.63 243.08,-79.81 238.01,-74.98"/>
</a>
</g>
</g>
<!-- Node2 -->
<g id="Node000002" class="node">
<title>Node2</title>
<g id="a_Node000002"><a xlink:title=" ">
<polygon fill="white" stroke="transparent" points="218,-309 118,-309 118,-260 218,-260 218,-309"/>
<text text-anchor="start" x="123" y="-296.5" font-family="Helvetica,sans-Serif" font-size="10.00">UGameplayAbility</text>
<text text-anchor="start" x="166" y="-281.5" font-family="Helvetica,sans-Serif" font-size="10.00"> </text>
<text text-anchor="start" x="166" y="-266.5" font-family="Helvetica,sans-Serif" font-size="10.00"> </text>
<polygon fill="#bfbfbf" stroke="#bfbfbf" points="118,-291.5 118,-291.5 218,-291.5 218,-291.5 118,-291.5"/>
<polygon fill="#bfbfbf" stroke="#bfbfbf" points="118,-276.5 118,-276.5 218,-276.5 218,-276.5 118,-276.5"/>
<polygon fill="none" stroke="#bfbfbf" points="118,-260 118,-309 218,-309 218,-260 118,-260"/>
</a>
</g>
</g>
<!-- Node2&#45;&gt;Node1 -->
<g id="edge1_Node000001_Node000002" class="edge">
<title>Node2&#45;&gt;Node1</title>
<g id="a_edge1_Node000001_Node000002"><a xlink:title=" ">
<path fill="none" stroke="#63b8ff" d="M168,-249.48C168,-241.57 168,-232.86 168,-224.04"/>
<polygon fill="none" stroke="#63b8ff" points="164.5,-249.72 168,-259.72 171.5,-249.72 164.5,-249.72"/>
</a>
</g>
</g>
</g>
</svg>
