<?xml version="1.0" encoding="UTF-8" standalone="no"?>
<!DOCTYPE svg PUBLIC "-//W3C//DTD SVG 1.1//EN"
 "http://www.w3.org/Graphics/SVG/1.1/DTD/svg11.dtd">
<!-- Generated by graphviz version 2.43.0 (0)
 -->
<!-- Title: AOWProjectile Pages: 1 -->
<svg width="162pt" height="422pt"
 viewBox="0.00 0.00 162.00 422.00" xmlns="http://www.w3.org/2000/svg" xmlns:xlink="http://www.w3.org/1999/xlink">
<g id="graph0" class="graph" transform="scale(1 1) rotate(0) translate(4 418)">
<title>AOWProjectile</title>
<!-- Node1 -->
<g id="Node000001" class="node">
<title>Node1</title>
<g id="a_Node000001"><a xlink:title=" ">
<polygon fill="#999999" stroke="transparent" points="149.5,-124 4.5,-124 4.5,0 149.5,0 149.5,-124"/>
<text text-anchor="start" x="42.5" y="-112" font-family="Helvetica,sans-Serif" font-size="10.00">AOWProjectile</text>
<text text-anchor="start" x="9" y="-97" font-family="Helvetica,sans-Serif" font-size="10.00">+</text>
<text text-anchor="start" x="22" y="-97" font-family="Helvetica,sans-Serif" font-size="10.00">DamageSpecHandle</text>
<text text-anchor="start" x="9" y="-82" font-family="Helvetica,sans-Serif" font-size="10.00">#</text>
<text text-anchor="start" x="22" y="-82" font-family="Helvetica,sans-Serif" font-size="10.00">ProjectileMovement</text>
<text text-anchor="start" x="9" y="-67" font-family="Helvetica,sans-Serif" font-size="10.00">+</text>
<text text-anchor="start" x="22" y="-67" font-family="Helvetica,sans-Serif" font-size="10.00">AOWProjectile()</text>
<text text-anchor="start" x="9" y="-52" font-family="Helvetica,sans-Serif" font-size="10.00">+</text>
<text text-anchor="start" x="22" y="-52" font-family="Helvetica,sans-Serif" font-size="10.00">SetDamageSpecHandle()</text>
<text text-anchor="start" x="9" y="-37" font-family="Helvetica,sans-Serif" font-size="10.00">+</text>
<text text-anchor="start" x="22" y="-37" font-family="Helvetica,sans-Serif" font-size="10.00">GetProjectileMovement()</text>
<text text-anchor="start" x="9" y="-22" font-family="Helvetica,sans-Serif" font-size="10.00">+</text>
<text text-anchor="start" x="22" y="-22" font-family="Helvetica,sans-Serif" font-size="10.00">SetProjectileVelocity()</text>
<text text-anchor="start" x="9" y="-7" font-family="Helvetica,sans-Serif" font-size="10.00">#</text>
<text text-anchor="start" x="22" y="-7" font-family="Helvetica,sans-Serif" font-size="10.00">BeginPlay()</text>
<polygon fill="#666666" stroke="#666666" points="5,-107 5,-107 150,-107 150,-107 5,-107"/>
<polygon fill="#666666" stroke="#666666" points="5,-77 5,-77 20,-77 20,-77 5,-77"/>
<polygon fill="#666666" stroke="#666666" points="20,-77 20,-77 150,-77 150,-77 20,-77"/>
<polygon fill="none" stroke="#666666" points="4.5,0 4.5,-124 149.5,-124 149.5,0 4.5,0"/>
</a>
</g>
</g>
<!-- Node2 -->
<g id="Node000002" class="node">
<title>Node2</title>
<g id="a_Node000002"><a xlink:href="classAOWCollisionHit.html" target="_top" xlink:title=" ">
<polygon fill="white" stroke="transparent" points="154,-329 0,-329 0,-160 154,-160 154,-329"/>
<text text-anchor="start" x="36.5" y="-316.5" font-family="Helvetica,sans-Serif" font-size="10.00">AOWCollisionHit</text>
<text text-anchor="start" x="4" y="-301.5" font-family="Helvetica,sans-Serif" font-size="10.00">+</text>
<text text-anchor="start" x="17" y="-301.5" font-family="Helvetica,sans-Serif" font-size="10.00">HitEffectSpec</text>
<text text-anchor="start" x="4" y="-286.5" font-family="Helvetica,sans-Serif" font-size="10.00">+</text>
<text text-anchor="start" x="17" y="-286.5" font-family="Helvetica,sans-Serif" font-size="10.00">OverlapEffectSpec</text>
<text text-anchor="start" x="4" y="-271.5" font-family="Helvetica,sans-Serif" font-size="10.00">#</text>
<text text-anchor="start" x="17" y="-271.5" font-family="Helvetica,sans-Serif" font-size="10.00">CollisionComp</text>
<text text-anchor="start" x="4" y="-256.5" font-family="Helvetica,sans-Serif" font-size="10.00">#</text>
<text text-anchor="start" x="17" y="-256.5" font-family="Helvetica,sans-Serif" font-size="10.00">HitHandler</text>
<text text-anchor="start" x="4" y="-241.5" font-family="Helvetica,sans-Serif" font-size="10.00">#</text>
<text text-anchor="start" x="17" y="-241.5" font-family="Helvetica,sans-Serif" font-size="10.00">OverlapHandler</text>
<text text-anchor="start" x="4" y="-226.5" font-family="Helvetica,sans-Serif" font-size="10.00">+</text>
<text text-anchor="start" x="17" y="-226.5" font-family="Helvetica,sans-Serif" font-size="10.00">AOWCollisionHit()</text>
<text text-anchor="start" x="4" y="-211.5" font-family="Helvetica,sans-Serif" font-size="10.00">#</text>
<text text-anchor="start" x="17" y="-211.5" font-family="Helvetica,sans-Serif" font-size="10.00">BeginPlay()</text>
<text text-anchor="start" x="4" y="-196.5" font-family="Helvetica,sans-Serif" font-size="10.00">#</text>
<text text-anchor="start" x="17" y="-196.5" font-family="Helvetica,sans-Serif" font-size="10.00">PostInitializeComponents()</text>
<text text-anchor="start" x="4" y="-181.5" font-family="Helvetica,sans-Serif" font-size="10.00">#</text>
<text text-anchor="start" x="17" y="-181.5" font-family="Helvetica,sans-Serif" font-size="10.00">OnOverlapBegin()</text>
<text text-anchor="start" x="4" y="-166.5" font-family="Helvetica,sans-Serif" font-size="10.00">#</text>
<text text-anchor="start" x="17" y="-166.5" font-family="Helvetica,sans-Serif" font-size="10.00">OnHit()</text>
<polygon fill="#bfbfbf" stroke="#bfbfbf" points="0,-311.5 0,-311.5 154,-311.5 154,-311.5 0,-311.5"/>
<polygon fill="#bfbfbf" stroke="#bfbfbf" points="0,-236.5 0,-236.5 15,-236.5 15,-236.5 0,-236.5"/>
<polygon fill="#bfbfbf" stroke="#bfbfbf" points="15,-236.5 15,-236.5 154,-236.5 154,-236.5 15,-236.5"/>
<polygon fill="none" stroke="#bfbfbf" points="0,-160 0,-329 154,-329 154,-160 0,-160"/>
</a>
</g>
</g>
<!-- Node2&#45;&gt;Node1 -->
<g id="edge1_Node000001_Node000002" class="edge">
<title>Node2&#45;&gt;Node1</title>
<g id="a_edge1_Node000001_Node000002"><a xlink:title=" ">
<path fill="none" stroke="#63b8ff" d="M77,-149.64C77,-140.95 77,-132.29 77,-124.01"/>
<polygon fill="none" stroke="#63b8ff" points="73.5,-149.85 77,-159.85 80.5,-149.85 73.5,-149.85"/>
</a>
</g>
</g>
<!-- Node3 -->
<g id="Node000003" class="node">
<title>Node3</title>
<g id="a_Node000003"><a xlink:title=" ">
<polygon fill="white" stroke="transparent" points="98.5,-414 55.5,-414 55.5,-365 98.5,-365 98.5,-414"/>
<text text-anchor="start" x="61" y="-401.5" font-family="Helvetica,sans-Serif" font-size="10.00">AActor</text>
<text text-anchor="start" x="75.5" y="-386.5" font-family="Helvetica,sans-Serif" font-size="10.00"> </text>
<text text-anchor="start" x="75.5" y="-371.5" font-family="Helvetica,sans-Serif" font-size="10.00"> </text>
<polygon fill="#bfbfbf" stroke="#bfbfbf" points="56,-396.5 56,-396.5 99,-396.5 99,-396.5 56,-396.5"/>
<polygon fill="#bfbfbf" stroke="#bfbfbf" points="56,-381.5 56,-381.5 99,-381.5 99,-381.5 56,-381.5"/>
<polygon fill="none" stroke="#bfbfbf" points="55.5,-365 55.5,-414 98.5,-414 98.5,-365 55.5,-365"/>
</a>
</g>
</g>
<!-- Node3&#45;&gt;Node2 -->
<g id="edge2_Node000002_Node000003" class="edge">
<title>Node3&#45;&gt;Node2</title>
<g id="a_edge2_Node000002_Node000003"><a xlink:title=" ">
<path fill="none" stroke="#63b8ff" d="M77,-354.72C77,-346.84 77,-338.1 77,-329.1"/>
<polygon fill="none" stroke="#63b8ff" points="73.5,-354.89 77,-364.89 80.5,-354.89 73.5,-354.89"/>
</a>
</g>
</g>
</g>
</svg>
