<?xml version="1.0" encoding="UTF-8" standalone="no"?>
<!DOCTYPE svg PUBLIC "-//W3C//DTD SVG 1.1//EN"
 "http://www.w3.org/Graphics/SVG/1.1/DTD/svg11.dtd">
<!-- Generated by graphviz version 2.43.0 (0)
 -->
<!-- Title: AOWCharacter Pages: 1 -->
<svg width="154pt" height="332pt"
 viewBox="0.00 0.00 154.00 332.00" xmlns="http://www.w3.org/2000/svg" xmlns:xlink="http://www.w3.org/1999/xlink">
<g id="graph0" class="graph" transform="scale(1 1) rotate(0) translate(4 328)">
<title>AOWCharacter</title>
<!-- Node1 -->
<g id="Node000001" class="node">
<title>Node1</title>
<g id="a_Node000001"><a xlink:title=" ">
<polygon fill="#999999" stroke="transparent" points="146,-239 0,-239 0,-115 146,-115 146,-239"/>
<text text-anchor="start" x="37" y="-227" font-family="Helvetica,sans-Serif" font-size="10.00">AOWCharacter</text>
<text text-anchor="start" x="4" y="-212" font-family="Helvetica,sans-Serif" font-size="10.00">#</text>
<text text-anchor="start" x="17" y="-212" font-family="Helvetica,sans-Serif" font-size="10.00">AbilitySystemComponent</text>
<text text-anchor="start" x="4" y="-197" font-family="Helvetica,sans-Serif" font-size="10.00">+</text>
<text text-anchor="start" x="17" y="-197" font-family="Helvetica,sans-Serif" font-size="10.00">AOWCharacter()</text>
<text text-anchor="start" x="4" y="-182" font-family="Helvetica,sans-Serif" font-size="10.00">+</text>
<text text-anchor="start" x="17" y="-182" font-family="Helvetica,sans-Serif" font-size="10.00">Move()</text>
<text text-anchor="start" x="4" y="-167" font-family="Helvetica,sans-Serif" font-size="10.00">+</text>
<text text-anchor="start" x="17" y="-167" font-family="Helvetica,sans-Serif" font-size="10.00">Look()</text>
<text text-anchor="start" x="4" y="-152" font-family="Helvetica,sans-Serif" font-size="10.00">+</text>
<text text-anchor="start" x="17" y="-152" font-family="Helvetica,sans-Serif" font-size="10.00">ActivateAbility()</text>
<text text-anchor="start" x="4" y="-137" font-family="Helvetica,sans-Serif" font-size="10.00">#</text>
<text text-anchor="start" x="17" y="-137" font-family="Helvetica,sans-Serif" font-size="10.00">BeginPlay()</text>
<text text-anchor="start" x="4" y="-122" font-family="Helvetica,sans-Serif" font-size="10.00">#</text>
<text text-anchor="start" x="17" y="-122" font-family="Helvetica,sans-Serif" font-size="10.00">PossessedBy()</text>
<polygon fill="#666666" stroke="#666666" points="0,-222 0,-222 146,-222 146,-222 0,-222"/>
<polygon fill="#666666" stroke="#666666" points="0,-207 0,-207 15,-207 15,-207 0,-207"/>
<polygon fill="#666666" stroke="#666666" points="15,-207 15,-207 146,-207 146,-207 15,-207"/>
<polygon fill="none" stroke="#666666" points="0,-115 0,-239 146,-239 146,-115 0,-115"/>
</a>
</g>
</g>
<!-- Node3 -->
<g id="Node000003" class="node">
<title>Node3</title>
<g id="a_Node000003"><a xlink:href="classAOWMonster.html" target="_top" xlink:title=" ">
<polygon fill="white" stroke="transparent" points="119.5,-79 26.5,-79 26.5,0 119.5,0 119.5,-79"/>
<text text-anchor="start" x="41.5" y="-66.5" font-family="Helvetica,sans-Serif" font-size="10.00">AOWMonster</text>
<text text-anchor="start" x="31" y="-51.5" font-family="Helvetica,sans-Serif" font-size="10.00">#</text>
<text text-anchor="start" x="44" y="-51.5" font-family="Helvetica,sans-Serif" font-size="10.00">AbilitySet</text>
<text text-anchor="start" x="31" y="-36.5" font-family="Helvetica,sans-Serif" font-size="10.00">#</text>
<text text-anchor="start" x="44" y="-36.5" font-family="Helvetica,sans-Serif" font-size="10.00">Team</text>
<text text-anchor="start" x="31" y="-21.5" font-family="Helvetica,sans-Serif" font-size="10.00">+</text>
<text text-anchor="start" x="44" y="-21.5" font-family="Helvetica,sans-Serif" font-size="10.00">AOWMonster()</text>
<text text-anchor="start" x="31" y="-6.5" font-family="Helvetica,sans-Serif" font-size="10.00">#</text>
<text text-anchor="start" x="44" y="-6.5" font-family="Helvetica,sans-Serif" font-size="10.00">BeginPlay()</text>
<polygon fill="#bfbfbf" stroke="#bfbfbf" points="27,-61.5 27,-61.5 120,-61.5 120,-61.5 27,-61.5"/>
<polygon fill="#bfbfbf" stroke="#bfbfbf" points="27,-31.5 27,-31.5 42,-31.5 42,-31.5 27,-31.5"/>
<polygon fill="#bfbfbf" stroke="#bfbfbf" points="42,-31.5 42,-31.5 120,-31.5 120,-31.5 42,-31.5"/>
<polygon fill="none" stroke="#bfbfbf" points="26.5,0 26.5,-79 119.5,-79 119.5,0 26.5,0"/>
</a>
</g>
</g>
<!-- Node1&#45;&gt;Node3 -->
<g id="edge2_Node000001_Node000003" class="edge">
<title>Node1&#45;&gt;Node3</title>
<g id="a_edge2_Node000001_Node000003"><a xlink:title=" ">
<path fill="none" stroke="#63b8ff" d="M73,-104.93C73,-96.02 73,-87.19 73,-79.05"/>
<polygon fill="none" stroke="#63b8ff" points="69.5,-104.99 73,-114.99 76.5,-104.99 69.5,-104.99"/>
</a>
</g>
</g>
<!-- Node2 -->
<g id="Node000002" class="node">
<title>Node2</title>
<g id="a_Node000002"><a xlink:title=" ">
<polygon fill="white" stroke="transparent" points="105.5,-324 40.5,-324 40.5,-275 105.5,-275 105.5,-324"/>
<text text-anchor="start" x="46" y="-311.5" font-family="Helvetica,sans-Serif" font-size="10.00">ACharacter</text>
<text text-anchor="start" x="71.5" y="-296.5" font-family="Helvetica,sans-Serif" font-size="10.00"> </text>
<text text-anchor="start" x="71.5" y="-281.5" font-family="Helvetica,sans-Serif" font-size="10.00"> </text>
<polygon fill="#bfbfbf" stroke="#bfbfbf" points="41,-306.5 41,-306.5 106,-306.5 106,-306.5 41,-306.5"/>
<polygon fill="#bfbfbf" stroke="#bfbfbf" points="41,-291.5 41,-291.5 106,-291.5 106,-291.5 41,-291.5"/>
<polygon fill="none" stroke="#bfbfbf" points="40.5,-275 40.5,-324 105.5,-324 105.5,-275 40.5,-275"/>
</a>
</g>
</g>
<!-- Node2&#45;&gt;Node1 -->
<g id="edge1_Node000001_Node000002" class="edge">
<title>Node2&#45;&gt;Node1</title>
<g id="a_edge1_Node000001_Node000002"><a xlink:title=" ">
<path fill="none" stroke="#63b8ff" d="M73,-264.94C73,-256.91 73,-248.08 73,-239.23"/>
<polygon fill="none" stroke="#63b8ff" points="69.5,-264.98 73,-274.98 76.5,-264.98 69.5,-264.98"/>
</a>
</g>
</g>
</g>
</svg>
