<?xml version="1.0" encoding="UTF-8" standalone="no"?>
<!DOCTYPE svg PUBLIC "-//W3C//DTD SVG 1.1//EN"
 "http://www.w3.org/Graphics/SVG/1.1/DTD/svg11.dtd">
<!-- Generated by graphviz version 2.43.0 (0)
 -->
<!-- Title: AOWPlayerState Pages: 1 -->
<svg width="226pt" height="217pt"
 viewBox="0.00 0.00 225.50 217.00" xmlns="http://www.w3.org/2000/svg" xmlns:xlink="http://www.w3.org/1999/xlink">
<g id="graph0" class="graph" transform="scale(1 1) rotate(0) translate(4 213)">
<title>AOWPlayerState</title>
<!-- Node1 -->
<g id="Node000001" class="node">
<title>Node1</title>
<g id="a_Node000001"><a xlink:title=" ">
<polygon fill="#999999" stroke="transparent" points="189.5,-124 2.5,-124 2.5,0 189.5,0 189.5,-124"/>
<text text-anchor="start" x="56" y="-112" font-family="Helvetica,sans-Serif" font-size="10.00">AOWPlayerState</text>
<text text-anchor="start" x="7" y="-97" font-family="Helvetica,sans-Serif" font-size="10.00">#</text>
<text text-anchor="start" x="20" y="-97" font-family="Helvetica,sans-Serif" font-size="10.00">AbilitySystemComponent</text>
<text text-anchor="start" x="7" y="-82" font-family="Helvetica,sans-Serif" font-size="10.00">#</text>
<text text-anchor="start" x="20" y="-82" font-family="Helvetica,sans-Serif" font-size="10.00">AbilitySet</text>
<text text-anchor="start" x="7" y="-67" font-family="Helvetica,sans-Serif" font-size="10.00">#</text>
<text text-anchor="start" x="20" y="-67" font-family="Helvetica,sans-Serif" font-size="10.00">Team</text>
<text text-anchor="start" x="7" y="-52" font-family="Helvetica,sans-Serif" font-size="10.00">+</text>
<text text-anchor="start" x="20" y="-52" font-family="Helvetica,sans-Serif" font-size="10.00">AOWPlayerState()</text>
<text text-anchor="start" x="7" y="-37" font-family="Helvetica,sans-Serif" font-size="10.00">+</text>
<text text-anchor="start" x="20" y="-37" font-family="Helvetica,sans-Serif" font-size="10.00">GetAbilitySystemComponent()</text>
<text text-anchor="start" x="7" y="-22" font-family="Helvetica,sans-Serif" font-size="10.00">+</text>
<text text-anchor="start" x="20" y="-22" font-family="Helvetica,sans-Serif" font-size="10.00">GetOWAbilitySystemComponent()</text>
<text text-anchor="start" x="7" y="-7" font-family="Helvetica,sans-Serif" font-size="10.00">+</text>
<text text-anchor="start" x="20" y="-7" font-family="Helvetica,sans-Serif" font-size="10.00">BeginPlay()</text>
<polygon fill="#666666" stroke="#666666" points="3,-107 3,-107 190,-107 190,-107 3,-107"/>
<polygon fill="#666666" stroke="#666666" points="3,-62 3,-62 18,-62 18,-62 3,-62"/>
<polygon fill="#666666" stroke="#666666" points="18,-62 18,-62 190,-62 190,-62 18,-62"/>
<polygon fill="none" stroke="#666666" points="2.5,0 2.5,-124 189.5,-124 189.5,0 2.5,0"/>
</a>
</g>
</g>
<!-- Node2 -->
<g id="Node000002" class="node">
<title>Node2</title>
<g id="a_Node000002"><a xlink:title=" ">
<polygon fill="white" stroke="transparent" points="74,-209 0,-209 0,-160 74,-160 74,-209"/>
<text text-anchor="start" x="5" y="-196.5" font-family="Helvetica,sans-Serif" font-size="10.00">APlayerState</text>
<text text-anchor="start" x="35" y="-181.5" font-family="Helvetica,sans-Serif" font-size="10.00"> </text>
<text text-anchor="start" x="35" y="-166.5" font-family="Helvetica,sans-Serif" font-size="10.00"> </text>
<polygon fill="#bfbfbf" stroke="#bfbfbf" points="0,-191.5 0,-191.5 74,-191.5 74,-191.5 0,-191.5"/>
<polygon fill="#bfbfbf" stroke="#bfbfbf" points="0,-176.5 0,-176.5 74,-176.5 74,-176.5 0,-176.5"/>
<polygon fill="none" stroke="#bfbfbf" points="0,-160 0,-209 74,-209 74,-160 0,-160"/>
</a>
</g>
</g>
<!-- Node2&#45;&gt;Node1 -->
<g id="edge1_Node000001_Node000002" class="edge">
<title>Node2&#45;&gt;Node1</title>
<g id="a_edge1_Node000001_Node000002"><a xlink:title=" ">
<path fill="none" stroke="#63b8ff" d="M53.03,-150.75C57.07,-142.5 61.54,-133.38 66.02,-124.23"/>
<polygon fill="none" stroke="#63b8ff" points="49.77,-149.46 48.52,-159.98 56.06,-152.54 49.77,-149.46"/>
</a>
</g>
</g>
<!-- Node3 -->
<g id="Node000003" class="node">
<title>Node3</title>
<g id="a_Node000003"><a xlink:title=" ">
<polygon fill="white" stroke="transparent" points="217.5,-209 92.5,-209 92.5,-160 217.5,-160 217.5,-209"/>
<text text-anchor="start" x="98" y="-196.5" font-family="Helvetica,sans-Serif" font-size="10.00">IAbilitySystemInterface</text>
<text text-anchor="start" x="153.5" y="-181.5" font-family="Helvetica,sans-Serif" font-size="10.00"> </text>
<text text-anchor="start" x="153.5" y="-166.5" font-family="Helvetica,sans-Serif" font-size="10.00"> </text>
<polygon fill="#bfbfbf" stroke="#bfbfbf" points="93,-191.5 93,-191.5 218,-191.5 218,-191.5 93,-191.5"/>
<polygon fill="#bfbfbf" stroke="#bfbfbf" points="93,-176.5 93,-176.5 218,-176.5 218,-176.5 93,-176.5"/>
<polygon fill="none" stroke="#bfbfbf" points="92.5,-160 92.5,-209 217.5,-209 217.5,-160 92.5,-160"/>
</a>
</g>
</g>
<!-- Node3&#45;&gt;Node1 -->
<g id="edge2_Node000001_Node000003" class="edge">
<title>Node3&#45;&gt;Node1</title>
<g id="a_edge2_Node000001_Node000003"><a xlink:title=" ">
<path fill="none" stroke="#63b8ff" d="M138.97,-150.75C134.93,-142.5 130.46,-133.38 125.98,-124.23"/>
<polygon fill="none" stroke="#63b8ff" points="135.94,-152.54 143.48,-159.98 142.23,-149.46 135.94,-152.54"/>
</a>
</g>
</g>
</g>
</svg>
