<?xml version="1.0" encoding="UTF-8" standalone="no"?>
<!DOCTYPE svg PUBLIC "-//W3C//DTD SVG 1.1//EN"
 "http://www.w3.org/Graphics/SVG/1.1/DTD/svg11.dtd">
<!-- Generated by graphviz version 2.43.0 (0)
 -->
<!-- Title: UOWGA_ShurikenSub Pages: 1 -->
<svg width="155pt" height="592pt"
 viewBox="0.00 0.00 155.00 592.00" xmlns="http://www.w3.org/2000/svg" xmlns:xlink="http://www.w3.org/1999/xlink">
<g id="graph0" class="graph" transform="scale(1 1) rotate(0) translate(4 588)">
<title>UOWGA_ShurikenSub</title>
<!-- Node1 -->
<g id="Node000001" class="node">
<title>Node1</title>
<g id="a_Node000001"><a xlink:title=" ">
<polygon fill="#999999" stroke="transparent" points="135.5,-124 11.5,-124 11.5,0 135.5,0 135.5,-124"/>
<text text-anchor="start" x="21" y="-112" font-family="Helvetica,sans-Serif" font-size="10.00">UOWGA_ShurikenSub</text>
<text text-anchor="start" x="71.5" y="-97" font-family="Helvetica,sans-Serif" font-size="10.00"> </text>
<text text-anchor="start" x="15.5" y="-82" font-family="Helvetica,sans-Serif" font-size="10.00">+</text>
<text text-anchor="start" x="28.5" y="-82" font-family="Helvetica,sans-Serif" font-size="10.00">SetCurrentMontage()</text>
<text text-anchor="start" x="15.5" y="-67" font-family="Helvetica,sans-Serif" font-size="10.00">+</text>
<text text-anchor="start" x="28.5" y="-67" font-family="Helvetica,sans-Serif" font-size="10.00">CanActivateAbility()</text>
<text text-anchor="start" x="15.5" y="-52" font-family="Helvetica,sans-Serif" font-size="10.00">+</text>
<text text-anchor="start" x="28.5" y="-52" font-family="Helvetica,sans-Serif" font-size="10.00">ActivateAbility()</text>
<text text-anchor="start" x="15.5" y="-37" font-family="Helvetica,sans-Serif" font-size="10.00">+</text>
<text text-anchor="start" x="28.5" y="-37" font-family="Helvetica,sans-Serif" font-size="10.00">EndAbility()</text>
<text text-anchor="start" x="15.5" y="-22" font-family="Helvetica,sans-Serif" font-size="10.00">+</text>
<text text-anchor="start" x="28.5" y="-22" font-family="Helvetica,sans-Serif" font-size="10.00">ShurikenSub()</text>
<text text-anchor="start" x="15.5" y="-7" font-family="Helvetica,sans-Serif" font-size="10.00">+</text>
<text text-anchor="start" x="28.5" y="-7" font-family="Helvetica,sans-Serif" font-size="10.00">SpawnProjectile()</text>
<polygon fill="#666666" stroke="#666666" points="11.5,-107 11.5,-107 135.5,-107 135.5,-107 11.5,-107"/>
<polygon fill="#666666" stroke="#666666" points="11.5,-92 11.5,-92 135.5,-92 135.5,-92 11.5,-92"/>
<polygon fill="none" stroke="#666666" points="11.5,0 11.5,-124 135.5,-124 135.5,0 11.5,0"/>
</a>
</g>
</g>
<!-- Node2 -->
<g id="Node000002" class="node">
<title>Node2</title>
<g id="a_Node000002"><a xlink:href="classUOWGA__Active__GunFire.html" target="_top" xlink:title=" ">
<polygon fill="white" stroke="transparent" points="147,-239 0,-239 0,-160 147,-160 147,-239"/>
<text text-anchor="start" x="15" y="-226.5" font-family="Helvetica,sans-Serif" font-size="10.00">UOWGA_Active_GunFire</text>
<text text-anchor="start" x="72" y="-211.5" font-family="Helvetica,sans-Serif" font-size="10.00"> </text>
<text text-anchor="start" x="4.5" y="-196.5" font-family="Helvetica,sans-Serif" font-size="10.00">+</text>
<text text-anchor="start" x="17.5" y="-196.5" font-family="Helvetica,sans-Serif" font-size="10.00">UOWGA_Active_GunFire()</text>
<text text-anchor="start" x="4.5" y="-181.5" font-family="Helvetica,sans-Serif" font-size="10.00">+</text>
<text text-anchor="start" x="17.5" y="-181.5" font-family="Helvetica,sans-Serif" font-size="10.00">ActivateAbility()</text>
<text text-anchor="start" x="4.5" y="-166.5" font-family="Helvetica,sans-Serif" font-size="10.00">+</text>
<text text-anchor="start" x="17.5" y="-166.5" font-family="Helvetica,sans-Serif" font-size="10.00">SpawnProjectile()</text>
<polygon fill="#bfbfbf" stroke="#bfbfbf" points="0.5,-221.5 0.5,-221.5 147.5,-221.5 147.5,-221.5 0.5,-221.5"/>
<polygon fill="#bfbfbf" stroke="#bfbfbf" points="0.5,-206.5 0.5,-206.5 147.5,-206.5 147.5,-206.5 0.5,-206.5"/>
<polygon fill="none" stroke="#bfbfbf" points="0,-160 0,-239 147,-239 147,-160 0,-160"/>
</a>
</g>
</g>
<!-- Node2&#45;&gt;Node1 -->
<g id="edge1_Node000001_Node000002" class="edge">
<title>Node2&#45;&gt;Node1</title>
<g id="a_edge1_Node000001_Node000002"><a xlink:title=" ">
<path fill="none" stroke="#63b8ff" d="M73.5,-149.48C73.5,-141.24 73.5,-132.59 73.5,-124.09"/>
<polygon fill="none" stroke="#63b8ff" points="70,-149.67 73.5,-159.67 77,-149.67 70,-149.67"/>
</a>
</g>
</g>
<!-- Node3 -->
<g id="Node000003" class="node">
<title>Node3</title>
<g id="a_Node000003"><a xlink:href="classUOWGA__Active.html" target="_top" xlink:title=" ">
<polygon fill="white" stroke="transparent" points="125.5,-324 21.5,-324 21.5,-275 125.5,-275 125.5,-324"/>
<text text-anchor="start" x="35.5" y="-311.5" font-family="Helvetica,sans-Serif" font-size="10.00">UOWGA_Active</text>
<text text-anchor="start" x="71.5" y="-296.5" font-family="Helvetica,sans-Serif" font-size="10.00"> </text>
<text text-anchor="start" x="25.5" y="-281.5" font-family="Helvetica,sans-Serif" font-size="10.00">+</text>
<text text-anchor="start" x="38.5" y="-281.5" font-family="Helvetica,sans-Serif" font-size="10.00">UOWGA_Active()</text>
<polygon fill="#bfbfbf" stroke="#bfbfbf" points="21.5,-306.5 21.5,-306.5 125.5,-306.5 125.5,-306.5 21.5,-306.5"/>
<polygon fill="#bfbfbf" stroke="#bfbfbf" points="21.5,-291.5 21.5,-291.5 125.5,-291.5 125.5,-291.5 21.5,-291.5"/>
<polygon fill="none" stroke="#bfbfbf" points="21.5,-275 21.5,-324 125.5,-324 125.5,-275 21.5,-275"/>
</a>
</g>
</g>
<!-- Node3&#45;&gt;Node2 -->
<g id="edge2_Node000002_Node000003" class="edge">
<title>Node3&#45;&gt;Node2</title>
<g id="a_edge2_Node000002_Node000003"><a xlink:title=" ">
<path fill="none" stroke="#63b8ff" d="M73.5,-264.52C73.5,-256.38 73.5,-247.63 73.5,-239.29"/>
<polygon fill="none" stroke="#63b8ff" points="70,-264.78 73.5,-274.78 77,-264.78 70,-264.78"/>
</a>
</g>
</g>
<!-- Node4 -->
<g id="Node000004" class="node">
<title>Node4</title>
<g id="a_Node000004"><a xlink:href="classUOWGameplayAbility.html" target="_top" xlink:title=" ">
<polygon fill="white" stroke="transparent" points="141.5,-499 5.5,-499 5.5,-360 141.5,-360 141.5,-499"/>
<text text-anchor="start" x="20" y="-486.5" font-family="Helvetica,sans-Serif" font-size="10.00">UOWGameplayAbility</text>
<text text-anchor="start" x="9.5" y="-471.5" font-family="Helvetica,sans-Serif" font-size="10.00">#</text>
<text text-anchor="start" x="22.5" y="-471.5" font-family="Helvetica,sans-Serif" font-size="10.00">CooldownDuration</text>
<text text-anchor="start" x="9.5" y="-456.5" font-family="Helvetica,sans-Serif" font-size="10.00">#</text>
<text text-anchor="start" x="22.5" y="-456.5" font-family="Helvetica,sans-Serif" font-size="10.00">CooldownTags</text>
<text text-anchor="start" x="9.5" y="-441.5" font-family="Helvetica,sans-Serif" font-size="10.00">+</text>
<text text-anchor="start" x="22.5" y="-441.5" font-family="Helvetica,sans-Serif" font-size="10.00">UOWGameplayAbility()</text>
<text text-anchor="start" x="9.5" y="-426.5" font-family="Helvetica,sans-Serif" font-size="10.00">+</text>
<text text-anchor="start" x="22.5" y="-426.5" font-family="Helvetica,sans-Serif" font-size="10.00">SetCooldownData()</text>
<text text-anchor="start" x="9.5" y="-411.5" font-family="Helvetica,sans-Serif" font-size="10.00">+</text>
<text text-anchor="start" x="22.5" y="-411.5" font-family="Helvetica,sans-Serif" font-size="10.00">SetCostEffect()</text>
<text text-anchor="start" x="9.5" y="-396.5" font-family="Helvetica,sans-Serif" font-size="10.00">+</text>
<text text-anchor="start" x="22.5" y="-396.5" font-family="Helvetica,sans-Serif" font-size="10.00">ApplyCooldown()</text>
<text text-anchor="start" x="9.5" y="-381.5" font-family="Helvetica,sans-Serif" font-size="10.00">+</text>
<text text-anchor="start" x="22.5" y="-381.5" font-family="Helvetica,sans-Serif" font-size="10.00">CanActivateAbility()</text>
<text text-anchor="start" x="9.5" y="-366.5" font-family="Helvetica,sans-Serif" font-size="10.00">+</text>
<text text-anchor="start" x="22.5" y="-366.5" font-family="Helvetica,sans-Serif" font-size="10.00">ActivateAbility()</text>
<polygon fill="#bfbfbf" stroke="#bfbfbf" points="5.5,-481.5 5.5,-481.5 141.5,-481.5 141.5,-481.5 5.5,-481.5"/>
<polygon fill="#bfbfbf" stroke="#bfbfbf" points="5.5,-451.5 5.5,-451.5 20.5,-451.5 20.5,-451.5 5.5,-451.5"/>
<polygon fill="#bfbfbf" stroke="#bfbfbf" points="20.5,-451.5 20.5,-451.5 141.5,-451.5 141.5,-451.5 20.5,-451.5"/>
<polygon fill="none" stroke="#bfbfbf" points="5.5,-360 5.5,-499 141.5,-499 141.5,-360 5.5,-360"/>
</a>
</g>
</g>
<!-- Node4&#45;&gt;Node3 -->
<g id="edge3_Node000003_Node000004" class="edge">
<title>Node4&#45;&gt;Node3</title>
<g id="a_edge3_Node000003_Node000004"><a xlink:title=" ">
<path fill="none" stroke="#63b8ff" d="M73.5,-349.54C73.5,-340.36 73.5,-331.62 73.5,-324.12"/>
<polygon fill="none" stroke="#63b8ff" points="70,-349.63 73.5,-359.63 77,-349.63 70,-349.63"/>
</a>
</g>
</g>
<!-- Node5 -->
<g id="Node000005" class="node">
<title>Node5</title>
<g id="a_Node000005"><a xlink:title=" ">
<polygon fill="white" stroke="transparent" points="123.5,-584 23.5,-584 23.5,-535 123.5,-535 123.5,-584"/>
<text text-anchor="start" x="28.5" y="-571.5" font-family="Helvetica,sans-Serif" font-size="10.00">UGameplayAbility</text>
<text text-anchor="start" x="71.5" y="-556.5" font-family="Helvetica,sans-Serif" font-size="10.00"> </text>
<text text-anchor="start" x="71.5" y="-541.5" font-family="Helvetica,sans-Serif" font-size="10.00"> </text>
<polygon fill="#bfbfbf" stroke="#bfbfbf" points="23.5,-566.5 23.5,-566.5 123.5,-566.5 123.5,-566.5 23.5,-566.5"/>
<polygon fill="#bfbfbf" stroke="#bfbfbf" points="23.5,-551.5 23.5,-551.5 123.5,-551.5 123.5,-551.5 23.5,-551.5"/>
<polygon fill="none" stroke="#bfbfbf" points="23.5,-535 23.5,-584 123.5,-584 123.5,-535 23.5,-535"/>
</a>
</g>
</g>
<!-- Node5&#45;&gt;Node4 -->
<g id="edge4_Node000004_Node000005" class="edge">
<title>Node5&#45;&gt;Node4</title>
<g id="a_edge4_Node000004_Node000005"><a xlink:title=" ">
<path fill="none" stroke="#63b8ff" d="M73.5,-524.48C73.5,-516.57 73.5,-507.86 73.5,-499.04"/>
<polygon fill="none" stroke="#63b8ff" points="70,-524.72 73.5,-534.72 77,-524.72 70,-524.72"/>
</a>
</g>
</g>
</g>
</svg>
