<?xml version="1.0" encoding="UTF-8" standalone="no"?>
<!DOCTYPE svg PUBLIC "-//W3C//DTD SVG 1.1//EN"
 "http://www.w3.org/Graphics/SVG/1.1/DTD/svg11.dtd">
<!-- Generated by graphviz version 2.43.0 (0)
 -->
<!-- Title: UOWGA_Active_GunFire Pages: 1 -->
<svg width="155pt" height="417pt"
 viewBox="0.00 0.00 155.00 417.00" xmlns="http://www.w3.org/2000/svg" xmlns:xlink="http://www.w3.org/1999/xlink">
<g id="graph0" class="graph" transform="scale(1 1) rotate(0) translate(4 413)">
<title>UOWGA_Active_GunFire</title>
<!-- Node1 -->
<g id="Node000001" class="node">
<title>Node1</title>
<g id="a_Node000001"><a xlink:title=" ">
<polygon fill="#999999" stroke="transparent" points="147,-64 0,-64 0,0 147,0 147,-64"/>
<text text-anchor="start" x="15" y="-52" font-family="Helvetica,sans-Serif" font-size="10.00">UOWGA_Active_GunFire</text>
<text text-anchor="start" x="72" y="-37" font-family="Helvetica,sans-Serif" font-size="10.00"> </text>
<text text-anchor="start" x="4.5" y="-22" font-family="Helvetica,sans-Serif" font-size="10.00">+</text>
<text text-anchor="start" x="17.5" y="-22" font-family="Helvetica,sans-Serif" font-size="10.00">UOWGA_Active_GunFire()</text>
<text text-anchor="start" x="4.5" y="-7" font-family="Helvetica,sans-Serif" font-size="10.00">+</text>
<text text-anchor="start" x="17.5" y="-7" font-family="Helvetica,sans-Serif" font-size="10.00">ActivateAbility()</text>
<polygon fill="#666666" stroke="#666666" points="0.5,-47 0.5,-47 147.5,-47 147.5,-47 0.5,-47"/>
<polygon fill="#666666" stroke="#666666" points="0.5,-32 0.5,-32 147.5,-32 147.5,-32 0.5,-32"/>
<polygon fill="none" stroke="#666666" points="0,0 0,-64 147,-64 147,0 0,0"/>
</a>
</g>
</g>
<!-- Node2 -->
<g id="Node000002" class="node">
<title>Node2</title>
<g id="a_Node000002"><a xlink:href="classUOWGA__Active.html" target="_top" xlink:title=" ">
<polygon fill="white" stroke="transparent" points="125.5,-149 21.5,-149 21.5,-100 125.5,-100 125.5,-149"/>
<text text-anchor="start" x="35.5" y="-136.5" font-family="Helvetica,sans-Serif" font-size="10.00">UOWGA_Active</text>
<text text-anchor="start" x="71.5" y="-121.5" font-family="Helvetica,sans-Serif" font-size="10.00"> </text>
<text text-anchor="start" x="25.5" y="-106.5" font-family="Helvetica,sans-Serif" font-size="10.00">+</text>
<text text-anchor="start" x="38.5" y="-106.5" font-family="Helvetica,sans-Serif" font-size="10.00">UOWGA_Active()</text>
<polygon fill="#bfbfbf" stroke="#bfbfbf" points="21.5,-131.5 21.5,-131.5 125.5,-131.5 125.5,-131.5 21.5,-131.5"/>
<polygon fill="#bfbfbf" stroke="#bfbfbf" points="21.5,-116.5 21.5,-116.5 125.5,-116.5 125.5,-116.5 21.5,-116.5"/>
<polygon fill="none" stroke="#bfbfbf" points="21.5,-100 21.5,-149 125.5,-149 125.5,-100 21.5,-100"/>
</a>
</g>
</g>
<!-- Node2&#45;&gt;Node1 -->
<g id="edge1_Node000001_Node000002" class="edge">
<title>Node2&#45;&gt;Node1</title>
<g id="a_edge1_Node000001_Node000002"><a xlink:title=" ">
<path fill="none" stroke="#63b8ff" d="M73.5,-89.54C73.5,-81.2 73.5,-72.31 73.5,-64.11"/>
<polygon fill="none" stroke="#63b8ff" points="70,-89.72 73.5,-99.72 77,-89.72 70,-89.72"/>
</a>
</g>
</g>
<!-- Node3 -->
<g id="Node000003" class="node">
<title>Node3</title>
<g id="a_Node000003"><a xlink:href="classUOWGameplayAbility.html" target="_top" xlink:title=" ">
<polygon fill="white" stroke="transparent" points="141.5,-324 5.5,-324 5.5,-185 141.5,-185 141.5,-324"/>
<text text-anchor="start" x="20" y="-311.5" font-family="Helvetica,sans-Serif" font-size="10.00">UOWGameplayAbility</text>
<text text-anchor="start" x="9.5" y="-296.5" font-family="Helvetica,sans-Serif" font-size="10.00">#</text>
<text text-anchor="start" x="22.5" y="-296.5" font-family="Helvetica,sans-Serif" font-size="10.00">CooldownDuration</text>
<text text-anchor="start" x="9.5" y="-281.5" font-family="Helvetica,sans-Serif" font-size="10.00">#</text>
<text text-anchor="start" x="22.5" y="-281.5" font-family="Helvetica,sans-Serif" font-size="10.00">CooldownTags</text>
<text text-anchor="start" x="9.5" y="-266.5" font-family="Helvetica,sans-Serif" font-size="10.00">+</text>
<text text-anchor="start" x="22.5" y="-266.5" font-family="Helvetica,sans-Serif" font-size="10.00">UOWGameplayAbility()</text>
<text text-anchor="start" x="9.5" y="-251.5" font-family="Helvetica,sans-Serif" font-size="10.00">+</text>
<text text-anchor="start" x="22.5" y="-251.5" font-family="Helvetica,sans-Serif" font-size="10.00">SetCooldownData()</text>
<text text-anchor="start" x="9.5" y="-236.5" font-family="Helvetica,sans-Serif" font-size="10.00">+</text>
<text text-anchor="start" x="22.5" y="-236.5" font-family="Helvetica,sans-Serif" font-size="10.00">SetCostEffect()</text>
<text text-anchor="start" x="9.5" y="-221.5" font-family="Helvetica,sans-Serif" font-size="10.00">+</text>
<text text-anchor="start" x="22.5" y="-221.5" font-family="Helvetica,sans-Serif" font-size="10.00">ApplyCooldown()</text>
<text text-anchor="start" x="9.5" y="-206.5" font-family="Helvetica,sans-Serif" font-size="10.00">+</text>
<text text-anchor="start" x="22.5" y="-206.5" font-family="Helvetica,sans-Serif" font-size="10.00">CanActivateAbility()</text>
<text text-anchor="start" x="9.5" y="-191.5" font-family="Helvetica,sans-Serif" font-size="10.00">+</text>
<text text-anchor="start" x="22.5" y="-191.5" font-family="Helvetica,sans-Serif" font-size="10.00">ActivateAbility()</text>
<polygon fill="#bfbfbf" stroke="#bfbfbf" points="5.5,-306.5 5.5,-306.5 141.5,-306.5 141.5,-306.5 5.5,-306.5"/>
<polygon fill="#bfbfbf" stroke="#bfbfbf" points="5.5,-276.5 5.5,-276.5 20.5,-276.5 20.5,-276.5 5.5,-276.5"/>
<polygon fill="#bfbfbf" stroke="#bfbfbf" points="20.5,-276.5 20.5,-276.5 141.5,-276.5 141.5,-276.5 20.5,-276.5"/>
<polygon fill="none" stroke="#bfbfbf" points="5.5,-185 5.5,-324 141.5,-324 141.5,-185 5.5,-185"/>
</a>
</g>
</g>
<!-- Node3&#45;&gt;Node2 -->
<g id="edge2_Node000002_Node000003" class="edge">
<title>Node3&#45;&gt;Node2</title>
<g id="a_edge2_Node000002_Node000003"><a xlink:title=" ">
<path fill="none" stroke="#63b8ff" d="M73.5,-174.54C73.5,-165.36 73.5,-156.62 73.5,-149.12"/>
<polygon fill="none" stroke="#63b8ff" points="70,-174.63 73.5,-184.63 77,-174.63 70,-174.63"/>
</a>
</g>
</g>
<!-- Node4 -->
<g id="Node000004" class="node">
<title>Node4</title>
<g id="a_Node000004"><a xlink:title=" ">
<polygon fill="white" stroke="transparent" points="123.5,-409 23.5,-409 23.5,-360 123.5,-360 123.5,-409"/>
<text text-anchor="start" x="28.5" y="-396.5" font-family="Helvetica,sans-Serif" font-size="10.00">UGameplayAbility</text>
<text text-anchor="start" x="71.5" y="-381.5" font-family="Helvetica,sans-Serif" font-size="10.00"> </text>
<text text-anchor="start" x="71.5" y="-366.5" font-family="Helvetica,sans-Serif" font-size="10.00"> </text>
<polygon fill="#bfbfbf" stroke="#bfbfbf" points="23.5,-391.5 23.5,-391.5 123.5,-391.5 123.5,-391.5 23.5,-391.5"/>
<polygon fill="#bfbfbf" stroke="#bfbfbf" points="23.5,-376.5 23.5,-376.5 123.5,-376.5 123.5,-376.5 23.5,-376.5"/>
<polygon fill="none" stroke="#bfbfbf" points="23.5,-360 23.5,-409 123.5,-409 123.5,-360 23.5,-360"/>
</a>
</g>
</g>
<!-- Node4&#45;&gt;Node3 -->
<g id="edge3_Node000003_Node000004" class="edge">
<title>Node4&#45;&gt;Node3</title>
<g id="a_edge3_Node000003_Node000004"><a xlink:title=" ">
<path fill="none" stroke="#63b8ff" d="M73.5,-349.48C73.5,-341.57 73.5,-332.86 73.5,-324.04"/>
<polygon fill="none" stroke="#63b8ff" points="70,-349.72 73.5,-359.72 77,-349.72 70,-349.72"/>
</a>
</g>
</g>
</g>
</svg>
