<?xml version="1.0" encoding="UTF-8" standalone="no"?>
<!DOCTYPE svg PUBLIC "-//W3C//DTD SVG 1.1//EN"
 "http://www.w3.org/Graphics/SVG/1.1/DTD/svg11.dtd">
<!-- Generated by graphviz version 2.43.0 (0)
 -->
<!-- Title: UOWGameplayAbility Pages: 1 -->
<svg width="825pt" height="652pt"
 viewBox="0.00 0.00 824.50 652.00" xmlns="http://www.w3.org/2000/svg" xmlns:xlink="http://www.w3.org/1999/xlink">
<g id="graph0" class="graph" transform="scale(1 1) rotate(0) translate(4 648)">
<title>UOWGameplayAbility</title>
<!-- Node1 -->
<g id="Node000001" class="node">
<title>Node1</title>
<g id="a_Node000001"><a xlink:title=" ">
<polygon fill="#999999" stroke="transparent" points="705,-559 568,-559 568,-405 705,-405 705,-559"/>
<text text-anchor="start" x="583.5" y="-547" font-family="Helvetica,sans-Serif" font-size="10.00">UOWGameplayAbility</text>
<text text-anchor="start" x="572.5" y="-532" font-family="Helvetica,sans-Serif" font-size="10.00">#</text>
<text text-anchor="start" x="585.5" y="-532" font-family="Helvetica,sans-Serif" font-size="10.00">CooldownDuration</text>
<text text-anchor="start" x="572.5" y="-517" font-family="Helvetica,sans-Serif" font-size="10.00">#</text>
<text text-anchor="start" x="585.5" y="-517" font-family="Helvetica,sans-Serif" font-size="10.00">CooldownTags</text>
<text text-anchor="start" x="572.5" y="-502" font-family="Helvetica,sans-Serif" font-size="10.00">#</text>
<text text-anchor="start" x="585.5" y="-502" font-family="Helvetica,sans-Serif" font-size="10.00">GameplayEffectClasses</text>
<text text-anchor="start" x="572.5" y="-487" font-family="Helvetica,sans-Serif" font-size="10.00">+</text>
<text text-anchor="start" x="585.5" y="-487" font-family="Helvetica,sans-Serif" font-size="10.00">UOWGameplayAbility()</text>
<text text-anchor="start" x="572.5" y="-472" font-family="Helvetica,sans-Serif" font-size="10.00">+</text>
<text text-anchor="start" x="585.5" y="-472" font-family="Helvetica,sans-Serif" font-size="10.00">SetCooldownData()</text>
<text text-anchor="start" x="572.5" y="-457" font-family="Helvetica,sans-Serif" font-size="10.00">+</text>
<text text-anchor="start" x="585.5" y="-457" font-family="Helvetica,sans-Serif" font-size="10.00">SetCostEffect()</text>
<text text-anchor="start" x="572.5" y="-442" font-family="Helvetica,sans-Serif" font-size="10.00">+</text>
<text text-anchor="start" x="585.5" y="-442" font-family="Helvetica,sans-Serif" font-size="10.00">ApplyCooldown()</text>
<text text-anchor="start" x="572.5" y="-427" font-family="Helvetica,sans-Serif" font-size="10.00">+</text>
<text text-anchor="start" x="585.5" y="-427" font-family="Helvetica,sans-Serif" font-size="10.00">CanActivateAbility()</text>
<text text-anchor="start" x="572.5" y="-412" font-family="Helvetica,sans-Serif" font-size="10.00">+</text>
<text text-anchor="start" x="585.5" y="-412" font-family="Helvetica,sans-Serif" font-size="10.00">ActivateAbility()</text>
<polygon fill="#666666" stroke="#666666" points="568.5,-542 568.5,-542 705.5,-542 705.5,-542 568.5,-542"/>
<polygon fill="#666666" stroke="#666666" points="568.5,-497 568.5,-497 583.5,-497 583.5,-497 568.5,-497"/>
<polygon fill="#666666" stroke="#666666" points="583.5,-497 583.5,-497 705.5,-497 705.5,-497 583.5,-497"/>
<polygon fill="none" stroke="#666666" points="568,-405 568,-559 705,-559 705,-405 568,-405"/>
</a>
</g>
</g>
<!-- Node3 -->
<g id="Node000003" class="node">
<title>Node3</title>
<g id="a_Node000003"><a xlink:href="classUOWGA__Active.html" target="_top" xlink:title=" ">
<polygon fill="white" stroke="transparent" points="499.5,-361.5 395.5,-361.5 395.5,-312.5 499.5,-312.5 499.5,-361.5"/>
<text text-anchor="start" x="409.5" y="-349" font-family="Helvetica,sans-Serif" font-size="10.00">UOWGA_Active</text>
<text text-anchor="start" x="445.5" y="-334" font-family="Helvetica,sans-Serif" font-size="10.00"> </text>
<text text-anchor="start" x="399.5" y="-319" font-family="Helvetica,sans-Serif" font-size="10.00">+</text>
<text text-anchor="start" x="412.5" y="-319" font-family="Helvetica,sans-Serif" font-size="10.00">UOWGA_Active()</text>
<polygon fill="#bfbfbf" stroke="#bfbfbf" points="395.5,-344 395.5,-344 499.5,-344 499.5,-344 395.5,-344"/>
<polygon fill="#bfbfbf" stroke="#bfbfbf" points="395.5,-329 395.5,-329 499.5,-329 499.5,-329 395.5,-329"/>
<polygon fill="none" stroke="#bfbfbf" points="395.5,-312.5 395.5,-361.5 499.5,-361.5 499.5,-312.5 395.5,-312.5"/>
</a>
</g>
</g>
<!-- Node1&#45;&gt;Node3 -->
<g id="edge2_Node000001_Node000003" class="edge">
<title>Node1&#45;&gt;Node3</title>
<g id="a_edge2_Node000001_Node000003"><a xlink:title=" ">
<path fill="none" stroke="#63b8ff" d="M559.71,-422.9C531.49,-401.55 501.08,-378.54 479.04,-361.86"/>
<polygon fill="none" stroke="#63b8ff" points="557.91,-425.93 568,-429.17 562.14,-420.35 557.91,-425.93"/>
</a>
</g>
</g>
<!-- Node10 -->
<g id="Node000010" class="node">
<title>Node10</title>
<g id="a_Node000010"><a xlink:href="classUOWGA__Passive.html" target="_top" xlink:title=" ">
<polygon fill="white" stroke="transparent" points="682.5,-361.5 590.5,-361.5 590.5,-312.5 682.5,-312.5 682.5,-361.5"/>
<text text-anchor="start" x="595.5" y="-349" font-family="Helvetica,sans-Serif" font-size="10.00">UOWGA_Passive</text>
<text text-anchor="start" x="634.5" y="-334" font-family="Helvetica,sans-Serif" font-size="10.00"> </text>
<text text-anchor="start" x="634.5" y="-319" font-family="Helvetica,sans-Serif" font-size="10.00"> </text>
<polygon fill="#bfbfbf" stroke="#bfbfbf" points="590.5,-344 590.5,-344 682.5,-344 682.5,-344 590.5,-344"/>
<polygon fill="#bfbfbf" stroke="#bfbfbf" points="590.5,-329 590.5,-329 682.5,-329 682.5,-329 590.5,-329"/>
<polygon fill="none" stroke="#bfbfbf" points="590.5,-312.5 590.5,-361.5 682.5,-361.5 682.5,-312.5 590.5,-312.5"/>
</a>
</g>
</g>
<!-- Node1&#45;&gt;Node10 -->
<g id="edge9_Node000001_Node000010" class="edge">
<title>Node1&#45;&gt;Node10</title>
<g id="a_edge9_Node000001_Node000010"><a xlink:title=" ">
<path fill="none" stroke="#63b8ff" d="M636.5,-394.64C636.5,-382.56 636.5,-371.07 636.5,-361.64"/>
<polygon fill="none" stroke="#63b8ff" points="633,-394.89 636.5,-404.89 640,-394.89 633,-394.89"/>
</a>
</g>
</g>
<!-- Node12 -->
<g id="Node000012" class="node">
<title>Node12</title>
<g id="a_Node000012"><a xlink:href="classUOWGA__Ultimate.html" target="_top" xlink:title=" ">
<polygon fill="white" stroke="transparent" points="816.5,-369 700.5,-369 700.5,-305 816.5,-305 816.5,-369"/>
<text text-anchor="start" x="714.5" y="-357" font-family="Helvetica,sans-Serif" font-size="10.00">UOWGA_Ultimate</text>
<text text-anchor="start" x="756.5" y="-342" font-family="Helvetica,sans-Serif" font-size="10.00"> </text>
<text text-anchor="start" x="704.5" y="-327" font-family="Helvetica,sans-Serif" font-size="10.00">+</text>
<text text-anchor="start" x="717.5" y="-327" font-family="Helvetica,sans-Serif" font-size="10.00">UOWGA_Ultimate()</text>
<text text-anchor="start" x="704.5" y="-312" font-family="Helvetica,sans-Serif" font-size="10.00">+</text>
<text text-anchor="start" x="717.5" y="-312" font-family="Helvetica,sans-Serif" font-size="10.00">ActivateAbility()</text>
<polygon fill="#666666" stroke="#666666" points="700.5,-352 700.5,-352 816.5,-352 816.5,-352 700.5,-352"/>
<polygon fill="#666666" stroke="#666666" points="700.5,-337 700.5,-337 816.5,-337 816.5,-337 700.5,-337"/>
<polygon fill="none" stroke="#666666" points="700.5,-305 700.5,-369 816.5,-369 816.5,-305 700.5,-305"/>
</a>
</g>
</g>
<!-- Node1&#45;&gt;Node12 -->
<g id="edge11_Node000001_Node000012" class="edge">
<title>Node1&#45;&gt;Node12</title>
<g id="a_edge11_Node000001_Node000012"><a xlink:title=" ">
<path fill="none" stroke="#63b8ff" d="M707.99,-397.21C716.5,-387.23 724.74,-377.57 732,-369.06"/>
<polygon fill="none" stroke="#63b8ff" points="705.26,-395.02 701.43,-404.89 710.58,-399.56 705.26,-395.02"/>
</a>
</g>
</g>
<!-- Node2 -->
<g id="Node000002" class="node">
<title>Node2</title>
<g id="a_Node000002"><a xlink:title=" ">
<polygon fill="white" stroke="transparent" points="686.5,-644 586.5,-644 586.5,-595 686.5,-595 686.5,-644"/>
<text text-anchor="start" x="591.5" y="-631.5" font-family="Helvetica,sans-Serif" font-size="10.00">UGameplayAbility</text>
<text text-anchor="start" x="634.5" y="-616.5" font-family="Helvetica,sans-Serif" font-size="10.00"> </text>
<text text-anchor="start" x="634.5" y="-601.5" font-family="Helvetica,sans-Serif" font-size="10.00"> </text>
<polygon fill="#bfbfbf" stroke="#bfbfbf" points="586.5,-626.5 586.5,-626.5 686.5,-626.5 686.5,-626.5 586.5,-626.5"/>
<polygon fill="#bfbfbf" stroke="#bfbfbf" points="586.5,-611.5 586.5,-611.5 686.5,-611.5 686.5,-611.5 586.5,-611.5"/>
<polygon fill="none" stroke="#bfbfbf" points="586.5,-595 586.5,-644 686.5,-644 686.5,-595 586.5,-595"/>
</a>
</g>
</g>
<!-- Node2&#45;&gt;Node1 -->
<g id="edge1_Node000001_Node000002" class="edge">
<title>Node2&#45;&gt;Node1</title>
<g id="a_edge1_Node000001_Node000002"><a xlink:title=" ">
<path fill="none" stroke="#63b8ff" d="M636.5,-584.66C636.5,-576.74 636.5,-567.97 636.5,-559.01"/>
<polygon fill="none" stroke="#63b8ff" points="633,-584.9 636.5,-594.9 640,-584.9 633,-584.9"/>
</a>
</g>
</g>
<!-- Node4 -->
<g id="Node000004" class="node">
<title>Node4</title>
<g id="a_Node000004"><a xlink:href="classUOWGA__Active__GunFire.html" target="_top" xlink:title=" ">
<polygon fill="white" stroke="transparent" points="218,-254 71,-254 71,-175 218,-175 218,-254"/>
<text text-anchor="start" x="86" y="-241.5" font-family="Helvetica,sans-Serif" font-size="10.00">UOWGA_Active_GunFire</text>
<text text-anchor="start" x="75.5" y="-226.5" font-family="Helvetica,sans-Serif" font-size="10.00">#</text>
<text text-anchor="start" x="88.5" y="-226.5" font-family="Helvetica,sans-Serif" font-size="10.00">WeaponComp</text>
<text text-anchor="start" x="75.5" y="-211.5" font-family="Helvetica,sans-Serif" font-size="10.00">+</text>
<text text-anchor="start" x="88.5" y="-211.5" font-family="Helvetica,sans-Serif" font-size="10.00">UOWGA_Active_GunFire()</text>
<text text-anchor="start" x="75.5" y="-196.5" font-family="Helvetica,sans-Serif" font-size="10.00">+</text>
<text text-anchor="start" x="88.5" y="-196.5" font-family="Helvetica,sans-Serif" font-size="10.00">ActivateAbility()</text>
<text text-anchor="start" x="75.5" y="-181.5" font-family="Helvetica,sans-Serif" font-size="10.00">+</text>
<text text-anchor="start" x="88.5" y="-181.5" font-family="Helvetica,sans-Serif" font-size="10.00">Shoot()</text>
<polygon fill="#bfbfbf" stroke="#bfbfbf" points="71.5,-236.5 71.5,-236.5 218.5,-236.5 218.5,-236.5 71.5,-236.5"/>
<polygon fill="#bfbfbf" stroke="#bfbfbf" points="71.5,-221.5 71.5,-221.5 86.5,-221.5 86.5,-221.5 71.5,-221.5"/>
<polygon fill="#bfbfbf" stroke="#bfbfbf" points="86.5,-221.5 86.5,-221.5 218.5,-221.5 218.5,-221.5 86.5,-221.5"/>
<polygon fill="none" stroke="#bfbfbf" points="71,-175 71,-254 218,-254 218,-175 71,-175"/>
</a>
</g>
</g>
<!-- Node3&#45;&gt;Node4 -->
<g id="edge3_Node000003_Node000004" class="edge">
<title>Node3&#45;&gt;Node4</title>
<g id="a_edge3_Node000003_Node000004"><a xlink:title=" ">
<path fill="none" stroke="#63b8ff" d="M385.09,-322.12C339.85,-310.86 277.85,-292.94 226.5,-269 217.41,-264.76 208.15,-259.64 199.29,-254.26"/>
<polygon fill="none" stroke="#63b8ff" points="384.52,-325.58 395.06,-324.56 386.18,-318.78 384.52,-325.58"/>
</a>
</g>
</g>
<!-- Node7 -->
<g id="Node000007" class="node">
<title>Node7</title>
<g id="a_Node000007"><a xlink:href="classUOWGA__CyberAgility.html" target="_top" xlink:title=" ">
<polygon fill="white" stroke="transparent" points="369,-261.5 236,-261.5 236,-167.5 369,-167.5 369,-261.5"/>
<text text-anchor="start" x="250.5" y="-249.5" font-family="Helvetica,sans-Serif" font-size="10.00">UOWGA_CyberAgility</text>
<text text-anchor="start" x="240.5" y="-234.5" font-family="Helvetica,sans-Serif" font-size="10.00">#</text>
<text text-anchor="start" x="253.5" y="-234.5" font-family="Helvetica,sans-Serif" font-size="10.00">DoubleJumpStrength</text>
<text text-anchor="start" x="240.5" y="-219.5" font-family="Helvetica,sans-Serif" font-size="10.00">#</text>
<text text-anchor="start" x="253.5" y="-219.5" font-family="Helvetica,sans-Serif" font-size="10.00">bDoubleJumpUsed</text>
<text text-anchor="start" x="240.5" y="-204.5" font-family="Helvetica,sans-Serif" font-size="10.00">+</text>
<text text-anchor="start" x="253.5" y="-204.5" font-family="Helvetica,sans-Serif" font-size="10.00">UOWGA_CyberAgility()</text>
<text text-anchor="start" x="240.5" y="-189.5" font-family="Helvetica,sans-Serif" font-size="10.00">+</text>
<text text-anchor="start" x="253.5" y="-189.5" font-family="Helvetica,sans-Serif" font-size="10.00">ActivateAbility()</text>
<text text-anchor="start" x="240.5" y="-174.5" font-family="Helvetica,sans-Serif" font-size="10.00">#</text>
<text text-anchor="start" x="253.5" y="-174.5" font-family="Helvetica,sans-Serif" font-size="10.00">OnLanded()</text>
<polygon fill="#bfbfbf" stroke="#bfbfbf" points="236.5,-244.5 236.5,-244.5 369.5,-244.5 369.5,-244.5 236.5,-244.5"/>
<polygon fill="#bfbfbf" stroke="#bfbfbf" points="236.5,-214.5 236.5,-214.5 251.5,-214.5 251.5,-214.5 236.5,-214.5"/>
<polygon fill="#bfbfbf" stroke="#bfbfbf" points="251.5,-214.5 251.5,-214.5 369.5,-214.5 369.5,-214.5 251.5,-214.5"/>
<polygon fill="none" stroke="#bfbfbf" points="236,-167.5 236,-261.5 369,-261.5 369,-167.5 236,-167.5"/>
</a>
</g>
</g>
<!-- Node3&#45;&gt;Node7 -->
<g id="edge6_Node000003_Node000007" class="edge">
<title>Node3&#45;&gt;Node7</title>
<g id="a_edge6_Node000003_Node000007"><a xlink:title=" ">
<path fill="none" stroke="#63b8ff" d="M411.12,-305.76C395.06,-292.42 375.83,-276.44 358.04,-261.66"/>
<polygon fill="none" stroke="#63b8ff" points="409.27,-308.78 419.2,-312.48 413.74,-303.4 409.27,-308.78"/>
</a>
</g>
</g>
<!-- Node8 -->
<g id="Node000008" class="node">
<title>Node8</title>
<g id="a_Node000008"><a xlink:href="classUOWGA__Deflect.html" target="_top" xlink:title=" ">
<polygon fill="white" stroke="transparent" points="507.5,-269 387.5,-269 387.5,-160 507.5,-160 507.5,-269"/>
<text text-anchor="start" x="408" y="-256.5" font-family="Helvetica,sans-Serif" font-size="10.00">UOWGA_Deflect</text>
<text text-anchor="start" x="391.5" y="-241.5" font-family="Helvetica,sans-Serif" font-size="10.00">#</text>
<text text-anchor="start" x="404.5" y="-241.5" font-family="Helvetica,sans-Serif" font-size="10.00">DeflectTimerHandle</text>
<text text-anchor="start" x="391.5" y="-226.5" font-family="Helvetica,sans-Serif" font-size="10.00">#</text>
<text text-anchor="start" x="404.5" y="-226.5" font-family="Helvetica,sans-Serif" font-size="10.00">DeflectDuration</text>
<text text-anchor="start" x="391.5" y="-211.5" font-family="Helvetica,sans-Serif" font-size="10.00">+</text>
<text text-anchor="start" x="404.5" y="-211.5" font-family="Helvetica,sans-Serif" font-size="10.00">CanActivateAbility()</text>
<text text-anchor="start" x="391.5" y="-196.5" font-family="Helvetica,sans-Serif" font-size="10.00">+</text>
<text text-anchor="start" x="404.5" y="-196.5" font-family="Helvetica,sans-Serif" font-size="10.00">ActivateAbility()</text>
<text text-anchor="start" x="391.5" y="-181.5" font-family="Helvetica,sans-Serif" font-size="10.00">+</text>
<text text-anchor="start" x="404.5" y="-181.5" font-family="Helvetica,sans-Serif" font-size="10.00">EndAbility()</text>
<text text-anchor="start" x="391.5" y="-166.5" font-family="Helvetica,sans-Serif" font-size="10.00">#</text>
<text text-anchor="start" x="404.5" y="-166.5" font-family="Helvetica,sans-Serif" font-size="10.00">OnDeflectEnd()</text>
<polygon fill="#bfbfbf" stroke="#bfbfbf" points="387.5,-251.5 387.5,-251.5 507.5,-251.5 507.5,-251.5 387.5,-251.5"/>
<polygon fill="#bfbfbf" stroke="#bfbfbf" points="387.5,-221.5 387.5,-221.5 402.5,-221.5 402.5,-221.5 387.5,-221.5"/>
<polygon fill="#bfbfbf" stroke="#bfbfbf" points="402.5,-221.5 402.5,-221.5 507.5,-221.5 507.5,-221.5 402.5,-221.5"/>
<polygon fill="none" stroke="#bfbfbf" points="387.5,-160 387.5,-269 507.5,-269 507.5,-160 387.5,-160"/>
</a>
</g>
</g>
<!-- Node3&#45;&gt;Node8 -->
<g id="edge7_Node000003_Node000008" class="edge">
<title>Node3&#45;&gt;Node8</title>
<g id="a_edge7_Node000003_Node000008"><a xlink:title=" ">
<path fill="none" stroke="#63b8ff" d="M447.5,-302.29C447.5,-292 447.5,-280.42 447.5,-269.15"/>
<polygon fill="none" stroke="#63b8ff" points="444,-302.48 447.5,-312.48 451,-302.48 444,-302.48"/>
</a>
</g>
</g>
<!-- Node9 -->
<g id="Node000009" class="node">
<title>Node9</title>
<g id="a_Node000009"><a xlink:href="classUOWGA__FastZoom.html" target="_top" xlink:title=" ">
<polygon fill="white" stroke="transparent" points="629,-246.5 526,-246.5 526,-182.5 629,-182.5 629,-246.5"/>
<text text-anchor="start" x="531.5" y="-234.5" font-family="Helvetica,sans-Serif" font-size="10.00">UOWGA_FastZoom</text>
<text text-anchor="start" x="531" y="-219.5" font-family="Helvetica,sans-Serif" font-size="10.00">#</text>
<text text-anchor="start" x="544.5" y="-219.5" font-family="Helvetica,sans-Serif" font-size="10.00">ZoomFOV</text>
<text text-anchor="start" x="531" y="-204.5" font-family="Helvetica,sans-Serif" font-size="10.00">+</text>
<text text-anchor="start" x="544.5" y="-204.5" font-family="Helvetica,sans-Serif" font-size="10.00">ActivateAbility()</text>
<text text-anchor="start" x="531" y="-189.5" font-family="Helvetica,sans-Serif" font-size="10.00">+</text>
<text text-anchor="start" x="544.5" y="-189.5" font-family="Helvetica,sans-Serif" font-size="10.00">EndAbility()</text>
<polygon fill="#bfbfbf" stroke="#bfbfbf" points="526.5,-229.5 526.5,-229.5 629.5,-229.5 629.5,-229.5 526.5,-229.5"/>
<polygon fill="#bfbfbf" stroke="#bfbfbf" points="526.5,-214.5 526.5,-214.5 542.5,-214.5 542.5,-214.5 526.5,-214.5"/>
<polygon fill="#bfbfbf" stroke="#bfbfbf" points="542.5,-214.5 542.5,-214.5 629.5,-214.5 629.5,-214.5 542.5,-214.5"/>
<polygon fill="none" stroke="#bfbfbf" points="526,-182.5 526,-246.5 629,-246.5 629,-182.5 526,-182.5"/>
</a>
</g>
</g>
<!-- Node3&#45;&gt;Node9 -->
<g id="edge8_Node000003_Node000009" class="edge">
<title>Node3&#45;&gt;Node9</title>
<g id="a_edge8_Node000003_Node000009"><a xlink:title=" ">
<path fill="none" stroke="#63b8ff" d="M480.31,-305.59C499.72,-287.59 524.26,-264.85 543.82,-246.72"/>
<polygon fill="none" stroke="#63b8ff" points="477.83,-303.12 472.87,-312.48 482.59,-308.25 477.83,-303.12"/>
</a>
</g>
</g>
<!-- Node5 -->
<g id="Node000005" class="node">
<title>Node5</title>
<g id="a_Node000005"><a xlink:href="classUOWGA__ShurikenMain.html" target="_top" xlink:title=" ">
<polygon fill="white" stroke="transparent" points="139,-124 0,-124 0,0 139,0 139,-124"/>
<text text-anchor="start" x="14.5" y="-112" font-family="Helvetica,sans-Serif" font-size="10.00">UOWGA_ShurikenMain</text>
<text text-anchor="start" x="68" y="-97" font-family="Helvetica,sans-Serif" font-size="10.00"> </text>
<text text-anchor="start" x="4.5" y="-82" font-family="Helvetica,sans-Serif" font-size="10.00">+</text>
<text text-anchor="start" x="17.5" y="-82" font-family="Helvetica,sans-Serif" font-size="10.00">UOWGA_ShurikenMain()</text>
<text text-anchor="start" x="4.5" y="-67" font-family="Helvetica,sans-Serif" font-size="10.00">+</text>
<text text-anchor="start" x="17.5" y="-67" font-family="Helvetica,sans-Serif" font-size="10.00">SetCurrentMontage()</text>
<text text-anchor="start" x="4.5" y="-52" font-family="Helvetica,sans-Serif" font-size="10.00">+</text>
<text text-anchor="start" x="17.5" y="-52" font-family="Helvetica,sans-Serif" font-size="10.00">CanActivateAbility()</text>
<text text-anchor="start" x="4.5" y="-37" font-family="Helvetica,sans-Serif" font-size="10.00">+</text>
<text text-anchor="start" x="17.5" y="-37" font-family="Helvetica,sans-Serif" font-size="10.00">ActivateAbility()</text>
<text text-anchor="start" x="4.5" y="-22" font-family="Helvetica,sans-Serif" font-size="10.00">+</text>
<text text-anchor="start" x="17.5" y="-22" font-family="Helvetica,sans-Serif" font-size="10.00">EndAbility()</text>
<text text-anchor="start" x="4.5" y="-7" font-family="Helvetica,sans-Serif" font-size="10.00">+</text>
<text text-anchor="start" x="17.5" y="-7" font-family="Helvetica,sans-Serif" font-size="10.00">ShurikenMain()</text>
<polygon fill="#bfbfbf" stroke="#bfbfbf" points="0.5,-107 0.5,-107 139.5,-107 139.5,-107 0.5,-107"/>
<polygon fill="#bfbfbf" stroke="#bfbfbf" points="0.5,-92 0.5,-92 139.5,-92 139.5,-92 0.5,-92"/>
<polygon fill="none" stroke="#bfbfbf" points="0,0 0,-124 139,-124 139,0 0,0"/>
</a>
</g>
</g>
<!-- Node4&#45;&gt;Node5 -->
<g id="edge4_Node000004_Node000005" class="edge">
<title>Node4&#45;&gt;Node5</title>
<g id="a_edge4_Node000004_Node000005"><a xlink:title=" ">
<path fill="none" stroke="#63b8ff" d="M120.54,-165.43C114,-152.29 106.81,-137.88 99.96,-124.11"/>
<polygon fill="none" stroke="#63b8ff" points="117.59,-167.35 125.19,-174.74 123.86,-164.23 117.59,-167.35"/>
</a>
</g>
</g>
<!-- Node6 -->
<g id="Node000006" class="node">
<title>Node6</title>
<g id="a_Node000006"><a xlink:href="classUOWGA__ShurikenSub.html" target="_top" xlink:title=" ">
<polygon fill="white" stroke="transparent" points="281.5,-124 157.5,-124 157.5,0 281.5,0 281.5,-124"/>
<text text-anchor="start" x="167" y="-112" font-family="Helvetica,sans-Serif" font-size="10.00">UOWGA_ShurikenSub</text>
<text text-anchor="start" x="217.5" y="-97" font-family="Helvetica,sans-Serif" font-size="10.00"> </text>
<text text-anchor="start" x="161.5" y="-82" font-family="Helvetica,sans-Serif" font-size="10.00">+</text>
<text text-anchor="start" x="174.5" y="-82" font-family="Helvetica,sans-Serif" font-size="10.00">SetCurrentMontage()</text>
<text text-anchor="start" x="161.5" y="-67" font-family="Helvetica,sans-Serif" font-size="10.00">+</text>
<text text-anchor="start" x="174.5" y="-67" font-family="Helvetica,sans-Serif" font-size="10.00">CanActivateAbility()</text>
<text text-anchor="start" x="161.5" y="-52" font-family="Helvetica,sans-Serif" font-size="10.00">+</text>
<text text-anchor="start" x="174.5" y="-52" font-family="Helvetica,sans-Serif" font-size="10.00">ActivateAbility()</text>
<text text-anchor="start" x="161.5" y="-37" font-family="Helvetica,sans-Serif" font-size="10.00">+</text>
<text text-anchor="start" x="174.5" y="-37" font-family="Helvetica,sans-Serif" font-size="10.00">EndAbility()</text>
<text text-anchor="start" x="161.5" y="-22" font-family="Helvetica,sans-Serif" font-size="10.00">+</text>
<text text-anchor="start" x="174.5" y="-22" font-family="Helvetica,sans-Serif" font-size="10.00">ShurikenSub()</text>
<text text-anchor="start" x="161.5" y="-7" font-family="Helvetica,sans-Serif" font-size="10.00">+</text>
<text text-anchor="start" x="174.5" y="-7" font-family="Helvetica,sans-Serif" font-size="10.00">SpawnProjectile()</text>
<polygon fill="#bfbfbf" stroke="#bfbfbf" points="157.5,-107 157.5,-107 281.5,-107 281.5,-107 157.5,-107"/>
<polygon fill="#bfbfbf" stroke="#bfbfbf" points="157.5,-92 157.5,-92 281.5,-92 281.5,-92 157.5,-92"/>
<polygon fill="none" stroke="#bfbfbf" points="157.5,0 157.5,-124 281.5,-124 281.5,0 157.5,0"/>
</a>
</g>
</g>
<!-- Node4&#45;&gt;Node6 -->
<g id="edge5_Node000004_Node000006" class="edge">
<title>Node4&#45;&gt;Node6</title>
<g id="a_edge5_Node000004_Node000006"><a xlink:title=" ">
<path fill="none" stroke="#63b8ff" d="M168.46,-165.43C175,-152.29 182.19,-137.88 189.04,-124.11"/>
<polygon fill="none" stroke="#63b8ff" points="165.14,-164.23 163.81,-174.74 171.41,-167.35 165.14,-164.23"/>
</a>
</g>
</g>
<!-- Node11 -->
<g id="Node000011" class="node">
<title>Node11</title>
<g id="a_Node000011"><a xlink:href="classUOWGA__Reload.html" target="_top" xlink:title=" ">
<polygon fill="white" stroke="transparent" points="771.5,-269 647.5,-269 647.5,-160 771.5,-160 771.5,-269"/>
<text text-anchor="start" x="670" y="-256.5" font-family="Helvetica,sans-Serif" font-size="10.00">UOWGA_Reload</text>
<text text-anchor="start" x="707.5" y="-241.5" font-family="Helvetica,sans-Serif" font-size="10.00"> </text>
<text text-anchor="start" x="651.5" y="-226.5" font-family="Helvetica,sans-Serif" font-size="10.00">+</text>
<text text-anchor="start" x="664.5" y="-226.5" font-family="Helvetica,sans-Serif" font-size="10.00">SetCurrentMontage()</text>
<text text-anchor="start" x="651.5" y="-211.5" font-family="Helvetica,sans-Serif" font-size="10.00">+</text>
<text text-anchor="start" x="664.5" y="-211.5" font-family="Helvetica,sans-Serif" font-size="10.00">CanActivateAbility()</text>
<text text-anchor="start" x="651.5" y="-196.5" font-family="Helvetica,sans-Serif" font-size="10.00">+</text>
<text text-anchor="start" x="664.5" y="-196.5" font-family="Helvetica,sans-Serif" font-size="10.00">ActivateAbility()</text>
<text text-anchor="start" x="651.5" y="-181.5" font-family="Helvetica,sans-Serif" font-size="10.00">+</text>
<text text-anchor="start" x="664.5" y="-181.5" font-family="Helvetica,sans-Serif" font-size="10.00">EndAbility()</text>
<text text-anchor="start" x="651.5" y="-166.5" font-family="Helvetica,sans-Serif" font-size="10.00">+</text>
<text text-anchor="start" x="664.5" y="-166.5" font-family="Helvetica,sans-Serif" font-size="10.00">Reload()</text>
<polygon fill="#bfbfbf" stroke="#bfbfbf" points="647.5,-251.5 647.5,-251.5 771.5,-251.5 771.5,-251.5 647.5,-251.5"/>
<polygon fill="#bfbfbf" stroke="#bfbfbf" points="647.5,-236.5 647.5,-236.5 771.5,-236.5 771.5,-236.5 647.5,-236.5"/>
<polygon fill="none" stroke="#bfbfbf" points="647.5,-160 647.5,-269 771.5,-269 771.5,-160 647.5,-160"/>
</a>
</g>
</g>
<!-- Node10&#45;&gt;Node11 -->
<g id="edge10_Node000010_Node000011" class="edge">
<title>Node10&#45;&gt;Node11</title>
<g id="a_edge10_Node000010_Node000011"><a xlink:title=" ">
<path fill="none" stroke="#63b8ff" d="M655.94,-303.9C662.42,-293.22 669.81,-281.01 677,-269.15"/>
<polygon fill="none" stroke="#63b8ff" points="652.94,-302.11 650.75,-312.48 658.92,-305.74 652.94,-302.11"/>
</a>
</g>
</g>
</g>
</svg>
