<?xml version="1.0" encoding="UTF-8" standalone="no"?>
<!DOCTYPE svg PUBLIC "-//W3C//DTD SVG 1.1//EN"
 "http://www.w3.org/Graphics/SVG/1.1/DTD/svg11.dtd">
<!-- Generated by graphviz version 2.43.0 (0)
 -->
<!-- Title: UOWGameplayAbility Pages: 1 -->
<svg width="604pt" height="727pt"
 viewBox="0.00 0.00 603.50 727.00" xmlns="http://www.w3.org/2000/svg" xmlns:xlink="http://www.w3.org/1999/xlink">
<g id="graph0" class="graph" transform="scale(1 1) rotate(0) translate(4 723)">
<title>UOWGameplayAbility</title>
<!-- Node1 -->
<g id="Node000001" class="node">
<title>Node1</title>
<g id="a_Node000001"><a xlink:title=" ">
<polygon fill="#999999" stroke="transparent" points="483.5,-634 347.5,-634 347.5,-585 483.5,-585 483.5,-634"/>
<text text-anchor="start" x="362" y="-621.5" font-family="Helvetica,sans-Serif" font-size="10.00">UOWGameplayAbility</text>
<text text-anchor="start" x="413.5" y="-606.5" font-family="Helvetica,sans-Serif" font-size="10.00"> </text>
<text text-anchor="start" x="351.5" y="-591.5" font-family="Helvetica,sans-Serif" font-size="10.00">+</text>
<text text-anchor="start" x="364.5" y="-591.5" font-family="Helvetica,sans-Serif" font-size="10.00">UOWGameplayAbility()</text>
<polygon fill="#666666" stroke="#666666" points="347.5,-616.5 347.5,-616.5 483.5,-616.5 483.5,-616.5 347.5,-616.5"/>
<polygon fill="#666666" stroke="#666666" points="347.5,-601.5 347.5,-601.5 483.5,-601.5 483.5,-601.5 347.5,-601.5"/>
<polygon fill="none" stroke="#666666" points="347.5,-585 347.5,-634 483.5,-634 483.5,-585 347.5,-585"/>
</a>
</g>
</g>
<!-- Node3 -->
<g id="Node000003" class="node">
<title>Node3</title>
<g id="a_Node000003"><a xlink:href="classUOWGA__Active.html" target="_top" xlink:title=" ">
<polygon fill="white" stroke="transparent" points="347.5,-549 227.5,-549 227.5,-425 347.5,-425 347.5,-549"/>
<text text-anchor="start" x="249.5" y="-537" font-family="Helvetica,sans-Serif" font-size="10.00">UOWGA_Active</text>
<text text-anchor="start" x="231.5" y="-522" font-family="Helvetica,sans-Serif" font-size="10.00">#</text>
<text text-anchor="start" x="244.5" y="-522" font-family="Helvetica,sans-Serif" font-size="10.00">CooldownDuration</text>
<text text-anchor="start" x="231.5" y="-507" font-family="Helvetica,sans-Serif" font-size="10.00">#</text>
<text text-anchor="start" x="244.5" y="-507" font-family="Helvetica,sans-Serif" font-size="10.00">CooldownTags</text>
<text text-anchor="start" x="231.5" y="-492" font-family="Helvetica,sans-Serif" font-size="10.00">+</text>
<text text-anchor="start" x="244.5" y="-492" font-family="Helvetica,sans-Serif" font-size="10.00">UOWGA_Active()</text>
<text text-anchor="start" x="231.5" y="-477" font-family="Helvetica,sans-Serif" font-size="10.00">+</text>
<text text-anchor="start" x="244.5" y="-477" font-family="Helvetica,sans-Serif" font-size="10.00">SetCooldownData()</text>
<text text-anchor="start" x="231.5" y="-462" font-family="Helvetica,sans-Serif" font-size="10.00">+</text>
<text text-anchor="start" x="244.5" y="-462" font-family="Helvetica,sans-Serif" font-size="10.00">ActivateAbility()</text>
<text text-anchor="start" x="231.5" y="-447" font-family="Helvetica,sans-Serif" font-size="10.00">+</text>
<text text-anchor="start" x="244.5" y="-447" font-family="Helvetica,sans-Serif" font-size="10.00">ApplyCooldown()</text>
<text text-anchor="start" x="231.5" y="-432" font-family="Helvetica,sans-Serif" font-size="10.00">+</text>
<text text-anchor="start" x="244.5" y="-432" font-family="Helvetica,sans-Serif" font-size="10.00">CanActivateAbility()</text>
<polygon fill="#666666" stroke="#666666" points="227.5,-532 227.5,-532 347.5,-532 347.5,-532 227.5,-532"/>
<polygon fill="#666666" stroke="#666666" points="227.5,-502 227.5,-502 242.5,-502 242.5,-502 227.5,-502"/>
<polygon fill="#666666" stroke="#666666" points="242.5,-502 242.5,-502 347.5,-502 347.5,-502 242.5,-502"/>
<polygon fill="none" stroke="#666666" points="227.5,-425 227.5,-549 347.5,-549 347.5,-425 227.5,-425"/>
</a>
</g>
</g>
<!-- Node1&#45;&gt;Node3 -->
<g id="edge2_Node000001_Node000003" class="edge">
<title>Node1&#45;&gt;Node3</title>
<g id="a_edge2_Node000001_Node000003"><a xlink:title=" ">
<path fill="none" stroke="#63b8ff" d="M382.98,-577.89C372.22,-567.75 359.87,-556.13 347.7,-544.67"/>
<polygon fill="none" stroke="#63b8ff" points="380.84,-580.67 390.52,-584.98 385.63,-575.58 380.84,-580.67"/>
</a>
</g>
</g>
<!-- Node8 -->
<g id="Node000008" class="node">
<title>Node8</title>
<g id="a_Node000008"><a xlink:href="classUOWGA__Passive.html" target="_top" xlink:title=" ">
<polygon fill="white" stroke="transparent" points="461.5,-511.5 369.5,-511.5 369.5,-462.5 461.5,-462.5 461.5,-511.5"/>
<text text-anchor="start" x="374.5" y="-499" font-family="Helvetica,sans-Serif" font-size="10.00">UOWGA_Passive</text>
<text text-anchor="start" x="413.5" y="-484" font-family="Helvetica,sans-Serif" font-size="10.00"> </text>
<text text-anchor="start" x="413.5" y="-469" font-family="Helvetica,sans-Serif" font-size="10.00"> </text>
<polygon fill="#bfbfbf" stroke="#bfbfbf" points="369.5,-494 369.5,-494 461.5,-494 461.5,-494 369.5,-494"/>
<polygon fill="#bfbfbf" stroke="#bfbfbf" points="369.5,-479 369.5,-479 461.5,-479 461.5,-479 369.5,-479"/>
<polygon fill="none" stroke="#bfbfbf" points="369.5,-462.5 369.5,-511.5 461.5,-511.5 461.5,-462.5 369.5,-462.5"/>
</a>
</g>
</g>
<!-- Node1&#45;&gt;Node8 -->
<g id="edge7_Node000001_Node000008" class="edge">
<title>Node1&#45;&gt;Node8</title>
<g id="a_edge7_Node000001_Node000008"><a xlink:title=" ">
<path fill="none" stroke="#63b8ff" d="M415.5,-574.73C415.5,-554.72 415.5,-529.84 415.5,-511.87"/>
<polygon fill="none" stroke="#63b8ff" points="412,-574.98 415.5,-584.98 419,-574.98 412,-574.98"/>
</a>
</g>
</g>
<!-- Node10 -->
<g id="Node000010" class="node">
<title>Node10</title>
<g id="a_Node000010"><a xlink:href="classUOWGA__Ultimate.html" target="_top" xlink:title=" ">
<polygon fill="white" stroke="transparent" points="595.5,-534 479.5,-534 479.5,-440 595.5,-440 595.5,-534"/>
<text text-anchor="start" x="493.5" y="-522" font-family="Helvetica,sans-Serif" font-size="10.00">UOWGA_Ultimate</text>
<text text-anchor="start" x="483.5" y="-507" font-family="Helvetica,sans-Serif" font-size="10.00">#</text>
<text text-anchor="start" x="496.5" y="-507" font-family="Helvetica,sans-Serif" font-size="10.00">UltCost</text>
<text text-anchor="start" x="483.5" y="-492" font-family="Helvetica,sans-Serif" font-size="10.00">+</text>
<text text-anchor="start" x="496.5" y="-492" font-family="Helvetica,sans-Serif" font-size="10.00">UOWGA_Ultimate()</text>
<text text-anchor="start" x="483.5" y="-477" font-family="Helvetica,sans-Serif" font-size="10.00">+</text>
<text text-anchor="start" x="496.5" y="-477" font-family="Helvetica,sans-Serif" font-size="10.00">CheckCost()</text>
<text text-anchor="start" x="483.5" y="-462" font-family="Helvetica,sans-Serif" font-size="10.00">+</text>
<text text-anchor="start" x="496.5" y="-462" font-family="Helvetica,sans-Serif" font-size="10.00">ApplyCost()</text>
<text text-anchor="start" x="483.5" y="-447" font-family="Helvetica,sans-Serif" font-size="10.00">+</text>
<text text-anchor="start" x="496.5" y="-447" font-family="Helvetica,sans-Serif" font-size="10.00">ActivateAbility()</text>
<polygon fill="#666666" stroke="#666666" points="479.5,-517 479.5,-517 595.5,-517 595.5,-517 479.5,-517"/>
<polygon fill="#666666" stroke="#666666" points="479.5,-502 479.5,-502 494.5,-502 494.5,-502 479.5,-502"/>
<polygon fill="#666666" stroke="#666666" points="494.5,-502 494.5,-502 595.5,-502 595.5,-502 494.5,-502"/>
<polygon fill="none" stroke="#666666" points="479.5,-440 479.5,-534 595.5,-534 595.5,-440 479.5,-440"/>
</a>
</g>
</g>
<!-- Node1&#45;&gt;Node10 -->
<g id="edge9_Node000001_Node000010" class="edge">
<title>Node1&#45;&gt;Node10</title>
<g id="a_edge9_Node000001_Node000010"><a xlink:title=" ">
<path fill="none" stroke="#63b8ff" d="M446.45,-577.93C459.81,-564.73 475.74,-549 490.52,-534.41"/>
<polygon fill="none" stroke="#63b8ff" points="443.97,-575.46 439.31,-584.98 448.89,-580.44 443.97,-575.46"/>
</a>
</g>
</g>
<!-- Node2 -->
<g id="Node000002" class="node">
<title>Node2</title>
<g id="a_Node000002"><a xlink:title=" ">
<polygon fill="white" stroke="transparent" points="465.5,-719 365.5,-719 365.5,-670 465.5,-670 465.5,-719"/>
<text text-anchor="start" x="370.5" y="-706.5" font-family="Helvetica,sans-Serif" font-size="10.00">UGameplayAbility</text>
<text text-anchor="start" x="413.5" y="-691.5" font-family="Helvetica,sans-Serif" font-size="10.00"> </text>
<text text-anchor="start" x="413.5" y="-676.5" font-family="Helvetica,sans-Serif" font-size="10.00"> </text>
<polygon fill="#bfbfbf" stroke="#bfbfbf" points="365.5,-701.5 365.5,-701.5 465.5,-701.5 465.5,-701.5 365.5,-701.5"/>
<polygon fill="#bfbfbf" stroke="#bfbfbf" points="365.5,-686.5 365.5,-686.5 465.5,-686.5 465.5,-686.5 365.5,-686.5"/>
<polygon fill="none" stroke="#bfbfbf" points="365.5,-670 365.5,-719 465.5,-719 465.5,-670 365.5,-670"/>
</a>
</g>
</g>
<!-- Node2&#45;&gt;Node1 -->
<g id="edge1_Node000001_Node000002" class="edge">
<title>Node2&#45;&gt;Node1</title>
<g id="a_edge1_Node000001_Node000002"><a xlink:title=" ">
<path fill="none" stroke="#63b8ff" d="M415.5,-659.77C415.5,-651.17 415.5,-642.1 415.5,-634.12"/>
<polygon fill="none" stroke="#63b8ff" points="412,-659.94 415.5,-669.94 419,-659.94 412,-659.94"/>
</a>
</g>
</g>
<!-- Node4 -->
<g id="Node000004" class="node">
<title>Node4</title>
<g id="a_Node000004"><a xlink:href="classUOWGA__Active__GunFire.html" target="_top" xlink:title=" ">
<polygon fill="white" stroke="transparent" points="218,-389 71,-389 71,-205 218,-205 218,-389"/>
<text text-anchor="start" x="86" y="-377" font-family="Helvetica,sans-Serif" font-size="10.00">UOWGA_Active_GunFire</text>
<text text-anchor="start" x="75.5" y="-362" font-family="Helvetica,sans-Serif" font-size="10.00">+</text>
<text text-anchor="start" x="88.5" y="-362" font-family="Helvetica,sans-Serif" font-size="10.00">FireProjectilepMontage</text>
<text text-anchor="start" x="75.5" y="-347" font-family="Helvetica,sans-Serif" font-size="10.00">+</text>
<text text-anchor="start" x="88.5" y="-347" font-family="Helvetica,sans-Serif" font-size="10.00">DamageGameplayEffect</text>
<text text-anchor="start" x="75.5" y="-332" font-family="Helvetica,sans-Serif" font-size="10.00">+</text>
<text text-anchor="start" x="88.5" y="-332" font-family="Helvetica,sans-Serif" font-size="10.00">ProjectileClass</text>
<text text-anchor="start" x="75.5" y="-317" font-family="Helvetica,sans-Serif" font-size="10.00">#</text>
<text text-anchor="start" x="88.5" y="-317" font-family="Helvetica,sans-Serif" font-size="10.00">Range</text>
<text text-anchor="start" x="75.5" y="-302" font-family="Helvetica,sans-Serif" font-size="10.00">#</text>
<text text-anchor="start" x="88.5" y="-302" font-family="Helvetica,sans-Serif" font-size="10.00">Damage</text>
<text text-anchor="start" x="75.5" y="-287" font-family="Helvetica,sans-Serif" font-size="10.00">+</text>
<text text-anchor="start" x="88.5" y="-287" font-family="Helvetica,sans-Serif" font-size="10.00">UOWGA_Active_GunFire()</text>
<text text-anchor="start" x="75.5" y="-272" font-family="Helvetica,sans-Serif" font-size="10.00">+</text>
<text text-anchor="start" x="88.5" y="-272" font-family="Helvetica,sans-Serif" font-size="10.00">ActivateAbility()</text>
<text text-anchor="start" x="75.5" y="-257" font-family="Helvetica,sans-Serif" font-size="10.00">#</text>
<text text-anchor="start" x="88.5" y="-257" font-family="Helvetica,sans-Serif" font-size="10.00">OnCancelled()</text>
<text text-anchor="start" x="75.5" y="-242" font-family="Helvetica,sans-Serif" font-size="10.00">#</text>
<text text-anchor="start" x="88.5" y="-242" font-family="Helvetica,sans-Serif" font-size="10.00">OnCompleted()</text>
<text text-anchor="start" x="75.5" y="-227" font-family="Helvetica,sans-Serif" font-size="10.00">#</text>
<text text-anchor="start" x="88.5" y="-227" font-family="Helvetica,sans-Serif" font-size="10.00">EventReceived()</text>
<text text-anchor="start" x="75.5" y="-212" font-family="Helvetica,sans-Serif" font-size="10.00">#</text>
<text text-anchor="start" x="88.5" y="-212" font-family="Helvetica,sans-Serif" font-size="10.00">SpawnProjectile()</text>
<polygon fill="#bfbfbf" stroke="#bfbfbf" points="71.5,-372 71.5,-372 218.5,-372 218.5,-372 71.5,-372"/>
<polygon fill="#bfbfbf" stroke="#bfbfbf" points="71.5,-297 71.5,-297 86.5,-297 86.5,-297 71.5,-297"/>
<polygon fill="#bfbfbf" stroke="#bfbfbf" points="86.5,-297 86.5,-297 218.5,-297 218.5,-297 86.5,-297"/>
<polygon fill="none" stroke="#bfbfbf" points="71,-205 71,-389 218,-389 218,-205 71,-205"/>
</a>
</g>
</g>
<!-- Node3&#45;&gt;Node4 -->
<g id="edge3_Node000003_Node000004" class="edge">
<title>Node3&#45;&gt;Node4</title>
<g id="a_edge3_Node000003_Node000004"><a xlink:title=" ">
<path fill="none" stroke="#63b8ff" d="M234.85,-416.78C227.99,-407.76 220.88,-398.42 213.8,-389.11"/>
<polygon fill="none" stroke="#63b8ff" points="232.23,-419.12 241.07,-424.96 237.8,-414.88 232.23,-419.12"/>
</a>
</g>
</g>
<!-- Node7 -->
<g id="Node000007" class="node">
<title>Node7</title>
<g id="a_Node000007"><a xlink:href="classUOWGA__FastZoom.html" target="_top" xlink:title=" ">
<polygon fill="white" stroke="transparent" points="339,-329 236,-329 236,-265 339,-265 339,-329"/>
<text text-anchor="start" x="241.5" y="-317" font-family="Helvetica,sans-Serif" font-size="10.00">UOWGA_FastZoom</text>
<text text-anchor="start" x="241" y="-302" font-family="Helvetica,sans-Serif" font-size="10.00">#</text>
<text text-anchor="start" x="254.5" y="-302" font-family="Helvetica,sans-Serif" font-size="10.00">ZoomFOV</text>
<text text-anchor="start" x="241" y="-287" font-family="Helvetica,sans-Serif" font-size="10.00">+</text>
<text text-anchor="start" x="254.5" y="-287" font-family="Helvetica,sans-Serif" font-size="10.00">ActivateAbility()</text>
<text text-anchor="start" x="241" y="-272" font-family="Helvetica,sans-Serif" font-size="10.00">+</text>
<text text-anchor="start" x="254.5" y="-272" font-family="Helvetica,sans-Serif" font-size="10.00">EndAbility()</text>
<polygon fill="#bfbfbf" stroke="#bfbfbf" points="236.5,-312 236.5,-312 339.5,-312 339.5,-312 236.5,-312"/>
<polygon fill="#bfbfbf" stroke="#bfbfbf" points="236.5,-297 236.5,-297 252.5,-297 252.5,-297 236.5,-297"/>
<polygon fill="#bfbfbf" stroke="#bfbfbf" points="252.5,-297 252.5,-297 339.5,-297 339.5,-297 252.5,-297"/>
<polygon fill="none" stroke="#bfbfbf" points="236,-265 236,-329 339,-329 339,-265 236,-265"/>
</a>
</g>
</g>
<!-- Node3&#45;&gt;Node7 -->
<g id="edge6_Node000003_Node000007" class="edge">
<title>Node3&#45;&gt;Node7</title>
<g id="a_edge6_Node000003_Node000007"><a xlink:title=" ">
<path fill="none" stroke="#63b8ff" d="M287.5,-414.68C287.5,-385.18 287.5,-352.5 287.5,-329.25"/>
<polygon fill="none" stroke="#63b8ff" points="284,-414.96 287.5,-424.96 291,-414.96 284,-414.96"/>
</a>
</g>
</g>
<!-- Node5 -->
<g id="Node000005" class="node">
<title>Node5</title>
<g id="a_Node000005"><a xlink:href="classUOWGA__ShurikenMain.html" target="_top" xlink:title=" ">
<polygon fill="white" stroke="transparent" points="139,-169 0,-169 0,0 139,0 139,-169"/>
<text text-anchor="start" x="14.5" y="-156.5" font-family="Helvetica,sans-Serif" font-size="10.00">UOWGA_ShurikenMain</text>
<text text-anchor="start" x="68" y="-141.5" font-family="Helvetica,sans-Serif" font-size="10.00"> </text>
<text text-anchor="start" x="4.5" y="-126.5" font-family="Helvetica,sans-Serif" font-size="10.00">+</text>
<text text-anchor="start" x="17.5" y="-126.5" font-family="Helvetica,sans-Serif" font-size="10.00">UOWGA_ShurikenMain()</text>
<text text-anchor="start" x="4.5" y="-111.5" font-family="Helvetica,sans-Serif" font-size="10.00">+</text>
<text text-anchor="start" x="17.5" y="-111.5" font-family="Helvetica,sans-Serif" font-size="10.00">SetCurrentMontage()</text>
<text text-anchor="start" x="4.5" y="-96.5" font-family="Helvetica,sans-Serif" font-size="10.00">+</text>
<text text-anchor="start" x="17.5" y="-96.5" font-family="Helvetica,sans-Serif" font-size="10.00">CanActivateAbility()</text>
<text text-anchor="start" x="4.5" y="-81.5" font-family="Helvetica,sans-Serif" font-size="10.00">+</text>
<text text-anchor="start" x="17.5" y="-81.5" font-family="Helvetica,sans-Serif" font-size="10.00">ActivateAbility()</text>
<text text-anchor="start" x="4.5" y="-66.5" font-family="Helvetica,sans-Serif" font-size="10.00">+</text>
<text text-anchor="start" x="17.5" y="-66.5" font-family="Helvetica,sans-Serif" font-size="10.00">EndAbility()</text>
<text text-anchor="start" x="4.5" y="-51.5" font-family="Helvetica,sans-Serif" font-size="10.00">+</text>
<text text-anchor="start" x="17.5" y="-51.5" font-family="Helvetica,sans-Serif" font-size="10.00">ShurikenMain()</text>
<text text-anchor="start" x="4.5" y="-36.5" font-family="Helvetica,sans-Serif" font-size="10.00">+</text>
<text text-anchor="start" x="17.5" y="-36.5" font-family="Helvetica,sans-Serif" font-size="10.00">ThrowFirstShuriken()</text>
<text text-anchor="start" x="4.5" y="-21.5" font-family="Helvetica,sans-Serif" font-size="10.00">+</text>
<text text-anchor="start" x="17.5" y="-21.5" font-family="Helvetica,sans-Serif" font-size="10.00">ThrowSecondShuriken()</text>
<text text-anchor="start" x="4.5" y="-6.5" font-family="Helvetica,sans-Serif" font-size="10.00">+</text>
<text text-anchor="start" x="17.5" y="-6.5" font-family="Helvetica,sans-Serif" font-size="10.00">ThrowThirdShuriken()</text>
<polygon fill="#bfbfbf" stroke="#bfbfbf" points="0.5,-151.5 0.5,-151.5 139.5,-151.5 139.5,-151.5 0.5,-151.5"/>
<polygon fill="#bfbfbf" stroke="#bfbfbf" points="0.5,-136.5 0.5,-136.5 139.5,-136.5 139.5,-136.5 0.5,-136.5"/>
<polygon fill="none" stroke="#bfbfbf" points="0,0 0,-169 139,-169 139,0 0,0"/>
</a>
</g>
</g>
<!-- Node4&#45;&gt;Node5 -->
<g id="edge4_Node000004_Node000005" class="edge">
<title>Node4&#45;&gt;Node5</title>
<g id="a_edge4_Node000004_Node000005"><a xlink:title=" ">
<path fill="none" stroke="#63b8ff" d="M108.65,-195.38C105.52,-186.59 102.37,-177.75 99.29,-169.11"/>
<polygon fill="none" stroke="#63b8ff" points="105.39,-196.65 112.04,-204.9 111.98,-194.3 105.39,-196.65"/>
</a>
</g>
</g>
<!-- Node6 -->
<g id="Node000006" class="node">
<title>Node6</title>
<g id="a_Node000006"><a xlink:href="classUOWGA__ShurikenSub.html" target="_top" xlink:title=" ">
<polygon fill="white" stroke="transparent" points="281.5,-146.5 157.5,-146.5 157.5,-22.5 281.5,-22.5 281.5,-146.5"/>
<text text-anchor="start" x="167" y="-134.5" font-family="Helvetica,sans-Serif" font-size="10.00">UOWGA_ShurikenSub</text>
<text text-anchor="start" x="217.5" y="-119.5" font-family="Helvetica,sans-Serif" font-size="10.00"> </text>
<text text-anchor="start" x="161.5" y="-104.5" font-family="Helvetica,sans-Serif" font-size="10.00">+</text>
<text text-anchor="start" x="174.5" y="-104.5" font-family="Helvetica,sans-Serif" font-size="10.00">SetCurrentMontage()</text>
<text text-anchor="start" x="161.5" y="-89.5" font-family="Helvetica,sans-Serif" font-size="10.00">+</text>
<text text-anchor="start" x="174.5" y="-89.5" font-family="Helvetica,sans-Serif" font-size="10.00">CanActivateAbility()</text>
<text text-anchor="start" x="161.5" y="-74.5" font-family="Helvetica,sans-Serif" font-size="10.00">+</text>
<text text-anchor="start" x="174.5" y="-74.5" font-family="Helvetica,sans-Serif" font-size="10.00">ActivateAbility()</text>
<text text-anchor="start" x="161.5" y="-59.5" font-family="Helvetica,sans-Serif" font-size="10.00">+</text>
<text text-anchor="start" x="174.5" y="-59.5" font-family="Helvetica,sans-Serif" font-size="10.00">EndAbility()</text>
<text text-anchor="start" x="161.5" y="-44.5" font-family="Helvetica,sans-Serif" font-size="10.00">+</text>
<text text-anchor="start" x="174.5" y="-44.5" font-family="Helvetica,sans-Serif" font-size="10.00">ShurikenSub()</text>
<text text-anchor="start" x="161.5" y="-29.5" font-family="Helvetica,sans-Serif" font-size="10.00">+</text>
<text text-anchor="start" x="174.5" y="-29.5" font-family="Helvetica,sans-Serif" font-size="10.00">SpawnProjectile()</text>
<polygon fill="#bfbfbf" stroke="#bfbfbf" points="157.5,-129.5 157.5,-129.5 281.5,-129.5 281.5,-129.5 157.5,-129.5"/>
<polygon fill="#bfbfbf" stroke="#bfbfbf" points="157.5,-114.5 157.5,-114.5 281.5,-114.5 281.5,-114.5 157.5,-114.5"/>
<polygon fill="none" stroke="#bfbfbf" points="157.5,-22.5 157.5,-146.5 281.5,-146.5 281.5,-22.5 157.5,-22.5"/>
</a>
</g>
</g>
<!-- Node4&#45;&gt;Node6 -->
<g id="edge5_Node000004_Node000006" class="edge">
<title>Node4&#45;&gt;Node6</title>
<g id="a_edge5_Node000004_Node000006"><a xlink:title=" ">
<path fill="none" stroke="#63b8ff" d="M180.42,-195.17C186.32,-178.61 192.28,-161.91 197.7,-146.7"/>
<polygon fill="none" stroke="#63b8ff" points="177.02,-194.3 176.96,-204.9 183.61,-196.65 177.02,-194.3"/>
</a>
</g>
</g>
<!-- Node9 -->
<g id="Node000009" class="node">
<title>Node9</title>
<g id="a_Node000009"><a xlink:href="classUOWGA__Reload.html" target="_top" xlink:title=" ">
<polygon fill="white" stroke="transparent" points="481.5,-351.5 357.5,-351.5 357.5,-242.5 481.5,-242.5 481.5,-351.5"/>
<text text-anchor="start" x="380" y="-339" font-family="Helvetica,sans-Serif" font-size="10.00">UOWGA_Reload</text>
<text text-anchor="start" x="417.5" y="-324" font-family="Helvetica,sans-Serif" font-size="10.00"> </text>
<text text-anchor="start" x="361.5" y="-309" font-family="Helvetica,sans-Serif" font-size="10.00">+</text>
<text text-anchor="start" x="374.5" y="-309" font-family="Helvetica,sans-Serif" font-size="10.00">SetCurrentMontage()</text>
<text text-anchor="start" x="361.5" y="-294" font-family="Helvetica,sans-Serif" font-size="10.00">+</text>
<text text-anchor="start" x="374.5" y="-294" font-family="Helvetica,sans-Serif" font-size="10.00">CanActivateAbility()</text>
<text text-anchor="start" x="361.5" y="-279" font-family="Helvetica,sans-Serif" font-size="10.00">+</text>
<text text-anchor="start" x="374.5" y="-279" font-family="Helvetica,sans-Serif" font-size="10.00">ActivateAbility()</text>
<text text-anchor="start" x="361.5" y="-264" font-family="Helvetica,sans-Serif" font-size="10.00">+</text>
<text text-anchor="start" x="374.5" y="-264" font-family="Helvetica,sans-Serif" font-size="10.00">EndAbility()</text>
<text text-anchor="start" x="361.5" y="-249" font-family="Helvetica,sans-Serif" font-size="10.00">+</text>
<text text-anchor="start" x="374.5" y="-249" font-family="Helvetica,sans-Serif" font-size="10.00">Reload()</text>
<polygon fill="#bfbfbf" stroke="#bfbfbf" points="357.5,-334 357.5,-334 481.5,-334 481.5,-334 357.5,-334"/>
<polygon fill="#bfbfbf" stroke="#bfbfbf" points="357.5,-319 357.5,-319 481.5,-319 481.5,-319 357.5,-319"/>
<polygon fill="none" stroke="#bfbfbf" points="357.5,-242.5 357.5,-351.5 481.5,-351.5 481.5,-242.5 357.5,-242.5"/>
</a>
</g>
</g>
<!-- Node8&#45;&gt;Node9 -->
<g id="edge8_Node000008_Node000009" class="edge">
<title>Node8&#45;&gt;Node9</title>
<g id="a_edge8_Node000008_Node000009"><a xlink:title=" ">
<path fill="none" stroke="#63b8ff" d="M416.22,-452.1C416.82,-424.12 417.67,-383.88 418.36,-351.54"/>
<polygon fill="none" stroke="#63b8ff" points="412.72,-452.12 416.01,-462.19 419.72,-452.27 412.72,-452.12"/>
</a>
</g>
</g>
</g>
</svg>
