<?xml version="1.0" encoding="UTF-8" standalone="no"?>
<!DOCTYPE svg PUBLIC "-//W3C//DTD SVG 1.1//EN"
 "http://www.w3.org/Graphics/SVG/1.1/DTD/svg11.dtd">
<!-- Generated by graphviz version 2.43.0 (0)
 -->
<!-- Title: UOWGameplayAbility Pages: 1 -->
<svg width="601pt" height="712pt"
 viewBox="0.00 0.00 600.50 712.00" xmlns="http://www.w3.org/2000/svg" xmlns:xlink="http://www.w3.org/1999/xlink">
<g id="graph0" class="graph" transform="scale(1 1) rotate(0) translate(4 708)">
<title>UOWGameplayAbility</title>
<!-- Node1 -->
<g id="Node000001" class="node">
<title>Node1</title>
<g id="a_Node000001"><a xlink:title=" ">
<polygon fill="#999999" stroke="transparent" points="480.5,-619 344.5,-619 344.5,-570 480.5,-570 480.5,-619"/>
<text text-anchor="start" x="359" y="-606.5" font-family="Helvetica,sans-Serif" font-size="10.00">UOWGameplayAbility</text>
<text text-anchor="start" x="410.5" y="-591.5" font-family="Helvetica,sans-Serif" font-size="10.00"> </text>
<text text-anchor="start" x="348.5" y="-576.5" font-family="Helvetica,sans-Serif" font-size="10.00">+</text>
<text text-anchor="start" x="361.5" y="-576.5" font-family="Helvetica,sans-Serif" font-size="10.00">UOWGameplayAbility()</text>
<polygon fill="#666666" stroke="#666666" points="344.5,-601.5 344.5,-601.5 480.5,-601.5 480.5,-601.5 344.5,-601.5"/>
<polygon fill="#666666" stroke="#666666" points="344.5,-586.5 344.5,-586.5 480.5,-586.5 480.5,-586.5 344.5,-586.5"/>
<polygon fill="none" stroke="#666666" points="344.5,-570 344.5,-619 480.5,-619 480.5,-570 344.5,-570"/>
</a>
</g>
</g>
<!-- Node3 -->
<g id="Node000003" class="node">
<title>Node3</title>
<g id="a_Node000003"><a xlink:href="classUOWGA__Active.html" target="_top" xlink:title=" ">
<polygon fill="white" stroke="transparent" points="344.5,-534 224.5,-534 224.5,-410 344.5,-410 344.5,-534"/>
<text text-anchor="start" x="246.5" y="-522" font-family="Helvetica,sans-Serif" font-size="10.00">UOWGA_Active</text>
<text text-anchor="start" x="228.5" y="-507" font-family="Helvetica,sans-Serif" font-size="10.00">#</text>
<text text-anchor="start" x="241.5" y="-507" font-family="Helvetica,sans-Serif" font-size="10.00">CooldownDuration</text>
<text text-anchor="start" x="228.5" y="-492" font-family="Helvetica,sans-Serif" font-size="10.00">#</text>
<text text-anchor="start" x="241.5" y="-492" font-family="Helvetica,sans-Serif" font-size="10.00">CooldownTags</text>
<text text-anchor="start" x="228.5" y="-477" font-family="Helvetica,sans-Serif" font-size="10.00">+</text>
<text text-anchor="start" x="241.5" y="-477" font-family="Helvetica,sans-Serif" font-size="10.00">UOWGA_Active()</text>
<text text-anchor="start" x="228.5" y="-462" font-family="Helvetica,sans-Serif" font-size="10.00">+</text>
<text text-anchor="start" x="241.5" y="-462" font-family="Helvetica,sans-Serif" font-size="10.00">SetCooldownData()</text>
<text text-anchor="start" x="228.5" y="-447" font-family="Helvetica,sans-Serif" font-size="10.00">+</text>
<text text-anchor="start" x="241.5" y="-447" font-family="Helvetica,sans-Serif" font-size="10.00">ActivateAbility()</text>
<text text-anchor="start" x="228.5" y="-432" font-family="Helvetica,sans-Serif" font-size="10.00">+</text>
<text text-anchor="start" x="241.5" y="-432" font-family="Helvetica,sans-Serif" font-size="10.00">ApplyCooldown()</text>
<text text-anchor="start" x="228.5" y="-417" font-family="Helvetica,sans-Serif" font-size="10.00">+</text>
<text text-anchor="start" x="241.5" y="-417" font-family="Helvetica,sans-Serif" font-size="10.00">CanActivateAbility()</text>
<polygon fill="#666666" stroke="#666666" points="224.5,-517 224.5,-517 344.5,-517 344.5,-517 224.5,-517"/>
<polygon fill="#666666" stroke="#666666" points="224.5,-487 224.5,-487 239.5,-487 239.5,-487 224.5,-487"/>
<polygon fill="#666666" stroke="#666666" points="239.5,-487 239.5,-487 344.5,-487 344.5,-487 239.5,-487"/>
<polygon fill="none" stroke="#666666" points="224.5,-410 224.5,-534 344.5,-534 344.5,-410 224.5,-410"/>
</a>
</g>
</g>
<!-- Node1&#45;&gt;Node3 -->
<g id="edge2_Node000001_Node000003" class="edge">
<title>Node1&#45;&gt;Node3</title>
<g id="a_edge2_Node000001_Node000003"><a xlink:title=" ">
<path fill="none" stroke="#63b8ff" d="M379.98,-562.89C369.22,-552.75 356.87,-541.13 344.7,-529.67"/>
<polygon fill="none" stroke="#63b8ff" points="377.84,-565.67 387.52,-569.98 382.63,-560.58 377.84,-565.67"/>
</a>
</g>
</g>
<!-- Node8 -->
<g id="Node000008" class="node">
<title>Node8</title>
<g id="a_Node000008"><a xlink:href="classUOWGA__Passive.html" target="_top" xlink:title=" ">
<polygon fill="white" stroke="transparent" points="458.5,-496.5 366.5,-496.5 366.5,-447.5 458.5,-447.5 458.5,-496.5"/>
<text text-anchor="start" x="371.5" y="-484" font-family="Helvetica,sans-Serif" font-size="10.00">UOWGA_Passive</text>
<text text-anchor="start" x="410.5" y="-469" font-family="Helvetica,sans-Serif" font-size="10.00"> </text>
<text text-anchor="start" x="410.5" y="-454" font-family="Helvetica,sans-Serif" font-size="10.00"> </text>
<polygon fill="#bfbfbf" stroke="#bfbfbf" points="366.5,-479 366.5,-479 458.5,-479 458.5,-479 366.5,-479"/>
<polygon fill="#bfbfbf" stroke="#bfbfbf" points="366.5,-464 366.5,-464 458.5,-464 458.5,-464 366.5,-464"/>
<polygon fill="none" stroke="#bfbfbf" points="366.5,-447.5 366.5,-496.5 458.5,-496.5 458.5,-447.5 366.5,-447.5"/>
</a>
</g>
</g>
<!-- Node1&#45;&gt;Node8 -->
<g id="edge7_Node000001_Node000008" class="edge">
<title>Node1&#45;&gt;Node8</title>
<g id="a_edge7_Node000001_Node000008"><a xlink:title=" ">
<path fill="none" stroke="#63b8ff" d="M412.5,-559.73C412.5,-539.72 412.5,-514.84 412.5,-496.87"/>
<polygon fill="none" stroke="#63b8ff" points="409,-559.98 412.5,-569.98 416,-559.98 409,-559.98"/>
</a>
</g>
</g>
<!-- Node10 -->
<g id="Node000010" class="node">
<title>Node10</title>
<g id="a_Node000010"><a xlink:href="classUOWGA__Ultimate.html" target="_top" xlink:title=" ">
<polygon fill="white" stroke="transparent" points="592.5,-519 476.5,-519 476.5,-425 592.5,-425 592.5,-519"/>
<text text-anchor="start" x="490.5" y="-507" font-family="Helvetica,sans-Serif" font-size="10.00">UOWGA_Ultimate</text>
<text text-anchor="start" x="480.5" y="-492" font-family="Helvetica,sans-Serif" font-size="10.00">#</text>
<text text-anchor="start" x="493.5" y="-492" font-family="Helvetica,sans-Serif" font-size="10.00">UltCost</text>
<text text-anchor="start" x="480.5" y="-477" font-family="Helvetica,sans-Serif" font-size="10.00">+</text>
<text text-anchor="start" x="493.5" y="-477" font-family="Helvetica,sans-Serif" font-size="10.00">UOWGA_Ultimate()</text>
<text text-anchor="start" x="480.5" y="-462" font-family="Helvetica,sans-Serif" font-size="10.00">+</text>
<text text-anchor="start" x="493.5" y="-462" font-family="Helvetica,sans-Serif" font-size="10.00">CheckCost()</text>
<text text-anchor="start" x="480.5" y="-447" font-family="Helvetica,sans-Serif" font-size="10.00">+</text>
<text text-anchor="start" x="493.5" y="-447" font-family="Helvetica,sans-Serif" font-size="10.00">ApplyCost()</text>
<text text-anchor="start" x="480.5" y="-432" font-family="Helvetica,sans-Serif" font-size="10.00">+</text>
<text text-anchor="start" x="493.5" y="-432" font-family="Helvetica,sans-Serif" font-size="10.00">ActivateAbility()</text>
<polygon fill="#666666" stroke="#666666" points="476.5,-502 476.5,-502 592.5,-502 592.5,-502 476.5,-502"/>
<polygon fill="#666666" stroke="#666666" points="476.5,-487 476.5,-487 491.5,-487 491.5,-487 476.5,-487"/>
<polygon fill="#666666" stroke="#666666" points="491.5,-487 491.5,-487 592.5,-487 592.5,-487 491.5,-487"/>
<polygon fill="none" stroke="#666666" points="476.5,-425 476.5,-519 592.5,-519 592.5,-425 476.5,-425"/>
</a>
</g>
</g>
<!-- Node1&#45;&gt;Node10 -->
<g id="edge9_Node000001_Node000010" class="edge">
<title>Node1&#45;&gt;Node10</title>
<g id="a_edge9_Node000001_Node000010"><a xlink:title=" ">
<path fill="none" stroke="#63b8ff" d="M443.45,-562.93C456.81,-549.73 472.74,-534 487.52,-519.41"/>
<polygon fill="none" stroke="#63b8ff" points="440.97,-560.46 436.31,-569.98 445.89,-565.44 440.97,-560.46"/>
</a>
</g>
</g>
<!-- Node2 -->
<g id="Node000002" class="node">
<title>Node2</title>
<g id="a_Node000002"><a xlink:title=" ">
<polygon fill="white" stroke="transparent" points="462.5,-704 362.5,-704 362.5,-655 462.5,-655 462.5,-704"/>
<text text-anchor="start" x="367.5" y="-691.5" font-family="Helvetica,sans-Serif" font-size="10.00">UGameplayAbility</text>
<text text-anchor="start" x="410.5" y="-676.5" font-family="Helvetica,sans-Serif" font-size="10.00"> </text>
<text text-anchor="start" x="410.5" y="-661.5" font-family="Helvetica,sans-Serif" font-size="10.00"> </text>
<polygon fill="#bfbfbf" stroke="#bfbfbf" points="362.5,-686.5 362.5,-686.5 462.5,-686.5 462.5,-686.5 362.5,-686.5"/>
<polygon fill="#bfbfbf" stroke="#bfbfbf" points="362.5,-671.5 362.5,-671.5 462.5,-671.5 462.5,-671.5 362.5,-671.5"/>
<polygon fill="none" stroke="#bfbfbf" points="362.5,-655 362.5,-704 462.5,-704 462.5,-655 362.5,-655"/>
</a>
</g>
</g>
<!-- Node2&#45;&gt;Node1 -->
<g id="edge1_Node000001_Node000002" class="edge">
<title>Node2&#45;&gt;Node1</title>
<g id="a_edge1_Node000001_Node000002"><a xlink:title=" ">
<path fill="none" stroke="#63b8ff" d="M412.5,-644.77C412.5,-636.17 412.5,-627.1 412.5,-619.12"/>
<polygon fill="none" stroke="#63b8ff" points="409,-644.94 412.5,-654.94 416,-644.94 409,-644.94"/>
</a>
</g>
</g>
<!-- Node4 -->
<g id="Node000004" class="node">
<title>Node4</title>
<g id="a_Node000004"><a xlink:href="classUOWGA__Active__GunFire.html" target="_top" xlink:title=" ">
<polygon fill="white" stroke="transparent" points="215,-374 68,-374 68,-190 215,-190 215,-374"/>
<text text-anchor="start" x="83" y="-362" font-family="Helvetica,sans-Serif" font-size="10.00">UOWGA_Active_GunFire</text>
<text text-anchor="start" x="72.5" y="-347" font-family="Helvetica,sans-Serif" font-size="10.00">+</text>
<text text-anchor="start" x="85.5" y="-347" font-family="Helvetica,sans-Serif" font-size="10.00">FireProjectilepMontage</text>
<text text-anchor="start" x="72.5" y="-332" font-family="Helvetica,sans-Serif" font-size="10.00">+</text>
<text text-anchor="start" x="85.5" y="-332" font-family="Helvetica,sans-Serif" font-size="10.00">DamageGameplayEffect</text>
<text text-anchor="start" x="72.5" y="-317" font-family="Helvetica,sans-Serif" font-size="10.00">+</text>
<text text-anchor="start" x="85.5" y="-317" font-family="Helvetica,sans-Serif" font-size="10.00">ProjectileClass</text>
<text text-anchor="start" x="72.5" y="-302" font-family="Helvetica,sans-Serif" font-size="10.00">#</text>
<text text-anchor="start" x="85.5" y="-302" font-family="Helvetica,sans-Serif" font-size="10.00">Range</text>
<text text-anchor="start" x="72.5" y="-287" font-family="Helvetica,sans-Serif" font-size="10.00">#</text>
<text text-anchor="start" x="85.5" y="-287" font-family="Helvetica,sans-Serif" font-size="10.00">Damage</text>
<text text-anchor="start" x="72.5" y="-272" font-family="Helvetica,sans-Serif" font-size="10.00">+</text>
<text text-anchor="start" x="85.5" y="-272" font-family="Helvetica,sans-Serif" font-size="10.00">UOWGA_Active_GunFire()</text>
<text text-anchor="start" x="72.5" y="-257" font-family="Helvetica,sans-Serif" font-size="10.00">+</text>
<text text-anchor="start" x="85.5" y="-257" font-family="Helvetica,sans-Serif" font-size="10.00">ActivateAbility()</text>
<text text-anchor="start" x="72.5" y="-242" font-family="Helvetica,sans-Serif" font-size="10.00">#</text>
<text text-anchor="start" x="85.5" y="-242" font-family="Helvetica,sans-Serif" font-size="10.00">OnCancelled()</text>
<text text-anchor="start" x="72.5" y="-227" font-family="Helvetica,sans-Serif" font-size="10.00">#</text>
<text text-anchor="start" x="85.5" y="-227" font-family="Helvetica,sans-Serif" font-size="10.00">OnCompleted()</text>
<text text-anchor="start" x="72.5" y="-212" font-family="Helvetica,sans-Serif" font-size="10.00">#</text>
<text text-anchor="start" x="85.5" y="-212" font-family="Helvetica,sans-Serif" font-size="10.00">EventReceived()</text>
<text text-anchor="start" x="72.5" y="-197" font-family="Helvetica,sans-Serif" font-size="10.00">#</text>
<text text-anchor="start" x="85.5" y="-197" font-family="Helvetica,sans-Serif" font-size="10.00">SpawnProjectile()</text>
<polygon fill="#bfbfbf" stroke="#bfbfbf" points="68.5,-357 68.5,-357 215.5,-357 215.5,-357 68.5,-357"/>
<polygon fill="#bfbfbf" stroke="#bfbfbf" points="68.5,-282 68.5,-282 83.5,-282 83.5,-282 68.5,-282"/>
<polygon fill="#bfbfbf" stroke="#bfbfbf" points="83.5,-282 83.5,-282 215.5,-282 215.5,-282 83.5,-282"/>
<polygon fill="none" stroke="#bfbfbf" points="68,-190 68,-374 215,-374 215,-190 68,-190"/>
</a>
</g>
</g>
<!-- Node3&#45;&gt;Node4 -->
<g id="edge3_Node000003_Node000004" class="edge">
<title>Node3&#45;&gt;Node4</title>
<g id="a_edge3_Node000003_Node000004"><a xlink:title=" ">
<path fill="none" stroke="#63b8ff" d="M231.85,-401.78C224.99,-392.76 217.88,-383.42 210.8,-374.11"/>
<polygon fill="none" stroke="#63b8ff" points="229.23,-404.12 238.07,-409.96 234.8,-399.88 229.23,-404.12"/>
</a>
</g>
</g>
<!-- Node7 -->
<g id="Node000007" class="node">
<title>Node7</title>
<g id="a_Node000007"><a xlink:href="classUOWGA__FastZoom.html" target="_top" xlink:title=" ">
<polygon fill="white" stroke="transparent" points="336,-314 233,-314 233,-250 336,-250 336,-314"/>
<text text-anchor="start" x="238.5" y="-302" font-family="Helvetica,sans-Serif" font-size="10.00">UOWGA_FastZoom</text>
<text text-anchor="start" x="238" y="-287" font-family="Helvetica,sans-Serif" font-size="10.00">#</text>
<text text-anchor="start" x="251.5" y="-287" font-family="Helvetica,sans-Serif" font-size="10.00">ZoomFOV</text>
<text text-anchor="start" x="238" y="-272" font-family="Helvetica,sans-Serif" font-size="10.00">+</text>
<text text-anchor="start" x="251.5" y="-272" font-family="Helvetica,sans-Serif" font-size="10.00">ActivateAbility()</text>
<text text-anchor="start" x="238" y="-257" font-family="Helvetica,sans-Serif" font-size="10.00">+</text>
<text text-anchor="start" x="251.5" y="-257" font-family="Helvetica,sans-Serif" font-size="10.00">EndAbility()</text>
<polygon fill="#bfbfbf" stroke="#bfbfbf" points="233.5,-297 233.5,-297 336.5,-297 336.5,-297 233.5,-297"/>
<polygon fill="#bfbfbf" stroke="#bfbfbf" points="233.5,-282 233.5,-282 249.5,-282 249.5,-282 233.5,-282"/>
<polygon fill="#bfbfbf" stroke="#bfbfbf" points="249.5,-282 249.5,-282 336.5,-282 336.5,-282 249.5,-282"/>
<polygon fill="none" stroke="#bfbfbf" points="233,-250 233,-314 336,-314 336,-250 233,-250"/>
</a>
</g>
</g>
<!-- Node3&#45;&gt;Node7 -->
<g id="edge6_Node000003_Node000007" class="edge">
<title>Node3&#45;&gt;Node7</title>
<g id="a_edge6_Node000003_Node000007"><a xlink:title=" ">
<path fill="none" stroke="#63b8ff" d="M284.5,-399.68C284.5,-370.18 284.5,-337.5 284.5,-314.25"/>
<polygon fill="none" stroke="#63b8ff" points="281,-399.96 284.5,-409.96 288,-399.96 281,-399.96"/>
</a>
</g>
</g>
<!-- Node5 -->
<g id="Node000005" class="node">
<title>Node5</title>
<g id="a_Node000005"><a xlink:href="classUOWGA__ShurikenMain.html" target="_top" xlink:title=" ">
<polygon fill="white" stroke="transparent" points="139,-154 0,-154 0,0 139,0 139,-154"/>
<text text-anchor="start" x="14.5" y="-142" font-family="Helvetica,sans-Serif" font-size="10.00">UOWGA_ShurikenMain</text>
<text text-anchor="start" x="68" y="-127" font-family="Helvetica,sans-Serif" font-size="10.00"> </text>
<text text-anchor="start" x="4.5" y="-112" font-family="Helvetica,sans-Serif" font-size="10.00">+</text>
<text text-anchor="start" x="17.5" y="-112" font-family="Helvetica,sans-Serif" font-size="10.00">UOWGA_ShurikenMain()</text>
<text text-anchor="start" x="4.5" y="-97" font-family="Helvetica,sans-Serif" font-size="10.00">+</text>
<text text-anchor="start" x="17.5" y="-97" font-family="Helvetica,sans-Serif" font-size="10.00">SetCurrentMontage()</text>
<text text-anchor="start" x="4.5" y="-82" font-family="Helvetica,sans-Serif" font-size="10.00">+</text>
<text text-anchor="start" x="17.5" y="-82" font-family="Helvetica,sans-Serif" font-size="10.00">CanActivateAbility()</text>
<text text-anchor="start" x="4.5" y="-67" font-family="Helvetica,sans-Serif" font-size="10.00">+</text>
<text text-anchor="start" x="17.5" y="-67" font-family="Helvetica,sans-Serif" font-size="10.00">ActivateAbility()</text>
<text text-anchor="start" x="4.5" y="-52" font-family="Helvetica,sans-Serif" font-size="10.00">+</text>
<text text-anchor="start" x="17.5" y="-52" font-family="Helvetica,sans-Serif" font-size="10.00">EndAbility()</text>
<text text-anchor="start" x="4.5" y="-37" font-family="Helvetica,sans-Serif" font-size="10.00">+</text>
<text text-anchor="start" x="17.5" y="-37" font-family="Helvetica,sans-Serif" font-size="10.00">ThrowFirstShuriken()</text>
<text text-anchor="start" x="4.5" y="-22" font-family="Helvetica,sans-Serif" font-size="10.00">+</text>
<text text-anchor="start" x="17.5" y="-22" font-family="Helvetica,sans-Serif" font-size="10.00">ThrowSecondShuriken()</text>
<text text-anchor="start" x="4.5" y="-7" font-family="Helvetica,sans-Serif" font-size="10.00">+</text>
<text text-anchor="start" x="17.5" y="-7" font-family="Helvetica,sans-Serif" font-size="10.00">ThrowThirdShuriken()</text>
<polygon fill="#bfbfbf" stroke="#bfbfbf" points="0.5,-137 0.5,-137 139.5,-137 139.5,-137 0.5,-137"/>
<polygon fill="#bfbfbf" stroke="#bfbfbf" points="0.5,-122 0.5,-122 139.5,-122 139.5,-122 0.5,-122"/>
<polygon fill="none" stroke="#bfbfbf" points="0,0 0,-154 139,-154 139,0 0,0"/>
</a>
</g>
</g>
<!-- Node4&#45;&gt;Node5 -->
<g id="edge4_Node000004_Node000005" class="edge">
<title>Node4&#45;&gt;Node5</title>
<g id="a_edge4_Node000004_Node000005"><a xlink:title=" ">
<path fill="none" stroke="#63b8ff" d="M105.81,-180.37C102.69,-171.58 99.57,-162.79 96.54,-154.25"/>
<polygon fill="none" stroke="#63b8ff" points="102.54,-181.64 109.19,-189.89 109.14,-179.3 102.54,-181.64"/>
</a>
</g>
</g>
<!-- Node6 -->
<g id="Node000006" class="node">
<title>Node6</title>
<g id="a_Node000006"><a xlink:href="classUOWGA__ShurikenSub.html" target="_top" xlink:title=" ">
<polygon fill="white" stroke="transparent" points="272,-101.5 157,-101.5 157,-52.5 272,-52.5 272,-101.5"/>
<text text-anchor="start" x="162.5" y="-89" font-family="Helvetica,sans-Serif" font-size="10.00">UOWGA_ShurikenSub</text>
<text text-anchor="start" x="213" y="-74" font-family="Helvetica,sans-Serif" font-size="10.00"> </text>
<text text-anchor="start" x="213" y="-59" font-family="Helvetica,sans-Serif" font-size="10.00"> </text>
<polygon fill="#bfbfbf" stroke="#bfbfbf" points="157.5,-84 157.5,-84 272.5,-84 272.5,-84 157.5,-84"/>
<polygon fill="#bfbfbf" stroke="#bfbfbf" points="157.5,-69 157.5,-69 272.5,-69 272.5,-69 157.5,-69"/>
<polygon fill="none" stroke="#bfbfbf" points="157,-52.5 157,-101.5 272,-101.5 272,-52.5 157,-52.5"/>
</a>
</g>
</g>
<!-- Node4&#45;&gt;Node6 -->
<g id="edge5_Node000004_Node000006" class="edge">
<title>Node4&#45;&gt;Node6</title>
<g id="a_edge5_Node000004_Node000006"><a xlink:title=" ">
<path fill="none" stroke="#63b8ff" d="M177.69,-180.35C188.28,-150.92 198.89,-121.4 205.99,-101.67"/>
<polygon fill="none" stroke="#63b8ff" points="174.35,-179.3 174.26,-189.89 180.94,-181.67 174.35,-179.3"/>
</a>
</g>
</g>
<!-- Node9 -->
<g id="Node000009" class="node">
<title>Node9</title>
<g id="a_Node000009"><a xlink:href="classUOWGA__Reload.html" target="_top" xlink:title=" ">
<polygon fill="white" stroke="transparent" points="478.5,-336.5 354.5,-336.5 354.5,-227.5 478.5,-227.5 478.5,-336.5"/>
<text text-anchor="start" x="377" y="-324" font-family="Helvetica,sans-Serif" font-size="10.00">UOWGA_Reload</text>
<text text-anchor="start" x="414.5" y="-309" font-family="Helvetica,sans-Serif" font-size="10.00"> </text>
<text text-anchor="start" x="358.5" y="-294" font-family="Helvetica,sans-Serif" font-size="10.00">+</text>
<text text-anchor="start" x="371.5" y="-294" font-family="Helvetica,sans-Serif" font-size="10.00">SetCurrentMontage()</text>
<text text-anchor="start" x="358.5" y="-279" font-family="Helvetica,sans-Serif" font-size="10.00">+</text>
<text text-anchor="start" x="371.5" y="-279" font-family="Helvetica,sans-Serif" font-size="10.00">CanActivateAbility()</text>
<text text-anchor="start" x="358.5" y="-264" font-family="Helvetica,sans-Serif" font-size="10.00">+</text>
<text text-anchor="start" x="371.5" y="-264" font-family="Helvetica,sans-Serif" font-size="10.00">ActivateAbility()</text>
<text text-anchor="start" x="358.5" y="-249" font-family="Helvetica,sans-Serif" font-size="10.00">+</text>
<text text-anchor="start" x="371.5" y="-249" font-family="Helvetica,sans-Serif" font-size="10.00">EndAbility()</text>
<text text-anchor="start" x="358.5" y="-234" font-family="Helvetica,sans-Serif" font-size="10.00">+</text>
<text text-anchor="start" x="371.5" y="-234" font-family="Helvetica,sans-Serif" font-size="10.00">Reload()</text>
<polygon fill="#bfbfbf" stroke="#bfbfbf" points="354.5,-319 354.5,-319 478.5,-319 478.5,-319 354.5,-319"/>
<polygon fill="#bfbfbf" stroke="#bfbfbf" points="354.5,-304 354.5,-304 478.5,-304 478.5,-304 354.5,-304"/>
<polygon fill="none" stroke="#bfbfbf" points="354.5,-227.5 354.5,-336.5 478.5,-336.5 478.5,-227.5 354.5,-227.5"/>
</a>
</g>
</g>
<!-- Node8&#45;&gt;Node9 -->
<g id="edge8_Node000008_Node000009" class="edge">
<title>Node8&#45;&gt;Node9</title>
<g id="a_edge8_Node000008_Node000009"><a xlink:title=" ">
<path fill="none" stroke="#63b8ff" d="M413.22,-437.1C413.82,-409.12 414.67,-368.88 415.36,-336.54"/>
<polygon fill="none" stroke="#63b8ff" points="409.72,-437.12 413.01,-447.19 416.72,-437.27 409.72,-437.12"/>
</a>
</g>
</g>
</g>
</svg>
