<?xml version="1.0" encoding="UTF-8" standalone="no"?>
<!DOCTYPE svg PUBLIC "-//W3C//DTD SVG 1.1//EN"
 "http://www.w3.org/Graphics/SVG/1.1/DTD/svg11.dtd">
<!-- Generated by graphviz version 2.43.0 (0)
 -->
<!-- Title: Source/OliveWatch/OliveWatchCharacter.h Pages: 1 -->
<svg width="947pt" height="181pt"
 viewBox="0.00 0.00 946.50 181.00" xmlns="http://www.w3.org/2000/svg" xmlns:xlink="http://www.w3.org/1999/xlink">
<g id="graph0" class="graph" transform="scale(1 1) rotate(0) translate(4 177)">
<title>Source/OliveWatch/OliveWatchCharacter.h</title>
<!-- Node1 -->
<g id="Node000001" class="node">
<title>Node1</title>
<g id="a_Node000001"><a xlink:title=" ">
<polygon fill="#999999" stroke="#666666" points="568.5,-173 401.5,-173 401.5,-143 568.5,-143 568.5,-173"/>
<text text-anchor="start" x="409.5" y="-161" font-family="Helvetica,sans-Serif" font-size="10.00">Source/OliveWatch/OliveWatch</text>
<text text-anchor="middle" x="485" y="-150" font-family="Helvetica,sans-Serif" font-size="10.00">Character.h</text>
</a>
</g>
</g>
<!-- Node2 -->
<g id="Node000002" class="node">
<title>Node2</title>
<g id="a_Node000002"><a xlink:href="OWGameplayAbility__Test_8cpp.html" target="_top" xlink:title=" ">
<polygon fill="white" stroke="#666666" points="198,-107 0,-107 0,-66 198,-66 198,-107"/>
<text text-anchor="start" x="8" y="-95" font-family="Helvetica,sans-Serif" font-size="10.00">Source/OliveWatch/Ability</text>
<text text-anchor="start" x="8" y="-84" font-family="Helvetica,sans-Serif" font-size="10.00">System/Abilities/OWGameplayAbility</text>
<text text-anchor="middle" x="99" y="-73" font-family="Helvetica,sans-Serif" font-size="10.00">_Test.cpp</text>
</a>
</g>
</g>
<!-- Node1&#45;&gt;Node2 -->
<g id="edge1_Node000001_Node000002" class="edge">
<title>Node1&#45;&gt;Node2</title>
<g id="a_edge1_Node000001_Node000002"><a xlink:title=" ">
<path fill="none" stroke="#63b8ff" d="M396.82,-141.12C337.67,-130.47 259.66,-116.43 198.32,-105.38"/>
<polygon fill="#63b8ff" stroke="#63b8ff" points="396.43,-144.61 406.89,-142.94 397.67,-137.72 396.43,-144.61"/>
</a>
</g>
</g>
<!-- Node3 -->
<g id="Node000003" class="node">
<title>Node3</title>
<g id="a_Node000003"><a xlink:href="OliveWatchCharacter_8cpp.html" target="_top" xlink:title=" ">
<polygon fill="white" stroke="#666666" points="383.5,-101.5 216.5,-101.5 216.5,-71.5 383.5,-71.5 383.5,-101.5"/>
<text text-anchor="start" x="224.5" y="-89.5" font-family="Helvetica,sans-Serif" font-size="10.00">Source/OliveWatch/OliveWatch</text>
<text text-anchor="middle" x="300" y="-78.5" font-family="Helvetica,sans-Serif" font-size="10.00">Character.cpp</text>
</a>
</g>
</g>
<!-- Node1&#45;&gt;Node3 -->
<g id="edge2_Node000001_Node000003" class="edge">
<title>Node1&#45;&gt;Node3</title>
<g id="a_edge2_Node000001_Node000003"><a xlink:title=" ">
<path fill="none" stroke="#63b8ff" d="M438.19,-139.42C406.96,-127.68 366.45,-112.47 337.38,-101.54"/>
<polygon fill="#63b8ff" stroke="#63b8ff" points="436.97,-142.7 447.56,-142.94 439.43,-136.14 436.97,-142.7"/>
</a>
</g>
</g>
<!-- Node4 -->
<g id="Node000004" class="node">
<title>Node4</title>
<g id="a_Node000004"><a xlink:href="OliveWatchGameMode_8cpp.html" target="_top" xlink:title=" ">
<polygon fill="white" stroke="#666666" points="568.5,-101.5 401.5,-101.5 401.5,-71.5 568.5,-71.5 568.5,-101.5"/>
<text text-anchor="start" x="409.5" y="-89.5" font-family="Helvetica,sans-Serif" font-size="10.00">Source/OliveWatch/OliveWatch</text>
<text text-anchor="middle" x="485" y="-78.5" font-family="Helvetica,sans-Serif" font-size="10.00">GameMode.cpp</text>
</a>
</g>
</g>
<!-- Node1&#45;&gt;Node4 -->
<g id="edge3_Node000001_Node000004" class="edge">
<title>Node1&#45;&gt;Node4</title>
<g id="a_edge3_Node000001_Node000004"><a xlink:title=" ">
<path fill="none" stroke="#63b8ff" d="M485,-132.75C485,-122.31 485,-110.49 485,-101.54"/>
<polygon fill="#63b8ff" stroke="#63b8ff" points="481.5,-132.94 485,-142.94 488.5,-132.94 481.5,-132.94"/>
</a>
</g>
</g>
<!-- Node5 -->
<g id="Node000005" class="node">
<title>Node5</title>
<g id="a_Node000005"><a xlink:href="OliveWatchPickUpComponent_8h.html" target="_top" xlink:title=" ">
<polygon fill="white" stroke="#666666" points="753.5,-101.5 586.5,-101.5 586.5,-71.5 753.5,-71.5 753.5,-101.5"/>
<text text-anchor="start" x="594.5" y="-89.5" font-family="Helvetica,sans-Serif" font-size="10.00">Source/OliveWatch/OliveWatch</text>
<text text-anchor="middle" x="670" y="-78.5" font-family="Helvetica,sans-Serif" font-size="10.00">PickUpComponent.h</text>
</a>
</g>
</g>
<!-- Node1&#45;&gt;Node5 -->
<g id="edge4_Node000001_Node000005" class="edge">
<title>Node1&#45;&gt;Node5</title>
<g id="a_edge4_Node000001_Node000005"><a xlink:title=" ">
<path fill="none" stroke="#63b8ff" d="M531.81,-139.42C563.04,-127.68 603.55,-112.47 632.62,-101.54"/>
<polygon fill="#63b8ff" stroke="#63b8ff" points="530.57,-136.14 522.44,-142.94 533.03,-142.7 530.57,-136.14"/>
</a>
</g>
</g>
<!-- Node7 -->
<g id="Node000007" class="node">
<title>Node7</title>
<g id="a_Node000007"><a xlink:href="OliveWatchWeaponComponent_8cpp.html" target="_top" xlink:title=" ">
<polygon fill="white" stroke="#666666" points="938.5,-101.5 771.5,-101.5 771.5,-71.5 938.5,-71.5 938.5,-101.5"/>
<text text-anchor="start" x="779.5" y="-89.5" font-family="Helvetica,sans-Serif" font-size="10.00">Source/OliveWatch/OliveWatch</text>
<text text-anchor="middle" x="855" y="-78.5" font-family="Helvetica,sans-Serif" font-size="10.00">WeaponComponent.cpp</text>
</a>
</g>
</g>
<!-- Node1&#45;&gt;Node7 -->
<g id="edge6_Node000001_Node000007" class="edge">
<title>Node1&#45;&gt;Node7</title>
<g id="a_edge6_Node000001_Node000007"><a xlink:title=" ">
<path fill="none" stroke="#63b8ff" d="M576.87,-141.21C631.1,-131.71 701.05,-119.13 763,-107 771.65,-105.31 780.75,-103.46 789.71,-101.6"/>
<polygon fill="#63b8ff" stroke="#63b8ff" points="576.18,-137.78 566.93,-142.95 577.38,-144.67 576.18,-137.78"/>
</a>
</g>
</g>
<!-- Node6 -->
<g id="Node000006" class="node">
<title>Node6</title>
<g id="a_Node000006"><a xlink:href="OliveWatchPickUpComponent_8cpp.html" target="_top" xlink:title=" ">
<polygon fill="white" stroke="#666666" points="753.5,-30 586.5,-30 586.5,0 753.5,0 753.5,-30"/>
<text text-anchor="start" x="594.5" y="-18" font-family="Helvetica,sans-Serif" font-size="10.00">Source/OliveWatch/OliveWatch</text>
<text text-anchor="middle" x="670" y="-7" font-family="Helvetica,sans-Serif" font-size="10.00">PickUpComponent.cpp</text>
</a>
</g>
</g>
<!-- Node5&#45;&gt;Node6 -->
<g id="edge5_Node000005_Node000006" class="edge">
<title>Node5&#45;&gt;Node6</title>
<g id="a_edge5_Node000005_Node000006"><a xlink:title=" ">
<path fill="none" stroke="#63b8ff" d="M670,-61.25C670,-50.81 670,-38.99 670,-30.04"/>
<polygon fill="#63b8ff" stroke="#63b8ff" points="666.5,-61.44 670,-71.44 673.5,-61.44 666.5,-61.44"/>
</a>
</g>
</g>
</g>
</svg>
