<?xml version="1.0" encoding="UTF-8" standalone="no"?>
<!DOCTYPE svg PUBLIC "-//W3C//DTD SVG 1.1//EN"
 "http://www.w3.org/Graphics/SVG/1.1/DTD/svg11.dtd">
<!-- Generated by graphviz version 2.43.0 (0)
 -->
<!-- Title: Source/OliveWatch/Character/OWCharacter.cpp Pages: 1 -->
<svg width="1509pt" height="159pt"
 viewBox="0.00 0.00 1508.50 159.00" xmlns="http://www.w3.org/2000/svg" xmlns:xlink="http://www.w3.org/1999/xlink">
<g id="graph0" class="graph" transform="scale(1 1) rotate(0) translate(4 155)">
<title>Source/OliveWatch/Character/OWCharacter.cpp</title>
<!-- Node1 -->
<g id="Node000001" class="node">
<title>Node1</title>
<g id="a_Node000001"><a xlink:title=" ">
<polygon fill="#999999" stroke="#666666" points="772.5,-151 614.5,-151 614.5,-121 772.5,-121 772.5,-151"/>
<text text-anchor="start" x="622.5" y="-139" font-family="Helvetica,sans-Serif" font-size="10.00">Source/OliveWatch/Character</text>
<text text-anchor="middle" x="693.5" y="-128" font-family="Helvetica,sans-Serif" font-size="10.00">/OWCharacter.cpp</text>
</a>
</g>
</g>
<!-- Node2 -->
<g id="Node000002" class="node">
<title>Node2</title>
<g id="a_Node000002"><a xlink:href="OWCharacter_8h.html" target="_top" xlink:title=" ">
<polygon fill="white" stroke="#666666" points="1173.5,-79.5 1033.5,-79.5 1033.5,-60.5 1173.5,-60.5 1173.5,-79.5"/>
<text text-anchor="middle" x="1103.5" y="-67.5" font-family="Helvetica,sans-Serif" font-size="10.00">Character/OWCharacter.h</text>
</a>
</g>
</g>
<!-- Node1&#45;&gt;Node2 -->
<g id="edge1_Node000001_Node000002" class="edge">
<title>Node1&#45;&gt;Node2</title>
<g id="a_edge1_Node000001_Node000002"><a xlink:title=" ">
<path fill="none" stroke="#63b8ff" d="M772.55,-122.66C849.96,-110.58 966.48,-92.39 1038.61,-81.13"/>
<polygon fill="#63b8ff" stroke="#63b8ff" points="1039.58,-84.52 1048.92,-79.52 1038.5,-77.6 1039.58,-84.52"/>
</a>
</g>
</g>
<!-- Node7 -->
<g id="Node000007" class="node">
<title>Node7</title>
<g id="a_Node000007"><a xlink:href="OWPlayerState_8h.html" target="_top" xlink:title=" ">
<polygon fill="white" stroke="#666666" points="485,-79.5 352,-79.5 352,-60.5 485,-60.5 485,-79.5"/>
<text text-anchor="middle" x="418.5" y="-67.5" font-family="Helvetica,sans-Serif" font-size="10.00">Player/OWPlayerState.h</text>
</a>
</g>
</g>
<!-- Node1&#45;&gt;Node7 -->
<g id="edge6_Node000001_Node000007" class="edge">
<title>Node1&#45;&gt;Node7</title>
<g id="a_edge6_Node000001_Node000007"><a xlink:title=" ">
<path fill="none" stroke="#63b8ff" d="M633.15,-120.95C582.48,-109.16 511.14,-92.56 464.86,-81.79"/>
<polygon fill="#63b8ff" stroke="#63b8ff" points="465.63,-78.38 455.1,-79.52 464.04,-85.19 465.63,-78.38"/>
</a>
</g>
</g>
<!-- Node11 -->
<g id="Node000011" class="node">
<title>Node11</title>
<g id="a_Node000011"><a xlink:href="OWAbilitySystemComponent_8h.html" target="_top" xlink:title=" ">
<polygon fill="white" stroke="#666666" points="780,-85 607,-85 607,-55 780,-55 780,-85"/>
<text text-anchor="start" x="615" y="-73" font-family="Helvetica,sans-Serif" font-size="10.00">AbilitySystem/OWAbilitySystem</text>
<text text-anchor="middle" x="693.5" y="-62" font-family="Helvetica,sans-Serif" font-size="10.00">Component.h</text>
</a>
</g>
</g>
<!-- Node1&#45;&gt;Node11 -->
<g id="edge11_Node000001_Node000011" class="edge">
<title>Node1&#45;&gt;Node11</title>
<g id="a_edge11_Node000001_Node000011"><a xlink:title=" ">
<path fill="none" stroke="#63b8ff" d="M693.5,-120.8C693.5,-113.34 693.5,-103.99 693.5,-95.41"/>
<polygon fill="#63b8ff" stroke="#63b8ff" points="697,-95.16 693.5,-85.16 690,-95.16 697,-95.16"/>
</a>
</g>
</g>
<!-- Node3 -->
<g id="Node000003" class="node">
<title>Node3</title>
<g id="a_Node000003"><a xlink:title=" ">
<polygon fill="#e0e0e0" stroke="#999999" points="600.5,-19 512.5,-19 512.5,0 600.5,0 600.5,-19"/>
<text text-anchor="middle" x="556.5" y="-7" font-family="Helvetica,sans-Serif" font-size="10.00">CoreMinimal.h</text>
</a>
</g>
</g>
<!-- Node2&#45;&gt;Node3 -->
<g id="edge2_Node000002_Node000003" class="edge">
<title>Node2&#45;&gt;Node3</title>
<g id="a_edge2_Node000002_Node000003"><a xlink:title=" ">
<path fill="none" stroke="#63b8ff" d="M1033.41,-63.2C939.58,-55.14 767.73,-39.38 611.02,-19.13"/>
<polygon fill="#63b8ff" stroke="#63b8ff" points="611.09,-15.61 600.72,-17.79 610.18,-22.55 611.09,-15.61"/>
</a>
</g>
</g>
<!-- Node4 -->
<g id="Node000004" class="node">
<title>Node4</title>
<g id="a_Node000004"><a xlink:title=" ">
<polygon fill="#e0e0e0" stroke="#999999" points="1183,-19 1024,-19 1024,0 1183,0 1183,-19"/>
<text text-anchor="middle" x="1103.5" y="-7" font-family="Helvetica,sans-Serif" font-size="10.00">GameFramework/Character.h</text>
</a>
</g>
</g>
<!-- Node2&#45;&gt;Node4 -->
<g id="edge3_Node000002_Node000004" class="edge">
<title>Node2&#45;&gt;Node4</title>
<g id="a_edge3_Node000002_Node000004"><a xlink:title=" ">
<path fill="none" stroke="#63b8ff" d="M1103.5,-60.37C1103.5,-52.25 1103.5,-39.81 1103.5,-29.39"/>
<polygon fill="#63b8ff" stroke="#63b8ff" points="1107,-29.17 1103.5,-19.17 1100,-29.17 1107,-29.17"/>
</a>
</g>
</g>
<!-- Node5 -->
<g id="Node000005" class="node">
<title>Node5</title>
<g id="a_Node000005"><a xlink:title=" ">
<polygon fill="#e0e0e0" stroke="#999999" points="1340,-19 1201,-19 1201,0 1340,0 1340,-19"/>
<text text-anchor="middle" x="1270.5" y="-7" font-family="Helvetica,sans-Serif" font-size="10.00">GameplayTagContainer.h</text>
</a>
</g>
</g>
<!-- Node2&#45;&gt;Node5 -->
<g id="edge4_Node000002_Node000005" class="edge">
<title>Node2&#45;&gt;Node5</title>
<g id="a_edge4_Node000002_Node000005"><a xlink:title=" ">
<path fill="none" stroke="#63b8ff" d="M1127.78,-60.49C1156.48,-50.44 1204.39,-33.66 1236.7,-22.34"/>
<polygon fill="#63b8ff" stroke="#63b8ff" points="1237.91,-25.63 1246.19,-19.02 1235.59,-19.02 1237.91,-25.63"/>
</a>
</g>
</g>
<!-- Node6 -->
<g id="Node000006" class="node">
<title>Node6</title>
<g id="a_Node000006"><a xlink:title=" ">
<polygon fill="#e0e0e0" stroke="#999999" points="1500.5,-19 1358.5,-19 1358.5,0 1500.5,0 1500.5,-19"/>
<text text-anchor="middle" x="1429.5" y="-7" font-family="Helvetica,sans-Serif" font-size="10.00">OWCharacter.generated.h</text>
</a>
</g>
</g>
<!-- Node2&#45;&gt;Node6 -->
<g id="edge5_Node000002_Node000006" class="edge">
<title>Node2&#45;&gt;Node6</title>
<g id="a_edge5_Node000002_Node000006"><a xlink:title=" ">
<path fill="none" stroke="#63b8ff" d="M1150.9,-60.49C1209.45,-49.99 1308.99,-32.12 1371.89,-20.84"/>
<polygon fill="#63b8ff" stroke="#63b8ff" points="1372.82,-24.23 1382.04,-19.02 1371.58,-17.34 1372.82,-24.23"/>
</a>
</g>
</g>
<!-- Node7&#45;&gt;Node3 -->
<g id="edge8_Node000007_Node000003" class="edge">
<title>Node7&#45;&gt;Node3</title>
<g id="a_edge8_Node000007_Node000003"><a xlink:title=" ">
<path fill="none" stroke="#63b8ff" d="M438.57,-60.49C461.87,-50.62 500.51,-34.23 527.18,-22.93"/>
<polygon fill="#63b8ff" stroke="#63b8ff" points="528.57,-26.14 536.41,-19.02 525.84,-19.7 528.57,-26.14"/>
</a>
</g>
</g>
<!-- Node8 -->
<g id="Node000008" class="node">
<title>Node8</title>
<g id="a_Node000008"><a xlink:title=" ">
<polygon fill="#e0e0e0" stroke="#999999" points="137,-19 0,-19 0,0 137,0 137,-19"/>
<text text-anchor="middle" x="68.5" y="-7" font-family="Helvetica,sans-Serif" font-size="10.00">AbilitySystemInterface.h</text>
</a>
</g>
</g>
<!-- Node7&#45;&gt;Node8 -->
<g id="edge7_Node000007_Node000008" class="edge">
<title>Node7&#45;&gt;Node8</title>
<g id="a_edge7_Node000007_Node000008"><a xlink:title=" ">
<path fill="none" stroke="#63b8ff" d="M367.61,-60.49C304.49,-49.94 197,-31.98 129.52,-20.7"/>
<polygon fill="#63b8ff" stroke="#63b8ff" points="129.89,-17.21 119.45,-19.02 128.74,-24.12 129.89,-17.21"/>
</a>
</g>
</g>
<!-- Node9 -->
<g id="Node000009" class="node">
<title>Node9</title>
<g id="a_Node000009"><a xlink:title=" ">
<polygon fill="#e0e0e0" stroke="#999999" points="324,-19 155,-19 155,0 324,0 324,-19"/>
<text text-anchor="middle" x="239.5" y="-7" font-family="Helvetica,sans-Serif" font-size="10.00">GameFramework/PlayerState.h</text>
</a>
</g>
</g>
<!-- Node7&#45;&gt;Node9 -->
<g id="edge9_Node000007_Node000009" class="edge">
<title>Node7&#45;&gt;Node9</title>
<g id="a_edge9_Node000007_Node000009"><a xlink:title=" ">
<path fill="none" stroke="#63b8ff" d="M392.47,-60.49C361.58,-50.4 309.92,-33.51 275.28,-22.19"/>
<polygon fill="#63b8ff" stroke="#63b8ff" points="276.15,-18.8 265.56,-19.02 273.98,-25.45 276.15,-18.8"/>
</a>
</g>
</g>
<!-- Node10 -->
<g id="Node000010" class="node">
<title>Node10</title>
<g id="a_Node000010"><a xlink:title=" ">
<polygon fill="#e0e0e0" stroke="#999999" points="494.5,-19 342.5,-19 342.5,0 494.5,0 494.5,-19"/>
<text text-anchor="middle" x="418.5" y="-7" font-family="Helvetica,sans-Serif" font-size="10.00">OWPlayerState.generated.h</text>
</a>
</g>
</g>
<!-- Node7&#45;&gt;Node10 -->
<g id="edge10_Node000007_Node000010" class="edge">
<title>Node7&#45;&gt;Node10</title>
<g id="a_edge10_Node000007_Node000010"><a xlink:title=" ">
<path fill="none" stroke="#63b8ff" d="M418.5,-60.37C418.5,-52.25 418.5,-39.81 418.5,-29.39"/>
<polygon fill="#63b8ff" stroke="#63b8ff" points="422,-29.17 418.5,-19.17 415,-29.17 422,-29.17"/>
</a>
</g>
</g>
<!-- Node11&#45;&gt;Node3 -->
<g id="edge12_Node000011_Node000003" class="edge">
<title>Node11&#45;&gt;Node3</title>
<g id="a_edge12_Node000011_Node000003"><a xlink:title=" ">
<path fill="none" stroke="#63b8ff" d="M660.69,-54.99C638.03,-45.31 608.15,-32.56 586.2,-23.18"/>
<polygon fill="#63b8ff" stroke="#63b8ff" points="587.3,-19.85 576.73,-19.14 584.55,-26.29 587.3,-19.85"/>
</a>
</g>
</g>
<!-- Node12 -->
<g id="Node000012" class="node">
<title>Node12</title>
<g id="a_Node000012"><a xlink:title=" ">
<polygon fill="#e0e0e0" stroke="#999999" points="768.5,-19 618.5,-19 618.5,0 768.5,0 768.5,-19"/>
<text text-anchor="middle" x="693.5" y="-7" font-family="Helvetica,sans-Serif" font-size="10.00">AbilitySystemComponent.h</text>
</a>
</g>
</g>
<!-- Node11&#45;&gt;Node12 -->
<g id="edge13_Node000011_Node000012" class="edge">
<title>Node11&#45;&gt;Node12</title>
<g id="a_edge13_Node000011_Node000012"><a xlink:title=" ">
<path fill="none" stroke="#63b8ff" d="M693.5,-54.84C693.5,-47.21 693.5,-37.7 693.5,-29.45"/>
<polygon fill="#63b8ff" stroke="#63b8ff" points="697,-29.27 693.5,-19.27 690,-29.27 697,-29.27"/>
</a>
</g>
</g>
<!-- Node13 -->
<g id="Node000013" class="node">
<title>Node13</title>
<g id="a_Node000013"><a xlink:title=" ">
<polygon fill="#e0e0e0" stroke="#999999" points="1006,-19 787,-19 787,0 1006,0 1006,-19"/>
<text text-anchor="middle" x="896.5" y="-7" font-family="Helvetica,sans-Serif" font-size="10.00">OWAbilitySystemComponent.generated.h</text>
</a>
</g>
</g>
<!-- Node11&#45;&gt;Node13 -->
<g id="edge14_Node000011_Node000013" class="edge">
<title>Node11&#45;&gt;Node13</title>
<g id="a_edge14_Node000011_Node000013"><a xlink:title=" ">
<path fill="none" stroke="#63b8ff" d="M742.12,-54.99C777.31,-44.85 824.26,-31.32 857.1,-21.85"/>
<polygon fill="#63b8ff" stroke="#63b8ff" points="858.18,-25.19 866.82,-19.05 856.24,-18.46 858.18,-25.19"/>
</a>
</g>
</g>
</g>
</svg>
