<?xml version="1.0" encoding="UTF-8" standalone="no"?>
<!DOCTYPE svg PUBLIC "-//W3C//DTD SVG 1.1//EN"
 "http://www.w3.org/Graphics/SVG/1.1/DTD/svg11.dtd">
<!-- Generated by graphviz version 2.43.0 (0)
 -->
<!-- Title: Source/OliveWatch/AbilitySystem/Effects/OWGameplayEffect.h Pages: 1 -->
<svg width="562pt" height="192pt"
 viewBox="0.00 0.00 561.50 192.00" xmlns="http://www.w3.org/2000/svg" xmlns:xlink="http://www.w3.org/1999/xlink">
<g id="graph0" class="graph" transform="scale(1 1) rotate(0) translate(4 188)">
<title>Source/OliveWatch/AbilitySystem/Effects/OWGameplayEffect.h</title>
<!-- Node1 -->
<g id="Node000001" class="node">
<title>Node1</title>
<g id="a_Node000001"><a xlink:title=" ">
<polygon fill="#999999" stroke="#666666" points="435,-184 238,-184 238,-154 435,-154 435,-184"/>
<text text-anchor="start" x="246" y="-172" font-family="Helvetica,sans-Serif" font-size="10.00">Source/OliveWatch/Ability</text>
<text text-anchor="middle" x="336.5" y="-161" font-family="Helvetica,sans-Serif" font-size="10.00">System/Effects/OWGameplayEffect.h</text>
</a>
</g>
</g>
<!-- Node2 -->
<g id="Node000002" class="node">
<title>Node2</title>
<g id="a_Node000002"><a xlink:href="OWCooldownGameplayEffect_8h.html" target="_top" xlink:title=" ">
<polygon fill="white" stroke="#666666" points="327.5,-118 119.5,-118 119.5,-77 327.5,-77 327.5,-118"/>
<text text-anchor="start" x="127.5" y="-106" font-family="Helvetica,sans-Serif" font-size="10.00">Source/OliveWatch/Ability</text>
<text text-anchor="start" x="127.5" y="-95" font-family="Helvetica,sans-Serif" font-size="10.00">System/Effects/OWCooldownGameplay</text>
<text text-anchor="middle" x="223.5" y="-84" font-family="Helvetica,sans-Serif" font-size="10.00">Effect.h</text>
</a>
</g>
</g>
<!-- Node1&#45;&gt;Node2 -->
<g id="edge1_Node000001_Node000002" class="edge">
<title>Node1&#45;&gt;Node2</title>
<g id="a_edge1_Node000001_Node000002"><a xlink:title=" ">
<path fill="none" stroke="#63b8ff" d="M304.93,-148.58C289.44,-139.06 270.84,-127.62 255.32,-118.07"/>
<polygon fill="#63b8ff" stroke="#63b8ff" points="303.28,-151.68 313.63,-153.94 306.95,-145.72 303.28,-151.68"/>
</a>
</g>
</g>
<!-- Node5 -->
<g id="Node000005" class="node">
<title>Node5</title>
<g id="a_Node000005"><a xlink:href="OWGameplayEffect_8cpp.html" target="_top" xlink:title=" ">
<polygon fill="white" stroke="#666666" points="553.5,-112.5 345.5,-112.5 345.5,-82.5 553.5,-82.5 553.5,-112.5"/>
<text text-anchor="start" x="353.5" y="-100.5" font-family="Helvetica,sans-Serif" font-size="10.00">Source/OliveWatch/Ability</text>
<text text-anchor="middle" x="449.5" y="-89.5" font-family="Helvetica,sans-Serif" font-size="10.00">System/Effects/OWGameplayEffect.cpp</text>
</a>
</g>
</g>
<!-- Node1&#45;&gt;Node5 -->
<g id="edge4_Node000001_Node000005" class="edge">
<title>Node1&#45;&gt;Node5</title>
<g id="a_edge4_Node000001_Node000005"><a xlink:title=" ">
<path fill="none" stroke="#63b8ff" d="M368.09,-148.57C386.71,-137.12 409.83,-122.9 426.67,-112.54"/>
<polygon fill="#63b8ff" stroke="#63b8ff" points="366.05,-145.72 359.37,-153.94 369.72,-151.68 366.05,-145.72"/>
</a>
</g>
</g>
<!-- Node3 -->
<g id="Node000003" class="node">
<title>Node3</title>
<g id="a_Node000003"><a xlink:href="OWGameplayAbility_8cpp.html" target="_top" xlink:title=" ">
<polygon fill="white" stroke="#666666" points="217,-35.5 0,-35.5 0,-5.5 217,-5.5 217,-35.5"/>
<text text-anchor="start" x="8" y="-23.5" font-family="Helvetica,sans-Serif" font-size="10.00">Source/OliveWatch/Ability</text>
<text text-anchor="middle" x="108.5" y="-12.5" font-family="Helvetica,sans-Serif" font-size="10.00">System/Abilities/OWGameplayAbility.cpp</text>
</a>
</g>
</g>
<!-- Node2&#45;&gt;Node3 -->
<g id="edge2_Node000002_Node000003" class="edge">
<title>Node2&#45;&gt;Node3</title>
<g id="a_edge2_Node000002_Node000003"><a xlink:title=" ">
<path fill="none" stroke="#63b8ff" d="M184.92,-71.34C166.71,-59.47 145.66,-45.74 130.27,-35.7"/>
<polygon fill="#63b8ff" stroke="#63b8ff" points="183.3,-74.46 193.59,-76.99 187.12,-68.6 183.3,-74.46"/>
</a>
</g>
</g>
<!-- Node4 -->
<g id="Node000004" class="node">
<title>Node4</title>
<g id="a_Node000004"><a xlink:href="OWCooldownGameplayEffect_8cpp.html" target="_top" xlink:title=" ">
<polygon fill="white" stroke="#666666" points="443.5,-41 235.5,-41 235.5,0 443.5,0 443.5,-41"/>
<text text-anchor="start" x="243.5" y="-29" font-family="Helvetica,sans-Serif" font-size="10.00">Source/OliveWatch/Ability</text>
<text text-anchor="start" x="243.5" y="-18" font-family="Helvetica,sans-Serif" font-size="10.00">System/Effects/OWCooldownGameplay</text>
<text text-anchor="middle" x="339.5" y="-7" font-family="Helvetica,sans-Serif" font-size="10.00">Effect.cpp</text>
</a>
</g>
</g>
<!-- Node2&#45;&gt;Node4 -->
<g id="edge3_Node000002_Node000004" class="edge">
<title>Node2&#45;&gt;Node4</title>
<g id="a_edge3_Node000002_Node000004"><a xlink:title=" ">
<path fill="none" stroke="#63b8ff" d="M262.37,-71.37C277.59,-61.53 294.79,-50.41 309.07,-41.17"/>
<polygon fill="#63b8ff" stroke="#63b8ff" points="260.17,-68.62 253.67,-76.99 263.97,-74.5 260.17,-68.62"/>
</a>
</g>
</g>
</g>
</svg>
