<?xml version="1.0" encoding="UTF-8" standalone="no"?>
<!DOCTYPE svg PUBLIC "-//W3C//DTD SVG 1.1//EN"
 "http://www.w3.org/Graphics/SVG/1.1/DTD/svg11.dtd">
<!-- Generated by graphviz version 2.43.0 (0)
 -->
<!-- Title: UOWGE_Sleep Pages: 1 -->
<svg width="121pt" height="242pt"
 viewBox="0.00 0.00 121.00 242.00" xmlns="http://www.w3.org/2000/svg" xmlns:xlink="http://www.w3.org/1999/xlink">
<g id="graph0" class="graph" transform="scale(1 1) rotate(0) translate(4 238)">
<title>UOWGE_Sleep</title>
<!-- Node1 -->
<g id="Node000001" class="node">
<title>Node1</title>
<g id="a_Node000001"><a xlink:title=" ">
<polygon fill="#999999" stroke="transparent" points="108,-64 5,-64 5,0 108,0 108,-64"/>
<text text-anchor="start" x="21.5" y="-52" font-family="Helvetica,sans-Serif" font-size="10.00">UOWGE_Sleep</text>
<text text-anchor="start" x="55" y="-37" font-family="Helvetica,sans-Serif" font-size="10.00"> </text>
<text text-anchor="start" x="9.5" y="-22" font-family="Helvetica,sans-Serif" font-size="10.00">+</text>
<text text-anchor="start" x="22.5" y="-22" font-family="Helvetica,sans-Serif" font-size="10.00">UOWGE_Sleep()</text>
<text text-anchor="start" x="9.5" y="-7" font-family="Helvetica,sans-Serif" font-size="10.00">+</text>
<text text-anchor="start" x="22.5" y="-7" font-family="Helvetica,sans-Serif" font-size="10.00">AddGrantedTag()</text>
<polygon fill="#666666" stroke="#666666" points="5.5,-47 5.5,-47 108.5,-47 108.5,-47 5.5,-47"/>
<polygon fill="#666666" stroke="#666666" points="5.5,-32 5.5,-32 108.5,-32 108.5,-32 5.5,-32"/>
<polygon fill="none" stroke="#666666" points="5,0 5,-64 108,-64 108,0 5,0"/>
</a>
</g>
</g>
<!-- Node2 -->
<g id="Node000002" class="node">
<title>Node2</title>
<g id="a_Node000002"><a xlink:href="classUOWGameplayEffect.html" target="_top" xlink:title=" ">
<polygon fill="white" stroke="transparent" points="113,-149 0,-149 0,-100 113,-100 113,-149"/>
<text text-anchor="start" x="5.5" y="-136.5" font-family="Helvetica,sans-Serif" font-size="10.00">UOWGameplayEffect</text>
<text text-anchor="start" x="55" y="-121.5" font-family="Helvetica,sans-Serif" font-size="10.00"> </text>
<text text-anchor="start" x="55" y="-106.5" font-family="Helvetica,sans-Serif" font-size="10.00"> </text>
<polygon fill="#bfbfbf" stroke="#bfbfbf" points="0.5,-131.5 0.5,-131.5 113.5,-131.5 113.5,-131.5 0.5,-131.5"/>
<polygon fill="#bfbfbf" stroke="#bfbfbf" points="0.5,-116.5 0.5,-116.5 113.5,-116.5 113.5,-116.5 0.5,-116.5"/>
<polygon fill="none" stroke="#bfbfbf" points="0,-100 0,-149 113,-149 113,-100 0,-100"/>
</a>
</g>
</g>
<!-- Node2&#45;&gt;Node1 -->
<g id="edge1_Node000001_Node000002" class="edge">
<title>Node2&#45;&gt;Node1</title>
<g id="a_edge1_Node000001_Node000002"><a xlink:title=" ">
<path fill="none" stroke="#63b8ff" d="M56.5,-89.54C56.5,-81.2 56.5,-72.31 56.5,-64.11"/>
<polygon fill="none" stroke="#63b8ff" points="53,-89.72 56.5,-99.72 60,-89.72 53,-89.72"/>
</a>
</g>
</g>
<!-- Node3 -->
<g id="Node000003" class="node">
<title>Node3</title>
<g id="a_Node000003"><a xlink:title=" ">
<polygon fill="white" stroke="transparent" points="104.5,-234 8.5,-234 8.5,-185 104.5,-185 104.5,-234"/>
<text text-anchor="start" x="13.5" y="-221.5" font-family="Helvetica,sans-Serif" font-size="10.00">UGameplayEffect</text>
<text text-anchor="start" x="54.5" y="-206.5" font-family="Helvetica,sans-Serif" font-size="10.00"> </text>
<text text-anchor="start" x="54.5" y="-191.5" font-family="Helvetica,sans-Serif" font-size="10.00"> </text>
<polygon fill="#bfbfbf" stroke="#bfbfbf" points="8.5,-216.5 8.5,-216.5 104.5,-216.5 104.5,-216.5 8.5,-216.5"/>
<polygon fill="#bfbfbf" stroke="#bfbfbf" points="8.5,-201.5 8.5,-201.5 104.5,-201.5 104.5,-201.5 8.5,-201.5"/>
<polygon fill="none" stroke="#bfbfbf" points="8.5,-185 8.5,-234 104.5,-234 104.5,-185 8.5,-185"/>
</a>
</g>
</g>
<!-- Node3&#45;&gt;Node2 -->
<g id="edge2_Node000002_Node000003" class="edge">
<title>Node3&#45;&gt;Node2</title>
<g id="a_edge2_Node000002_Node000003"><a xlink:title=" ">
<path fill="none" stroke="#63b8ff" d="M56.5,-174.77C56.5,-166.17 56.5,-157.1 56.5,-149.12"/>
<polygon fill="none" stroke="#63b8ff" points="53,-174.94 56.5,-184.94 60,-174.94 53,-174.94"/>
</a>
</g>
</g>
</g>
</svg>
