<?xml version="1.0" encoding="UTF-8" standalone="no"?>
<!DOCTYPE svg PUBLIC "-//W3C//DTD SVG 1.1//EN"
 "http://www.w3.org/Graphics/SVG/1.1/DTD/svg11.dtd">
<!-- Generated by graphviz version 2.43.0 (0)
 -->
<!-- Title: AOWMonster Pages: 1 -->
<svg width="195pt" height="422pt"
 viewBox="0.00 0.00 195.00 422.00" xmlns="http://www.w3.org/2000/svg" xmlns:xlink="http://www.w3.org/1999/xlink">
<g id="graph0" class="graph" transform="scale(1 1) rotate(0) translate(4 418)">
<title>AOWMonster</title>
<!-- Node1 -->
<g id="Node000001" class="node">
<title>Node1</title>
<g id="a_Node000001"><a xlink:title=" ">
<polygon fill="#999999" stroke="transparent" points="140,-64 47,-64 47,0 140,0 140,-64"/>
<text text-anchor="start" x="62" y="-52" font-family="Helvetica,sans-Serif" font-size="10.00">AOWMonster</text>
<text text-anchor="start" x="92" y="-37" font-family="Helvetica,sans-Serif" font-size="10.00"> </text>
<text text-anchor="start" x="51.5" y="-22" font-family="Helvetica,sans-Serif" font-size="10.00">+</text>
<text text-anchor="start" x="64.5" y="-22" font-family="Helvetica,sans-Serif" font-size="10.00">AOWMonster()</text>
<text text-anchor="start" x="51.5" y="-7" font-family="Helvetica,sans-Serif" font-size="10.00">#</text>
<text text-anchor="start" x="64.5" y="-7" font-family="Helvetica,sans-Serif" font-size="10.00">BeginPlay()</text>
<polygon fill="#666666" stroke="#666666" points="47.5,-47 47.5,-47 140.5,-47 140.5,-47 47.5,-47"/>
<polygon fill="#666666" stroke="#666666" points="47.5,-32 47.5,-32 140.5,-32 140.5,-32 47.5,-32"/>
<polygon fill="none" stroke="#666666" points="47,0 47,-64 140,-64 140,0 47,0"/>
</a>
</g>
</g>
<!-- Node2 -->
<g id="Node000002" class="node">
<title>Node2</title>
<g id="a_Node000002"><a xlink:href="classAOWCharacter.html" target="_top" xlink:title=" ">
<polygon fill="white" stroke="transparent" points="187,-329 0,-329 0,-100 187,-100 187,-329"/>
<text text-anchor="start" x="58" y="-316.5" font-family="Helvetica,sans-Serif" font-size="10.00">AOWCharacter</text>
<text text-anchor="start" x="4.5" y="-301.5" font-family="Helvetica,sans-Serif" font-size="10.00">+</text>
<text text-anchor="start" x="17.5" y="-301.5" font-family="Helvetica,sans-Serif" font-size="10.00">WeaponComponent</text>
<text text-anchor="start" x="4.5" y="-286.5" font-family="Helvetica,sans-Serif" font-size="10.00">#</text>
<text text-anchor="start" x="17.5" y="-286.5" font-family="Helvetica,sans-Serif" font-size="10.00">AbilitySystemComponent</text>
<text text-anchor="start" x="4.5" y="-271.5" font-family="Helvetica,sans-Serif" font-size="10.00">#</text>
<text text-anchor="start" x="17.5" y="-271.5" font-family="Helvetica,sans-Serif" font-size="10.00">FirstPersonCamera</text>
<text text-anchor="start" x="4.5" y="-256.5" font-family="Helvetica,sans-Serif" font-size="10.00">#</text>
<text text-anchor="start" x="17.5" y="-256.5" font-family="Helvetica,sans-Serif" font-size="10.00">AbilitySet</text>
<text text-anchor="start" x="4.5" y="-241.5" font-family="Helvetica,sans-Serif" font-size="10.00">+</text>
<text text-anchor="start" x="17.5" y="-241.5" font-family="Helvetica,sans-Serif" font-size="10.00">AOWCharacter()</text>
<text text-anchor="start" x="4.5" y="-226.5" font-family="Helvetica,sans-Serif" font-size="10.00">+</text>
<text text-anchor="start" x="17.5" y="-226.5" font-family="Helvetica,sans-Serif" font-size="10.00">Move()</text>
<text text-anchor="start" x="4.5" y="-211.5" font-family="Helvetica,sans-Serif" font-size="10.00">+</text>
<text text-anchor="start" x="17.5" y="-211.5" font-family="Helvetica,sans-Serif" font-size="10.00">Look()</text>
<text text-anchor="start" x="4.5" y="-196.5" font-family="Helvetica,sans-Serif" font-size="10.00">+</text>
<text text-anchor="start" x="17.5" y="-196.5" font-family="Helvetica,sans-Serif" font-size="10.00">ActivateAbility()</text>
<text text-anchor="start" x="4.5" y="-181.5" font-family="Helvetica,sans-Serif" font-size="10.00">+</text>
<text text-anchor="start" x="17.5" y="-181.5" font-family="Helvetica,sans-Serif" font-size="10.00">GetOWAbilitySet()</text>
<text text-anchor="start" x="4.5" y="-166.5" font-family="Helvetica,sans-Serif" font-size="10.00">+</text>
<text text-anchor="start" x="17.5" y="-166.5" font-family="Helvetica,sans-Serif" font-size="10.00">GetOWAbilitySystemComponent()</text>
<text text-anchor="start" x="4.5" y="-151.5" font-family="Helvetica,sans-Serif" font-size="10.00">+</text>
<text text-anchor="start" x="17.5" y="-151.5" font-family="Helvetica,sans-Serif" font-size="10.00">Jump()</text>
<text text-anchor="start" x="4.5" y="-136.5" font-family="Helvetica,sans-Serif" font-size="10.00">#</text>
<text text-anchor="start" x="17.5" y="-136.5" font-family="Helvetica,sans-Serif" font-size="10.00">BeginPlay()</text>
<text text-anchor="start" x="4.5" y="-121.5" font-family="Helvetica,sans-Serif" font-size="10.00">#</text>
<text text-anchor="start" x="17.5" y="-121.5" font-family="Helvetica,sans-Serif" font-size="10.00">PossessedBy()</text>
<text text-anchor="start" x="4.5" y="-106.5" font-family="Helvetica,sans-Serif" font-size="10.00">#</text>
<text text-anchor="start" x="17.5" y="-106.5" font-family="Helvetica,sans-Serif" font-size="10.00">OnRep_PlayerState()</text>
<polygon fill="#bfbfbf" stroke="#bfbfbf" points="0.5,-311.5 0.5,-311.5 187.5,-311.5 187.5,-311.5 0.5,-311.5"/>
<polygon fill="#bfbfbf" stroke="#bfbfbf" points="0.5,-251.5 0.5,-251.5 15.5,-251.5 15.5,-251.5 0.5,-251.5"/>
<polygon fill="#bfbfbf" stroke="#bfbfbf" points="15.5,-251.5 15.5,-251.5 187.5,-251.5 187.5,-251.5 15.5,-251.5"/>
<polygon fill="none" stroke="#bfbfbf" points="0,-100 0,-329 187,-329 187,-100 0,-100"/>
</a>
</g>
</g>
<!-- Node2&#45;&gt;Node1 -->
<g id="edge1_Node000001_Node000002" class="edge">
<title>Node2&#45;&gt;Node1</title>
<g id="a_edge1_Node000001_Node000002"><a xlink:title=" ">
<path fill="none" stroke="#63b8ff" d="M93.5,-89.77C93.5,-80.56 93.5,-71.89 93.5,-64.23"/>
<polygon fill="none" stroke="#63b8ff" points="90,-89.95 93.5,-99.96 97,-89.96 90,-89.95"/>
</a>
</g>
</g>
<!-- Node3 -->
<g id="Node000003" class="node">
<title>Node3</title>
<g id="a_Node000003"><a xlink:title=" ">
<polygon fill="white" stroke="transparent" points="126,-414 61,-414 61,-365 126,-365 126,-414"/>
<text text-anchor="start" x="66.5" y="-401.5" font-family="Helvetica,sans-Serif" font-size="10.00">ACharacter</text>
<text text-anchor="start" x="92" y="-386.5" font-family="Helvetica,sans-Serif" font-size="10.00"> </text>
<text text-anchor="start" x="92" y="-371.5" font-family="Helvetica,sans-Serif" font-size="10.00"> </text>
<polygon fill="#bfbfbf" stroke="#bfbfbf" points="61.5,-396.5 61.5,-396.5 126.5,-396.5 126.5,-396.5 61.5,-396.5"/>
<polygon fill="#bfbfbf" stroke="#bfbfbf" points="61.5,-381.5 61.5,-381.5 126.5,-381.5 126.5,-381.5 61.5,-381.5"/>
<polygon fill="none" stroke="#bfbfbf" points="61,-365 61,-414 126,-414 126,-365 61,-365"/>
</a>
</g>
</g>
<!-- Node3&#45;&gt;Node2 -->
<g id="edge2_Node000002_Node000003" class="edge">
<title>Node3&#45;&gt;Node2</title>
<g id="a_edge2_Node000002_Node000003"><a xlink:title=" ">
<path fill="none" stroke="#63b8ff" d="M93.5,-354.77C93.5,-346.96 93.5,-338.21 93.5,-329.01"/>
<polygon fill="none" stroke="#63b8ff" points="90,-354.81 93.5,-364.81 97,-354.81 90,-354.81"/>
</a>
</g>
</g>
</g>
</svg>
