<?xml version="1.0" encoding="UTF-8" standalone="no"?>
<!DOCTYPE svg PUBLIC "-//W3C//DTD SVG 1.1//EN"
 "http://www.w3.org/Graphics/SVG/1.1/DTD/svg11.dtd">
<!-- Generated by graphviz version 2.43.0 (0)
 -->
<!-- Title: UOWGameplayAbility Pages: 1 -->
<svg width="532pt" height="302pt"
 viewBox="0.00 0.00 532.00 302.00" xmlns="http://www.w3.org/2000/svg" xmlns:xlink="http://www.w3.org/1999/xlink">
<g id="graph0" class="graph" transform="scale(1 1) rotate(0) translate(4 298)">
<title>UOWGameplayAbility</title>
<!-- Node1 -->
<g id="Node000001" class="node">
<title>Node1</title>
<g id="a_Node000001"><a xlink:title=" ">
<polygon fill="#999999" stroke="transparent" points="313,-209 177,-209 177,-160 313,-160 313,-209"/>
<text text-anchor="start" x="191.5" y="-196.5" font-family="Helvetica,sans-Serif" font-size="10.00">UOWGameplayAbility</text>
<text text-anchor="start" x="243" y="-181.5" font-family="Helvetica,sans-Serif" font-size="10.00"> </text>
<text text-anchor="start" x="181" y="-166.5" font-family="Helvetica,sans-Serif" font-size="10.00">+</text>
<text text-anchor="start" x="194" y="-166.5" font-family="Helvetica,sans-Serif" font-size="10.00">UOWGameplayAbility()</text>
<polygon fill="#666666" stroke="#666666" points="177,-191.5 177,-191.5 313,-191.5 313,-191.5 177,-191.5"/>
<polygon fill="#666666" stroke="#666666" points="177,-176.5 177,-176.5 313,-176.5 313,-176.5 177,-176.5"/>
<polygon fill="none" stroke="#666666" points="177,-160 177,-209 313,-209 313,-160 177,-160"/>
</a>
</g>
</g>
<!-- Node3 -->
<g id="Node000003" class="node">
<title>Node3</title>
<g id="a_Node000003"><a xlink:href="classUOWGA__Active.html" target="_top" xlink:title=" ">
<polygon fill="white" stroke="transparent" points="120,-124 0,-124 0,0 120,0 120,-124"/>
<text text-anchor="start" x="22" y="-112" font-family="Helvetica,sans-Serif" font-size="10.00">UOWGA_Active</text>
<text text-anchor="start" x="4" y="-97" font-family="Helvetica,sans-Serif" font-size="10.00">#</text>
<text text-anchor="start" x="17" y="-97" font-family="Helvetica,sans-Serif" font-size="10.00">CooldownDuration</text>
<text text-anchor="start" x="4" y="-82" font-family="Helvetica,sans-Serif" font-size="10.00">#</text>
<text text-anchor="start" x="17" y="-82" font-family="Helvetica,sans-Serif" font-size="10.00">CooldownTags</text>
<text text-anchor="start" x="4" y="-67" font-family="Helvetica,sans-Serif" font-size="10.00">+</text>
<text text-anchor="start" x="17" y="-67" font-family="Helvetica,sans-Serif" font-size="10.00">UOWGA_Active()</text>
<text text-anchor="start" x="4" y="-52" font-family="Helvetica,sans-Serif" font-size="10.00">+</text>
<text text-anchor="start" x="17" y="-52" font-family="Helvetica,sans-Serif" font-size="10.00">SetCooldownData()</text>
<text text-anchor="start" x="4" y="-37" font-family="Helvetica,sans-Serif" font-size="10.00">+</text>
<text text-anchor="start" x="17" y="-37" font-family="Helvetica,sans-Serif" font-size="10.00">ActivateAbility()</text>
<text text-anchor="start" x="4" y="-22" font-family="Helvetica,sans-Serif" font-size="10.00">+</text>
<text text-anchor="start" x="17" y="-22" font-family="Helvetica,sans-Serif" font-size="10.00">ApplyCooldown()</text>
<text text-anchor="start" x="4" y="-7" font-family="Helvetica,sans-Serif" font-size="10.00">+</text>
<text text-anchor="start" x="17" y="-7" font-family="Helvetica,sans-Serif" font-size="10.00">CanActivateAbility()</text>
<polygon fill="#666666" stroke="#666666" points="0,-107 0,-107 120,-107 120,-107 0,-107"/>
<polygon fill="#666666" stroke="#666666" points="0,-77 0,-77 15,-77 15,-77 0,-77"/>
<polygon fill="#666666" stroke="#666666" points="15,-77 15,-77 120,-77 120,-77 15,-77"/>
<polygon fill="none" stroke="#666666" points="0,0 0,-124 120,-124 120,0 0,0"/>
</a>
</g>
</g>
<!-- Node1&#45;&gt;Node3 -->
<g id="edge2_Node000001_Node000003" class="edge">
<title>Node1&#45;&gt;Node3</title>
<g id="a_edge2_Node000001_Node000003"><a xlink:title=" ">
<path fill="none" stroke="#63b8ff" d="M183.06,-155.33C165.09,-146.21 145.79,-135.46 129,-124 126.09,-122.02 123.18,-119.92 120.28,-117.76"/>
<polygon fill="none" stroke="#63b8ff" points="181.8,-158.61 192.31,-159.94 184.93,-152.35 181.8,-158.61"/>
</a>
</g>
</g>
<!-- Node4 -->
<g id="Node000004" class="node">
<title>Node4</title>
<g id="a_Node000004"><a xlink:href="classUOWGA__Passive.html" target="_top" xlink:title=" ">
<polygon fill="white" stroke="transparent" points="230,-86.5 138,-86.5 138,-37.5 230,-37.5 230,-86.5"/>
<text text-anchor="start" x="143" y="-74" font-family="Helvetica,sans-Serif" font-size="10.00">UOWGA_Passive</text>
<text text-anchor="start" x="182" y="-59" font-family="Helvetica,sans-Serif" font-size="10.00"> </text>
<text text-anchor="start" x="182" y="-44" font-family="Helvetica,sans-Serif" font-size="10.00"> </text>
<polygon fill="#666666" stroke="#666666" points="138,-69 138,-69 230,-69 230,-69 138,-69"/>
<polygon fill="#666666" stroke="#666666" points="138,-54 138,-54 230,-54 230,-54 138,-54"/>
<polygon fill="none" stroke="#666666" points="138,-37.5 138,-86.5 230,-86.5 230,-37.5 138,-37.5"/>
</a>
</g>
</g>
<!-- Node1&#45;&gt;Node4 -->
<g id="edge3_Node000001_Node000004" class="edge">
<title>Node1&#45;&gt;Node4</title>
<g id="a_edge3_Node000001_Node000004"><a xlink:title=" ">
<path fill="none" stroke="#63b8ff" d="M228.46,-150.83C218.24,-130.64 205.35,-105.18 196.08,-86.87"/>
<polygon fill="none" stroke="#63b8ff" points="225.45,-152.64 233.09,-159.98 231.7,-149.48 225.45,-152.64"/>
</a>
</g>
</g>
<!-- Node5 -->
<g id="Node000005" class="node">
<title>Node5</title>
<g id="a_Node000005"><a xlink:href="classUOWGA__Ultimate.html" target="_top" xlink:title=" ">
<polygon fill="white" stroke="transparent" points="364,-109 248,-109 248,-15 364,-15 364,-109"/>
<text text-anchor="start" x="262" y="-97" font-family="Helvetica,sans-Serif" font-size="10.00">UOWGA_Ultimate</text>
<text text-anchor="start" x="252" y="-82" font-family="Helvetica,sans-Serif" font-size="10.00">#</text>
<text text-anchor="start" x="265" y="-82" font-family="Helvetica,sans-Serif" font-size="10.00">UltCost</text>
<text text-anchor="start" x="252" y="-67" font-family="Helvetica,sans-Serif" font-size="10.00">+</text>
<text text-anchor="start" x="265" y="-67" font-family="Helvetica,sans-Serif" font-size="10.00">UOWGA_Ultimate()</text>
<text text-anchor="start" x="252" y="-52" font-family="Helvetica,sans-Serif" font-size="10.00">+</text>
<text text-anchor="start" x="265" y="-52" font-family="Helvetica,sans-Serif" font-size="10.00">CheckCost()</text>
<text text-anchor="start" x="252" y="-37" font-family="Helvetica,sans-Serif" font-size="10.00">+</text>
<text text-anchor="start" x="265" y="-37" font-family="Helvetica,sans-Serif" font-size="10.00">ApplyCost()</text>
<text text-anchor="start" x="252" y="-22" font-family="Helvetica,sans-Serif" font-size="10.00">+</text>
<text text-anchor="start" x="265" y="-22" font-family="Helvetica,sans-Serif" font-size="10.00">ActivateAbility()</text>
<polygon fill="#666666" stroke="#666666" points="248,-92 248,-92 364,-92 364,-92 248,-92"/>
<polygon fill="#666666" stroke="#666666" points="248,-77 248,-77 263,-77 263,-77 248,-77"/>
<polygon fill="#666666" stroke="#666666" points="263,-77 263,-77 364,-77 364,-77 263,-77"/>
<polygon fill="none" stroke="#666666" points="248,-15 248,-109 364,-109 364,-15 248,-15"/>
</a>
</g>
</g>
<!-- Node1&#45;&gt;Node5 -->
<g id="edge4_Node000001_Node000005" class="edge">
<title>Node1&#45;&gt;Node5</title>
<g id="a_edge4_Node000001_Node000005"><a xlink:title=" ">
<path fill="none" stroke="#63b8ff" d="M261.6,-150.71C268.04,-137.99 275.53,-123.19 282.51,-109.41"/>
<polygon fill="none" stroke="#63b8ff" points="258.3,-149.48 256.91,-159.98 264.55,-152.64 258.3,-149.48"/>
</a>
</g>
</g>
<!-- Node6 -->
<g id="Node000006" class="node">
<title>Node6</title>
<g id="a_Node000006"><a xlink:href="classUOWGameplayAbility__Test.html" target="_top" xlink:title=" ">
<polygon fill="white" stroke="transparent" points="524,-101.5 382,-101.5 382,-22.5 524,-22.5 524,-101.5"/>
<text text-anchor="start" x="387" y="-89" font-family="Helvetica,sans-Serif" font-size="10.00">UOWGameplayAbility_Test</text>
<text text-anchor="start" x="451" y="-74" font-family="Helvetica,sans-Serif" font-size="10.00"> </text>
<text text-anchor="start" x="391.5" y="-59" font-family="Helvetica,sans-Serif" font-size="10.00">#</text>
<text text-anchor="start" x="410" y="-59" font-family="Helvetica,sans-Serif" font-size="10.00">CanActivateAbility()</text>
<text text-anchor="start" x="391.5" y="-44" font-family="Helvetica,sans-Serif" font-size="10.00">#</text>
<text text-anchor="start" x="410" y="-44" font-family="Helvetica,sans-Serif" font-size="10.00">ActivateAbility()</text>
<text text-anchor="start" x="391.5" y="-29" font-family="Helvetica,sans-Serif" font-size="10.00">#</text>
<text text-anchor="start" x="410" y="-29" font-family="Helvetica,sans-Serif" font-size="10.00">EndAbility()</text>
<polygon fill="#666666" stroke="#666666" points="382,-84 382,-84 524,-84 524,-84 382,-84"/>
<polygon fill="#666666" stroke="#666666" points="382,-69 382,-69 524,-69 524,-69 382,-69"/>
<polygon fill="none" stroke="#666666" points="382,-22.5 382,-101.5 524,-101.5 524,-22.5 382,-22.5"/>
</a>
</g>
</g>
<!-- Node1&#45;&gt;Node6 -->
<g id="edge5_Node000001_Node000006" class="edge">
<title>Node1&#45;&gt;Node6</title>
<g id="a_edge5_Node000001_Node000006"><a xlink:title=" ">
<path fill="none" stroke="#63b8ff" d="M311.58,-155.86C331.78,-146.6 353.72,-135.65 373,-124 384.06,-117.32 395.42,-109.4 405.97,-101.52"/>
<polygon fill="none" stroke="#63b8ff" points="310.11,-152.68 302.44,-159.99 312.99,-159.06 310.11,-152.68"/>
</a>
</g>
</g>
<!-- Node2 -->
<g id="Node000002" class="node">
<title>Node2</title>
<g id="a_Node000002"><a xlink:title=" ">
<polygon fill="white" stroke="transparent" points="295,-294 195,-294 195,-245 295,-245 295,-294"/>
<text text-anchor="start" x="200" y="-281.5" font-family="Helvetica,sans-Serif" font-size="10.00">UGameplayAbility</text>
<text text-anchor="start" x="243" y="-266.5" font-family="Helvetica,sans-Serif" font-size="10.00"> </text>
<text text-anchor="start" x="243" y="-251.5" font-family="Helvetica,sans-Serif" font-size="10.00"> </text>
<polygon fill="#666666" stroke="#666666" points="195,-276.5 195,-276.5 295,-276.5 295,-276.5 195,-276.5"/>
<polygon fill="#666666" stroke="#666666" points="195,-261.5 195,-261.5 295,-261.5 295,-261.5 195,-261.5"/>
<polygon fill="none" stroke="#666666" points="195,-245 195,-294 295,-294 295,-245 195,-245"/>
</a>
</g>
</g>
<!-- Node2&#45;&gt;Node1 -->
<g id="edge1_Node000001_Node000002" class="edge">
<title>Node2&#45;&gt;Node1</title>
<g id="a_edge1_Node000001_Node000002"><a xlink:title=" ">
<path fill="none" stroke="#63b8ff" d="M245,-234.77C245,-226.17 245,-217.1 245,-209.12"/>
<polygon fill="none" stroke="#63b8ff" points="241.5,-234.94 245,-244.94 248.5,-234.94 241.5,-234.94"/>
</a>
</g>
</g>
</g>
</svg>
