<?xml version="1.0" encoding="UTF-8" standalone="no"?>
<!DOCTYPE svg PUBLIC "-//W3C//DTD SVG 1.1//EN"
 "http://www.w3.org/Graphics/SVG/1.1/DTD/svg11.dtd">
<!-- Generated by graphviz version 2.43.0 (0)
 -->
<!-- Title: Source/OliveWatch/OliveWatchWeaponComponent.cpp Pages: 1 -->
<svg width="2278pt" height="148pt"
 viewBox="0.00 0.00 2278.00 148.00" xmlns="http://www.w3.org/2000/svg" xmlns:xlink="http://www.w3.org/1999/xlink">
<g id="graph0" class="graph" transform="scale(1 1) rotate(0) translate(4 144)">
<title>Source/OliveWatch/OliveWatchWeaponComponent.cpp</title>
<!-- Node1 -->
<g id="Node000001" class="node">
<title>Node1</title>
<g id="a_Node000001"><a xlink:title=" ">
<polygon fill="#999999" stroke="#666666" points="1526,-140 1359,-140 1359,-110 1526,-110 1526,-140"/>
<text text-anchor="start" x="1367" y="-128" font-family="Helvetica,sans-Serif" font-size="10.00">Source/OliveWatch/OliveWatch</text>
<text text-anchor="middle" x="1442.5" y="-117" font-family="Helvetica,sans-Serif" font-size="10.00">WeaponComponent.cpp</text>
</a>
</g>
</g>
<!-- Node2 -->
<g id="Node000002" class="node">
<title>Node2</title>
<g id="a_Node000002"><a xlink:href="OliveWatchWeaponComponent_8h.html" target="_top" xlink:title=" ">
<polygon fill="white" stroke="#666666" points="945.5,-74 769.5,-74 769.5,-55 945.5,-55 945.5,-74"/>
<text text-anchor="middle" x="857.5" y="-62" font-family="Helvetica,sans-Serif" font-size="10.00">OliveWatchWeaponComponent.h</text>
</a>
</g>
</g>
<!-- Node1&#45;&gt;Node2 -->
<g id="edge1_Node000001_Node000002" class="edge">
<title>Node1&#45;&gt;Node2</title>
<g id="a_edge1_Node000001_Node000002"><a xlink:title=" ">
<path fill="none" stroke="#63b8ff" d="M1358.99,-115.65C1251.59,-104.91 1065.48,-86.3 952.69,-75.02"/>
<polygon fill="#63b8ff" stroke="#63b8ff" points="952.98,-71.53 942.68,-74.02 952.29,-78.5 952.98,-71.53"/>
</a>
</g>
</g>
<!-- Node6 -->
<g id="Node000006" class="node">
<title>Node6</title>
<g id="a_Node000006"><a xlink:href="OliveWatchCharacter_8h.html" target="_top" xlink:title=" ">
<polygon fill="white" stroke="#666666" points="468.5,-74 340.5,-74 340.5,-55 468.5,-55 468.5,-74"/>
<text text-anchor="middle" x="404.5" y="-62" font-family="Helvetica,sans-Serif" font-size="10.00">OliveWatchCharacter.h</text>
</a>
</g>
</g>
<!-- Node1&#45;&gt;Node6 -->
<g id="edge5_Node000001_Node000006" class="edge">
<title>Node1&#45;&gt;Node6</title>
<g id="a_edge5_Node000001_Node000006"><a xlink:title=" ">
<path fill="none" stroke="#63b8ff" d="M1358.87,-119.29C1160.98,-108.13 666.49,-80.27 478.56,-69.67"/>
<polygon fill="#63b8ff" stroke="#63b8ff" points="478.69,-66.18 468.5,-69.11 478.29,-73.16 478.69,-66.18"/>
</a>
</g>
</g>
<!-- Node10 -->
<g id="Node000010" class="node">
<title>Node10</title>
<g id="a_Node000010"><a xlink:href="OliveWatchProjectile_8h.html" target="_top" xlink:title=" ">
<polygon fill="white" stroke="#666666" points="751,-74 624,-74 624,-55 751,-55 751,-74"/>
<text text-anchor="middle" x="687.5" y="-62" font-family="Helvetica,sans-Serif" font-size="10.00">OliveWatchProjectile.h</text>
</a>
</g>
</g>
<!-- Node1&#45;&gt;Node10 -->
<g id="edge10_Node000001_Node000010" class="edge">
<title>Node1&#45;&gt;Node10</title>
<g id="a_edge10_Node000001_Node000010"><a xlink:title=" ">
<path fill="none" stroke="#63b8ff" d="M1358.94,-119.03C1232.21,-111.23 983.57,-94.93 761.41,-74.04"/>
<polygon fill="#63b8ff" stroke="#63b8ff" points="761.47,-70.53 751.18,-73.08 760.81,-77.5 761.47,-70.53"/>
</a>
</g>
</g>
<!-- Node13 -->
<g id="Node000013" class="node">
<title>Node13</title>
<g id="a_Node000013"><a xlink:title=" ">
<polygon fill="#e0e0e0" stroke="#999999" points="1155,-74 964,-74 964,-55 1155,-55 1155,-74"/>
<text text-anchor="middle" x="1059.5" y="-62" font-family="Helvetica,sans-Serif" font-size="10.00">GameFramework/PlayerController.h</text>
</a>
</g>
</g>
<!-- Node1&#45;&gt;Node13 -->
<g id="edge14_Node000001_Node000013" class="edge">
<title>Node1&#45;&gt;Node13</title>
<g id="a_edge14_Node000001_Node000013"><a xlink:title=" ">
<path fill="none" stroke="#63b8ff" d="M1358.92,-111.23C1288.83,-100.53 1190.09,-85.45 1125.46,-75.57"/>
<polygon fill="#63b8ff" stroke="#63b8ff" points="1125.8,-72.09 1115.39,-74.04 1124.74,-79.01 1125.8,-72.09"/>
</a>
</g>
</g>
<!-- Node14 -->
<g id="Node000014" class="node">
<title>Node14</title>
<g id="a_Node000014"><a xlink:title=" ">
<polygon fill="#e0e0e0" stroke="#999999" points="1351.5,-74 1173.5,-74 1173.5,-55 1351.5,-55 1351.5,-74"/>
<text text-anchor="middle" x="1262.5" y="-62" font-family="Helvetica,sans-Serif" font-size="10.00">Camera/PlayerCameraManager.h</text>
</a>
</g>
</g>
<!-- Node1&#45;&gt;Node14 -->
<g id="edge15_Node000001_Node000014" class="edge">
<title>Node1&#45;&gt;Node14</title>
<g id="a_edge15_Node000001_Node000014"><a xlink:title=" ">
<path fill="none" stroke="#63b8ff" d="M1399.39,-109.99C1368.59,-99.98 1327.63,-86.67 1298.57,-77.22"/>
<polygon fill="#63b8ff" stroke="#63b8ff" points="1299.41,-73.82 1288.82,-74.05 1297.25,-80.47 1299.41,-73.82"/>
</a>
</g>
</g>
<!-- Node15 -->
<g id="Node000015" class="node">
<title>Node15</title>
<g id="a_Node000015"><a xlink:title=" ">
<polygon fill="#e0e0e0" stroke="#999999" points="1515.5,-74 1369.5,-74 1369.5,-55 1515.5,-55 1515.5,-74"/>
<text text-anchor="middle" x="1442.5" y="-62" font-family="Helvetica,sans-Serif" font-size="10.00">Kismet/GameplayStatics.h</text>
</a>
</g>
</g>
<!-- Node1&#45;&gt;Node15 -->
<g id="edge16_Node000001_Node000015" class="edge">
<title>Node1&#45;&gt;Node15</title>
<g id="a_edge16_Node000001_Node000015"><a xlink:title=" ">
<path fill="none" stroke="#63b8ff" d="M1442.5,-109.84C1442.5,-102.21 1442.5,-92.7 1442.5,-84.45"/>
<polygon fill="#63b8ff" stroke="#63b8ff" points="1446,-84.27 1442.5,-74.27 1439,-84.27 1446,-84.27"/>
</a>
</g>
</g>
<!-- Node16 -->
<g id="Node000016" class="node">
<title>Node16</title>
<g id="a_Node000016"><a xlink:title=" ">
<polygon fill="#e0e0e0" stroke="#999999" points="1687.5,-74 1533.5,-74 1533.5,-55 1687.5,-55 1687.5,-74"/>
<text text-anchor="middle" x="1610.5" y="-62" font-family="Helvetica,sans-Serif" font-size="10.00">EnhancedInputComponent.h</text>
</a>
</g>
</g>
<!-- Node1&#45;&gt;Node16 -->
<g id="edge17_Node000001_Node000016" class="edge">
<title>Node1&#45;&gt;Node16</title>
<g id="a_edge17_Node000001_Node000016"><a xlink:title=" ">
<path fill="none" stroke="#63b8ff" d="M1482.74,-109.99C1511.27,-100.05 1549.15,-86.86 1576.23,-77.43"/>
<polygon fill="#63b8ff" stroke="#63b8ff" points="1577.4,-80.73 1585.69,-74.14 1575.1,-74.12 1577.4,-80.73"/>
</a>
</g>
</g>
<!-- Node17 -->
<g id="Node000017" class="node">
<title>Node17</title>
<g id="a_Node000017"><a xlink:title=" ">
<polygon fill="#e0e0e0" stroke="#999999" points="1863,-74 1706,-74 1706,-55 1863,-55 1863,-74"/>
<text text-anchor="middle" x="1784.5" y="-62" font-family="Helvetica,sans-Serif" font-size="10.00">EnhancedInputSubsystems.h</text>
</a>
</g>
</g>
<!-- Node1&#45;&gt;Node17 -->
<g id="edge18_Node000001_Node000017" class="edge">
<title>Node1&#45;&gt;Node17</title>
<g id="a_edge18_Node000001_Node000017"><a xlink:title=" ">
<path fill="none" stroke="#63b8ff" d="M1524.42,-109.99C1586.09,-99.44 1669.2,-85.22 1724.71,-75.73"/>
<polygon fill="#63b8ff" stroke="#63b8ff" points="1725.48,-79.15 1734.74,-74.01 1724.3,-72.25 1725.48,-79.15"/>
</a>
</g>
</g>
<!-- Node18 -->
<g id="Node000018" class="node">
<title>Node18</title>
<g id="a_Node000018"><a xlink:title=" ">
<polygon fill="#e0e0e0" stroke="#999999" points="2027.5,-74 1881.5,-74 1881.5,-55 2027.5,-55 2027.5,-74"/>
<text text-anchor="middle" x="1954.5" y="-62" font-family="Helvetica,sans-Serif" font-size="10.00">Animation/AnimInstance.h</text>
</a>
</g>
</g>
<!-- Node1&#45;&gt;Node18 -->
<g id="edge19_Node000001_Node000018" class="edge">
<title>Node1&#45;&gt;Node18</title>
<g id="a_edge19_Node000001_Node000018"><a xlink:title=" ">
<path fill="none" stroke="#63b8ff" d="M1526.19,-114.44C1621.39,-103.56 1775.93,-85.9 1871.03,-75.04"/>
<polygon fill="#63b8ff" stroke="#63b8ff" points="1871.65,-78.49 1881.19,-73.88 1870.85,-71.53 1871.65,-78.49"/>
</a>
</g>
</g>
<!-- Node19 -->
<g id="Node000019" class="node">
<title>Node19</title>
<g id="a_Node000019"><a xlink:title=" ">
<polygon fill="#e0e0e0" stroke="#999999" points="2163,-74 2046,-74 2046,-55 2163,-55 2163,-74"/>
<text text-anchor="middle" x="2104.5" y="-62" font-family="Helvetica,sans-Serif" font-size="10.00">Engine/LocalPlayer.h</text>
</a>
</g>
</g>
<!-- Node1&#45;&gt;Node19 -->
<g id="edge20_Node000001_Node000019" class="edge">
<title>Node1&#45;&gt;Node19</title>
<g id="a_edge20_Node000001_Node000019"><a xlink:title=" ">
<path fill="none" stroke="#63b8ff" d="M1526.22,-118.02C1639.29,-109.71 1847.35,-93.57 2035.82,-74.03"/>
<polygon fill="#63b8ff" stroke="#63b8ff" points="2036.33,-77.49 2045.91,-72.98 2035.6,-70.53 2036.33,-77.49"/>
</a>
</g>
</g>
<!-- Node20 -->
<g id="Node000020" class="node">
<title>Node20</title>
<g id="a_Node000020"><a xlink:title=" ">
<polygon fill="#e0e0e0" stroke="#999999" points="2270,-74 2181,-74 2181,-55 2270,-55 2270,-74"/>
<text text-anchor="middle" x="2225.5" y="-62" font-family="Helvetica,sans-Serif" font-size="10.00">Engine/World.h</text>
</a>
</g>
</g>
<!-- Node1&#45;&gt;Node20 -->
<g id="edge21_Node000001_Node000020" class="edge">
<title>Node1&#45;&gt;Node20</title>
<g id="a_edge21_Node000001_Node000020"><a xlink:title=" ">
<path fill="none" stroke="#63b8ff" d="M1526.2,-120.74C1660.2,-114.97 1931.35,-101.05 2170.44,-74.14"/>
<polygon fill="#63b8ff" stroke="#63b8ff" points="2171.18,-77.58 2180.72,-72.97 2170.39,-70.62 2171.18,-77.58"/>
</a>
</g>
</g>
<!-- Node3 -->
<g id="Node000003" class="node">
<title>Node3</title>
<g id="a_Node000003"><a xlink:title=" ">
<polygon fill="#e0e0e0" stroke="#999999" points="600.5,-19 512.5,-19 512.5,0 600.5,0 600.5,-19"/>
<text text-anchor="middle" x="556.5" y="-7" font-family="Helvetica,sans-Serif" font-size="10.00">CoreMinimal.h</text>
</a>
</g>
</g>
<!-- Node2&#45;&gt;Node3 -->
<g id="edge2_Node000002_Node000003" class="edge">
<title>Node2&#45;&gt;Node3</title>
<g id="a_edge2_Node000002_Node000003"><a xlink:title=" ">
<path fill="none" stroke="#63b8ff" d="M809.14,-54.98C755.01,-45.45 667.5,-30.05 610.99,-20.1"/>
<polygon fill="#63b8ff" stroke="#63b8ff" points="611.27,-16.59 600.82,-18.3 610.06,-23.48 611.27,-16.59"/>
</a>
</g>
</g>
<!-- Node4 -->
<g id="Node000004" class="node">
<title>Node4</title>
<g id="a_Node000004"><a xlink:title=" ">
<polygon fill="#e0e0e0" stroke="#999999" points="1183.5,-19 971.5,-19 971.5,0 1183.5,0 1183.5,-19"/>
<text text-anchor="middle" x="1077.5" y="-7" font-family="Helvetica,sans-Serif" font-size="10.00">Components/SkeletalMeshComponent.h</text>
</a>
</g>
</g>
<!-- Node2&#45;&gt;Node4 -->
<g id="edge3_Node000002_Node000004" class="edge">
<title>Node2&#45;&gt;Node4</title>
<g id="a_edge3_Node000002_Node000004"><a xlink:title=" ">
<path fill="none" stroke="#63b8ff" d="M892.85,-54.98C930.66,-45.87 990.76,-31.4 1032.07,-21.45"/>
<polygon fill="#63b8ff" stroke="#63b8ff" points="1032.97,-24.83 1041.88,-19.08 1031.33,-18.02 1032.97,-24.83"/>
</a>
</g>
</g>
<!-- Node5 -->
<g id="Node000005" class="node">
<title>Node5</title>
<g id="a_Node000005"><a xlink:title=" ">
<polygon fill="#e0e0e0" stroke="#999999" points="1431,-19 1202,-19 1202,0 1431,0 1431,-19"/>
<text text-anchor="middle" x="1316.5" y="-7" font-family="Helvetica,sans-Serif" font-size="10.00">OliveWatchWeaponComponent.generated.h</text>
</a>
</g>
</g>
<!-- Node2&#45;&gt;Node5 -->
<g id="edge4_Node000002_Node000005" class="edge">
<title>Node2&#45;&gt;Node5</title>
<g id="a_edge4_Node000002_Node000005"><a xlink:title=" ">
<path fill="none" stroke="#63b8ff" d="M931.25,-54.98C1013.52,-45.49 1146.35,-30.15 1232.54,-20.19"/>
<polygon fill="#63b8ff" stroke="#63b8ff" points="1233.02,-23.66 1242.56,-19.04 1232.22,-16.71 1233.02,-23.66"/>
</a>
</g>
</g>
<!-- Node6&#45;&gt;Node3 -->
<g id="edge6_Node000006_Node000003" class="edge">
<title>Node6&#45;&gt;Node3</title>
<g id="a_edge6_Node000006_Node000003"><a xlink:title=" ">
<path fill="none" stroke="#63b8ff" d="M428.92,-54.98C454.22,-46.16 493.95,-32.31 522.36,-22.41"/>
<polygon fill="#63b8ff" stroke="#63b8ff" points="523.6,-25.68 531.89,-19.08 521.29,-19.07 523.6,-25.68"/>
</a>
</g>
</g>
<!-- Node7 -->
<g id="Node000007" class="node">
<title>Node7</title>
<g id="a_Node000007"><a xlink:title=" ">
<polygon fill="#e0e0e0" stroke="#999999" points="159,-19 0,-19 0,0 159,0 159,-19"/>
<text text-anchor="middle" x="79.5" y="-7" font-family="Helvetica,sans-Serif" font-size="10.00">GameFramework/Character.h</text>
</a>
</g>
</g>
<!-- Node6&#45;&gt;Node7 -->
<g id="edge7_Node000006_Node000007" class="edge">
<title>Node6&#45;&gt;Node7</title>
<g id="a_edge7_Node000006_Node000007"><a xlink:title=" ">
<path fill="none" stroke="#63b8ff" d="M352.28,-54.98C294.92,-45.63 202.83,-30.61 141.76,-20.65"/>
<polygon fill="#63b8ff" stroke="#63b8ff" points="142.29,-17.19 131.86,-19.04 141.16,-24.1 142.29,-17.19"/>
</a>
</g>
</g>
<!-- Node8 -->
<g id="Node000008" class="node">
<title>Node8</title>
<g id="a_Node000008"><a xlink:title=" ">
<polygon fill="#e0e0e0" stroke="#999999" points="296,-19 177,-19 177,0 296,0 296,-19"/>
<text text-anchor="middle" x="236.5" y="-7" font-family="Helvetica,sans-Serif" font-size="10.00">Logging/LogMacros.h</text>
</a>
</g>
</g>
<!-- Node6&#45;&gt;Node8 -->
<g id="edge8_Node000006_Node000008" class="edge">
<title>Node6&#45;&gt;Node8</title>
<g id="a_edge8_Node000006_Node000008"><a xlink:title=" ">
<path fill="none" stroke="#63b8ff" d="M377.51,-54.98C349.3,-46.09 304.86,-32.07 273.42,-22.15"/>
<polygon fill="#63b8ff" stroke="#63b8ff" points="274.29,-18.75 263.7,-19.08 272.19,-25.43 274.29,-18.75"/>
</a>
</g>
</g>
<!-- Node9 -->
<g id="Node000009" class="node">
<title>Node9</title>
<g id="a_Node000009"><a xlink:title=" ">
<polygon fill="#e0e0e0" stroke="#999999" points="494.5,-19 314.5,-19 314.5,0 494.5,0 494.5,-19"/>
<text text-anchor="middle" x="404.5" y="-7" font-family="Helvetica,sans-Serif" font-size="10.00">OliveWatchCharacter.generated.h</text>
</a>
</g>
</g>
<!-- Node6&#45;&gt;Node9 -->
<g id="edge9_Node000006_Node000009" class="edge">
<title>Node6&#45;&gt;Node9</title>
<g id="a_edge9_Node000006_Node000009"><a xlink:title=" ">
<path fill="none" stroke="#63b8ff" d="M404.5,-54.75C404.5,-47.8 404.5,-37.85 404.5,-29.13"/>
<polygon fill="#63b8ff" stroke="#63b8ff" points="408,-29.09 404.5,-19.09 401,-29.09 408,-29.09"/>
</a>
</g>
</g>
<!-- Node10&#45;&gt;Node3 -->
<g id="edge11_Node000010_Node000003" class="edge">
<title>Node10&#45;&gt;Node3</title>
<g id="a_edge11_Node000010_Node000003"><a xlink:title=" ">
<path fill="none" stroke="#63b8ff" d="M666.45,-54.98C645.09,-46.34 611.8,-32.87 587.44,-23.02"/>
<polygon fill="#63b8ff" stroke="#63b8ff" points="588.51,-19.68 577.93,-19.17 585.89,-26.17 588.51,-19.68"/>
</a>
</g>
</g>
<!-- Node11 -->
<g id="Node000011" class="node">
<title>Node11</title>
<g id="a_Node000011"><a xlink:title=" ">
<polygon fill="#e0e0e0" stroke="#999999" points="756,-19 619,-19 619,0 756,0 756,-19"/>
<text text-anchor="middle" x="687.5" y="-7" font-family="Helvetica,sans-Serif" font-size="10.00">GameFramework/Actor.h</text>
</a>
</g>
</g>
<!-- Node10&#45;&gt;Node11 -->
<g id="edge12_Node000010_Node000011" class="edge">
<title>Node10&#45;&gt;Node11</title>
<g id="a_edge12_Node000010_Node000011"><a xlink:title=" ">
<path fill="none" stroke="#63b8ff" d="M687.5,-54.75C687.5,-47.8 687.5,-37.85 687.5,-29.13"/>
<polygon fill="#63b8ff" stroke="#63b8ff" points="691,-29.09 687.5,-19.09 684,-29.09 691,-29.09"/>
</a>
</g>
</g>
<!-- Node12 -->
<g id="Node000012" class="node">
<title>Node12</title>
<g id="a_Node000012"><a xlink:title=" ">
<polygon fill="#e0e0e0" stroke="#999999" points="953,-19 774,-19 774,0 953,0 953,-19"/>
<text text-anchor="middle" x="863.5" y="-7" font-family="Helvetica,sans-Serif" font-size="10.00">OliveWatchProjectile.generated.h</text>
</a>
</g>
</g>
<!-- Node10&#45;&gt;Node12 -->
<g id="edge13_Node000010_Node000012" class="edge">
<title>Node10&#45;&gt;Node12</title>
<g id="a_edge13_Node000010_Node000012"><a xlink:title=" ">
<path fill="none" stroke="#63b8ff" d="M715.78,-54.98C745.45,-46.05 792.29,-31.94 825.25,-22.02"/>
<polygon fill="#63b8ff" stroke="#63b8ff" points="826.43,-25.32 835,-19.08 824.42,-18.61 826.43,-25.32"/>
</a>
</g>
</g>
</g>
</svg>
