<?xml version="1.0" encoding="UTF-8" standalone="no"?>
<!DOCTYPE svg PUBLIC "-//W3C//DTD SVG 1.1//EN"
 "http://www.w3.org/Graphics/SVG/1.1/DTD/svg11.dtd">
<!-- Generated by graphviz version 2.43.0 (0)
 -->
<!-- Title: Source/OliveWatch/AbilitySystem/Attributes/OWAttributeSet.h Pages: 1 -->
<svg width="459pt" height="170pt"
 viewBox="0.00 0.00 458.50 170.00" xmlns="http://www.w3.org/2000/svg" xmlns:xlink="http://www.w3.org/1999/xlink">
<g id="graph0" class="graph" transform="scale(1 1) rotate(0) translate(4 166)">
<title>Source/OliveWatch/AbilitySystem/Attributes/OWAttributeSet.h</title>
<!-- Node1 -->
<g id="Node000001" class="node">
<title>Node1</title>
<g id="a_Node000001"><a xlink:title=" ">
<polygon fill="#999999" stroke="#666666" points="262,-162 71,-162 71,-132 262,-132 262,-162"/>
<text text-anchor="start" x="79" y="-150" font-family="Helvetica,sans-Serif" font-size="10.00">Source/OliveWatch/Ability</text>
<text text-anchor="middle" x="166.5" y="-139" font-family="Helvetica,sans-Serif" font-size="10.00">System/Attributes/OWAttributeSet.h</text>
</a>
</g>
</g>
<!-- Node2 -->
<g id="Node000002" class="node">
<title>Node2</title>
<g id="a_Node000002"><a xlink:href="OWGA__Ultimate_8cpp.html" target="_top" xlink:title=" ">
<polygon fill="white" stroke="#666666" points="199,-30 0,-30 0,0 199,0 199,-30"/>
<text text-anchor="start" x="8" y="-18" font-family="Helvetica,sans-Serif" font-size="10.00">Source/OliveWatch/Ability</text>
<text text-anchor="middle" x="99.5" y="-7" font-family="Helvetica,sans-Serif" font-size="10.00">System/Abilities/OWGA_Ultimate.cpp</text>
</a>
</g>
</g>
<!-- Node1&#45;&gt;Node2 -->
<g id="edge1_Node000001_Node000002" class="edge">
<title>Node1&#45;&gt;Node2</title>
<g id="a_edge1_Node000001_Node000002"><a xlink:title=" ">
<path fill="none" stroke="#63b8ff" d="M95.08,-127.69C79.85,-120.37 65.62,-110.17 56.5,-96 42.24,-73.86 64.89,-46.56 82.35,-30.26"/>
<polygon fill="#63b8ff" stroke="#63b8ff" points="94.1,-131.08 104.66,-131.89 96.91,-124.67 94.1,-131.08"/>
</a>
</g>
</g>
<!-- Node3 -->
<g id="Node000003" class="node">
<title>Node3</title>
<g id="a_Node000003"><a xlink:href="OWAttributeSet_8cpp.html" target="_top" xlink:title=" ">
<polygon fill="white" stroke="#666666" points="268,-96 65,-96 65,-66 268,-66 268,-96"/>
<text text-anchor="start" x="73" y="-84" font-family="Helvetica,sans-Serif" font-size="10.00">Source/OliveWatch/Ability</text>
<text text-anchor="middle" x="166.5" y="-73" font-family="Helvetica,sans-Serif" font-size="10.00">System/Attributes/OWAttributeSet.cpp</text>
</a>
</g>
</g>
<!-- Node1&#45;&gt;Node3 -->
<g id="edge2_Node000001_Node000003" class="edge">
<title>Node1&#45;&gt;Node3</title>
<g id="a_edge2_Node000001_Node000003"><a xlink:title=" ">
<path fill="none" stroke="#63b8ff" d="M166.5,-121.54C166.5,-112.96 166.5,-103.61 166.5,-96.16"/>
<polygon fill="#63b8ff" stroke="#63b8ff" points="163,-121.8 166.5,-131.8 170,-121.8 163,-121.8"/>
</a>
</g>
</g>
<!-- Node4 -->
<g id="Node000004" class="node">
<title>Node4</title>
<g id="a_Node000004"><a xlink:href="OWGE__Cost_8h.html" target="_top" xlink:title=" ">
<polygon fill="white" stroke="#666666" points="445,-96 286,-96 286,-66 445,-66 445,-96"/>
<text text-anchor="start" x="294" y="-84" font-family="Helvetica,sans-Serif" font-size="10.00">Source/OliveWatch/Ability</text>
<text text-anchor="middle" x="365.5" y="-73" font-family="Helvetica,sans-Serif" font-size="10.00">System/Effects/OWGE_Cost.h</text>
</a>
</g>
</g>
<!-- Node1&#45;&gt;Node4 -->
<g id="edge3_Node000001_Node000004" class="edge">
<title>Node1&#45;&gt;Node4</title>
<g id="a_edge3_Node000001_Node000004"><a xlink:title=" ">
<path fill="none" stroke="#63b8ff" d="M219.81,-128.86C251.76,-118.58 291.88,-105.68 321.93,-96.01"/>
<polygon fill="#63b8ff" stroke="#63b8ff" points="218.62,-125.56 210.17,-131.95 220.76,-132.23 218.62,-125.56"/>
</a>
</g>
</g>
<!-- Node4&#45;&gt;Node2 -->
<g id="edge4_Node000004_Node000002" class="edge">
<title>Node4&#45;&gt;Node2</title>
<g id="a_edge4_Node000004_Node000002"><a xlink:title=" ">
<path fill="none" stroke="#63b8ff" d="M297.27,-63.58C254.08,-53.19 198.85,-39.9 157.74,-30.01"/>
<polygon fill="#63b8ff" stroke="#63b8ff" points="296.58,-67.02 307.13,-65.95 298.22,-60.21 296.58,-67.02"/>
</a>
</g>
</g>
<!-- Node5 -->
<g id="Node000005" class="node">
<title>Node5</title>
<g id="a_Node000005"><a xlink:href="OWGE__Cost_8cpp.html" target="_top" xlink:title=" ">
<polygon fill="white" stroke="#666666" points="450.5,-30 280.5,-30 280.5,0 450.5,0 450.5,-30"/>
<text text-anchor="start" x="288.5" y="-18" font-family="Helvetica,sans-Serif" font-size="10.00">Source/OliveWatch/Ability</text>
<text text-anchor="middle" x="365.5" y="-7" font-family="Helvetica,sans-Serif" font-size="10.00">System/Effects/OWGE_Cost.cpp</text>
</a>
</g>
</g>
<!-- Node4&#45;&gt;Node5 -->
<g id="edge5_Node000004_Node000005" class="edge">
<title>Node4&#45;&gt;Node5</title>
<g id="a_edge5_Node000004_Node000005"><a xlink:title=" ">
<path fill="none" stroke="#63b8ff" d="M365.5,-55.54C365.5,-46.96 365.5,-37.61 365.5,-30.16"/>
<polygon fill="#63b8ff" stroke="#63b8ff" points="362,-55.8 365.5,-65.8 369,-55.8 362,-55.8"/>
</a>
</g>
</g>
</g>
</svg>
