<?xml version="1.0" encoding="UTF-8" standalone="no"?>
<!DOCTYPE svg PUBLIC "-//W3C//DTD SVG 1.1//EN"
 "http://www.w3.org/Graphics/SVG/1.1/DTD/svg11.dtd">
<!-- Generated by graphviz version 2.43.0 (0)
 -->
<!-- Title: Source/OliveWatch/Character/OWCharacter.h Pages: 1 -->
<svg width="326pt" height="104pt"
 viewBox="0.00 0.00 326.00 104.00" xmlns="http://www.w3.org/2000/svg" xmlns:xlink="http://www.w3.org/1999/xlink">
<g id="graph0" class="graph" transform="scale(1 1) rotate(0) translate(4 100)">
<title>Source/OliveWatch/Character/OWCharacter.h</title>
<!-- Node1 -->
<g id="Node000001" class="node">
<title>Node1</title>
<g id="a_Node000001"><a xlink:title=" ">
<polygon fill="#999999" stroke="#666666" points="242,-96 84,-96 84,-66 242,-66 242,-96"/>
<text text-anchor="start" x="92" y="-84" font-family="Helvetica,sans-Serif" font-size="10.00">Source/OliveWatch/Character</text>
<text text-anchor="middle" x="163" y="-73" font-family="Helvetica,sans-Serif" font-size="10.00">/OWCharacter.h</text>
</a>
</g>
</g>
<!-- Node2 -->
<g id="Node000002" class="node">
<title>Node2</title>
<g id="a_Node000002"><a xlink:href="OWCharacter_8cpp.html" target="_top" xlink:title=" ">
<polygon fill="white" stroke="#666666" points="158,-30 0,-30 0,0 158,0 158,-30"/>
<text text-anchor="start" x="8" y="-18" font-family="Helvetica,sans-Serif" font-size="10.00">Source/OliveWatch/Character</text>
<text text-anchor="middle" x="79" y="-7" font-family="Helvetica,sans-Serif" font-size="10.00">/OWCharacter.cpp</text>
</a>
</g>
</g>
<!-- Node1&#45;&gt;Node2 -->
<g id="edge1_Node000001_Node000002" class="edge">
<title>Node1&#45;&gt;Node2</title>
<g id="a_edge1_Node000001_Node000002"><a xlink:title=" ">
<path fill="none" stroke="#63b8ff" d="M136.06,-59.48C123.51,-49.91 108.89,-38.77 97.59,-30.16"/>
<polygon fill="#63b8ff" stroke="#63b8ff" points="134.28,-62.52 144.36,-65.8 138.52,-56.95 134.28,-62.52"/>
</a>
</g>
</g>
<!-- Node3 -->
<g id="Node000003" class="node">
<title>Node3</title>
<g id="a_Node000003"><a xlink:href="OWPlayerController_8cpp.html" target="_top" xlink:title=" ">
<polygon fill="white" stroke="#666666" points="318,-30 176,-30 176,0 318,0 318,-30"/>
<text text-anchor="start" x="184" y="-18" font-family="Helvetica,sans-Serif" font-size="10.00">Source/OliveWatch/Player</text>
<text text-anchor="middle" x="247" y="-7" font-family="Helvetica,sans-Serif" font-size="10.00">/OWPlayerController.cpp</text>
</a>
</g>
</g>
<!-- Node1&#45;&gt;Node3 -->
<g id="edge2_Node000001_Node000003" class="edge">
<title>Node1&#45;&gt;Node3</title>
<g id="a_edge2_Node000001_Node000003"><a xlink:title=" ">
<path fill="none" stroke="#63b8ff" d="M189.94,-59.48C202.49,-49.91 217.11,-38.77 228.41,-30.16"/>
<polygon fill="#63b8ff" stroke="#63b8ff" points="187.48,-56.95 181.64,-65.8 191.72,-62.52 187.48,-56.95"/>
</a>
</g>
</g>
</g>
</svg>
