<?xml version="1.0" encoding="UTF-8" standalone="no"?>
<!DOCTYPE svg PUBLIC "-//W3C//DTD SVG 1.1//EN"
 "http://www.w3.org/Graphics/SVG/1.1/DTD/svg11.dtd">
<!-- Generated by graphviz version 2.43.0 (0)
 -->
<!-- Title: Source/OliveWatch/AbilitySystem/Effects/OWCooldownGameplayEffect.h Pages: 1 -->
<svg width="422pt" height="126pt"
 viewBox="0.00 0.00 421.50 126.00" xmlns="http://www.w3.org/2000/svg" xmlns:xlink="http://www.w3.org/1999/xlink">
<g id="graph0" class="graph" transform="scale(1 1) rotate(0) translate(4 122)">
<title>Source/OliveWatch/AbilitySystem/Effects/OWCooldownGameplayEffect.h</title>
<!-- Node1 -->
<g id="Node000001" class="node">
<title>Node1</title>
<g id="a_Node000001"><a xlink:title=" ">
<polygon fill="#999999" stroke="#666666" points="305.5,-118 97.5,-118 97.5,-77 305.5,-77 305.5,-118"/>
<text text-anchor="start" x="105.5" y="-106" font-family="Helvetica,sans-Serif" font-size="10.00">Source/OliveWatch/Ability</text>
<text text-anchor="start" x="105.5" y="-95" font-family="Helvetica,sans-Serif" font-size="10.00">System/Effects/OWCooldownGameplay</text>
<text text-anchor="middle" x="201.5" y="-84" font-family="Helvetica,sans-Serif" font-size="10.00">Effect.h</text>
</a>
</g>
</g>
<!-- Node2 -->
<g id="Node000002" class="node">
<title>Node2</title>
<g id="a_Node000002"><a xlink:href="OWGA__Active_8cpp.html" target="_top" xlink:title=" ">
<polygon fill="white" stroke="#666666" points="187,-35.5 0,-35.5 0,-5.5 187,-5.5 187,-35.5"/>
<text text-anchor="start" x="8" y="-23.5" font-family="Helvetica,sans-Serif" font-size="10.00">Source/OliveWatch/Ability</text>
<text text-anchor="middle" x="93.5" y="-12.5" font-family="Helvetica,sans-Serif" font-size="10.00">System/Abilities/OWGA_Active.cpp</text>
</a>
</g>
</g>
<!-- Node1&#45;&gt;Node2 -->
<g id="edge1_Node000001_Node000002" class="edge">
<title>Node1&#45;&gt;Node2</title>
<g id="a_edge1_Node000001_Node000002"><a xlink:title=" ">
<path fill="none" stroke="#63b8ff" d="M164.8,-71.01C147.81,-59.22 128.27,-45.65 113.95,-35.7"/>
<polygon fill="#63b8ff" stroke="#63b8ff" points="163.2,-74.16 173.41,-76.99 167.19,-68.41 163.2,-74.16"/>
</a>
</g>
</g>
<!-- Node3 -->
<g id="Node000003" class="node">
<title>Node3</title>
<g id="a_Node000003"><a xlink:href="OWCooldownGameplayEffect_8cpp.html" target="_top" xlink:title=" ">
<polygon fill="white" stroke="#666666" points="413.5,-41 205.5,-41 205.5,0 413.5,0 413.5,-41"/>
<text text-anchor="start" x="213.5" y="-29" font-family="Helvetica,sans-Serif" font-size="10.00">Source/OliveWatch/Ability</text>
<text text-anchor="start" x="213.5" y="-18" font-family="Helvetica,sans-Serif" font-size="10.00">System/Effects/OWCooldownGameplay</text>
<text text-anchor="middle" x="309.5" y="-7" font-family="Helvetica,sans-Serif" font-size="10.00">Effect.cpp</text>
</a>
</g>
</g>
<!-- Node1&#45;&gt;Node3 -->
<g id="edge2_Node000001_Node000003" class="edge">
<title>Node1&#45;&gt;Node3</title>
<g id="a_edge2_Node000001_Node000003"><a xlink:title=" ">
<path fill="none" stroke="#63b8ff" d="M238.09,-71.09C252.16,-61.32 267.99,-50.32 281.17,-41.17"/>
<polygon fill="#63b8ff" stroke="#63b8ff" points="235.81,-68.41 229.59,-76.99 239.8,-74.16 235.81,-68.41"/>
</a>
</g>
</g>
</g>
</svg>
