<?xml version="1.0" encoding="UTF-8" standalone="no"?>
<!DOCTYPE svg PUBLIC "-//W3C//DTD SVG 1.1//EN"
 "http://www.w3.org/Graphics/SVG/1.1/DTD/svg11.dtd">
<!-- Generated by graphviz version 2.43.0 (0)
 -->
<!-- Title: Source/OliveWatch/AbilitySystem/Abilities/OWGA_Ultimate.cpp Pages: 1 -->
<svg width="1213pt" height="225pt"
 viewBox="0.00 0.00 1212.50 225.00" xmlns="http://www.w3.org/2000/svg" xmlns:xlink="http://www.w3.org/1999/xlink">
<g id="graph0" class="graph" transform="scale(1 1) rotate(0) translate(4 221)">
<title>Source/OliveWatch/AbilitySystem/Abilities/OWGA_Ultimate.cpp</title>
<!-- Node1 -->
<g id="Node000001" class="node">
<title>Node1</title>
<g id="a_Node000001"><a xlink:title=" ">
<polygon fill="#999999" stroke="#666666" points="631,-217 432,-217 432,-187 631,-187 631,-217"/>
<text text-anchor="start" x="440" y="-205" font-family="Helvetica,sans-Serif" font-size="10.00">Source/OliveWatch/Ability</text>
<text text-anchor="middle" x="531.5" y="-194" font-family="Helvetica,sans-Serif" font-size="10.00">System/Abilities/OWGA_Ultimate.cpp</text>
</a>
</g>
</g>
<!-- Node2 -->
<g id="Node000002" class="node">
<title>Node2</title>
<g id="a_Node000002"><a xlink:href="OWGA__Ultimate_8h.html" target="_top" xlink:title=" ">
<polygon fill="white" stroke="#666666" points="411.5,-151 283.5,-151 283.5,-121 411.5,-121 411.5,-151"/>
<text text-anchor="start" x="291.5" y="-139" font-family="Helvetica,sans-Serif" font-size="10.00">AbilitySystem/Abilities</text>
<text text-anchor="middle" x="347.5" y="-128" font-family="Helvetica,sans-Serif" font-size="10.00">/OWGA_Ultimate.h</text>
</a>
</g>
</g>
<!-- Node1&#45;&gt;Node2 -->
<g id="edge1_Node000001_Node000002" class="edge">
<title>Node1&#45;&gt;Node2</title>
<g id="a_edge1_Node000001_Node000002"><a xlink:title=" ">
<path fill="none" stroke="#63b8ff" d="M491.12,-186.95C463.56,-177.37 426.86,-164.6 397.45,-154.37"/>
<polygon fill="#63b8ff" stroke="#63b8ff" points="398.38,-150.99 387.79,-151.01 396.08,-157.6 398.38,-150.99"/>
</a>
</g>
</g>
<!-- Node8 -->
<g id="Node000008" class="node">
<title>Node8</title>
<g id="a_Node000008"><a xlink:href="OWGE__Cost_8h.html" target="_top" xlink:title=" ">
<polygon fill="white" stroke="#666666" points="592,-151 471,-151 471,-121 592,-121 592,-151"/>
<text text-anchor="start" x="479" y="-139" font-family="Helvetica,sans-Serif" font-size="10.00">AbilitySystem/Effects</text>
<text text-anchor="middle" x="531.5" y="-128" font-family="Helvetica,sans-Serif" font-size="10.00">/OWGE_Cost.h</text>
</a>
</g>
</g>
<!-- Node1&#45;&gt;Node8 -->
<g id="edge8_Node000001_Node000008" class="edge">
<title>Node1&#45;&gt;Node8</title>
<g id="a_edge8_Node000001_Node000008"><a xlink:title=" ">
<path fill="none" stroke="#63b8ff" d="M531.5,-186.8C531.5,-179.34 531.5,-169.99 531.5,-161.41"/>
<polygon fill="#63b8ff" stroke="#63b8ff" points="535,-161.16 531.5,-151.16 528,-161.16 535,-161.16"/>
</a>
</g>
</g>
<!-- Node12 -->
<g id="Node000012" class="node">
<title>Node12</title>
<g id="a_Node000012"><a xlink:href="OWAttributeSet_8h.html" target="_top" xlink:title=" ">
<polygon fill="white" stroke="#666666" points="883.5,-85 747.5,-85 747.5,-55 883.5,-55 883.5,-85"/>
<text text-anchor="start" x="755.5" y="-73" font-family="Helvetica,sans-Serif" font-size="10.00">AbilitySystem/Attributes</text>
<text text-anchor="middle" x="815.5" y="-62" font-family="Helvetica,sans-Serif" font-size="10.00">/OWAttributeSet.h</text>
</a>
</g>
</g>
<!-- Node1&#45;&gt;Node12 -->
<g id="edge20_Node000001_Node000012" class="edge">
<title>Node1&#45;&gt;Node12</title>
<g id="a_edge20_Node000001_Node000012"><a xlink:title=" ">
<path fill="none" stroke="#63b8ff" d="M562.16,-186.96C613.79,-163.33 718.04,-115.61 775.41,-89.35"/>
<polygon fill="#63b8ff" stroke="#63b8ff" points="776.9,-92.52 784.53,-85.17 773.99,-86.15 776.9,-92.52"/>
</a>
</g>
</g>
<!-- Node3 -->
<g id="Node000003" class="node">
<title>Node3</title>
<g id="a_Node000003"><a xlink:title=" ">
<polygon fill="#e0e0e0" stroke="#999999" points="448.5,-19 360.5,-19 360.5,0 448.5,0 448.5,-19"/>
<text text-anchor="middle" x="404.5" y="-7" font-family="Helvetica,sans-Serif" font-size="10.00">CoreMinimal.h</text>
</a>
</g>
</g>
<!-- Node2&#45;&gt;Node3 -->
<g id="edge2_Node000002_Node000003" class="edge">
<title>Node2&#45;&gt;Node3</title>
<g id="a_edge2_Node000002_Node000003"><a xlink:title=" ">
<path fill="none" stroke="#63b8ff" d="M354.04,-120.72C364.48,-97.92 384.89,-53.33 396.3,-28.42"/>
<polygon fill="#63b8ff" stroke="#63b8ff" points="399.6,-29.62 400.58,-19.07 393.23,-26.71 399.6,-29.62"/>
</a>
</g>
</g>
<!-- Node4 -->
<g id="Node000004" class="node">
<title>Node4</title>
<g id="a_Node000004"><a xlink:href="OWGameplayAbility_8h.html" target="_top" xlink:title=" ">
<polygon fill="white" stroke="#666666" points="344.5,-85 216.5,-85 216.5,-55 344.5,-55 344.5,-85"/>
<text text-anchor="start" x="224.5" y="-73" font-family="Helvetica,sans-Serif" font-size="10.00">AbilitySystem/Abilities</text>
<text text-anchor="middle" x="280.5" y="-62" font-family="Helvetica,sans-Serif" font-size="10.00">/OWGameplayAbility.h</text>
</a>
</g>
</g>
<!-- Node2&#45;&gt;Node4 -->
<g id="edge3_Node000002_Node000004" class="edge">
<title>Node2&#45;&gt;Node4</title>
<g id="a_edge3_Node000002_Node000004"><a xlink:title=" ">
<path fill="none" stroke="#63b8ff" d="M332.63,-120.8C323.87,-112.43 312.62,-101.68 302.81,-92.31"/>
<polygon fill="#63b8ff" stroke="#63b8ff" points="304.98,-89.54 295.33,-85.16 300.14,-94.6 304.98,-89.54"/>
</a>
</g>
</g>
<!-- Node7 -->
<g id="Node000007" class="node">
<title>Node7</title>
<g id="a_Node000007"><a xlink:title=" ">
<polygon fill="#e0e0e0" stroke="#999999" points="198.5,-79.5 40.5,-79.5 40.5,-60.5 198.5,-60.5 198.5,-79.5"/>
<text text-anchor="middle" x="119.5" y="-67.5" font-family="Helvetica,sans-Serif" font-size="10.00">OWGA_Ultimate.generated.h</text>
</a>
</g>
</g>
<!-- Node2&#45;&gt;Node7 -->
<g id="edge7_Node000002_Node000007" class="edge">
<title>Node2&#45;&gt;Node7</title>
<g id="a_edge7_Node000002_Node000007"><a xlink:title=" ">
<path fill="none" stroke="#63b8ff" d="M297.46,-120.95C256.07,-109.34 198.04,-93.05 159.64,-82.27"/>
<polygon fill="#63b8ff" stroke="#63b8ff" points="160.42,-78.85 149.84,-79.52 158.52,-85.59 160.42,-78.85"/>
</a>
</g>
</g>
<!-- Node4&#45;&gt;Node3 -->
<g id="edge4_Node000004_Node000003" class="edge">
<title>Node4&#45;&gt;Node3</title>
<g id="a_edge4_Node000004_Node000003"><a xlink:title=" ">
<path fill="none" stroke="#63b8ff" d="M310.2,-54.99C330.52,-45.4 357.26,-32.79 377.08,-23.44"/>
<polygon fill="#63b8ff" stroke="#63b8ff" points="378.64,-26.57 386.19,-19.14 375.65,-20.24 378.64,-26.57"/>
</a>
</g>
</g>
<!-- Node5 -->
<g id="Node000005" class="node">
<title>Node5</title>
<g id="a_Node000005"><a xlink:title=" ">
<polygon fill="#e0e0e0" stroke="#999999" points="149,-19 0,-19 0,0 149,0 149,-19"/>
<text text-anchor="middle" x="74.5" y="-7" font-family="Helvetica,sans-Serif" font-size="10.00">Abilities/GameplayAbility.h</text>
</a>
</g>
</g>
<!-- Node4&#45;&gt;Node5 -->
<g id="edge5_Node000004_Node000005" class="edge">
<title>Node4&#45;&gt;Node5</title>
<g id="a_edge5_Node000004_Node000005"><a xlink:title=" ">
<path fill="none" stroke="#63b8ff" d="M231.16,-54.99C195.45,-44.85 147.81,-31.32 114.48,-21.85"/>
<polygon fill="#63b8ff" stroke="#63b8ff" points="115.2,-18.42 104.62,-19.05 113.28,-25.15 115.2,-18.42"/>
</a>
</g>
</g>
<!-- Node6 -->
<g id="Node000006" class="node">
<title>Node6</title>
<g id="a_Node000006"><a xlink:title=" ">
<polygon fill="#e0e0e0" stroke="#999999" points="342.5,-19 166.5,-19 166.5,0 342.5,0 342.5,-19"/>
<text text-anchor="middle" x="254.5" y="-7" font-family="Helvetica,sans-Serif" font-size="10.00">OWGameplayAbility.generated.h</text>
</a>
</g>
</g>
<!-- Node4&#45;&gt;Node6 -->
<g id="edge6_Node000004_Node000006" class="edge">
<title>Node4&#45;&gt;Node6</title>
<g id="a_edge6_Node000004_Node000006"><a xlink:title=" ">
<path fill="none" stroke="#63b8ff" d="M274.21,-54.84C270.7,-46.95 266.3,-37.05 262.55,-28.61"/>
<polygon fill="#63b8ff" stroke="#63b8ff" points="265.66,-26.98 258.4,-19.27 259.26,-29.83 265.66,-26.98"/>
</a>
</g>
</g>
<!-- Node8&#45;&gt;Node3 -->
<g id="edge9_Node000008_Node000003" class="edge">
<title>Node8&#45;&gt;Node3</title>
<g id="a_edge9_Node000008_Node000003"><a xlink:title=" ">
<path fill="none" stroke="#63b8ff" d="M484.28,-120.9C465.02,-113.05 443.92,-101.47 429.5,-85 415.77,-69.32 409.52,-45.83 406.72,-29.43"/>
<polygon fill="#63b8ff" stroke="#63b8ff" points="410.16,-28.79 405.28,-19.39 403.23,-29.79 410.16,-28.79"/>
</a>
</g>
</g>
<!-- Node9 -->
<g id="Node000009" class="node">
<title>Node9</title>
<g id="a_Node000009"><a xlink:href="OWGameplayEffect_8h.html" target="_top" xlink:title=" ">
<polygon fill="white" stroke="#666666" points="716.5,-85 592.5,-85 592.5,-55 716.5,-55 716.5,-85"/>
<text text-anchor="start" x="600.5" y="-73" font-family="Helvetica,sans-Serif" font-size="10.00">AbilitySystem/Effects</text>
<text text-anchor="middle" x="654.5" y="-62" font-family="Helvetica,sans-Serif" font-size="10.00">/OWGameplayEffect.h</text>
</a>
</g>
</g>
<!-- Node8&#45;&gt;Node9 -->
<g id="edge10_Node000008_Node000009" class="edge">
<title>Node8&#45;&gt;Node9</title>
<g id="a_edge10_Node000008_Node000009"><a xlink:title=" ">
<path fill="none" stroke="#63b8ff" d="M558.49,-120.95C576.12,-111.78 599.33,-99.71 618.52,-89.72"/>
<polygon fill="#63b8ff" stroke="#63b8ff" points="620.31,-92.73 627.57,-85.01 617.08,-86.52 620.31,-92.73"/>
</a>
</g>
</g>
<!-- Node8&#45;&gt;Node12 -->
<g id="edge14_Node000008_Node000012" class="edge">
<title>Node8&#45;&gt;Node12</title>
<g id="a_edge14_Node000008_Node000012"><a xlink:title=" ">
<path fill="none" stroke="#63b8ff" d="M592.08,-121.35C636.33,-111.38 696.53,-97.81 743.29,-87.27"/>
<polygon fill="#63b8ff" stroke="#63b8ff" points="744.07,-90.69 753.05,-85.07 742.53,-83.86 744.07,-90.69"/>
</a>
</g>
</g>
<!-- Node16 -->
<g id="Node000016" class="node">
<title>Node16</title>
<g id="a_Node000016"><a xlink:title=" ">
<polygon fill="#e0e0e0" stroke="#999999" points="574.5,-79.5 438.5,-79.5 438.5,-60.5 574.5,-60.5 574.5,-79.5"/>
<text text-anchor="middle" x="506.5" y="-67.5" font-family="Helvetica,sans-Serif" font-size="10.00">OWGE_Cost.generated.h</text>
</a>
</g>
</g>
<!-- Node8&#45;&gt;Node16 -->
<g id="edge19_Node000008_Node000016" class="edge">
<title>Node8&#45;&gt;Node16</title>
<g id="a_edge19_Node000008_Node000016"><a xlink:title=" ">
<path fill="none" stroke="#63b8ff" d="M525.95,-120.8C522.32,-111.5 517.54,-99.27 513.63,-89.26"/>
<polygon fill="#63b8ff" stroke="#63b8ff" points="516.85,-87.89 509.95,-79.84 510.33,-90.43 516.85,-87.89"/>
</a>
</g>
</g>
<!-- Node9&#45;&gt;Node3 -->
<g id="edge11_Node000009_Node000003" class="edge">
<title>Node9&#45;&gt;Node3</title>
<g id="a_edge11_Node000009_Node000003"><a xlink:title=" ">
<path fill="none" stroke="#63b8ff" d="M594.62,-54.99C550.54,-44.67 491.47,-30.85 450.94,-21.37"/>
<polygon fill="#63b8ff" stroke="#63b8ff" points="451.59,-17.92 441.05,-19.05 449.99,-24.74 451.59,-17.92"/>
</a>
</g>
</g>
<!-- Node10 -->
<g id="Node000010" class="node">
<title>Node10</title>
<g id="a_Node000010"><a xlink:title=" ">
<polygon fill="#e0e0e0" stroke="#999999" points="762.5,-19 658.5,-19 658.5,0 762.5,0 762.5,-19"/>
<text text-anchor="middle" x="710.5" y="-7" font-family="Helvetica,sans-Serif" font-size="10.00">GameplayEffect.h</text>
</a>
</g>
</g>
<!-- Node9&#45;&gt;Node10 -->
<g id="edge12_Node000009_Node000010" class="edge">
<title>Node9&#45;&gt;Node10</title>
<g id="a_edge12_Node000009_Node000010"><a xlink:title=" ">
<path fill="none" stroke="#63b8ff" d="M668.06,-54.84C676.18,-46.35 686.55,-35.52 695,-26.69"/>
<polygon fill="#63b8ff" stroke="#63b8ff" points="697.72,-28.91 702.11,-19.27 692.67,-24.07 697.72,-28.91"/>
</a>
</g>
</g>
<!-- Node11 -->
<g id="Node000011" class="node">
<title>Node11</title>
<g id="a_Node000011"><a xlink:title=" ">
<polygon fill="#e0e0e0" stroke="#999999" points="640,-19 467,-19 467,0 640,0 640,-19"/>
<text text-anchor="middle" x="553.5" y="-7" font-family="Helvetica,sans-Serif" font-size="10.00">OWGameplayEffect.generated.h</text>
</a>
</g>
</g>
<!-- Node9&#45;&gt;Node11 -->
<g id="edge13_Node000009_Node000011" class="edge">
<title>Node9&#45;&gt;Node11</title>
<g id="a_edge13_Node000009_Node000011"><a xlink:title=" ">
<path fill="none" stroke="#63b8ff" d="M630.31,-54.99C614.21,-45.66 593.16,-33.47 577.17,-24.21"/>
<polygon fill="#63b8ff" stroke="#63b8ff" points="578.82,-21.12 568.42,-19.14 575.31,-27.18 578.82,-21.12"/>
</a>
</g>
</g>
<!-- Node12&#45;&gt;Node3 -->
<g id="edge16_Node000012_Node000003" class="edge">
<title>Node12&#45;&gt;Node3</title>
<g id="a_edge16_Node000012_Node000003"><a xlink:title=" ">
<path fill="none" stroke="#63b8ff" d="M747.22,-58.23C739.89,-57.11 732.54,-56.02 725.5,-55 609.7,-38.22 578.05,-36.59 458.63,-19.13"/>
<polygon fill="#63b8ff" stroke="#63b8ff" points="459.14,-15.67 448.73,-17.68 458.12,-22.6 459.14,-15.67"/>
</a>
</g>
</g>
<!-- Node13 -->
<g id="Node000013" class="node">
<title>Node13</title>
<g id="a_Node000013"><a xlink:title=" ">
<polygon fill="#e0e0e0" stroke="#999999" points="1204.5,-19 1054.5,-19 1054.5,0 1204.5,0 1204.5,-19"/>
<text text-anchor="middle" x="1129.5" y="-7" font-family="Helvetica,sans-Serif" font-size="10.00">AbilitySystemComponent.h</text>
</a>
</g>
</g>
<!-- Node12&#45;&gt;Node13 -->
<g id="edge15_Node000012_Node000013" class="edge">
<title>Node12&#45;&gt;Node13</title>
<g id="a_edge15_Node000012_Node000013"><a xlink:title=" ">
<path fill="none" stroke="#63b8ff" d="M883.63,-56.31C940.57,-45.7 1020.75,-30.76 1073.88,-20.86"/>
<polygon fill="#63b8ff" stroke="#63b8ff" points="1074.61,-24.29 1083.8,-19.01 1073.33,-17.41 1074.61,-24.29"/>
</a>
</g>
</g>
<!-- Node14 -->
<g id="Node000014" class="node">
<title>Node14</title>
<g id="a_Node000014"><a xlink:title=" ">
<polygon fill="#e0e0e0" stroke="#999999" points="864.5,-19 780.5,-19 780.5,0 864.5,0 864.5,-19"/>
<text text-anchor="middle" x="822.5" y="-7" font-family="Helvetica,sans-Serif" font-size="10.00">AttributeSet.h</text>
</a>
</g>
</g>
<!-- Node12&#45;&gt;Node14 -->
<g id="edge17_Node000012_Node000014" class="edge">
<title>Node12&#45;&gt;Node14</title>
<g id="a_edge17_Node000012_Node000014"><a xlink:title=" ">
<path fill="none" stroke="#63b8ff" d="M817.19,-54.84C818.11,-47.21 819.24,-37.7 820.23,-29.45"/>
<polygon fill="#63b8ff" stroke="#63b8ff" points="823.74,-29.61 821.45,-19.27 816.79,-28.78 823.74,-29.61"/>
</a>
</g>
</g>
<!-- Node15 -->
<g id="Node000015" class="node">
<title>Node15</title>
<g id="a_Node000015"><a xlink:title=" ">
<polygon fill="#e0e0e0" stroke="#999999" points="1036,-19 883,-19 883,0 1036,0 1036,-19"/>
<text text-anchor="middle" x="959.5" y="-7" font-family="Helvetica,sans-Serif" font-size="10.00">OWAttributeSet.generated.h</text>
</a>
</g>
</g>
<!-- Node12&#45;&gt;Node15 -->
<g id="edge18_Node000012_Node000015" class="edge">
<title>Node12&#45;&gt;Node15</title>
<g id="a_edge18_Node000012_Node000015"><a xlink:title=" ">
<path fill="none" stroke="#63b8ff" d="M849.99,-54.99C874.02,-45.23 905.77,-32.33 928.9,-22.93"/>
<polygon fill="#63b8ff" stroke="#63b8ff" points="930.29,-26.15 938.23,-19.14 927.65,-19.66 930.29,-26.15"/>
</a>
</g>
</g>
</g>
</svg>
