<?xml version="1.0" encoding="UTF-8" standalone="no"?>
<!DOCTYPE svg PUBLIC "-//W3C//DTD SVG 1.1//EN"
 "http://www.w3.org/Graphics/SVG/1.1/DTD/svg11.dtd">
<!-- Generated by graphviz version 2.43.0 (0)
 -->
<!-- Title: UOWGA_FastZoom Pages: 1 -->
<svg width="145pt" height="432pt"
 viewBox="0.00 0.00 145.00 432.00" xmlns="http://www.w3.org/2000/svg" xmlns:xlink="http://www.w3.org/1999/xlink">
<g id="graph0" class="graph" transform="scale(1 1) rotate(0) translate(4 428)">
<title>UOWGA_FastZoom</title>
<!-- Node1 -->
<g id="Node000001" class="node">
<title>Node1</title>
<g id="a_Node000001"><a xlink:title=" ">
<polygon fill="#999999" stroke="transparent" points="120,-64 17,-64 17,0 120,0 120,-64"/>
<text text-anchor="start" x="22.5" y="-52" font-family="Helvetica,sans-Serif" font-size="10.00">UOWGA_FastZoom</text>
<text text-anchor="start" x="22" y="-37" font-family="Helvetica,sans-Serif" font-size="10.00">#</text>
<text text-anchor="start" x="35.5" y="-37" font-family="Helvetica,sans-Serif" font-size="10.00">ZoomFOV</text>
<text text-anchor="start" x="22" y="-22" font-family="Helvetica,sans-Serif" font-size="10.00">+</text>
<text text-anchor="start" x="35.5" y="-22" font-family="Helvetica,sans-Serif" font-size="10.00">ActivateAbility()</text>
<text text-anchor="start" x="22" y="-7" font-family="Helvetica,sans-Serif" font-size="10.00">+</text>
<text text-anchor="start" x="35.5" y="-7" font-family="Helvetica,sans-Serif" font-size="10.00">EndAbility()</text>
<polygon fill="#666666" stroke="#666666" points="17.5,-47 17.5,-47 120.5,-47 120.5,-47 17.5,-47"/>
<polygon fill="#666666" stroke="#666666" points="17.5,-32 17.5,-32 33.5,-32 33.5,-32 17.5,-32"/>
<polygon fill="#666666" stroke="#666666" points="33.5,-32 33.5,-32 120.5,-32 120.5,-32 33.5,-32"/>
<polygon fill="none" stroke="#666666" points="17,0 17,-64 120,-64 120,0 17,0"/>
</a>
</g>
</g>
<!-- Node2 -->
<g id="Node000002" class="node">
<title>Node2</title>
<g id="a_Node000002"><a xlink:href="classUOWGA__Active.html" target="_top" xlink:title=" ">
<polygon fill="white" stroke="transparent" points="120.5,-149 16.5,-149 16.5,-100 120.5,-100 120.5,-149"/>
<text text-anchor="start" x="30.5" y="-136.5" font-family="Helvetica,sans-Serif" font-size="10.00">UOWGA_Active</text>
<text text-anchor="start" x="66.5" y="-121.5" font-family="Helvetica,sans-Serif" font-size="10.00"> </text>
<text text-anchor="start" x="20.5" y="-106.5" font-family="Helvetica,sans-Serif" font-size="10.00">+</text>
<text text-anchor="start" x="33.5" y="-106.5" font-family="Helvetica,sans-Serif" font-size="10.00">UOWGA_Active()</text>
<polygon fill="#bfbfbf" stroke="#bfbfbf" points="16.5,-131.5 16.5,-131.5 120.5,-131.5 120.5,-131.5 16.5,-131.5"/>
<polygon fill="#bfbfbf" stroke="#bfbfbf" points="16.5,-116.5 16.5,-116.5 120.5,-116.5 120.5,-116.5 16.5,-116.5"/>
<polygon fill="none" stroke="#bfbfbf" points="16.5,-100 16.5,-149 120.5,-149 120.5,-100 16.5,-100"/>
</a>
</g>
</g>
<!-- Node2&#45;&gt;Node1 -->
<g id="edge1_Node000001_Node000002" class="edge">
<title>Node2&#45;&gt;Node1</title>
<g id="a_edge1_Node000001_Node000002"><a xlink:title=" ">
<path fill="none" stroke="#63b8ff" d="M68.5,-89.54C68.5,-81.2 68.5,-72.31 68.5,-64.11"/>
<polygon fill="none" stroke="#63b8ff" points="65,-89.72 68.5,-99.72 72,-89.72 65,-89.72"/>
</a>
</g>
</g>
<!-- Node3 -->
<g id="Node000003" class="node">
<title>Node3</title>
<g id="a_Node000003"><a xlink:href="classUOWGameplayAbility.html" target="_top" xlink:title=" ">
<polygon fill="white" stroke="transparent" points="137,-339 0,-339 0,-185 137,-185 137,-339"/>
<text text-anchor="start" x="15.5" y="-327" font-family="Helvetica,sans-Serif" font-size="10.00">UOWGameplayAbility</text>
<text text-anchor="start" x="4.5" y="-312" font-family="Helvetica,sans-Serif" font-size="10.00">#</text>
<text text-anchor="start" x="17.5" y="-312" font-family="Helvetica,sans-Serif" font-size="10.00">CooldownDuration</text>
<text text-anchor="start" x="4.5" y="-297" font-family="Helvetica,sans-Serif" font-size="10.00">#</text>
<text text-anchor="start" x="17.5" y="-297" font-family="Helvetica,sans-Serif" font-size="10.00">CooldownTags</text>
<text text-anchor="start" x="4.5" y="-282" font-family="Helvetica,sans-Serif" font-size="10.00">#</text>
<text text-anchor="start" x="17.5" y="-282" font-family="Helvetica,sans-Serif" font-size="10.00">GameplayEffectClasses</text>
<text text-anchor="start" x="4.5" y="-267" font-family="Helvetica,sans-Serif" font-size="10.00">+</text>
<text text-anchor="start" x="17.5" y="-267" font-family="Helvetica,sans-Serif" font-size="10.00">UOWGameplayAbility()</text>
<text text-anchor="start" x="4.5" y="-252" font-family="Helvetica,sans-Serif" font-size="10.00">+</text>
<text text-anchor="start" x="17.5" y="-252" font-family="Helvetica,sans-Serif" font-size="10.00">SetCooldownData()</text>
<text text-anchor="start" x="4.5" y="-237" font-family="Helvetica,sans-Serif" font-size="10.00">+</text>
<text text-anchor="start" x="17.5" y="-237" font-family="Helvetica,sans-Serif" font-size="10.00">SetCostEffect()</text>
<text text-anchor="start" x="4.5" y="-222" font-family="Helvetica,sans-Serif" font-size="10.00">+</text>
<text text-anchor="start" x="17.5" y="-222" font-family="Helvetica,sans-Serif" font-size="10.00">ApplyCooldown()</text>
<text text-anchor="start" x="4.5" y="-207" font-family="Helvetica,sans-Serif" font-size="10.00">+</text>
<text text-anchor="start" x="17.5" y="-207" font-family="Helvetica,sans-Serif" font-size="10.00">CanActivateAbility()</text>
<text text-anchor="start" x="4.5" y="-192" font-family="Helvetica,sans-Serif" font-size="10.00">+</text>
<text text-anchor="start" x="17.5" y="-192" font-family="Helvetica,sans-Serif" font-size="10.00">ActivateAbility()</text>
<polygon fill="#bfbfbf" stroke="#bfbfbf" points="0.5,-322 0.5,-322 137.5,-322 137.5,-322 0.5,-322"/>
<polygon fill="#bfbfbf" stroke="#bfbfbf" points="0.5,-277 0.5,-277 15.5,-277 15.5,-277 0.5,-277"/>
<polygon fill="#bfbfbf" stroke="#bfbfbf" points="15.5,-277 15.5,-277 137.5,-277 137.5,-277 15.5,-277"/>
<polygon fill="none" stroke="#bfbfbf" points="0,-185 0,-339 137,-339 137,-185 0,-185"/>
</a>
</g>
</g>
<!-- Node3&#45;&gt;Node2 -->
<g id="edge2_Node000002_Node000003" class="edge">
<title>Node3&#45;&gt;Node2</title>
<g id="a_edge2_Node000002_Node000003"><a xlink:title=" ">
<path fill="none" stroke="#63b8ff" d="M68.5,-174.67C68.5,-165.37 68.5,-156.57 68.5,-149.06"/>
<polygon fill="none" stroke="#63b8ff" points="65,-174.93 68.5,-184.93 72,-174.93 65,-174.93"/>
</a>
</g>
</g>
<!-- Node4 -->
<g id="Node000004" class="node">
<title>Node4</title>
<g id="a_Node000004"><a xlink:title=" ">
<polygon fill="white" stroke="transparent" points="118.5,-424 18.5,-424 18.5,-375 118.5,-375 118.5,-424"/>
<text text-anchor="start" x="23.5" y="-411.5" font-family="Helvetica,sans-Serif" font-size="10.00">UGameplayAbility</text>
<text text-anchor="start" x="66.5" y="-396.5" font-family="Helvetica,sans-Serif" font-size="10.00"> </text>
<text text-anchor="start" x="66.5" y="-381.5" font-family="Helvetica,sans-Serif" font-size="10.00"> </text>
<polygon fill="#bfbfbf" stroke="#bfbfbf" points="18.5,-406.5 18.5,-406.5 118.5,-406.5 118.5,-406.5 18.5,-406.5"/>
<polygon fill="#bfbfbf" stroke="#bfbfbf" points="18.5,-391.5 18.5,-391.5 118.5,-391.5 118.5,-391.5 18.5,-391.5"/>
<polygon fill="none" stroke="#bfbfbf" points="18.5,-375 18.5,-424 118.5,-424 118.5,-375 18.5,-375"/>
</a>
</g>
</g>
<!-- Node4&#45;&gt;Node3 -->
<g id="edge3_Node000003_Node000004" class="edge">
<title>Node4&#45;&gt;Node3</title>
<g id="a_edge3_Node000003_Node000004"><a xlink:title=" ">
<path fill="none" stroke="#63b8ff" d="M68.5,-364.66C68.5,-356.74 68.5,-347.97 68.5,-339.01"/>
<polygon fill="none" stroke="#63b8ff" points="65,-364.9 68.5,-374.9 72,-364.9 65,-364.9"/>
</a>
</g>
</g>
</g>
</svg>
