<?xml version="1.0" encoding="UTF-8" standalone="no"?>
<!DOCTYPE svg PUBLIC "-//W3C//DTD SVG 1.1//EN"
 "http://www.w3.org/Graphics/SVG/1.1/DTD/svg11.dtd">
<!-- Generated by graphviz version 2.43.0 (0)
 -->
<!-- Title: 그래픽컬한 클래스 계통도 Pages: 1 -->
<svg width="746pt" height="183pt"
 viewBox="0.00 0.00 746.00 183.00" xmlns="http://www.w3.org/2000/svg" xmlns:xlink="http://www.w3.org/1999/xlink">
<g id="graph0" class="graph" transform="scale(1 1) rotate(0) translate(4 179)">
<title>그래픽컬한 클래스 계통도</title>
<!-- Node0 -->
<g id="Node000000" class="node">
<title>Node0</title>
<g id="a_Node000000"><a xlink:title=" ">
<polygon fill="#e0e0e0" stroke="#999999" points="106,-56 0,-56 0,-37 106,-37 106,-56"/>
<text text-anchor="middle" x="53" y="-44" font-family="Helvetica,sans-Serif" font-size="10.00">UGameplayAbility</text>
</a>
</g>
</g>
<!-- Node1 -->
<g id="Node000001" class="node">
<title>Node1</title>
<g id="a_Node000001"><a xlink:href="classUOWGameplayAbility.html" target="_top" xlink:title=" ">
<polygon fill="white" stroke="#666666" points="265,-56 142,-56 142,-37 265,-37 265,-56"/>
<text text-anchor="middle" x="203.5" y="-44" font-family="Helvetica,sans-Serif" font-size="10.00">UOWGameplayAbility</text>
</a>
</g>
</g>
<!-- Node0&#45;&gt;Node1 -->
<g id="edge14_Node000000_Node000001" class="edge">
<title>Node0&#45;&gt;Node1</title>
<g id="a_edge14_Node000000_Node000001"><a xlink:title=" ">
<path fill="none" stroke="#63b8ff" d="M116.51,-46.5C124.95,-46.5 133.59,-46.5 141.99,-46.5"/>
<polygon fill="#63b8ff" stroke="#63b8ff" points="116.36,-43 106.36,-46.5 116.36,-50 116.36,-43"/>
</a>
</g>
</g>
<!-- Node2 -->
<g id="Node000002" class="node">
<title>Node2</title>
<g id="a_Node000002"><a xlink:href="classUOWGA__Active.html" target="_top" xlink:title=" ">
<polygon fill="white" stroke="#666666" points="399,-102 307,-102 307,-83 399,-83 399,-102"/>
<text text-anchor="middle" x="353" y="-90" font-family="Helvetica,sans-Serif" font-size="10.00">UOWGA_Active</text>
</a>
</g>
</g>
<!-- Node1&#45;&gt;Node2 -->
<g id="edge15_Node000001_Node000002" class="edge">
<title>Node1&#45;&gt;Node2</title>
<g id="a_edge15_Node000001_Node000002"><a xlink:title=" ">
<path fill="none" stroke="#63b8ff" d="M244.68,-59.03C268.89,-66.58 299.24,-76.05 321.48,-82.98"/>
<polygon fill="#63b8ff" stroke="#63b8ff" points="245.65,-55.67 235.06,-56.03 243.57,-62.35 245.65,-55.67"/>
</a>
</g>
</g>
<!-- Node8 -->
<g id="Node000008" class="node">
<title>Node8</title>
<g id="a_Node000008"><a xlink:href="classUOWGA__Passive.html" target="_top" xlink:title=" ">
<polygon fill="white" stroke="#666666" points="402,-56 304,-56 304,-37 402,-37 402,-56"/>
<text text-anchor="middle" x="353" y="-44" font-family="Helvetica,sans-Serif" font-size="10.00">UOWGA_Passive</text>
</a>
</g>
</g>
<!-- Node1&#45;&gt;Node8 -->
<g id="edge21_Node000001_Node000008" class="edge">
<title>Node1&#45;&gt;Node8</title>
<g id="a_edge21_Node000001_Node000008"><a xlink:title=" ">
<path fill="none" stroke="#63b8ff" d="M275.37,-46.5C285.04,-46.5 294.77,-46.5 303.9,-46.5"/>
<polygon fill="#63b8ff" stroke="#63b8ff" points="275.35,-43 265.35,-46.5 275.35,-50 275.35,-43"/>
</a>
</g>
</g>
<!-- Node10 -->
<g id="Node000010" class="node">
<title>Node10</title>
<g id="a_Node000010"><a xlink:href="classUOWGA__Ultimate.html" target="_top" xlink:title=" ">
<polygon fill="white" stroke="#666666" points="405,-19 301,-19 301,0 405,0 405,-19"/>
<text text-anchor="middle" x="353" y="-7" font-family="Helvetica,sans-Serif" font-size="10.00">UOWGA_Ultimate</text>
</a>
</g>
</g>
<!-- Node1&#45;&gt;Node10 -->
<g id="edge23_Node000001_Node000010" class="edge">
<title>Node1&#45;&gt;Node10</title>
<g id="a_edge23_Node000001_Node000010"><a xlink:title=" ">
<path fill="none" stroke="#63b8ff" d="M252.31,-34.51C272.26,-29.5 295.1,-23.77 313.89,-19.06"/>
<polygon fill="#63b8ff" stroke="#63b8ff" points="251.33,-31.14 242.48,-36.97 253.04,-37.93 251.33,-31.14"/>
</a>
</g>
</g>
<!-- Node3 -->
<g id="Node000003" class="node">
<title>Node3</title>
<g id="a_Node000003"><a xlink:href="classUOWGA__Active__GunFire.html" target="_top" xlink:title=" ">
<polygon fill="white" stroke="#666666" points="575,-157 441,-157 441,-138 575,-138 575,-157"/>
<text text-anchor="middle" x="508" y="-145" font-family="Helvetica,sans-Serif" font-size="10.00">UOWGA_Active_GunFire</text>
</a>
</g>
</g>
<!-- Node2&#45;&gt;Node3 -->
<g id="edge16_Node000002_Node000003" class="edge">
<title>Node2&#45;&gt;Node3</title>
<g id="a_edge16_Node000002_Node000003"><a xlink:title=" ">
<path fill="none" stroke="#63b8ff" d="M383.65,-106.29C400.29,-113.74 421.56,-122.75 441,-129.5 449.86,-132.58 459.54,-135.47 468.69,-138"/>
<polygon fill="#63b8ff" stroke="#63b8ff" points="384.99,-103.06 374.43,-102.12 382.1,-109.44 384.99,-103.06"/>
</a>
</g>
</g>
<!-- Node6 -->
<g id="Node000006" class="node">
<title>Node6</title>
<g id="a_Node000006"><a xlink:href="classUOWGA__Deflect.html" target="_top" xlink:title=" ">
<polygon fill="white" stroke="#666666" points="555.5,-120 460.5,-120 460.5,-101 555.5,-101 555.5,-120"/>
<text text-anchor="middle" x="508" y="-108" font-family="Helvetica,sans-Serif" font-size="10.00">UOWGA_Deflect</text>
</a>
</g>
</g>
<!-- Node2&#45;&gt;Node6 -->
<g id="edge19_Node000002_Node000006" class="edge">
<title>Node2&#45;&gt;Node6</title>
<g id="a_edge19_Node000002_Node000006"><a xlink:title=" ">
<path fill="none" stroke="#63b8ff" d="M409.29,-99C426.04,-100.98 444.26,-103.12 460.39,-105.02"/>
<polygon fill="#63b8ff" stroke="#63b8ff" points="409.42,-95.5 399.08,-97.8 408.6,-102.45 409.42,-95.5"/>
</a>
</g>
</g>
<!-- Node7 -->
<g id="Node000007" class="node">
<title>Node7</title>
<g id="a_Node000007"><a xlink:href="classUOWGA__FastZoom.html" target="_top" xlink:title=" ">
<polygon fill="white" stroke="#666666" points="562.5,-83 453.5,-83 453.5,-64 562.5,-64 562.5,-83"/>
<text text-anchor="middle" x="508" y="-71" font-family="Helvetica,sans-Serif" font-size="10.00">UOWGA_FastZoom</text>
</a>
</g>
</g>
<!-- Node2&#45;&gt;Node7 -->
<g id="edge20_Node000002_Node000007" class="edge">
<title>Node2&#45;&gt;Node7</title>
<g id="a_edge20_Node000002_Node000007"><a xlink:title=" ">
<path fill="none" stroke="#63b8ff" d="M409.3,-85.63C423.65,-83.85 439.07,-81.94 453.33,-80.16"/>
<polygon fill="#63b8ff" stroke="#63b8ff" points="408.57,-82.2 399.08,-86.9 409.43,-89.14 408.57,-82.2"/>
</a>
</g>
</g>
<!-- Node4 -->
<g id="Node000004" class="node">
<title>Node4</title>
<g id="a_Node000004"><a xlink:href="classUOWGA__ShurikenMain.html" target="_top" xlink:title=" ">
<polygon fill="white" stroke="#666666" points="738,-175 611,-175 611,-156 738,-156 738,-175"/>
<text text-anchor="middle" x="674.5" y="-163" font-family="Helvetica,sans-Serif" font-size="10.00">UOWGA_ShurikenMain</text>
</a>
</g>
</g>
<!-- Node3&#45;&gt;Node4 -->
<g id="edge17_Node000003_Node000004" class="edge">
<title>Node3&#45;&gt;Node4</title>
<g id="a_edge17_Node000003_Node000004"><a xlink:title=" ">
<path fill="none" stroke="#63b8ff" d="M585.65,-155.89C594.08,-156.81 602.58,-157.74 610.81,-158.64"/>
<polygon fill="#63b8ff" stroke="#63b8ff" points="585.76,-152.38 575.43,-154.77 584.99,-159.34 585.76,-152.38"/>
</a>
</g>
</g>
<!-- Node5 -->
<g id="Node000005" class="node">
<title>Node5</title>
<g id="a_Node000005"><a xlink:href="classUOWGA__ShurikenSub.html" target="_top" xlink:title=" ">
<polygon fill="white" stroke="#666666" points="735,-138 614,-138 614,-119 735,-119 735,-138"/>
<text text-anchor="middle" x="674.5" y="-126" font-family="Helvetica,sans-Serif" font-size="10.00">UOWGA_ShurikenSub</text>
</a>
</g>
</g>
<!-- Node3&#45;&gt;Node5 -->
<g id="edge18_Node000003_Node000005" class="edge">
<title>Node3&#45;&gt;Node5</title>
<g id="a_edge18_Node000003_Node000005"><a xlink:title=" ">
<path fill="none" stroke="#63b8ff" d="M585.38,-138.68C594.98,-137.57 604.69,-136.45 613.98,-135.37"/>
<polygon fill="#63b8ff" stroke="#63b8ff" points="584.97,-135.2 575.43,-139.83 585.77,-142.16 584.97,-135.2"/>
</a>
</g>
</g>
<!-- Node9 -->
<g id="Node000009" class="node">
<title>Node9</title>
<g id="a_Node000009"><a xlink:href="classUOWGA__Reload.html" target="_top" xlink:title=" ">
<polygon fill="white" stroke="#666666" points="555.5,-46 460.5,-46 460.5,-27 555.5,-27 555.5,-46"/>
<text text-anchor="middle" x="508" y="-34" font-family="Helvetica,sans-Serif" font-size="10.00">UOWGA_Reload</text>
</a>
</g>
</g>
<!-- Node8&#45;&gt;Node9 -->
<g id="edge22_Node000008_Node000009" class="edge">
<title>Node8&#45;&gt;Node9</title>
<g id="a_edge22_Node000008_Node000009"><a xlink:title=" ">
<path fill="none" stroke="#63b8ff" d="M412.63,-42.67C428.47,-41.63 445.39,-40.53 460.47,-39.54"/>
<polygon fill="#63b8ff" stroke="#63b8ff" points="412.16,-39.19 402.41,-43.34 412.62,-46.18 412.16,-39.19"/>
</a>
</g>
</g>
</g>
</svg>
