<?xml version="1.0" encoding="UTF-8" standalone="no"?>
<!DOCTYPE svg PUBLIC "-//W3C//DTD SVG 1.1//EN"
 "http://www.w3.org/Graphics/SVG/1.1/DTD/svg11.dtd">
<!-- Generated by graphviz version 2.43.0 (0)
 -->
<!-- Title: AOWCharacter Pages: 1 -->
<svg width="154pt" height="302pt"
 viewBox="0.00 0.00 154.00 302.00" xmlns="http://www.w3.org/2000/svg" xmlns:xlink="http://www.w3.org/1999/xlink">
<g id="graph0" class="graph" transform="scale(1 1) rotate(0) translate(4 298)">
<title>AOWCharacter</title>
<!-- Node1 -->
<g id="Node000001" class="node">
<title>Node1</title>
<g id="a_Node000001"><a xlink:title=" ">
<polygon fill="#999999" stroke="transparent" points="146,-209 0,-209 0,-100 146,-100 146,-209"/>
<text text-anchor="start" x="37" y="-196.5" font-family="Helvetica,sans-Serif" font-size="10.00">AOWCharacter</text>
<text text-anchor="start" x="4" y="-181.5" font-family="Helvetica,sans-Serif" font-size="10.00">#</text>
<text text-anchor="start" x="17" y="-181.5" font-family="Helvetica,sans-Serif" font-size="10.00">AbilitySystemComponent</text>
<text text-anchor="start" x="4" y="-166.5" font-family="Helvetica,sans-Serif" font-size="10.00">+</text>
<text text-anchor="start" x="17" y="-166.5" font-family="Helvetica,sans-Serif" font-size="10.00">AOWCharacter()</text>
<text text-anchor="start" x="4" y="-151.5" font-family="Helvetica,sans-Serif" font-size="10.00">+</text>
<text text-anchor="start" x="17" y="-151.5" font-family="Helvetica,sans-Serif" font-size="10.00">Move()</text>
<text text-anchor="start" x="4" y="-136.5" font-family="Helvetica,sans-Serif" font-size="10.00">+</text>
<text text-anchor="start" x="17" y="-136.5" font-family="Helvetica,sans-Serif" font-size="10.00">ActivateAbility()</text>
<text text-anchor="start" x="4" y="-121.5" font-family="Helvetica,sans-Serif" font-size="10.00">#</text>
<text text-anchor="start" x="17" y="-121.5" font-family="Helvetica,sans-Serif" font-size="10.00">BeginPlay()</text>
<text text-anchor="start" x="4" y="-106.5" font-family="Helvetica,sans-Serif" font-size="10.00">#</text>
<text text-anchor="start" x="17" y="-106.5" font-family="Helvetica,sans-Serif" font-size="10.00">PossessedBy()</text>
<polygon fill="#666666" stroke="#666666" points="0,-191.5 0,-191.5 146,-191.5 146,-191.5 0,-191.5"/>
<polygon fill="#666666" stroke="#666666" points="0,-176.5 0,-176.5 15,-176.5 15,-176.5 0,-176.5"/>
<polygon fill="#666666" stroke="#666666" points="15,-176.5 15,-176.5 146,-176.5 146,-176.5 15,-176.5"/>
<polygon fill="none" stroke="#666666" points="0,-100 0,-209 146,-209 146,-100 0,-100"/>
</a>
</g>
</g>
<!-- Node3 -->
<g id="Node000003" class="node">
<title>Node3</title>
<g id="a_Node000003"><a xlink:href="classAOWMonster.html" target="_top" xlink:title=" ">
<polygon fill="white" stroke="transparent" points="119.5,-64 26.5,-64 26.5,0 119.5,0 119.5,-64"/>
<text text-anchor="start" x="41.5" y="-52" font-family="Helvetica,sans-Serif" font-size="10.00">AOWMonster</text>
<text text-anchor="start" x="31" y="-37" font-family="Helvetica,sans-Serif" font-size="10.00">#</text>
<text text-anchor="start" x="44" y="-37" font-family="Helvetica,sans-Serif" font-size="10.00">AbilitySet</text>
<text text-anchor="start" x="31" y="-22" font-family="Helvetica,sans-Serif" font-size="10.00">+</text>
<text text-anchor="start" x="44" y="-22" font-family="Helvetica,sans-Serif" font-size="10.00">AOWMonster()</text>
<text text-anchor="start" x="31" y="-7" font-family="Helvetica,sans-Serif" font-size="10.00">#</text>
<text text-anchor="start" x="44" y="-7" font-family="Helvetica,sans-Serif" font-size="10.00">BeginPlay()</text>
<polygon fill="#bfbfbf" stroke="#bfbfbf" points="27,-47 27,-47 120,-47 120,-47 27,-47"/>
<polygon fill="#bfbfbf" stroke="#bfbfbf" points="27,-32 27,-32 42,-32 42,-32 27,-32"/>
<polygon fill="#bfbfbf" stroke="#bfbfbf" points="42,-32 42,-32 120,-32 120,-32 42,-32"/>
<polygon fill="none" stroke="#bfbfbf" points="26.5,0 26.5,-64 119.5,-64 119.5,0 26.5,0"/>
</a>
</g>
</g>
<!-- Node1&#45;&gt;Node3 -->
<g id="edge2_Node000001_Node000003" class="edge">
<title>Node1&#45;&gt;Node3</title>
<g id="a_edge2_Node000001_Node000003"><a xlink:title=" ">
<path fill="none" stroke="#63b8ff" d="M73,-89.9C73,-81 73,-72.2 73,-64.28"/>
<polygon fill="none" stroke="#63b8ff" points="69.5,-89.95 73,-99.95 76.5,-89.95 69.5,-89.95"/>
</a>
</g>
</g>
<!-- Node2 -->
<g id="Node000002" class="node">
<title>Node2</title>
<g id="a_Node000002"><a xlink:title=" ">
<polygon fill="white" stroke="transparent" points="105.5,-294 40.5,-294 40.5,-245 105.5,-245 105.5,-294"/>
<text text-anchor="start" x="46" y="-281.5" font-family="Helvetica,sans-Serif" font-size="10.00">ACharacter</text>
<text text-anchor="start" x="71.5" y="-266.5" font-family="Helvetica,sans-Serif" font-size="10.00"> </text>
<text text-anchor="start" x="71.5" y="-251.5" font-family="Helvetica,sans-Serif" font-size="10.00"> </text>
<polygon fill="#bfbfbf" stroke="#bfbfbf" points="41,-276.5 41,-276.5 106,-276.5 106,-276.5 41,-276.5"/>
<polygon fill="#bfbfbf" stroke="#bfbfbf" points="41,-261.5 41,-261.5 106,-261.5 106,-261.5 41,-261.5"/>
<polygon fill="none" stroke="#bfbfbf" points="40.5,-245 40.5,-294 105.5,-294 105.5,-245 40.5,-245"/>
</a>
</g>
</g>
<!-- Node2&#45;&gt;Node1 -->
<g id="edge1_Node000001_Node000002" class="edge">
<title>Node2&#45;&gt;Node1</title>
<g id="a_edge1_Node000001_Node000002"><a xlink:title=" ">
<path fill="none" stroke="#63b8ff" d="M73,-234.79C73,-226.79 73,-218.06 73,-209.41"/>
<polygon fill="none" stroke="#63b8ff" points="69.5,-234.81 73,-244.81 76.5,-234.81 69.5,-234.81"/>
</a>
</g>
</g>
</g>
</svg>
