<?xml version="1.0" encoding="UTF-8" standalone="no"?>
<!DOCTYPE svg PUBLIC "-//W3C//DTD SVG 1.1//EN"
 "http://www.w3.org/Graphics/SVG/1.1/DTD/svg11.dtd">
<!-- Generated by graphviz version 2.43.0 (0)
 -->
<!-- Title: UOWGameplayAbility Pages: 1 -->
<svg width="717pt" height="757pt"
 viewBox="0.00 0.00 716.50 757.00" xmlns="http://www.w3.org/2000/svg" xmlns:xlink="http://www.w3.org/1999/xlink">
<g id="graph0" class="graph" transform="scale(1 1) rotate(0) translate(4 753)">
<title>UOWGameplayAbility</title>
<!-- Node1 -->
<g id="Node000001" class="node">
<title>Node1</title>
<g id="a_Node000001"><a xlink:title=" ">
<polygon fill="#999999" stroke="transparent" points="596.5,-664 460.5,-664 460.5,-525 596.5,-525 596.5,-664"/>
<text text-anchor="start" x="475" y="-651.5" font-family="Helvetica,sans-Serif" font-size="10.00">UOWGameplayAbility</text>
<text text-anchor="start" x="464.5" y="-636.5" font-family="Helvetica,sans-Serif" font-size="10.00">#</text>
<text text-anchor="start" x="477.5" y="-636.5" font-family="Helvetica,sans-Serif" font-size="10.00">CooldownDuration</text>
<text text-anchor="start" x="464.5" y="-621.5" font-family="Helvetica,sans-Serif" font-size="10.00">#</text>
<text text-anchor="start" x="477.5" y="-621.5" font-family="Helvetica,sans-Serif" font-size="10.00">CooldownTags</text>
<text text-anchor="start" x="464.5" y="-606.5" font-family="Helvetica,sans-Serif" font-size="10.00">+</text>
<text text-anchor="start" x="477.5" y="-606.5" font-family="Helvetica,sans-Serif" font-size="10.00">UOWGameplayAbility()</text>
<text text-anchor="start" x="464.5" y="-591.5" font-family="Helvetica,sans-Serif" font-size="10.00">+</text>
<text text-anchor="start" x="477.5" y="-591.5" font-family="Helvetica,sans-Serif" font-size="10.00">SetCooldownData()</text>
<text text-anchor="start" x="464.5" y="-576.5" font-family="Helvetica,sans-Serif" font-size="10.00">+</text>
<text text-anchor="start" x="477.5" y="-576.5" font-family="Helvetica,sans-Serif" font-size="10.00">SetCostEffect()</text>
<text text-anchor="start" x="464.5" y="-561.5" font-family="Helvetica,sans-Serif" font-size="10.00">+</text>
<text text-anchor="start" x="477.5" y="-561.5" font-family="Helvetica,sans-Serif" font-size="10.00">ApplyCooldown()</text>
<text text-anchor="start" x="464.5" y="-546.5" font-family="Helvetica,sans-Serif" font-size="10.00">+</text>
<text text-anchor="start" x="477.5" y="-546.5" font-family="Helvetica,sans-Serif" font-size="10.00">CanActivateAbility()</text>
<text text-anchor="start" x="464.5" y="-531.5" font-family="Helvetica,sans-Serif" font-size="10.00">+</text>
<text text-anchor="start" x="477.5" y="-531.5" font-family="Helvetica,sans-Serif" font-size="10.00">ActivateAbility()</text>
<polygon fill="#666666" stroke="#666666" points="460.5,-646.5 460.5,-646.5 596.5,-646.5 596.5,-646.5 460.5,-646.5"/>
<polygon fill="#666666" stroke="#666666" points="460.5,-616.5 460.5,-616.5 475.5,-616.5 475.5,-616.5 460.5,-616.5"/>
<polygon fill="#666666" stroke="#666666" points="475.5,-616.5 475.5,-616.5 596.5,-616.5 596.5,-616.5 475.5,-616.5"/>
<polygon fill="none" stroke="#666666" points="460.5,-525 460.5,-664 596.5,-664 596.5,-525 460.5,-525"/>
</a>
</g>
</g>
<!-- Node3 -->
<g id="Node000003" class="node">
<title>Node3</title>
<g id="a_Node000003"><a xlink:href="classUOWGA__Active.html" target="_top" xlink:title=" ">
<polygon fill="white" stroke="transparent" points="422.5,-481.5 318.5,-481.5 318.5,-432.5 422.5,-432.5 422.5,-481.5"/>
<text text-anchor="start" x="332.5" y="-469" font-family="Helvetica,sans-Serif" font-size="10.00">UOWGA_Active</text>
<text text-anchor="start" x="368.5" y="-454" font-family="Helvetica,sans-Serif" font-size="10.00"> </text>
<text text-anchor="start" x="322.5" y="-439" font-family="Helvetica,sans-Serif" font-size="10.00">+</text>
<text text-anchor="start" x="335.5" y="-439" font-family="Helvetica,sans-Serif" font-size="10.00">UOWGA_Active()</text>
<polygon fill="#bfbfbf" stroke="#bfbfbf" points="318.5,-464 318.5,-464 422.5,-464 422.5,-464 318.5,-464"/>
<polygon fill="#bfbfbf" stroke="#bfbfbf" points="318.5,-449 318.5,-449 422.5,-449 422.5,-449 318.5,-449"/>
<polygon fill="none" stroke="#bfbfbf" points="318.5,-432.5 318.5,-481.5 422.5,-481.5 422.5,-432.5 318.5,-432.5"/>
</a>
</g>
</g>
<!-- Node1&#45;&gt;Node3 -->
<g id="edge2_Node000001_Node000003" class="edge">
<title>Node1&#45;&gt;Node3</title>
<g id="a_edge2_Node000001_Node000003"><a xlink:title=" ">
<path fill="none" stroke="#63b8ff" d="M452.4,-528.24C432.97,-511.57 413.3,-494.7 398.1,-481.67"/>
<polygon fill="none" stroke="#63b8ff" points="450.25,-531 460.12,-534.86 454.81,-525.69 450.25,-531"/>
</a>
</g>
</g>
<!-- Node9 -->
<g id="Node000009" class="node">
<title>Node9</title>
<g id="a_Node000009"><a xlink:href="classUOWGA__Passive.html" target="_top" xlink:title=" ">
<polygon fill="white" stroke="transparent" points="574.5,-481.5 482.5,-481.5 482.5,-432.5 574.5,-432.5 574.5,-481.5"/>
<text text-anchor="start" x="487.5" y="-469" font-family="Helvetica,sans-Serif" font-size="10.00">UOWGA_Passive</text>
<text text-anchor="start" x="526.5" y="-454" font-family="Helvetica,sans-Serif" font-size="10.00"> </text>
<text text-anchor="start" x="526.5" y="-439" font-family="Helvetica,sans-Serif" font-size="10.00"> </text>
<polygon fill="#bfbfbf" stroke="#bfbfbf" points="482.5,-464 482.5,-464 574.5,-464 574.5,-464 482.5,-464"/>
<polygon fill="#bfbfbf" stroke="#bfbfbf" points="482.5,-449 482.5,-449 574.5,-449 574.5,-449 482.5,-449"/>
<polygon fill="none" stroke="#bfbfbf" points="482.5,-432.5 482.5,-481.5 574.5,-481.5 574.5,-432.5 482.5,-432.5"/>
</a>
</g>
</g>
<!-- Node1&#45;&gt;Node9 -->
<g id="edge8_Node000001_Node000009" class="edge">
<title>Node1&#45;&gt;Node9</title>
<g id="a_edge8_Node000001_Node000009"><a xlink:title=" ">
<path fill="none" stroke="#63b8ff" d="M528.5,-514.75C528.5,-502.68 528.5,-491.1 528.5,-481.58"/>
<polygon fill="none" stroke="#63b8ff" points="525,-514.96 528.5,-524.96 532,-514.96 525,-514.96"/>
</a>
</g>
</g>
<!-- Node11 -->
<g id="Node000011" class="node">
<title>Node11</title>
<g id="a_Node000011"><a xlink:href="classUOWGA__Ultimate.html" target="_top" xlink:title=" ">
<polygon fill="white" stroke="transparent" points="708.5,-489 592.5,-489 592.5,-425 708.5,-425 708.5,-489"/>
<text text-anchor="start" x="606.5" y="-477" font-family="Helvetica,sans-Serif" font-size="10.00">UOWGA_Ultimate</text>
<text text-anchor="start" x="648.5" y="-462" font-family="Helvetica,sans-Serif" font-size="10.00"> </text>
<text text-anchor="start" x="596.5" y="-447" font-family="Helvetica,sans-Serif" font-size="10.00">+</text>
<text text-anchor="start" x="609.5" y="-447" font-family="Helvetica,sans-Serif" font-size="10.00">UOWGA_Ultimate()</text>
<text text-anchor="start" x="596.5" y="-432" font-family="Helvetica,sans-Serif" font-size="10.00">+</text>
<text text-anchor="start" x="609.5" y="-432" font-family="Helvetica,sans-Serif" font-size="10.00">ActivateAbility()</text>
<polygon fill="#666666" stroke="#666666" points="592.5,-472 592.5,-472 708.5,-472 708.5,-472 592.5,-472"/>
<polygon fill="#666666" stroke="#666666" points="592.5,-457 592.5,-457 708.5,-457 708.5,-457 592.5,-457"/>
<polygon fill="none" stroke="#666666" points="592.5,-425 592.5,-489 708.5,-489 708.5,-425 592.5,-425"/>
</a>
</g>
</g>
<!-- Node1&#45;&gt;Node11 -->
<g id="edge10_Node000001_Node000011" class="edge">
<title>Node1&#45;&gt;Node11</title>
<g id="a_edge10_Node000001_Node000011"><a xlink:title=" ">
<path fill="none" stroke="#63b8ff" d="M597.11,-517.3C606.09,-507.32 614.85,-497.6 622.59,-489"/>
<polygon fill="none" stroke="#63b8ff" points="594.3,-515.18 590.21,-524.96 599.51,-519.87 594.3,-515.18"/>
</a>
</g>
</g>
<!-- Node2 -->
<g id="Node000002" class="node">
<title>Node2</title>
<g id="a_Node000002"><a xlink:title=" ">
<polygon fill="white" stroke="transparent" points="578.5,-749 478.5,-749 478.5,-700 578.5,-700 578.5,-749"/>
<text text-anchor="start" x="483.5" y="-736.5" font-family="Helvetica,sans-Serif" font-size="10.00">UGameplayAbility</text>
<text text-anchor="start" x="526.5" y="-721.5" font-family="Helvetica,sans-Serif" font-size="10.00"> </text>
<text text-anchor="start" x="526.5" y="-706.5" font-family="Helvetica,sans-Serif" font-size="10.00"> </text>
<polygon fill="#bfbfbf" stroke="#bfbfbf" points="478.5,-731.5 478.5,-731.5 578.5,-731.5 578.5,-731.5 478.5,-731.5"/>
<polygon fill="#bfbfbf" stroke="#bfbfbf" points="478.5,-716.5 478.5,-716.5 578.5,-716.5 578.5,-716.5 478.5,-716.5"/>
<polygon fill="none" stroke="#bfbfbf" points="478.5,-700 478.5,-749 578.5,-749 578.5,-700 478.5,-700"/>
</a>
</g>
</g>
<!-- Node2&#45;&gt;Node1 -->
<g id="edge1_Node000001_Node000002" class="edge">
<title>Node2&#45;&gt;Node1</title>
<g id="a_edge1_Node000001_Node000002"><a xlink:title=" ">
<path fill="none" stroke="#63b8ff" d="M528.5,-689.48C528.5,-681.57 528.5,-672.86 528.5,-664.04"/>
<polygon fill="none" stroke="#63b8ff" points="525,-689.72 528.5,-699.72 532,-689.72 525,-689.72"/>
</a>
</g>
</g>
<!-- Node4 -->
<g id="Node000004" class="node">
<title>Node4</title>
<g id="a_Node000004"><a xlink:href="classUOWGA__Active__GunFire.html" target="_top" xlink:title=" ">
<polygon fill="white" stroke="transparent" points="218,-389 71,-389 71,-205 218,-205 218,-389"/>
<text text-anchor="start" x="86" y="-377" font-family="Helvetica,sans-Serif" font-size="10.00">UOWGA_Active_GunFire</text>
<text text-anchor="start" x="75.5" y="-362" font-family="Helvetica,sans-Serif" font-size="10.00">+</text>
<text text-anchor="start" x="88.5" y="-362" font-family="Helvetica,sans-Serif" font-size="10.00">FireProjectilepMontage</text>
<text text-anchor="start" x="75.5" y="-347" font-family="Helvetica,sans-Serif" font-size="10.00">+</text>
<text text-anchor="start" x="88.5" y="-347" font-family="Helvetica,sans-Serif" font-size="10.00">DamageGameplayEffect</text>
<text text-anchor="start" x="75.5" y="-332" font-family="Helvetica,sans-Serif" font-size="10.00">+</text>
<text text-anchor="start" x="88.5" y="-332" font-family="Helvetica,sans-Serif" font-size="10.00">ProjectileClass</text>
<text text-anchor="start" x="75.5" y="-317" font-family="Helvetica,sans-Serif" font-size="10.00">#</text>
<text text-anchor="start" x="88.5" y="-317" font-family="Helvetica,sans-Serif" font-size="10.00">Range</text>
<text text-anchor="start" x="75.5" y="-302" font-family="Helvetica,sans-Serif" font-size="10.00">#</text>
<text text-anchor="start" x="88.5" y="-302" font-family="Helvetica,sans-Serif" font-size="10.00">Damage</text>
<text text-anchor="start" x="75.5" y="-287" font-family="Helvetica,sans-Serif" font-size="10.00">+</text>
<text text-anchor="start" x="88.5" y="-287" font-family="Helvetica,sans-Serif" font-size="10.00">UOWGA_Active_GunFire()</text>
<text text-anchor="start" x="75.5" y="-272" font-family="Helvetica,sans-Serif" font-size="10.00">+</text>
<text text-anchor="start" x="88.5" y="-272" font-family="Helvetica,sans-Serif" font-size="10.00">ActivateAbility()</text>
<text text-anchor="start" x="75.5" y="-257" font-family="Helvetica,sans-Serif" font-size="10.00">#</text>
<text text-anchor="start" x="88.5" y="-257" font-family="Helvetica,sans-Serif" font-size="10.00">OnCancelled()</text>
<text text-anchor="start" x="75.5" y="-242" font-family="Helvetica,sans-Serif" font-size="10.00">#</text>
<text text-anchor="start" x="88.5" y="-242" font-family="Helvetica,sans-Serif" font-size="10.00">OnCompleted()</text>
<text text-anchor="start" x="75.5" y="-227" font-family="Helvetica,sans-Serif" font-size="10.00">#</text>
<text text-anchor="start" x="88.5" y="-227" font-family="Helvetica,sans-Serif" font-size="10.00">EventReceived()</text>
<text text-anchor="start" x="75.5" y="-212" font-family="Helvetica,sans-Serif" font-size="10.00">#</text>
<text text-anchor="start" x="88.5" y="-212" font-family="Helvetica,sans-Serif" font-size="10.00">SpawnProjectile()</text>
<polygon fill="#bfbfbf" stroke="#bfbfbf" points="71.5,-372 71.5,-372 218.5,-372 218.5,-372 71.5,-372"/>
<polygon fill="#bfbfbf" stroke="#bfbfbf" points="71.5,-297 71.5,-297 86.5,-297 86.5,-297 71.5,-297"/>
<polygon fill="#bfbfbf" stroke="#bfbfbf" points="86.5,-297 86.5,-297 218.5,-297 218.5,-297 86.5,-297"/>
<polygon fill="none" stroke="#bfbfbf" points="71,-205 71,-389 218,-389 218,-205 71,-205"/>
</a>
</g>
</g>
<!-- Node3&#45;&gt;Node4 -->
<g id="edge3_Node000003_Node000004" class="edge">
<title>Node3&#45;&gt;Node4</title>
<g id="a_edge3_Node000003_Node000004"><a xlink:title=" ">
<path fill="none" stroke="#63b8ff" d="M309.15,-433.89C282.39,-422.66 251.49,-407.47 226.5,-389 223.68,-386.91 220.88,-384.72 218.11,-382.44"/>
<polygon fill="none" stroke="#63b8ff" points="307.85,-437.13 318.43,-437.69 310.5,-430.66 307.85,-437.13"/>
</a>
</g>
</g>
<!-- Node7 -->
<g id="Node000007" class="node">
<title>Node7</title>
<g id="a_Node000007"><a xlink:href="classUOWGA__CyberAgility.html" target="_top" xlink:title=" ">
<polygon fill="white" stroke="transparent" points="369,-344 236,-344 236,-250 369,-250 369,-344"/>
<text text-anchor="start" x="250.5" y="-332" font-family="Helvetica,sans-Serif" font-size="10.00">UOWGA_CyberAgility</text>
<text text-anchor="start" x="240.5" y="-317" font-family="Helvetica,sans-Serif" font-size="10.00">#</text>
<text text-anchor="start" x="253.5" y="-317" font-family="Helvetica,sans-Serif" font-size="10.00">DoubleJumpStrength</text>
<text text-anchor="start" x="240.5" y="-302" font-family="Helvetica,sans-Serif" font-size="10.00">#</text>
<text text-anchor="start" x="253.5" y="-302" font-family="Helvetica,sans-Serif" font-size="10.00">bDoubleJumpUsed</text>
<text text-anchor="start" x="240.5" y="-287" font-family="Helvetica,sans-Serif" font-size="10.00">+</text>
<text text-anchor="start" x="253.5" y="-287" font-family="Helvetica,sans-Serif" font-size="10.00">UOWGA_CyberAgility()</text>
<text text-anchor="start" x="240.5" y="-272" font-family="Helvetica,sans-Serif" font-size="10.00">+</text>
<text text-anchor="start" x="253.5" y="-272" font-family="Helvetica,sans-Serif" font-size="10.00">ActivateAbility()</text>
<text text-anchor="start" x="240.5" y="-257" font-family="Helvetica,sans-Serif" font-size="10.00">#</text>
<text text-anchor="start" x="253.5" y="-257" font-family="Helvetica,sans-Serif" font-size="10.00">OnLanded()</text>
<polygon fill="#bfbfbf" stroke="#bfbfbf" points="236.5,-327 236.5,-327 369.5,-327 369.5,-327 236.5,-327"/>
<polygon fill="#bfbfbf" stroke="#bfbfbf" points="236.5,-297 236.5,-297 251.5,-297 251.5,-297 236.5,-297"/>
<polygon fill="#bfbfbf" stroke="#bfbfbf" points="251.5,-297 251.5,-297 369.5,-297 369.5,-297 251.5,-297"/>
<polygon fill="none" stroke="#bfbfbf" points="236,-250 236,-344 369,-344 369,-250 236,-250"/>
</a>
</g>
</g>
<!-- Node3&#45;&gt;Node7 -->
<g id="edge6_Node000003_Node000007" class="edge">
<title>Node3&#45;&gt;Node7</title>
<g id="a_edge6_Node000003_Node000007"><a xlink:title=" ">
<path fill="none" stroke="#63b8ff" d="M356.33,-423.07C346.48,-400.19 333.23,-369.4 322.34,-344.09"/>
<polygon fill="none" stroke="#63b8ff" points="353.15,-424.54 360.32,-432.35 359.58,-421.78 353.15,-424.54"/>
</a>
</g>
</g>
<!-- Node8 -->
<g id="Node000008" class="node">
<title>Node8</title>
<g id="a_Node000008"><a xlink:href="classUOWGA__FastZoom.html" target="_top" xlink:title=" ">
<polygon fill="white" stroke="transparent" points="490,-329 387,-329 387,-265 490,-265 490,-329"/>
<text text-anchor="start" x="392.5" y="-317" font-family="Helvetica,sans-Serif" font-size="10.00">UOWGA_FastZoom</text>
<text text-anchor="start" x="392" y="-302" font-family="Helvetica,sans-Serif" font-size="10.00">#</text>
<text text-anchor="start" x="405.5" y="-302" font-family="Helvetica,sans-Serif" font-size="10.00">ZoomFOV</text>
<text text-anchor="start" x="392" y="-287" font-family="Helvetica,sans-Serif" font-size="10.00">+</text>
<text text-anchor="start" x="405.5" y="-287" font-family="Helvetica,sans-Serif" font-size="10.00">ActivateAbility()</text>
<text text-anchor="start" x="392" y="-272" font-family="Helvetica,sans-Serif" font-size="10.00">+</text>
<text text-anchor="start" x="405.5" y="-272" font-family="Helvetica,sans-Serif" font-size="10.00">EndAbility()</text>
<polygon fill="#bfbfbf" stroke="#bfbfbf" points="387.5,-312 387.5,-312 490.5,-312 490.5,-312 387.5,-312"/>
<polygon fill="#bfbfbf" stroke="#bfbfbf" points="387.5,-297 387.5,-297 403.5,-297 403.5,-297 387.5,-297"/>
<polygon fill="#bfbfbf" stroke="#bfbfbf" points="403.5,-297 403.5,-297 490.5,-297 490.5,-297 403.5,-297"/>
<polygon fill="none" stroke="#bfbfbf" points="387,-265 387,-329 490,-329 490,-265 387,-265"/>
</a>
</g>
</g>
<!-- Node3&#45;&gt;Node8 -->
<g id="edge7_Node000003_Node000008" class="edge">
<title>Node3&#45;&gt;Node8</title>
<g id="a_edge7_Node000003_Node000008"><a xlink:title=" ">
<path fill="none" stroke="#63b8ff" d="M384.66,-423.1C396.55,-395.48 413.41,-356.29 425.08,-329.17"/>
<polygon fill="none" stroke="#63b8ff" points="381.42,-421.78 380.68,-432.35 387.85,-424.54 381.42,-421.78"/>
</a>
</g>
</g>
<!-- Node5 -->
<g id="Node000005" class="node">
<title>Node5</title>
<g id="a_Node000005"><a xlink:href="classUOWGA__ShurikenMain.html" target="_top" xlink:title=" ">
<polygon fill="white" stroke="transparent" points="139,-169 0,-169 0,0 139,0 139,-169"/>
<text text-anchor="start" x="14.5" y="-156.5" font-family="Helvetica,sans-Serif" font-size="10.00">UOWGA_ShurikenMain</text>
<text text-anchor="start" x="68" y="-141.5" font-family="Helvetica,sans-Serif" font-size="10.00"> </text>
<text text-anchor="start" x="4.5" y="-126.5" font-family="Helvetica,sans-Serif" font-size="10.00">+</text>
<text text-anchor="start" x="17.5" y="-126.5" font-family="Helvetica,sans-Serif" font-size="10.00">UOWGA_ShurikenMain()</text>
<text text-anchor="start" x="4.5" y="-111.5" font-family="Helvetica,sans-Serif" font-size="10.00">+</text>
<text text-anchor="start" x="17.5" y="-111.5" font-family="Helvetica,sans-Serif" font-size="10.00">SetCurrentMontage()</text>
<text text-anchor="start" x="4.5" y="-96.5" font-family="Helvetica,sans-Serif" font-size="10.00">+</text>
<text text-anchor="start" x="17.5" y="-96.5" font-family="Helvetica,sans-Serif" font-size="10.00">CanActivateAbility()</text>
<text text-anchor="start" x="4.5" y="-81.5" font-family="Helvetica,sans-Serif" font-size="10.00">+</text>
<text text-anchor="start" x="17.5" y="-81.5" font-family="Helvetica,sans-Serif" font-size="10.00">ActivateAbility()</text>
<text text-anchor="start" x="4.5" y="-66.5" font-family="Helvetica,sans-Serif" font-size="10.00">+</text>
<text text-anchor="start" x="17.5" y="-66.5" font-family="Helvetica,sans-Serif" font-size="10.00">EndAbility()</text>
<text text-anchor="start" x="4.5" y="-51.5" font-family="Helvetica,sans-Serif" font-size="10.00">+</text>
<text text-anchor="start" x="17.5" y="-51.5" font-family="Helvetica,sans-Serif" font-size="10.00">ShurikenMain()</text>
<text text-anchor="start" x="4.5" y="-36.5" font-family="Helvetica,sans-Serif" font-size="10.00">+</text>
<text text-anchor="start" x="17.5" y="-36.5" font-family="Helvetica,sans-Serif" font-size="10.00">ThrowFirstShuriken()</text>
<text text-anchor="start" x="4.5" y="-21.5" font-family="Helvetica,sans-Serif" font-size="10.00">+</text>
<text text-anchor="start" x="17.5" y="-21.5" font-family="Helvetica,sans-Serif" font-size="10.00">ThrowSecondShuriken()</text>
<text text-anchor="start" x="4.5" y="-6.5" font-family="Helvetica,sans-Serif" font-size="10.00">+</text>
<text text-anchor="start" x="17.5" y="-6.5" font-family="Helvetica,sans-Serif" font-size="10.00">ThrowThirdShuriken()</text>
<polygon fill="#bfbfbf" stroke="#bfbfbf" points="0.5,-151.5 0.5,-151.5 139.5,-151.5 139.5,-151.5 0.5,-151.5"/>
<polygon fill="#bfbfbf" stroke="#bfbfbf" points="0.5,-136.5 0.5,-136.5 139.5,-136.5 139.5,-136.5 0.5,-136.5"/>
<polygon fill="none" stroke="#bfbfbf" points="0,0 0,-169 139,-169 139,0 0,0"/>
</a>
</g>
</g>
<!-- Node4&#45;&gt;Node5 -->
<g id="edge4_Node000004_Node000005" class="edge">
<title>Node4&#45;&gt;Node5</title>
<g id="a_edge4_Node000004_Node000005"><a xlink:title=" ">
<path fill="none" stroke="#63b8ff" d="M108.65,-195.38C105.52,-186.59 102.37,-177.75 99.29,-169.11"/>
<polygon fill="none" stroke="#63b8ff" points="105.39,-196.65 112.04,-204.9 111.98,-194.3 105.39,-196.65"/>
</a>
</g>
</g>
<!-- Node6 -->
<g id="Node000006" class="node">
<title>Node6</title>
<g id="a_Node000006"><a xlink:href="classUOWGA__ShurikenSub.html" target="_top" xlink:title=" ">
<polygon fill="white" stroke="transparent" points="281.5,-146.5 157.5,-146.5 157.5,-22.5 281.5,-22.5 281.5,-146.5"/>
<text text-anchor="start" x="167" y="-134.5" font-family="Helvetica,sans-Serif" font-size="10.00">UOWGA_ShurikenSub</text>
<text text-anchor="start" x="217.5" y="-119.5" font-family="Helvetica,sans-Serif" font-size="10.00"> </text>
<text text-anchor="start" x="161.5" y="-104.5" font-family="Helvetica,sans-Serif" font-size="10.00">+</text>
<text text-anchor="start" x="174.5" y="-104.5" font-family="Helvetica,sans-Serif" font-size="10.00">SetCurrentMontage()</text>
<text text-anchor="start" x="161.5" y="-89.5" font-family="Helvetica,sans-Serif" font-size="10.00">+</text>
<text text-anchor="start" x="174.5" y="-89.5" font-family="Helvetica,sans-Serif" font-size="10.00">CanActivateAbility()</text>
<text text-anchor="start" x="161.5" y="-74.5" font-family="Helvetica,sans-Serif" font-size="10.00">+</text>
<text text-anchor="start" x="174.5" y="-74.5" font-family="Helvetica,sans-Serif" font-size="10.00">ActivateAbility()</text>
<text text-anchor="start" x="161.5" y="-59.5" font-family="Helvetica,sans-Serif" font-size="10.00">+</text>
<text text-anchor="start" x="174.5" y="-59.5" font-family="Helvetica,sans-Serif" font-size="10.00">EndAbility()</text>
<text text-anchor="start" x="161.5" y="-44.5" font-family="Helvetica,sans-Serif" font-size="10.00">+</text>
<text text-anchor="start" x="174.5" y="-44.5" font-family="Helvetica,sans-Serif" font-size="10.00">ShurikenSub()</text>
<text text-anchor="start" x="161.5" y="-29.5" font-family="Helvetica,sans-Serif" font-size="10.00">+</text>
<text text-anchor="start" x="174.5" y="-29.5" font-family="Helvetica,sans-Serif" font-size="10.00">SpawnProjectile()</text>
<polygon fill="#bfbfbf" stroke="#bfbfbf" points="157.5,-129.5 157.5,-129.5 281.5,-129.5 281.5,-129.5 157.5,-129.5"/>
<polygon fill="#bfbfbf" stroke="#bfbfbf" points="157.5,-114.5 157.5,-114.5 281.5,-114.5 281.5,-114.5 157.5,-114.5"/>
<polygon fill="none" stroke="#bfbfbf" points="157.5,-22.5 157.5,-146.5 281.5,-146.5 281.5,-22.5 157.5,-22.5"/>
</a>
</g>
</g>
<!-- Node4&#45;&gt;Node6 -->
<g id="edge5_Node000004_Node000006" class="edge">
<title>Node4&#45;&gt;Node6</title>
<g id="a_edge5_Node000004_Node000006"><a xlink:title=" ">
<path fill="none" stroke="#63b8ff" d="M180.42,-195.17C186.32,-178.61 192.28,-161.91 197.7,-146.7"/>
<polygon fill="none" stroke="#63b8ff" points="177.02,-194.3 176.96,-204.9 183.61,-196.65 177.02,-194.3"/>
</a>
</g>
</g>
<!-- Node10 -->
<g id="Node000010" class="node">
<title>Node10</title>
<g id="a_Node000010"><a xlink:href="classUOWGA__Reload.html" target="_top" xlink:title=" ">
<polygon fill="white" stroke="transparent" points="632.5,-351.5 508.5,-351.5 508.5,-242.5 632.5,-242.5 632.5,-351.5"/>
<text text-anchor="start" x="531" y="-339" font-family="Helvetica,sans-Serif" font-size="10.00">UOWGA_Reload</text>
<text text-anchor="start" x="568.5" y="-324" font-family="Helvetica,sans-Serif" font-size="10.00"> </text>
<text text-anchor="start" x="512.5" y="-309" font-family="Helvetica,sans-Serif" font-size="10.00">+</text>
<text text-anchor="start" x="525.5" y="-309" font-family="Helvetica,sans-Serif" font-size="10.00">SetCurrentMontage()</text>
<text text-anchor="start" x="512.5" y="-294" font-family="Helvetica,sans-Serif" font-size="10.00">+</text>
<text text-anchor="start" x="525.5" y="-294" font-family="Helvetica,sans-Serif" font-size="10.00">CanActivateAbility()</text>
<text text-anchor="start" x="512.5" y="-279" font-family="Helvetica,sans-Serif" font-size="10.00">+</text>
<text text-anchor="start" x="525.5" y="-279" font-family="Helvetica,sans-Serif" font-size="10.00">ActivateAbility()</text>
<text text-anchor="start" x="512.5" y="-264" font-family="Helvetica,sans-Serif" font-size="10.00">+</text>
<text text-anchor="start" x="525.5" y="-264" font-family="Helvetica,sans-Serif" font-size="10.00">EndAbility()</text>
<text text-anchor="start" x="512.5" y="-249" font-family="Helvetica,sans-Serif" font-size="10.00">+</text>
<text text-anchor="start" x="525.5" y="-249" font-family="Helvetica,sans-Serif" font-size="10.00">Reload()</text>
<polygon fill="#bfbfbf" stroke="#bfbfbf" points="508.5,-334 508.5,-334 632.5,-334 632.5,-334 508.5,-334"/>
<polygon fill="#bfbfbf" stroke="#bfbfbf" points="508.5,-319 508.5,-319 632.5,-319 632.5,-319 508.5,-319"/>
<polygon fill="none" stroke="#bfbfbf" points="508.5,-242.5 508.5,-351.5 632.5,-351.5 632.5,-242.5 508.5,-242.5"/>
</a>
</g>
</g>
<!-- Node9&#45;&gt;Node10 -->
<g id="edge9_Node000009_Node000010" class="edge">
<title>Node9&#45;&gt;Node10</title>
<g id="a_edge9_Node000009_Node000010"><a xlink:title=" ">
<path fill="none" stroke="#63b8ff" d="M537.41,-422.5C542.87,-401.92 550,-375.1 556.25,-351.63"/>
<polygon fill="none" stroke="#63b8ff" points="533.97,-421.78 534.79,-432.35 540.74,-423.58 533.97,-421.78"/>
</a>
</g>
</g>
</g>
</svg>
