<?xml version="1.0" encoding="UTF-8" standalone="no"?>
<!DOCTYPE svg PUBLIC "-//W3C//DTD SVG 1.1//EN"
 "http://www.w3.org/Graphics/SVG/1.1/DTD/svg11.dtd">
<!-- Generated by graphviz version 2.43.0 (0)
 -->
<!-- Title: UOWGE_InitUltimateGauge Pages: 1 -->
<svg width="171pt" height="227pt"
 viewBox="0.00 0.00 171.00 227.00" xmlns="http://www.w3.org/2000/svg" xmlns:xlink="http://www.w3.org/1999/xlink">
<g id="graph0" class="graph" transform="scale(1 1) rotate(0) translate(4 223)">
<title>UOWGE_InitUltimateGauge</title>
<!-- Node1 -->
<g id="Node000001" class="node">
<title>Node1</title>
<g id="a_Node000001"><a xlink:title=" ">
<polygon fill="#999999" stroke="transparent" points="163,-49 0,-49 0,0 163,0 163,-49"/>
<text text-anchor="start" x="15" y="-36.5" font-family="Helvetica,sans-Serif" font-size="10.00">UOWGE_InitUltimateGauge</text>
<text text-anchor="start" x="80" y="-21.5" font-family="Helvetica,sans-Serif" font-size="10.00"> </text>
<text text-anchor="start" x="4.5" y="-6.5" font-family="Helvetica,sans-Serif" font-size="10.00">+</text>
<text text-anchor="start" x="17.5" y="-6.5" font-family="Helvetica,sans-Serif" font-size="10.00">UOWGE_InitUltimateGauge()</text>
<polygon fill="#666666" stroke="#666666" points="0.5,-31.5 0.5,-31.5 163.5,-31.5 163.5,-31.5 0.5,-31.5"/>
<polygon fill="#666666" stroke="#666666" points="0.5,-16.5 0.5,-16.5 163.5,-16.5 163.5,-16.5 0.5,-16.5"/>
<polygon fill="none" stroke="#666666" points="0,0 0,-49 163,-49 163,0 0,0"/>
</a>
</g>
</g>
<!-- Node2 -->
<g id="Node000002" class="node">
<title>Node2</title>
<g id="a_Node000002"><a xlink:href="classUOWGameplayEffect.html" target="_top" xlink:title=" ">
<polygon fill="white" stroke="transparent" points="138,-134 25,-134 25,-85 138,-85 138,-134"/>
<text text-anchor="start" x="30.5" y="-121.5" font-family="Helvetica,sans-Serif" font-size="10.00">UOWGameplayEffect</text>
<text text-anchor="start" x="80" y="-106.5" font-family="Helvetica,sans-Serif" font-size="10.00"> </text>
<text text-anchor="start" x="80" y="-91.5" font-family="Helvetica,sans-Serif" font-size="10.00"> </text>
<polygon fill="#bfbfbf" stroke="#bfbfbf" points="25.5,-116.5 25.5,-116.5 138.5,-116.5 138.5,-116.5 25.5,-116.5"/>
<polygon fill="#bfbfbf" stroke="#bfbfbf" points="25.5,-101.5 25.5,-101.5 138.5,-101.5 138.5,-101.5 25.5,-101.5"/>
<polygon fill="none" stroke="#bfbfbf" points="25,-85 25,-134 138,-134 138,-85 25,-85"/>
</a>
</g>
</g>
<!-- Node2&#45;&gt;Node1 -->
<g id="edge1_Node000001_Node000002" class="edge">
<title>Node2&#45;&gt;Node1</title>
<g id="a_edge1_Node000001_Node000002"><a xlink:title=" ">
<path fill="none" stroke="#63b8ff" d="M81.5,-74.77C81.5,-66.17 81.5,-57.1 81.5,-49.12"/>
<polygon fill="none" stroke="#63b8ff" points="78,-74.94 81.5,-84.94 85,-74.94 78,-74.94"/>
</a>
</g>
</g>
<!-- Node3 -->
<g id="Node000003" class="node">
<title>Node3</title>
<g id="a_Node000003"><a xlink:title=" ">
<polygon fill="white" stroke="transparent" points="129.5,-219 33.5,-219 33.5,-170 129.5,-170 129.5,-219"/>
<text text-anchor="start" x="38.5" y="-206.5" font-family="Helvetica,sans-Serif" font-size="10.00">UGameplayEffect</text>
<text text-anchor="start" x="79.5" y="-191.5" font-family="Helvetica,sans-Serif" font-size="10.00"> </text>
<text text-anchor="start" x="79.5" y="-176.5" font-family="Helvetica,sans-Serif" font-size="10.00"> </text>
<polygon fill="#bfbfbf" stroke="#bfbfbf" points="33.5,-201.5 33.5,-201.5 129.5,-201.5 129.5,-201.5 33.5,-201.5"/>
<polygon fill="#bfbfbf" stroke="#bfbfbf" points="33.5,-186.5 33.5,-186.5 129.5,-186.5 129.5,-186.5 33.5,-186.5"/>
<polygon fill="none" stroke="#bfbfbf" points="33.5,-170 33.5,-219 129.5,-219 129.5,-170 33.5,-170"/>
</a>
</g>
</g>
<!-- Node3&#45;&gt;Node2 -->
<g id="edge2_Node000002_Node000003" class="edge">
<title>Node3&#45;&gt;Node2</title>
<g id="a_edge2_Node000002_Node000003"><a xlink:title=" ">
<path fill="none" stroke="#63b8ff" d="M81.5,-159.77C81.5,-151.17 81.5,-142.1 81.5,-134.12"/>
<polygon fill="none" stroke="#63b8ff" points="78,-159.94 81.5,-169.94 85,-159.94 78,-159.94"/>
</a>
</g>
</g>
</g>
</svg>
