<?xml version="1.0" encoding="UTF-8" standalone="no"?>
<!DOCTYPE svg PUBLIC "-//W3C//DTD SVG 1.1//EN"
 "http://www.w3.org/Graphics/SVG/1.1/DTD/svg11.dtd">
<!-- Generated by graphviz version 2.43.0 (0)
 -->
<!-- Title: AOWMonster Pages: 1 -->
<svg width="154pt" height="332pt"
 viewBox="0.00 0.00 154.00 332.00" xmlns="http://www.w3.org/2000/svg" xmlns:xlink="http://www.w3.org/1999/xlink">
<g id="graph0" class="graph" transform="scale(1 1) rotate(0) translate(4 328)">
<title>AOWMonster</title>
<!-- Node1 -->
<g id="Node000001" class="node">
<title>Node1</title>
<g id="a_Node000001"><a xlink:title=" ">
<polygon fill="#999999" stroke="transparent" points="119.5,-64 26.5,-64 26.5,0 119.5,0 119.5,-64"/>
<text text-anchor="start" x="41.5" y="-52" font-family="Helvetica,sans-Serif" font-size="10.00">AOWMonster</text>
<text text-anchor="start" x="31" y="-37" font-family="Helvetica,sans-Serif" font-size="10.00">#</text>
<text text-anchor="start" x="44" y="-37" font-family="Helvetica,sans-Serif" font-size="10.00">AbilitySet</text>
<text text-anchor="start" x="31" y="-22" font-family="Helvetica,sans-Serif" font-size="10.00">+</text>
<text text-anchor="start" x="44" y="-22" font-family="Helvetica,sans-Serif" font-size="10.00">AOWMonster()</text>
<text text-anchor="start" x="31" y="-7" font-family="Helvetica,sans-Serif" font-size="10.00">#</text>
<text text-anchor="start" x="44" y="-7" font-family="Helvetica,sans-Serif" font-size="10.00">BeginPlay()</text>
<polygon fill="#666666" stroke="#666666" points="27,-47 27,-47 120,-47 120,-47 27,-47"/>
<polygon fill="#666666" stroke="#666666" points="27,-32 27,-32 42,-32 42,-32 27,-32"/>
<polygon fill="#666666" stroke="#666666" points="42,-32 42,-32 120,-32 120,-32 42,-32"/>
<polygon fill="none" stroke="#666666" points="26.5,0 26.5,-64 119.5,-64 119.5,0 26.5,0"/>
</a>
</g>
</g>
<!-- Node2 -->
<g id="Node000002" class="node">
<title>Node2</title>
<g id="a_Node000002"><a xlink:href="classAOWCharacter.html" target="_top" xlink:title=" ">
<polygon fill="white" stroke="transparent" points="146,-239 0,-239 0,-100 146,-100 146,-239"/>
<text text-anchor="start" x="37" y="-226.5" font-family="Helvetica,sans-Serif" font-size="10.00">AOWCharacter</text>
<text text-anchor="start" x="4" y="-211.5" font-family="Helvetica,sans-Serif" font-size="10.00">#</text>
<text text-anchor="start" x="17" y="-211.5" font-family="Helvetica,sans-Serif" font-size="10.00">AbilitySystemComponent</text>
<text text-anchor="start" x="4" y="-196.5" font-family="Helvetica,sans-Serif" font-size="10.00">+</text>
<text text-anchor="start" x="17" y="-196.5" font-family="Helvetica,sans-Serif" font-size="10.00">AOWCharacter()</text>
<text text-anchor="start" x="4" y="-181.5" font-family="Helvetica,sans-Serif" font-size="10.00">+</text>
<text text-anchor="start" x="17" y="-181.5" font-family="Helvetica,sans-Serif" font-size="10.00">Move()</text>
<text text-anchor="start" x="4" y="-166.5" font-family="Helvetica,sans-Serif" font-size="10.00">+</text>
<text text-anchor="start" x="17" y="-166.5" font-family="Helvetica,sans-Serif" font-size="10.00">Look()</text>
<text text-anchor="start" x="4" y="-151.5" font-family="Helvetica,sans-Serif" font-size="10.00">+</text>
<text text-anchor="start" x="17" y="-151.5" font-family="Helvetica,sans-Serif" font-size="10.00">ActivateAbility()</text>
<text text-anchor="start" x="4" y="-136.5" font-family="Helvetica,sans-Serif" font-size="10.00">+</text>
<text text-anchor="start" x="17" y="-136.5" font-family="Helvetica,sans-Serif" font-size="10.00">Jump()</text>
<text text-anchor="start" x="4" y="-121.5" font-family="Helvetica,sans-Serif" font-size="10.00">#</text>
<text text-anchor="start" x="17" y="-121.5" font-family="Helvetica,sans-Serif" font-size="10.00">BeginPlay()</text>
<text text-anchor="start" x="4" y="-106.5" font-family="Helvetica,sans-Serif" font-size="10.00">#</text>
<text text-anchor="start" x="17" y="-106.5" font-family="Helvetica,sans-Serif" font-size="10.00">PossessedBy()</text>
<polygon fill="#bfbfbf" stroke="#bfbfbf" points="0,-221.5 0,-221.5 146,-221.5 146,-221.5 0,-221.5"/>
<polygon fill="#bfbfbf" stroke="#bfbfbf" points="0,-206.5 0,-206.5 15,-206.5 15,-206.5 0,-206.5"/>
<polygon fill="#bfbfbf" stroke="#bfbfbf" points="15,-206.5 15,-206.5 146,-206.5 146,-206.5 15,-206.5"/>
<polygon fill="none" stroke="#bfbfbf" points="0,-100 0,-239 146,-239 146,-100 0,-100"/>
</a>
</g>
</g>
<!-- Node2&#45;&gt;Node1 -->
<g id="edge1_Node000001_Node000002" class="edge">
<title>Node2&#45;&gt;Node1</title>
<g id="a_edge1_Node000001_Node000002"><a xlink:title=" ">
<path fill="none" stroke="#63b8ff" d="M73,-89.95C73,-80.8 73,-71.92 73,-64"/>
<polygon fill="none" stroke="#63b8ff" points="69.5,-89.96 73,-99.96 76.5,-89.96 69.5,-89.96"/>
</a>
</g>
</g>
<!-- Node3 -->
<g id="Node000003" class="node">
<title>Node3</title>
<g id="a_Node000003"><a xlink:title=" ">
<polygon fill="white" stroke="transparent" points="105.5,-324 40.5,-324 40.5,-275 105.5,-275 105.5,-324"/>
<text text-anchor="start" x="46" y="-311.5" font-family="Helvetica,sans-Serif" font-size="10.00">ACharacter</text>
<text text-anchor="start" x="71.5" y="-296.5" font-family="Helvetica,sans-Serif" font-size="10.00"> </text>
<text text-anchor="start" x="71.5" y="-281.5" font-family="Helvetica,sans-Serif" font-size="10.00"> </text>
<polygon fill="#bfbfbf" stroke="#bfbfbf" points="41,-306.5 41,-306.5 106,-306.5 106,-306.5 41,-306.5"/>
<polygon fill="#bfbfbf" stroke="#bfbfbf" points="41,-291.5 41,-291.5 106,-291.5 106,-291.5 41,-291.5"/>
<polygon fill="none" stroke="#bfbfbf" points="40.5,-275 40.5,-324 105.5,-324 105.5,-275 40.5,-275"/>
</a>
</g>
</g>
<!-- Node3&#45;&gt;Node2 -->
<g id="edge2_Node000002_Node000003" class="edge">
<title>Node3&#45;&gt;Node2</title>
<g id="a_edge2_Node000002_Node000003"><a xlink:title=" ">
<path fill="none" stroke="#63b8ff" d="M73,-264.48C73,-256.57 73,-247.86 73,-239.04"/>
<polygon fill="none" stroke="#63b8ff" points="69.5,-264.72 73,-274.72 76.5,-264.72 69.5,-264.72"/>
</a>
</g>
</g>
</g>
</svg>
