<?xml version="1.0" encoding="UTF-8" standalone="no"?>
<!DOCTYPE svg PUBLIC "-//W3C//DTD SVG 1.1//EN"
 "http://www.w3.org/Graphics/SVG/1.1/DTD/svg11.dtd">
<!-- Generated by graphviz version 2.43.0 (0)
 -->
<!-- Title: UOWGameplayEffect Pages: 1 -->
<svg width="418pt" height="242pt"
 viewBox="0.00 0.00 418.00 242.00" xmlns="http://www.w3.org/2000/svg" xmlns:xlink="http://www.w3.org/1999/xlink">
<g id="graph0" class="graph" transform="scale(1 1) rotate(0) translate(4 238)">
<title>UOWGameplayEffect</title>
<!-- Node1 -->
<g id="Node000001" class="node">
<title>Node1</title>
<g id="a_Node000001"><a xlink:title=" ">
<polygon fill="#999999" stroke="transparent" points="301.5,-149 188.5,-149 188.5,-100 301.5,-100 301.5,-149"/>
<text text-anchor="start" x="194" y="-136.5" font-family="Helvetica,sans-Serif" font-size="10.00">UOWGameplayEffect</text>
<text text-anchor="start" x="243.5" y="-121.5" font-family="Helvetica,sans-Serif" font-size="10.00"> </text>
<text text-anchor="start" x="243.5" y="-106.5" font-family="Helvetica,sans-Serif" font-size="10.00"> </text>
<polygon fill="#666666" stroke="#666666" points="189,-131.5 189,-131.5 302,-131.5 302,-131.5 189,-131.5"/>
<polygon fill="#666666" stroke="#666666" points="189,-116.5 189,-116.5 302,-116.5 302,-116.5 189,-116.5"/>
<polygon fill="none" stroke="#666666" points="188.5,-100 188.5,-149 301.5,-149 301.5,-100 188.5,-100"/>
</a>
</g>
</g>
<!-- Node3 -->
<g id="Node000003" class="node">
<title>Node3</title>
<g id="a_Node000003"><a xlink:href="classUOWCooldownGameplayEffect.html" target="_top" xlink:title=" ">
<polygon fill="white" stroke="transparent" points="180,-56.5 0,-56.5 0,-7.5 180,-7.5 180,-56.5"/>
<text text-anchor="start" x="14.5" y="-44" font-family="Helvetica,sans-Serif" font-size="10.00">UOWCooldownGameplayEffect</text>
<text text-anchor="start" x="88" y="-29" font-family="Helvetica,sans-Serif" font-size="10.00"> </text>
<text text-anchor="start" x="4" y="-14" font-family="Helvetica,sans-Serif" font-size="10.00">+</text>
<text text-anchor="start" x="17" y="-14" font-family="Helvetica,sans-Serif" font-size="10.00">UOWCooldownGameplayEffect()</text>
<polygon fill="#bfbfbf" stroke="#bfbfbf" points="0,-39 0,-39 180,-39 180,-39 0,-39"/>
<polygon fill="#bfbfbf" stroke="#bfbfbf" points="0,-24 0,-24 180,-24 180,-24 0,-24"/>
<polygon fill="none" stroke="#bfbfbf" points="0,-7.5 0,-56.5 180,-56.5 180,-7.5 0,-7.5"/>
</a>
</g>
</g>
<!-- Node1&#45;&gt;Node3 -->
<g id="edge2_Node000001_Node000003" class="edge">
<title>Node1&#45;&gt;Node3</title>
<g id="a_edge2_Node000001_Node000003"><a xlink:title=" ">
<path fill="none" stroke="#63b8ff" d="M195.86,-94.81C174.76,-82.49 150.41,-68.27 130.39,-56.58"/>
<polygon fill="none" stroke="#63b8ff" points="194.28,-97.94 204.68,-99.96 197.81,-91.89 194.28,-97.94"/>
</a>
</g>
</g>
<!-- Node4 -->
<g id="Node000004" class="node">
<title>Node4</title>
<g id="a_Node000004"><a xlink:href="classUOWGE__Cost.html" target="_top" xlink:title=" ">
<polygon fill="white" stroke="transparent" points="292,-56.5 198,-56.5 198,-7.5 292,-7.5 292,-56.5"/>
<text text-anchor="start" x="212" y="-44" font-family="Helvetica,sans-Serif" font-size="10.00">UOWGE_Cost</text>
<text text-anchor="start" x="243" y="-29" font-family="Helvetica,sans-Serif" font-size="10.00"> </text>
<text text-anchor="start" x="202" y="-14" font-family="Helvetica,sans-Serif" font-size="10.00">+</text>
<text text-anchor="start" x="215" y="-14" font-family="Helvetica,sans-Serif" font-size="10.00">UOWGE_Cost()</text>
<polygon fill="#666666" stroke="#666666" points="198,-39 198,-39 292,-39 292,-39 198,-39"/>
<polygon fill="#666666" stroke="#666666" points="198,-24 198,-24 292,-24 292,-24 198,-24"/>
<polygon fill="none" stroke="#666666" points="198,-7.5 198,-56.5 292,-56.5 292,-7.5 198,-7.5"/>
</a>
</g>
</g>
<!-- Node1&#45;&gt;Node4 -->
<g id="edge3_Node000001_Node000004" class="edge">
<title>Node1&#45;&gt;Node4</title>
<g id="a_edge3_Node000001_Node000004"><a xlink:title=" ">
<path fill="none" stroke="#63b8ff" d="M245,-89.58C245,-78.61 245,-66.68 245,-56.62"/>
<polygon fill="none" stroke="#63b8ff" points="241.5,-89.72 245,-99.72 248.5,-89.72 241.5,-89.72"/>
</a>
</g>
</g>
<!-- Node5 -->
<g id="Node000005" class="node">
<title>Node5</title>
<g id="a_Node000005"><a xlink:href="classUOWGE__Sleep.html" target="_top" xlink:title=" ">
<polygon fill="white" stroke="transparent" points="410,-64 310,-64 310,0 410,0 410,-64"/>
<text text-anchor="start" x="324.5" y="-52" font-family="Helvetica,sans-Serif" font-size="10.00">UOWGE_Sleep</text>
<text text-anchor="start" x="358" y="-37" font-family="Helvetica,sans-Serif" font-size="10.00"> </text>
<text text-anchor="start" x="314" y="-22" font-family="Helvetica,sans-Serif" font-size="10.00">+</text>
<text text-anchor="start" x="327" y="-22" font-family="Helvetica,sans-Serif" font-size="10.00">UOWGE_Sleep()</text>
<text text-anchor="start" x="314" y="-7" font-family="Helvetica,sans-Serif" font-size="10.00">+</text>
<text text-anchor="start" x="327" y="-7" font-family="Helvetica,sans-Serif" font-size="10.00">InitSleepEffect()</text>
<polygon fill="#bfbfbf" stroke="#bfbfbf" points="310,-47 310,-47 410,-47 410,-47 310,-47"/>
<polygon fill="#bfbfbf" stroke="#bfbfbf" points="310,-32 310,-32 410,-32 410,-32 310,-32"/>
<polygon fill="none" stroke="#bfbfbf" points="310,0 310,-64 410,-64 410,0 310,0"/>
</a>
</g>
</g>
<!-- Node1&#45;&gt;Node5 -->
<g id="edge4_Node000001_Node000005" class="edge">
<title>Node1&#45;&gt;Node5</title>
<g id="a_edge4_Node000001_Node000005"><a xlink:title=" ">
<path fill="none" stroke="#63b8ff" d="M282.97,-93.62C294.93,-84.2 308.18,-73.78 320.27,-64.26"/>
<polygon fill="none" stroke="#63b8ff" points="280.61,-91.02 274.91,-99.96 284.94,-96.52 280.61,-91.02"/>
</a>
</g>
</g>
<!-- Node2 -->
<g id="Node000002" class="node">
<title>Node2</title>
<g id="a_Node000002"><a xlink:title=" ">
<polygon fill="white" stroke="transparent" points="293,-234 197,-234 197,-185 293,-185 293,-234"/>
<text text-anchor="start" x="202" y="-221.5" font-family="Helvetica,sans-Serif" font-size="10.00">UGameplayEffect</text>
<text text-anchor="start" x="243" y="-206.5" font-family="Helvetica,sans-Serif" font-size="10.00"> </text>
<text text-anchor="start" x="243" y="-191.5" font-family="Helvetica,sans-Serif" font-size="10.00"> </text>
<polygon fill="#bfbfbf" stroke="#bfbfbf" points="197,-216.5 197,-216.5 293,-216.5 293,-216.5 197,-216.5"/>
<polygon fill="#bfbfbf" stroke="#bfbfbf" points="197,-201.5 197,-201.5 293,-201.5 293,-201.5 197,-201.5"/>
<polygon fill="none" stroke="#bfbfbf" points="197,-185 197,-234 293,-234 293,-185 197,-185"/>
</a>
</g>
</g>
<!-- Node2&#45;&gt;Node1 -->
<g id="edge1_Node000001_Node000002" class="edge">
<title>Node2&#45;&gt;Node1</title>
<g id="a_edge1_Node000001_Node000002"><a xlink:title=" ">
<path fill="none" stroke="#63b8ff" d="M245,-174.77C245,-166.17 245,-157.1 245,-149.12"/>
<polygon fill="none" stroke="#63b8ff" points="241.5,-174.94 245,-184.94 248.5,-174.94 241.5,-174.94"/>
</a>
</g>
</g>
</g>
</svg>
