<?xml version="1.0" encoding="UTF-8" standalone="no"?>
<!DOCTYPE svg PUBLIC "-//W3C//DTD SVG 1.1//EN"
 "http://www.w3.org/Graphics/SVG/1.1/DTD/svg11.dtd">
<!-- Generated by graphviz version 2.43.0 (0)
 -->
<!-- Title: UOWGA_Passive Pages: 1 -->
<svg width="145pt" height="477pt"
 viewBox="0.00 0.00 145.00 477.00" xmlns="http://www.w3.org/2000/svg" xmlns:xlink="http://www.w3.org/1999/xlink">
<g id="graph0" class="graph" transform="scale(1 1) rotate(0) translate(4 473)">
<title>UOWGA_Passive</title>
<!-- Node1 -->
<g id="Node000001" class="node">
<title>Node1</title>
<g id="a_Node000001"><a xlink:title=" ">
<polygon fill="#999999" stroke="transparent" points="114.5,-194 22.5,-194 22.5,-145 114.5,-145 114.5,-194"/>
<text text-anchor="start" x="27.5" y="-181.5" font-family="Helvetica,sans-Serif" font-size="10.00">UOWGA_Passive</text>
<text text-anchor="start" x="66.5" y="-166.5" font-family="Helvetica,sans-Serif" font-size="10.00"> </text>
<text text-anchor="start" x="66.5" y="-151.5" font-family="Helvetica,sans-Serif" font-size="10.00"> </text>
<polygon fill="#666666" stroke="#666666" points="22.5,-176.5 22.5,-176.5 114.5,-176.5 114.5,-176.5 22.5,-176.5"/>
<polygon fill="#666666" stroke="#666666" points="22.5,-161.5 22.5,-161.5 114.5,-161.5 114.5,-161.5 22.5,-161.5"/>
<polygon fill="none" stroke="#666666" points="22.5,-145 22.5,-194 114.5,-194 114.5,-145 22.5,-145"/>
</a>
</g>
</g>
<!-- Node4 -->
<g id="Node000004" class="node">
<title>Node4</title>
<g id="a_Node000004"><a xlink:href="classUOWGA__Reload.html" target="_top" xlink:title=" ">
<polygon fill="white" stroke="transparent" points="130.5,-109 6.5,-109 6.5,0 130.5,0 130.5,-109"/>
<text text-anchor="start" x="29" y="-96.5" font-family="Helvetica,sans-Serif" font-size="10.00">UOWGA_Reload</text>
<text text-anchor="start" x="66.5" y="-81.5" font-family="Helvetica,sans-Serif" font-size="10.00"> </text>
<text text-anchor="start" x="10.5" y="-66.5" font-family="Helvetica,sans-Serif" font-size="10.00">+</text>
<text text-anchor="start" x="23.5" y="-66.5" font-family="Helvetica,sans-Serif" font-size="10.00">SetCurrentMontage()</text>
<text text-anchor="start" x="10.5" y="-51.5" font-family="Helvetica,sans-Serif" font-size="10.00">+</text>
<text text-anchor="start" x="23.5" y="-51.5" font-family="Helvetica,sans-Serif" font-size="10.00">CanActivateAbility()</text>
<text text-anchor="start" x="10.5" y="-36.5" font-family="Helvetica,sans-Serif" font-size="10.00">+</text>
<text text-anchor="start" x="23.5" y="-36.5" font-family="Helvetica,sans-Serif" font-size="10.00">ActivateAbility()</text>
<text text-anchor="start" x="10.5" y="-21.5" font-family="Helvetica,sans-Serif" font-size="10.00">+</text>
<text text-anchor="start" x="23.5" y="-21.5" font-family="Helvetica,sans-Serif" font-size="10.00">EndAbility()</text>
<text text-anchor="start" x="10.5" y="-6.5" font-family="Helvetica,sans-Serif" font-size="10.00">+</text>
<text text-anchor="start" x="23.5" y="-6.5" font-family="Helvetica,sans-Serif" font-size="10.00">Reload()</text>
<polygon fill="#bfbfbf" stroke="#bfbfbf" points="6.5,-91.5 6.5,-91.5 130.5,-91.5 130.5,-91.5 6.5,-91.5"/>
<polygon fill="#bfbfbf" stroke="#bfbfbf" points="6.5,-76.5 6.5,-76.5 130.5,-76.5 130.5,-76.5 6.5,-76.5"/>
<polygon fill="none" stroke="#bfbfbf" points="6.5,0 6.5,-109 130.5,-109 130.5,0 6.5,0"/>
</a>
</g>
</g>
<!-- Node1&#45;&gt;Node4 -->
<g id="edge3_Node000001_Node000004" class="edge">
<title>Node1&#45;&gt;Node4</title>
<g id="a_edge3_Node000001_Node000004"><a xlink:title=" ">
<path fill="none" stroke="#63b8ff" d="M68.5,-134.79C68.5,-126.79 68.5,-118.06 68.5,-109.41"/>
<polygon fill="none" stroke="#63b8ff" points="65,-134.81 68.5,-144.81 72,-134.81 65,-134.81"/>
</a>
</g>
</g>
<!-- Node2 -->
<g id="Node000002" class="node">
<title>Node2</title>
<g id="a_Node000002"><a xlink:href="classUOWGameplayAbility.html" target="_top" xlink:title=" ">
<polygon fill="white" stroke="transparent" points="137,-384 0,-384 0,-230 137,-230 137,-384"/>
<text text-anchor="start" x="15.5" y="-372" font-family="Helvetica,sans-Serif" font-size="10.00">UOWGameplayAbility</text>
<text text-anchor="start" x="4.5" y="-357" font-family="Helvetica,sans-Serif" font-size="10.00">#</text>
<text text-anchor="start" x="17.5" y="-357" font-family="Helvetica,sans-Serif" font-size="10.00">CooldownDuration</text>
<text text-anchor="start" x="4.5" y="-342" font-family="Helvetica,sans-Serif" font-size="10.00">#</text>
<text text-anchor="start" x="17.5" y="-342" font-family="Helvetica,sans-Serif" font-size="10.00">CooldownTags</text>
<text text-anchor="start" x="4.5" y="-327" font-family="Helvetica,sans-Serif" font-size="10.00">#</text>
<text text-anchor="start" x="17.5" y="-327" font-family="Helvetica,sans-Serif" font-size="10.00">GameplayEffectClasses</text>
<text text-anchor="start" x="4.5" y="-312" font-family="Helvetica,sans-Serif" font-size="10.00">+</text>
<text text-anchor="start" x="17.5" y="-312" font-family="Helvetica,sans-Serif" font-size="10.00">UOWGameplayAbility()</text>
<text text-anchor="start" x="4.5" y="-297" font-family="Helvetica,sans-Serif" font-size="10.00">+</text>
<text text-anchor="start" x="17.5" y="-297" font-family="Helvetica,sans-Serif" font-size="10.00">SetCooldownData()</text>
<text text-anchor="start" x="4.5" y="-282" font-family="Helvetica,sans-Serif" font-size="10.00">+</text>
<text text-anchor="start" x="17.5" y="-282" font-family="Helvetica,sans-Serif" font-size="10.00">SetCostEffect()</text>
<text text-anchor="start" x="4.5" y="-267" font-family="Helvetica,sans-Serif" font-size="10.00">+</text>
<text text-anchor="start" x="17.5" y="-267" font-family="Helvetica,sans-Serif" font-size="10.00">ApplyCooldown()</text>
<text text-anchor="start" x="4.5" y="-252" font-family="Helvetica,sans-Serif" font-size="10.00">+</text>
<text text-anchor="start" x="17.5" y="-252" font-family="Helvetica,sans-Serif" font-size="10.00">CanActivateAbility()</text>
<text text-anchor="start" x="4.5" y="-237" font-family="Helvetica,sans-Serif" font-size="10.00">+</text>
<text text-anchor="start" x="17.5" y="-237" font-family="Helvetica,sans-Serif" font-size="10.00">ActivateAbility()</text>
<polygon fill="#bfbfbf" stroke="#bfbfbf" points="0.5,-367 0.5,-367 137.5,-367 137.5,-367 0.5,-367"/>
<polygon fill="#bfbfbf" stroke="#bfbfbf" points="0.5,-322 0.5,-322 15.5,-322 15.5,-322 0.5,-322"/>
<polygon fill="#bfbfbf" stroke="#bfbfbf" points="15.5,-322 15.5,-322 137.5,-322 137.5,-322 15.5,-322"/>
<polygon fill="none" stroke="#bfbfbf" points="0,-230 0,-384 137,-384 137,-230 0,-230"/>
</a>
</g>
</g>
<!-- Node2&#45;&gt;Node1 -->
<g id="edge1_Node000001_Node000002" class="edge">
<title>Node2&#45;&gt;Node1</title>
<g id="a_edge1_Node000001_Node000002"><a xlink:title=" ">
<path fill="none" stroke="#63b8ff" d="M68.5,-219.67C68.5,-210.37 68.5,-201.57 68.5,-194.06"/>
<polygon fill="none" stroke="#63b8ff" points="65,-219.93 68.5,-229.93 72,-219.93 65,-219.93"/>
</a>
</g>
</g>
<!-- Node3 -->
<g id="Node000003" class="node">
<title>Node3</title>
<g id="a_Node000003"><a xlink:title=" ">
<polygon fill="white" stroke="transparent" points="118.5,-469 18.5,-469 18.5,-420 118.5,-420 118.5,-469"/>
<text text-anchor="start" x="23.5" y="-456.5" font-family="Helvetica,sans-Serif" font-size="10.00">UGameplayAbility</text>
<text text-anchor="start" x="66.5" y="-441.5" font-family="Helvetica,sans-Serif" font-size="10.00"> </text>
<text text-anchor="start" x="66.5" y="-426.5" font-family="Helvetica,sans-Serif" font-size="10.00"> </text>
<polygon fill="#bfbfbf" stroke="#bfbfbf" points="18.5,-451.5 18.5,-451.5 118.5,-451.5 118.5,-451.5 18.5,-451.5"/>
<polygon fill="#bfbfbf" stroke="#bfbfbf" points="18.5,-436.5 18.5,-436.5 118.5,-436.5 118.5,-436.5 18.5,-436.5"/>
<polygon fill="none" stroke="#bfbfbf" points="18.5,-420 18.5,-469 118.5,-469 118.5,-420 18.5,-420"/>
</a>
</g>
</g>
<!-- Node3&#45;&gt;Node2 -->
<g id="edge2_Node000002_Node000003" class="edge">
<title>Node3&#45;&gt;Node2</title>
<g id="a_edge2_Node000002_Node000003"><a xlink:title=" ">
<path fill="none" stroke="#63b8ff" d="M68.5,-409.66C68.5,-401.74 68.5,-392.97 68.5,-384.01"/>
<polygon fill="none" stroke="#63b8ff" points="65,-409.9 68.5,-419.9 72,-409.9 65,-409.9"/>
</a>
</g>
</g>
</g>
</svg>
