<?xml version="1.0" encoding="UTF-8" standalone="no"?>
<!DOCTYPE svg PUBLIC "-//W3C//DTD SVG 1.1//EN"
 "http://www.w3.org/Graphics/SVG/1.1/DTD/svg11.dtd">
<!-- Generated by graphviz version 2.43.0 (0)
 -->
<!-- Title: 그래픽컬한 클래스 계통도 Pages: 1 -->
<svg width="746pt" height="211pt"
 viewBox="0.00 0.00 746.00 211.00" xmlns="http://www.w3.org/2000/svg" xmlns:xlink="http://www.w3.org/1999/xlink">
<g id="graph0" class="graph" transform="scale(1 1) rotate(0) translate(4 207)">
<title>그래픽컬한 클래스 계통도</title>
<!-- Node0 -->
<g id="Node000000" class="node">
<title>Node0</title>
<g id="a_Node000000"><a xlink:title=" ">
<polygon fill="#e0e0e0" stroke="#999999" points="106,-56 0,-56 0,-37 106,-37 106,-56"/>
<text text-anchor="middle" x="53" y="-44" font-family="Helvetica,sans-Serif" font-size="10.00">UGameplayAbility</text>
</a>
</g>
</g>
<!-- Node1 -->
<g id="Node000001" class="node">
<title>Node1</title>
<g id="a_Node000001"><a xlink:href="classUOWGameplayAbility.html" target="_top" xlink:title=" ">
<polygon fill="white" stroke="#666666" points="265,-56 142,-56 142,-37 265,-37 265,-56"/>
<text text-anchor="middle" x="203.5" y="-44" font-family="Helvetica,sans-Serif" font-size="10.00">UOWGameplayAbility</text>
</a>
</g>
</g>
<!-- Node0&#45;&gt;Node1 -->
<g id="edge15_Node000000_Node000001" class="edge">
<title>Node0&#45;&gt;Node1</title>
<g id="a_edge15_Node000000_Node000001"><a xlink:title=" ">
<path fill="none" stroke="#63b8ff" d="M116.51,-46.5C124.95,-46.5 133.59,-46.5 141.99,-46.5"/>
<polygon fill="#63b8ff" stroke="#63b8ff" points="116.36,-43 106.36,-46.5 116.36,-50 116.36,-43"/>
</a>
</g>
</g>
<!-- Node2 -->
<g id="Node000002" class="node">
<title>Node2</title>
<g id="a_Node000002"><a xlink:href="classUOWGA__Active.html" target="_top" xlink:title=" ">
<polygon fill="white" stroke="#666666" points="399,-111 307,-111 307,-92 399,-92 399,-111"/>
<text text-anchor="middle" x="353" y="-99" font-family="Helvetica,sans-Serif" font-size="10.00">UOWGA_Active</text>
</a>
</g>
</g>
<!-- Node1&#45;&gt;Node2 -->
<g id="edge16_Node000001_Node000002" class="edge">
<title>Node1&#45;&gt;Node2</title>
<g id="a_edge16_Node000001_Node000002"><a xlink:title=" ">
<path fill="none" stroke="#63b8ff" d="M239.88,-59.69C266.43,-69.59 302.18,-82.92 326.11,-91.84"/>
<polygon fill="#63b8ff" stroke="#63b8ff" points="240.79,-56.29 230.19,-56.08 238.34,-62.85 240.79,-56.29"/>
</a>
</g>
</g>
<!-- Node9 -->
<g id="Node000009" class="node">
<title>Node9</title>
<g id="a_Node000009"><a xlink:href="classUOWGA__Passive.html" target="_top" xlink:title=" ">
<polygon fill="white" stroke="#666666" points="402,-56 304,-56 304,-37 402,-37 402,-56"/>
<text text-anchor="middle" x="353" y="-44" font-family="Helvetica,sans-Serif" font-size="10.00">UOWGA_Passive</text>
</a>
</g>
</g>
<!-- Node1&#45;&gt;Node9 -->
<g id="edge23_Node000001_Node000009" class="edge">
<title>Node1&#45;&gt;Node9</title>
<g id="a_edge23_Node000001_Node000009"><a xlink:title=" ">
<path fill="none" stroke="#63b8ff" d="M275.37,-46.5C285.04,-46.5 294.77,-46.5 303.9,-46.5"/>
<polygon fill="#63b8ff" stroke="#63b8ff" points="275.35,-43 265.35,-46.5 275.35,-50 275.35,-43"/>
</a>
</g>
</g>
<!-- Node11 -->
<g id="Node000011" class="node">
<title>Node11</title>
<g id="a_Node000011"><a xlink:href="classUOWGA__Ultimate.html" target="_top" xlink:title=" ">
<polygon fill="white" stroke="#666666" points="405,-19 301,-19 301,0 405,0 405,-19"/>
<text text-anchor="middle" x="353" y="-7" font-family="Helvetica,sans-Serif" font-size="10.00">UOWGA_Ultimate</text>
</a>
</g>
</g>
<!-- Node1&#45;&gt;Node11 -->
<g id="edge25_Node000001_Node000011" class="edge">
<title>Node1&#45;&gt;Node11</title>
<g id="a_edge25_Node000001_Node000011"><a xlink:title=" ">
<path fill="none" stroke="#63b8ff" d="M252.31,-34.51C272.26,-29.5 295.1,-23.77 313.89,-19.06"/>
<polygon fill="#63b8ff" stroke="#63b8ff" points="251.33,-31.14 242.48,-36.97 253.04,-37.93 251.33,-31.14"/>
</a>
</g>
</g>
<!-- Node3 -->
<g id="Node000003" class="node">
<title>Node3</title>
<g id="a_Node000003"><a xlink:href="classUOWGA__Active__GunFire.html" target="_top" xlink:title=" ">
<polygon fill="white" stroke="#666666" points="575,-185 441,-185 441,-166 575,-166 575,-185"/>
<text text-anchor="middle" x="508" y="-173" font-family="Helvetica,sans-Serif" font-size="10.00">UOWGA_Active_GunFire</text>
</a>
</g>
</g>
<!-- Node2&#45;&gt;Node3 -->
<g id="edge17_Node000002_Node000003" class="edge">
<title>Node2&#45;&gt;Node3</title>
<g id="a_edge17_Node000002_Node000003"><a xlink:title=" ">
<path fill="none" stroke="#63b8ff" d="M374.36,-117.17C391.37,-129.62 416.69,-146.67 441,-157.5 448.38,-160.79 456.49,-163.6 464.43,-165.95"/>
<polygon fill="#63b8ff" stroke="#63b8ff" points="376.38,-114.31 366.27,-111.14 372.2,-119.92 376.38,-114.31"/>
</a>
</g>
</g>
<!-- Node6 -->
<g id="Node000006" class="node">
<title>Node6</title>
<g id="a_Node000006"><a xlink:href="classUOWGA__CyberAgility.html" target="_top" xlink:title=" ">
<polygon fill="white" stroke="#666666" points="568.5,-148 447.5,-148 447.5,-129 568.5,-129 568.5,-148"/>
<text text-anchor="middle" x="508" y="-136" font-family="Helvetica,sans-Serif" font-size="10.00">UOWGA_CyberAgility</text>
</a>
</g>
</g>
<!-- Node2&#45;&gt;Node6 -->
<g id="edge20_Node000002_Node000006" class="edge">
<title>Node2&#45;&gt;Node6</title>
<g id="a_edge20_Node000002_Node000006"><a xlink:title=" ">
<path fill="none" stroke="#63b8ff" d="M403.31,-113.43C424.07,-118.44 447.89,-124.21 467.47,-128.94"/>
<polygon fill="#63b8ff" stroke="#63b8ff" points="403.94,-109.98 393.4,-111.03 402.3,-116.78 403.94,-109.98"/>
</a>
</g>
</g>
<!-- Node7 -->
<g id="Node000007" class="node">
<title>Node7</title>
<g id="a_Node000007"><a xlink:href="classUOWGA__Deflect.html" target="_top" xlink:title=" ">
<polygon fill="white" stroke="#666666" points="555.5,-111 460.5,-111 460.5,-92 555.5,-92 555.5,-111"/>
<text text-anchor="middle" x="508" y="-99" font-family="Helvetica,sans-Serif" font-size="10.00">UOWGA_Deflect</text>
</a>
</g>
</g>
<!-- Node2&#45;&gt;Node7 -->
<g id="edge21_Node000002_Node000007" class="edge">
<title>Node2&#45;&gt;Node7</title>
<g id="a_edge21_Node000002_Node000007"><a xlink:title=" ">
<path fill="none" stroke="#63b8ff" d="M409.29,-101.5C426.04,-101.5 444.26,-101.5 460.39,-101.5"/>
<polygon fill="#63b8ff" stroke="#63b8ff" points="409.08,-98 399.08,-101.5 409.08,-105 409.08,-98"/>
</a>
</g>
</g>
<!-- Node8 -->
<g id="Node000008" class="node">
<title>Node8</title>
<g id="a_Node000008"><a xlink:href="classUOWGA__FastZoom.html" target="_top" xlink:title=" ">
<polygon fill="white" stroke="#666666" points="562.5,-74 453.5,-74 453.5,-55 562.5,-55 562.5,-74"/>
<text text-anchor="middle" x="508" y="-62" font-family="Helvetica,sans-Serif" font-size="10.00">UOWGA_FastZoom</text>
</a>
</g>
</g>
<!-- Node2&#45;&gt;Node8 -->
<g id="edge22_Node000002_Node000008" class="edge">
<title>Node2&#45;&gt;Node8</title>
<g id="a_edge22_Node000002_Node000008"><a xlink:title=" ">
<path fill="none" stroke="#63b8ff" d="M403.31,-89.57C424.07,-84.56 447.89,-78.79 467.47,-74.06"/>
<polygon fill="#63b8ff" stroke="#63b8ff" points="402.3,-86.22 393.4,-91.97 403.94,-93.02 402.3,-86.22"/>
</a>
</g>
</g>
<!-- Node4 -->
<g id="Node000004" class="node">
<title>Node4</title>
<g id="a_Node000004"><a xlink:href="classUOWGA__ShurikenMain.html" target="_top" xlink:title=" ">
<polygon fill="white" stroke="#666666" points="738,-203 611,-203 611,-184 738,-184 738,-203"/>
<text text-anchor="middle" x="674.5" y="-191" font-family="Helvetica,sans-Serif" font-size="10.00">UOWGA_ShurikenMain</text>
</a>
</g>
</g>
<!-- Node3&#45;&gt;Node4 -->
<g id="edge18_Node000003_Node000004" class="edge">
<title>Node3&#45;&gt;Node4</title>
<g id="a_edge18_Node000003_Node000004"><a xlink:title=" ">
<path fill="none" stroke="#63b8ff" d="M585.65,-183.89C594.08,-184.81 602.58,-185.74 610.81,-186.64"/>
<polygon fill="#63b8ff" stroke="#63b8ff" points="585.76,-180.38 575.43,-182.77 584.99,-187.34 585.76,-180.38"/>
</a>
</g>
</g>
<!-- Node5 -->
<g id="Node000005" class="node">
<title>Node5</title>
<g id="a_Node000005"><a xlink:href="classUOWGA__ShurikenSub.html" target="_top" xlink:title=" ">
<polygon fill="white" stroke="#666666" points="735,-166 614,-166 614,-147 735,-147 735,-166"/>
<text text-anchor="middle" x="674.5" y="-154" font-family="Helvetica,sans-Serif" font-size="10.00">UOWGA_ShurikenSub</text>
</a>
</g>
</g>
<!-- Node3&#45;&gt;Node5 -->
<g id="edge19_Node000003_Node000005" class="edge">
<title>Node3&#45;&gt;Node5</title>
<g id="a_edge19_Node000003_Node000005"><a xlink:title=" ">
<path fill="none" stroke="#63b8ff" d="M585.38,-166.68C594.98,-165.57 604.69,-164.45 613.98,-163.37"/>
<polygon fill="#63b8ff" stroke="#63b8ff" points="584.97,-163.2 575.43,-167.83 585.77,-170.16 584.97,-163.2"/>
</a>
</g>
</g>
<!-- Node10 -->
<g id="Node000010" class="node">
<title>Node10</title>
<g id="a_Node000010"><a xlink:href="classUOWGA__Reload.html" target="_top" xlink:title=" ">
<polygon fill="white" stroke="#666666" points="555.5,-37 460.5,-37 460.5,-18 555.5,-18 555.5,-37"/>
<text text-anchor="middle" x="508" y="-25" font-family="Helvetica,sans-Serif" font-size="10.00">UOWGA_Reload</text>
</a>
</g>
</g>
<!-- Node9&#45;&gt;Node10 -->
<g id="edge24_Node000009_Node000010" class="edge">
<title>Node9&#45;&gt;Node10</title>
<g id="a_edge24_Node000009_Node000010"><a xlink:title=" ">
<path fill="none" stroke="#63b8ff" d="M412.63,-39.22C428.47,-37.25 445.39,-35.15 460.47,-33.28"/>
<polygon fill="#63b8ff" stroke="#63b8ff" points="411.9,-35.78 402.41,-40.49 412.77,-42.73 411.9,-35.78"/>
</a>
</g>
</g>
</g>
</svg>
