<?xml version="1.0" encoding="UTF-8" standalone="no"?>
<!DOCTYPE svg PUBLIC "-//W3C//DTD SVG 1.1//EN"
 "http://www.w3.org/Graphics/SVG/1.1/DTD/svg11.dtd">
<!-- Generated by graphviz version 2.43.0 (0)
 -->
<!-- Title: 그래픽컬한 클래스 계통도 Pages: 1 -->
<svg width="468pt" height="101pt"
 viewBox="0.00 0.00 468.00 101.00" xmlns="http://www.w3.org/2000/svg" xmlns:xlink="http://www.w3.org/1999/xlink">
<g id="graph0" class="graph" transform="scale(1 1) rotate(0) translate(4 97)">
<title>그래픽컬한 클래스 계통도</title>
<!-- Node0 -->
<g id="Node000000" class="node">
<title>Node0</title>
<g id="a_Node000000"><a xlink:title=" ">
<polygon fill="#e0e0e0" stroke="#999999" points="102,-56 0,-56 0,-37 102,-37 102,-56"/>
<text text-anchor="middle" x="51" y="-44" font-family="Helvetica,sans-Serif" font-size="10.00">UGameplayEffect</text>
</a>
</g>
</g>
<!-- Node1 -->
<g id="Node000001" class="node">
<title>Node1</title>
<g id="a_Node000001"><a xlink:href="classUOWGameplayEffect.html" target="_top" xlink:title=" ">
<polygon fill="white" stroke="#666666" points="257,-56 138,-56 138,-37 257,-37 257,-56"/>
<text text-anchor="middle" x="197.5" y="-44" font-family="Helvetica,sans-Serif" font-size="10.00">UOWGameplayEffect</text>
</a>
</g>
</g>
<!-- Node0&#45;&gt;Node1 -->
<g id="edge19_Node000000_Node000001" class="edge">
<title>Node0&#45;&gt;Node1</title>
<g id="a_edge19_Node000000_Node000001"><a xlink:title=" ">
<path fill="none" stroke="#63b8ff" d="M112.28,-46.5C120.71,-46.5 129.36,-46.5 137.77,-46.5"/>
<polygon fill="#63b8ff" stroke="#63b8ff" points="112.13,-43 102.13,-46.5 112.13,-50 112.13,-43"/>
</a>
</g>
</g>
<!-- Node2 -->
<g id="Node000002" class="node">
<title>Node2</title>
<g id="a_Node000002"><a xlink:href="classUOWCooldownGameplayEffect.html" target="_top" xlink:title=" ">
<polygon fill="white" stroke="#666666" points="460,-93 293,-93 293,-74 460,-74 460,-93"/>
<text text-anchor="middle" x="376.5" y="-81" font-family="Helvetica,sans-Serif" font-size="10.00">UOWCooldownGameplayEffect</text>
</a>
</g>
</g>
<!-- Node1&#45;&gt;Node2 -->
<g id="edge20_Node000001_Node000002" class="edge">
<title>Node1&#45;&gt;Node2</title>
<g id="a_edge20_Node000001_Node000002"><a xlink:title=" ">
<path fill="none" stroke="#63b8ff" d="M253.92,-58.08C278.3,-63.18 306.61,-69.1 329.77,-73.94"/>
<polygon fill="#63b8ff" stroke="#63b8ff" points="254.59,-54.65 244.08,-56.03 253.15,-61.5 254.59,-54.65"/>
</a>
</g>
</g>
<!-- Node3 -->
<g id="Node000003" class="node">
<title>Node3</title>
<g id="a_Node000003"><a xlink:href="classUOWGE__Cost.html" target="_top" xlink:title=" ">
<polygon fill="white" stroke="#666666" points="417.5,-56 335.5,-56 335.5,-37 417.5,-37 417.5,-56"/>
<text text-anchor="middle" x="376.5" y="-44" font-family="Helvetica,sans-Serif" font-size="10.00">UOWGE_Cost</text>
</a>
</g>
</g>
<!-- Node1&#45;&gt;Node3 -->
<g id="edge21_Node000001_Node000003" class="edge">
<title>Node1&#45;&gt;Node3</title>
<g id="a_edge21_Node000001_Node000003"><a xlink:title=" ">
<path fill="none" stroke="#63b8ff" d="M267.48,-46.5C290.42,-46.5 315.2,-46.5 335.24,-46.5"/>
<polygon fill="#63b8ff" stroke="#63b8ff" points="267.44,-43 257.44,-46.5 267.44,-50 267.44,-43"/>
</a>
</g>
</g>
<!-- Node4 -->
<g id="Node000004" class="node">
<title>Node4</title>
<g id="a_Node000004"><a xlink:href="classUOWGE__Sleep.html" target="_top" xlink:title=" ">
<polygon fill="white" stroke="#666666" points="420,-19 333,-19 333,0 420,0 420,-19"/>
<text text-anchor="middle" x="376.5" y="-7" font-family="Helvetica,sans-Serif" font-size="10.00">UOWGE_Sleep</text>
</a>
</g>
</g>
<!-- Node1&#45;&gt;Node4 -->
<g id="edge22_Node000001_Node000004" class="edge">
<title>Node1&#45;&gt;Node4</title>
<g id="a_edge22_Node000001_Node000004"><a xlink:title=" ">
<path fill="none" stroke="#63b8ff" d="M253.97,-34.9C279.42,-29.58 309.14,-23.37 332.81,-18.42"/>
<polygon fill="#63b8ff" stroke="#63b8ff" points="253.15,-31.5 244.08,-36.97 254.59,-38.35 253.15,-31.5"/>
</a>
</g>
</g>
</g>
</svg>
