<?xml version="1.0" encoding="UTF-8" standalone="no"?>
<!DOCTYPE svg PUBLIC "-//W3C//DTD SVG 1.1//EN"
 "http://www.w3.org/Graphics/SVG/1.1/DTD/svg11.dtd">
<!-- Generated by graphviz version 2.43.0 (0)
 -->
<!-- Title: UOWGameplayAbility Pages: 1 -->
<svg width="144pt" height="202pt"
 viewBox="0.00 0.00 144.00 202.00" xmlns="http://www.w3.org/2000/svg" xmlns:xlink="http://www.w3.org/1999/xlink">
<g id="graph0" class="graph" transform="scale(1 1) rotate(0) translate(4 198)">
<title>UOWGameplayAbility</title>
<!-- Node1 -->
<g id="Node000001" class="node">
<title>Node1</title>
<g id="a_Node000001"><a xlink:title=" ">
<polygon fill="#999999" stroke="transparent" points="136,-109 0,-109 0,0 136,0 136,-109"/>
<text text-anchor="start" x="14.5" y="-96.5" font-family="Helvetica,sans-Serif" font-size="10.00">UOWGameplayAbility</text>
<text text-anchor="start" x="4" y="-81.5" font-family="Helvetica,sans-Serif" font-size="10.00">+</text>
<text text-anchor="start" x="17" y="-81.5" font-family="Helvetica,sans-Serif" font-size="10.00">CooldownDuration</text>
<text text-anchor="start" x="4" y="-66.5" font-family="Helvetica,sans-Serif" font-size="10.00">+</text>
<text text-anchor="start" x="17" y="-66.5" font-family="Helvetica,sans-Serif" font-size="10.00">CooldownTags</text>
<text text-anchor="start" x="4" y="-51.5" font-family="Helvetica,sans-Serif" font-size="10.00">+</text>
<text text-anchor="start" x="17" y="-51.5" font-family="Helvetica,sans-Serif" font-size="10.00">UOWGameplayAbility()</text>
<text text-anchor="start" x="4" y="-36.5" font-family="Helvetica,sans-Serif" font-size="10.00">+</text>
<text text-anchor="start" x="17" y="-36.5" font-family="Helvetica,sans-Serif" font-size="10.00">ActivateAbility()</text>
<text text-anchor="start" x="4" y="-21.5" font-family="Helvetica,sans-Serif" font-size="10.00">+</text>
<text text-anchor="start" x="17" y="-21.5" font-family="Helvetica,sans-Serif" font-size="10.00">ApplyCooldown()</text>
<text text-anchor="start" x="4" y="-6.5" font-family="Helvetica,sans-Serif" font-size="10.00">+</text>
<text text-anchor="start" x="17" y="-6.5" font-family="Helvetica,sans-Serif" font-size="10.00">CanActivateAbility()</text>
<polygon fill="#666666" stroke="#666666" points="0,-91.5 0,-91.5 136,-91.5 136,-91.5 0,-91.5"/>
<polygon fill="#666666" stroke="#666666" points="0,-61.5 0,-61.5 15,-61.5 15,-61.5 0,-61.5"/>
<polygon fill="#666666" stroke="#666666" points="15,-61.5 15,-61.5 136,-61.5 136,-61.5 15,-61.5"/>
<polygon fill="none" stroke="#666666" points="0,0 0,-109 136,-109 136,0 0,0"/>
</a>
</g>
</g>
<!-- Node2 -->
<g id="Node000002" class="node">
<title>Node2</title>
<g id="a_Node000002"><a xlink:title=" ">
<polygon fill="white" stroke="transparent" points="118,-194 18,-194 18,-145 118,-145 118,-194"/>
<text text-anchor="start" x="23" y="-181.5" font-family="Helvetica,sans-Serif" font-size="10.00">UGameplayAbility</text>
<text text-anchor="start" x="66" y="-166.5" font-family="Helvetica,sans-Serif" font-size="10.00"> </text>
<text text-anchor="start" x="66" y="-151.5" font-family="Helvetica,sans-Serif" font-size="10.00"> </text>
<polygon fill="#666666" stroke="#666666" points="18,-176.5 18,-176.5 118,-176.5 118,-176.5 18,-176.5"/>
<polygon fill="#666666" stroke="#666666" points="18,-161.5 18,-161.5 118,-161.5 118,-161.5 18,-161.5"/>
<polygon fill="none" stroke="#666666" points="18,-145 18,-194 118,-194 118,-145 18,-145"/>
</a>
</g>
</g>
<!-- Node2&#45;&gt;Node1 -->
<g id="edge1_Node000001_Node000002" class="edge">
<title>Node2&#45;&gt;Node1</title>
<g id="a_edge1_Node000001_Node000002"><a xlink:title=" ">
<path fill="none" stroke="#63b8ff" d="M68,-134.79C68,-126.79 68,-118.06 68,-109.41"/>
<polygon fill="none" stroke="#63b8ff" points="64.5,-134.81 68,-144.81 71.5,-134.81 64.5,-134.81"/>
</a>
</g>
</g>
</g>
</svg>
