<?xml version="1.0" encoding="UTF-8" standalone="no"?>
<!DOCTYPE svg PUBLIC "-//W3C//DTD SVG 1.1//EN"
 "http://www.w3.org/Graphics/SVG/1.1/DTD/svg11.dtd">
<!-- Generated by graphviz version 2.43.0 (0)
 -->
<!-- Title: Source/OliveWatch/OliveWatchProjectile.h Pages: 1 -->
<svg width="598pt" height="93pt"
 viewBox="0.00 0.00 597.50 93.00" xmlns="http://www.w3.org/2000/svg" xmlns:xlink="http://www.w3.org/1999/xlink">
<g id="graph0" class="graph" transform="scale(1 1) rotate(0) translate(4 89)">
<title>Source/OliveWatch/OliveWatchProjectile.h</title>
<!-- Node1 -->
<g id="Node000001" class="node">
<title>Node1</title>
<g id="a_Node000001"><a xlink:title=" ">
<polygon fill="#999999" stroke="#666666" points="334.5,-85 167.5,-85 167.5,-55 334.5,-55 334.5,-85"/>
<text text-anchor="start" x="175.5" y="-73" font-family="Helvetica,sans-Serif" font-size="10.00">Source/OliveWatch/OliveWatch</text>
<text text-anchor="middle" x="251" y="-62" font-family="Helvetica,sans-Serif" font-size="10.00">Projectile.h</text>
</a>
</g>
</g>
<!-- Node2 -->
<g id="Node000002" class="node">
<title>Node2</title>
<g id="a_Node000002"><a xlink:title=" ">
<polygon fill="#e0e0e0" stroke="#999999" points="88,-19 0,-19 0,0 88,0 88,-19"/>
<text text-anchor="middle" x="44" y="-7" font-family="Helvetica,sans-Serif" font-size="10.00">CoreMinimal.h</text>
</a>
</g>
</g>
<!-- Node1&#45;&gt;Node2 -->
<g id="edge1_Node000001_Node000002" class="edge">
<title>Node1&#45;&gt;Node2</title>
<g id="a_edge1_Node000001_Node000002"><a xlink:title=" ">
<path fill="none" stroke="#63b8ff" d="M201.42,-54.99C165.54,-44.85 117.67,-31.32 84.17,-21.85"/>
<polygon fill="#63b8ff" stroke="#63b8ff" points="84.84,-18.41 74.27,-19.05 82.94,-25.14 84.84,-18.41"/>
</a>
</g>
</g>
<!-- Node3 -->
<g id="Node000003" class="node">
<title>Node3</title>
<g id="a_Node000003"><a xlink:title=" ">
<polygon fill="#e0e0e0" stroke="#999999" points="243.5,-19 106.5,-19 106.5,0 243.5,0 243.5,-19"/>
<text text-anchor="middle" x="175" y="-7" font-family="Helvetica,sans-Serif" font-size="10.00">GameFramework/Actor.h</text>
</a>
</g>
</g>
<!-- Node1&#45;&gt;Node3 -->
<g id="edge2_Node000001_Node000003" class="edge">
<title>Node1&#45;&gt;Node3</title>
<g id="a_edge2_Node000001_Node000003"><a xlink:title=" ">
<path fill="none" stroke="#63b8ff" d="M232.6,-54.84C221.12,-46 206.35,-34.63 194.64,-25.62"/>
<polygon fill="#63b8ff" stroke="#63b8ff" points="196.45,-22.59 186.39,-19.27 192.18,-28.14 196.45,-22.59"/>
</a>
</g>
</g>
<!-- Node4 -->
<g id="Node000004" class="node">
<title>Node4</title>
<g id="a_Node000004"><a xlink:title=" ">
<polygon fill="#e0e0e0" stroke="#999999" points="392.5,-19 261.5,-19 261.5,0 392.5,0 392.5,-19"/>
<text text-anchor="middle" x="327" y="-7" font-family="Helvetica,sans-Serif" font-size="10.00">GameplayEffectTypes.h</text>
</a>
</g>
</g>
<!-- Node1&#45;&gt;Node4 -->
<g id="edge3_Node000001_Node000004" class="edge">
<title>Node1&#45;&gt;Node4</title>
<g id="a_edge3_Node000001_Node000004"><a xlink:title=" ">
<path fill="none" stroke="#63b8ff" d="M269.4,-54.84C280.88,-46 295.65,-34.63 307.36,-25.62"/>
<polygon fill="#63b8ff" stroke="#63b8ff" points="309.82,-28.14 315.61,-19.27 305.55,-22.59 309.82,-28.14"/>
</a>
</g>
</g>
<!-- Node5 -->
<g id="Node000005" class="node">
<title>Node5</title>
<g id="a_Node000005"><a xlink:title=" ">
<polygon fill="#e0e0e0" stroke="#999999" points="589.5,-19 410.5,-19 410.5,0 589.5,0 589.5,-19"/>
<text text-anchor="middle" x="500" y="-7" font-family="Helvetica,sans-Serif" font-size="10.00">OliveWatchProjectile.generated.h</text>
</a>
</g>
</g>
<!-- Node1&#45;&gt;Node5 -->
<g id="edge4_Node000001_Node000005" class="edge">
<title>Node1&#45;&gt;Node5</title>
<g id="a_edge4_Node000001_Node000005"><a xlink:title=" ">
<path fill="none" stroke="#63b8ff" d="M310.64,-54.99C354.54,-44.67 413.37,-30.85 453.75,-21.37"/>
<polygon fill="#63b8ff" stroke="#63b8ff" points="454.66,-24.75 463.59,-19.05 453.06,-17.93 454.66,-24.75"/>
</a>
</g>
</g>
</g>
</svg>
