<?xml version="1.0" encoding="UTF-8" standalone="no"?>
<!DOCTYPE svg PUBLIC "-//W3C//DTD SVG 1.1//EN"
 "http://www.w3.org/Graphics/SVG/1.1/DTD/svg11.dtd">
<!-- Generated by graphviz version 2.43.0 (0)
 -->
<!-- Title: Source/OliveWatch/OliveWatchProjectile.cpp Pages: 1 -->
<svg width="856pt" height="159pt"
 viewBox="0.00 0.00 856.00 159.00" xmlns="http://www.w3.org/2000/svg" xmlns:xlink="http://www.w3.org/1999/xlink">
<g id="graph0" class="graph" transform="scale(1 1) rotate(0) translate(4 155)">
<title>Source/OliveWatch/OliveWatchProjectile.cpp</title>
<!-- Node1 -->
<g id="Node000001" class="node">
<title>Node1</title>
<g id="a_Node000001"><a xlink:title=" ">
<polygon fill="#999999" stroke="#666666" points="581.5,-151 414.5,-151 414.5,-121 581.5,-121 581.5,-151"/>
<text text-anchor="start" x="422.5" y="-139" font-family="Helvetica,sans-Serif" font-size="10.00">Source/OliveWatch/OliveWatch</text>
<text text-anchor="middle" x="498" y="-128" font-family="Helvetica,sans-Serif" font-size="10.00">Projectile.cpp</text>
</a>
</g>
</g>
<!-- Node2 -->
<g id="Node000002" class="node">
<title>Node2</title>
<g id="a_Node000002"><a xlink:href="OliveWatchProjectile_8h.html" target="_top" xlink:title=" ">
<polygon fill="white" stroke="#666666" points="314.5,-79.5 187.5,-79.5 187.5,-60.5 314.5,-60.5 314.5,-79.5"/>
<text text-anchor="middle" x="251" y="-67.5" font-family="Helvetica,sans-Serif" font-size="10.00">OliveWatchProjectile.h</text>
</a>
</g>
</g>
<!-- Node1&#45;&gt;Node2 -->
<g id="edge1_Node000001_Node000002" class="edge">
<title>Node1&#45;&gt;Node2</title>
<g id="a_edge1_Node000001_Node000002"><a xlink:title=" ">
<path fill="none" stroke="#63b8ff" d="M443.79,-120.95C398.66,-109.26 335.28,-92.84 293.69,-82.06"/>
<polygon fill="#63b8ff" stroke="#63b8ff" points="294.43,-78.64 283.87,-79.52 292.67,-85.41 294.43,-78.64"/>
</a>
</g>
</g>
<!-- Node7 -->
<g id="Node000007" class="node">
<title>Node7</title>
<g id="a_Node000007"><a xlink:title=" ">
<polygon fill="#e0e0e0" stroke="#999999" points="481.5,-85 332.5,-85 332.5,-55 481.5,-55 481.5,-85"/>
<text text-anchor="start" x="340.5" y="-73" font-family="Helvetica,sans-Serif" font-size="10.00">GameFramework/Projectile</text>
<text text-anchor="middle" x="407" y="-62" font-family="Helvetica,sans-Serif" font-size="10.00">MovementComponent.h</text>
</a>
</g>
</g>
<!-- Node1&#45;&gt;Node7 -->
<g id="edge6_Node000001_Node000007" class="edge">
<title>Node1&#45;&gt;Node7</title>
<g id="a_edge6_Node000001_Node000007"><a xlink:title=" ">
<path fill="none" stroke="#63b8ff" d="M477.8,-120.8C465.32,-112.01 449.1,-100.61 435.34,-90.93"/>
<polygon fill="#63b8ff" stroke="#63b8ff" points="437.33,-88.05 427.14,-85.16 433.31,-93.78 437.33,-88.05"/>
</a>
</g>
</g>
<!-- Node8 -->
<g id="Node000008" class="node">
<title>Node8</title>
<g id="a_Node000008"><a xlink:title=" ">
<polygon fill="#e0e0e0" stroke="#999999" points="680,-79.5 500,-79.5 500,-60.5 680,-60.5 680,-79.5"/>
<text text-anchor="middle" x="590" y="-67.5" font-family="Helvetica,sans-Serif" font-size="10.00">Components/SphereComponent.h</text>
</a>
</g>
</g>
<!-- Node1&#45;&gt;Node8 -->
<g id="edge7_Node000001_Node000008" class="edge">
<title>Node1&#45;&gt;Node8</title>
<g id="a_edge7_Node000001_Node000008"><a xlink:title=" ">
<path fill="none" stroke="#63b8ff" d="M518.42,-120.8C533.55,-110.27 554.1,-95.97 569.3,-85.4"/>
<polygon fill="#63b8ff" stroke="#63b8ff" points="571.34,-88.24 577.55,-79.66 567.35,-82.5 571.34,-88.24"/>
</a>
</g>
</g>
<!-- Node9 -->
<g id="Node000009" class="node">
<title>Node9</title>
<g id="a_Node000009"><a xlink:title=" ">
<polygon fill="#e0e0e0" stroke="#999999" points="848,-79.5 698,-79.5 698,-60.5 848,-60.5 848,-79.5"/>
<text text-anchor="middle" x="773" y="-67.5" font-family="Helvetica,sans-Serif" font-size="10.00">AbilitySystemComponent.h</text>
</a>
</g>
</g>
<!-- Node1&#45;&gt;Node9 -->
<g id="edge8_Node000001_Node000009" class="edge">
<title>Node1&#45;&gt;Node9</title>
<g id="a_edge8_Node000001_Node000009"><a xlink:title=" ">
<path fill="none" stroke="#63b8ff" d="M558.35,-120.95C609.02,-109.16 680.36,-92.56 726.64,-81.79"/>
<polygon fill="#63b8ff" stroke="#63b8ff" points="727.46,-85.19 736.4,-79.52 725.87,-78.38 727.46,-85.19"/>
</a>
</g>
</g>
<!-- Node3 -->
<g id="Node000003" class="node">
<title>Node3</title>
<g id="a_Node000003"><a xlink:title=" ">
<polygon fill="#e0e0e0" stroke="#999999" points="88,-19 0,-19 0,0 88,0 88,-19"/>
<text text-anchor="middle" x="44" y="-7" font-family="Helvetica,sans-Serif" font-size="10.00">CoreMinimal.h</text>
</a>
</g>
</g>
<!-- Node2&#45;&gt;Node3 -->
<g id="edge2_Node000002_Node000003" class="edge">
<title>Node2&#45;&gt;Node3</title>
<g id="a_edge2_Node000002_Node000003"><a xlink:title=" ">
<path fill="none" stroke="#63b8ff" d="M220.9,-60.49C184.72,-50.27 123.89,-33.08 83.84,-21.76"/>
<polygon fill="#63b8ff" stroke="#63b8ff" points="84.71,-18.37 74.14,-19.02 82.81,-25.1 84.71,-18.37"/>
</a>
</g>
</g>
<!-- Node4 -->
<g id="Node000004" class="node">
<title>Node4</title>
<g id="a_Node000004"><a xlink:title=" ">
<polygon fill="#e0e0e0" stroke="#999999" points="243.5,-19 106.5,-19 106.5,0 243.5,0 243.5,-19"/>
<text text-anchor="middle" x="175" y="-7" font-family="Helvetica,sans-Serif" font-size="10.00">GameFramework/Actor.h</text>
</a>
</g>
</g>
<!-- Node2&#45;&gt;Node4 -->
<g id="edge3_Node000002_Node000004" class="edge">
<title>Node2&#45;&gt;Node4</title>
<g id="a_edge3_Node000002_Node000004"><a xlink:title=" ">
<path fill="none" stroke="#63b8ff" d="M239.79,-60.37C227.89,-51.21 208.86,-36.56 194.49,-25.51"/>
<polygon fill="#63b8ff" stroke="#63b8ff" points="196.32,-22.49 186.26,-19.17 192.05,-28.04 196.32,-22.49"/>
</a>
</g>
</g>
<!-- Node5 -->
<g id="Node000005" class="node">
<title>Node5</title>
<g id="a_Node000005"><a xlink:title=" ">
<polygon fill="#e0e0e0" stroke="#999999" points="392.5,-19 261.5,-19 261.5,0 392.5,0 392.5,-19"/>
<text text-anchor="middle" x="327" y="-7" font-family="Helvetica,sans-Serif" font-size="10.00">GameplayEffectTypes.h</text>
</a>
</g>
</g>
<!-- Node2&#45;&gt;Node5 -->
<g id="edge4_Node000002_Node000005" class="edge">
<title>Node2&#45;&gt;Node5</title>
<g id="a_edge4_Node000002_Node000005"><a xlink:title=" ">
<path fill="none" stroke="#63b8ff" d="M262.21,-60.37C274.11,-51.21 293.14,-36.56 307.51,-25.51"/>
<polygon fill="#63b8ff" stroke="#63b8ff" points="309.95,-28.04 315.74,-19.17 305.68,-22.49 309.95,-28.04"/>
</a>
</g>
</g>
<!-- Node6 -->
<g id="Node000006" class="node">
<title>Node6</title>
<g id="a_Node000006"><a xlink:title=" ">
<polygon fill="#e0e0e0" stroke="#999999" points="589.5,-19 410.5,-19 410.5,0 589.5,0 589.5,-19"/>
<text text-anchor="middle" x="500" y="-7" font-family="Helvetica,sans-Serif" font-size="10.00">OliveWatchProjectile.generated.h</text>
</a>
</g>
</g>
<!-- Node2&#45;&gt;Node6 -->
<g id="edge5_Node000002_Node000006" class="edge">
<title>Node2&#45;&gt;Node6</title>
<g id="a_edge5_Node000002_Node000006"><a xlink:title=" ">
<path fill="none" stroke="#63b8ff" d="M287.21,-60.49C331.28,-50.14 405.77,-32.64 453.9,-21.33"/>
<polygon fill="#63b8ff" stroke="#63b8ff" points="454.82,-24.71 463.75,-19.02 453.21,-17.9 454.82,-24.71"/>
</a>
</g>
</g>
</g>
</svg>
