<?xml version="1.0" encoding="UTF-8" standalone="no"?>
<!DOCTYPE svg PUBLIC "-//W3C//DTD SVG 1.1//EN"
 "http://www.w3.org/Graphics/SVG/1.1/DTD/svg11.dtd">
<!-- Generated by graphviz version 2.43.0 (0)
 -->
<!-- Title: Source/OliveWatch/OliveWatchWeaponComponent.cpp Pages: 1 -->
<svg width="2500pt" height="148pt"
 viewBox="0.00 0.00 2500.00 148.00" xmlns="http://www.w3.org/2000/svg" xmlns:xlink="http://www.w3.org/1999/xlink">
<g id="graph0" class="graph" transform="scale(1 1) rotate(0) translate(4 144)">
<title>Source/OliveWatch/OliveWatchWeaponComponent.cpp</title>
<!-- Node1 -->
<g id="Node000001" class="node">
<title>Node1</title>
<g id="a_Node000001"><a xlink:title=" ">
<polygon fill="#999999" stroke="#666666" points="1748,-140 1581,-140 1581,-110 1748,-110 1748,-140"/>
<text text-anchor="start" x="1589" y="-128" font-family="Helvetica,sans-Serif" font-size="10.00">Source/OliveWatch/OliveWatch</text>
<text text-anchor="middle" x="1664.5" y="-117" font-family="Helvetica,sans-Serif" font-size="10.00">WeaponComponent.cpp</text>
</a>
</g>
</g>
<!-- Node2 -->
<g id="Node000002" class="node">
<title>Node2</title>
<g id="a_Node000002"><a xlink:href="OliveWatchWeaponComponent_8h.html" target="_top" xlink:title=" ">
<polygon fill="white" stroke="#666666" points="1167.5,-74 991.5,-74 991.5,-55 1167.5,-55 1167.5,-74"/>
<text text-anchor="middle" x="1079.5" y="-62" font-family="Helvetica,sans-Serif" font-size="10.00">OliveWatchWeaponComponent.h</text>
</a>
</g>
</g>
<!-- Node1&#45;&gt;Node2 -->
<g id="edge1_Node000001_Node000002" class="edge">
<title>Node1&#45;&gt;Node2</title>
<g id="a_edge1_Node000001_Node000002"><a xlink:title=" ">
<path fill="none" stroke="#63b8ff" d="M1580.99,-115.65C1473.59,-104.91 1287.48,-86.3 1174.69,-75.02"/>
<polygon fill="#63b8ff" stroke="#63b8ff" points="1174.98,-71.53 1164.68,-74.02 1174.29,-78.5 1174.98,-71.53"/>
</a>
</g>
</g>
<!-- Node6 -->
<g id="Node000006" class="node">
<title>Node6</title>
<g id="a_Node000006"><a xlink:href="OliveWatchCharacter_8h.html" target="_top" xlink:title=" ">
<polygon fill="white" stroke="#666666" points="468.5,-74 340.5,-74 340.5,-55 468.5,-55 468.5,-74"/>
<text text-anchor="middle" x="404.5" y="-62" font-family="Helvetica,sans-Serif" font-size="10.00">OliveWatchCharacter.h</text>
</a>
</g>
</g>
<!-- Node1&#45;&gt;Node6 -->
<g id="edge5_Node000001_Node000006" class="edge">
<title>Node1&#45;&gt;Node6</title>
<g id="a_edge5_Node000001_Node000006"><a xlink:title=" ">
<path fill="none" stroke="#63b8ff" d="M1580.85,-120.12C1348.74,-109.34 699.26,-79.19 478.8,-68.95"/>
<polygon fill="#63b8ff" stroke="#63b8ff" points="478.78,-65.45 468.63,-68.48 478.46,-72.44 478.78,-65.45"/>
</a>
</g>
</g>
<!-- Node10 -->
<g id="Node000010" class="node">
<title>Node10</title>
<g id="a_Node000010"><a xlink:href="OliveWatchProjectile_8h.html" target="_top" xlink:title=" ">
<polygon fill="white" stroke="#666666" points="973,-74 846,-74 846,-55 973,-55 973,-74"/>
<text text-anchor="middle" x="909.5" y="-62" font-family="Helvetica,sans-Serif" font-size="10.00">OliveWatchProjectile.h</text>
</a>
</g>
</g>
<!-- Node1&#45;&gt;Node10 -->
<g id="edge10_Node000001_Node000010" class="edge">
<title>Node1&#45;&gt;Node10</title>
<g id="a_edge10_Node000001_Node000010"><a xlink:title=" ">
<path fill="none" stroke="#63b8ff" d="M1580.94,-119.03C1454.21,-111.23 1205.57,-94.93 983.41,-74.04"/>
<polygon fill="#63b8ff" stroke="#63b8ff" points="983.47,-70.53 973.18,-73.08 982.81,-77.5 983.47,-70.53"/>
</a>
</g>
</g>
<!-- Node14 -->
<g id="Node000014" class="node">
<title>Node14</title>
<g id="a_Node000014"><a xlink:title=" ">
<polygon fill="#e0e0e0" stroke="#999999" points="1377,-74 1186,-74 1186,-55 1377,-55 1377,-74"/>
<text text-anchor="middle" x="1281.5" y="-62" font-family="Helvetica,sans-Serif" font-size="10.00">GameFramework/PlayerController.h</text>
</a>
</g>
</g>
<!-- Node1&#45;&gt;Node14 -->
<g id="edge15_Node000001_Node000014" class="edge">
<title>Node1&#45;&gt;Node14</title>
<g id="a_edge15_Node000001_Node000014"><a xlink:title=" ">
<path fill="none" stroke="#63b8ff" d="M1580.92,-111.23C1510.83,-100.53 1412.09,-85.45 1347.46,-75.57"/>
<polygon fill="#63b8ff" stroke="#63b8ff" points="1347.8,-72.09 1337.39,-74.04 1346.74,-79.01 1347.8,-72.09"/>
</a>
</g>
</g>
<!-- Node15 -->
<g id="Node000015" class="node">
<title>Node15</title>
<g id="a_Node000015"><a xlink:title=" ">
<polygon fill="#e0e0e0" stroke="#999999" points="1573.5,-74 1395.5,-74 1395.5,-55 1573.5,-55 1573.5,-74"/>
<text text-anchor="middle" x="1484.5" y="-62" font-family="Helvetica,sans-Serif" font-size="10.00">Camera/PlayerCameraManager.h</text>
</a>
</g>
</g>
<!-- Node1&#45;&gt;Node15 -->
<g id="edge16_Node000001_Node000015" class="edge">
<title>Node1&#45;&gt;Node15</title>
<g id="a_edge16_Node000001_Node000015"><a xlink:title=" ">
<path fill="none" stroke="#63b8ff" d="M1621.39,-109.99C1590.59,-99.98 1549.63,-86.67 1520.57,-77.22"/>
<polygon fill="#63b8ff" stroke="#63b8ff" points="1521.41,-73.82 1510.82,-74.05 1519.25,-80.47 1521.41,-73.82"/>
</a>
</g>
</g>
<!-- Node16 -->
<g id="Node000016" class="node">
<title>Node16</title>
<g id="a_Node000016"><a xlink:title=" ">
<polygon fill="#e0e0e0" stroke="#999999" points="1737.5,-74 1591.5,-74 1591.5,-55 1737.5,-55 1737.5,-74"/>
<text text-anchor="middle" x="1664.5" y="-62" font-family="Helvetica,sans-Serif" font-size="10.00">Kismet/GameplayStatics.h</text>
</a>
</g>
</g>
<!-- Node1&#45;&gt;Node16 -->
<g id="edge17_Node000001_Node000016" class="edge">
<title>Node1&#45;&gt;Node16</title>
<g id="a_edge17_Node000001_Node000016"><a xlink:title=" ">
<path fill="none" stroke="#63b8ff" d="M1664.5,-109.84C1664.5,-102.21 1664.5,-92.7 1664.5,-84.45"/>
<polygon fill="#63b8ff" stroke="#63b8ff" points="1668,-84.27 1664.5,-74.27 1661,-84.27 1668,-84.27"/>
</a>
</g>
</g>
<!-- Node17 -->
<g id="Node000017" class="node">
<title>Node17</title>
<g id="a_Node000017"><a xlink:title=" ">
<polygon fill="#e0e0e0" stroke="#999999" points="1909.5,-74 1755.5,-74 1755.5,-55 1909.5,-55 1909.5,-74"/>
<text text-anchor="middle" x="1832.5" y="-62" font-family="Helvetica,sans-Serif" font-size="10.00">EnhancedInputComponent.h</text>
</a>
</g>
</g>
<!-- Node1&#45;&gt;Node17 -->
<g id="edge18_Node000001_Node000017" class="edge">
<title>Node1&#45;&gt;Node17</title>
<g id="a_edge18_Node000001_Node000017"><a xlink:title=" ">
<path fill="none" stroke="#63b8ff" d="M1704.74,-109.99C1733.27,-100.05 1771.15,-86.86 1798.23,-77.43"/>
<polygon fill="#63b8ff" stroke="#63b8ff" points="1799.4,-80.73 1807.69,-74.14 1797.1,-74.12 1799.4,-80.73"/>
</a>
</g>
</g>
<!-- Node18 -->
<g id="Node000018" class="node">
<title>Node18</title>
<g id="a_Node000018"><a xlink:title=" ">
<polygon fill="#e0e0e0" stroke="#999999" points="2085,-74 1928,-74 1928,-55 2085,-55 2085,-74"/>
<text text-anchor="middle" x="2006.5" y="-62" font-family="Helvetica,sans-Serif" font-size="10.00">EnhancedInputSubsystems.h</text>
</a>
</g>
</g>
<!-- Node1&#45;&gt;Node18 -->
<g id="edge19_Node000001_Node000018" class="edge">
<title>Node1&#45;&gt;Node18</title>
<g id="a_edge19_Node000001_Node000018"><a xlink:title=" ">
<path fill="none" stroke="#63b8ff" d="M1746.42,-109.99C1808.09,-99.44 1891.2,-85.22 1946.71,-75.73"/>
<polygon fill="#63b8ff" stroke="#63b8ff" points="1947.48,-79.15 1956.74,-74.01 1946.3,-72.25 1947.48,-79.15"/>
</a>
</g>
</g>
<!-- Node19 -->
<g id="Node000019" class="node">
<title>Node19</title>
<g id="a_Node000019"><a xlink:title=" ">
<polygon fill="#e0e0e0" stroke="#999999" points="2249.5,-74 2103.5,-74 2103.5,-55 2249.5,-55 2249.5,-74"/>
<text text-anchor="middle" x="2176.5" y="-62" font-family="Helvetica,sans-Serif" font-size="10.00">Animation/AnimInstance.h</text>
</a>
</g>
</g>
<!-- Node1&#45;&gt;Node19 -->
<g id="edge20_Node000001_Node000019" class="edge">
<title>Node1&#45;&gt;Node19</title>
<g id="a_edge20_Node000001_Node000019"><a xlink:title=" ">
<path fill="none" stroke="#63b8ff" d="M1748.19,-114.44C1843.39,-103.56 1997.93,-85.9 2093.03,-75.04"/>
<polygon fill="#63b8ff" stroke="#63b8ff" points="2093.65,-78.49 2103.19,-73.88 2092.85,-71.53 2093.65,-78.49"/>
</a>
</g>
</g>
<!-- Node20 -->
<g id="Node000020" class="node">
<title>Node20</title>
<g id="a_Node000020"><a xlink:title=" ">
<polygon fill="#e0e0e0" stroke="#999999" points="2385,-74 2268,-74 2268,-55 2385,-55 2385,-74"/>
<text text-anchor="middle" x="2326.5" y="-62" font-family="Helvetica,sans-Serif" font-size="10.00">Engine/LocalPlayer.h</text>
</a>
</g>
</g>
<!-- Node1&#45;&gt;Node20 -->
<g id="edge21_Node000001_Node000020" class="edge">
<title>Node1&#45;&gt;Node20</title>
<g id="a_edge21_Node000001_Node000020"><a xlink:title=" ">
<path fill="none" stroke="#63b8ff" d="M1748.22,-118.02C1861.29,-109.71 2069.35,-93.57 2257.82,-74.03"/>
<polygon fill="#63b8ff" stroke="#63b8ff" points="2258.33,-77.49 2267.91,-72.98 2257.6,-70.53 2258.33,-77.49"/>
</a>
</g>
</g>
<!-- Node21 -->
<g id="Node000021" class="node">
<title>Node21</title>
<g id="a_Node000021"><a xlink:title=" ">
<polygon fill="#e0e0e0" stroke="#999999" points="2492,-74 2403,-74 2403,-55 2492,-55 2492,-74"/>
<text text-anchor="middle" x="2447.5" y="-62" font-family="Helvetica,sans-Serif" font-size="10.00">Engine/World.h</text>
</a>
</g>
</g>
<!-- Node1&#45;&gt;Node21 -->
<g id="edge22_Node000001_Node000021" class="edge">
<title>Node1&#45;&gt;Node21</title>
<g id="a_edge22_Node000001_Node000021"><a xlink:title=" ">
<path fill="none" stroke="#63b8ff" d="M1748.2,-120.74C1882.2,-114.97 2153.35,-101.05 2392.44,-74.14"/>
<polygon fill="#63b8ff" stroke="#63b8ff" points="2393.18,-77.58 2402.72,-72.97 2392.39,-70.62 2393.18,-77.58"/>
</a>
</g>
</g>
<!-- Node3 -->
<g id="Node000003" class="node">
<title>Node3</title>
<g id="a_Node000003"><a xlink:title=" ">
<polygon fill="#e0e0e0" stroke="#999999" points="1102.5,-19 1014.5,-19 1014.5,0 1102.5,0 1102.5,-19"/>
<text text-anchor="middle" x="1058.5" y="-7" font-family="Helvetica,sans-Serif" font-size="10.00">CoreMinimal.h</text>
</a>
</g>
</g>
<!-- Node2&#45;&gt;Node3 -->
<g id="edge2_Node000002_Node000003" class="edge">
<title>Node2&#45;&gt;Node3</title>
<g id="a_edge2_Node000002_Node000003"><a xlink:title=" ">
<path fill="none" stroke="#63b8ff" d="M1076.03,-54.75C1073.22,-47.65 1069.16,-37.4 1065.65,-28.56"/>
<polygon fill="#63b8ff" stroke="#63b8ff" points="1068.84,-27.1 1061.9,-19.09 1062.33,-29.68 1068.84,-27.1"/>
</a>
</g>
</g>
<!-- Node4 -->
<g id="Node000004" class="node">
<title>Node4</title>
<g id="a_Node000004"><a xlink:title=" ">
<polygon fill="#e0e0e0" stroke="#999999" points="1580.5,-19 1368.5,-19 1368.5,0 1580.5,0 1580.5,-19"/>
<text text-anchor="middle" x="1474.5" y="-7" font-family="Helvetica,sans-Serif" font-size="10.00">Components/SkeletalMeshComponent.h</text>
</a>
</g>
</g>
<!-- Node2&#45;&gt;Node4 -->
<g id="edge3_Node000002_Node000004" class="edge">
<title>Node2&#45;&gt;Node4</title>
<g id="a_edge3_Node000002_Node000004"><a xlink:title=" ">
<path fill="none" stroke="#63b8ff" d="M1142.96,-54.98C1213.26,-45.55 1326.45,-30.36 1400.66,-20.41"/>
<polygon fill="#63b8ff" stroke="#63b8ff" points="1401.42,-23.84 1410.87,-19.04 1400.49,-16.9 1401.42,-23.84"/>
</a>
</g>
</g>
<!-- Node5 -->
<g id="Node000005" class="node">
<title>Node5</title>
<g id="a_Node000005"><a xlink:title=" ">
<polygon fill="#e0e0e0" stroke="#999999" points="1350,-19 1121,-19 1121,0 1350,0 1350,-19"/>
<text text-anchor="middle" x="1235.5" y="-7" font-family="Helvetica,sans-Serif" font-size="10.00">OliveWatchWeaponComponent.generated.h</text>
</a>
</g>
</g>
<!-- Node2&#45;&gt;Node5 -->
<g id="edge4_Node000002_Node000005" class="edge">
<title>Node2&#45;&gt;Node5</title>
<g id="a_edge4_Node000002_Node000005"><a xlink:title=" ">
<path fill="none" stroke="#63b8ff" d="M1104.56,-54.98C1130.53,-46.16 1171.31,-32.31 1200.46,-22.41"/>
<polygon fill="#63b8ff" stroke="#63b8ff" points="1201.9,-25.61 1210.24,-19.08 1199.65,-18.99 1201.9,-25.61"/>
</a>
</g>
</g>
<!-- Node6&#45;&gt;Node3 -->
<g id="edge6_Node000006_Node000003" class="edge">
<title>Node6&#45;&gt;Node3</title>
<g id="a_edge6_Node000006_Node000003"><a xlink:title=" ">
<path fill="none" stroke="#63b8ff" d="M468.71,-60.54C577,-55.16 802.99,-42.23 1004.13,-19.06"/>
<polygon fill="#63b8ff" stroke="#63b8ff" points="1004.76,-22.51 1014.29,-17.88 1003.96,-15.56 1004.76,-22.51"/>
</a>
</g>
</g>
<!-- Node7 -->
<g id="Node000007" class="node">
<title>Node7</title>
<g id="a_Node000007"><a xlink:title=" ">
<polygon fill="#e0e0e0" stroke="#999999" points="159,-19 0,-19 0,0 159,0 159,-19"/>
<text text-anchor="middle" x="79.5" y="-7" font-family="Helvetica,sans-Serif" font-size="10.00">GameFramework/Character.h</text>
</a>
</g>
</g>
<!-- Node6&#45;&gt;Node7 -->
<g id="edge7_Node000006_Node000007" class="edge">
<title>Node6&#45;&gt;Node7</title>
<g id="a_edge7_Node000006_Node000007"><a xlink:title=" ">
<path fill="none" stroke="#63b8ff" d="M352.28,-54.98C294.92,-45.63 202.83,-30.61 141.76,-20.65"/>
<polygon fill="#63b8ff" stroke="#63b8ff" points="142.29,-17.19 131.86,-19.04 141.16,-24.1 142.29,-17.19"/>
</a>
</g>
</g>
<!-- Node8 -->
<g id="Node000008" class="node">
<title>Node8</title>
<g id="a_Node000008"><a xlink:title=" ">
<polygon fill="#e0e0e0" stroke="#999999" points="296,-19 177,-19 177,0 296,0 296,-19"/>
<text text-anchor="middle" x="236.5" y="-7" font-family="Helvetica,sans-Serif" font-size="10.00">Logging/LogMacros.h</text>
</a>
</g>
</g>
<!-- Node6&#45;&gt;Node8 -->
<g id="edge8_Node000006_Node000008" class="edge">
<title>Node6&#45;&gt;Node8</title>
<g id="a_edge8_Node000006_Node000008"><a xlink:title=" ">
<path fill="none" stroke="#63b8ff" d="M377.51,-54.98C349.3,-46.09 304.86,-32.07 273.42,-22.15"/>
<polygon fill="#63b8ff" stroke="#63b8ff" points="274.29,-18.75 263.7,-19.08 272.19,-25.43 274.29,-18.75"/>
</a>
</g>
</g>
<!-- Node9 -->
<g id="Node000009" class="node">
<title>Node9</title>
<g id="a_Node000009"><a xlink:title=" ">
<polygon fill="#e0e0e0" stroke="#999999" points="494.5,-19 314.5,-19 314.5,0 494.5,0 494.5,-19"/>
<text text-anchor="middle" x="404.5" y="-7" font-family="Helvetica,sans-Serif" font-size="10.00">OliveWatchCharacter.generated.h</text>
</a>
</g>
</g>
<!-- Node6&#45;&gt;Node9 -->
<g id="edge9_Node000006_Node000009" class="edge">
<title>Node6&#45;&gt;Node9</title>
<g id="a_edge9_Node000006_Node000009"><a xlink:title=" ">
<path fill="none" stroke="#63b8ff" d="M404.5,-54.75C404.5,-47.8 404.5,-37.85 404.5,-29.13"/>
<polygon fill="#63b8ff" stroke="#63b8ff" points="408,-29.09 404.5,-19.09 401,-29.09 408,-29.09"/>
</a>
</g>
</g>
<!-- Node10&#45;&gt;Node3 -->
<g id="edge11_Node000010_Node000003" class="edge">
<title>Node10&#45;&gt;Node3</title>
<g id="a_edge11_Node000010_Node000003"><a xlink:title=" ">
<path fill="none" stroke="#63b8ff" d="M933.44,-54.98C958.06,-46.23 996.62,-32.51 1024.42,-22.62"/>
<polygon fill="#63b8ff" stroke="#63b8ff" points="1025.88,-25.82 1034.12,-19.17 1023.53,-19.22 1025.88,-25.82"/>
</a>
</g>
</g>
<!-- Node11 -->
<g id="Node000011" class="node">
<title>Node11</title>
<g id="a_Node000011"><a xlink:title=" ">
<polygon fill="#e0e0e0" stroke="#999999" points="847,-19 710,-19 710,0 847,0 847,-19"/>
<text text-anchor="middle" x="778.5" y="-7" font-family="Helvetica,sans-Serif" font-size="10.00">GameFramework/Actor.h</text>
</a>
</g>
</g>
<!-- Node10&#45;&gt;Node11 -->
<g id="edge12_Node000010_Node000011" class="edge">
<title>Node10&#45;&gt;Node11</title>
<g id="a_edge12_Node000010_Node000011"><a xlink:title=" ">
<path fill="none" stroke="#63b8ff" d="M888.45,-54.98C867.09,-46.34 833.8,-32.87 809.44,-23.02"/>
<polygon fill="#63b8ff" stroke="#63b8ff" points="810.51,-19.68 799.93,-19.17 807.89,-26.17 810.51,-19.68"/>
</a>
</g>
</g>
<!-- Node12 -->
<g id="Node000012" class="node">
<title>Node12</title>
<g id="a_Node000012"><a xlink:title=" ">
<polygon fill="#e0e0e0" stroke="#999999" points="996,-19 865,-19 865,0 996,0 996,-19"/>
<text text-anchor="middle" x="930.5" y="-7" font-family="Helvetica,sans-Serif" font-size="10.00">GameplayEffectTypes.h</text>
</a>
</g>
</g>
<!-- Node10&#45;&gt;Node12 -->
<g id="edge13_Node000010_Node000012" class="edge">
<title>Node10&#45;&gt;Node12</title>
<g id="a_edge13_Node000010_Node000012"><a xlink:title=" ">
<path fill="none" stroke="#63b8ff" d="M912.97,-54.75C915.78,-47.65 919.84,-37.4 923.35,-28.56"/>
<polygon fill="#63b8ff" stroke="#63b8ff" points="926.67,-29.68 927.1,-19.09 920.16,-27.1 926.67,-29.68"/>
</a>
</g>
</g>
<!-- Node13 -->
<g id="Node000013" class="node">
<title>Node13</title>
<g id="a_Node000013"><a xlink:title=" ">
<polygon fill="#e0e0e0" stroke="#999999" points="692,-19 513,-19 513,0 692,0 692,-19"/>
<text text-anchor="middle" x="602.5" y="-7" font-family="Helvetica,sans-Serif" font-size="10.00">OliveWatchProjectile.generated.h</text>
</a>
</g>
</g>
<!-- Node10&#45;&gt;Node13 -->
<g id="edge14_Node000010_Node000013" class="edge">
<title>Node10&#45;&gt;Node13</title>
<g id="a_edge14_Node000010_Node000013"><a xlink:title=" ">
<path fill="none" stroke="#63b8ff" d="M860.18,-54.98C806.21,-45.67 719.72,-30.74 662.02,-20.78"/>
<polygon fill="#63b8ff" stroke="#63b8ff" points="662.41,-17.29 651.96,-19.04 661.22,-24.19 662.41,-17.29"/>
</a>
</g>
</g>
</g>
</svg>
