<?xml version="1.0" encoding="UTF-8" standalone="no"?>
<!DOCTYPE svg PUBLIC "-//W3C//DTD SVG 1.1//EN"
 "http://www.w3.org/Graphics/SVG/1.1/DTD/svg11.dtd">
<!-- Generated by graphviz version 2.43.0 (0)
 -->
<!-- Title: Source/OliveWatch/OliveWatchCharacter.cpp Pages: 1 -->
<svg width="2145pt" height="148pt"
 viewBox="0.00 0.00 2145.00 148.00" xmlns="http://www.w3.org/2000/svg" xmlns:xlink="http://www.w3.org/1999/xlink">
<g id="graph0" class="graph" transform="scale(1 1) rotate(0) translate(4 144)">
<title>Source/OliveWatch/OliveWatchCharacter.cpp</title>
<!-- Node1 -->
<g id="Node000001" class="node">
<title>Node1</title>
<g id="a_Node000001"><a xlink:title=" ">
<polygon fill="#999999" stroke="#666666" points="1397,-140 1230,-140 1230,-110 1397,-110 1397,-140"/>
<text text-anchor="start" x="1238" y="-128" font-family="Helvetica,sans-Serif" font-size="10.00">Source/OliveWatch/OliveWatch</text>
<text text-anchor="middle" x="1313.5" y="-117" font-family="Helvetica,sans-Serif" font-size="10.00">Character.cpp</text>
</a>
</g>
</g>
<!-- Node2 -->
<g id="Node000002" class="node">
<title>Node2</title>
<g id="a_Node000002"><a xlink:href="OliveWatchCharacter_8h.html" target="_top" xlink:title=" ">
<polygon fill="white" stroke="#666666" points="468.5,-74 340.5,-74 340.5,-55 468.5,-55 468.5,-74"/>
<text text-anchor="middle" x="404.5" y="-62" font-family="Helvetica,sans-Serif" font-size="10.00">OliveWatchCharacter.h</text>
</a>
</g>
</g>
<!-- Node1&#45;&gt;Node2 -->
<g id="edge1_Node000001_Node000002" class="edge">
<title>Node1&#45;&gt;Node2</title>
<g id="a_edge1_Node000001_Node000002"><a xlink:title=" ">
<path fill="none" stroke="#63b8ff" d="M1229.61,-118.6C1053.22,-107.25 646.36,-81.07 478.74,-70.28"/>
<polygon fill="#63b8ff" stroke="#63b8ff" points="478.74,-66.77 468.53,-69.62 478.29,-73.76 478.74,-66.77"/>
</a>
</g>
</g>
<!-- Node7 -->
<g id="Node000007" class="node">
<title>Node7</title>
<g id="a_Node000007"><a xlink:href="OliveWatchProjectile_8h.html" target="_top" xlink:title=" ">
<polygon fill="white" stroke="#666666" points="751,-74 624,-74 624,-55 751,-55 751,-74"/>
<text text-anchor="middle" x="687.5" y="-62" font-family="Helvetica,sans-Serif" font-size="10.00">OliveWatchProjectile.h</text>
</a>
</g>
</g>
<!-- Node1&#45;&gt;Node7 -->
<g id="edge6_Node000001_Node000007" class="edge">
<title>Node1&#45;&gt;Node7</title>
<g id="a_edge6_Node000001_Node000007"><a xlink:title=" ">
<path fill="none" stroke="#63b8ff" d="M1229.59,-117.09C1123.24,-108.18 934,-91.82 761.23,-74.05"/>
<polygon fill="#63b8ff" stroke="#63b8ff" points="761.5,-70.56 751.19,-73.01 760.78,-77.52 761.5,-70.56"/>
</a>
</g>
</g>
<!-- Node11 -->
<g id="Node000011" class="node">
<title>Node11</title>
<g id="a_Node000011"><a xlink:title=" ">
<polygon fill="#e0e0e0" stroke="#999999" points="915.5,-74 769.5,-74 769.5,-55 915.5,-55 915.5,-74"/>
<text text-anchor="middle" x="842.5" y="-62" font-family="Helvetica,sans-Serif" font-size="10.00">Animation/AnimInstance.h</text>
</a>
</g>
</g>
<!-- Node1&#45;&gt;Node11 -->
<g id="edge11_Node000001_Node000011" class="edge">
<title>Node1&#45;&gt;Node11</title>
<g id="a_edge11_Node000001_Node000011"><a xlink:title=" ">
<path fill="none" stroke="#63b8ff" d="M1229.84,-113.61C1142.58,-102.77 1006.84,-85.91 921.4,-75.3"/>
<polygon fill="#63b8ff" stroke="#63b8ff" points="921.59,-71.8 911.24,-74.04 920.73,-78.74 921.59,-71.8"/>
</a>
</g>
</g>
<!-- Node12 -->
<g id="Node000012" class="node">
<title>Node12</title>
<g id="a_Node000012"><a xlink:title=" ">
<polygon fill="#e0e0e0" stroke="#999999" points="1095,-74 934,-74 934,-55 1095,-55 1095,-74"/>
<text text-anchor="middle" x="1014.5" y="-62" font-family="Helvetica,sans-Serif" font-size="10.00">Camera/CameraComponent.h</text>
</a>
</g>
</g>
<!-- Node1&#45;&gt;Node12 -->
<g id="edge12_Node000001_Node000012" class="edge">
<title>Node1&#45;&gt;Node12</title>
<g id="a_edge12_Node000001_Node000012"><a xlink:title=" ">
<path fill="none" stroke="#63b8ff" d="M1241.88,-109.99C1188.49,-99.54 1116.72,-85.5 1068.2,-76.01"/>
<polygon fill="#63b8ff" stroke="#63b8ff" points="1068.7,-72.54 1058.22,-74.05 1067.36,-79.41 1068.7,-72.54"/>
</a>
</g>
</g>
<!-- Node13 -->
<g id="Node000013" class="node">
<title>Node13</title>
<g id="a_Node000013"><a xlink:title=" ">
<polygon fill="#e0e0e0" stroke="#999999" points="1298,-74 1113,-74 1113,-55 1298,-55 1298,-74"/>
<text text-anchor="middle" x="1205.5" y="-62" font-family="Helvetica,sans-Serif" font-size="10.00">Components/CapsuleComponent.h</text>
</a>
</g>
</g>
<!-- Node1&#45;&gt;Node13 -->
<g id="edge13_Node000001_Node000013" class="edge">
<title>Node1&#45;&gt;Node13</title>
<g id="a_edge13_Node000001_Node000013"><a xlink:title=" ">
<path fill="none" stroke="#63b8ff" d="M1287.63,-109.99C1270.26,-100.58 1247.49,-88.24 1230.33,-78.95"/>
<polygon fill="#63b8ff" stroke="#63b8ff" points="1231.91,-75.82 1221.45,-74.14 1228.58,-81.98 1231.91,-75.82"/>
</a>
</g>
</g>
<!-- Node14 -->
<g id="Node000014" class="node">
<title>Node14</title>
<g id="a_Node000014"><a xlink:title=" ">
<polygon fill="#e0e0e0" stroke="#999999" points="1527.5,-74 1315.5,-74 1315.5,-55 1527.5,-55 1527.5,-74"/>
<text text-anchor="middle" x="1421.5" y="-62" font-family="Helvetica,sans-Serif" font-size="10.00">Components/SkeletalMeshComponent.h</text>
</a>
</g>
</g>
<!-- Node1&#45;&gt;Node14 -->
<g id="edge14_Node000001_Node000014" class="edge">
<title>Node1&#45;&gt;Node14</title>
<g id="a_edge14_Node000001_Node000014"><a xlink:title=" ">
<path fill="none" stroke="#63b8ff" d="M1339.37,-109.99C1356.74,-100.58 1379.51,-88.24 1396.67,-78.95"/>
<polygon fill="#63b8ff" stroke="#63b8ff" points="1398.42,-81.98 1405.55,-74.14 1395.09,-75.82 1398.42,-81.98"/>
</a>
</g>
</g>
<!-- Node15 -->
<g id="Node000015" class="node">
<title>Node15</title>
<g id="a_Node000015"><a xlink:title=" ">
<polygon fill="#e0e0e0" stroke="#999999" points="1699.5,-74 1545.5,-74 1545.5,-55 1699.5,-55 1699.5,-74"/>
<text text-anchor="middle" x="1622.5" y="-62" font-family="Helvetica,sans-Serif" font-size="10.00">EnhancedInputComponent.h</text>
</a>
</g>
</g>
<!-- Node1&#45;&gt;Node15 -->
<g id="edge15_Node000001_Node000015" class="edge">
<title>Node1&#45;&gt;Node15</title>
<g id="a_edge15_Node000001_Node000015"><a xlink:title=" ">
<path fill="none" stroke="#63b8ff" d="M1387.51,-109.99C1442.8,-99.52 1517.17,-85.44 1567.31,-75.95"/>
<polygon fill="#63b8ff" stroke="#63b8ff" points="1568.14,-79.35 1577.32,-74.05 1566.84,-72.47 1568.14,-79.35"/>
</a>
</g>
</g>
<!-- Node16 -->
<g id="Node000016" class="node">
<title>Node16</title>
<g id="a_Node000016"><a xlink:title=" ">
<polygon fill="#e0e0e0" stroke="#999999" points="1875,-74 1718,-74 1718,-55 1875,-55 1875,-74"/>
<text text-anchor="middle" x="1796.5" y="-62" font-family="Helvetica,sans-Serif" font-size="10.00">EnhancedInputSubsystems.h</text>
</a>
</g>
</g>
<!-- Node1&#45;&gt;Node16 -->
<g id="edge16_Node000001_Node000016" class="edge">
<title>Node1&#45;&gt;Node16</title>
<g id="a_edge16_Node000001_Node000016"><a xlink:title=" ">
<path fill="none" stroke="#63b8ff" d="M1397.08,-113.88C1486.64,-103.03 1627.81,-85.93 1716.12,-75.24"/>
<polygon fill="#63b8ff" stroke="#63b8ff" points="1716.58,-78.7 1726.09,-74.03 1715.74,-71.76 1716.58,-78.7"/>
</a>
</g>
</g>
<!-- Node17 -->
<g id="Node000017" class="node">
<title>Node17</title>
<g id="a_Node000017"><a xlink:title=" ">
<polygon fill="#e0e0e0" stroke="#999999" points="2001.5,-74 1893.5,-74 1893.5,-55 2001.5,-55 2001.5,-74"/>
<text text-anchor="middle" x="1947.5" y="-62" font-family="Helvetica,sans-Serif" font-size="10.00">InputActionValue.h</text>
</a>
</g>
</g>
<!-- Node1&#45;&gt;Node17 -->
<g id="edge17_Node000001_Node000017" class="edge">
<title>Node1&#45;&gt;Node17</title>
<g id="a_edge17_Node000001_Node000017"><a xlink:title=" ">
<path fill="none" stroke="#63b8ff" d="M1397.31,-117.89C1506.66,-109.65 1704.17,-93.82 1883.1,-74.11"/>
<polygon fill="#63b8ff" stroke="#63b8ff" points="1883.67,-77.57 1893.22,-72.99 1882.9,-70.61 1883.67,-77.57"/>
</a>
</g>
</g>
<!-- Node18 -->
<g id="Node000018" class="node">
<title>Node18</title>
<g id="a_Node000018"><a xlink:title=" ">
<polygon fill="#e0e0e0" stroke="#999999" points="2137,-74 2020,-74 2020,-55 2137,-55 2137,-74"/>
<text text-anchor="middle" x="2078.5" y="-62" font-family="Helvetica,sans-Serif" font-size="10.00">Engine/LocalPlayer.h</text>
</a>
</g>
</g>
<!-- Node1&#45;&gt;Node18 -->
<g id="edge18_Node000001_Node000018" class="edge">
<title>Node1&#45;&gt;Node18</title>
<g id="a_edge18_Node000001_Node000018"><a xlink:title=" ">
<path fill="none" stroke="#63b8ff" d="M1397.04,-119.44C1526.05,-112.07 1781.77,-96.21 2009.77,-74.02"/>
<polygon fill="#63b8ff" stroke="#63b8ff" points="2010.31,-77.48 2019.92,-73.02 2009.62,-70.51 2010.31,-77.48"/>
</a>
</g>
</g>
<!-- Node3 -->
<g id="Node000003" class="node">
<title>Node3</title>
<g id="a_Node000003"><a xlink:title=" ">
<polygon fill="#e0e0e0" stroke="#999999" points="600.5,-19 512.5,-19 512.5,0 600.5,0 600.5,-19"/>
<text text-anchor="middle" x="556.5" y="-7" font-family="Helvetica,sans-Serif" font-size="10.00">CoreMinimal.h</text>
</a>
</g>
</g>
<!-- Node2&#45;&gt;Node3 -->
<g id="edge2_Node000002_Node000003" class="edge">
<title>Node2&#45;&gt;Node3</title>
<g id="a_edge2_Node000002_Node000003"><a xlink:title=" ">
<path fill="none" stroke="#63b8ff" d="M428.92,-54.98C454.22,-46.16 493.95,-32.31 522.36,-22.41"/>
<polygon fill="#63b8ff" stroke="#63b8ff" points="523.6,-25.68 531.89,-19.08 521.29,-19.07 523.6,-25.68"/>
</a>
</g>
</g>
<!-- Node4 -->
<g id="Node000004" class="node">
<title>Node4</title>
<g id="a_Node000004"><a xlink:title=" ">
<polygon fill="#e0e0e0" stroke="#999999" points="159,-19 0,-19 0,0 159,0 159,-19"/>
<text text-anchor="middle" x="79.5" y="-7" font-family="Helvetica,sans-Serif" font-size="10.00">GameFramework/Character.h</text>
</a>
</g>
</g>
<!-- Node2&#45;&gt;Node4 -->
<g id="edge3_Node000002_Node000004" class="edge">
<title>Node2&#45;&gt;Node4</title>
<g id="a_edge3_Node000002_Node000004"><a xlink:title=" ">
<path fill="none" stroke="#63b8ff" d="M352.28,-54.98C294.92,-45.63 202.83,-30.61 141.76,-20.65"/>
<polygon fill="#63b8ff" stroke="#63b8ff" points="142.29,-17.19 131.86,-19.04 141.16,-24.1 142.29,-17.19"/>
</a>
</g>
</g>
<!-- Node5 -->
<g id="Node000005" class="node">
<title>Node5</title>
<g id="a_Node000005"><a xlink:title=" ">
<polygon fill="#e0e0e0" stroke="#999999" points="296,-19 177,-19 177,0 296,0 296,-19"/>
<text text-anchor="middle" x="236.5" y="-7" font-family="Helvetica,sans-Serif" font-size="10.00">Logging/LogMacros.h</text>
</a>
</g>
</g>
<!-- Node2&#45;&gt;Node5 -->
<g id="edge4_Node000002_Node000005" class="edge">
<title>Node2&#45;&gt;Node5</title>
<g id="a_edge4_Node000002_Node000005"><a xlink:title=" ">
<path fill="none" stroke="#63b8ff" d="M377.51,-54.98C349.3,-46.09 304.86,-32.07 273.42,-22.15"/>
<polygon fill="#63b8ff" stroke="#63b8ff" points="274.29,-18.75 263.7,-19.08 272.19,-25.43 274.29,-18.75"/>
</a>
</g>
</g>
<!-- Node6 -->
<g id="Node000006" class="node">
<title>Node6</title>
<g id="a_Node000006"><a xlink:title=" ">
<polygon fill="#e0e0e0" stroke="#999999" points="494.5,-19 314.5,-19 314.5,0 494.5,0 494.5,-19"/>
<text text-anchor="middle" x="404.5" y="-7" font-family="Helvetica,sans-Serif" font-size="10.00">OliveWatchCharacter.generated.h</text>
</a>
</g>
</g>
<!-- Node2&#45;&gt;Node6 -->
<g id="edge5_Node000002_Node000006" class="edge">
<title>Node2&#45;&gt;Node6</title>
<g id="a_edge5_Node000002_Node000006"><a xlink:title=" ">
<path fill="none" stroke="#63b8ff" d="M404.5,-54.75C404.5,-47.8 404.5,-37.85 404.5,-29.13"/>
<polygon fill="#63b8ff" stroke="#63b8ff" points="408,-29.09 404.5,-19.09 401,-29.09 408,-29.09"/>
</a>
</g>
</g>
<!-- Node7&#45;&gt;Node3 -->
<g id="edge7_Node000007_Node000003" class="edge">
<title>Node7&#45;&gt;Node3</title>
<g id="a_edge7_Node000007_Node000003"><a xlink:title=" ">
<path fill="none" stroke="#63b8ff" d="M666.45,-54.98C645.09,-46.34 611.8,-32.87 587.44,-23.02"/>
<polygon fill="#63b8ff" stroke="#63b8ff" points="588.51,-19.68 577.93,-19.17 585.89,-26.17 588.51,-19.68"/>
</a>
</g>
</g>
<!-- Node8 -->
<g id="Node000008" class="node">
<title>Node8</title>
<g id="a_Node000008"><a xlink:title=" ">
<polygon fill="#e0e0e0" stroke="#999999" points="756,-19 619,-19 619,0 756,0 756,-19"/>
<text text-anchor="middle" x="687.5" y="-7" font-family="Helvetica,sans-Serif" font-size="10.00">GameFramework/Actor.h</text>
</a>
</g>
</g>
<!-- Node7&#45;&gt;Node8 -->
<g id="edge8_Node000007_Node000008" class="edge">
<title>Node7&#45;&gt;Node8</title>
<g id="a_edge8_Node000007_Node000008"><a xlink:title=" ">
<path fill="none" stroke="#63b8ff" d="M687.5,-54.75C687.5,-47.8 687.5,-37.85 687.5,-29.13"/>
<polygon fill="#63b8ff" stroke="#63b8ff" points="691,-29.09 687.5,-19.09 684,-29.09 691,-29.09"/>
</a>
</g>
</g>
<!-- Node9 -->
<g id="Node000009" class="node">
<title>Node9</title>
<g id="a_Node000009"><a xlink:title=" ">
<polygon fill="#e0e0e0" stroke="#999999" points="905,-19 774,-19 774,0 905,0 905,-19"/>
<text text-anchor="middle" x="839.5" y="-7" font-family="Helvetica,sans-Serif" font-size="10.00">GameplayEffectTypes.h</text>
</a>
</g>
</g>
<!-- Node7&#45;&gt;Node9 -->
<g id="edge9_Node000007_Node000009" class="edge">
<title>Node7&#45;&gt;Node9</title>
<g id="a_edge9_Node000007_Node000009"><a xlink:title=" ">
<path fill="none" stroke="#63b8ff" d="M711.92,-54.98C737.22,-46.16 776.95,-32.31 805.36,-22.41"/>
<polygon fill="#63b8ff" stroke="#63b8ff" points="806.6,-25.68 814.89,-19.08 804.29,-19.07 806.6,-25.68"/>
</a>
</g>
</g>
<!-- Node10 -->
<g id="Node000010" class="node">
<title>Node10</title>
<g id="a_Node000010"><a xlink:title=" ">
<polygon fill="#e0e0e0" stroke="#999999" points="1102,-19 923,-19 923,0 1102,0 1102,-19"/>
<text text-anchor="middle" x="1012.5" y="-7" font-family="Helvetica,sans-Serif" font-size="10.00">OliveWatchProjectile.generated.h</text>
</a>
</g>
</g>
<!-- Node7&#45;&gt;Node10 -->
<g id="edge10_Node000007_Node000010" class="edge">
<title>Node7&#45;&gt;Node10</title>
<g id="a_edge10_Node000007_Node000010"><a xlink:title=" ">
<path fill="none" stroke="#63b8ff" d="M739.72,-54.98C797.08,-45.63 889.17,-30.61 950.24,-20.65"/>
<polygon fill="#63b8ff" stroke="#63b8ff" points="950.84,-24.1 960.14,-19.04 949.71,-17.19 950.84,-24.1"/>
</a>
</g>
</g>
</g>
</svg>
