<?xml version="1.0" encoding="UTF-8" standalone="no"?>
<!DOCTYPE svg PUBLIC "-//W3C//DTD SVG 1.1//EN"
 "http://www.w3.org/Graphics/SVG/1.1/DTD/svg11.dtd">
<!-- Generated by graphviz version 2.43.0 (0)
 -->
<!-- Title: Source/OliveWatch/Player/OWPlayerController.cpp Pages: 1 -->
<svg width="1522pt" height="148pt"
 viewBox="0.00 0.00 1521.50 148.00" xmlns="http://www.w3.org/2000/svg" xmlns:xlink="http://www.w3.org/1999/xlink">
<g id="graph0" class="graph" transform="scale(1 1) rotate(0) translate(4 144)">
<title>Source/OliveWatch/Player/OWPlayerController.cpp</title>
<!-- Node1 -->
<g id="Node000001" class="node">
<title>Node1</title>
<g id="a_Node000001"><a xlink:title=" ">
<polygon fill="#999999" stroke="#666666" points="1072.5,-140 930.5,-140 930.5,-110 1072.5,-110 1072.5,-140"/>
<text text-anchor="start" x="938.5" y="-128" font-family="Helvetica,sans-Serif" font-size="10.00">Source/OliveWatch/Player</text>
<text text-anchor="middle" x="1001.5" y="-117" font-family="Helvetica,sans-Serif" font-size="10.00">/OWPlayerController.cpp</text>
</a>
</g>
</g>
<!-- Node2 -->
<g id="Node000002" class="node">
<title>Node2</title>
<g id="a_Node000002"><a xlink:href="OWPlayerController_8h.html" target="_top" xlink:title=" ">
<polygon fill="white" stroke="#666666" points="906,-74 751,-74 751,-55 906,-55 906,-74"/>
<text text-anchor="middle" x="828.5" y="-62" font-family="Helvetica,sans-Serif" font-size="10.00">Player/OWPlayerController.h</text>
</a>
</g>
</g>
<!-- Node1&#45;&gt;Node2 -->
<g id="edge1_Node000001_Node000002" class="edge">
<title>Node1&#45;&gt;Node2</title>
<g id="a_edge1_Node000001_Node000002"><a xlink:title=" ">
<path fill="none" stroke="#63b8ff" d="M960.06,-109.99C930.59,-100.02 891.44,-86.78 863.53,-77.35"/>
<polygon fill="#63b8ff" stroke="#63b8ff" points="864.39,-73.94 853.8,-74.05 862.15,-80.57 864.39,-73.94"/>
</a>
</g>
</g>
<!-- Node6 -->
<g id="Node000006" class="node">
<title>Node6</title>
<g id="a_Node000006"><a xlink:title=" ">
<polygon fill="#e0e0e0" stroke="#999999" points="1078.5,-74 924.5,-74 924.5,-55 1078.5,-55 1078.5,-74"/>
<text text-anchor="middle" x="1001.5" y="-62" font-family="Helvetica,sans-Serif" font-size="10.00">EnhancedInputComponent.h</text>
</a>
</g>
</g>
<!-- Node1&#45;&gt;Node6 -->
<g id="edge5_Node000001_Node000006" class="edge">
<title>Node1&#45;&gt;Node6</title>
<g id="a_edge5_Node000001_Node000006"><a xlink:title=" ">
<path fill="none" stroke="#63b8ff" d="M1001.5,-109.84C1001.5,-102.21 1001.5,-92.7 1001.5,-84.45"/>
<polygon fill="#63b8ff" stroke="#63b8ff" points="1005,-84.27 1001.5,-74.27 998,-84.27 1005,-84.27"/>
</a>
</g>
</g>
<!-- Node7 -->
<g id="Node000007" class="node">
<title>Node7</title>
<g id="a_Node000007"><a xlink:title=" ">
<polygon fill="#e0e0e0" stroke="#999999" points="1254,-74 1097,-74 1097,-55 1254,-55 1254,-74"/>
<text text-anchor="middle" x="1175.5" y="-62" font-family="Helvetica,sans-Serif" font-size="10.00">EnhancedInputSubsystems.h</text>
</a>
</g>
</g>
<!-- Node1&#45;&gt;Node7 -->
<g id="edge6_Node000001_Node000007" class="edge">
<title>Node1&#45;&gt;Node7</title>
<g id="a_edge6_Node000001_Node000007"><a xlink:title=" ">
<path fill="none" stroke="#63b8ff" d="M1043.18,-109.99C1072.82,-100.02 1112.19,-86.78 1140.27,-77.35"/>
<polygon fill="#63b8ff" stroke="#63b8ff" points="1141.7,-80.56 1150.06,-74.05 1139.46,-73.92 1141.7,-80.56"/>
</a>
</g>
</g>
<!-- Node8 -->
<g id="Node000008" class="node">
<title>Node8</title>
<g id="a_Node000008"><a xlink:href="OWGameplayTags_8h.html" target="_top" xlink:title=" ">
<polygon fill="white" stroke="#666666" points="1387,-74 1272,-74 1272,-55 1387,-55 1387,-74"/>
<text text-anchor="middle" x="1329.5" y="-62" font-family="Helvetica,sans-Serif" font-size="10.00">OWGameplayTags.h</text>
</a>
</g>
</g>
<!-- Node1&#45;&gt;Node8 -->
<g id="edge7_Node000001_Node000008" class="edge">
<title>Node1&#45;&gt;Node8</title>
<g id="a_edge7_Node000001_Node000008"><a xlink:title=" ">
<path fill="none" stroke="#63b8ff" d="M1072.67,-111.31C1132.27,-100.68 1216.25,-85.7 1271.74,-75.8"/>
<polygon fill="#63b8ff" stroke="#63b8ff" points="1272.53,-79.22 1281.76,-74.01 1271.3,-72.32 1272.53,-79.22"/>
</a>
</g>
</g>
<!-- Node10 -->
<g id="Node000010" class="node">
<title>Node10</title>
<g id="a_Node000010"><a xlink:href="OWInputData_8h.html" target="_top" xlink:title=" ">
<polygon fill="white" stroke="#666666" points="420,-74 303,-74 303,-55 420,-55 420,-74"/>
<text text-anchor="middle" x="361.5" y="-62" font-family="Helvetica,sans-Serif" font-size="10.00">Data/OWInputData.h</text>
</a>
</g>
</g>
<!-- Node1&#45;&gt;Node10 -->
<g id="edge9_Node000001_Node000010" class="edge">
<title>Node1&#45;&gt;Node10</title>
<g id="a_edge9_Node000001_Node000010"><a xlink:title=" ">
<path fill="none" stroke="#63b8ff" d="M930.26,-117.49C806.34,-106.16 552.71,-82.98 430.43,-71.8"/>
<polygon fill="#63b8ff" stroke="#63b8ff" points="430.71,-68.31 420.44,-70.89 430.08,-75.28 430.71,-68.31"/>
</a>
</g>
</g>
<!-- Node14 -->
<g id="Node000014" class="node">
<title>Node14</title>
<g id="a_Node000014"><a xlink:href="OWCharacter_8h.html" target="_top" xlink:title=" ">
<polygon fill="white" stroke="#666666" points="704.5,-74 564.5,-74 564.5,-55 704.5,-55 704.5,-74"/>
<text text-anchor="middle" x="634.5" y="-62" font-family="Helvetica,sans-Serif" font-size="10.00">Character/OWCharacter.h</text>
</a>
</g>
</g>
<!-- Node1&#45;&gt;Node14 -->
<g id="edge14_Node000001_Node000014" class="edge">
<title>Node1&#45;&gt;Node14</title>
<g id="a_edge14_Node000001_Node000014"><a xlink:title=" ">
<path fill="none" stroke="#63b8ff" d="M930.3,-112.65C862.93,-101.91 762.74,-85.94 698.02,-75.62"/>
<polygon fill="#63b8ff" stroke="#63b8ff" points="698.37,-72.14 687.94,-74.02 697.27,-79.05 698.37,-72.14"/>
</a>
</g>
</g>
<!-- Node17 -->
<g id="Node000017" class="node">
<title>Node17</title>
<g id="a_Node000017"><a xlink:title=" ">
<polygon fill="#e0e0e0" stroke="#999999" points="1513.5,-74 1405.5,-74 1405.5,-55 1513.5,-55 1513.5,-74"/>
<text text-anchor="middle" x="1459.5" y="-62" font-family="Helvetica,sans-Serif" font-size="10.00">InputActionValue.h</text>
</a>
</g>
</g>
<!-- Node1&#45;&gt;Node17 -->
<g id="edge19_Node000001_Node000017" class="edge">
<title>Node1&#45;&gt;Node17</title>
<g id="a_edge19_Node000001_Node000017"><a xlink:title=" ">
<path fill="none" stroke="#63b8ff" d="M1072.52,-115.19C1149.45,-105.6 1276.08,-89.71 1395.18,-74.16"/>
<polygon fill="#63b8ff" stroke="#63b8ff" points="1395.75,-77.62 1405.21,-72.85 1394.84,-70.68 1395.75,-77.62"/>
</a>
</g>
</g>
<!-- Node3 -->
<g id="Node000003" class="node">
<title>Node3</title>
<g id="a_Node000003"><a xlink:title=" ">
<polygon fill="#e0e0e0" stroke="#999999" points="537.5,-19 449.5,-19 449.5,0 537.5,0 537.5,-19"/>
<text text-anchor="middle" x="493.5" y="-7" font-family="Helvetica,sans-Serif" font-size="10.00">CoreMinimal.h</text>
</a>
</g>
</g>
<!-- Node2&#45;&gt;Node3 -->
<g id="edge2_Node000002_Node000003" class="edge">
<title>Node2&#45;&gt;Node3</title>
<g id="a_edge2_Node000002_Node000003"><a xlink:title=" ">
<path fill="none" stroke="#63b8ff" d="M774.17,-54.97C719.54,-46.38 632.61,-32.69 547.81,-19.2"/>
<polygon fill="#63b8ff" stroke="#63b8ff" points="548.17,-15.72 537.75,-17.6 547.07,-22.63 548.17,-15.72"/>
</a>
</g>
</g>
<!-- Node4 -->
<g id="Node000004" class="node">
<title>Node4</title>
<g id="a_Node000004"><a xlink:title=" ">
<polygon fill="#e0e0e0" stroke="#999999" points="1275,-19 1084,-19 1084,0 1275,0 1275,-19"/>
<text text-anchor="middle" x="1179.5" y="-7" font-family="Helvetica,sans-Serif" font-size="10.00">GameFramework/PlayerController.h</text>
</a>
</g>
</g>
<!-- Node2&#45;&gt;Node4 -->
<g id="edge3_Node000002_Node000004" class="edge">
<title>Node2&#45;&gt;Node4</title>
<g id="a_edge3_Node000002_Node000004"><a xlink:title=" ">
<path fill="none" stroke="#63b8ff" d="M884.89,-54.98C946.98,-45.61 1046.71,-30.55 1112.67,-20.59"/>
<polygon fill="#63b8ff" stroke="#63b8ff" points="1113.59,-23.99 1122.96,-19.04 1112.54,-17.07 1113.59,-23.99"/>
</a>
</g>
</g>
<!-- Node5 -->
<g id="Node000005" class="node">
<title>Node5</title>
<g id="a_Node000005"><a xlink:title=" ">
<polygon fill="#e0e0e0" stroke="#999999" points="1066,-19 893,-19 893,0 1066,0 1066,-19"/>
<text text-anchor="middle" x="979.5" y="-7" font-family="Helvetica,sans-Serif" font-size="10.00">OWPlayerController.generated.h</text>
</a>
</g>
</g>
<!-- Node2&#45;&gt;Node5 -->
<g id="edge4_Node000002_Node000005" class="edge">
<title>Node2&#45;&gt;Node5</title>
<g id="a_edge4_Node000002_Node000005"><a xlink:title=" ">
<path fill="none" stroke="#63b8ff" d="M852.76,-54.98C877.82,-46.19 917.13,-32.39 945.33,-22.49"/>
<polygon fill="#63b8ff" stroke="#63b8ff" points="946.52,-25.78 954.8,-19.17 944.2,-19.18 946.52,-25.78"/>
</a>
</g>
</g>
<!-- Node9 -->
<g id="Node000009" class="node">
<title>Node9</title>
<g id="a_Node000009"><a xlink:title=" ">
<polygon fill="#e0e0e0" stroke="#999999" points="1423.5,-19 1293.5,-19 1293.5,0 1423.5,0 1423.5,-19"/>
<text text-anchor="middle" x="1358.5" y="-7" font-family="Helvetica,sans-Serif" font-size="10.00">NativeGameplayTags.h</text>
</a>
</g>
</g>
<!-- Node8&#45;&gt;Node9 -->
<g id="edge8_Node000008_Node000009" class="edge">
<title>Node8&#45;&gt;Node9</title>
<g id="a_edge8_Node000008_Node000009"><a xlink:title=" ">
<path fill="none" stroke="#63b8ff" d="M1334.29,-54.75C1338.26,-47.49 1344.03,-36.95 1348.93,-27.98"/>
<polygon fill="#63b8ff" stroke="#63b8ff" points="1352.07,-29.54 1353.8,-19.09 1345.93,-26.18 1352.07,-29.54"/>
</a>
</g>
</g>
<!-- Node10&#45;&gt;Node3 -->
<g id="edge10_Node000010_Node000003" class="edge">
<title>Node10&#45;&gt;Node3</title>
<g id="a_edge10_Node000010_Node000003"><a xlink:title=" ">
<path fill="none" stroke="#63b8ff" d="M382.71,-54.98C404.23,-46.34 437.78,-32.87 462.33,-23.02"/>
<polygon fill="#63b8ff" stroke="#63b8ff" points="463.93,-26.14 471.91,-19.17 461.32,-19.65 463.93,-26.14"/>
</a>
</g>
</g>
<!-- Node11 -->
<g id="Node000011" class="node">
<title>Node11</title>
<g id="a_Node000011"><a xlink:title=" ">
<polygon fill="#e0e0e0" stroke="#999999" points="431,-19 292,-19 292,0 431,0 431,-19"/>
<text text-anchor="middle" x="361.5" y="-7" font-family="Helvetica,sans-Serif" font-size="10.00">GameplayTagContainer.h</text>
</a>
</g>
</g>
<!-- Node10&#45;&gt;Node11 -->
<g id="edge11_Node000010_Node000011" class="edge">
<title>Node10&#45;&gt;Node11</title>
<g id="a_edge11_Node000010_Node000011"><a xlink:title=" ">
<path fill="none" stroke="#63b8ff" d="M361.5,-54.75C361.5,-47.8 361.5,-37.85 361.5,-29.13"/>
<polygon fill="#63b8ff" stroke="#63b8ff" points="365,-29.09 361.5,-19.09 358,-29.09 365,-29.09"/>
</a>
</g>
</g>
<!-- Node12 -->
<g id="Node000012" class="node">
<title>Node12</title>
<g id="a_Node000012"><a xlink:title=" ">
<polygon fill="#e0e0e0" stroke="#999999" points="273.5,-19 161.5,-19 161.5,0 273.5,0 273.5,-19"/>
<text text-anchor="middle" x="217.5" y="-7" font-family="Helvetica,sans-Serif" font-size="10.00">Engine/DataAsset.h</text>
</a>
</g>
</g>
<!-- Node10&#45;&gt;Node12 -->
<g id="edge12_Node000010_Node000012" class="edge">
<title>Node10&#45;&gt;Node12</title>
<g id="a_edge12_Node000010_Node000012"><a xlink:title=" ">
<path fill="none" stroke="#63b8ff" d="M338.36,-54.98C314.68,-46.27 277.63,-32.63 250.79,-22.75"/>
<polygon fill="#63b8ff" stroke="#63b8ff" points="251.65,-19.34 241.06,-19.17 249.23,-25.91 251.65,-19.34"/>
</a>
</g>
</g>
<!-- Node13 -->
<g id="Node000013" class="node">
<title>Node13</title>
<g id="a_Node000013"><a xlink:title=" ">
<polygon fill="#e0e0e0" stroke="#999999" points="143,-19 0,-19 0,0 143,0 143,-19"/>
<text text-anchor="middle" x="71.5" y="-7" font-family="Helvetica,sans-Serif" font-size="10.00">OWInputData.generated.h</text>
</a>
</g>
</g>
<!-- Node10&#45;&gt;Node13 -->
<g id="edge13_Node000010_Node000013" class="edge">
<title>Node10&#45;&gt;Node13</title>
<g id="a_edge13_Node000010_Node000013"><a xlink:title=" ">
<path fill="none" stroke="#63b8ff" d="M314.91,-54.98C264.11,-45.7 182.81,-30.84 128.31,-20.88"/>
<polygon fill="#63b8ff" stroke="#63b8ff" points="128.93,-17.44 118.46,-19.08 127.67,-24.32 128.93,-17.44"/>
</a>
</g>
</g>
<!-- Node14&#45;&gt;Node3 -->
<g id="edge15_Node000014_Node000003" class="edge">
<title>Node14&#45;&gt;Node3</title>
<g id="a_edge15_Node000014_Node000003"><a xlink:title=" ">
<path fill="none" stroke="#63b8ff" d="M611.85,-54.98C588.65,-46.27 552.38,-32.63 526.1,-22.75"/>
<polygon fill="#63b8ff" stroke="#63b8ff" points="527.16,-19.41 516.57,-19.17 524.7,-25.97 527.16,-19.41"/>
</a>
</g>
</g>
<!-- Node14&#45;&gt;Node11 -->
<g id="edge17_Node000014_Node000011" class="edge">
<title>Node14&#45;&gt;Node11</title>
<g id="a_edge17_Node000014_Node000011"><a xlink:title=" ">
<path fill="none" stroke="#63b8ff" d="M590.64,-54.98C543.02,-45.74 466.92,-30.97 415.62,-21.01"/>
<polygon fill="#63b8ff" stroke="#63b8ff" points="416.19,-17.55 405.71,-19.08 414.86,-24.42 416.19,-17.55"/>
</a>
</g>
</g>
<!-- Node15 -->
<g id="Node000015" class="node">
<title>Node15</title>
<g id="a_Node000015"><a xlink:title=" ">
<polygon fill="#e0e0e0" stroke="#999999" points="714,-19 555,-19 555,0 714,0 714,-19"/>
<text text-anchor="middle" x="634.5" y="-7" font-family="Helvetica,sans-Serif" font-size="10.00">GameFramework/Character.h</text>
</a>
</g>
</g>
<!-- Node14&#45;&gt;Node15 -->
<g id="edge16_Node000014_Node000015" class="edge">
<title>Node14&#45;&gt;Node15</title>
<g id="a_edge16_Node000014_Node000015"><a xlink:title=" ">
<path fill="none" stroke="#63b8ff" d="M634.5,-54.75C634.5,-47.8 634.5,-37.85 634.5,-29.13"/>
<polygon fill="#63b8ff" stroke="#63b8ff" points="638,-29.09 634.5,-19.09 631,-29.09 638,-29.09"/>
</a>
</g>
</g>
<!-- Node16 -->
<g id="Node000016" class="node">
<title>Node16</title>
<g id="a_Node000016"><a xlink:title=" ">
<polygon fill="#e0e0e0" stroke="#999999" points="874.5,-19 732.5,-19 732.5,0 874.5,0 874.5,-19"/>
<text text-anchor="middle" x="803.5" y="-7" font-family="Helvetica,sans-Serif" font-size="10.00">OWCharacter.generated.h</text>
</a>
</g>
</g>
<!-- Node14&#45;&gt;Node16 -->
<g id="edge18_Node000014_Node000016" class="edge">
<title>Node14&#45;&gt;Node16</title>
<g id="a_edge18_Node000014_Node000016"><a xlink:title=" ">
<path fill="none" stroke="#63b8ff" d="M661.65,-54.98C690.03,-46.09 734.73,-32.07 766.36,-22.15"/>
<polygon fill="#63b8ff" stroke="#63b8ff" points="767.64,-25.41 776.13,-19.08 765.55,-18.73 767.64,-25.41"/>
</a>
</g>
</g>
</g>
</svg>
