<?xml version="1.0" encoding="UTF-8" standalone="no"?>
<!DOCTYPE svg PUBLIC "-//W3C//DTD SVG 1.1//EN"
 "http://www.w3.org/Graphics/SVG/1.1/DTD/svg11.dtd">
<!-- Generated by graphviz version 2.43.0 (0)
 -->
<!-- Title: Source/OliveWatch/Player/OWPlayerState.cpp Pages: 1 -->
<svg width="1611pt" height="159pt"
 viewBox="0.00 0.00 1610.50 159.00" xmlns="http://www.w3.org/2000/svg" xmlns:xlink="http://www.w3.org/1999/xlink">
<g id="graph0" class="graph" transform="scale(1 1) rotate(0) translate(4 155)">
<title>Source/OliveWatch/Player/OWPlayerState.cpp</title>
<!-- Node1 -->
<g id="Node000001" class="node">
<title>Node1</title>
<g id="a_Node000001"><a xlink:title=" ">
<polygon fill="#999999" stroke="#666666" points="1151.5,-151 1009.5,-151 1009.5,-121 1151.5,-121 1151.5,-151"/>
<text text-anchor="start" x="1017.5" y="-139" font-family="Helvetica,sans-Serif" font-size="10.00">Source/OliveWatch/Player</text>
<text text-anchor="middle" x="1080.5" y="-128" font-family="Helvetica,sans-Serif" font-size="10.00">/OWPlayerState.cpp</text>
</a>
</g>
</g>
<!-- Node2 -->
<g id="Node000002" class="node">
<title>Node2</title>
<g id="a_Node000002"><a xlink:href="OWPlayerState_8h.html" target="_top" xlink:title=" ">
<polygon fill="white" stroke="#666666" points="485,-79.5 352,-79.5 352,-60.5 485,-60.5 485,-79.5"/>
<text text-anchor="middle" x="418.5" y="-67.5" font-family="Helvetica,sans-Serif" font-size="10.00">Player/OWPlayerState.h</text>
</a>
</g>
</g>
<!-- Node1&#45;&gt;Node2 -->
<g id="edge1_Node000001_Node000002" class="edge">
<title>Node1&#45;&gt;Node2</title>
<g id="a_edge1_Node000001_Node000002"><a xlink:title=" ">
<path fill="none" stroke="#63b8ff" d="M1009.34,-128.12C884,-116 624.91,-90.95 495.52,-78.45"/>
<polygon fill="#63b8ff" stroke="#63b8ff" points="495.59,-74.94 485.3,-77.46 494.92,-81.9 495.59,-74.94"/>
</a>
</g>
</g>
<!-- Node7 -->
<g id="Node000007" class="node">
<title>Node7</title>
<g id="a_Node000007"><a xlink:href="OWAbilitySystemComponent_8h.html" target="_top" xlink:title=" ">
<polygon fill="white" stroke="#666666" points="881,-85 708,-85 708,-55 881,-55 881,-85"/>
<text text-anchor="start" x="716" y="-73" font-family="Helvetica,sans-Serif" font-size="10.00">AbilitySystem/OWAbilitySystem</text>
<text text-anchor="middle" x="794.5" y="-62" font-family="Helvetica,sans-Serif" font-size="10.00">Component.h</text>
</a>
</g>
</g>
<!-- Node1&#45;&gt;Node7 -->
<g id="edge6_Node000001_Node000007" class="edge">
<title>Node1&#45;&gt;Node7</title>
<g id="a_edge6_Node000001_Node000007"><a xlink:title=" ">
<path fill="none" stroke="#63b8ff" d="M1017.74,-120.95C973.31,-111.01 913.61,-97.65 867.13,-87.25"/>
<polygon fill="#63b8ff" stroke="#63b8ff" points="867.64,-83.78 857.12,-85.01 866.11,-90.61 867.64,-83.78"/>
</a>
</g>
</g>
<!-- Node10 -->
<g id="Node000010" class="node">
<title>Node10</title>
<g id="a_Node000010"><a xlink:href="OWAbilitySet_8h.html" target="_top" xlink:title=" ">
<polygon fill="white" stroke="#666666" points="1161,-79.5 1000,-79.5 1000,-60.5 1161,-60.5 1161,-79.5"/>
<text text-anchor="middle" x="1080.5" y="-67.5" font-family="Helvetica,sans-Serif" font-size="10.00">AbilitySystem/OWAbilitySet.h</text>
</a>
</g>
</g>
<!-- Node1&#45;&gt;Node10 -->
<g id="edge10_Node000001_Node000010" class="edge">
<title>Node1&#45;&gt;Node10</title>
<g id="a_edge10_Node000001_Node000010"><a xlink:title=" ">
<path fill="none" stroke="#63b8ff" d="M1080.5,-120.8C1080.5,-111.7 1080.5,-99.79 1080.5,-89.9"/>
<polygon fill="#63b8ff" stroke="#63b8ff" points="1084,-89.84 1080.5,-79.84 1077,-89.84 1084,-89.84"/>
</a>
</g>
</g>
<!-- Node14 -->
<g id="Node000014" class="node">
<title>Node14</title>
<g id="a_Node000014"><a xlink:href="OWGameplayTags_8h.html" target="_top" xlink:title=" ">
<polygon fill="white" stroke="#666666" points="1294,-79.5 1179,-79.5 1179,-60.5 1294,-60.5 1294,-79.5"/>
<text text-anchor="middle" x="1236.5" y="-67.5" font-family="Helvetica,sans-Serif" font-size="10.00">OWGameplayTags.h</text>
</a>
</g>
</g>
<!-- Node1&#45;&gt;Node14 -->
<g id="edge15_Node000001_Node000014" class="edge">
<title>Node1&#45;&gt;Node14</title>
<g id="a_edge15_Node000001_Node000014"><a xlink:title=" ">
<path fill="none" stroke="#63b8ff" d="M1114.73,-120.95C1142.09,-109.73 1180.07,-94.15 1206.31,-83.39"/>
<polygon fill="#63b8ff" stroke="#63b8ff" points="1207.82,-86.55 1215.74,-79.52 1205.16,-80.07 1207.82,-86.55"/>
</a>
</g>
</g>
<!-- Node16 -->
<g id="Node000016" class="node">
<title>Node16</title>
<g id="a_Node000016"><a xlink:href="OWLogChannels_8h.html" target="_top" xlink:title=" ">
<polygon fill="white" stroke="#666666" points="1417,-79.5 1312,-79.5 1312,-60.5 1417,-60.5 1417,-79.5"/>
<text text-anchor="middle" x="1364.5" y="-67.5" font-family="Helvetica,sans-Serif" font-size="10.00">OWLogChannels.h</text>
</a>
</g>
</g>
<!-- Node1&#45;&gt;Node16 -->
<g id="edge17_Node000001_Node000016" class="edge">
<title>Node1&#45;&gt;Node16</title>
<g id="a_edge17_Node000001_Node000016"><a xlink:title=" ">
<path fill="none" stroke="#63b8ff" d="M1143.48,-120.97C1188.15,-110.99 1249.52,-97.25 1303.5,-85 1308.09,-83.96 1312.88,-82.87 1317.66,-81.77"/>
<polygon fill="#63b8ff" stroke="#63b8ff" points="1318.44,-85.19 1327.41,-79.54 1316.88,-78.36 1318.44,-85.19"/>
</a>
</g>
</g>
<!-- Node3 -->
<g id="Node000003" class="node">
<title>Node3</title>
<g id="a_Node000003"><a xlink:title=" ">
<polygon fill="#e0e0e0" stroke="#999999" points="137,-19 0,-19 0,0 137,0 137,-19"/>
<text text-anchor="middle" x="68.5" y="-7" font-family="Helvetica,sans-Serif" font-size="10.00">AbilitySystemInterface.h</text>
</a>
</g>
</g>
<!-- Node2&#45;&gt;Node3 -->
<g id="edge2_Node000002_Node000003" class="edge">
<title>Node2&#45;&gt;Node3</title>
<g id="a_edge2_Node000002_Node000003"><a xlink:title=" ">
<path fill="none" stroke="#63b8ff" d="M367.61,-60.49C304.49,-49.94 197,-31.98 129.52,-20.7"/>
<polygon fill="#63b8ff" stroke="#63b8ff" points="129.89,-17.21 119.45,-19.02 128.74,-24.12 129.89,-17.21"/>
</a>
</g>
</g>
<!-- Node4 -->
<g id="Node000004" class="node">
<title>Node4</title>
<g id="a_Node000004"><a xlink:title=" ">
<polygon fill="#e0e0e0" stroke="#999999" points="600.5,-19 512.5,-19 512.5,0 600.5,0 600.5,-19"/>
<text text-anchor="middle" x="556.5" y="-7" font-family="Helvetica,sans-Serif" font-size="10.00">CoreMinimal.h</text>
</a>
</g>
</g>
<!-- Node2&#45;&gt;Node4 -->
<g id="edge3_Node000002_Node000004" class="edge">
<title>Node2&#45;&gt;Node4</title>
<g id="a_edge3_Node000002_Node000004"><a xlink:title=" ">
<path fill="none" stroke="#63b8ff" d="M438.57,-60.49C461.87,-50.62 500.51,-34.23 527.18,-22.93"/>
<polygon fill="#63b8ff" stroke="#63b8ff" points="528.57,-26.14 536.41,-19.02 525.84,-19.7 528.57,-26.14"/>
</a>
</g>
</g>
<!-- Node5 -->
<g id="Node000005" class="node">
<title>Node5</title>
<g id="a_Node000005"><a xlink:title=" ">
<polygon fill="#e0e0e0" stroke="#999999" points="324,-19 155,-19 155,0 324,0 324,-19"/>
<text text-anchor="middle" x="239.5" y="-7" font-family="Helvetica,sans-Serif" font-size="10.00">GameFramework/PlayerState.h</text>
</a>
</g>
</g>
<!-- Node2&#45;&gt;Node5 -->
<g id="edge4_Node000002_Node000005" class="edge">
<title>Node2&#45;&gt;Node5</title>
<g id="a_edge4_Node000002_Node000005"><a xlink:title=" ">
<path fill="none" stroke="#63b8ff" d="M392.47,-60.49C361.58,-50.4 309.92,-33.51 275.28,-22.19"/>
<polygon fill="#63b8ff" stroke="#63b8ff" points="276.15,-18.8 265.56,-19.02 273.98,-25.45 276.15,-18.8"/>
</a>
</g>
</g>
<!-- Node6 -->
<g id="Node000006" class="node">
<title>Node6</title>
<g id="a_Node000006"><a xlink:title=" ">
<polygon fill="#e0e0e0" stroke="#999999" points="494.5,-19 342.5,-19 342.5,0 494.5,0 494.5,-19"/>
<text text-anchor="middle" x="418.5" y="-7" font-family="Helvetica,sans-Serif" font-size="10.00">OWPlayerState.generated.h</text>
</a>
</g>
</g>
<!-- Node2&#45;&gt;Node6 -->
<g id="edge5_Node000002_Node000006" class="edge">
<title>Node2&#45;&gt;Node6</title>
<g id="a_edge5_Node000002_Node000006"><a xlink:title=" ">
<path fill="none" stroke="#63b8ff" d="M418.5,-60.37C418.5,-52.25 418.5,-39.81 418.5,-29.39"/>
<polygon fill="#63b8ff" stroke="#63b8ff" points="422,-29.17 418.5,-19.17 415,-29.17 422,-29.17"/>
</a>
</g>
</g>
<!-- Node7&#45;&gt;Node4 -->
<g id="edge7_Node000007_Node000004" class="edge">
<title>Node7&#45;&gt;Node4</title>
<g id="a_edge7_Node000007_Node000004"><a xlink:title=" ">
<path fill="none" stroke="#63b8ff" d="M737.49,-54.99C695.71,-44.72 639.77,-30.97 601.2,-21.49"/>
<polygon fill="#63b8ff" stroke="#63b8ff" points="601.85,-18.04 591.3,-19.05 600.17,-24.84 601.85,-18.04"/>
</a>
</g>
</g>
<!-- Node8 -->
<g id="Node000008" class="node">
<title>Node8</title>
<g id="a_Node000008"><a xlink:title=" ">
<polygon fill="#e0e0e0" stroke="#999999" points="768.5,-19 618.5,-19 618.5,0 768.5,0 768.5,-19"/>
<text text-anchor="middle" x="693.5" y="-7" font-family="Helvetica,sans-Serif" font-size="10.00">AbilitySystemComponent.h</text>
</a>
</g>
</g>
<!-- Node7&#45;&gt;Node8 -->
<g id="edge8_Node000007_Node000008" class="edge">
<title>Node7&#45;&gt;Node8</title>
<g id="a_edge8_Node000007_Node000008"><a xlink:title=" ">
<path fill="none" stroke="#63b8ff" d="M770.31,-54.99C754.21,-45.66 733.16,-33.47 717.17,-24.21"/>
<polygon fill="#63b8ff" stroke="#63b8ff" points="718.82,-21.12 708.42,-19.14 715.31,-27.18 718.82,-21.12"/>
</a>
</g>
</g>
<!-- Node9 -->
<g id="Node000009" class="node">
<title>Node9</title>
<g id="a_Node000009"><a xlink:title=" ">
<polygon fill="#e0e0e0" stroke="#999999" points="1006,-19 787,-19 787,0 1006,0 1006,-19"/>
<text text-anchor="middle" x="896.5" y="-7" font-family="Helvetica,sans-Serif" font-size="10.00">OWAbilitySystemComponent.generated.h</text>
</a>
</g>
</g>
<!-- Node7&#45;&gt;Node9 -->
<g id="edge9_Node000007_Node000009" class="edge">
<title>Node7&#45;&gt;Node9</title>
<g id="a_edge9_Node000007_Node000009"><a xlink:title=" ">
<path fill="none" stroke="#63b8ff" d="M818.93,-54.99C835.19,-45.66 856.45,-33.47 872.6,-24.21"/>
<polygon fill="#63b8ff" stroke="#63b8ff" points="874.5,-27.15 881.44,-19.14 871.02,-21.08 874.5,-27.15"/>
</a>
</g>
</g>
<!-- Node10&#45;&gt;Node4 -->
<g id="edge11_Node000010_Node000004" class="edge">
<title>Node10&#45;&gt;Node4</title>
<g id="a_edge11_Node000010_Node000004"><a xlink:title=" ">
<path fill="none" stroke="#63b8ff" d="M999.92,-61.76C908.21,-53.23 753.69,-37.95 610.97,-19.13"/>
<polygon fill="#63b8ff" stroke="#63b8ff" points="611.09,-15.62 600.72,-17.77 610.17,-22.56 611.09,-15.62"/>
</a>
</g>
</g>
<!-- Node11 -->
<g id="Node000011" class="node">
<title>Node11</title>
<g id="a_Node000011"><a xlink:title=" ">
<polygon fill="#e0e0e0" stroke="#999999" points="1136.5,-19 1024.5,-19 1024.5,0 1136.5,0 1136.5,-19"/>
<text text-anchor="middle" x="1080.5" y="-7" font-family="Helvetica,sans-Serif" font-size="10.00">Engine/DataAsset.h</text>
</a>
</g>
</g>
<!-- Node10&#45;&gt;Node11 -->
<g id="edge12_Node000010_Node000011" class="edge">
<title>Node10&#45;&gt;Node11</title>
<g id="a_edge12_Node000010_Node000011"><a xlink:title=" ">
<path fill="none" stroke="#63b8ff" d="M1080.5,-60.37C1080.5,-52.25 1080.5,-39.81 1080.5,-29.39"/>
<polygon fill="#63b8ff" stroke="#63b8ff" points="1084,-29.17 1080.5,-19.17 1077,-29.17 1084,-29.17"/>
</a>
</g>
</g>
<!-- Node12 -->
<g id="Node000012" class="node">
<title>Node12</title>
<g id="a_Node000012"><a xlink:title=" ">
<polygon fill="#e0e0e0" stroke="#999999" points="1294,-19 1155,-19 1155,0 1294,0 1294,-19"/>
<text text-anchor="middle" x="1224.5" y="-7" font-family="Helvetica,sans-Serif" font-size="10.00">GameplayTagContainer.h</text>
</a>
</g>
</g>
<!-- Node10&#45;&gt;Node12 -->
<g id="edge13_Node000010_Node000012" class="edge">
<title>Node10&#45;&gt;Node12</title>
<g id="a_edge13_Node000010_Node000012"><a xlink:title=" ">
<path fill="none" stroke="#63b8ff" d="M1101.44,-60.49C1125.86,-50.57 1166.43,-34.09 1194.27,-22.78"/>
<polygon fill="#63b8ff" stroke="#63b8ff" points="1195.59,-26.02 1203.54,-19.02 1192.95,-19.54 1195.59,-26.02"/>
</a>
</g>
</g>
<!-- Node13 -->
<g id="Node000013" class="node">
<title>Node13</title>
<g id="a_Node000013"><a xlink:title=" ">
<polygon fill="#e0e0e0" stroke="#999999" points="1454.5,-19 1312.5,-19 1312.5,0 1454.5,0 1454.5,-19"/>
<text text-anchor="middle" x="1383.5" y="-7" font-family="Helvetica,sans-Serif" font-size="10.00">OWAbilitySet.generated.h</text>
</a>
</g>
</g>
<!-- Node10&#45;&gt;Node13 -->
<g id="edge14_Node000010_Node000013" class="edge">
<title>Node10&#45;&gt;Node13</title>
<g id="a_edge14_Node000010_Node000013"><a xlink:title=" ">
<path fill="none" stroke="#63b8ff" d="M1124.56,-60.49C1178.75,-50.03 1270.73,-32.27 1329.23,-20.98"/>
<polygon fill="#63b8ff" stroke="#63b8ff" points="1330.23,-24.35 1339.39,-19.02 1328.91,-17.48 1330.23,-24.35"/>
</a>
</g>
</g>
<!-- Node15 -->
<g id="Node000015" class="node">
<title>Node15</title>
<g id="a_Node000015"><a xlink:title=" ">
<polygon fill="#e0e0e0" stroke="#999999" points="1602.5,-19 1472.5,-19 1472.5,0 1602.5,0 1602.5,-19"/>
<text text-anchor="middle" x="1537.5" y="-7" font-family="Helvetica,sans-Serif" font-size="10.00">NativeGameplayTags.h</text>
</a>
</g>
</g>
<!-- Node14&#45;&gt;Node15 -->
<g id="edge16_Node000014_Node000015" class="edge">
<title>Node14&#45;&gt;Node15</title>
<g id="a_edge16_Node000014_Node000015"><a xlink:title=" ">
<path fill="none" stroke="#63b8ff" d="M1276.87,-60.44C1285.64,-58.62 1294.88,-56.72 1303.5,-55 1364.14,-42.9 1433.77,-29.75 1481.21,-20.91"/>
<polygon fill="#63b8ff" stroke="#63b8ff" points="1482.09,-24.31 1491.28,-19.04 1480.81,-17.43 1482.09,-24.31"/>
</a>
</g>
</g>
</g>
</svg>
