<?xml version="1.0" encoding="UTF-8" standalone="no"?>
<!DOCTYPE svg PUBLIC "-//W3C//DTD SVG 1.1//EN"
 "http://www.w3.org/Graphics/SVG/1.1/DTD/svg11.dtd">
<!-- Generated by graphviz version 2.43.0 (0)
 -->
<!-- Title: UOWGameplayAbility Pages: 1 -->
<svg width="372pt" height="447pt"
 viewBox="0.00 0.00 372.00 447.00" xmlns="http://www.w3.org/2000/svg" xmlns:xlink="http://www.w3.org/1999/xlink">
<g id="graph0" class="graph" transform="scale(1 1) rotate(0) translate(4 443)">
<title>UOWGameplayAbility</title>
<!-- Node1 -->
<g id="Node000001" class="node">
<title>Node1</title>
<g id="a_Node000001"><a xlink:title=" ">
<polygon fill="#999999" stroke="transparent" points="252,-354 116,-354 116,-305 252,-305 252,-354"/>
<text text-anchor="start" x="130.5" y="-341.5" font-family="Helvetica,sans-Serif" font-size="10.00">UOWGameplayAbility</text>
<text text-anchor="start" x="182" y="-326.5" font-family="Helvetica,sans-Serif" font-size="10.00"> </text>
<text text-anchor="start" x="120" y="-311.5" font-family="Helvetica,sans-Serif" font-size="10.00">+</text>
<text text-anchor="start" x="133" y="-311.5" font-family="Helvetica,sans-Serif" font-size="10.00">UOWGameplayAbility()</text>
<polygon fill="#666666" stroke="#666666" points="116,-336.5 116,-336.5 252,-336.5 252,-336.5 116,-336.5"/>
<polygon fill="#666666" stroke="#666666" points="116,-321.5 116,-321.5 252,-321.5 252,-321.5 116,-321.5"/>
<polygon fill="none" stroke="#666666" points="116,-305 116,-354 252,-354 252,-305 116,-305"/>
</a>
</g>
</g>
<!-- Node3 -->
<g id="Node000003" class="node">
<title>Node3</title>
<g id="a_Node000003"><a xlink:href="classUOWGA__Active.html" target="_top" xlink:title=" ">
<polygon fill="white" stroke="transparent" points="120,-269 0,-269 0,-145 120,-145 120,-269"/>
<text text-anchor="start" x="22" y="-257" font-family="Helvetica,sans-Serif" font-size="10.00">UOWGA_Active</text>
<text text-anchor="start" x="4" y="-242" font-family="Helvetica,sans-Serif" font-size="10.00">#</text>
<text text-anchor="start" x="17" y="-242" font-family="Helvetica,sans-Serif" font-size="10.00">CooldownDuration</text>
<text text-anchor="start" x="4" y="-227" font-family="Helvetica,sans-Serif" font-size="10.00">#</text>
<text text-anchor="start" x="17" y="-227" font-family="Helvetica,sans-Serif" font-size="10.00">CooldownTags</text>
<text text-anchor="start" x="4" y="-212" font-family="Helvetica,sans-Serif" font-size="10.00">+</text>
<text text-anchor="start" x="17" y="-212" font-family="Helvetica,sans-Serif" font-size="10.00">UOWGA_Active()</text>
<text text-anchor="start" x="4" y="-197" font-family="Helvetica,sans-Serif" font-size="10.00">+</text>
<text text-anchor="start" x="17" y="-197" font-family="Helvetica,sans-Serif" font-size="10.00">SetCooldownData()</text>
<text text-anchor="start" x="4" y="-182" font-family="Helvetica,sans-Serif" font-size="10.00">+</text>
<text text-anchor="start" x="17" y="-182" font-family="Helvetica,sans-Serif" font-size="10.00">ActivateAbility()</text>
<text text-anchor="start" x="4" y="-167" font-family="Helvetica,sans-Serif" font-size="10.00">+</text>
<text text-anchor="start" x="17" y="-167" font-family="Helvetica,sans-Serif" font-size="10.00">ApplyCooldown()</text>
<text text-anchor="start" x="4" y="-152" font-family="Helvetica,sans-Serif" font-size="10.00">+</text>
<text text-anchor="start" x="17" y="-152" font-family="Helvetica,sans-Serif" font-size="10.00">CanActivateAbility()</text>
<polygon fill="#666666" stroke="#666666" points="0,-252 0,-252 120,-252 120,-252 0,-252"/>
<polygon fill="#666666" stroke="#666666" points="0,-222 0,-222 15,-222 15,-222 0,-222"/>
<polygon fill="#666666" stroke="#666666" points="15,-222 15,-222 120,-222 120,-222 15,-222"/>
<polygon fill="none" stroke="#666666" points="0,-145 0,-269 120,-269 120,-145 0,-145"/>
</a>
</g>
</g>
<!-- Node1&#45;&gt;Node3 -->
<g id="edge2_Node000001_Node000003" class="edge">
<title>Node1&#45;&gt;Node3</title>
<g id="a_edge2_Node000001_Node000003"><a xlink:title=" ">
<path fill="none" stroke="#63b8ff" d="M152.52,-297.91C142.62,-288.29 131.34,-277.33 120.14,-266.44"/>
<polygon fill="none" stroke="#63b8ff" points="150.19,-300.52 159.8,-304.98 155.06,-295.5 150.19,-300.52"/>
</a>
</g>
</g>
<!-- Node4 -->
<g id="Node000004" class="node">
<title>Node4</title>
<g id="a_Node000004"><a xlink:href="classUOWGA__Passive.html" target="_top" xlink:title=" ">
<polygon fill="white" stroke="transparent" points="230,-231.5 138,-231.5 138,-182.5 230,-182.5 230,-231.5"/>
<text text-anchor="start" x="143" y="-219" font-family="Helvetica,sans-Serif" font-size="10.00">UOWGA_Passive</text>
<text text-anchor="start" x="182" y="-204" font-family="Helvetica,sans-Serif" font-size="10.00"> </text>
<text text-anchor="start" x="182" y="-189" font-family="Helvetica,sans-Serif" font-size="10.00"> </text>
<polygon fill="#bfbfbf" stroke="#bfbfbf" points="138,-214 138,-214 230,-214 230,-214 138,-214"/>
<polygon fill="#bfbfbf" stroke="#bfbfbf" points="138,-199 138,-199 230,-199 230,-199 138,-199"/>
<polygon fill="none" stroke="#bfbfbf" points="138,-182.5 138,-231.5 230,-231.5 230,-182.5 138,-182.5"/>
</a>
</g>
</g>
<!-- Node1&#45;&gt;Node4 -->
<g id="edge3_Node000001_Node000004" class="edge">
<title>Node1&#45;&gt;Node4</title>
<g id="a_edge3_Node000001_Node000004"><a xlink:title=" ">
<path fill="none" stroke="#63b8ff" d="M184,-294.73C184,-274.72 184,-249.84 184,-231.87"/>
<polygon fill="none" stroke="#63b8ff" points="180.5,-294.98 184,-304.98 187.5,-294.98 180.5,-294.98"/>
</a>
</g>
</g>
<!-- Node6 -->
<g id="Node000006" class="node">
<title>Node6</title>
<g id="a_Node000006"><a xlink:href="classUOWGA__Ultimate.html" target="_top" xlink:title=" ">
<polygon fill="white" stroke="transparent" points="364,-254 248,-254 248,-160 364,-160 364,-254"/>
<text text-anchor="start" x="262" y="-242" font-family="Helvetica,sans-Serif" font-size="10.00">UOWGA_Ultimate</text>
<text text-anchor="start" x="252" y="-227" font-family="Helvetica,sans-Serif" font-size="10.00">#</text>
<text text-anchor="start" x="265" y="-227" font-family="Helvetica,sans-Serif" font-size="10.00">UltCost</text>
<text text-anchor="start" x="252" y="-212" font-family="Helvetica,sans-Serif" font-size="10.00">+</text>
<text text-anchor="start" x="265" y="-212" font-family="Helvetica,sans-Serif" font-size="10.00">UOWGA_Ultimate()</text>
<text text-anchor="start" x="252" y="-197" font-family="Helvetica,sans-Serif" font-size="10.00">+</text>
<text text-anchor="start" x="265" y="-197" font-family="Helvetica,sans-Serif" font-size="10.00">CheckCost()</text>
<text text-anchor="start" x="252" y="-182" font-family="Helvetica,sans-Serif" font-size="10.00">+</text>
<text text-anchor="start" x="265" y="-182" font-family="Helvetica,sans-Serif" font-size="10.00">ApplyCost()</text>
<text text-anchor="start" x="252" y="-167" font-family="Helvetica,sans-Serif" font-size="10.00">+</text>
<text text-anchor="start" x="265" y="-167" font-family="Helvetica,sans-Serif" font-size="10.00">ActivateAbility()</text>
<polygon fill="#666666" stroke="#666666" points="248,-237 248,-237 364,-237 364,-237 248,-237"/>
<polygon fill="#666666" stroke="#666666" points="248,-222 248,-222 263,-222 263,-222 248,-222"/>
<polygon fill="#666666" stroke="#666666" points="263,-222 263,-222 364,-222 364,-222 263,-222"/>
<polygon fill="none" stroke="#666666" points="248,-160 248,-254 364,-254 364,-160 248,-160"/>
</a>
</g>
</g>
<!-- Node1&#45;&gt;Node6 -->
<g id="edge5_Node000001_Node000006" class="edge">
<title>Node1&#45;&gt;Node6</title>
<g id="a_edge5_Node000001_Node000006"><a xlink:title=" ">
<path fill="none" stroke="#63b8ff" d="M214.95,-297.93C228.31,-284.73 244.24,-269 259.02,-254.41"/>
<polygon fill="none" stroke="#63b8ff" points="212.47,-295.46 207.81,-304.98 217.39,-300.44 212.47,-295.46"/>
</a>
</g>
</g>
<!-- Node2 -->
<g id="Node000002" class="node">
<title>Node2</title>
<g id="a_Node000002"><a xlink:title=" ">
<polygon fill="white" stroke="transparent" points="234,-439 134,-439 134,-390 234,-390 234,-439"/>
<text text-anchor="start" x="139" y="-426.5" font-family="Helvetica,sans-Serif" font-size="10.00">UGameplayAbility</text>
<text text-anchor="start" x="182" y="-411.5" font-family="Helvetica,sans-Serif" font-size="10.00"> </text>
<text text-anchor="start" x="182" y="-396.5" font-family="Helvetica,sans-Serif" font-size="10.00"> </text>
<polygon fill="#bfbfbf" stroke="#bfbfbf" points="134,-421.5 134,-421.5 234,-421.5 234,-421.5 134,-421.5"/>
<polygon fill="#bfbfbf" stroke="#bfbfbf" points="134,-406.5 134,-406.5 234,-406.5 234,-406.5 134,-406.5"/>
<polygon fill="none" stroke="#bfbfbf" points="134,-390 134,-439 234,-439 234,-390 134,-390"/>
</a>
</g>
</g>
<!-- Node2&#45;&gt;Node1 -->
<g id="edge1_Node000001_Node000002" class="edge">
<title>Node2&#45;&gt;Node1</title>
<g id="a_edge1_Node000001_Node000002"><a xlink:title=" ">
<path fill="none" stroke="#63b8ff" d="M184,-379.77C184,-371.17 184,-362.1 184,-354.12"/>
<polygon fill="none" stroke="#63b8ff" points="180.5,-379.94 184,-389.94 187.5,-379.94 180.5,-379.94"/>
</a>
</g>
</g>
<!-- Node5 -->
<g id="Node000005" class="node">
<title>Node5</title>
<g id="a_Node000005"><a xlink:href="classUOWGA__Reload.html" target="_top" xlink:title=" ">
<polygon fill="white" stroke="transparent" points="246,-109 122,-109 122,0 246,0 246,-109"/>
<text text-anchor="start" x="144.5" y="-96.5" font-family="Helvetica,sans-Serif" font-size="10.00">UOWGA_Reload</text>
<text text-anchor="start" x="182" y="-81.5" font-family="Helvetica,sans-Serif" font-size="10.00"> </text>
<text text-anchor="start" x="126" y="-66.5" font-family="Helvetica,sans-Serif" font-size="10.00">+</text>
<text text-anchor="start" x="139" y="-66.5" font-family="Helvetica,sans-Serif" font-size="10.00">SetCurrentMontage()</text>
<text text-anchor="start" x="126" y="-51.5" font-family="Helvetica,sans-Serif" font-size="10.00">+</text>
<text text-anchor="start" x="139" y="-51.5" font-family="Helvetica,sans-Serif" font-size="10.00">CanActivateAbility()</text>
<text text-anchor="start" x="126" y="-36.5" font-family="Helvetica,sans-Serif" font-size="10.00">+</text>
<text text-anchor="start" x="139" y="-36.5" font-family="Helvetica,sans-Serif" font-size="10.00">ActivateAbility()</text>
<text text-anchor="start" x="126" y="-21.5" font-family="Helvetica,sans-Serif" font-size="10.00">+</text>
<text text-anchor="start" x="139" y="-21.5" font-family="Helvetica,sans-Serif" font-size="10.00">EndAbility()</text>
<text text-anchor="start" x="126" y="-6.5" font-family="Helvetica,sans-Serif" font-size="10.00">+</text>
<text text-anchor="start" x="139" y="-6.5" font-family="Helvetica,sans-Serif" font-size="10.00">Reload()</text>
<polygon fill="#bfbfbf" stroke="#bfbfbf" points="122,-91.5 122,-91.5 246,-91.5 246,-91.5 122,-91.5"/>
<polygon fill="#bfbfbf" stroke="#bfbfbf" points="122,-76.5 122,-76.5 246,-76.5 246,-76.5 122,-76.5"/>
<polygon fill="none" stroke="#bfbfbf" points="122,0 122,-109 246,-109 246,0 122,0"/>
</a>
</g>
</g>
<!-- Node4&#45;&gt;Node5 -->
<g id="edge4_Node000004_Node000005" class="edge">
<title>Node4&#45;&gt;Node5</title>
<g id="a_edge4_Node000004_Node000005"><a xlink:title=" ">
<path fill="none" stroke="#63b8ff" d="M184,-172.42C184,-153.8 184,-130.2 184,-109.09"/>
<polygon fill="none" stroke="#63b8ff" points="180.5,-172.48 184,-182.48 187.5,-172.48 180.5,-172.48"/>
</a>
</g>
</g>
</g>
</svg>
